v 0.2837 0.03432 -0.049879
v 0.29298 0.034275 -0.063088
v 0.29075 0.033916 -0.067688
v 0.28455 0.032796 -0.068774
v 0.27903 0.03106 -0.067394
v 0.2826 0.030952 -0.074402
v 0.276 0.028358 -0.071794
v 0.27578 0.027744 -0.072243
v 0.27666 0.027275 -0.074569
v 0.27558 0.026867 -0.072383
v 0.28073 0.027295 -0.079686
v 0.2823 0.015546 -0.081063
v 0.2868 0.01534 -0.083375
v 0.28412 0.015386 -0.082151
v 0.28183 0.014862 -0.080474
v 0.28976 0.014974 -0.084126
v 0.29267 0.015096 -0.084508
v 0.30133 0.01536 -0.082938
v 0.29849 0.015495 -0.08395
v 0.29553 0.015245 -0.084482
v 0.29542 0.027379 -0.084489
v 0.29848 0.027417 -0.083923
v 0.30142 0.027377 -0.082881
v 0.30419 0.027565 -0.081309
v 0.30666 0.027243 -0.079381
v 0.30879 0.027149 -0.077035
v 0.31049 0.027244 -0.074327
v 0.31175 0.026954 -0.071423
v 0.31252 0.026666 -0.068326
v 0.31233 0.027482 -0.068262
v 0.3126 0.027537 -0.064213
v 0.31172 0.028718 -0.063731
v 0.31059 0.029239 -0.060508
v 0.30993 0.028947 -0.054993
v 0.3047 0.030688 -0.044261
v 0.29996 0.032881 -0.045519
v 0.28898 0.034777 -0.04846
v 0.27086 0.029441 -0.053316
v 0.27854 0.033064 -0.05126
v 0.27623 0.030576 -0.062238
v 0.27076 0.027751 -0.060346
v 0.26704 0.024471 -0.0612
v 0.27335 0.028004 -0.064777
v 0.27287 0.027699 -0.064324
v 0.27622 0.029052 -0.070332
v 0.27413 0.028984 -0.064531
v 0.27389 0.028833 -0.06445
v 0.27293 0.028543 -0.063107
v 0.27372 0.027721 -0.065889
v 0.27359 0.027581 -0.065632
v 0.27352 0.027484 -0.065556
v 0.27345 0.026739 -0.065638
v 0.27294 0.017959 -0.064869
v 0.27293 0.015686 -0.064815
v 0.27269 0.014226 -0.064123
v 0.2724 0.017271 -0.063181
v 0.27267 0.016607 -0.064543
v 0.272 0.015765 -0.064142
v 0.27132 0.015215 -0.063888
v 0.27215 0.014831 -0.06408
v 0.27154 0.01365 -0.063686
v 0.27037 0.014747 -0.063844
v 0.27081 0.014932 -0.063815
v 0.27166 0.01261 -0.063516
v 0.27282 0.013092 -0.06358
v 0.27322 0.012759 -0.063467
v 0.272 0.012946 -0.06349
v 0.27328 0.011195 -0.063056
v 0.27456 0.010981 -0.06272
v 0.27451 0.005112 -0.062717
v 0.27451 -0.000193 -0.062717
v 0.27495 0.005162 -0.062653
v 0.27488 -0.000148 -0.062652
v 0.27517 0.005186 -0.062647
v 0.275 0.010475 -0.062631
v 0.27525 0.010511 -0.062615
v 0.27509 0.01067 -0.062621
v 0.27509 0.0114 -0.062718
v 0.27349 0.013173 -0.063782
v 0.27461 0.013362 -0.064529
v 0.27385 0.013856 -0.064637
v 0.27324 0.01457 -0.064756
v 0.27446 0.014217 -0.06627
v 0.27332 0.014931 -0.065102
v 0.27391 0.015429 -0.066961
v 0.27357 0.015733 -0.065968
v 0.27532 0.014708 -0.070844
v 0.27568 0.014219 -0.070887
v 0.27626 0.013904 -0.071826
v 0.27351 0.015194 -0.06561
v 0.27609 0.011959 -0.063303
v 0.27573 0.011304 -0.062725
v 0.27553 0.01055 -0.062625
v 0.27547 0.010568 -0.06262
v 0.27548 0.010543 -0.062621
v 0.27538 0.005207 -0.06266
v 0.2756 0.005227 -0.062693
v 0.27525 -0.000117 -0.062652
v 0.27513 -0.005447 -0.062641
v 0.27544 -0.000107 -0.062682
v 0.27507 -0.00013 -0.062643
v 0.27498 -0.005455 -0.062636
v 0.27494 -0.010805 -0.062658
v 0.27482 -0.005469 -0.062649
v 0.27479 -0.010814 -0.062665
v 0.27467 -0.005488 -0.062676
v 0.27451 -0.005513 -0.062717
v 0.27466 -0.01083 -0.062686
v 0.27302 -0.011126 -0.06312
v 0.27475 -0.010819 -0.062671
v 0.26944 -0.01501 -0.064003
v 0.26815 -0.015263 -0.064361
v 0.26625 -0.017704 -0.064939
v 0.26634 -0.017325 -0.064804
v 0.2661 -0.018148 -0.063937
v 0.26633 -0.018776 -0.064805
v 0.26668 -0.020077 -0.06378
v 0.26821 -0.02117 -0.064315
v 0.26836 -0.021252 -0.06333
v 0.26916 -0.021375 -0.064048
v 0.27038 -0.021046 -0.06279
v 0.27139 -0.020619 -0.063449
v 0.27217 -0.019381 -0.06324
v 0.27174 -0.0197 -0.062425
v 0.27208 -0.017783 -0.062333
v 0.27136 -0.015874 -0.063458
v 0.27115 -0.015923 -0.062584
v 0.26885 -0.015063 -0.063199
v 0.26677 -0.016252 -0.063756
v 0.26681 -0.016352 -0.064702
v 0.27241 -0.018664 -0.063175
v 0.27267 -0.015867 -0.064544
v 0.27304 -0.01542 -0.064709
v 0.27374 -0.014093 -0.064206
v 0.27425 -0.012505 -0.063163
v 0.27392 -0.011885 -0.062951
v 0.27293 -0.012417 -0.063202
v 0.27033 -0.015158 -0.063891
v 0.27065 -0.015278 -0.063817
v 0.27068 -0.01534 -0.063639
v 0.27223 -0.017043 -0.063225
v 0.27154 -0.0158 -0.063963
v 0.27199 -0.016205 -0.064141
v 0.27266 -0.014102 -0.063793
v 0.27225 -0.014313 -0.063787
v 0.27216 -0.016408 -0.064227
v 0.27457 -0.011295 -0.062729
v 0.2751 -0.011777 -0.062864
v 0.27549 -0.011388 -0.062864
v 0.27542 -0.011967 -0.063125
v 0.27588 -0.011615 -0.063338
v 0.27595 -0.012037 -0.063804
v 0.27577 -0.012996 -0.065071
v 0.27609 -0.012169 -0.064124
v 0.27656 -0.011477 -0.064885
v 0.27691 -0.012278 -0.066887
v 0.27816 -0.011648 -0.070203
v 0.28044 -0.011605 -0.074732
v 0.27903 -0.011621 -0.072373
v 0.28192 -0.011579 -0.076501
v 0.28161 0.010912 -0.073643
v 0.28301 0.010938 -0.075364
v 0.27832 -0.01037 -0.070269
v 0.27964 0.011164 -0.069691
v 0.28053 0.010725 -0.071858
v 0.28142 0.011571 -0.073778
v 0.27984 0.011733 -0.07124
v 0.28006 0.01119 -0.070936
v 0.27801 0.012073 -0.066366
v 0.27817 0.01159 -0.065338
v 0.27795 0.011805 -0.065293
v 0.27764 0.011767 -0.064373
v 0.27637 0.011225 -0.062876
v 0.27762 0.011097 -0.063754
v 0.27806 0.01082 -0.064458
v 0.27781 0.0095482 -0.064114
v 0.27761 0.010728 -0.063695
v 0.2775 0.01112 -0.063601
v 0.27714 0.011097 -0.063266
v 0.27671 0.010695 -0.062973
v 0.27715 0.010263 -0.063282
v 0.27644 0.010665 -0.062844
v 0.27638 0.010657 -0.062819
v 0.27648 0.011291 -0.06291
v 0.27622 0.010638 -0.062762
v 0.27615 0.010631 -0.062742
v 0.27595 0.010605 -0.06269
v 0.2758 0.005243 -0.062742
v 0.27561 -0.000103 -0.062729
v 0.276 0.005258 -0.062806
v 0.27619 0.005269 -0.062885
v 0.27579 -0.000103 -0.062796
v 0.27595 -0.000107 -0.06288
v 0.2756 -0.005467 -0.062781
v 0.27575 -0.005486 -0.062869
v 0.27545 -0.005453 -0.062712
v 0.27551 -0.010848 -0.062827
v 0.27541 -0.01083 -0.062773
v 0.2756 -0.011221 -0.062918
v 0.2758 -0.011287 -0.063129
v 0.27563 -0.010879 -0.062922
v 0.27588 -0.00551 -0.062976
v 0.27626 -0.000124 -0.063095
v 0.27665 0.00020138 -0.063468
v 0.27611 -0.000115 -0.062979
v 0.27636 0.005279 -0.062976
v 0.27587 -0.010907 -0.063196
v 0.27627 -0.011586 -0.064045
v 0.2768 -0.0041498 -0.064179
v 0.27816 0.010345 -0.064844
v 0.2761 -0.011317 -0.063598
v 0.27644 -0.011223 -0.064416
v 0.27505 -0.011366 -0.062718
v 0.27482 -0.011115 -0.062679
v 0.27505 -0.010802 -0.062664
v 0.27508 -0.010802 -0.062669
v 0.27518 -0.010805 -0.062687
v 0.27523 -0.010809 -0.062701
v 0.27529 -0.005447 -0.062667
v 0.27529 -0.010815 -0.062718
v 0.27537 -0.010823 -0.062752
v 0.2749 -0.010807 -0.062658
v 0.2749 -0.010807 -0.062658
v 0.2789 0.011304 -0.067306
v 0.27862 0.011206 -0.066253
v 0.27796 0.011255 -0.064301
v 0.27709 0.011866 -0.063816
v 0.27674 0.012538 -0.064941
v 0.27648 0.01299 -0.066327
v 0.27884 0.012562 -0.071976
v 0.27749 0.013236 -0.07223
v 0.27644 0.013436 -0.070179
v 0.27638 0.014096 -0.072533
v 0.27906 0.013661 -0.076344
v 0.28289 0.012442 -0.077184
v 0.2803 0.012335 -0.073923
v 0.27788 0.012713 -0.070222
v 0.27749 0.01292 -0.070345
v 0.27908 0.011954 -0.069655
v 0.28161 0.011939 -0.074681
v 0.28331 0.011527 -0.075959
v 0.28488 0.012007 -0.077837
v 0.28643 0.011542 -0.078236
v 0.28457 0.011414 -0.076963
v 0.28847 0.011515 -0.079164
v 0.29286 0.011478 -0.080029
v 0.29137 0.011733 -0.080084
v 0.29426 0.012134 -0.080711
v 0.29512 0.011685 -0.080096
v 0.29938 0.011417 -0.078743
v 0.29847 0.012119 -0.079852
v 0.30293 0.012217 -0.077674
v 0.2973 0.011327 -0.079456
v 0.30143 0.011625 -0.07779
v 0.30582 0.011558 -0.073473
v 0.30775 0.011734 -0.069638
v 0.30815 0.011626 -0.063237
v 0.30886 0.012192 -0.063738
v 0.30754 0.012373 -0.056541
v 0.30673 0.011651 -0.057291
v 0.30794 0.011285 -0.063139
v 0.30769 0.011106 -0.06218
v 0.30715 0.011301 -0.059815
v 0.30661 0.011567 -0.056395
v 0.30653 0.011332 -0.056126
v 0.30661 0.011094 -0.055403
v 0.30677 0.010727 -0.055046
v 0.30746 -0.0055758 -0.055169
v 0.30724 -0.0025244 -0.055438
v 0.30754 -0.005535 -0.054651
v 0.30739 -0.000112 -0.054596
v 0.30717 0.005283 -0.054721
v 0.30748 -0.000105 -0.054433
v 0.30759 -0.005508 -0.054479
v 0.30765 -0.005485 -0.054319
v 0.30773 -0.010913 -0.054463
v 0.30771 -0.011357 -0.054778
v 0.30777 -0.011159 -0.05437
v 0.30777 -0.010878 -0.054308
v 0.30823 -0.011233 -0.053774
v 0.30824 -0.010803 -0.053737
v 0.30826 -0.010804 -0.053726
v 0.30847 -0.01101 -0.053631
v 0.30837 -0.010814 -0.053668
v 0.30834 -0.005468 -0.053665
v 0.3085 -0.01083 -0.053616
v 0.30849 -0.005486 -0.053614
v 0.30864 -0.005511 -0.053572
v 0.30852 -0.010871 -0.053605
v 0.30892 -0.011715 -0.05358
v 0.30862 -0.011866 -0.053769
v 0.30791 -0.011666 -0.054368
v 0.30769 -0.011052 -0.054892
v 0.30776 -0.011465 -0.055522
v 0.30647 0.010725 -0.055896
v 0.30645 0.010654 -0.056964
v 0.30644 0.010932 -0.056899
v 0.30641 0.01104 -0.056642
v 0.30643 0.011178 -0.056234
v 0.30725 -0.00014651 -0.056986
v 0.3077 0.010481 -0.062315
v 0.30798 -0.011574 -0.056565
v 0.30928 -0.011844 -0.061993
v 0.30956 -0.011959 -0.067028
v 0.30796 0.011033 -0.066571
v 0.30759 0.010997 -0.068759
v 0.30803 0.011195 -0.064368
v 0.30793 0.010896 -0.063531
v 0.30711 0.010886 -0.059827
v 0.30839 0.011896 -0.066957
v 0.30819 0.011518 -0.064354
v 0.30836 0.012058 -0.061954
v 0.30849 0.011901 -0.063999
v 0.30736 0.012176 -0.057805
v 0.30806 0.012056 -0.060801
v 0.30642 0.010927 -0.072052
v 0.30528 -0.011552 -0.076359
v 0.2984 0.01097 -0.079052
v 0.29327 -0.011581 -0.081448
v 0.29046 -0.010835 -0.081097
v 0.28607 -0.0116 -0.079629
v 0.28834 -0.011583 -0.080594
v 0.29107 -0.011547 -0.081268
v 0.29645 -0.011979 -0.08125
v 0.30339 -0.011986 -0.078146
v 0.30548 -0.012283 -0.076469
v 0.30692 -0.011995 -0.074385
v 0.30907 -0.012017 -0.069753
v 0.30963 -0.011951 -0.064574
v 0.30978 -0.012906 -0.061312
v 0.30802 -0.012251 -0.055637
v 0.30786 -0.011837 -0.055532
v 0.30794 -0.012056 -0.055081
v 0.30794 -0.011934 -0.054503
v 0.30855 -0.012456 -0.054277
v 0.31009 -0.013984 -0.054216
v 0.30975 -0.012844 -0.05357
v 0.31098 -0.014277 -0.05347
v 0.31149 -0.01415 -0.053006
v 0.31194 -0.015704 -0.053026
v 0.31176 -0.015811 -0.05318
v 0.31013 -0.014381 -0.054852
v 0.311 -0.014923 -0.053852
v 0.30806 -0.012313 -0.054975
v 0.30896 -0.013257 -0.056213
v 0.31018 -0.014508 -0.055464
v 0.31087 -0.015418 -0.055812
v 0.31215 -0.01516 -0.061864
v 0.31097 -0.015791 -0.055347
v 0.31102 -0.021736 -0.055459
v 0.31104 -0.02718 -0.055737
v 0.31241 -0.027341 -0.061805
v 0.31166 -0.027967 -0.058962
v 0.31097 -0.028028 -0.05596
v 0.31166 -0.027968 -0.058962
v 0.31234 -0.02782 -0.061981
v 0.31051 -0.027469 -0.074353
v 0.31005 -0.028881 -0.073914
v 0.30882 -0.027955 -0.076949
v 0.30666 -0.02768 -0.079382
v 0.30643 -0.028895 -0.078906
v 0.30421 -0.027969 -0.081316
v 0.30395 -0.029544 -0.080299
v 0.30133 -0.029056 -0.08236
v 0.29835 -0.029078 -0.083434
v 0.29524 -0.029056 -0.083993
v 0.28079 -0.027799 -0.079702
v 0.27693 -0.028328 -0.07448
v 0.27601 -0.028829 -0.071819
v 0.27509 -0.029325 -0.067792
v 0.27648 -0.029507 -0.071104
v 0.28344 -0.03291 -0.068967
v 0.28205 -0.031189 -0.074435
v 0.27903 -0.029092 -0.07655
v 0.28234 -0.029203 -0.079802
v 0.28334 -0.028481 -0.081277
v 0.28614 -0.028789 -0.08264
v 0.28918 -0.029302 -0.083293
v 0.28539 -0.029619 -0.081204
v 0.2881 -0.031757 -0.077679
v 0.29237 -0.029576 -0.083526
v 0.29672 -0.029852 -0.082975
v 0.2969 -0.031957 -0.078018
v 0.30108 -0.031661 -0.076899
v 0.29777 -0.033472 -0.07244
v 0.3059 -0.029921 -0.077762
v 0.30831 -0.029517 -0.075656
v 0.3116 -0.028152 -0.071321
v 0.31036 -0.029613 -0.070514
v 0.30432 -0.032147 -0.071103
v 0.30662 -0.031895 -0.063613
v 0.30329 -0.033 -0.06632
v 0.30359 -0.032932 -0.060784
v 0.29849 -0.034163 -0.06591
v 0.30766 -0.030677 -0.054498
v 0.3047 -0.031175 -0.044251
v 0.29449 -0.034734 -0.046986
v 0.29996 -0.033327 -0.045519
v 0.31193 -0.026024 -0.042313
v 0.31186 -0.027397 -0.050099
v 0.31536 -0.02397 -0.048714
v 0.31443 -0.025004 -0.049666
v 0.31852 -0.019978 -0.048048
v 0.32117 -0.015319 -0.047536
v 0.31469 -0.024544 -0.05029
v 0.31799 -0.020362 -0.049855
v 0.312 -0.027204 -0.051623
v 0.31102 -0.028237 -0.05177
v 0.31021 -0.028996 -0.053193
v 0.31067 -0.028563 -0.053026
v 0.31064 -0.028545 -0.055352
v 0.31042 -0.029002 -0.055783
v 0.31054 -0.029286 -0.057299
v 0.31215 -0.02866 -0.062924
v 0.31214 -0.028755 -0.064937
v 0.31103 -0.029611 -0.062702
v 0.31005 -0.02929 -0.054894
v 0.3109 -0.028027 -0.055634
v 0.31097 -0.028029 -0.05596
v 0.31092 -0.027745 -0.055226
v 0.3111 -0.018929 -0.054448
v 0.31068 -0.018563 -0.052921
v 0.31109 -0.017633 -0.054535
v 0.31088 -0.017055 -0.052868
v 0.3113 -0.016703 -0.053947
v 0.31102 -0.015955 -0.05473
v 0.31112 -0.015761 -0.054302
v 0.31063 -0.015047 -0.055566
v 0.31109 -0.01598 -0.055967
v 0.31097 -0.015781 -0.055633
v 0.31102 -0.016376 -0.054984
v 0.31116 -0.016203 -0.051862
v 0.31168 -0.015928 -0.052656
v 0.31336 -0.015113 -0.051274
v 0.31255 -0.015261 -0.052421
v 0.31561 -0.015889 -0.05067
v 0.31646 -0.017697 -0.050441
v 0.31638 -0.019258 -0.050463
v 0.31476 -0.021127 -0.050895
v 0.3165 -0.019768 -0.051361
v 0.31239 -0.021105 -0.051533
v 0.31119 -0.020115 -0.051855
v 0.31056 -0.018663 -0.052024
v 0.31684 -0.01773 -0.051307
v 0.32164 -0.0090956 -0.050085
v 0.32006 -0.01552 -0.050115
v 0.32317 0.0042456 -0.049452
v 0.32173 0.0091008 -0.049982
v 0.31969 0.014026 -0.050597
v 0.31722 0.018415 -0.051189
v 0.3171 0.017911 -0.051291
v 0.31751 0.018796 -0.050932
v 0.31724 0.018565 -0.051153
v 0.31777 0.019006 -0.050672
v 0.31855 0.018968 -0.049689
v 0.3183 0.019598 -0.049411
v 0.31835 0.019713 -0.048947
v 0.31833 0.019788 -0.048473
v 0.31826 0.019839 -0.04801
v 0.31398 0.023248 -0.041789
v 0.30975 0.027397 -0.042896
v 0.31857 0.016937 -0.040533
v 0.32235 0.0060654 -0.039521
v 0.3232 0.0087761 -0.046237
v 0.32422 0.0032119 -0.046175
v 0.32137 0.014318 -0.047233
v 0.31833 0.019788 -0.048474
v 0.31861 0.019376 -0.04843
v 0.31835 0.019695 -0.049095
v 0.31862 0.019313 -0.048835
v 0.32113 0.014827 -0.048162
v 0.32088 0.01463 -0.049302
v 0.32308 0.0097884 -0.047489
v 0.32408 0.0049614 -0.047683
v 0.32337 -0.0055472 -0.049096
v 0.32236 -0.0107 -0.049203
v 0.31354 -0.025074 -0.051507
v 0.31273 -0.026208 -0.051574
v 0.31143 -0.027596 -0.052675
v 0.311 -0.027178 -0.055324
v 0.31114 -0.026797 -0.054335
v 0.31108 -0.019769 -0.052815
v 0.31157 -0.020401 -0.053425
v 0.31235 -0.021061 -0.052725
v 0.3122 -0.020992 -0.052514
v 0.31352 -0.021409 -0.052224
v 0.31497 -0.021201 -0.051814
v 0.31604 -0.020425 -0.051507
v 0.31276 -0.02446 -0.052425
v 0.31156 -0.026273 -0.05347
v 0.31223 -0.025968 -0.052543
v 0.31255 -0.025198 -0.052408
v 0.31298 -0.024316 -0.052308
v 0.31281 -0.023197 -0.052495
v 0.31656 -0.019841 -0.051408
v 0.32072 -0.01579 -0.048937
v 0.32399 -0.00022311 -0.048818
v 0.32449 -0.00022111 -0.046866
v 0.32405 -0.0056006 -0.047661
v 0.32422 -0.0037171 -0.04619
v 0.32267 -0.003113 -0.039433
v 0.32089 -0.012109 -0.039911
v 0.31728 -0.019366 -0.040877
v 0.32313 -0.010156 -0.047193
v 0.32259 0.0097454 -0.049003
v 0.31884 0.018931 -0.047773
v 0.31342 0.025562 -0.049728
v 0.3154 0.023534 -0.048816
v 0.31286 0.026048 -0.050657
v 0.31198 0.026901 -0.051003
v 0.3117 0.027162 -0.050856
v 0.31165 0.027024 -0.049511
v 0.31033 0.028377 -0.052353
v 0.31024 0.028563 -0.053738
v 0.31085 0.0277 -0.05542
v 0.31103 0.026716 -0.055621
v 0.31253 0.026957 -0.062429
v 0.31106 0.015908 -0.055795
v 0.31102 0.015626 -0.055496
v 0.31075 0.014641 -0.055956
v 0.31097 0.014887 -0.054492
v 0.31044 0.014235 -0.055275
v 0.30864 0.012919 -0.055446
v 0.30901 0.012916 -0.05477
v 0.30719 0.011776 -0.054978
v 0.30698 0.011594 -0.055124
v 0.30793 0.01058 -0.053861
v 0.30763 0.010565 -0.054062
v 0.30755 0.010578 -0.054122
v 0.30775 0.010544 -0.053974
v 0.30786 0.005211 -0.053957
v 0.30769 0.005231 -0.054094
v 0.30803 0.00519 -0.053841
v 0.30797 -0.000114 -0.053884
v 0.30807 -0.005446 -0.053816
v 0.30782 -0.000105 -0.054003
v 0.30812 -0.000127 -0.053786
v 0.3082 -0.005453 -0.053735
v 0.30829 -0.000145 -0.053698
v 0.30823 0.005166 -0.053733
v 0.30864 -0.00019 -0.053572
v 0.30864 0.005116 -0.053572
v 0.30835 0.011128 -0.053688
v 0.30818 0.010475 -0.05374
v 0.30873 0.011724 -0.053718
v 0.31093 0.011646 -0.052963
v 0.31449 0.014674 -0.051962
v 0.31084 0.012407 -0.053037
v 0.30914 0.011859 -0.053582
v 0.31035 0.013909 -0.054561
v 0.3106 0.013496 -0.053686
v 0.31141 0.014142 -0.053275
v 0.31299 0.014659 -0.052387
v 0.31363 0.014618 -0.052131
v 0.31573 0.015193 -0.051672
v 0.31684 0.018161 -0.051313
v 0.3159 0.015868 -0.050591
v 0.31677 0.016917 -0.051336
v 0.31588 0.015429 -0.051529
v 0.31387 0.014612 -0.051136
v 0.31155 0.015435 -0.051758
v 0.31058 0.0172 -0.052019
v 0.31074 0.017192 -0.052907
v 0.31107 0.017884 -0.054688
v 0.31109 0.021291 -0.054544
v 0.31101 0.026696 -0.054954
v 0.31119 0.026606 -0.054172
v 0.31119 0.027505 -0.052641
v 0.31074 0.028032 -0.053365
v 0.3123 0.02576 -0.052289
v 0.31193 0.026739 -0.05183
v 0.31233 0.025412 -0.052484
v 0.31225 0.025219 -0.052649
v 0.31296 0.024706 -0.052103
v 0.31268 0.023747 -0.052521
v 0.31175 0.025281 -0.053257
v 0.31222 0.020512 -0.052844
v 0.31143 0.019685 -0.053653
v 0.31375 0.021027 -0.052193
v 0.31297 0.02168 -0.052464
v 0.31609 0.020898 -0.051291
v 0.31384 0.022934 -0.05202
v 0.31359 0.023597 -0.051986
v 0.31785 0.019102 -0.050538
v 0.31771 0.019155 -0.050697
v 0.31779 0.019039 -0.050637
v 0.3173 0.018627 -0.051106
v 0.31698 0.018369 -0.051303
v 0.31665 0.019014 -0.051373
v 0.31637 0.019482 -0.051407
v 0.31578 0.020217 -0.051576
v 0.3154 0.020479 -0.051702
v 0.31425 0.020928 -0.051976
v 0.3179 0.019064 -0.050539
v 0.31824 0.019514 -0.049656
v 0.31835 0.019713 -0.048948
v 0.31835 0.019716 -0.048944
v 0.3183 0.019627 -0.049356
v 0.31616 0.022561 -0.049674
v 0.31818 0.019464 -0.049948
v 0.31323 0.025267 -0.051323
v 0.31154 0.026358 -0.053401
v 0.31071 0.018266 -0.052916
v 0.31098 0.015423 -0.055196
v 0.31105 0.015462 -0.054608
v 0.31127 0.015481 -0.054009
v 0.31119 0.014584 -0.053736
v 0.31168 0.015539 -0.053337
v 0.31139 0.015728 -0.052733
v 0.31139 0.016043 -0.053775
v 0.31119 0.016601 -0.054202
v 0.31145 0.015776 -0.053668
v 0.31213 0.015105 -0.052865
v 0.3117 0.013867 -0.052953
v 0.31088 0.019263 -0.051937
v 0.31169 0.020152 -0.052652
v 0.31239 0.020659 -0.051533
v 0.31313 0.020905 -0.052287
v 0.31484 0.020659 -0.050875
v 0.31617 0.019202 -0.050521
v 0.31654 0.017702 -0.050421
v 0.30891 0.012472 -0.054175
v 0.3075 0.01147 -0.054314
v 0.30746 0.01123 -0.054243
v 0.30795 0.010511 -0.053852
v 0.3077 -0.0001 -0.054132
v 0.30794 -0.005446 -0.05392
v 0.30783 -0.005452 -0.054035
v 0.30795 -0.010816 -0.053982
v 0.30812 -0.011312 -0.053863
v 0.30812 -0.010802 -0.053817
v 0.30795 -0.010918 -0.05399
v 0.30792 -0.010823 -0.054031
v 0.30787 -0.011073 -0.054119
v 0.30773 -0.005465 -0.054171
v 0.30782 -0.010852 -0.054186
v 0.30778 -0.010874 -0.054294
v 0.30758 -0.0001 -0.054278
v 0.3074 0.005262 -0.054393
v 0.30754 0.005247 -0.054237
v 0.30727 0.005274 -0.054554
v 0.30707 0.010658 -0.054592
v 0.30718 0.010641 -0.054474
v 0.30738 0.010606 -0.054266
v 0.30698 0.011405 -0.054835
v 0.30707 0.012039 -0.056629
v 0.3097 0.013179 -0.05947
v 0.31104 0.013418 -0.062589
v 0.31185 0.014044 -0.06238
v 0.31126 0.013393 -0.064844
v 0.31037 0.013209 -0.061258
v 0.30866 0.012246 -0.069073
v 0.30765 0.013131 -0.075227
v 0.30725 0.012187 -0.072376
v 0.30494 0.012117 -0.075548
v 0.3059 0.013261 -0.077711
v 0.30689 0.013874 -0.077979
v 0.30937 0.013624 -0.074028
v 0.31193 0.014525 -0.069824
v 0.31268 0.015307 -0.066892
v 0.31253 0.014837 -0.063551
v 0.3121 0.014867 -0.061161
v 0.3121 0.015199 -0.06059
v 0.31096 0.0147 -0.056845
v 0.31114 0.015393 -0.056313
v 0.31105 0.015322 -0.055969
v 0.3114 0.015211 -0.057573
v 0.31177 0.015724 -0.058895
v 0.31007 0.015213 -0.075164
v 0.30819 0.014968 -0.077637
v 0.31034 0.0141 -0.073303
v 0.30637 0.015053 -0.079626
v 0.30355 0.014181 -0.081137
v 0.29564 0.012948 -0.082147
v 0.30197 0.012671 -0.079428
v 0.28821 0.012025 -0.079619
v 0.29159 0.012679 -0.081604
v 0.28628 0.013099 -0.080954
v 0.28332 0.013664 -0.080352
v 0.28937 0.013633 -0.083008
v 0.28714 0.014079 -0.082829
v 0.28444 0.01436 -0.081818
v 0.29552 0.014074 -0.083803
v 0.30099 0.014043 -0.082345
v 0.29836 0.014219 -0.083455
v 0.31261 0.015816 -0.062607
v 0.31275 0.026735 -0.0639
v 0.31193 0.015706 -0.071053
v 0.3112 0.015221 -0.072834
v 0.30872 0.016034 -0.077206
v 0.30381 0.015602 -0.081644
v 0.31218 0.027572 -0.061507
v 0.31073 0.028078 -0.055745
v 0.31027 0.028717 -0.055743
v 0.31193 0.028447 -0.062593
v 0.29325 0.013817 -0.083705
v 0.27658 0.01444 -0.073615
v 0.27619 0.014967 -0.073474
v 0.27516 0.01527 -0.070989
v 0.27563 0.015868 -0.072637
v 0.27557 0.026423 -0.07238
v 0.27853 0.027079 -0.077379
v 0.27873 0.0158 -0.077746
v 0.27762 0.015078 -0.0761
v 0.27979 0.014523 -0.078434
v 0.27551 0.014471 -0.070947
v 0.3119 0.01449 -0.061188
v 0.31117 0.013729 -0.061176
v 0.31203 0.014109 -0.066924
v 0.31035 0.013409 -0.070889
v 0.31603 -0.015934 -0.051626
v 0.31635 -0.0164 -0.051404
v 0.31385 -0.014967 -0.052158
v 0.31442 -0.015089 -0.05192
v 0.31286 -0.015166 -0.052455
v 0.31015 -0.011128 -0.053168
v 0.31344 -0.025986 -0.049713
v 0.28369 -0.034792 -0.049878
v 0.27854 -0.03351 -0.05126
v 0.27412 -0.031572 -0.052475
v 0.26481 -0.024645 -0.054944
v 0.26911 -0.028539 -0.053785
v 0.25886 -0.016113 -0.056532
v 0.26163 -0.020791 -0.055789
v 0.26387 -0.020667 -0.063093
v 0.26873 -0.026075 -0.062137
v 0.26738 -0.024825 -0.062312
v 0.26767 -0.024604 -0.062846
v 0.26913 -0.025972 -0.062664
v 0.27142 -0.027516 -0.063173
v 0.26922 -0.026556 -0.06195
v 0.26893 -0.026427 -0.061718
v 0.27212 -0.028045 -0.063434
v 0.27294 -0.028431 -0.064137
v 0.2732 -0.028964 -0.063736
v 0.27368 -0.028098 -0.065851
v 0.27353 -0.028031 -0.065515
v 0.27536 -0.027356 -0.071717
v 0.27361 -0.027169 -0.066078
v 0.27343 -0.027176 -0.065611
v 0.27216 -0.028333 -0.063143
v 0.27205 -0.027025 -0.064
v 0.27057 -0.026301 -0.063342
v 0.27052 -0.025821 -0.063521
v 0.27166 -0.025737 -0.06399
v 0.27204 -0.026364 -0.064141
v 0.27246 -0.01966 -0.064385
v 0.27133 -0.020805 -0.063887
v 0.27124 -0.02499 -0.063894
v 0.27014 -0.02486 -0.063668
v 0.26604 -0.01945 -0.064842
v 0.26655 -0.019628 -0.064764
v 0.26717 -0.020526 -0.064598
v 0.26949 -0.021468 -0.064029
v 0.27024 -0.022369 -0.06388
v 0.27036 -0.021262 -0.063858
v 0.27059 -0.024397 -0.063833
v 0.26997 -0.023572 -0.063911
v 0.26833 -0.021253 -0.064356
v 0.26366 -0.014932 -0.065563
v 0.26069 -0.010553 -0.065932
v 0.26196 0.0097642 -0.066069
v 0.26632 0.017023 -0.064918
v 0.26278 0.014847 -0.065461
v 0.2663 0.018306 -0.064927
v 0.26626 0.018007 -0.064826
v 0.26741 0.015209 -0.064581
v 0.26668 0.016147 -0.064713
v 0.26941 0.014539 -0.064075
v 0.2713 0.012114 -0.063577
v 0.26668 0.019633 -0.063779
v 0.26852 0.020864 -0.064273
v 0.26791 0.020597 -0.063451
v 0.26942 0.020875 -0.063046
v 0.27113 0.020064 -0.062587
v 0.27206 0.018354 -0.062339
v 0.27178 0.01636 -0.062414
v 0.27038 0.014954 -0.06279
v 0.2714 0.015381 -0.063448
v 0.26965 0.014595 -0.063916
v 0.26843 0.01474 -0.063311
v 0.26811 0.014882 -0.064329
v 0.26672 0.015857 -0.06377
v 0.2661 0.017778 -0.063935
v 0.26659 0.019316 -0.064751
v 0.26753 0.020356 -0.064512
v 0.26961 0.020964 -0.063989
v 0.2702 0.02384 -0.063814
v 0.27023 0.022812 -0.063881
v 0.27062 0.020722 -0.063869
v 0.2701 0.020829 -0.063823
v 0.27132 0.020221 -0.063469
v 0.27118 0.020445 -0.063908
v 0.27224 0.018928 -0.063222
v 0.27184 0.02485 -0.064058
v 0.27297 0.021076 -0.064886
v 0.27241 0.019339 -0.064349
v 0.27233 0.026125 -0.06431
v 0.27299 0.026498 -0.064913
v 0.27246 0.027474 -0.063975
v 0.27322 0.026611 -0.065218
v 0.27193 0.027942 -0.062684
v 0.27039 0.026476 -0.062774
v 0.26985 0.02666 -0.061835
v 0.27114 0.027111 -0.062879
v 0.2686 0.025721 -0.061685
v 0.27029 0.027047 -0.061727
v 0.25929 0.010524 -0.064744
v 0.26132 0.015619 -0.064239
v 0.26396 0.020215 -0.063296
v 0.26486 0.019733 -0.064377
v 0.26834 0.023799 -0.063509
v 0.26948 0.025705 -0.062756
v 0.26758 0.024197 -0.06276
v 0.26731 0.024373 -0.062182
v 0.26921 0.024922 -0.06319
v 0.27123 0.026018 -0.063638
v 0.27137 0.026579 -0.063463
v 0.27123 0.025233 -0.063838
v 0.27026 0.024775 -0.063604
v 0.26941 0.023669 -0.063802
v 0.26563 0.019123 -0.06482
v 0.26046 0.010207 -0.065796
v 0.25905 0.005142 -0.065981
v 0.25783 -0.0056308 -0.064692
v 0.25919 -0.010988 -0.064618
v 0.26114 -0.015984 -0.063984
v 0.25683 -0.011036 -0.057076
v 0.25765 -0.00022269 -0.065274
v 0.25517 -0.000223 -0.057519
v 0.25794 0.0051802 -0.064929
v 0.25683 0.01059 -0.057076
v 0.25891 0.010524 -0.063901
v 0.25886 0.015666 -0.056532
v 0.26163 0.020348 -0.055789
v 0.26508 0.024526 -0.054866
v 0.25559 0.0052485 -0.057408
v 0.25559 -0.005698 -0.057408
v 0.26432 -0.02047 -0.063821
v 0.26512 -0.020069 -0.064561
v 0.26854 -0.024053 -0.063663
v 0.26834 -0.024526 -0.063345
v 0.26237 -0.015566 -0.065249
v 0.25912 -0.00018751 -0.066311
v 0.26015 -0.0054406 -0.066339
v 0.25887 -0.0055908 -0.065897
v 0.26055 -0.0046955 -0.066449
v 0.26035 0.0043803 -0.066416
v 0.27301 -0.026923 -0.064924
v 0.27327 -0.027267 -0.065261
v 0.27349 -0.016416 -0.065726
v 0.27359 -0.015657 -0.065718
v 0.27374 -0.015547 -0.066107
v 0.27337 -0.016068 -0.065423
v 0.27534 -0.016153 -0.071731
v 0.27664 -0.015694 -0.074516
v 0.27853 -0.027488 -0.077395
v 0.27672 -0.027174 -0.074762
v 0.27575 -0.02761 -0.072701
v 0.28329 -0.027286 -0.081662
v 0.2861 -0.02738 -0.083116
v 0.28554 -0.016095 -0.082898
v 0.28837 -0.015813 -0.083904
v 0.29447 -0.015824 -0.08458
v 0.29117 -0.016076 -0.084475
v 0.29699 -0.015606 -0.084193
v 0.30742 -0.015585 -0.078517
v 0.30947 -0.015968 -0.076137
v 0.31104 -0.016038 -0.073328
v 0.31178 -0.026929 -0.071419
v 0.31249 -0.027526 -0.068271
v 0.31261 -0.015832 -0.067714
v 0.31271 -0.015609 -0.064924
v 0.31242 -0.016121 -0.061755
v 0.31245 -0.016297 -0.061903
v 0.31274 -0.027353 -0.064591
v 0.31246 -0.026951 -0.061962
v 0.31193 -0.015691 -0.070719
v 0.31059 -0.015012 -0.073386
v 0.30898 -0.014771 -0.07585
v 0.31134 -0.014653 -0.070494
v 0.31176 -0.014465 -0.067448
v 0.31139 -0.014365 -0.061576
v 0.3109 -0.013526 -0.064143
v 0.30849 -0.012565 -0.072175
v 0.31001 -0.013276 -0.069989
v 0.305 -0.01476 -0.080065
v 0.307 -0.014547 -0.077991
v 0.29906 -0.012537 -0.080847
v 0.29678 -0.014529 -0.083506
v 0.29396 -0.01457 -0.08385
v 0.29099 -0.014919 -0.084009
v 0.28817 -0.014655 -0.083138
v 0.28529 -0.014889 -0.082274
v 0.28281 -0.015631 -0.081323
v 0.28041 -0.015963 -0.079463
v 0.2784 -0.015053 -0.076752
v 0.27539 -0.015486 -0.071521
v 0.27392 -0.015161 -0.066025
v 0.27716 -0.014565 -0.073995
v 0.27378 -0.01495 -0.065296
v 0.27754 -0.012806 -0.070278
v 0.27429 -0.014374 -0.065095
v 0.27474 -0.013799 -0.064706
v 0.27522 -0.012874 -0.06388
v 0.27319 -0.014302 -0.064116
v 0.27511 -0.01278 -0.06369
v 0.28199 -0.012417 -0.077042
v 0.28017 -0.01266 -0.075143
v 0.27867 -0.012805 -0.072978
v 0.28048 -0.014755 -0.078708
v 0.2833 -0.013747 -0.079747
v 0.28621 -0.012563 -0.080155
v 0.29123 -0.01253 -0.08164
v 0.29386 -0.012661 -0.081905
v 0.30704 -0.013216 -0.075864
v 0.30146 -0.012569 -0.07977
v 0.30249 -0.014859 -0.081812
v 0.28862 -0.012694 -0.081192
v 0.28404 -0.01171 -0.078383
v 0.28394 -0.012555 -0.078825
v 0.27674 -0.016447 -0.07482
v 0.27829 -0.016195 -0.077154
v 0.30145 -0.027824 -0.082875
v 0.30015 -0.015563 -0.083342
v 0.29848 -0.027865 -0.083922
v 0.28913 -0.02768 -0.084079
v 0.29223 -0.027968 -0.08453
v 0.29542 -0.027843 -0.084492
v 0.2985 -0.016388 -0.083993
v 0.30287 -0.015934 -0.082176
v 0.30662 -0.016007 -0.079513
v 0.30542 -0.015928 -0.08048
v 0.27261 -0.026599 -0.06454
v 0.27388 -0.028778 -0.065453
v 0.27392 -0.029349 -0.064258
v 0.27134 -0.028212 -0.062041
v 0.28896 -0.034157 -0.068113
v 0.28895 -0.035209 -0.048469
v 0.29412 -0.034413 -0.067619
v 0.29213 -0.032359 -0.07733
v 0.31178 -0.028856 -0.068204
v 0.30166 -0.029897 -0.081181
v 0.31237 -0.015389 -0.052681
v 0.30779 -0.011627 -0.055447
v 0.30847 -0.010776 -0.071096
v 0.30764 -0.011255 -0.073008
v 0.30061 -0.011415 -0.079792
v 0.29818 -0.0114 -0.080751
v 0.28651 0.010922 -0.078063
v 0.28465 0.011018 -0.076839
v 0.29066 0.011134 -0.079615
v 0.28923 0.011126 -0.079276
v 0.29568 0.01029 -0.079741
v 0.30131 0.010855 -0.077577
v 0.30313 0.011297 -0.076255
v 0.30468 0.011197 -0.074665
v 0.2951 0.011181 -0.079819
v 0.29285 0.011069 -0.079863
v 0.30675 0.011282 -0.071513
v 0.2729 -0.017494 -0.064775
v 0.29455 0.03427 -0.046978
v 0.30113 0.033249 -0.064712
v 0.29663 0.033918 -0.066656
v 0.29817 0.032834 -0.072743
v 0.30311 0.032029 -0.07142
v 0.29929 0.031419 -0.077366
v 0.29317 0.032834 -0.074082
v 0.28823 0.032029 -0.075406
v 0.29451 0.031419 -0.078648
v 0.29462 0.029474 -0.08306
v 0.28956 0.029984 -0.081431
v 0.29211 0.029079 -0.083552
v 0.29526 0.028631 -0.083972
v 0.29833 0.028805 -0.083331
v 0.3013 0.028629 -0.082357
v 0.30368 0.029096 -0.080497
v 0.29998 0.029503 -0.081864
v 0.30402 0.030648 -0.076099
v 0.30646 0.029308 -0.077602
v 0.30841 0.028522 -0.076536
v 0.30643 0.028454 -0.078908
v 0.31131 0.028138 -0.071197
v 0.31169 0.02858 -0.06791
v 0.31013 0.029272 -0.070921
v 0.30977 0.028821 -0.073652
v 0.30692 0.031255 -0.06534
v 0.30427 0.032239 -0.060342
v 0.29226 0.02757 -0.084515
v 0.28908 0.028654 -0.08342
v 0.28913 0.027242 -0.084079
v 0.28609 0.027131 -0.083105
v 0.2862 0.028521 -0.082488
v 0.2833 0.027446 -0.081591
v 0.28137 0.028778 -0.078853
v 0.2834 0.028866 -0.080435
v 0.27762 0.028759 -0.074151
v 0.27913 0.028628 -0.076697
v 0.28541 0.029178 -0.081193
v 0.2923 0.015925 -0.084585
v 0.2888 0.015983 -0.084057
f 399 462 830
f 127 124 115
f 432 437 439
f 615 619 621
f 739 851 855
f 781 784 773
f 718 939 719
f 939 397 719
f 397 398 399
f 398 396 399
f 399 503 502
f 463 462 501
f 462 460 461
f 461 35 462
f 35 36 462
f 36 962 37
f 37 1 36
f 1 39 36
f 38 836 835
f 835 834 830
f 834 832 830
f 832 837 830
f 830 838 828
f 828 723 724
f 724 721 719
f 721 722 719
f 722 720 719
f 399 502 501
f 39 38 830
f 38 835 830
f 830 828 719
f 828 724 719
f 719 397 399
f 399 501 462
f 462 36 830
f 36 39 830
f 719 399 830
f 767 768 782
f 109 111 112
f 109 112 847
f 112 130 847
f 113 847 130
f 762 763 767
f 762 767 770
f 767 769 770
f 119 117 115
f 129 128 115
f 127 125 124
f 124 121 115
f 121 119 115
f 128 127 115
f 210 168 163
f 163 155 210
f 547 555 449
f 546 547 449
f 716 711 713
f 558 449 555
f 301 300 302
f 442 443 441
f 437 438 439
f 441 443 439
f 443 432 439
f 432 434 437
f 434 436 437
f 561 562 615
f 620 621 619
f 560 561 615
f 615 617 619
f 621 557 615
f 557 560 615
f 86 52 700
f 773 774 775
f 776 777 775
f 777 778 781
f 781 783 784
f 771 773 784
f 773 775 777
f 777 781 773
f 2 1 37
f 5 40 4
f 994 992 12
f 14 12 992
f 23 18 19
f 21 19 20
f 989 20 1000
f 984 32 31
f 987 33 32
f 988 962 36
f 39 40 38
f 4 40 39
f 38 42 836
f 47 49 43
f 49 8 51
f 82 60 58
f 67 61 60
f 69 67 65
f 770 67 70
f 70 73 71
f 101 72 74
f 75 74 72
f 69 79 78
f 81 60 82
f 699 85 86
f 90 87 88
f 83 84 90
f 227 80 228
f 95 94 93
f 94 95 96
f 93 188 97
f 100 96 97
f 98 74 96
f 99 101 98
f 219 98 100
f 102 73 101
f 222 223 104
f 215 103 102
f 110 108 106
f 71 104 106
f 108 107 106
f 223 214 105
f 111 109 138
f 752 117 753
f 753 119 118
f 120 119 121
f 122 121 124
f 141 127 126
f 140 127 128
f 112 129 130
f 130 115 114
f 133 904 903
f 142 140 139
f 133 142 144
f 158 165 161
f 920 160 951
f 168 166 165
f 92 91 173
f 225 164 210
f 181 206 182
f 183 184 182
f 191 190 186
f 189 97 188
f 192 188 190
f 193 190 191
f 194 193 195
f 196 192 194
f 221 196 194
f 201 200 199
f 201 195 202
f 202 203 207
f 203 206 181
f 205 191 206
f 195 205 202
f 209 181 176
f 208 207 209
f 210 209 176
f 211 151 207
f 103 213 223
f 217 99 219
f 196 100 189
f 168 224 239
f 228 80 229
f 236 679 235
f 239 229 232
f 169 228 229
f 230 234 236
f 251 254 250
f 652 650 310
f 266 267 295
f 269 270 268
f 269 274 270
f 269 272 271
f 271 641 273
f 271 275 274
f 276 270 274
f 278 276 274
f 631 280 630
f 284 285 287
f 288 286 287
f 260 298 263
f 300 296 269
f 329 304 305
f 263 309 308
f 256 305 306
f 310 307 305
f 257 314 261
f 314 315 647
f 306 946 316
f 324 915 319
f 319 914 323
f 336 291 337
f 336 338 342
f 340 435 433
f 349 343 427
f 348 429 874
f 875 873 874
f 353 355 356
f 411 414 355
f 355 414 356
f 415 871 876
f 388 358 357
f 942 388 871
f 359 361 360
f 362 364 924
f 378 377 927
f 367 374 857
f 368 369 859
f 372 373 380
f 368 371 369
f 376 375 367
f 377 375 376
f 365 382 366
f 382 383 941
f 390 384 386
f 363 386 384
f 386 363 361
f 387 361 359
f 389 358 388
f 387 389 390
f 391 390 389
f 392 385 390
f 391 395 393
f 397 393 398
f 396 400 399
f 503 401 403
f 404 406 496
f 402 406 403
f 408 479 407
f 416 942 415
f 411 418 420
f 354 420 418
f 423 424 422
f 341 433 424
f 435 432 433
f 444 436 712
f 444 437 436
f 444 438 437
f 487 439 440
f 486 439 487
f 441 486 485
f 485 442 441
f 422 442 482
f 495 440 444
f 445 448 447
f 452 454 453
f 457 456 597
f 461 460 512
f 463 466 462
f 506 468 458
f 470 469 457
f 469 455 456
f 469 471 472
f 471 473 472
f 473 474 505
f 497 499 475
f 497 475 445
f 476 446 445
f 406 446 496
f 420 480 479
f 422 482 483
f 488 487 440
f 491 481 490
f 492 489 493
f 476 475 499
f 496 476 504
f 498 499 497
f 465 498 474
f 498 465 500
f 501 504 500
f 501 465 463
f 502 404 504
f 502 403 404
f 505 447 448
f 472 448 449
f 454 472 449
f 466 473 471
f 468 466 471
f 693 34 514
f 518 519 666
f 550 523 522
f 530 624 527
f 623 527 624
f 532 640 529
f 625 533 531
f 536 531 534
f 534 533 537
f 535 537 538
f 627 534 535
f 538 539 285
f 537 540 539
f 287 285 541
f 542 539 540
f 551 548 549
f 559 560 557
f 554 560 547
f 553 560 554
f 553 561 560
f 609 562 561
f 566 568 567
f 587 452 453
f 589 556 590
f 580 592 593
f 598 596 456
f 595 600 599
f 601 599 600
f 459 599 508
f 552 551 607
f 563 609 611
f 603 615 562
f 616 615 603
f 618 617 616
f 590 619 591
f 556 620 590
f 622 543 623
f 524 622 525
f 544 533 625
f 631 535 538
f 626 532 536
f 628 536 627
f 629 632 628
f 636 637 275
f 636 278 637
f 273 635 275
f 638 628 635
f 273 639 638
f 638 640 626
f 639 641 643
f 644 645 624
f 646 645 264
f 522 314 647
f 708 647 651
f 520 647 664
f 709 648 650
f 653 652 654
f 252 655 956
f 656 654 655
f 660 661 709
f 667 518 665
f 689 659 671
f 670 671 657
f 674 696 685
f 674 684 675
f 673 656 675
f 675 655 252
f 242 680 676
f 680 696 677
f 681 16 680
f 705 15 679
f 15 14 682
f 682 13 681
f 685 20 19
f 696 20 683
f 685 18 684
f 18 673 684
f 688 660 659
f 686 687 517
f 660 29 687
f 687 29 31
f 29 688 28
f 28 688 669
f 27 669 690
f 26 690 672
f 25 672 691
f 24 691 18
f 517 687 692
f 691 672 673
f 16 17 696
f 700 701 9
f 702 703 9
f 702 11 703
f 704 703 705
f 12 15 703
f 697 704 234
f 235 678 242
f 659 650 710
f 710 652 658
f 710 650 652
f 444 712 711
f 711 712 714
f 715 713 435
f 938 719 372
f 722 721 937
f 725 721 724
f 726 731 732
f 727 725 839
f 730 731 726
f 733 731 730
f 370 936 935
f 737 739 738
f 740 734 850
f 850 733 730
f 742 729 743
f 743 729 744
f 747 123 131
f 757 750 758
f 841 840 751
f 750 759 758
f 840 760 751
f 760 752 751
f 118 759 753
f 756 754 122
f 847 848 762
f 765 764 822
f 765 785 766
f 763 766 768
f 763 768 767
f 769 782 780
f 769 64 770
f 62 780 779
f 766 771 784
f 786 773 771
f 787 773 772
f 774 787 791
f 792 774 791
f 792 776 775
f 56 777 776
f 779 778 777
f 780 781 778
f 782 781 780
f 782 783 781
f 766 783 768
f 44 52 800
f 43 50 51
f 801 800 52
f 806 802 805
f 810 835 42
f 808 809 823
f 814 811 810
f 809 811 764
f 812 822 811
f 815 803 813
f 820 819 788
f 793 788 795
f 820 788 821
f 764 762 823
f 823 848 824
f 829 824 844
f 826 846 761
f 825 829 846
f 826 843 827
f 827 839 725
f 826 827 828
f 829 825 830
f 829 837 831
f 808 824 831
f 833 808 831
f 831 837 832
f 833 832 834
f 809 834 835
f 830 825 838
f 828 827 723
f 839 843 840
f 842 839 840
f 744 842 841
f 761 760 843
f 846 844 845
f 844 848 847
f 805 799 798
f 849 850 742
f 859 855 922
f 923 857 922
f 737 859 369
f 857 368 858
f 376 367 860
f 367 896 895
f 860 895 862
f 861 862 863
f 864 865 892
f 868 357 359
f 869 870 357
f 871 870 872
f 871 872 873
f 878 872 870
f 877 352 876
f 356 876 352
f 879 878 869
f 880 879 868
f 881 872 878
f 882 873 872
f 884 348 873
f 884 345 883
f 328 882 886
f 304 884 882
f 327 885 916
f 916 885 880
f 885 881 879
f 886 882 881
f 888 880 867
f 887 867 933
f 918 933 931
f 890 925 866
f 889 918 925
f 890 864 891
f 892 863 893
f 863 862 894
f 896 923 897
f 856 855 898
f 898 899 901
f 900 898 902
f 907 906 150
f 154 907 150
f 153 156 903
f 902 903 156
f 909 900 910
f 911 897 909
f 897 856 900
f 895 896 911
f 894 895 912
f 919 894 913
f 915 892 914
f 890 891 915
f 917 887 918
f 325 916 887
f 889 890 324
f 892 893 919
f 322 913 321
f 914 919 322
f 160 909 158
f 920 908 160
f 913 921 920
f 921 911 908
f 913 912 921
f 909 910 159
f 857 896 367
f 360 362 932
f 931 362 924
f 929 864 930
f 865 928 863
f 927 863 928
f 377 860 861
f 366 928 929
f 365 929 926
f 365 924 364
f 930 866 925
f 935 735 737
f 939 718 938
f 385 938 941
f 385 394 940
f 938 380 941
f 365 943 382
f 345 342 346
f 327 317 947
f 317 327 326
f 948 325 917
f 325 955 317
f 955 948 318
f 949 917 889
f 947 328 885
f 321 951 950
f 951 243 950
f 241 244 951
f 243 245 953
f 245 247 952
f 318 954 250
f 254 956 955
f 316 317 957
f 952 246 959
f 246 249 958
f 253 249 251
f 959 958 954
f 959 954 319
f 953 319 320
f 953 320 322
f 161 241 162
f 243 676 245
f 167 240 166
f 229 81 83
f 37 962 2
f 964 2 962
f 963 962 988
f 2 964 3
f 964 968 3
f 964 966 965
f 965 979 967
f 968 967 970
f 3 969 4
f 969 970 972
f 970 971 972
f 978 970 967
f 999 6 969
f 967 979 977
f 986 985 983
f 980 979 966
f 987 966 963
f 988 987 963
f 983 984 30
f 981 986 27
f 981 27 26
f 982 26 25
f 976 24 23
f 975 23 22
f 21 975 22
f 989 974 21
f 992 990 991
f 991 1000 1001
f 994 993 992
f 996 993 994
f 995 994 11
f 996 995 6
f 997 998 9
f 7 9 8
f 998 11 702
f 999 990 993
f 977 980 982
f 1000 17 16
f 1001 16 13
f 1 3 4
f 4 39 1
f 1 2 3
f 6 5 4
f 997 45 6
f 6 45 5
f 4 969 6
f 6 995 998
f 998 997 6
f 45 997 7
f 7 47 46
f 46 45 7
f 8 49 47
f 7 8 47
f 8 9 10
f 11 994 12
f 992 991 1001
f 1001 13 992
f 992 13 14
f 15 12 14
f 19 22 23
f 21 22 19
f 989 21 20
f 28 30 29
f 27 983 28
f 28 983 30
f 29 30 31
f 30 984 31
f 31 32 695
f 987 988 33
f 35 514 34
f 35 34 33
f 34 695 33
f 35 512 513
f 513 514 35
f 35 33 988
f 35 988 36
f 35 461 512
f 40 47 48
f 41 40 802
f 802 40 48
f 38 40 41
f 42 41 806
f 41 807 806
f 38 41 42
f 807 41 802
f 802 804 807
f 802 43 44
f 802 48 43
f 48 47 43
f 40 5 45
f 46 47 40
f 40 45 46
f 50 49 51
f 10 52 51
f 10 51 8
f 10 701 52
f 52 796 801
f 53 796 90
f 796 52 90
f 90 52 86
f 53 90 54
f 90 84 54
f 84 82 58
f 81 80 79
f 79 55 81
f 79 65 55
f 65 67 55
f 67 60 55
f 84 58 54
f 54 58 57
f 54 57 53
f 794 53 56
f 53 57 56
f 57 779 56
f 57 58 779
f 60 59 58
f 779 58 59
f 59 63 779
f 63 59 61
f 60 61 59
f 62 63 61
f 61 64 62
f 66 69 65
f 67 64 61
f 68 67 69
f 67 770 64
f 847 762 71
f 109 847 107
f 70 71 762
f 71 107 847
f 69 70 68
f 762 770 70
f 68 70 67
f 77 69 78
f 72 70 69
f 69 75 72
f 70 72 73
f 101 73 72
f 75 76 74
f 94 76 77
f 76 75 77
f 75 69 77
f 69 66 79
f 79 66 65
f 80 91 79
f 81 55 60
f 83 81 82
f 83 82 84
f 85 90 86
f 86 700 699
f 87 90 85
f 87 85 699
f 699 698 87
f 88 87 706
f 88 233 89
f 232 83 88
f 232 88 89
f 88 83 90
f 229 80 81
f 227 91 80
f 92 79 91
f 92 78 79
f 77 78 92
f 94 77 92
f 92 186 187
f 187 93 92
f 93 94 92
f 74 76 96
f 76 94 96
f 96 95 97
f 95 93 97
f 93 187 188
f 100 98 96
f 98 101 74
f 99 102 101
f 219 99 98
f 102 104 73
f 102 103 222
f 223 105 104
f 102 222 104
f 99 216 102
f 216 215 102
f 104 105 106
f 105 110 106
f 106 107 71
f 71 73 104
f 108 109 107
f 109 108 147
f 108 110 147
f 147 110 214
f 110 105 214
f 136 109 147
f 109 137 138
f 111 138 140
f 114 113 130
f 760 847 113
f 113 752 760
f 113 114 116
f 116 114 115
f 116 115 117
f 752 116 117
f 753 117 119
f 120 118 119
f 754 120 121
f 122 754 121
f 123 122 124
f 123 124 125
f 131 123 125
f 141 131 125
f 141 125 127
f 140 126 127
f 128 111 140
f 112 111 128
f 112 128 129
f 130 129 115
f 141 961 131
f 961 747 131
f 854 849 961
f 961 132 854
f 961 146 132
f 133 132 143
f 132 146 143
f 854 132 133
f 133 901 852
f 852 854 133
f 903 901 133
f 904 906 134
f 904 133 906
f 906 144 135
f 144 136 147
f 136 137 109
f 139 138 137
f 142 139 145
f 140 138 139
f 140 142 126
f 126 142 141
f 142 143 141
f 143 146 141
f 145 144 142
f 133 143 142
f 906 133 144
f 145 139 137
f 145 137 136
f 144 145 136
f 146 961 141
f 147 148 135
f 135 144 147
f 147 213 148
f 213 150 148
f 906 135 148
f 151 150 149
f 208 152 151
f 151 152 150
f 152 154 150
f 208 154 152
f 154 904 905
f 154 153 904
f 156 153 154
f 208 155 154
f 156 154 157
f 154 155 157
f 157 159 156
f 158 909 159
f 157 163 159
f 158 159 165
f 160 158 161
f 160 162 951
f 161 162 160
f 165 163 168
f 165 166 241
f 168 167 166
f 168 239 167
f 164 224 168
f 239 224 170
f 239 170 169
f 239 169 229
f 170 171 169
f 226 171 170
f 226 172 171
f 173 91 227
f 184 173 227
f 179 184 227
f 178 179 172
f 179 227 172
f 178 172 226
f 174 178 226
f 177 174 226
f 226 170 225
f 225 210 175
f 175 226 225
f 225 224 164
f 210 164 168
f 176 175 210
f 175 177 226
f 177 175 176
f 181 177 176
f 179 177 181
f 177 178 174
f 177 179 178
f 180 184 179
f 179 181 180
f 191 183 206
f 183 182 206
f 180 181 182
f 180 182 184
f 183 185 184
f 184 185 173
f 185 186 173
f 186 92 173
f 188 187 190
f 187 186 190
f 186 185 183
f 183 191 186
f 189 100 97
f 192 189 188
f 193 192 190
f 194 192 193
f 196 189 192
f 195 201 199
f 199 197 195
f 197 194 195
f 194 197 198
f 198 221 194
f 149 198 199
f 198 197 199
f 149 220 221
f 221 198 149
f 150 213 149
f 201 207 200
f 207 201 202
f 207 203 204
f 202 205 203
f 204 203 181
f 203 205 206
f 205 193 191
f 195 193 205
f 207 204 209
f 209 204 181
f 207 208 211
f 209 155 212
f 212 208 209
f 155 209 210
f 163 165 159
f 157 155 163
f 208 212 155
f 208 151 211
f 151 200 207
f 149 199 200
f 151 149 200
f 213 147 214
f 223 213 214
f 213 215 216
f 216 217 213
f 223 222 103
f 103 215 213
f 219 218 217
f 217 216 99
f 213 217 149
f 217 218 149
f 218 220 149
f 196 221 220
f 220 218 196
f 218 219 196
f 196 219 100
f 224 225 170
f 169 227 228
f 232 229 83
f 231 238 232
f 230 231 234
f 231 89 234
f 231 232 89
f 233 88 697
f 89 233 234
f 233 697 234
f 234 705 679
f 236 234 679
f 230 239 237
f 232 237 239
f 232 238 237
f 172 227 169
f 169 171 172
f 230 237 238
f 238 231 230
f 239 230 236
f 167 239 236
f 167 236 240
f 240 236 235
f 241 240 242
f 240 235 242
f 241 242 243
f 166 240 241
f 244 241 243
f 245 676 247
f 247 248 249
f 251 249 248
f 251 252 254
f 254 252 956
f 253 251 250
f 957 255 960
f 960 256 306
f 255 256 960
f 310 313 257
f 310 257 311
f 310 258 313
f 310 650 258
f 651 647 650
f 650 647 258
f 312 313 647
f 647 315 312
f 259 646 314
f 646 260 314
f 314 260 263
f 314 263 261
f 262 261 263
f 308 262 263
f 264 299 260
f 264 265 299
f 265 264 266
f 265 266 299
f 266 645 267
f 269 295 267
f 269 271 274
f 269 267 272
f 271 272 641
f 271 273 275
f 276 277 270
f 275 279 274
f 279 278 274
f 278 277 276
f 279 637 278
f 292 277 278
f 630 634 632
f 292 634 630
f 282 283 280
f 281 282 280
f 285 284 282
f 282 281 285
f 281 538 285
f 283 282 284
f 287 286 283
f 283 284 287
f 286 289 283
f 288 289 286
f 546 449 542
f 449 445 541
f 445 711 288
f 548 546 542
f 543 548 542
f 289 288 716
f 288 541 445
f 541 542 449
f 711 716 288
f 290 283 289
f 337 290 289
f 338 337 289
f 337 291 290
f 290 291 283
f 291 280 283
f 291 630 280
f 291 335 630
f 335 334 630
f 277 294 293
f 270 277 268
f 277 293 268
f 293 294 268
f 268 294 269
f 269 296 295
f 298 295 296
f 297 298 296
f 263 298 297
f 260 299 298
f 263 297 309
f 296 309 297
f 300 301 296
f 296 301 309
f 269 302 300
f 294 302 269
f 303 302 331
f 329 301 303
f 301 302 303
f 305 304 306
f 308 329 305
f 305 307 308
f 307 262 308
f 309 301 308
f 308 301 329
f 307 261 262
f 256 310 305
f 310 261 307
f 310 311 261
f 311 257 261
f 257 312 315
f 314 257 315
f 312 257 313
f 258 647 313
f 306 316 960
f 316 946 947
f 316 947 317
f 956 317 955
f 957 317 956
f 318 949 954
f 949 318 948
f 322 321 950
f 320 323 322
f 323 320 319
f 954 324 319
f 954 949 324
f 324 949 889
f 319 915 914
f 329 303 330
f 303 331 330
f 331 332 344
f 334 344 333
f 344 332 333
f 332 277 333
f 333 277 292
f 333 292 334
f 334 335 336
f 336 337 338
f 343 338 339
f 343 342 338
f 339 338 289
f 339 713 715
f 339 715 944
f 339 944 341
f 341 944 340
f 341 343 339
f 435 340 944
f 433 341 340
f 427 343 341
f 343 349 342
f 349 346 342
f 344 336 342
f 344 334 336
f 331 344 342
f 345 331 342
f 345 330 331
f 883 345 346
f 428 348 346
f 883 346 348
f 348 428 347
f 348 347 429
f 873 348 874
f 429 351 874
f 351 352 874
f 350 429 349
f 429 350 351
f 352 351 420
f 420 354 353
f 352 420 356
f 420 353 356
f 353 354 355
f 354 419 355
f 419 411 355
f 414 411 413
f 414 415 876
f 415 942 871
f 357 358 359
f 360 361 362
f 361 363 362
f 362 363 364
f 366 381 928
f 928 381 378
f 928 378 927
f 857 374 368
f 369 371 370
f 720 936 370
f 370 371 720
f 373 372 371
f 373 371 374
f 373 379 380
f 373 374 375
f 375 379 373
f 368 374 371
f 367 375 374
f 377 379 375
f 379 377 378
f 379 378 380
f 380 378 941
f 378 381 941
f 366 382 381
f 941 381 382
f 384 383 943
f 383 382 943
f 383 385 941
f 383 384 385
f 390 385 384
f 943 363 384
f 387 386 361
f 358 387 359
f 942 389 388
f 389 387 358
f 389 416 391
f 386 387 390
f 391 392 390
f 391 393 392
f 392 393 394
f 392 394 385
f 397 394 393
f 391 416 395
f 393 395 396
f 398 393 396
f 399 400 401
f 401 400 717
f 402 401 717
f 395 417 409
f 400 396 408
f 396 395 409
f 396 409 408
f 503 399 401
f 404 403 406
f 404 496 504
f 403 401 402
f 402 405 406
f 405 402 478
f 402 717 407
f 407 717 408
f 408 409 410
f 410 409 411
f 408 410 420
f 409 417 411
f 417 412 411
f 412 413 411
f 412 417 413
f 416 389 942
f 416 415 414
f 414 413 416
f 395 416 413
f 395 413 417
f 411 419 418
f 418 419 354
f 351 480 420
f 351 350 480
f 350 431 480
f 480 431 481
f 431 421 481
f 427 423 431
f 431 423 421
f 421 423 422
f 423 425 424
f 425 423 427
f 424 425 341
f 425 427 341
f 431 349 426
f 426 427 431
f 426 349 427
f 430 428 349
f 428 430 347
f 430 429 347
f 349 429 430
f 428 346 349
f 431 350 349
f 443 422 424
f 424 432 443
f 424 433 432
f 435 434 432
f 435 714 434
f 714 436 434
f 714 712 436
f 444 440 438
f 440 439 438
f 441 439 486
f 485 482 442
f 422 443 442
f 444 711 445
f 445 495 444
f 495 445 446
f 447 497 445
f 445 449 448
f 449 451 450
f 453 449 450
f 450 451 556
f 454 449 453
f 453 450 556
f 586 594 452
f 594 454 452
f 600 595 594
f 455 472 594
f 594 595 455
f 457 469 456
f 458 457 597
f 508 460 459
f 460 506 459
f 460 508 507
f 512 460 507
f 462 506 460
f 462 466 506
f 463 464 466
f 463 465 464
f 465 473 464
f 473 465 474
f 466 464 473
f 458 467 457
f 468 467 458
f 458 459 506
f 457 467 470
f 467 468 470
f 455 595 456
f 469 470 471
f 455 469 472
f 473 505 472
f 474 447 505
f 497 447 474
f 475 476 445
f 446 406 495
f 406 477 495
f 406 405 477
f 478 477 405
f 402 407 478
f 478 407 479
f 479 408 420
f 479 480 481
f 481 421 490
f 421 483 490
f 485 483 482
f 483 421 422
f 483 484 490
f 490 484 489
f 489 484 494
f 484 483 485
f 494 484 486
f 486 484 485
f 489 486 487
f 487 488 489
f 495 488 440
f 488 493 489
f 490 492 491
f 478 479 491
f 491 479 481
f 477 478 491
f 492 493 495
f 492 495 477
f 493 488 495
f 477 491 492
f 492 490 489
f 494 486 489
f 410 411 420
f 496 446 476
f 499 504 476
f 498 497 474
f 499 498 500
f 501 502 504
f 501 500 465
f 502 503 403
f 499 500 504
f 472 505 448
f 454 594 472
f 471 470 468
f 468 506 466
f 508 599 571
f 571 509 508
f 509 507 508
f 568 507 509
f 510 507 568
f 568 511 510
f 510 511 507
f 513 512 511
f 512 507 511
f 513 511 569
f 568 569 511
f 513 569 514
f 693 694 34
f 515 693 514
f 515 517 692
f 693 515 692
f 515 516 517
f 516 604 518
f 516 518 668
f 668 517 516
f 519 518 604
f 519 604 666
f 664 666 604
f 520 664 604
f 605 521 604
f 522 604 521
f 606 607 521
f 607 550 521
f 521 550 522
f 604 522 520
f 523 550 524
f 550 622 524
f 523 524 525
f 646 259 526
f 259 523 526
f 523 525 526
f 526 525 624
f 624 528 529
f 530 528 624
f 623 543 527
f 640 644 624
f 624 529 640
f 529 528 532
f 528 530 532
f 530 531 532
f 531 530 527
f 527 625 531
f 536 532 531
f 534 531 533
f 535 534 537
f 627 536 534
f 538 537 539
f 537 533 540
f 539 541 285
f 541 288 287
f 542 541 539
f 540 544 543
f 543 542 540
f 544 625 527
f 527 543 544
f 548 543 549
f 543 545 549
f 548 547 546
f 551 549 545
f 622 551 545
f 607 551 550
f 550 551 622
f 548 552 614
f 614 553 548
f 547 548 553
f 553 554 547
f 555 547 559
f 558 555 559
f 558 451 449
f 451 558 556
f 556 558 621
f 558 557 621
f 558 559 557
f 559 547 560
f 553 609 561
f 609 563 562
f 563 603 562
f 563 564 603
f 611 564 563
f 604 565 564
f 564 611 604
f 565 567 578
f 564 565 578
f 566 565 604
f 566 567 565
f 604 516 566
f 567 568 571
f 566 569 568
f 515 514 569
f 566 515 569
f 567 571 602
f 571 570 602
f 571 568 509
f 572 570 574
f 573 572 574
f 572 573 570
f 576 570 573
f 576 573 574
f 575 574 583
f 575 580 577
f 577 576 575
f 574 575 576
f 576 577 578
f 616 578 577
f 616 577 618
f 579 593 618
f 593 579 580
f 618 580 579
f 577 580 618
f 592 580 575
f 583 582 575
f 582 592 575
f 581 592 582
f 582 583 581
f 574 581 583
f 601 581 574
f 581 601 600
f 600 584 581
f 581 584 585
f 586 585 594
f 585 584 594
f 584 600 594
f 452 585 586
f 585 587 581
f 453 589 587
f 587 585 452
f 591 592 581
f 590 591 581
f 581 587 590
f 587 589 590
f 589 453 588
f 453 556 588
f 588 556 589
f 595 598 456
f 598 597 596
f 596 597 456
f 597 459 458
f 597 598 599
f 599 598 595
f 459 597 599
f 571 599 601
f 570 601 574
f 602 578 567
f 578 602 576
f 570 576 602
f 578 616 603
f 603 564 578
f 570 571 601
f 515 566 516
f 605 604 611
f 611 606 605
f 521 605 606
f 612 608 606
f 607 606 608
f 608 552 607
f 609 613 608
f 608 610 609
f 609 610 611
f 611 610 606
f 606 610 612
f 610 608 612
f 553 613 609
f 614 613 553
f 552 608 613
f 613 614 552
f 616 617 615
f 618 593 617
f 593 619 617
f 593 592 619
f 592 591 619
f 590 620 619
f 556 621 620
f 551 552 548
f 525 622 623
f 525 623 624
f 622 545 543
f 544 540 533
f 538 281 280
f 280 631 538
f 626 640 532
f 628 626 536
f 627 630 629
f 632 633 628
f 627 629 628
f 535 631 627
f 631 630 627
f 632 629 630
f 633 632 634
f 628 633 635
f 633 634 635
f 635 634 636
f 637 279 275
f 635 636 275
f 636 634 278
f 273 638 635
f 638 626 628
f 273 641 639
f 638 639 640
f 641 642 643
f 643 644 639
f 644 640 639
f 642 641 272
f 272 267 642
f 645 643 642
f 642 267 645
f 644 643 645
f 526 624 645
f 264 645 266
f 646 526 645
f 646 264 260
f 314 523 259
f 522 523 314
f 520 522 647
f 708 649 664
f 708 664 647
f 648 708 651
f 649 708 648
f 709 649 648
f 651 650 648
f 653 658 652
f 654 652 310
f 654 310 256
f 255 654 256
f 655 654 255
f 956 655 255
f 956 255 957
f 675 656 655
f 656 653 654
f 656 657 653
f 657 658 653
f 658 671 710
f 671 659 710
f 709 661 649
f 659 660 709
f 662 707 661
f 707 662 664
f 662 663 664
f 668 667 663
f 664 663 667
f 665 666 667
f 518 666 665
f 518 667 668
f 686 668 663
f 517 668 686
f 661 686 663
f 663 662 661
f 669 689 671
f 670 669 671
f 657 671 658
f 672 670 657
f 673 672 657
f 673 657 656
f 685 696 683
f 677 696 674
f 674 685 684
f 684 673 675
f 251 675 252
f 251 674 675
f 251 248 674
f 676 677 674
f 247 674 248
f 247 676 674
f 243 242 676
f 676 680 677
f 242 678 680
f 678 679 681
f 678 681 680
f 679 682 681
f 679 15 682
f 234 704 705
f 682 14 13
f 681 13 16
f 685 683 20
f 696 17 20
f 689 688 659
f 660 686 661
f 686 660 687
f 669 27 28
f 29 660 688
f 688 689 669
f 670 690 669
f 690 26 27
f 672 25 26
f 691 24 25
f 672 690 670
f 18 23 24
f 687 31 692
f 692 31 695
f 692 695 693
f 693 695 694
f 694 695 34
f 32 33 695
f 18 691 673
f 685 19 18
f 680 16 696
f 697 698 704
f 697 87 698
f 698 699 700
f 52 701 700
f 9 704 700
f 9 701 10
f 11 12 703
f 703 704 9
f 698 700 704
f 705 703 15
f 697 706 87
f 88 706 697
f 235 679 678
f 666 664 667
f 707 664 649
f 661 707 649
f 659 709 650
f 713 711 714
f 713 714 435
f 435 944 715
f 339 289 713
f 716 713 289
f 717 400 408
f 938 718 719
f 720 372 719
f 937 936 720
f 720 722 937
f 721 727 726
f 937 721 732
f 721 726 732
f 723 827 724
f 827 725 724
f 725 727 721
f 726 727 729
f 839 729 728
f 728 727 839
f 727 728 729
f 732 731 733
f 733 937 732
f 733 741 937
f 734 735 741
f 935 936 735
f 736 369 935
f 369 370 935
f 736 935 737
f 737 369 736
f 737 738 859
f 738 739 855
f 740 739 737
f 740 737 734
f 850 734 741
f 737 735 734
f 850 741 733
f 742 850 730
f 743 744 742
f 742 730 726
f 742 726 729
f 746 742 744
f 745 744 750
f 745 746 744
f 747 746 745
f 747 934 746
f 742 746 934
f 934 747 849
f 961 849 747
f 747 122 123
f 747 748 122
f 748 747 745
f 748 745 749
f 749 757 748
f 750 749 745
f 749 750 757
f 750 744 841
f 750 841 751
f 759 750 753
f 750 751 753
f 751 752 753
f 840 843 760
f 113 116 752
f 118 754 759
f 754 755 758
f 759 754 758
f 118 120 754
f 755 754 756
f 748 755 756
f 122 748 756
f 757 755 748
f 755 757 758
f 760 761 847
f 761 845 847
f 763 762 765
f 822 785 765
f 762 764 765
f 763 765 766
f 769 767 782
f 780 62 769
f 769 62 64
f 779 63 62
f 766 785 771
f 785 786 771
f 786 772 773
f 787 774 773
f 792 775 774
f 792 794 776
f 794 56 776
f 56 779 777
f 779 780 778
f 782 768 783
f 766 784 783
f 822 786 785
f 788 789 786
f 789 791 787
f 786 789 772
f 789 787 772
f 786 821 788
f 790 789 788
f 788 793 790
f 789 790 791
f 790 793 792
f 791 790 792
f 793 797 792
f 792 797 794
f 795 797 793
f 797 795 798
f 799 796 798
f 797 798 796
f 796 53 797
f 801 796 799
f 44 43 52
f 43 51 52
f 43 49 50
f 801 799 800
f 802 44 800
f 805 802 800
f 806 804 802
f 806 807 804
f 42 806 815
f 42 815 810
f 810 815 814
f 808 833 809
f 809 810 811
f 814 816 811
f 816 812 811
f 811 822 764
f 814 813 816
f 814 815 813
f 815 805 803
f 815 806 805
f 813 803 805
f 816 813 818
f 816 818 817
f 813 805 818
f 798 819 820
f 820 817 798
f 817 818 798
f 798 795 819
f 818 805 798
f 788 819 795
f 816 817 820
f 821 786 822
f 822 812 821
f 848 823 762
f 844 824 848
f 829 844 846
f 831 824 829
f 826 825 846
f 826 761 843
f 825 826 828
f 829 830 837
f 808 823 824
f 832 833 831
f 834 809 833
f 835 810 809
f 836 42 835
f 838 825 828
f 839 827 843
f 842 729 839
f 840 841 842
f 744 729 842
f 761 846 845
f 845 844 847
f 823 809 764
f 820 821 812
f 812 816 820
f 805 800 799
f 797 53 794
f 851 740 854
f 740 849 854
f 740 850 849
f 742 934 849
f 739 740 851
f 898 854 853
f 853 854 852
f 851 854 898
f 855 851 898
f 855 859 738
f 922 858 859
f 922 856 923
f 857 858 922
f 858 368 859
f 895 860 367
f 862 861 860
f 863 927 861
f 892 865 863
f 868 879 869
f 868 932 867
f 357 868 869
f 357 870 388
f 870 871 388
f 873 876 871
f 870 869 878
f 875 877 876
f 875 876 873
f 875 874 877
f 874 352 877
f 356 414 876
f 879 881 878
f 881 882 872
f 882 884 873
f 884 883 348
f 884 330 345
f 328 304 882
f 304 329 884
f 885 328 886
f 880 885 879
f 885 886 881
f 888 916 880
f 887 888 867
f 867 880 868
f 918 887 933
f 925 918 931
f 889 925 890
f 890 866 864
f 891 864 892
f 893 863 894
f 894 862 895
f 897 923 856
f 900 856 898
f 902 898 901
f 901 903 902
f 905 904 134
f 907 905 906
f 905 134 906
f 154 905 907
f 150 906 148
f 153 903 904
f 908 911 909
f 909 897 900
f 910 900 902
f 911 896 897
f 912 895 911
f 919 893 894
f 913 894 912
f 914 892 919
f 324 890 915
f 915 891 892
f 889 917 918
f 887 916 888
f 326 327 916
f 325 326 916
f 917 325 887
f 322 919 913
f 323 914 322
f 321 913 920
f 160 908 909
f 920 921 908
f 921 912 911
f 159 910 902
f 159 902 156
f 901 899 853
f 898 853 899
f 853 852 901
f 856 922 855
f 857 923 896
f 329 330 884
f 359 360 932
f 924 926 930
f 924 925 931
f 930 925 924
f 930 926 929
f 928 865 864
f 864 929 928
f 927 377 861
f 377 376 860
f 365 366 929
f 365 926 924
f 866 930 864
f 933 932 931
f 362 931 932
f 867 932 933
f 932 868 359
f 936 937 735
f 937 741 735
f 720 371 372
f 938 940 939
f 397 939 394
f 939 940 394
f 385 940 938
f 938 372 380
f 363 943 364
f 365 364 943
f 336 335 291
f 332 945 277
f 294 945 332
f 945 294 277
f 331 302 294
f 331 294 332
f 304 328 306
f 306 328 946
f 946 328 947
f 325 317 326
f 955 325 948
f 949 948 917
f 327 947 885
f 321 920 951
f 950 953 322
f 950 243 953
f 162 241 951
f 951 244 243
f 953 245 952
f 253 954 958
f 954 253 250
f 955 318 250
f 957 960 316
f 250 254 955
f 959 246 958
f 952 247 246
f 253 958 249
f 246 247 249
f 953 959 319
f 953 952 959
f 161 165 241
f 295 298 299
f 266 295 299
f 292 278 634
f 334 292 630
f 962 963 964
f 964 965 968
f 964 963 966
f 965 966 979
f 968 965 967
f 3 968 969
f 969 968 970
f 971 973 972
f 978 971 970
f 972 999 969
f 990 972 973
f 973 971 974
f 974 971 975
f 975 978 976
f 976 978 977
f 979 980 977
f 977 978 967
f 971 978 975
f 981 980 986
f 982 980 981
f 983 985 984
f 987 32 984
f 984 985 987
f 985 986 966
f 986 980 966
f 987 985 966
f 27 986 983
f 982 981 26
f 24 977 982
f 24 982 25
f 976 977 24
f 975 976 23
f 21 974 975
f 989 973 974
f 990 973 989
f 991 990 989
f 992 993 990
f 991 989 1000
f 995 996 994
f 998 995 11
f 999 996 6
f 996 999 993
f 7 997 9
f 9 998 702
f 999 972 990
f 17 1000 20
f 16 1001 1000
