v -0.010297 0.005338 0.018043
v -0.0007966 0.00301 0.028592
v -0.0054589 0.0053131 0.023581
v -0.010063 0.003009 0.018938
v -0.0095881 0.0053682 0.018996
v -0.005565 0.006196 0.022937
v -0.011666 0.0063248 0.015492
v 0.004101 0.0059494 0.030743
v 0.0042067 0.0068913 0.029669
v 0.008435 0.006123 0.030514
v 0.01152 0.0069418 0.027685
v 0.0081633 0.006846 0.029711
v 0.00034501 0.0068905 0.027668
v 0.010239 0.0069905 0.0067479
v 0.013661 0.0069255 0.024254
v 0.013828 0.0067991 0.020285
v 0.01266 0.0063569 0.012944
v 0.010986 0.0068261 0.0059427
v 0.010756 0.006689 -0.001389
v -0.0081141 0.0067598 0.019312
v -0.013409 0.00697 0.010685
v -0.01636 0.0069638 0.0023944
v -0.01668 0.0075864 -0.0036198
v -0.016073 0.0084045 -0.0076635
v -0.0099852 0.0080499 -0.014877
v -0.011796 0.007009 -0.0040167
v 0.0099263 0.007009 -0.011133
v 0.011046 0.0066864 -0.011638
v 0.011589 0.0058095 -0.0081517
v 0.012889 0.0066586 -0.026325
v 0.012006 0.0070093 -0.028145
v 0.012262 0.0056878 -0.015751
v 0.013356 9.8336e-06 -0.014203
v 0.011838 0.0050271 -0.0059716
v 0.012554 0.0029925 -0.0075063
v 0.012531 -0.003044 -0.007424
v 0.012484 0.003009 0.00043295
v 0.01089 0.003009 -0.002169
v 0.007513 0.003009 0.004658
v 0.01089 -0.003044 -0.002169
v 0.013759 0.0030123 0.013969
v 0.011991 0.00609 0.0076217
v -0.00417 0.003009 0.014359
v 0.00194 0.003009 0.009787
v 0.00194 -0.003044 0.009787
v 0.007513 -0.003044 0.004658
v 0.012468 -0.003044 0.00048159
v -0.00417 -0.003044 0.014359
v 0.014917 -0.003049 0.01943
v 0.013493 -0.0030455 0.012249
v -0.010059 -0.003044 0.018934
v -0.0010514 -0.0030442 0.028366
v -0.005451 -0.005285 0.02359
v -0.003196 -0.005285 0.025854
v -0.000146 -0.005254 0.028717
v -0.0058152 -0.0054573 0.023176
v -0.010293 -0.005318 0.018051
v -0.014351 -0.005353 0.011949
v -0.013199 -0.0083758 0.01165
v -0.0095413 -0.0081758 0.017705
v -0.0088298 -0.0090018 0.017781
v -0.012456 -0.009188 0.011466
v -0.014645 -0.009418 0.0049701
v -0.0091785 -0.0094807 0.015613
v -0.0082673 -0.0094866 0.013295
v -0.011727 -0.0094188 0.0047785
v -0.011798 -0.0094908 0.0057481
v -0.012477 -0.0094033 0.0012387
v -0.012752 -0.0092946 -0.0014472
v -0.015596 -0.0094825 -0.0088615
v -0.012787 -0.009462 -0.012807
v -0.013414 -0.009491 -0.0043913
v -0.012935 -0.0093581 -0.0083502
v -0.012945 -0.0092762 -0.0047008
v -0.012233 -0.0074843 0.0017157
v -0.012709 -0.0071236 -0.0032006
v -0.011721 -0.0091884 0.0040524
v -0.01053 -0.0073294 0.0074928
v -0.011309 -0.0071507 0.0050876
v -0.008636 -0.0070572 0.011257
v -0.0059172 -0.0073148 0.015785
v -0.008165 -0.0073336 0.012337
v -0.0078645 -0.0092403 0.012986
v -0.0027816 -0.0094915 0.020558
v -0.0052841 -0.0092947 0.016799
v -0.0023653 -0.0092988 0.020451
v -0.0028615 -0.0094649 0.022206
v -0.0034857 -0.0095039 0.022354
v -0.0042827 -0.00925 0.022645
v -0.0050685 -0.0085778 0.02274
v -0.0040193 -0.0089741 0.022882
v -0.0029392 -0.0092375 0.022562
v -0.0027929 -0.0086502 0.022516
v -0.0023031 -0.0091466 0.021683
v -0.0022638 -0.0071848 0.021785
v -0.0026589 -0.0070752 0.019681
v 0.010237 -0.0069926 0.0079312
v -0.0021949 -0.0072046 0.020701
v -0.0015739 -0.006998 0.021042
v -0.0028855 -0.0071048 0.02283
v -0.003144 -0.0071515 0.022929
v -0.004007 -0.0069247 0.02329
v -0.0030656 -0.0069893 0.023467
v -0.00295 -0.006156 0.025602
v 0.00046406 -0.0067655 0.027882
v 0.003991 -0.006124 0.030579
v 0.0042054 -0.0068735 0.029665
v 0.008162 -0.0068277 0.029709
v 0.008436 -0.006105 0.030514
v 0.011523 -0.0069238 0.027684
v 0.013478 -0.0069685 0.022842
v 0.01098 -0.0068078 0.0059451
v 0.010698 -0.0066503 -0.0042598
v 0.009635 -0.006991 -0.0073797
v 0.01156 -0.0056676 0.00027187
v 0.011681 -0.0057579 -0.0092259
v 0.012324 -0.0056372 -0.016574
v 0.011772 -0.0066622 -0.018714
v 0.014787 3.6729e-05 -0.02605
v 0.01425 -0.0056496 -0.029895
v 0.014743 -0.0066855 -0.037495
v 0.0174 2.9104e-05 -0.041827
v 0.01549 -0.0057264 -0.036991
v 0.016735 0.0059206 -0.044058
v 0.015274 0.0063609 -0.03776
v 0.01379 0.0056947 -0.027052
v 0.015374 0.0070325 -0.046239
v 0.015877 0.0069615 -0.045819
v 0.00019248 0.010951 -0.036835
v 0.0044028 0.008038 -0.036781
v 0.013352 0.008038 -0.050429
v 0.014221 0.010977 -0.058271
v 0.017717 0.007245 -0.053734
v 0.018653 0.0076863 -0.057653
v 0.018898 0.0101 -0.064053
v 0.018461 0.011662 -0.065717
v 0.017612 0.012718 -0.065526
v 0.012082 0.015338 -0.05861
v 0.0067512 0.015923 -0.050969
v 0.0004854 0.015101 -0.041239
v -0.010515 0.011956 -0.022426
v -0.0096132 0.011232 -0.02233
v -0.011746 0.010199 -0.017389
v -0.014525 0.010366 -0.01645
v -0.010708 0.012445 -0.024524
v -0.0038469 0.014853 -0.036267
v -0.0083584 0.013423 -0.030806
v -0.00071951 0.015735 -0.043153
v -0.0027183 0.014051 -0.048372
v 0.0044634 0.016482 -0.049669
v 0.0090778 0.0165 -0.05585
v 0.0025285 0.015907 -0.054504
v 0.0071868 0.016722 -0.056094
v 0.012216 0.015956 -0.060248
v 0.014862 0.014691 -0.062685
v 0.01385 0.01611 -0.067952
v 0.012334 0.016823 -0.075145
v 0.0092504 0.016131 -0.076338
v 0.010432 0.011284 -0.099462
v 0.0072319 0.0059825 -0.096015
v 0.0064034 9.0287e-06 -0.096335
v 0.0074945 -0.0059234 -0.097202
v 0.0095103 -0.011421 -0.095717
v 0.018886 -0.015019 -0.11022
v 0.019598 -0.015293 -0.096825
v 0.015373 -0.014821 -0.10394
v 0.012346 -0.010601 -0.11018
v 0.013781 -0.0098203 -0.12222
v 0.011395 -0.005251 -0.1209
v 0.011654 -0.0049427 -0.13257
v 0.010808 0.005378 -0.11536
v 0.01319 0.010221 -0.11626
v 0.010093 9.9874e-06 -0.11714
v 0.0089649 1.1549e-05 -0.10854
v 0.0099656 -0.0055896 -0.10923
v 0.009288 0.005716 -0.10569
v 0.015398 0.014818 -0.10406
v 0.016139 0.016195 -0.092808
v 0.019094 0.01551 -0.093511
v 0.023004 0.011515 -0.090578
v 0.024856 0.0061133 -0.085582
v 0.026283 -0.0060042 -0.094222
v 0.024882 0.011052 -0.10404
v 0.027706 0.0058715 -0.10438
v 0.028595 -0.0057445 -0.11138
v 0.028739 8.1893e-06 -0.10333
v 0.025668 -0.010745 -0.11087
v 0.021293 -0.014476 -0.10983
v 0.022433 -0.013465 -0.12282
v 0.026832 -0.010087 -0.12441
v 0.022988 -0.012334 -0.13581
v 0.017953 -0.011972 -0.13622
v 0.020461 -0.012091 -0.14232
v 0.017349 -0.011072 -0.14827
v 0.012881 -0.008498 -0.14859
v 0.0093861 -0.0046559 -0.14996
v 0.011694 -0.008528 -0.15462
v 0.0053672 -0.004928 -0.16287
v 0.016229 -0.010907 -0.15681
v 0.010083 -0.008791 -0.16063
v 0.014922 -0.011072 -0.16305
v 0.0074007 -0.00946 -0.16826
v 0.008334 -0.011475 -0.17365
v 0.003564 -0.008071 -0.17113
v 0.012633 -0.011703 -0.17102
v 0.012842 -0.013284 -0.18143
v 0.007994 -0.013401 -0.18177
v 0.019197 -0.011738 -0.17362
v 0.018849 -0.012839 -0.18844
v 0.014947 -0.013671 -0.18629
v 0.018494 -0.01287 -0.18887
v 0.022688 -0.01077 -0.19151
v 0.024674 -0.0088792 -0.19269
v 0.024271 -0.0093726 -0.19218
v 0.027604 -0.0034529 -0.19322
v 0.026154 -0.0058802 -0.19476
v 0.026383 -0.0052043 -0.19595
v 0.026061 -0.0053679 -0.19596
v 0.018785 -0.005334 -0.19233
v 0.025876 -0.0053347 -0.19675
v 0.0074732 -0.0053578 -0.18442
v -0.0095621 -0.0052431 -0.18735
v -0.005382 -0.0052871 -0.18201
v -0.0025628 -0.0049766 -0.17732
v -0.0031835 -0.0052119 -0.17853
v -0.005152 -0.003416 -0.18044
v 0.001998 -0.005572 -0.17034
v 0.00072607 7.7659e-06 -0.16974
v -0.0012471 -0.0028365 -0.17417
v -0.0016221 -0.0063057 -0.17703
v -0.00011122 -0.0087145 -0.1777
v -0.00017698 -0.0086232 -0.17741
v 0.0021896 -0.011031 -0.17871
v 0.004785 -0.012502 -0.18022
v 0.00071239 -0.0094468 -0.17824
v 0.0069094 -0.013049 -0.18176
v 0.014596 -0.013375 -0.18657
v 0.010734 -0.01374 -0.18392
v 0.02034 -0.011798 -0.19034
v 0.025254 -0.0067355 -0.19395
v 0.020166 -0.0064008 -0.19089
v 0.025462 -0.0071486 -0.19388
v 0.025876 -0.0056527 -0.19507
v 0.012221 -0.0062501 -0.18599
v 0.009712 -0.006975 -0.18419
v 0.014883 -0.005649 -0.18818
v 0.0078182 -0.0063812 -0.18315
v -0.0012575 -0.0064771 -0.17739
v -0.0022577 -0.0055057 -0.17759
v -0.0024557 -0.0053631 -0.17809
v 0.024438 -0.008734 -0.19297
v 0.023714 -0.009384 -0.19259
v 0.022488 -0.010415 -0.19179
v 0.020626 -0.012062 -0.19014
v 0.0032886 9.1095e-06 -0.16418
v 0.004576 0.005166 -0.16481
v -0.0014525 0.0026928 -0.17442
v 0.003591 0.008086 -0.1712
v 0.010081 0.008828 -0.16068
v 0.002022 0.005579 -0.1704
v 0.008321 0.01156 -0.17369
v 0.013787 0.011322 -0.16717
v 0.0074158 0.0095218 -0.1683
v 0.0023032 0.011119 -0.17862
v 0.0048022 0.012611 -0.18022
v 0.0076691 0.013448 -0.18179
v 0.012616 0.012573 -0.17578
v 0.011301 0.013813 -0.18383
v 0.011058 0.013791 -0.18402
v 0.019428 0.012432 -0.18622
v 0.01535 0.013616 -0.18653
v 0.017578 0.013048 -0.18829
v 0.020101 0.012376 -0.18952
v 0.020676 0.011912 -0.1904
v 0.020476 0.011778 -0.19042
v 0.013589 0.013573 -0.18586
v 0.0089253 0.013426 -0.18303
v 0.0023468 0.010973 -0.17913
v -1.9837e-05 0.0086088 -0.1778
v -0.0012263 0.0063867 -0.17747
v -0.0020558 0.0055573 -0.17771
v -0.0015454 0.0062683 -0.17722
v -0.002403 0.005396 -0.17816
v -0.0028365 0.0053529 -0.17878
v 0.009057 0.005395 -0.18535
v 0.013274 0.005667 -0.18717
v 0.0098864 0.0062687 -0.18453
v 0.019828 0.005353 -0.19299
v 0.026199 0.0053578 -0.19613
v 0.026246 0.0052243 -0.19687
v 0.026578 0.0052013 -0.19543
v 0.025782 0.0037843 -0.20156
v 0.025697 0.0051022 -0.19995
v 0.024959 0.0051485 -0.20308
v 0.023156 0.0044911 -0.2106
v 0.022861 0.0035287 -0.21148
v 0.023322 0.00061196 -0.21167
v 0.023439 0.004992 -0.20925
v 0.023002 0.001936 -0.21179
v 0.022789 -0.0017718 -0.21182
v 0.02314 -0.0019987 -0.21171
v 0.02284 -0.0035216 -0.21147
v 0.023206 -0.0049984 -0.20967
v 0.023083 -0.0042433 -0.21083
v 0.024592 -0.0049065 -0.20497
v 0.02535 1.0721e-05 -0.20497
v 0.02768 3.854e-06 -0.19528
v 0.029054 0.0025388 -0.18643
v 0.025867 0.0073445 -0.19347
v 0.029607 9.0188e-06 -0.18485
v 0.029124 0.0053798 -0.17715
v 0.026197 0.008336 -0.18316
v 0.025036 0.009537 -0.17546
v 0.030961 3.8032e-05 -0.17556
v 0.029234 -0.0052628 -0.17606
v 0.029186 -0.002993 -0.1846
v 0.026142 -0.0066286 -0.19368
v 0.026142 -0.008264 -0.18308
v 0.032185 9.2266e-06 -0.16138
v 0.03087 0.004863 -0.15698
v 0.026593 0.0088469 -0.16391
v 0.030876 -0.0049042 -0.1558
v 0.02714 -0.0087567 -0.15707
v 0.032456 9.1511e-06 -0.1482
v 0.030766 0.0051755 -0.13897
v 0.031753 8.5558e-06 -0.13059
v 0.030782 -0.0051678 -0.13893
v 0.029962 -0.0054737 -0.1253
v 0.027349 -0.009555 -0.13453
v 0.030184 0.0054 -0.12873
v 0.029321 0.005623 -0.11836
v 0.03025 9.0013e-06 -0.11517
v 0.026301 0.010437 -0.1177
v 0.022438 0.01349 -0.12289
v 0.017956 0.011974 -0.13626
v 0.02299 0.012357 -0.13589
v 0.020463 0.012103 -0.1424
v 0.017352 0.011086 -0.1483
v 0.012879 0.008517 -0.14863
v 0.013899 0.008746 -0.14001
v 0.0105 0.004706 -0.14427
v 0.01143 0.004861 -0.13545
v 0.010168 1.4245e-05 -0.13766
v 0.011655 0.0050457 -0.12725
v 0.01411 0.009427 -0.12821
v 0.010636 8.5537e-06 -0.12551
v 0.010873 -0.004715 -0.14135
v 0.01415 -0.009309 -0.13044
v 0.013898 -0.0087329 -0.13999
v 0.017577 -0.01312 -0.12395
v 0.0082435 9.4533e-06 -0.1491
v 0.0078002 0.0047581 -0.15597
v 0.0054951 8.9953e-06 -0.15843
v 0.011691 0.008556 -0.15467
v 0.016227 0.010931 -0.15686
v 0.019733 0.011508 -0.15174
v 0.027424 0.008891 -0.15055
v 0.022611 0.011221 -0.15229
v 0.021188 0.011108 -0.16364
v 0.019185 0.011743 -0.17369
v 0.017585 0.013117 -0.12401
v 0.021302 0.014502 -0.1099
v 0.019249 0.014718 -0.11395
v 0.027437 0.0094178 -0.13767
v 0.027009 0.009924 -0.12774
v 0.027528 -0.0091079 -0.14406
v 0.022611 -0.011199 -0.15229
v 0.019731 -0.011491 -0.1517
v 0.021198 -0.011095 -0.16356
v 0.025291 -0.009341 -0.17409
v 0.021905 -0.011372 -0.19052
v 0.022185 0.011282 -0.19101
v 0.024366 0.0094133 -0.1925
v 0.023405 0.010335 -0.19187
v 0.025944 0.0066462 -0.19421
v 0.025435 0.0072426 -0.19392
v 0.024812 0.0078321 -0.19353
v 0.024246 0.0093102 -0.19275
v 0.023468 0.0097478 -0.19246
v 0.022183 0.010845 -0.19155
v 0.025232 0.0069716 -0.19392
v 0.0057289 0.0071227 -0.18166
v 0.025942 0.0057126 -0.19501
v 0.02606 -0.0051925 -0.19766
v 0.025135 -0.0051561 -0.20207
v 0.023712 -0.0051581 -0.20754
v 0.022685 -0.0045887 -0.21074
v 0.022759 -0.0050642 -0.20976
v 0.023238 -0.0052257 -0.20871
v 0.01641 -0.005237 -0.20451
v 0.025372 -0.0052952 -0.19996
v 0.0053944 -0.005028 -0.19898
v 0.022484 -0.0044617 -0.2108
v -0.0099508 -0.005229 -0.18803
v -0.005415 -0.005028 -0.1922
v -0.0094084 -0.0051219 -0.18685
v -0.0034134 2.8082e-05 -0.1772
v -0.0098035 -0.0048292 -0.1871
v -0.010919 -0.0048569 -0.18849
v -0.010593 -0.0050753 -0.18834
v -0.010535 -0.0051189 -0.18874
v -0.011551 -0.0044482 -0.18943
v -0.010833 -0.004997 -0.18873
v -0.012079 -0.002397 -0.18998
v -0.012356 -0.0013862 -0.18956
v -0.0085475 9.5525e-06 -0.18462
v -0.01214 -0.0032444 -0.1895
v -0.011765 0.0040233 -0.18932
v -0.011415 0.0044738 -0.18952
v -0.010751 0.0049997 -0.18851
v -0.0071352 0.0046522 -0.18373
v -0.0062161 0.005106 -0.18279
v -0.00974 0.0052462 -0.18775
v -0.009294 0.0051609 -0.18689
v -0.0098067 0.0052561 -0.18803
v 0.0020374 0.0044781 -0.19798
v -0.01062 0.0050438 -0.18894
v 0.0028746 0.00524 -0.19612
v 0.0025715 0.0052741 -0.19463
v 0.023908 0.0052722 -0.20634
v 0.023404 0.0052748 -0.20765
v 0.023221 0.0052283 -0.20886
v 0.022842 0.005043 -0.20992
v 0.022604 0.0045204 -0.21084
v 0.022438 0.0033949 -0.21147
v 0.005275 0.002436 -0.20085
v -0.011921 0.0032877 -0.18996
v -0.012017 -0.0023005 -0.19002
v 0.0032679 -0.0032366 -0.19951
v -0.011703 -0.0037644 -0.1899
v 0.0052447 0.0013293 -0.20087
v 0.013519 -0.002357 -0.20603
v 0.022542 0.002204 -0.21171
v 0.005263 0.001333 -0.20087
v 0.022422 -0.0033449 -0.21148
v -0.012319 0.0017203 -0.18955
v -0.012018 0.0024072 -0.19003
v -0.0051342 0.0053044 -0.18177
v -0.003754 0.005301 -0.17975
v -0.00339 0.005166 -0.17893
v -0.0013762 0.0063525 -0.17676
v -0.0024962 0.0052436 -0.17757
v -0.00256 0.005357 -0.17804
v -0.003003 0.005311 -0.17866
v -0.003002 0.005312 -0.17866
v -0.002838 0.005353 -0.17877
v -0.002403 0.005396 -0.17816
v -6.5803e-05 0.0086423 -0.17736
v -0.0046655 -0.0051532 -0.1806
v 0.023548 -0.011424 -0.093962
v 0.02338 -0.0060635 -0.077551
v 0.020692 -0.011759 -0.077314
v 0.016816 -0.015958 -0.081159
v 0.014314 -0.016614 -0.083569
v 0.0028303 -0.0062444 -0.080371
v 0.0020284 8.4255e-06 -0.080881
v 0.0010619 0.0062936 -0.075017
v 0.0042514 0.012018 -0.0768
v -0.0027468 8.6747e-06 -0.066788
v -0.0020271 0.011904 -0.058026
v -0.0090442 0.0058791 -0.046524
v -0.010583 8.1768e-06 -0.0449
v -0.013444 0.0057051 -0.033421
v -0.008772 -0.005852 -0.047306
v -0.0094689 -0.011263 -0.036114
v -0.0064665 -0.014083 -0.034282
v -0.0068062 -0.013923 -0.031398
v -0.0010805 -0.015597 -0.042494
v -0.00021346 -0.015665 -0.041955
v -0.0047148 -0.011031 -0.029525
v -0.0043138 -0.014024 -0.03341
v -0.001085 -0.011041 -0.035093
v -0.0094956 -0.011331 -0.022701
v -0.012063 -0.010116 -0.016855
v -0.011462 -0.010382 -0.018241
v -0.01272 -0.010816 -0.017707
v -0.012226 -0.0081751 -0.012099
v -0.0081351 -0.006991 -0.0095997
v -0.012207 -0.0070258 0.0005113
v -0.012713 -0.0073138 -0.0072933
v -0.012598 -0.0082323 -0.011246
v -0.012553 -0.0091664 -0.012365
v -0.012335 -0.008757 -0.013328
v -0.01222 -0.009393 -0.01501
v -0.012117 -0.009781 -0.016128
v -0.012399 -0.0096116 -0.015027
v -0.013721 -0.009654 -0.013118
v -0.014599 -0.0097749 -0.012564
v -0.015697 -0.0095546 -0.014827
v -0.017166 -0.0054775 -0.019743
v -0.013249 -0.011069 -0.021659
v -0.012823 -0.011375 -0.020307
v -0.0099204 -0.012755 -0.028106
v -0.013453 -0.0056899 -0.033403
v -0.014634 9.3059e-06 -0.032969
v -0.017112 0.0055064 -0.019956
v -0.0095226 0.011279 -0.035945
v -0.012594 0.011391 -0.023336
v -0.015637 0.0095148 -0.015953
v -0.018605 0.005495 -0.009322
v -0.018871 8.9959e-06 -0.01642
v -0.01811 0.0069645 -0.0062636
v -0.017633 0.0074421 -0.005015
v -0.018577 0.005449 -0.001989
v -0.017785 0.0059373 0.0022828
v -0.017199 0.0065357 0.0025518
v -0.015578 0.0063996 0.0082928
v -0.01713 0.0055792 0.0053967
v -0.014499 0.0054637 0.011682
v -0.018179 9e-06 0.0055624
v -0.013199 0.005545 0.013812
v -0.017205 -0.00539 0.005226
v -0.015082 9.9028e-06 0.012267
v -0.018579 -0.00543 -0.001964
v -0.015718 -0.0085415 0.0048823
v -0.016576 -0.0090303 -0.0022402
v -0.018611 -0.005476 -0.009293
v -0.016817 -0.0087809 -0.0091911
v -0.019804 8.9949e-06 -0.0090768
v -0.019717 8.9941e-06 -0.0016792
v -0.010258 8.7735e-06 0.019073
v -0.017287 8.999e-06 -0.023645
v -0.012334 -0.0092419 -0.014133
v -0.012892 -0.0075177 -0.006515
v 0.011994 -0.0069913 -0.028126
v 0.015579 -0.0069693 -0.045624
v -0.0076573 -0.008021 -0.018392
v 0.0058067 -0.016378 -0.05077
v 0.003285 -0.016392 -0.048846
v 0.0026692 -0.015905 -0.054855
v -0.0021632 -0.014109 -0.049827
v 0.0071827 -0.016682 -0.054411
v 0.009246 -0.016117 -0.076332
v 0.0033947 -0.012062 -0.073979
v -0.0023961 -0.011946 -0.056816
v 0.0094983 -0.016819 -0.064538
v 0.013834 -0.016091 -0.067904
v 0.012636 -0.015915 -0.061259
v 0.013876 -0.014945 -0.06123
v 0.010553 -0.016144 -0.057395
v 0.0070458 -0.015965 -0.051426
v 0.014405 -0.010893 -0.058427
v 0.013236 -0.008021 -0.05026
v 0.018143 -0.0079227 -0.057469
v 0.019073 -0.0084848 -0.060968
v 0.018377 -0.011828 -0.06584
v 0.018778 -0.010607 -0.064743
v 0.017016 -0.013244 -0.065037
v 0.021199 -0.0060077 -0.066463
v 0.019453 -0.0092079 -0.063787
v 0.020351 3.598e-06 -0.057535
v 0.019534 0.0062169 -0.058413
v 0.01825 -0.0058941 -0.05168
v 0.01807 0.006284 -0.051573
v 0.01915 0.0082562 -0.060526
v 0.019318 0.0095101 -0.063942
v 0.021192 0.006051 -0.066437
v 0.025501 7.9723e-06 -0.083727
v 0.016146 0.016033 -0.078
v 0.020687 0.011776 -0.077321
v 0.017449 -0.0059166 -0.047749
v 0.017729 -0.0066753 -0.051384
v 0.016312 -0.0071033 -0.049889
v 0.016645 -0.0067731 -0.047885
v 0.018891 -0.007003 -0.056833
v 0.004169 9e-06 -0.088101
v 0.014537 0.005537 -0.03119
v 0.01303 -0.00081505 -0.0095703
v 0.011825 -0.005544 0.0038454
v 0.011733 -0.0062366 0.0065941
v 0.012656 -0.006339 0.012946
v 0.01461 -0.00605 0.024546
v 0.013908 -0.00674 0.024359
v 0.013847 -0.0067648 0.020181
v 0.012318 -0.006063 0.028355
v 0.012546 -0.0051159 0.028568
v 0.008523 -0.005193 0.030831
v 0.008541 -0.005192 0.030826
v 0.008492 -0.003044 0.031026
v 0.00391 -0.005227 0.030907
v -0.000145 -0.005259 0.028716
v 8.4e-05 -0.006141 0.028463
v 0.003794 -0.003044 0.031086
v 0.003911 -0.005227 0.030907
v 8.6e-05 -0.006146 0.028461
v 0.012572 -0.003044 0.028684
v 0.014994 -0.003044 0.024628
v 0.014907 -0.0050954 0.024611
v 0.014526 -0.0060807 0.02007
v 0.014819 -0.005263 0.020012
v 0.015029 -0.003044 0.019888
v 0.012695 -0.005526 0.01103
v -0.0049039 -0.0064474 0.023363
v -0.005686 -0.008054 0.022439
v -0.0087215 -0.0093357 0.011662
v -0.010315 -0.008991 0.00801
v -0.010793 -0.0092869 0.0070101
v 0.013499 0.0054282 0.01486
v 0.014526 0.0061237 0.020091
v 0.014819 0.005282 0.020012
v 0.014987 0.003011 0.019689
v 0.015022 0.00301 0.019837
v 0.015033 0.00301 0.019884
v 0.015033 0.003009 0.019887
v 0.014995 0.003009 0.024628
v 0.012572 0.003009 0.028686
v 0.015031 0.00301 0.019874
v 0.015033 0.003009 0.019886
v 0.012546 0.005134 0.028567
v 0.008491 0.003009 0.03103
v 0.003792 0.003009 0.031089
v 0.014906 0.0051135 0.02461
v 0.012318 0.006081 0.028355
v 0.01461 0.006068 0.024544
v 0.0085297 0.0052102 0.03083
v 2.038e-05 0.0059099 0.028615
v 0.011686 0.0057442 0.0030316
v -0.00084 0.00151 -0.18258
v -0.00020378 0.005333 -0.18374
v -0.00083318 0.0053117 -0.18257
v 0.019935 0.005353 -0.19306
v -0.0023822 0.0053528 -0.1788
v 0.0035019 0.005395 -0.18186
v 0.012307 0.005667 -0.18657
v -0.0013885 0.0059496 -0.17761
v 0.025751 0.0064072 -0.19439
v 0.014742 0.0063644 -0.18751
v 0.025437 0.0071427 -0.19401
v 0.02564 0.0070914 -0.1942
v 0.025836 0.0062663 -0.19451
v 0.02588 0.005646 -0.19511
v 0.02618 0.0060869 -0.19527
v 0.026138 0.0058589 -0.19594
v 0.021177 0.011844 -0.19768
v 0.026055 0.0064484 -0.19514
v 0.025733 0.0062643 -0.19761
v 0.022252 0.011256 -0.19203
v 0.024452 0.0092512 -0.19357
v 0.023281 0.010267 -0.19241
v 0.025316 0.0079118 -0.19396
v 0.023223 0.010322 -0.19231
v 0.012528 0.013434 -0.18529
v 0.017204 0.01307 -0.18828
v 0.019891 0.012336 -0.19008
v 0.019639 0.012589 -0.19015
v 0.016407 0.013563 -0.18825
v 0.014475 0.014882 -0.19716
v 0.0091558 0.01509 -0.19066
v 0.007358 0.017325 -0.20508
v 0.0021744 0.017589 -0.20153
v 0.0039007 0.018434 -0.21066
v -0.002723 0.0187 -0.20651
v 0.000883 0.018631 -0.20877
v 0.0023037 0.018354 -0.21026
v 0.000627 0.018642 -0.20861
v -0.0001202 0.018551 -0.20867
v -0.00059933 0.018364 -0.2085
v -0.0098469 0.017292 -0.20272
v -0.0038944 0.018552 -0.20632
v -0.0062469 0.018518 -0.20449
v -0.0080728 0.018151 -0.20337
v -0.012596 0.01596 -0.20036
v -0.010378 0.017371 -0.20209
v -0.0076906 0.014017 -0.19314
v -0.0052188 0.016083 -0.19564
v -0.00183 0.012046 -0.18462
v 0.0035566 0.014689 -0.18793
v 0.0049772 0.012936 -0.18101
v 0.0088008 0.013815 -0.18333
v 0.0081448 0.013504 -0.18265
v 0.0067789 0.013262 -0.18183
v 0.0032487 0.011941 -0.17977
v 0.00058581 0.0096579 -0.17831
v 0.0016157 0.010777 -0.17888
v 0.00045589 0.0089504 -0.17815
v -0.0010114 0.0066154 -0.17751
v 0.0042336 0.0070772 -0.18073
v -0.00077171 0.0078118 -0.17765
v -0.0015197 0.0066332 -0.17745
v -0.0015505 0.0063091 -0.17746
v -0.0017153 0.0055542 -0.1779
v -0.0023694 0.0054851 -0.17825
v -0.007656 0.005722 -0.18505
v -0.0042058 0.0053505 -0.18114
v -0.0086923 0.0052781 -0.18716
v -0.0017242 0.005333 -0.18274
v -0.0016467 0.0015098 -0.18273
v -0.0076759 0.0033224 -0.19262
v -0.0066492 0.0051752 -0.191
v -0.009754 0.0052716 -0.18814
v -0.010375 0.0051592 -0.18879
v -0.007344 0.00448 -0.19209
v -0.012005 0.0030133 -0.18998
v -0.011208 0.0045549 -0.18965
v -0.010813 0.0052326 -0.18885
v -0.010416 0.005758 -0.18837
v -0.011622 0.0047495 -0.18947
v -0.010715 0.0073107 -0.18954
v -0.007637 0.010537 -0.18861
v -0.015701 0.012305 -0.19856
v -0.014389 0.014264 -0.19957
v -0.011833 0.016515 -0.20127
v -0.008762 0.017868 -0.20327
v -0.013134 0.015528 -0.20051
v -0.015836 0.011956 -0.19886
v -0.015596 0.012189 -0.19911
v -0.017134 0.0091381 -0.19798
v -0.017369 0.0083213 -0.19744
v -0.018208 0.0050613 -0.19725
v -0.018357 0.003118 -0.19672
v -0.018633 0.00011949 -0.19701
v -0.01856 -0.00067156 -0.19666
v -0.018514 0.0025548 -0.19719
v -0.018163 -0.0050563 -0.1975
v -0.018482 -0.0033253 -0.19719
v 0.001869 0.018064 -0.21007
v -0.0032249 -0.018283 -0.20687
v -0.0050174 -0.018328 -0.20563
v -0.006464 -0.018229 -0.20449
v -0.0079473 -0.017834 -0.20382
v -0.012094 -0.016076 -0.20128
v -0.010598 -0.017078 -0.20196
v -0.0072287 -0.018159 -0.2037
v -0.0032907 -0.015231 -0.19281
v -0.006362 -0.018257 -0.20422
v 0.0019473 -0.016957 -0.19824
v -0.002779 -0.01861 -0.20647
v -0.0021095 -0.018638 -0.20715
v 0.0056721 -0.01739 -0.20299
v 0.00952 -0.01509 -0.19111
v 0.014467 -0.014923 -0.19706
v 0.017541 -0.013267 -0.18877
v 0.019641 -0.012549 -0.18998
v 0.015068 -0.013606 -0.18701
v 0.014837 -0.013756 -0.18693
v 0.017775 -0.012859 -0.18864
v 0.020963 -0.011879 -0.19084
v 0.022269 -0.01101 -0.19166
v 0.018792 -0.0072228 -0.18982
v 0.009797 -0.007722 -0.18413
v 0.020658 -0.0062506 -0.19129
v 0.020586 -0.0056489 -0.19176
v 0.0074451 -0.0062497 -0.183
v 0.0096775 -0.0069754 -0.18416
v -0.00073384 -0.0072326 -0.17758
v 0.00095968 -0.0099353 -0.17842
v -0.00067692 -0.0080029 -0.17765
v 0.0017299 -0.010869 -0.17898
v 0.0068802 -0.012852 -0.1818
v 0.00435 -0.012223 -0.1803
v 0.0056827 -0.01291 -0.18121
v 0.003595 -0.014528 -0.1877
v 0.0033432 -0.012043 -0.18002
v -0.0020695 -0.012056 -0.18498
v -0.0054144 -0.0063129 -0.18222
v -0.00026269 -0.009101 -0.17814
v -0.0010602 -0.0080177 -0.17787
v -0.0018633 -0.0066742 -0.17762
v -0.0016727 -0.0063825 -0.17738
v -0.0024505 -0.0060981 -0.17801
v -0.0021454 -0.0061332 -0.17764
v -0.0023474 -0.0057898 -0.17779
v -0.001273 -0.006251 -0.17753
v -0.0021285 -0.0056291 -0.17777
v -0.0020647 -0.0053889 -0.17824
v -0.0016372 -0.0056914 -0.17775
v -0.002293 -0.0053776 -0.17831
v -0.0024863 -0.005342 -0.1786
v -0.0056607 -0.0053282 -0.18285
v -0.0017242 -0.0053148 -0.18274
v -0.0016467 -0.0014908 -0.18273
v -0.0096745 -0.0052541 -0.18793
v -0.0088411 -0.0053692 -0.18664
v -0.010534 -0.0052647 -0.18861
v -0.010736 -0.005557 -0.18857
v -0.010854 -0.0074979 -0.18961
v -0.01032 -0.011288 -0.19197
v -0.012458 -0.0041139 -0.19006
v -0.018124 -0.0060254 -0.19726
v -0.017496 -0.0079881 -0.19717
v -0.017143 -0.0096362 -0.19799
v -0.01833 -0.0035496 -0.19672
v -0.01446 1.065e-05 -0.19189
v -0.012425 0.0037758 -0.19002
v -0.012686 0.0022322 -0.18999
v -0.012219 0.0034566 -0.18986
v -0.012539 0.0012604 -0.18984
v -0.012727 -0.00029847 -0.18986
v -0.012421 -0.001327 -0.18984
v -0.012682 -0.0015282 -0.18989
v -0.012279 -0.0035698 -0.18982
v -0.011679 -0.0047017 -0.18943
v -0.011397 -0.0043623 -0.18968
v -0.0076728 -0.0033187 -0.19261
v -0.012053 -0.0029835 -0.18995
v -0.007739 0.00151 -0.19271
v -0.005678 -0.00017546 -0.19401
v -0.006353 0.00151 -0.19358
v -0.000525 0.00151 -0.19724
v -0.000526 0.001333 -0.19724
v 0.005296 -0.001314 -0.20089
v 0.005301 0.001333 -0.20089
v 0.005303 0.00151 -0.20089
v 0.005301 -0.001314 -0.20089
v 0.005303 0.001333 -0.20089
v 0.011126 -0.001314 -0.20455
v 0.016956 -0.001314 -0.2082
v 0.011126 -0.001491 -0.20455
v 0.011131 0.001333 -0.20455
v 0.011131 0.00151 -0.20455
v 0.016959 0.001333 -0.2082
v 0.018551 0.00151 -0.2092
v 0.022765 0.0026803 -0.21183
v 0.023073 -4.0223e-05 -0.21219
v 0.023054 8.8685e-06 -0.21254
v 0.022112 0.003982 -0.21388
v 0.022743 -0.0037076 -0.21238
v 0.022439 9.4011e-06 -0.21407
v 0.019377 0.0015421 -0.22058
v 0.018847 -0.0040855 -0.22058
v 0.019129 -0.0041362 -0.22039
v 0.021037 -0.007741 -0.21325
v 0.018361 -0.0077412 -0.21977
v 0.018275 -0.00697 -0.22021
v 0.012136 -0.015902 -0.21649
v 0.017226 -0.0093682 -0.2197
v 0.0087044 -0.017604 -0.21417
v 0.011805 -0.016496 -0.21586
v 0.013917 -0.015819 -0.20902
v 0.013671 -0.015094 -0.21718
v 0.016149 -0.01211 -0.21878
v 0.015269 -0.013441 -0.21816
v 0.017326 -0.01013 -0.21937
v 0.019297 -0.011127 -0.21223
v 0.024144 -0.0063581 -0.20458
v 0.017889 -0.013559 -0.20809
v 0.025275 -0.0057152 -0.20019
v 0.025914 -0.0061075 -0.19651
v 0.026074 -0.0061343 -0.19541
v 0.026049 -0.005944 -0.19591
v 0.026091 -0.0057657 -0.19531
v 0.025907 -0.0056223 -0.19675
v 0.024164 -0.0054723 -0.20484
v 0.025351 -0.0053629 -0.19833
v 0.020735 -0.0052719 -0.20434
v 0.020888 -0.001491 -0.20388
v 0.022616 -0.001491 -0.19832
v 0.022616 -0.005312 -0.19832
v 0.019413 -0.0051234 -0.20746
v 0.022916 -0.0052501 -0.20876
v 0.023083 -0.0053952 -0.209
v 0.022868 -0.0052114 -0.21037
v 0.023527 -0.005694 -0.2076
v 0.023714 -0.0059113 -0.20685
v 0.022885 -0.0056527 -0.21016
v 0.022881 -0.002733 -0.21196
v 0.022774 -0.0041051 -0.21145
v 0.022592 -0.003293 -0.21163
v 0.022841 4.0191e-05 -0.2119
v 0.018532 -0.0015009 -0.20922
v 0.022535 -0.004729 -0.21053
v 0.018795 -0.0042935 -0.20873
v 0.022542 -0.005027 -0.20974
v 0.022063 -0.0052849 -0.19727
v 0.022095 -0.001491 -0.19724
v 0.020942 -0.005314 -0.19701
v 0.005296 -0.001491 -0.20089
v 0.002709 -0.001491 -0.18559
v 0.02123 -0.001491 -0.19718
v 0.01601 -0.001491 -0.19394
v -0.0002511 -0.001491 -0.18363
v -0.000534 -0.001491 -0.19723
v -0.0077393 -0.001491 -0.19271
v -0.00084 -0.001491 -0.18258
v -0.00082841 -0.0052901 -0.18256
v -0.00021602 -0.0053139 -0.18372
v 0.011111 -0.005376 -0.18663
v 0.0080933 -0.005314 -0.18897
v 0.01403 -0.001491 -0.1927
v 0.01205 -0.001491 -0.19145
v 0.01007 -0.001491 -0.19021
v 0.004054 -0.001491 -0.18644
v 0.008089 -0.001491 -0.18897
v 0.006744 -0.001491 -0.18812
v 0.005399 -0.001491 -0.18728
v 0.025714 -0.0055059 -0.19519
v 0.025759 -0.0053818 -0.19586
v 0.025714 -0.0062489 -0.19443
v 0.025408 -0.0075519 -0.19414
v 0.025883 -0.0066997 -0.19467
v 0.024588 -0.0086313 -0.19338
v 0.022939 -0.010468 -0.19221
v 0.024224 -0.0092611 -0.19346
v 0.022404 -0.011054 -0.19218
v 0.025318 -0.0070953 -0.19395
v 0.0083968 -0.017874 -0.21347
v 0.0056715 -0.018193 -0.21226
v 0.0020541 -0.018594 -0.20951
v 0.0048213 -0.018395 -0.21164
v 0.0050063 -0.018158 -0.21201
v 0.00069853 -0.018471 -0.20926
v 0.0079539 0.017593 -0.21383
v 0.01919 -0.0014397 -0.22073
v 0.018889 0.0023381 -0.22074
v 0.018979 0.0046946 -0.22044
v 0.021152 0.007821 -0.21333
v 0.019495 0.011267 -0.21236
v 0.023322 0.007247 -0.20663
v 0.017566 0.010165 -0.21952
v 0.022954 0.0056217 -0.2102
v 0.023576 0.005932 -0.20765
v 0.023585 0.0057868 -0.20767
v 0.023594 0.005615 -0.20764
v 0.023437 0.0053957 -0.2076
v 0.025755 0.0053999 -0.19669
v 0.024661 0.005372 -0.20212
v 0.025548 0.0053523 -0.19668
v 0.020735 0.0052909 -0.20434
v 0.023666 0.0053081 -0.20611
v 0.023278 0.0052932 -0.20756
v 0.019412 0.0051414 -0.20746
v 0.023002 0.0052548 -0.20898
v 0.02351 0.005482 -0.20763
v 0.022837 0.0039701 -0.21166
v 0.022919 0.0051214 -0.21042
v 0.022513 0.0045168 -0.21082
v 0.022595 0.003524 -0.2115
v 0.018618 0.0033667 -0.20909
v 0.020888 0.00151 -0.20388
v 0.022616 0.00151 -0.19832
v 0.02123 0.00151 -0.19718
v 0.022095 0.00151 -0.19724
v 0.022095 0.005336 -0.19724
v 0.022616 0.005331 -0.19832
v 0.021239 0.005333 -0.1972
v 0.02569 0.005392 -0.19578
v 0.01601 0.00151 -0.19394
v 0.01403 0.00151 -0.1927
v 0.01205 0.00151 -0.19145
v 0.002709 0.00151 -0.18559
v 0.004054 0.00151 -0.18644
v 0.01007 0.00151 -0.19021
v 0.008089 0.00151 -0.18897
v 0.005399 0.00151 -0.18728
v 0.006744 0.00151 -0.18812
v -0.0002511 0.00151 -0.18363
v 0.026018 0.0055234 -0.19596
v 0.02584 0.0057439 -0.19776
v 0.024754 0.0057181 -0.20305
v 0.022611 0.0049601 -0.21003
v 0.018887 0.00448 -0.20855
v 0.016626 0.012258 -0.21867
v 0.01413 0.01498 -0.21745
v 0.012166 0.016372 -0.21608
v 0.014002 0.015786 -0.20908
v 0.010983 0.01676 -0.21563
v 0.011929 0.015954 -0.21638
v 0.0054675 0.018161 -0.21211
v 0.0081109 0.017854 -0.2133
v 0.0094269 0.017469 -0.21415
v 0.015239 0.013768 -0.21827
v 0.017293 0.0097421 -0.21973
v 0.018506 0.0070763 -0.2202
v 0.016469 0.01187 -0.21911
v 0.018228 0.013531 -0.20771
v -0.007344 -0.004462 -0.1921
v -0.010375 -0.0051083 -0.18886
v -0.0066425 -0.0051595 -0.19099
v -0.016643 -0.010551 -0.19772
v -0.016063 -0.011976 -0.19862
v -0.015148 -0.013176 -0.19937
v -0.013069 -0.01556 -0.20016
v -0.013923 -0.014789 -0.19994
v -0.014841 -0.013794 -0.19906
v -0.0076894 -0.0056766 -0.18492
v -0.0049383 -0.005696 -0.18137
v -0.0098545 -0.0057809 -0.18756
v -0.000989 -0.006765 -0.17752
v 0.0084205 -0.013686 -0.18306
v 0.0075134 -0.013376 -0.18232
v 0.010813 -0.013726 -0.18431
v 0.011568 -0.013451 -0.18469
v 0.011346 -0.013824 -0.18466
v -0.004732 -0.018474 -0.20525
v -0.003145 -0.018594 -0.20624
v -0.006318 -0.018265 -0.20425
v -0.018166 0.0044724 -0.1975
v -0.0021412 0.006066 -0.17772
v -0.00092471 0.0081133 -0.17789
v -0.0065485 0.005682 -0.18363
v 1.2677e-05 0.0094646 -0.17843
v -0.0025064 0.0057809 -0.17816
v -0.001861 0.00661 -0.17773
v -0.0038927 0.0058082 -0.18006
v -0.0054903 0.0062943 -0.1825
v -0.0099662 0.0054658 -0.18795
v -0.0088779 0.0053845 -0.18684
v 0.0051532 0.012582 -0.18074
v 0.010527 0.013661 -0.18409
v 0.014107 0.013748 -0.18644
v 0.012064 0.013868 -0.18517
v 0.01724 0.013282 -0.18852
v -0.000944 0.018692 -0.20762
v -0.002518 0.018702 -0.20663
f 11 13 9
f 11 9 12
f 14 13 11
f 14 11 15
f 21 14 26
f 14 21 13
f 21 26 22
f 26 14 27
f 37 38 35
f 37 39 38
f 41 39 37
f 41 43 44
f 41 44 39
f 46 47 40
f 46 50 47
f 45 50 46
f 48 50 45
f 48 49 50
f 48 43 521
f 48 521 51
f 52 48 51
f 63 67 64
f 64 67 65
f 63 68 67
f 73 70 71
f 70 68 63
f 70 72 68
f 70 73 72
f 64 65 84
f 97 96 80
f 97 99 96
f 97 103 99
f 107 110 108
f 103 110 107
f 110 97 111
f 103 97 110
f 219 222 220
f 221 222 219
f 221 223 222
f 223 221 250
f 237 236 235
f 275 380 379
f 391 390 389
f 220 390 391
f 220 222 390
f 419 284 288
f 419 288 420
f 419 420 421
f 437 429 428
f 431 433 432
f 432 433 300
f 420 288 289
f 419 438 284
f 438 419 415
f 97 478 114
f 97 479 478
f 478 479 76
f 97 80 479
f 114 478 525
f 525 478 526
f 26 31 128
f 40 47 36
f 586 52 583
f 586 583 579
f 64 84 88
f 521 43 4
f 601 43 41
f 2 606 611
f 611 606 610
f 43 2 4
f 26 27 31
f 618 686 687
f 687 946 618
f 686 618 620
f 619 621 620
f 644 642 641
f 643 642 644
f 657 658 659
f 657 987 658
f 658 987 706
f 686 684 685
f 620 684 686
f 620 622 684
f 686 685 689
f 658 706 704
f 714 717 971
f 657 717 714
f 657 714 987
f 717 657 716
f 717 901 718
f 721 717 720
f 739 982 736
f 982 739 749
f 768 875 770
f 768 770 769
f 769 770 772
f 772 770 968
f 797 796 693
f 796 797 798
f 798 687 796
f 800 799 798
f 799 687 798
f 800 798 797
f 801 800 797
f 801 802 800
f 802 799 800
f 802 803 799
f 804 802 801
f 806 802 804
f 809 806 807
f 808 807 806
f 804 808 806
f 811 810 809
f 809 810 803
f 809 807 811
f 811 812 810
f 811 807 859
f 859 812 811
f 900 826 825
f 717 826 900
f 717 904 826
f 848 844 845
f 860 859 807
f 860 807 808
f 808 846 860
f 864 844 848
f 848 865 864
f 848 847 865
f 847 869 865
f 867 801 872
f 867 804 801
f 808 804 867
f 867 869 808
f 867 868 870
f 867 871 868
f 867 870 869
f 871 867 872
f 871 872 771
f 771 872 873
f 872 797 873
f 872 801 797
f 873 693 795
f 873 797 693
f 871 771 874
f 864 878 875
f 879 878 870
f 880 878 879
f 881 878 880
f 878 881 883
f 884 878 883
f 875 878 876
f 884 876 878
f 885 876 884
f 882 876 885
f 868 876 882
f 869 878 866
f 864 866 878
f 870 878 869
f 864 887 844
f 871 876 868
f 770 874 771
f 875 874 770
f 846 869 847
f 808 869 846
f 904 716 902
f 717 716 904
f 917 918 919
f 919 918 920
f 931 929 930
f 931 810 929
f 929 810 812
f 931 930 932
f 931 803 810
f 932 934 933
f 935 933 621
f 917 933 934
f 621 933 917
f 931 935 937
f 937 803 931
f 937 935 938
f 938 935 939
f 939 935 942
f 942 619 943
f 942 935 619
f 935 621 619
f 619 945 943
f 945 619 944
f 944 619 941
f 941 619 940
f 940 619 946
f 946 803 940
f 940 803 937
f 932 930 934
f 917 934 918
f 902 716 654
f 962 957 961
f 962 902 957
f 904 902 962
f 803 946 799
f 799 946 687
f 714 971 781
f 971 717 721
f 675 642 998
f 1 4 3
f 5 1 3
f 3 4 2
f 3 6 5
f 5 6 7
f 616 6 3
f 7 6 20
f 6 13 20
f 13 6 616
f 8 13 616
f 13 8 9
f 8 12 9
f 8 10 12
f 16 14 15
f 16 17 14
f 17 18 14
f 19 14 18
f 21 20 13
f 26 23 22
f 26 24 23
f 24 26 25
f 25 143 24
f 14 19 27
f 27 19 28
f 29 28 19
f 28 29 32
f 32 30 28
f 31 28 30
f 27 28 31
f 29 34 32
f 35 33 32
f 35 32 34
f 35 36 568
f 38 36 35
f 35 34 37
f 40 38 39
f 36 38 40
f 37 617 41
f 37 34 617
f 41 617 42
f 41 42 598
f 45 44 43
f 46 44 45
f 46 39 44
f 40 39 46
f 49 48 591
f 591 48 52
f 45 43 48
f 51 53 52
f 54 53 56
f 55 53 54
f 52 53 55
f 56 53 57
f 51 57 53
f 521 58 57
f 57 51 521
f 58 59 57
f 56 57 60
f 57 59 60
f 60 62 61
f 59 62 60
f 59 63 62
f 64 61 62
f 64 62 63
f 67 68 66
f 72 69 68
f 63 516 70
f 482 73 71
f 72 74 69
f 72 73 74
f 75 69 76
f 76 69 74
f 75 77 69
f 68 69 77
f 78 77 75
f 77 78 597
f 78 79 80
f 80 81 82
f 80 96 81
f 81 83 82
f 65 595 83
f 65 85 84
f 65 83 85
f 84 85 86
f 87 89 88
f 89 64 88
f 90 61 89
f 64 89 61
f 91 593 90
f 90 89 91
f 593 91 102
f 89 92 91
f 94 93 92
f 94 95 93
f 86 94 87
f 94 92 87
f 85 96 86
f 98 86 96
f 85 81 96
f 99 95 98
f 99 98 96
f 100 95 99
f 100 99 103
f 95 100 101
f 93 95 101
f 101 102 93
f 101 100 103
f 102 101 103
f 105 102 103
f 104 102 105
f 106 105 107
f 107 105 103
f 108 106 107
f 110 109 108
f 109 106 108
f 97 112 111
f 97 113 112
f 114 113 97
f 115 112 113
f 36 115 116
f 47 569 115
f 115 36 47
f 115 113 116
f 116 113 118
f 116 118 117
f 119 117 120
f 117 121 120
f 120 121 123
f 123 119 120
f 119 123 122
f 122 123 561
f 554 128 124
f 125 124 128
f 126 125 30
f 128 30 125
f 31 30 128
f 132 129 130
f 127 130 128
f 130 127 131
f 132 130 131
f 133 131 127
f 128 133 127
f 554 133 128
f 554 134 133
f 131 133 134
f 134 132 131
f 555 132 134
f 135 132 555
f 132 135 136
f 132 136 155
f 132 155 138
f 129 138 139
f 132 138 129
f 140 129 139
f 129 142 25
f 129 25 130
f 142 129 140
f 140 141 142
f 142 141 143
f 141 145 144
f 141 144 24
f 143 141 24
f 145 498 144
f 498 145 147
f 146 147 145
f 146 145 141
f 146 148 147
f 149 147 148
f 497 147 149
f 149 148 152
f 152 148 150
f 151 150 139
f 151 153 150
f 152 150 153
f 154 153 151
f 137 156 155
f 155 156 154
f 157 154 156
f 156 136 559
f 157 156 559
f 136 156 137
f 158 153 157
f 153 154 157
f 458 158 159
f 160 458 159
f 455 161 162
f 163 455 162
f 533 163 166
f 454 533 166
f 166 163 167
f 454 166 164
f 165 454 164
f 165 164 188
f 166 167 168
f 164 166 350
f 166 168 350
f 167 169 168
f 169 346 170
f 168 169 170
f 346 171 344
f 171 172 344
f 171 346 173
f 169 173 346
f 171 173 174
f 175 174 173
f 175 173 169
f 167 175 169
f 162 174 175
f 163 162 175
f 163 175 167
f 174 160 176
f 176 159 171
f 160 159 176
f 174 176 171
f 158 178 177
f 159 158 177
f 180 181 183
f 179 180 183
f 186 181 558
f 558 182 186
f 186 184 181
f 183 181 184
f 186 182 185
f 182 187 185
f 185 187 190
f 187 189 190
f 187 188 189
f 188 164 189
f 190 189 191
f 189 164 193
f 189 193 191
f 164 192 193
f 193 192 194
f 192 349 194
f 194 349 195
f 349 196 195
f 195 196 197
f 194 195 197
f 197 196 198
f 197 198 200
f 194 197 199
f 199 197 200
f 200 198 202
f 199 200 201
f 201 200 202
f 205 202 203
f 202 198 204
f 201 202 205
f 369 205 208
f 369 201 205
f 208 205 206
f 206 205 207
f 208 206 210
f 209 208 210
f 210 211 209
f 254 209 211
f 213 317 214
f 213 242 317
f 317 242 216
f 317 216 217
f 216 218 217
f 243 218 216
f 218 219 220
f 219 218 221
f 223 250 225
f 249 225 250
f 225 229 226
f 224 229 225
f 227 229 230
f 229 228 397
f 397 226 229
f 229 224 230
f 224 249 230
f 231 232 230
f 202 232 233
f 202 204 232
f 204 230 232
f 233 232 231
f 203 233 234
f 203 202 233
f 236 234 235
f 235 234 233
f 237 238 236
f 239 211 237
f 238 237 210
f 237 211 210
f 210 206 238
f 238 206 207
f 207 236 238
f 234 236 207
f 237 240 239
f 240 216 242
f 243 240 241
f 216 240 243
f 218 243 246
f 243 244 246
f 243 241 244
f 244 241 245
f 246 244 247
f 244 245 247
f 245 235 247
f 248 247 235
f 248 235 231
f 231 230 248
f 241 240 235
f 241 235 245
f 248 249 247
f 230 249 248
f 221 249 250
f 221 246 249
f 246 247 249
f 218 246 221
f 251 242 213
f 252 242 251
f 251 212 252
f 213 212 251
f 240 242 252
f 240 252 253
f 240 253 239
f 239 253 254
f 253 252 212
f 254 253 212
f 211 239 254
f 235 240 237
f 235 233 231
f 205 234 207
f 205 203 234
f 224 225 249
f 198 255 229
f 229 255 228
f 198 229 227
f 256 228 255
f 228 256 257
f 257 256 260
f 256 258 260
f 256 263 258
f 352 259 256
f 256 259 263
f 256 255 352
f 259 262 263
f 263 262 261
f 258 263 448
f 448 263 264
f 263 261 264
f 264 261 265
f 265 267 266
f 266 267 268
f 269 266 268
f 268 271 269
f 268 360 271
f 360 270 271
f 273 272 271
f 271 270 273
f 273 274 272
f 270 372 273
f 274 273 372
f 380 274 372
f 275 274 380
f 277 276 275
f 275 272 274
f 275 276 272
f 276 269 271
f 272 276 271
f 276 277 269
f 278 265 277
f 269 277 266
f 277 265 266
f 280 282 279
f 281 282 280
f 284 281 285
f 284 283 281
f 286 285 281
f 287 286 281
f 286 289 285
f 287 383 286
f 383 289 286
f 288 285 289
f 289 383 291
f 289 290 293
f 292 293 290
f 289 293 294
f 293 292 294
f 294 292 298
f 420 294 298
f 292 295 298
f 306 295 292
f 297 295 306
f 297 299 295
f 295 299 296
f 299 297 300
f 304 302 301
f 301 300 297
f 301 306 304
f 303 304 305
f 304 306 305
f 306 292 307
f 307 305 306
f 305 307 215
f 307 292 308
f 307 308 310
f 309 308 291
f 291 308 292
f 310 215 307
f 311 310 308
f 313 311 312
f 310 311 314
f 316 315 317
f 314 315 316
f 315 318 317
f 315 370 318
f 314 311 319
f 319 315 314
f 319 311 320
f 321 320 311
f 324 322 319
f 319 320 324
f 324 320 325
f 324 327 322
f 364 325 357
f 357 325 320
f 324 325 326
f 326 327 324
f 326 328 327
f 328 329 327
f 327 329 366
f 326 325 330
f 326 330 331
f 326 331 332
f 332 328 326
f 332 185 328
f 332 331 186
f 186 185 332
f 186 331 184
f 333 184 331
f 362 333 334
f 362 183 333
f 183 184 333
f 363 362 334
f 361 363 335
f 335 363 337
f 363 334 337
f 337 334 336
f 335 337 338
f 340 338 339
f 340 335 338
f 341 340 339
f 342 345 340
f 345 335 340
f 342 340 341
f 343 342 341
f 343 344 342
f 344 345 342
f 344 343 346
f 170 346 343
f 349 170 347
f 170 343 347
f 348 170 349
f 192 348 349
f 168 170 348
f 350 168 348
f 350 348 192
f 164 350 192
f 347 351 196
f 349 347 196
f 347 343 351
f 341 351 343
f 352 351 341
f 352 353 351
f 196 351 353
f 196 353 198
f 198 353 255
f 352 255 353
f 341 339 352
f 352 339 354
f 339 338 354
f 354 338 355
f 354 355 259
f 352 354 259
f 356 355 338
f 355 358 359
f 355 359 262
f 358 355 356
f 259 355 262
f 358 357 359
f 337 358 356
f 337 336 358
f 336 364 358
f 358 364 357
f 359 357 321
f 357 320 321
f 338 337 356
f 262 359 360
f 359 321 360
f 262 360 267
f 360 313 270
f 360 321 313
f 344 172 345
f 172 361 345
f 172 177 361
f 177 363 361
f 177 178 363
f 178 179 363
f 363 179 362
f 159 177 172
f 179 183 362
f 345 361 335
f 365 330 364
f 364 330 325
f 336 365 364
f 365 331 330
f 333 331 365
f 334 365 336
f 334 333 365
f 185 190 328
f 366 191 367
f 329 191 366
f 367 193 368
f 191 193 367
f 199 367 368
f 199 368 194
f 193 194 368
f 323 367 369
f 367 199 369
f 366 367 323
f 369 199 201
f 327 366 322
f 322 366 323
f 328 190 329
f 190 191 329
f 323 369 370
f 322 323 370
f 322 370 315
f 370 369 208
f 315 319 322
f 321 311 313
f 318 370 371
f 370 209 371
f 370 208 209
f 318 371 214
f 212 214 371
f 371 209 254
f 254 212 371
f 317 318 214
f 215 310 316
f 314 316 310
f 316 317 215
f 373 311 309
f 312 311 373
f 311 308 309
f 372 312 373
f 270 313 372
f 313 312 372
f 373 309 375
f 373 375 378
f 376 378 375
f 381 376 375
f 376 379 378
f 376 377 379
f 377 381 275
f 379 377 275
f 381 287 382
f 275 381 382
f 277 382 279
f 275 382 277
f 277 279 278
f 287 280 382
f 281 280 287
f 279 382 280
f 381 377 376
f 379 380 372
f 379 372 378
f 373 378 374
f 378 372 374
f 383 287 381
f 375 383 381
f 375 309 291
f 375 291 383
f 373 374 372
f 291 290 289
f 291 292 290
f 215 217 384
f 385 215 384
f 215 385 305
f 215 317 217
f 217 218 384
f 384 391 385
f 385 389 305
f 389 386 305
f 388 387 303
f 303 387 304
f 388 303 389
f 391 389 385
f 388 390 392
f 388 389 390
f 393 388 392
f 392 390 394
f 222 394 390
f 392 394 395
f 406 398 397
f 406 407 398
f 397 398 226
f 396 226 398
f 398 407 399
f 400 222 396
f 399 400 396
f 396 398 399
f 401 402 395
f 402 401 403
f 430 402 407
f 407 404 430
f 404 407 405
f 406 436 405
f 407 406 405
f 408 436 406
f 409 427 408
f 408 427 436
f 410 409 408
f 408 411 410
f 414 410 411
f 412 414 411
f 415 413 414
f 415 410 413
f 414 413 410
f 410 415 417
f 417 409 410
f 416 427 409
f 416 425 427
f 417 416 409
f 423 416 417
f 418 423 417
f 419 418 415
f 418 417 415
f 421 418 419
f 421 422 418
f 420 289 294
f 421 420 422
f 420 298 422
f 423 422 298
f 295 423 298
f 424 423 295
f 296 425 424
f 296 424 295
f 424 425 416
f 425 426 427
f 427 431 437
f 431 427 426
f 431 429 437
f 404 405 428
f 405 437 428
f 429 430 428
f 404 428 430
f 429 402 430
f 429 393 402
f 402 392 395
f 393 392 402
f 432 429 431
f 431 434 433
f 431 426 434
f 434 426 433
f 433 426 425
f 299 300 433
f 435 432 300
f 435 300 302
f 301 302 300
f 432 435 429
f 435 393 429
f 387 388 393
f 435 387 393
f 435 302 387
f 296 433 425
f 299 433 296
f 405 436 437
f 437 436 427
f 423 424 416
f 422 423 418
f 439 438 440
f 411 397 257
f 440 257 442
f 442 257 441
f 257 260 441
f 257 440 411
f 440 442 443
f 440 443 444
f 444 439 440
f 439 444 445
f 444 443 445
f 284 439 445
f 445 447 446
f 284 445 446
f 445 443 447
f 438 439 284
f 283 446 447
f 447 443 283
f 283 284 446
f 283 443 281
f 281 443 442
f 282 281 442
f 441 282 442
f 282 441 448
f 448 279 282
f 448 278 279
f 448 264 278
f 265 278 264
f 441 258 448
f 260 258 441
f 440 438 412
f 412 411 440
f 438 414 412
f 415 414 438
f 397 411 406
f 408 406 411
f 402 403 400
f 401 400 403
f 407 402 399
f 399 402 400
f 394 400 401
f 401 395 394
f 394 222 400
f 223 449 396
f 222 223 396
f 223 225 449
f 225 226 449
f 449 226 396
f 303 386 389
f 387 302 304
f 305 386 303
f 220 391 384
f 220 384 218
f 306 301 297
f 284 285 288
f 267 360 268
f 261 262 267
f 261 267 265
f 257 397 228
f 204 227 230
f 204 198 227
f 214 212 213
f 182 450 187
f 450 188 187
f 450 165 188
f 451 452 450
f 451 450 182
f 450 453 165
f 452 453 450
f 453 454 165
f 533 534 163
f 534 455 163
f 459 457 456
f 456 455 459
f 460 149 152
f 461 460 457
f 461 497 460
f 497 149 460
f 457 462 461
f 461 462 463
f 463 497 461
f 465 494 464
f 494 462 464
f 466 469 467
f 469 466 468
f 531 468 466
f 471 470 473
f 470 472 527
f 473 470 527
f 471 476 467
f 473 476 471
f 527 475 473
f 475 477 474
f 475 476 473
f 477 475 527
f 527 478 477
f 478 480 477
f 480 478 76
f 480 76 524
f 75 479 79
f 76 479 75
f 80 79 479
f 75 79 78
f 481 477 480
f 524 481 480
f 73 481 524
f 482 481 73
f 481 482 523
f 484 483 523
f 474 483 484
f 474 484 485
f 484 486 485
f 484 523 486
f 523 71 486
f 487 486 71
f 487 71 488
f 475 487 488
f 487 474 486
f 487 475 474
f 476 488 492
f 70 489 488
f 492 488 489
f 492 489 491
f 489 490 491
f 492 491 493
f 467 476 492
f 493 467 492
f 465 466 493
f 467 493 466
f 493 491 465
f 491 494 465
f 491 490 494
f 490 495 494
f 463 495 496
f 496 498 463
f 463 498 497
f 497 498 147
f 496 499 498
f 144 498 499
f 496 501 500
f 496 522 501
f 499 496 500
f 499 503 144
f 502 503 499
f 499 500 502
f 504 505 502
f 503 502 505
f 505 506 503
f 22 506 507
f 505 507 506
f 507 505 508
f 504 520 508
f 505 504 508
f 508 513 509
f 508 520 510
f 508 510 513
f 509 507 508
f 509 7 507
f 7 509 511
f 511 509 1
f 511 1 5
f 5 7 511
f 21 7 20
f 7 21 507
f 512 513 510
f 512 520 514
f 512 510 520
f 513 512 58
f 514 516 512
f 512 515 58
f 512 516 515
f 63 59 515
f 58 515 59
f 517 516 514
f 517 518 516
f 517 489 518
f 489 517 490
f 517 501 490
f 490 501 522
f 516 518 489
f 70 516 489
f 517 519 501
f 514 519 517
f 500 501 519
f 514 520 519
f 500 519 504
f 504 519 520
f 515 516 63
f 509 513 521
f 58 521 513
f 509 521 1
f 22 507 21
f 22 23 506
f 506 23 503
f 502 500 504
f 144 503 24
f 503 23 24
f 496 495 522
f 490 522 495
f 463 462 495
f 494 495 462
f 488 476 475
f 488 71 70
f 485 486 474
f 483 481 523
f 481 483 477
f 474 477 483
f 523 482 71
f 524 74 73
f 76 74 524
f 114 118 113
f 525 118 114
f 525 121 118
f 525 526 121
f 543 526 527
f 527 472 543
f 472 542 543
f 472 471 541
f 528 541 469
f 541 471 469
f 529 528 469
f 468 530 529
f 530 532 529
f 528 529 532
f 538 532 536
f 532 530 536
f 536 530 533
f 530 534 533
f 535 455 534
f 530 535 534
f 530 531 535
f 535 464 455
f 465 464 535
f 531 465 535
f 464 459 455
f 459 464 462
f 462 457 459
f 536 533 454
f 538 536 537
f 537 536 454
f 537 548 538
f 548 539 538
f 538 539 540
f 539 541 540
f 538 540 532
f 532 540 528
f 540 541 528
f 542 472 541
f 539 542 541
f 543 542 544
f 539 547 542
f 542 545 544
f 542 547 545
f 545 547 550
f 547 546 550
f 547 548 546
f 547 539 548
f 549 546 452
f 546 537 453
f 546 453 452
f 549 550 546
f 549 452 451
f 451 551 549
f 551 553 549
f 554 551 552
f 555 134 554
f 554 552 555
f 555 556 135
f 556 136 135
f 556 557 136
f 560 557 181
f 551 181 557
f 136 557 560
f 556 552 557
f 551 557 552
f 551 451 558
f 558 181 551
f 559 136 560
f 560 181 180
f 559 560 179
f 179 560 180
f 157 559 178
f 178 559 179
f 552 556 555
f 124 551 554
f 551 124 122
f 122 561 551
f 551 561 553
f 561 564 562
f 563 562 564
f 564 121 526
f 526 563 564
f 544 563 543
f 526 543 563
f 544 562 563
f 562 544 565
f 544 545 565
f 565 549 553
f 562 565 553
f 561 562 553
f 550 549 565
f 565 545 550
f 561 121 564
f 561 123 121
f 537 546 548
f 537 454 453
f 468 531 530
f 469 468 529
f 527 526 478
f 472 470 471
f 469 471 467
f 466 465 531
f 457 460 458
f 460 152 458
f 458 152 158
f 160 456 457
f 457 458 160
f 456 160 566
f 566 455 456
f 160 161 566
f 455 566 161
f 558 451 182
f 158 157 178
f 171 159 172
f 162 161 174
f 160 174 161
f 152 153 158
f 154 151 138
f 155 154 138
f 138 151 139
f 148 146 150
f 150 140 139
f 150 146 140
f 146 141 140
f 142 143 25
f 25 128 130
f 25 26 128
f 137 155 136
f 119 567 126
f 119 126 32
f 30 32 126
f 126 567 125
f 125 567 124
f 119 124 567
f 122 124 119
f 117 118 121
f 119 32 33
f 33 117 119
f 568 117 33
f 117 568 116
f 33 35 568
f 36 116 568
f 50 592 569
f 50 569 47
f 570 115 569
f 569 592 570
f 571 112 570
f 112 115 570
f 111 112 571
f 574 111 571
f 574 572 573
f 574 573 111
f 572 575 573
f 573 575 110
f 111 573 110
f 572 576 575
f 578 575 576
f 575 577 109
f 577 575 578
f 575 109 110
f 580 578 579
f 576 579 578
f 578 580 577
f 583 581 580
f 582 580 581
f 580 579 583
f 582 584 580
f 577 580 584
f 584 109 577
f 584 106 109
f 584 585 106
f 585 584 582
f 105 106 585
f 582 104 585
f 585 104 105
f 55 583 52
f 581 583 55
f 591 586 587
f 588 587 586
f 591 52 586
f 588 586 576
f 576 586 579
f 589 588 572
f 576 572 588
f 590 587 588
f 588 589 590
f 49 590 589
f 587 590 591
f 590 49 591
f 50 589 592
f 49 589 50
f 589 571 592
f 571 570 592
f 589 572 574
f 574 571 589
f 54 582 581
f 582 54 104
f 55 54 581
f 54 593 104
f 104 593 102
f 593 54 56
f 594 593 56
f 56 60 594
f 60 61 594
f 90 593 594
f 594 61 90
f 95 94 98
f 98 94 86
f 92 93 102
f 92 89 87
f 102 91 92
f 84 87 88
f 84 86 87
f 83 81 85
f 596 595 597
f 597 595 65
f 596 78 595
f 78 596 597
f 77 597 66
f 67 597 65
f 67 66 597
f 595 82 83
f 595 78 82
f 78 80 82
f 68 77 66
f 1 521 4
f 598 17 599
f 598 599 600
f 600 41 598
f 600 601 41
f 601 600 603
f 604 601 602
f 601 603 602
f 43 601 604
f 43 604 2
f 2 604 606
f 606 604 605
f 600 605 604
f 604 602 607
f 604 607 603
f 604 603 608
f 608 600 604
f 603 600 608
f 602 603 607
f 605 612 606
f 606 612 609
f 606 609 610
f 610 609 615
f 613 615 609
f 609 614 613
f 613 614 15
f 612 599 614
f 614 609 612
f 614 16 15
f 599 16 614
f 599 612 600
f 17 16 599
f 605 600 612
f 613 15 11
f 10 613 11
f 615 613 10
f 610 615 8
f 615 10 8
f 610 8 611
f 611 616 2
f 616 611 8
f 3 2 616
f 42 17 598
f 617 18 42
f 17 42 18
f 617 19 18
f 29 19 617
f 617 34 29
f 10 11 12
f 946 619 618
f 618 619 620
f 681 620 623
f 621 623 620
f 620 681 622
f 621 936 623
f 624 623 936
f 627 625 624
f 624 625 623
f 626 627 624
f 628 627 626
f 629 628 626
f 626 630 629
f 626 631 630
f 632 630 631
f 631 947 632
f 947 633 632
f 635 637 638
f 634 635 636
f 637 635 634
f 636 635 632
f 637 639 638
f 640 639 641
f 639 640 638
f 638 640 635
f 629 632 640
f 635 640 632
f 628 641 642
f 628 640 641
f 641 637 644
f 641 639 637
f 645 644 637
f 634 645 637
f 647 645 634
f 647 646 645
f 648 646 647
f 648 647 649
f 648 649 650
f 649 651 650
f 653 652 650
f 650 651 653
f 651 958 654
f 654 653 651
f 657 656 654
f 653 654 656
f 653 656 655
f 657 659 656
f 658 703 659
f 703 660 659
f 652 659 660
f 660 650 652
f 660 648 650
f 660 661 665
f 665 667 660
f 667 648 660
f 665 662 664
f 662 665 663
f 665 661 663
f 666 665 664
f 666 667 665
f 666 668 667
f 669 667 668
f 667 669 648
f 669 671 670
f 668 671 669
f 998 670 671
f 671 668 998
f 998 668 672
f 675 674 673
f 675 672 674
f 998 672 675
f 677 676 627
f 628 677 627
f 675 677 642
f 642 677 628
f 675 676 677
f 676 678 679
f 676 679 625
f 625 679 680
f 680 681 625
f 682 994 990
f 990 683 997
f 684 990 997
f 682 990 684
f 685 684 997
f 622 682 684
f 681 682 622
f 689 687 686
f 688 687 689
f 691 689 685
f 690 691 685
f 692 691 694
f 691 692 689
f 694 688 692
f 688 689 692
f 694 693 688
f 694 691 695
f 694 695 697
f 691 996 695
f 996 696 695
f 696 698 697
f 698 708 784
f 697 698 784
f 708 698 700
f 698 699 700
f 708 700 707
f 700 664 701
f 662 704 701
f 662 702 704
f 663 702 662
f 703 663 661
f 658 663 703
f 703 661 660
f 658 702 663
f 704 702 658
f 706 705 701
f 706 701 704
f 705 700 701
f 706 707 705
f 705 707 700
f 707 709 708
f 709 710 708
f 710 712 784
f 784 708 710
f 710 709 713
f 710 713 711
f 711 712 710
f 714 713 987
f 717 900 901
f 901 728 718
f 718 719 720
f 717 718 720
f 720 722 721
f 723 722 720
f 723 724 722
f 725 726 723
f 728 726 727
f 725 727 726
f 728 729 726
f 731 730 729
f 730 726 729
f 733 731 894
f 735 730 731
f 735 731 732
f 732 731 733
f 736 735 733
f 736 734 735
f 735 732 733
f 736 733 737
f 738 737 892
f 736 737 738
f 738 739 736
f 749 739 740
f 744 740 739
f 741 744 739
f 742 743 741
f 741 743 744
f 743 745 744
f 746 748 750
f 749 740 750
f 750 740 745
f 745 746 750
f 750 751 749
f 753 752 751
f 751 750 753
f 753 754 752
f 752 754 724
f 756 755 754
f 754 755 777
f 756 754 748
f 748 754 753
f 748 746 756
f 746 747 756
f 758 756 757
f 757 747 758
f 757 756 747
f 758 747 759
f 756 758 760
f 756 760 755
f 761 760 758
f 758 759 761
f 762 761 759
f 764 762 759
f 765 767 764
f 764 766 765
f 766 764 759
f 767 768 764
f 769 975 768
f 768 975 976
f 771 968 770
f 772 773 769
f 772 774 773
f 774 792 775
f 776 775 792
f 775 776 977
f 780 777 776
f 776 792 778
f 778 779 776
f 776 779 780
f 780 779 781
f 714 779 715
f 714 781 779
f 712 715 782
f 782 715 779
f 779 778 782
f 778 712 782
f 778 783 712
f 784 712 783
f 784 783 785
f 784 786 697
f 785 786 784
f 785 787 786
f 788 787 785
f 790 787 788
f 789 787 790
f 778 790 783
f 778 791 790
f 783 790 788
f 785 783 788
f 778 792 791
f 793 791 792
f 795 791 793
f 791 795 790
f 795 793 794
f 795 789 790
f 873 795 794
f 787 795 693
f 787 789 795
f 693 796 688
f 687 688 796
f 803 802 805
f 802 806 805
f 805 806 809
f 809 803 805
f 812 859 813
f 814 813 859
f 814 924 813
f 821 818 817
f 817 818 815
f 818 816 815
f 819 816 818
f 818 821 903
f 818 903 819
f 821 824 820
f 821 820 903
f 823 824 821
f 817 823 821
f 822 823 817
f 823 822 833
f 823 833 824
f 824 833 826
f 826 820 824
f 825 827 900
f 825 828 827
f 896 827 828
f 830 829 828
f 830 836 829
f 825 832 830
f 825 831 832
f 826 833 831
f 826 831 825
f 831 834 832
f 833 834 831
f 833 822 834
f 835 834 822
f 835 836 834
f 832 834 836
f 838 836 835
f 838 894 836
f 894 731 836
f 836 731 829
f 839 894 838
f 838 835 837
f 838 842 841
f 838 841 840
f 844 837 843
f 842 837 844
f 844 843 850
f 845 846 847
f 845 847 848
f 844 849 845
f 849 846 845
f 860 846 849
f 850 849 844
f 850 851 861
f 861 851 852
f 851 843 853
f 854 851 853
f 853 843 854
f 835 855 854
f 855 852 854
f 855 835 822
f 855 857 852
f 817 856 857
f 817 857 855
f 858 857 856
f 861 857 858
f 852 857 861
f 859 860 858
f 858 814 859
f 856 814 858
f 861 858 862
f 863 862 849
f 861 862 863
f 849 850 863
f 863 850 861
f 858 860 862
f 860 849 862
f 856 815 814
f 815 856 817
f 855 822 817
f 854 852 851
f 854 837 835
f 854 843 837
f 850 843 851
f 869 864 865
f 869 866 864
f 876 871 874
f 875 765 877
f 765 875 768
f 877 765 766
f 877 766 742
f 766 763 743
f 742 766 743
f 864 877 886
f 886 877 742
f 875 877 864
f 870 868 879
f 879 868 880
f 880 882 881
f 880 868 882
f 881 884 883
f 881 885 884
f 881 882 885
f 887 864 886
f 844 887 842
f 886 841 887
f 842 887 841
f 886 888 841
f 888 890 841
f 841 890 839
f 893 890 889
f 889 891 893
f 891 892 893
f 893 892 894
f 894 892 737
f 894 839 893
f 738 892 891
f 893 839 890
f 895 891 889
f 895 738 891
f 738 895 739
f 888 741 895
f 895 889 890
f 895 741 739
f 890 888 895
f 839 840 841
f 838 840 839
f 888 742 741
f 886 742 888
f 876 874 875
f 837 842 838
f 832 836 830
f 830 828 825
f 828 829 896
f 829 731 896
f 729 899 896
f 731 729 896
f 897 896 899
f 896 897 827
f 729 898 899
f 898 901 899
f 899 901 900
f 901 898 728
f 897 899 900
f 898 729 728
f 900 827 897
f 904 820 826
f 904 903 820
f 903 904 819
f 904 905 819
f 905 816 819
f 963 816 905
f 963 906 816
f 907 908 906
f 906 909 907
f 908 910 906
f 906 910 816
f 909 906 963
f 908 911 910
f 912 910 911
f 911 908 912
f 913 912 949
f 915 949 948
f 916 949 915
f 916 913 949
f 917 916 915
f 919 916 917
f 919 913 916
f 921 920 918
f 922 914 920
f 919 920 914
f 914 922 923
f 950 925 922
f 925 912 922
f 913 922 912
f 923 922 913
f 925 910 912
f 816 910 925
f 816 925 924
f 815 816 924
f 927 924 926
f 927 813 924
f 926 924 925
f 927 926 928
f 813 927 928
f 929 928 921
f 812 813 928
f 928 929 812
f 929 918 930
f 929 921 918
f 935 931 932
f 935 932 933
f 936 621 917
f 940 939 941
f 940 938 939
f 941 939 942
f 945 942 943
f 941 942 944
f 944 942 945
f 940 937 938
f 936 947 631
f 915 947 936
f 947 915 948
f 948 633 947
f 949 636 948
f 949 908 636
f 632 633 948
f 632 948 636
f 915 936 917
f 930 918 934
f 922 921 950
f 951 950 921
f 921 928 951
f 926 950 951
f 928 926 951
f 926 925 950
f 913 914 923
f 920 921 922
f 914 913 919
f 908 949 912
f 907 909 952
f 952 909 964
f 952 964 961
f 961 907 952
f 953 907 961
f 907 953 965
f 954 965 953
f 954 955 965
f 956 954 953
f 957 956 953
f 957 902 956
f 959 902 958
f 902 959 960
f 960 956 902
f 958 651 959
f 654 958 902
f 960 959 955
f 647 955 959
f 649 647 959
f 959 651 649
f 960 955 954
f 954 956 960
f 957 953 961
f 964 909 962
f 962 909 963
f 963 905 904
f 962 963 904
f 961 964 962
f 647 965 955
f 634 636 965
f 965 636 908
f 965 908 907
f 647 634 965
f 815 924 814
f 787 693 786
f 794 771 873
f 794 793 966
f 967 966 793
f 793 774 967
f 793 792 774
f 966 967 968
f 968 967 772
f 968 794 966
f 771 794 968
f 694 786 693
f 694 697 786
f 780 781 969
f 971 970 781
f 721 973 971
f 721 972 973
f 721 722 972
f 724 972 722
f 754 777 972
f 974 972 777
f 724 754 972
f 973 972 974
f 777 969 974
f 970 974 969
f 969 781 970
f 971 974 970
f 973 974 971
f 969 777 780
f 975 776 755
f 777 755 776
f 776 975 977
f 755 976 975
f 762 976 755
f 768 976 762
f 762 764 768
f 762 755 760
f 760 761 762
f 975 774 977
f 774 975 773
f 775 977 774
f 772 967 774
f 769 773 975
f 767 765 768
f 759 763 766
f 763 759 978
f 745 763 978
f 745 743 763
f 759 745 978
f 745 759 747
f 752 724 723
f 748 753 750
f 730 752 726
f 979 752 730
f 751 752 979
f 726 752 723
f 749 980 981
f 749 751 980
f 980 979 981
f 749 981 982
f 983 981 979
f 982 981 983
f 982 983 736
f 983 735 734
f 736 983 734
f 983 730 735
f 979 730 983
f 980 751 979
f 745 747 746
f 744 745 740
f 733 894 737
f 728 727 985
f 727 725 984
f 727 984 985
f 984 718 985
f 985 718 728
f 986 719 984
f 984 725 986
f 984 719 718
f 725 719 986
f 720 725 723
f 725 720 719
f 657 654 716
f 714 715 711
f 715 712 711
f 714 711 713
f 713 709 987
f 987 707 706
f 987 709 707
f 701 664 662
f 699 666 664
f 699 664 700
f 995 666 699
f 995 699 698
f 995 991 666
f 989 995 988
f 989 991 995
f 990 994 995
f 989 678 673
f 678 676 675
f 673 678 675
f 989 679 678
f 680 679 988
f 988 679 993
f 679 989 993
f 989 988 993
f 994 992 988
f 988 992 682
f 682 992 994
f 988 995 994
f 680 988 681
f 681 988 682
f 989 673 991
f 673 674 991
f 666 991 674
f 995 683 990
f 696 683 995
f 995 698 696
f 696 697 695
f 996 997 683
f 997 996 690
f 683 696 996
f 690 996 691
f 685 997 690
f 681 623 625
f 627 676 625
f 642 999 998
f 642 1001 999
f 642 1000 1001
f 648 1000 646
f 648 1001 1000
f 648 669 1001
f 999 1001 669
f 999 669 670
f 998 999 670
f 643 1002 1000
f 646 1000 1002
f 643 1000 642
f 644 645 1002
f 644 1002 643
f 646 1002 645
f 666 674 672
f 666 672 668
f 659 652 1004
f 1003 656 659
f 1003 659 1004
f 652 1003 1004
f 655 656 1003
f 1003 653 655
f 652 653 1003
f 628 629 640
f 630 632 629
f 626 624 631
f 631 624 936
