v 0.010472 0.010317 0.015342
v 0.010488 0.010317 0.047129
v 0.026455 0.010349 0.031201
v 0.032017 0.010312 0.036872
v 0.029144 0.012049 0.032672
v 0.023446 0.012117 0.026621
v 0.03711 0.011881 0.032571
v 0.042706 0.010317 0.022655
v 0.037275 0.010299 0.031603
v 0.03712 0.011089 0.03245
v 0.034056 0.012188 0.036376
v 0.036225 0.037516 0.034518
v 0.034605 0.037517 0.03601
v 0.03084 0.037517 0.037424
v 0.03084 0.017117 0.037424
v 0.023364 0.037517 0.042223
v 0.013963 0.037499 0.046052
v 0.005626 0.037517 0.047795
v 0.047662 0.037517 -0.00808
v 0.047673 0.037517 0.007712
v 0.045746 0.037517 -0.015814
v 0.04261 0.037517 -0.023137
v 0.038311 0.037517 -0.029846
v 0.04261 0.010317 -0.023137
v 0.037108 0.012051 -0.033006
v 0.022931 0.011112 -0.027176
v 0.024611 0.011997 -0.028635
v 0.03277 0.012117 -0.02917
v 0.031871 0.012049 -0.027919
v 0.037112 0.011429 -0.032787
v 0.032826 0.011099 -0.028474
v 0.03464 0.011841 -0.030379
v 0.028394 0.01189 -0.024166
v 0.025059 0.012117 -0.021459
v 0.032017 0.010307 -0.03717
v 0.020338 0.010317 -0.044002
v 0.010472 0.010377 -0.015424
v 0.010495 0.010317 -0.047402
v 0.010204 0.017166 -0.020948
v 0.010283 0.017055 -0.047338
v 0.009472 0.017898 -0.037289
v 0.008472 0.018166 -0.020948
v 0.009472 0.017898 -0.0090635
v -0.02548 0.018166 -0.04099
v -0.016232 0.018166 -0.045642
v 0.008472 0.018166 0.002821
v 0.010472 0.016166 -0.016491
v 0.010472 0.016166 -0.003121
v -0.024706 0.018166 0.041165
v -0.036736 0.018166 0.03252
v -0.048199 0.018166 0.026769
v -0.036729 0.037517 0.032523
v -0.017649 0.037517 0.044672
v -0.002269 0.037517 0.048036
v -0.024722 0.037517 0.041157
v -0.010097 0.037517 0.046985
v -0.015657 0.018166 0.045498
v 0.009472 0.017898 0.020647
v 0.008472 0.018166 0.02659
v 0.010472 0.016166 0.014705
v 0.010204 0.017166 0.011734
v 0.010472 0.016166 0.029561
v 0.009472 0.017898 0.038474
v 0.0085452 0.018181 0.047468
v 0.010341 0.016945 0.047025
v 0.020773 0.010317 0.0435
v 0.032957 0.011976 0.036689
v 0.027313 0.011866 0.031098
v 0.035606 0.012117 0.035185
v 0.032796 0.011276 0.036717
v -0.002269 0.018166 0.048036
v 0.014741 0.012117 0.01084
v 0.010472 0.010322 0.0049281
v 0.010472 0.011096 0.0058028
v 0.018928 0.010369 0.013307
v 0.031725 0.010317 0.00355
v 0.027959 0.011048 0.002926
v 0.022773 0.011866 0.002783
v 0.025375 0.012066 -0.0028387
v 0.032213 0.010993 -0.003251
v 0.02087 0.010317 -0.003847
v 0.021815 0.010993 -0.003251
v 0.0098463 0.010186 -0.0040527
v 0.010472 0.011043 -0.0032189
v 0.010472 0.010361 -0.0053336
v 0.010472 0.011995 -0.0030615
v 0.018602 0.011753 -0.003107
v 0.010472 0.012001 0.0027541
v 0.010472 0.011164 0.0028829
v 0.010472 0.010328 0.0035054
v 0.010472 0.012031 0.0061006
v 0.018751 0.012066 -0.0028387
v 0.010472 0.012044 -0.0064218
v 0.012454 0.012117 -0.01593
v 0.012009 0.011944 -0.016041
v 0.019804 0.011821 -0.02393
v 0.018968 0.012076 -0.022741
v 0.010472 0.011687 -0.0061967
v 0.01595 0.011059 -0.01158
v 0.020264 0.011998 -0.016046
v 0.027605 0.010317 -0.022311
v 0.045746 0.010317 -0.015814
v 0.04831 0.010307 -0.00386
v 0.042171 0.012066 0.0025385
v 0.048287 0.011961 0.0027863
v 0.042965 0.011167 0.002907
v 0.048312 0.012027 -0.0030534
v 0.035884 0.011875 -0.0030466
v 0.033323 0.011695 -0.0031175
v 0.033418 0.012057 0.0025698
v 0.040747 0.01178 0.0027998
v 0.028771 0.011718 0.0028165
v 0.018042 0.012083 0.002476
v 0.047782 0.010321 0.0072468
v 0.048247 0.010484 0.0032709
v 0.048278 0.011113 -0.0031897
v 0.048421 0.037514 -0.00014711
v 0.04579 0.010317 0.015384
v 0.038457 0.037517 0.029314
v 0.045025 0.037517 0.017768
v 0.037401 0.010263 -0.031735
v 0.020579 0.011838 -0.024692
v 0.017747 0.012117 -0.021223
v 0.010472 0.011491 -0.01466
v 0.010472 0.012041 -0.014457
v 0.015267 0.011893 0.010726
v 0.02878 0.011919 0.024254
v 0.021498 0.011087 0.016836
v 0.019956 0.011972 0.015523
v 0.01868 0.012087 0.014512
v 0.022194 0.012117 0.018293
v 0.018248 0.01208 0.021711
v 0.025779 0.012119 0.022015
v 0.036945 0.01214 0.033336
v 0.025395 0.012049 0.028923
v 0.028082 0.011186 0.03201
v 0.021553 0.011866 0.025338
v 0.010473 0.012066 0.01415
v 0.019137 0.011051 0.023091
v 0.010473 0.011165 0.014397
v 0.012093 0.011946 0.015827
v -0.048755 0.037517 0.026339
v -0.052988 0.018166 0.020298
v -0.056883 0.018166 0.00075859
v -0.055098 0.018166 0.013656
v -0.052988 0.037517 0.020298
v -0.056169 0.037517 0.0084802
v -0.056227 0.037517 -0.008096
v -0.056858 0.037517 -0.00015
v -0.055809 0.018166 -0.011238
v -0.037369 0.018166 -0.032415
v -0.045799 0.018166 -0.028615
v -0.048358 0.037517 -0.02694
v -0.051597 0.037517 -0.023259
v -0.054582 0.037517 -0.015894
v -0.051597 0.018166 -0.023259
v -0.049028 0.018166 -0.026305
v -0.037159 0.037517 -0.032536
v -0.02548 0.037517 -0.04099
v -0.01841 0.037517 -0.044661
v -0.010832 0.037517 -0.047119
v -0.002952 0.037517 -0.048296
v 0.005013 0.037517 -0.048161
v 0.013357 0.037503 -0.046531
v 0.020338 0.037517 -0.044002
v 0.030575 0.017117 -0.037857
v 0.032951 0.011965 -0.036989
v 0.032788 0.011138 -0.03702
v 0.027279 0.010317 -0.040093
v 0.034139 0.012179 -0.03668
v 0.035926 0.010317 -0.035179
v 0.034308 0.037517 -0.03648
v 0.035897 0.012118 -0.035231
v 0.030676 0.037517 -0.037847
v 0.036037 0.037517 -0.035073
v 0.0051857 0.018167 -0.048157
v 0.0089642 0.018096 -0.047604
v -0.002952 0.018166 -0.048296
v -0.006431 0.016721 0.047018
v -0.011733 0.017704 0.045307
v -0.012357 0.016738 0.046213
v -0.011403 0.014629 0.047257
v -0.012161 0.014551 0.047138
v -0.012327 0.014533 0.04711
v -0.012355 0.01453 0.047106
v -0.005938 0.014295 0.047994
v -0.012623 0.0145 0.04706
v -0.012356 0.01453 0.047106
v -0.009806 0.014785 0.047479
v -0.006517 0.015155 0.047811
v -0.006454 0.01509 0.047835
v -0.006493 0.015157 0.047813
v -0.005956 0.015134 0.047876
v -0.004082 0.015291 0.048007
v -0.000273 0.01568 0.048106
v -0.01147 0.009305 0.047938
v -0.00578 0.006791 0.048588
v -0.012851 0.014468 0.047021
v -0.037969 0.011862 0.037934
v -0.03072 0.0064092 0.042785
v -0.019256 0.014685 0.04545
v -0.024448 0.015021 0.043572
v -0.01242 0.014811 0.04707
v -0.01278 0.014496 0.047033
v -0.012699 0.01449 0.047047
v -0.012597 0.014503 0.047065
v -0.012502 0.014514 0.047081
v -0.012433 0.014522 0.047093
v -0.012393 0.014526 0.0471
v -0.01236 0.01453 0.047105
v -0.012616 0.0145 0.047061
v -0.012621 0.0145 0.04706
v -0.02193 0.016588 0.043844
v -0.040225 0.016751 0.034615
v -0.02555 0.017738 0.0408
v -0.041345 0.01521 0.034869
v -0.053886 0.014815 0.027349
v -0.054444 0.010136 0.029165
v -0.061317 0.0090243 0.026835
v -0.061316 -0.000683 0.028553
v -0.061316 -0.007448 0.027481
v -0.061316 0.012081 -0.025537
v -0.061283 0.0040656 -0.0016069
v -0.061316 -0.000683 -0.028847
v -0.061316 -0.007448 -0.027775
v -0.061317 0.0053139 -0.028036
v -0.054444 0.010144 -0.029456
v -0.047764 0.015279 -0.03124
v -0.061303 0.01809 -0.019861
v -0.056075 0.016696 -0.025262
v -0.061317 0.017026 -0.022481
v -0.054304 0.018156 -0.0083749
v -0.046133 0.018227 -0.018083
v -0.04659 0.018201 -0.008523
v -0.045419 0.018249 -0.0029998
v -0.04588 0.018222 0.0062069
v -0.046188 0.018542 0.011429
v -0.053162 0.018151 0.008778
v -0.05331 0.01776 0.0073283
v -0.039797 0.018166 0.031296
v -0.046444 0.018166 0.018116
v -0.056517 0.016811 0.024611
v -0.061317 0.017025 0.022187
v -0.061313 0.018127 0.019358
v -0.042697 0.018368 0.024178
v -0.040158 0.018387 0.026733
v -0.044076 0.018875 0.020924
v -0.045732 0.018623 0.017131
v -0.04592 0.019466 0.015345
v -0.046272 0.019387 0.013061
v -0.04609 0.019448 0.012475
v -0.045927 0.01925 0.010949
v -0.045762 0.019166 0.010104
v -0.045632 0.019166 0.009379
v -0.045512 0.019166 0.008653
v -0.045473 0.019187 0.0083746
v -0.045379 0.019466 0.0091159
v -0.045098 0.019466 0.007201
v -0.045007 0.019466 0.006476
v -0.044926 0.019466 0.005753
v -0.045159 0.019357 0.0063652
v -0.044739 0.019393 0.00054523
v -0.044843 0.018902 0.00024817
v -0.044689 0.019457 0.001912
v -0.036054 0.01936 -0.0071686
v -0.036424 0.01944 -0.0073343
v -0.034757 0.012528 -0.0069043
v -0.035666 0.017962 -0.0068538
v -0.029962 0.017812 -0.00014693
v -0.029395 0.017719 -0.0055663
v -0.029605 0.017858 -0.0057813
v -0.03136 0.012486 -0.0062834
v -0.03115 0.011593 -0.0061459
v -0.032057 0.011129 -0.0063099
v -0.034728 0.010542 -0.0050618
v -0.032537 0.010905 -0.0084117
v -0.029749 0.011969 -0.0034148
v -0.048316 0.010376 -0.0052794
v -0.047487 0.010224 -0.0089356
v -0.031261 0.010826 -0.012673
v -0.039304 0.010426 -0.027792
v -0.041551 0.005379 -0.022912
v -0.04496 -0.00154 -0.016053
v -0.044958 0.005421 -0.015978
v -0.04299 0.010313 -0.022194
v -0.038398 0.00038531 -0.031111
v -0.046588 -0.011349 -0.014171
v -0.04725 -0.0095093 -0.011828
v -0.051285 -0.01144 -0.013765
v -0.052335 -0.0090193 -0.0081505
v -0.048367 -0.0082089 -0.0078748
v -0.051598 -0.0079643 -0.0074879
v -0.047816 -0.0079646 -0.0084143
v -0.047968 0.010105 -0.0082052
v -0.048051 -0.0088238 -0.0089855
v -0.045352 0.0103 -0.016588
v -0.048545 0.010304 -0.0072791
v -0.049316 0.011529 -0.00756
v -0.048923 0.010047 -0.0075598
v -0.049316 0.013084 -0.00756
v -0.049316 0.012331 -0.00756
v -0.052698 0.01718 -0.0074469
v -0.049163 0.017044 -0.0075619
v -0.053313 0.017144 -0.0068161
v -0.053188 0.006827 -0.006945
v -0.053176 0.0010586 -0.0068206
v -0.052428 -0.00019927 -0.0052425
v -0.052411 -0.0031896 -0.0045513
v -0.052332 -3.5726e-05 -0.0068561
v -0.051794 0.00017728 -0.007417
v -0.052743 0.0012977 -0.0073571
v -0.052198 -0.0083749 -0.0072024
v -0.052485 -0.0094733 -0.0064335
v -0.056177 -0.0098582 -0.0064047
v -0.056003 -0.0098442 -0.011272
v -0.056299 -0.010983 -0.01267
v -0.056284 -0.021205 -0.011454
v -0.051948 -0.02146 -0.0057073
v -0.056214 -0.020554 -0.0049753
v -0.056216 -0.014769 -0.0026035
v -0.05244 -0.014883 -0.0022399
v -0.052436 -0.020354 -0.0042448
v -0.047975 -0.021893 -0.0063439
v -0.047486 -0.022422 -0.0061339
v -0.047824 -0.022059 -0.00014727
v -0.047589 -0.022152 0.0059966
v -0.051447 -0.02166 0.0057154
v -0.052371 -0.020789 0.0043615
v -0.052316 -0.020622 -0.000147
v -0.052236 -0.021024 -0.0041518
v -0.052439 -0.015451 0.0019771
v -0.05244 -0.018397 -0.00284
v -0.052389 -0.0050915 -0.0026913
v -0.052468 -0.0050521 0.002375
v -0.058218 -0.0048456 -0.0023903
v -0.052418 -0.0057177 -0.00014706
v -0.05679 -0.004786 0.002222
v -0.052407 -0.0031685 0.0042769
v -0.060602 -0.002165 0.0041834
v -0.053402 0.0043012 -0.000147
v -0.053364 0.0011113 0.0046074
v -0.053453 0.0033923 0.0026627
v -0.061134 0.001911 0.0036193
v -0.056826 -0.00066351 0.0045906
v -0.061131 -9.4845e-05 0.004411
v -0.061152 -0.0031501 0.0037073
v -0.061011 -0.0046958 0.0020412
v -0.061048 -0.0052546 -6.5798e-05
v -0.061295 -0.0054503 0.0013161
v -0.061154 -0.0047281 -0.0022898
v -0.061143 -0.0032331 -0.0039438
v -0.060599 -0.0022381 -0.004448
v -0.05692 -0.00067789 -0.0048652
v -0.061159 -0.0007299 -0.0047195
v -0.061151 0.0014402 -0.0041928
v -0.060653 0.0022593 -0.0036428
v -0.053509 0.001349 -0.004707
v -0.053425 0.0035575 -0.0027955
v -0.053289 0.00096855 -0.0049933
v -0.061157 0.0033768 0.0019833
v -0.061041 0.0038906 -0.00032258
v -0.060989 0.0034256 -0.0021392
v -0.053305 0.017144 0.006515
v -0.052721 0.0013445 0.0070836
v -0.052592 0.016711 0.0071537
v -0.049161 0.010012 0.0072591
v -0.048796 0.010231 0.0071751
v -0.047947 0.010112 0.0079276
v -0.047557 0.010213 0.0086505
v -0.029669 0.010387 0.019704
v -0.045319 0.010275 0.016117
v -0.04311 0.010314 0.021879
v -0.041551 0.005379 0.022618
v -0.044271 0.0034577 0.016926
v -0.038398 0.00038696 0.030817
v -0.046587 -0.011349 0.013878
v -0.047228 -0.0094726 0.011549
v -0.047824 -0.0079216 0.0081418
v -0.05249 -0.0090962 0.0081727
v -0.048086 -0.0086908 0.0082118
v -0.052176 0.00019512 0.0069716
v -0.053176 0.0010584 0.0065262
v -0.052474 -0.00010712 0.0049229
v -0.052316 -0.0054 0.002576
v -0.052409 -0.010243 0.0046401
v -0.052228 -0.0085524 0.0069228
v -0.052434 -0.013107 0.0023908
v -0.05609 -0.011682 0.0035854
v -0.051881 -0.0078278 0.0070964
v -0.056109 -0.0098752 0.010958
v -0.051285 -0.01144 0.013472
v -0.056288 -0.0095081 0.0079636
v -0.056231 -0.0099268 0.0059923
v -0.056224 -0.01167 0.013284
v -0.048598 -0.013592 0.014803
v -0.056265 -0.013917 0.014401
v -0.056099 -0.016024 0.01475
v -0.049808 -0.018893 0.014201
v -0.045096 -0.015957 0.015503
v -0.047272 -0.021407 0.011833
v -0.031419 -0.016019 0.016186
v -0.032169 -0.019494 0.01492
v -0.03114 -0.015746 0.016628
v -0.033173 -0.015601 0.035085
v -0.038944 -0.015635 0.0284
v -0.041718 -0.015567 0.024334
v -0.04041 -0.015292 0.026647
v -0.040631 -0.015358 0.02629
v -0.040225 -0.015183 0.026944
v -0.03976 -0.015183 0.027625
v -0.038799 -0.015183 0.02896
v -0.039806 -0.015194 0.027572
v -0.038155 -0.015183 0.029805
v -0.042358 -0.015183 0.023456
v -0.041069 -0.015183 0.02564
v -0.041821 -0.015183 0.024397
v -0.041825 -0.015189 0.024401
v -0.040678 -0.015183 0.026254
v -0.042173 -0.015248 0.023777
v -0.042182 -0.015183 0.02377
v -0.042889 -0.015191 0.022491
v -0.042874 -0.015183 0.022502
v -0.043838 -0.015183 0.020566
v -0.043525 -0.015183 0.021219
v -0.045455 -0.015457 0.016643
v -0.043694 -0.015415 0.020806
v -0.044523 -0.015186 0.019054
v -0.045771 -0.015414 0.01577
v -0.046148 -0.01389 0.015147
v -0.04517 -0.015685 0.016302
v -0.035324 -0.0013111 0.036957
v -0.034547 -0.008394 0.036336
v -0.03518 0.005338 0.036595
v -0.029482 0.005446 0.041853
v -0.038198 0.011939 0.028928
v -0.03264 0.012017 0.035082
v -0.021646 0.012119 0.028627
v -0.0241 0.012037 0.041513
v -0.022627 0.007958 0.044384
v -0.015234 0.005574 0.045995
v -0.015161 0.011982 0.045857
v -0.013997 0.011829 0.04617
v -0.0027115 0.011736 0.046194
v -0.005871 -0.015612 0.04601
v -0.0036725 -0.015683 0.045765
v -0.0036401 -0.015683 0.035453
v -0.006253 -0.015683 0.035061
v -0.003044 -0.015881 0.035084
v 0.000213 -0.019158 0.03515
v 0.0072126 -0.015733 0.034638
v 0.0099835 -0.015802 0.036682
v 0.0086304 -0.015737 0.035034
v 0.0067227 -0.01872 0.034591
v 0.0065616 -0.019543 0.035505
v 0.006094 -0.019731 0.039341
v 0.000631 -0.02013 0.040668
v 0.0021325 -0.019335 0.035204
v -0.0046513 -0.019351 0.034825
v -0.001507 -0.019242 0.035108
v -0.004791 -0.019309 0.034794
v -0.0016449 -0.019281 0.035113
v -0.0067599 -0.019301 0.034456
v -0.0062879 -0.019813 0.034719
v -0.01004 -0.019302 0.033653
v -0.0076906 -0.015887 0.034351
v -0.012108 -0.015857 0.033039
v -0.016029 -0.01587 0.031319
v -0.021899 -0.015756 0.027691
v -0.024031 -0.016194 0.025552
v -0.025735 -0.020429 0.02383
v -0.022879 -0.020347 0.026716
v -0.027192 -0.021293 0.022422
v -0.018095 -0.01991 0.030136
v -0.021188 -0.020881 0.029511
v -0.021684 -0.01988 0.027621
v -0.014726 -0.019406 0.03188
v -0.013023 -0.020224 0.033095
v -0.020688 -0.016032 0.028333
v -0.028755 -0.022137 0.021921
v -0.031459 -0.023376 0.016446
v -0.033023 -0.024553 0.012465
v -0.038495 -0.023038 0.010942
v -0.038592 -0.026104 0.011075
v -0.038633 -0.025627 0.010936
v -0.038497 -0.023038 0.010942
v -0.038634 -0.025627 0.010935
v -0.044409 -0.027073 0.0095902
v -0.043709 -0.027337 0.010216
v -0.043853 -0.027414 0.010838
v -0.045699 -0.027842 0.009705
v -0.051356 -0.023063 0.017926
v -0.051644 -0.021742 0.020663
v -0.05087 -0.019877 0.024083
v -0.0543 -0.01713 0.02599
v -0.031518 -0.021174 0.027293
v -0.045101 -0.018109 0.030225
v -0.037911 -0.019986 0.029597
v -0.021111 -0.019852 0.037325
v -0.027177 -0.018641 0.040111
v -0.034117 -0.018262 0.036688
v -0.020163 -0.018734 0.044483
v -0.028074 -0.01777 0.041885
v -0.0085481 -0.020526 0.036603
v -0.012848 -0.01951 0.045592
v -0.00022748 -0.019326 0.046208
v -0.00016173 -0.019322 0.046215
v -0.000222 -0.019326 0.046207
v -0.00068999 -0.019136 0.046674
v 0.0081713 -0.018335 0.04702
v -0.0012054 -0.018333 0.04736
v 0.0075215 -0.018978 0.046072
v -0.000208 -0.019325 0.046207
v 0.00020638 -0.019309 0.046228
v 0.0063567 -0.019616 0.040944
v 0.00617 -0.019684 0.040228
v 0.0061684 -0.019685 0.04021
v 0.006165 -0.019687 0.040181
v 0.006167 -0.019686 0.0402
v 0.006156 -0.019693 0.040084
v 0.010049 -0.017477 0.036639
v 0.010183 -0.016717 0.036539
v 0.010172 -0.01602 0.046529
v 0.01015 -0.017341 0.046738
v 0.0099113 -0.017566 0.047147
v 0.0091442 -0.016272 0.04801
v 0.0099396 -0.015148 0.047835
v 0.010151 -0.0036672 0.046628
v 0.010082 -0.0006655 0.048321
v 0.009809 -0.0078667 0.046286
v 0.004823 -0.015306 0.046221
v -0.0011925 -0.015683 0.045765
v 0.0012417 -0.015731 0.035285
v 0.0016957 -0.015681 0.045773
v 0.0014201 -0.015521 0.046099
v 0.0043901 -0.015674 0.045796
v 0.00774 -0.015612 0.04601
v 0.0099118 -0.015674 0.046002
v 0.0099369 -0.015125 0.046292
v -0.0053851 0.011967 0.04594
v -0.01128 0.012048 0.034419
v -0.013806 0.016675 0.033056
v -0.019907 0.016767 0.029815
v -0.024224 0.016634 0.026335
v -0.022719 0.017707 0.029123
v -0.01423 0.017609 0.033808
v 0.0053827 0.017713 0.046166
v -0.0050143 0.017634 0.036579
v 0.006891 0.016243 0.047678
v 0.00093378 0.015377 0.048315
v 0.0048504 0.017263 0.047056
v -0.005256 -0.000683 0.048843
v 0.0083193 0.014088 0.048452
v 0.009649 -0.000682 0.049003
v 0.0098551 -0.00067507 0.049053
v 0.0084314 -3.4828e-05 0.049193
v 0.0095262 -0.007123 0.048711
v -0.0038039 -0.0079426 0.048507
v -0.012475 -0.000683 0.048315
v -0.012834 -0.017105 0.047573
v 0.0023953 -0.016093 0.047918
v -0.019637 -0.016522 0.046194
v -0.027187 -0.016191 0.043377
v -0.034208 -0.014407 0.040258
v -0.034062 -0.01676 0.039449
v -0.028736 -0.0086249 0.043663
v -0.052979 -0.0076839 0.030996
v -0.046919 -0.013767 0.033283
v -0.043576 -0.015859 0.034478
v -0.05606 -0.013988 0.027543
v -0.061317 -0.015694 0.0242
v -0.061316 -0.019429 0.02132
v -0.061313 -0.023476 0.017012
v -0.059417 -0.02544 0.013924
v -0.059542 -0.025769 0.01333
v -0.059433 -0.026733 0.01177
v -0.059542 -0.02577 0.01333
v -0.059534 -0.025731 0.013403
v -0.061222 -0.026868 0.011204
v -0.059673 -0.026184 0.01253
v -0.059576 -0.025874 0.013134
v -0.061316 -0.028629 0.005481
v -0.059813 -0.026751 0.011558
v -0.047132 -0.027559 0.010647
v -0.053244 -0.02898 0.007323
v -0.059406 -0.029018 0.007842
v -0.053657 -0.028994 0.007324
v -0.053719 -0.028996 0.007324
v -0.053548 -0.02899 0.007324
v -0.053701 -0.028996 0.007324
v -0.059684 -0.029148 0.0073433
v -0.059691 -0.02997 0.0057899
v -0.059809 -0.033059 0.0042396
v -0.059851 -0.037305 0.0041513
v -0.059702 -0.037762 0.0038223
v -0.048339 -0.037279 0.0042723
v -0.048323 -0.033449 0.0042578
v -0.048022 -0.029036 0.0065069
v -0.048475 -0.029608 0.005803
v -0.048119 -0.030831 0.0047244
v -0.059794 -0.031297 0.0047148
v -0.047496 -0.029 0.0057275
v -0.045697 -0.027245 0.0087974
v -0.047151 -0.028194 0.0069163
v -0.047674 -0.031268 0.0038401
v -0.047839 -0.037495 0.0036516
v -0.048424 -0.037846 0.0036925
v -0.048476 -0.038057 -0.00014684
v -0.048364 -0.037815 -0.0040648
v -0.059813 -0.038005 -0.00016489
v -0.059916 -0.029137 -0.000147
v -0.05996 -0.028309 0.0070769
v -0.059938 -0.028452 -0.0065535
v -0.061318 -0.029121 -0.003405
v -0.059915 -0.031827 -0.0043048
v -0.059691 -0.02997 -0.0060831
v -0.059713 -0.031321 -0.0050218
v -0.048184 -0.03281 -0.0045705
v -0.059717 -0.033062 -0.0045795
v -0.048119 -0.030831 -0.005018
v -0.048475 -0.029608 -0.006097
v -0.059812 -0.029135 -0.0075814
v -0.053719 -0.028996 -0.007618
v -0.053244 -0.02898 -0.007617
v -0.052786 -0.028292 -0.009537
v -0.059406 -0.029018 -0.008136
v -0.053548 -0.02899 -0.007618
v -0.053701 -0.028996 -0.007618
v -0.053657 -0.028994 -0.007618
v -0.059601 -0.027988 -0.0099915
v -0.059228 -0.027518 -0.010878
v -0.059417 -0.02544 -0.014218
v -0.051392 -0.023062 -0.018219
v -0.050874 -0.019878 -0.024373
v -0.051652 -0.021741 -0.020955
v -0.037829 -0.021348 -0.025492
v -0.035201 -0.022412 -0.021655
v -0.043906 -0.027475 -0.011036
v -0.03369 -0.025635 -0.013974
v -0.031193 -0.023397 -0.018677
v -0.0289 -0.022189 -0.022071
v -0.031761 -0.023546 -0.015835
v -0.032666 -0.022438 -0.012955
v -0.033244 -0.025402 -0.012735
v -0.033061 -0.022277 -0.012601
v -0.031481 -0.019954 -0.015665
v -0.031334 -0.019325 -0.015984
v -0.027191 -0.021188 -0.022658
v -0.029928 -0.021885 -0.018741
v -0.025904 -0.020439 -0.023934
v -0.021194 -0.020872 -0.029727
v -0.025842 -0.021432 -0.026904
v -0.030629 -0.020092 -0.032603
v -0.040829 -0.019942 -0.028706
v -0.0451 -0.01811 -0.030518
v -0.043563 -0.01586 -0.034779
v -0.034117 -0.018262 -0.03698
v -0.027177 -0.018641 -0.040404
v -0.020163 -0.018734 -0.044777
v -0.019213 -0.019773 -0.039297
v -0.0040397 -0.020574 -0.036768
v -3.1284e-05 -0.019318 -0.04652
v 0.000631 -0.02013 -0.040961
v -0.012842 -0.019418 -0.046259
v -0.028074 -0.01777 -0.04218
v -0.026936 -0.015736 -0.04396
v -0.034419 -0.013699 -0.040656
v -0.03425 7.5607e-06 -0.041837
v -0.027011 0.00024355 -0.04513
v -0.019657 -0.016518 -0.046483
v -0.012534 0.003393 -0.048474
v -0.012475 -0.000683 -0.048609
v -0.012423 -0.000683 -0.048615
v -0.005256 -0.000683 -0.049137
v -0.005617 -0.000683 -0.049119
v -0.0032841 0.00066801 -0.049335
v -0.011471 0.0093025 -0.048232
v -0.004082 0.015291 -0.048301
v -0.005938 0.014295 -0.048288
v -0.005956 0.015134 -0.04817
v -0.006493 0.015157 -0.048107
v -0.000273 0.01568 -0.0484
v -0.006431 0.016721 -0.047312
v 0.0047342 0.017361 -0.047254
v 0.00091844 0.015374 -0.048609
v 0.0069181 0.016242 -0.047953
v 0.0069771 0.015116 -0.048626
v 0.0096628 0.0068323 -0.049145
v 0.0094902 0.013311 -0.048777
v 0.010157 0.0139 -0.047593
v 0.010102 -0.00067421 -0.048959
v 0.009814 -0.000679 -0.049174
v -0.0059506 -0.013832 -0.048266
v 0.0094465 -0.0068484 -0.049059
v 0.010157 -0.000666 -0.048626
v 0.010128 -0.0057258 -0.048595
v 0.0099172 -0.0073484 -0.046643
v 0.0098715 -0.00044637 -0.046597
v 0.010111 -0.0003315 -0.046837
v -0.000281 -0.015183 -0.046547
v -0.0013748 0.011727 -0.046474
v -0.005871 -0.015612 -0.046304
v -0.00654 -0.015683 -0.046059
v -0.007026 -0.015683 -0.046059
v -0.007269 -0.015683 -0.046059
v -0.005932 -0.015683 -0.046059
v -0.006266 -0.015683 -0.046059
v -0.006783 -0.015683 -0.046059
v -0.004413 -0.015521 -0.046393
v -0.0056587 -0.015683 -0.046059
v -0.005871 -0.015683 -0.046047
v -0.005993 -0.015683 -0.046047
v -0.015075 -0.015683 -0.045815
v -0.006114 -0.015683 -0.046047
v -0.006236 -0.015683 -0.046047
v -0.006357 -0.015683 -0.046047
v -0.006479 -0.015683 -0.046047
v -0.006601 -0.015683 -0.046047
v -0.006722 -0.015683 -0.046047
v -0.006844 -0.015683 -0.046047
v -0.006965 -0.015683 -0.046047
v -0.007087 -0.015683 -0.046047
v -0.007208 -0.015683 -0.046047
v -0.00733 -0.015683 -0.046047
v -0.007451 -0.015683 -0.046047
v -0.007512 -0.015683 -0.046059
v -0.007573 -0.015683 -0.046047
v -0.007694 -0.015683 -0.046047
v -0.007755 -0.015683 -0.046059
v -0.007816 -0.015683 -0.046047
v -0.007998 -0.015683 -0.046059
v -0.007937 -0.015683 -0.046047
v -0.008059 -0.015683 -0.046047
v -0.00818 -0.015683 -0.046047
v -0.008241 -0.015683 -0.046059
v -0.008302 -0.015683 -0.046047
v -0.008423 -0.015683 -0.046047
v -0.008545 -0.015683 -0.046047
v -0.008484 -0.015683 -0.046059
v -0.008667 -0.015683 -0.046047
v -0.0087275 -0.015683 -0.046059
v -0.008788 -0.015683 -0.046047
v -0.00891 -0.015683 -0.046047
v -0.0094868 -0.015648 -0.046181
v -0.009031 -0.015683 -0.046047
v -0.009153 -0.015683 -0.046047
v -0.009274 -0.015683 -0.046047
v -0.011224 -0.015683 -0.046059
v -0.0094565 -0.015683 -0.046059
v -0.0081804 -0.015459 -0.046409
v -0.022037 -0.008448 -0.044556
v -0.027012 -0.015183 -0.040486
v -0.030034 -0.0030352 -0.041931
v -0.022625 -0.001421 -0.045041
v -0.021088 -0.015183 -0.043901
v -0.018111 -0.015363 -0.045229
v -0.019798 -0.015183 -0.044505
v -0.022011 -0.015183 -0.04344
v -0.020982 -0.015196 -0.043963
v -0.023456 -0.015183 -0.042668
v -0.022736 -0.015183 -0.04306
v -0.022419 -0.015538 -0.043146
v -0.025842 -0.015683 -0.040709
v -0.025582 -0.01558 -0.041216
v -0.027005 -0.015445 -0.04042
v -0.02796 -0.015205 -0.039839
v -0.028785 -0.015502 -0.039114
v -0.030851 -0.015591 -0.037447
v -0.029624 -0.015183 -0.038596
v -0.030271 -0.015183 -0.038086
v -0.030907 -0.015183 -0.037566
v -0.032933 -0.015183 -0.035788
v -0.032151 -0.015183 -0.036498
v -0.031534 -0.015183 -0.037037
v -0.032762 -0.015183 -0.035946
v -0.032472 -0.015505 -0.036097
v -0.035429 -0.015537 -0.033164
v -0.037279 -0.015183 -0.031188
v -0.036752 -0.015183 -0.031815
v -0.036213 -0.015183 -0.032433
v -0.035104 -0.015183 -0.033642
v -0.035664 -0.015183 -0.033042
v -0.038155 -0.015183 -0.030099
v -0.038799 -0.015183 -0.029254
v -0.03976 -0.015183 -0.027919
v -0.037797 -0.015183 -0.030553
v -0.042358 -0.015183 -0.02375
v -0.034547 -0.008394 -0.03663
v -0.038303 -0.015183 -0.029908
v -0.038437 -0.015512 -0.029625
v -0.039285 -0.015183 -0.028591
v -0.040225 -0.015183 -0.027238
v -0.042157 -0.015433 -0.024021
v -0.041821 -0.015183 -0.024691
v -0.041693 -0.015193 -0.02492
v -0.041069 -0.015183 -0.025933
v -0.040678 -0.015183 -0.026548
v -0.042182 -0.015183 -0.024064
v -0.042533 -0.015183 -0.023432
v -0.043204 -0.015183 -0.022156
v -0.042874 -0.015183 -0.022796
v -0.043838 -0.015183 -0.02086
v -0.043525 -0.015183 -0.021512
v -0.043651 -0.01551 -0.021135
v -0.044977 -0.015336 -0.018251
v -0.045916 -0.015266 -0.015842
v -0.045201 -0.016068 -0.015748
v -0.045275 -0.015707 -0.016266
v -0.03113 -0.015775 -0.01685
v -0.049858 -0.01889 -0.01447
v -0.031855 -0.019541 -0.015284
v -0.031301 -0.015888 -0.016563
v -0.031139 -0.016258 -0.016497
v -0.030223 -0.021127 -0.018027
v -0.030244 -0.021133 -0.017989
v -0.030271 -0.02114 -0.017944
v -0.030261 -0.021137 -0.017961
v -0.030256 -0.021136 -0.017969
v -0.030256 -0.021136 -0.01797
v -0.029517 -0.020986 -0.019198
v -0.02718 -0.015792 -0.022625
v -0.023892 -0.015773 -0.026159
v -0.02165 -0.016029 -0.027912
v -0.024012 -0.020084 -0.025828
v -0.025177 -0.020401 -0.024692
v -0.022567 -0.020213 -0.027215
v -0.018154 -0.019858 -0.030375
v -0.013907 -0.015889 -0.032605
v -0.0087444 -0.01928 -0.034344
v -0.0089268 -0.015864 -0.034353
v -0.0059431 -0.019498 -0.034946
v -0.013322 -0.019655 -0.032832
v -0.0010197 -0.019331 -0.035475
v 0.0086441 -0.018295 -0.035224
v 0.006506 -0.019585 -0.035948
v 0.0079194 -0.018722 -0.046841
v 0.010242 -0.016595 -0.037782
v 0.01016 -0.01593 -0.046843
v 0.0097846 -0.015712 -0.036568
v 0.0086043 -0.01575 -0.035305
v 0.0027864 -0.015746 -0.0355
v 0.0064562 -0.015683 -0.046059
v 0.00774 -0.015612 -0.046304
v 0.005795 -0.015612 -0.046304
v 0.0040939 -0.015521 -0.046393
v 0.0031064 -0.015683 -0.046059
v 0.00074425 -0.015674 -0.04609
v -0.0024685 -0.015683 -0.046059
v -0.004387 -0.015683 -0.035647
v -0.0013672 -0.015648 -0.046181
v -0.0045042 -0.015683 -0.046059
v -0.005142 -0.015683 -0.046059
v -0.006253 -0.015683 -0.035355
v -0.005507 -0.015683 -0.046047
v -0.005628 -0.015683 -0.046047
v -0.00575 -0.015683 -0.046047
v -0.011087 -0.015683 -0.034176
v -0.017271 -0.015757 -0.031045
v -0.019137 -0.015799 -0.029801
v -0.0032175 -0.01573 -0.035468
v 0.0098607 -0.015134 -0.046566
v 0.0099533 -0.015515 -0.046499
v 0.010086 -0.017458 -0.037019
v 0.010107 -0.017463 -0.047129
v 0.0096507 -0.017504 -0.047672
v 0.0010307 -0.016904 -0.048103
v 0.0092863 -0.016954 -0.0481
v -0.012853 -0.017439 -0.047801
v -9.5054e-05 -0.018843 -0.04733
v 0.0063566 -0.019616 -0.041238
v 0.006094 -0.019731 -0.039634
v 0.00087283 -0.020288 -0.036587
v 0.006165 -0.019687 -0.040475
v 0.006156 -0.019693 -0.040378
v 0.00617 -0.019684 -0.040521
v 0.006167 -0.019686 -0.040494
v 0.0061683 -0.019685 -0.040503
v 0.0099071 -0.015235 -0.048179
v 0.0099168 -0.015683 -0.046155
v 0.0072205 -0.015729 -0.034931
v 0.0074788 -0.018695 -0.034905
v 0.0066949 -0.018748 -0.03492
v -0.014293 -0.020519 -0.033632
v -0.038495 -0.023038 -0.011236
v -0.038509 -0.022288 -0.011613
v -0.03852 -0.022763 -0.011269
v -0.045377 -0.022763 -0.0093099
v -0.046792 -0.022712 -0.0078934
v -0.046091 -0.027559 -0.008707
v -0.047296 -0.028618 -0.0072872
v -0.045793 -0.027851 -0.010049
v -0.033588 -0.025792 -0.013264
v -0.038592 -0.026104 -0.011369
v -0.038633 -0.025627 -0.01123
v -0.038634 -0.025627 -0.011229
v -0.038497 -0.023038 -0.011236
v -0.043676 -0.022611 -0.010094
v -0.044537 -0.027084 -0.0098317
v -0.033503 -0.025378 -0.012594
v -0.04785 -0.029313 -0.0062496
v -0.047465 -0.028597 -0.0058142
v -0.04766 -0.031102 -0.0040617
v -0.048266 -0.037299 -0.0045199
v -0.047821 -0.037479 -0.003944
v -0.047478 -0.022332 -0.0087121
v -0.055973 -0.020604 -0.012628
v -0.056216 -0.018052 -0.014508
v -0.056039 -0.015699 -0.015042
v -0.046167 -0.013881 -0.015416
v -0.046411 -0.015189 -0.015562
v -0.048209 -0.013081 -0.014872
v -0.056226 -0.013791 -0.014686
v -0.055981 -0.011922 -0.013874
v -0.040573 -0.015628 -0.026443
v -0.035323 -0.0013118 -0.037252
v -0.03518 0.005338 -0.036888
v -0.03264 0.012017 -0.035376
v -0.029482 0.005446 -0.042147
v -0.038206 0.011921 -0.029214
v -0.029536 0.010604 -0.020443
v -0.028959 0.011851 -0.021612
v -0.028876 0.016822 -0.021351
v -0.019907 0.016767 -0.030109
v -0.014229 0.017609 -0.034103
v -0.013805 0.016677 -0.03335
v -0.0065821 0.017654 -0.036596
v -0.0078193 0.016748 -0.035321
v -0.0016477 0.017272 -0.03645
v -0.00074081 0.016128 -0.036157
v -0.011612 0.012046 -0.034569
v -0.0046559 0.011944 -0.046257
v -0.0061166 0.012127 -0.035723
v -0.0010806 0.012324 -0.036188
v 0.004889 0.016838 -0.035933
v 0.0078664 0.014824 -0.035627
v 0.0054169 0.01771 -0.046459
v 0.0099225 0.014156 -0.037829
v 0.010208 0.012597 -0.046916
v 0.0099773 0.012039 -0.046215
v 0.010169 0.012268 -0.038489
v 0.0098672 0.012095 -0.037178
v 0.0086424 0.012193 -0.035974
v 0.0073306 0.012095 -0.035665
v 0.001904 0.012112 -0.036255
v 0.001906 0.011983 -0.046172
v 0.0099284 0.011747 -0.046551
v 0.010151 0.0055353 -0.046922
v -0.013714 0.01183 -0.046471
v -0.014279 -0.015492 -0.046465
v -0.015167 0.011973 -0.046123
v -0.015234 0.005574 -0.046289
v -0.022627 0.0079585 -0.044678
v -0.024107 0.012037 -0.041803
v -0.027857 0.012145 -0.022974
v -0.022909 0.012102 -0.027966
v -0.017736 0.012081 -0.031837
v -0.01062 0.012206 -0.034555
v -0.017743 0.012202 -0.031483
v 0.0090314 0.01476 -0.036401
v 0.010025 0.013668 -0.048278
v 0.0053289 0.017661 -0.036826
v -0.012741 0.017705 -0.045355
v -0.023139 0.017495 -0.028312
v -0.024005 0.016765 -0.02687
v -0.028778 0.019387 -0.021675
v -0.028849 0.019475 -0.022349
v -0.03203 0.019418 -0.019993
v -0.034903 0.01944 -0.027256
v -0.038891 0.019437 -0.027305
v -0.045812 0.019443 -0.016894
v -0.035021 0.01945 -0.021257
v -0.03876 0.019419 -0.013238
v -0.035483 0.012535 -0.02018
v -0.038217 0.012558 -0.014544
v -0.038829 0.012574 -0.011403
v -0.038783 0.01941 -0.010375
v -0.038265 0.019438 -0.0092157
v -0.036853 0.0123 -0.007903
v -0.038227 0.012577 -0.0093969
v -0.037656 0.011938 -0.009676
v -0.031925 0.011935 -0.0068709
v -0.032248 0.011829 -0.0074747
v -0.032314 0.011798 -0.0083107
v -0.032968 0.01193 -0.0072626
v -0.035394 0.012001 -0.013993
v -0.034515 0.011918 -0.020318
v -0.033179 0.011959 -0.020449
v -0.032653 0.012592 -0.020811
v -0.033796 0.012916 -0.021187
v -0.032726 0.019434 -0.020966
v -0.033822 0.016091 -0.021187
v -0.033822 0.016885 -0.021187
v -0.034485 0.019313 -0.02111
v -0.034368 0.012628 -0.021135
v -0.03575 0.019409 -0.019989
v -0.033889 0.019265 -0.021186
v -0.034796 0.012573 -0.014372
v -0.032165 0.012392 -0.019879
v -0.034611 0.012651 -0.013545
v -0.033514 0.01254 -0.013156
v -0.03333 0.012704 -0.013343
v -0.031308 0.012546 -0.017434
v -0.028972 0.012508 -0.021227
v -0.029678 0.012048 -0.019534
v -0.034412 0.019487 -0.013469
v -0.034773 0.019413 -0.014193
v -0.033721 0.019334 -0.013199
v -0.033388 0.019425 -0.013335
v -0.032101 0.019296 -0.020097
v -0.031085 0.019425 -0.018097
v -0.029616 0.010807 -0.019615
v -0.029316 0.011844 -0.017257
v -0.029627 0.011838 -0.015592
v -0.029367 0.010982 -0.01649
v -0.029886 0.010356 -0.019907
v -0.032378 0.011199 -0.0076747
v -0.031054 0.011865 -0.012406
v -0.033469 0.01198 -0.012444
v -0.038262 0.011966 -0.012557
v -0.045017 0.019409 -0.0053454
v -0.045568 0.019428 -0.0096036
v -0.046216 0.019413 -0.015048
v -0.046159 0.018767 -0.012106
v -0.045762 0.019166 -0.010397
v -0.045632 0.019166 -0.009673
v -0.045512 0.019166 -0.008947
v -0.045473 0.019187 -0.0086697
v -0.045018 0.019066 -0.0050831
v -0.046274 0.019405 -0.013459
v -0.045534 0.018809 -0.01809
v -0.043869 0.019406 -0.021546
v -0.040773 0.01946 -0.02634
v -0.041715 0.019376 -0.025396
v -0.03668 0.019389 -0.027627
v -0.033151 0.019307 -0.026191
v -0.029381 0.019381 -0.023228
v -0.02861 0.01773 -0.022275
v -0.029085 0.018461 -0.023378
v -0.029027 0.018889 -0.023011
v -0.023643 0.01814 -0.029392
v -0.039796 0.018166 -0.03159
v -0.022038 0.017674 -0.029924
v -0.024792 0.018237 -0.03846
v -0.025252 0.017735 -0.041191
v -0.022321 0.017717 -0.037532
v -0.020431 0.016538 -0.044633
v -0.012429 0.016735 -0.046494
v -0.009806 0.014785 -0.047772
v -0.011403 0.014629 -0.04755
v -0.006517 0.015155 -0.048105
v -0.006454 0.01509 -0.048129
v -0.012161 0.014551 -0.047432
v -0.012355 0.01453 -0.0474
v -0.012356 0.01453 -0.047399
v -0.012327 0.014533 -0.047404
v -0.012623 0.0145 -0.047354
v -0.012768 0.014501 -0.04733
v -0.012716 0.014741 -0.04734
v -0.012699 0.01449 -0.047341
v -0.012502 0.014514 -0.047375
v -0.012597 0.014503 -0.047358
v -0.012851 0.014468 -0.047314
v -0.016807 0.014694 -0.046401
v -0.020377 0.002385 -0.047253
v -0.020335 0.014645 -0.04537
v -0.030531 0.0067802 -0.043112
v -0.023183 0.01498 -0.044339
v -0.032744 0.015091 -0.039841
v -0.028909 0.016629 -0.040911
v -0.042804 0.016388 -0.033748
v -0.037979 0.011859 -0.038224
v -0.053776 0.0040076 -0.031171
v -0.053021 -0.0079624 -0.031211
v -0.045656 -0.013851 -0.034317
v -0.052702 -0.00065638 -0.032019
v -0.056061 -0.013989 -0.027836
v -0.0543 -0.01713 -0.026284
v -0.061315 -0.017339 -0.023497
v -0.037774 0.017784 -0.034654
v -0.012433 0.014522 -0.047386
v -0.012393 0.014526 -0.047393
v -0.012371 0.014529 -0.047397
v -0.01236 0.01453 -0.047399
v -0.012619 0.0145 -0.047355
v -0.012621 0.0145 -0.047354
v -0.041311 0.018234 -0.026854
v -0.03986 0.018795 -0.027034
v -0.036326 0.018724 -0.027821
v -0.035198 0.018248 -0.02818
v -0.028633 0.018168 -0.02362
v -0.033966 -0.015191 -0.034816
v -0.028306 -0.015183 -0.039582
v -0.028969 -0.015183 -0.039095
v -0.026272 -0.015183 -0.040975
v -0.026095 -0.015204 -0.041099
v -0.02696 -0.015183 -0.040521
v -0.024877 -0.015183 -0.041846
v -0.02417 -0.015183 -0.042263
v -0.014683 -0.015664 -0.046223
v -0.009821 -0.015683 -0.046059
v -0.009639 -0.015683 -0.046047
v -0.009517 -0.015683 -0.046047
v -0.009396 -0.015683 -0.046047
v -0.034062 -0.01676 -0.039743
v -0.061224 -0.026875 -0.011481
v -0.061313 -0.02347 -0.017313
v -0.059887 -0.027042 -0.010967
v -0.059673 -0.026184 -0.012823
v -0.059542 -0.02577 -0.013624
v -0.059576 -0.025874 -0.013427
v -0.059549 -0.025791 -0.013584
v -0.059534 -0.025731 -0.013696
v -0.059542 -0.025769 -0.013624
v -0.059542 -0.02577 -0.013623
v -0.059828 -0.037255 -0.0045201
v -0.059723 -0.037825 -0.0039653
v -0.046781 -0.022978 0.0075012
v -0.045319 -0.022621 0.0091137
v -0.043665 -0.022684 0.0097726
v -0.03852 -0.022763 0.010976
v -0.038532 -0.022313 0.01128
v -0.031493 -0.019872 0.015349
v -0.032585 -0.022746 0.012901
v -0.031586 -0.020846 0.015059
v -0.030312 -0.021135 0.017501
v -0.030049 -0.021076 0.018124
v -0.031073 -0.016232 0.0163
v -0.02687 -0.015796 0.02276
v -0.02963 -0.021718 0.018949
v -0.03292 -0.022285 0.012436
v -0.056249 -0.021777 0.0083227
v -0.048122 -0.021724 0.0051892
v -0.056222 -0.021325 0.010922
v -0.055965 -0.021592 0.0065428
v -0.056236 -0.020372 0.0045172
v -0.052134 -0.021287 0.0052603
v -0.056193 -0.016372 0.0022935
v -0.056116 -0.018682 0.0030657
v -0.056229 -0.013836 0.0025748
v -0.05244 -0.018395 0.002546
v -0.056207 -0.019183 0.01359
v -0.047111 -0.022375 0.008239
v -0.059542 -0.02577 0.01333
v -0.05954 -0.025762 0.013344
v -0.052794 -0.00065193 0.031688
v -0.05381 0.0039073 0.030876
v -0.035191 -0.000711 0.041062
v -0.027009 0.00024443 0.044836
v -0.020387 0.002358 0.04696
v -0.012534 0.003393 0.04818
v -0.005617 -0.000683 0.048825
v -0.012423 -0.000683 0.048321
v -0.012853 -0.0185 0.046915
v 0.010121 -0.0056741 0.048318
v 0.010134 0.0069155 0.046566
v 0.010025 0.00047375 0.046411
v -0.002191 0.012124 0.035893
v 0.0028394 0.012139 0.035889
v 0.0071047 0.012164 0.035295
v 0.0086294 0.012079 0.035731
v 0.009805 0.012103 0.036797
v 0.0026354 0.011983 0.045878
v 0.010146 0.012257 0.038097
v 0.010195 0.013561 0.047514
v 0.010052 0.012054 0.045946
v 0.0097308 0.014286 0.047579
v 0.0098539 0.013478 0.048214
v 0.010124 0.011846 0.046447
v 0.0098123 0.011774 0.04623
v 0.0088633 0.015039 0.03641
v 0.0052489 0.017668 0.036541
v 0.0085932 0.014561 0.035576
v 0.0078512 0.01444 0.035261
v 0.005009 0.01696 0.035674
v -0.00089094 0.016731 0.035927
v -0.007816 0.01675 0.035028
v -0.0081448 0.012191 0.035018
v -0.015296 0.012375 0.032422
v 0.0098867 0.014128 0.037299
v -0.023783 0.018161 0.029055
v -0.035198 0.018248 0.027887
v -0.024762 0.018233 0.038222
v -0.028698 0.018166 0.022378
v -0.02859 0.018187 0.023123
v -0.035408 0.019061 0.027147
v -0.037035 0.018666 0.027469
v -0.035498 0.019456 0.027115
v -0.037926 0.019393 0.027309
v -0.039375 0.019392 0.026866
v -0.043357 0.019404 0.022304
v -0.041211 0.019443 0.025674
v -0.033414 0.019442 0.021012
v -0.03218 0.019425 0.020184
v -0.033861 0.019364 0.026432
v -0.028785 0.019472 0.021745
v -0.029053 0.019377 0.020879
v -0.028721 0.01702 0.021322
v -0.028956 0.019372 0.02257
v -0.029235 0.018662 0.022997
v -0.023938 0.017742 0.027344
v -0.026476 0.012199 0.024191
v -0.029559 0.012429 0.019947
v -0.031326 0.012536 0.017103
v -0.029577 0.011859 0.018657
v -0.029337 0.01186 0.016117
v -0.029721 0.011331 0.015003
v -0.029408 0.010846 0.016543
v -0.029598 0.010788 0.019482
v -0.028844 0.012126 0.021197
v -0.028916 0.011944 0.021588
v -0.039314 0.010393 0.027462
v -0.018783 0.012099 0.03071
v -0.031874 0.010949 0.010189
v -0.031486 0.011851 0.010876
v -0.033111 0.011968 0.012336
v -0.032384 0.011856 0.0072925
v -0.032149 0.011401 0.0068601
v -0.031704 0.012233 0.0061841
v -0.031078 0.011567 0.0058547
v -0.02974 0.011942 0.0031639
v -0.048291 0.01036 0.0050619
v -0.048321 0.017144 0.0066356
v -0.048316 0.01197 0.0029452
v -0.048354 0.017211 -0.0072137
v -0.048316 0.011927 -0.0034014
v -0.04786 0.018038 0.0077097
v -0.04903 0.017095 0.0072583
v -0.047617 0.017961 -0.0071025
v -0.048694 0.017959 -0.0082271
v -0.034684 0.010529 0.0047854
v -0.032509 0.010973 0.0072002
v -0.029836 0.012111 0.0023109
v -0.029847 0.012259 -0.0021886
v -0.029413 0.012036 -0.0056459
v -0.029602 0.017897 0.0053044
v -0.029406 0.017733 0.0054074
v -0.029414 0.012036 0.0053415
v -0.034707 0.012301 0.0066716
v -0.036944 0.012628 0.0075641
v -0.038227 0.012576 0.0091048
v -0.038829 0.012574 0.011109
v -0.038834 0.019432 0.010367
v -0.03874 0.019365 0.012843
v -0.037198 0.012345 0.016447
v -0.035396 0.012262 0.019853
v -0.037207 0.011953 0.008497
v -0.038388 0.012008 0.012653
v -0.034716 0.012469 0.013354
v -0.035382 0.012008 0.013405
v -0.032178 0.012608 0.019413
v -0.032684 0.011995 0.019815
v -0.03234 0.01253 0.020226
v -0.034198 0.01197 0.020279
v -0.034375 0.012636 0.020844
v -0.034645 0.019427 0.020776
v -0.033841 0.019314 0.020899
v -0.033021 0.01295 0.020764
v -0.032053 0.019338 0.019653
v -0.031974 0.01946 0.019431
v -0.031673 0.019418 0.016744
v -0.033432 0.019431 0.01296
v -0.034779 0.01944 0.013817
v -0.034824 0.01259 0.01394
v -0.033888 0.019391 0.016059
v -0.033476 0.012606 0.012876
v -0.034085 0.019409 0.012973
v -0.032693 0.01932 0.020564
v -0.035822 0.01942 0.019608
v -0.039005 0.019454 0.012538
v -0.037663 0.019413 0.0081123
v -0.036779 0.019369 0.00021689
v -0.035946 0.018742 0.0065463
v -0.035811 0.018156 0.0063653
v -0.035585 0.017969 0.0064587
v -0.03595 0.017796 0.0067987
v -0.036437 0.018146 0.0011155
v -0.036076 0.019374 0.0069021
v -0.036394 0.01843 -0.003315
v -0.035898 0.018341 -0.006772
v -0.022355 0.017728 0.037838
v -0.05553 0.017852 0.023523
v 0.0086953 -0.018252 0.034933
v 0.0077521 -0.018512 0.034609
v -0.0018304 -0.02044 0.036336
v -0.031558 -0.022545 0.020965
v -0.043666 -0.02216 0.021078
v -0.031855 -0.023975 0.017009
v -0.033667 -0.025787 0.013391
v -0.033452 -0.025656 0.012708
v -0.033516 -0.025074 0.012223
v -0.014429 -0.015692 0.032718
v -0.005507 -0.015683 0.045753
v -0.005385 -0.015683 0.045765
v -0.0055675 -0.015683 0.045765
v -0.005628 -0.015683 0.045753
v -0.015075 -0.015683 0.045521
v -0.00575 -0.015683 0.045753
v -0.005871 -0.015683 0.045753
v -0.005993 -0.015683 0.045753
v -0.0058105 -0.015683 0.045765
v -0.0060535 -0.015683 0.045765
v -0.006114 -0.015683 0.045753
v -0.006236 -0.015683 0.045753
v -0.006357 -0.015683 0.045753
v -0.006479 -0.015683 0.045753
v -0.0062965 -0.015683 0.045765
v -0.00654 -0.015683 0.045765
v -0.006601 -0.015683 0.045753
v -0.006722 -0.015683 0.045753
v -0.006844 -0.015683 0.045753
v -0.006965 -0.015683 0.045753
v -0.006783 -0.015683 0.045765
v -0.007026 -0.015683 0.045765
v -0.007087 -0.015683 0.045753
v -0.007208 -0.015683 0.045753
v -0.00733 -0.015683 0.045753
v -0.007269 -0.015683 0.045765
v -0.007816 -0.015612 0.04601
v -0.007451 -0.015683 0.045753
v -0.007512 -0.015683 0.045765
v -0.007573 -0.015683 0.045753
v -0.007694 -0.015683 0.045753
v -0.007816 -0.015683 0.045753
v -0.007755 -0.015683 0.045765
v -0.007937 -0.015683 0.045753
v -0.008059 -0.015683 0.045753
v -0.007998 -0.015683 0.045765
v -0.00818 -0.015683 0.045753
v -0.008302 -0.015683 0.045753
v -0.008423 -0.015683 0.045753
v -0.008241 -0.015683 0.045765
v -0.008484 -0.015683 0.045765
v -0.008545 -0.015683 0.045753
v -0.008667 -0.015683 0.045753
v -0.008788 -0.015683 0.045753
v -0.00891 -0.015683 0.045753
v -0.0087275 -0.015683 0.045765
v -0.0089705 -0.015683 0.045765
v -0.009031 -0.015683 0.045753
v -0.009153 -0.015683 0.045753
v -0.009274 -0.015683 0.045753
v -0.0092135 -0.015683 0.045765
v -0.009396 -0.015683 0.045753
v -0.009517 -0.015683 0.045753
v -0.0094565 -0.015683 0.045765
v -0.0068435 -0.015368 0.046204
v -0.013556 -0.015336 0.046253
v -0.011705 -0.015612 0.04601
v -0.011036 -0.015683 0.045765
v -0.010671 -0.015683 0.045765
v -0.010064 -0.015648 0.045888
v -0.0096995 -0.015683 0.045765
v -0.010428 -0.015683 0.045753
v -0.010793 -0.015683 0.045753
v -0.011401 -0.015683 0.045765
v -0.01128 -0.015683 0.045753
v -0.013676 -0.01568 0.045828
v -0.015068 -0.015565 0.045983
v -0.020493 -0.01559 0.043762
v -0.018537 -0.015196 0.044765
v -0.01905 -0.015183 0.04454
v -0.019798 -0.015183 0.044211
v -0.021088 -0.015183 0.043607
v -0.017538 -0.015183 0.045161
v -0.022037 -0.008448 0.044263
v -0.027012 -0.015183 0.040192
v -0.030035 -0.0030322 0.041638
v -0.022625 -0.001421 0.044747
v -0.032933 -0.015183 0.035495
v -0.029624 -0.015183 0.038302
v -0.035104 -0.015183 0.033348
v -0.030907 -0.015183 0.037273
v -0.032762 -0.015183 0.035652
v -0.032151 -0.015183 0.036205
v -0.033971 -0.015191 0.034517
v -0.035927 -0.015497 0.032373
v -0.030659 -0.015483 0.037397
v -0.030271 -0.015183 0.037792
v -0.031534 -0.015183 0.036743
v -0.028306 -0.015183 0.039288
v -0.028969 -0.015183 0.038801
v -0.027647 -0.015198 0.039765
v -0.026272 -0.015183 0.040681
v -0.025162 -0.015204 0.041389
v -0.024877 -0.015183 0.041552
v -0.02417 -0.015183 0.041969
v -0.023456 -0.015183 0.042374
v -0.022011 -0.015183 0.043146
v -0.023136 -0.015249 0.042564
v -0.024027 -0.015543 0.041945
v -0.026519 -0.015523 0.040397
v -0.028411 -0.015637 0.038987
v -0.020542 -0.015183 0.043869
v -0.021433 -0.015196 0.043445
v -0.02696 -0.015183 0.040227
v -0.037857 -0.015194 0.030192
v -0.037279 -0.015183 0.030895
v -0.036752 -0.015183 0.031521
v -0.036213 -0.015183 0.032139
v -0.035664 -0.015183 0.032748
v -0.038737 -0.015352 0.029008
v -0.038303 -0.015183 0.029614
v -0.010186 -0.015683 0.045753
v -0.0099425 -0.015683 0.045753
v -0.00976 -0.015683 0.045753
v -0.009639 -0.015683 0.045753
v -0.046357 -0.015506 0.015275
v -0.052326 -0.0089928 0.0073209
v -0.051835 -0.0086822 0.0076058
v -0.048717 -0.0076782 0.0073459
v -0.054816 0.018166 0.006161
v -0.053829 0.017923 -0.0076356
v -0.052419 -0.011501 -0.0036185
v -0.0562 -0.011705 -0.0039136
v -0.056238 -0.0094751 -0.0089411
v -0.056224 -0.01802 -0.0030404
v -0.056222 -0.021776 -0.0078956
v -0.04615 0.019425 0.015473
f 65 1 2
f 2 1 66
f 66 1 3
f 66 3 4
f 6 134 11
f 9 118 8
f 12 14 13
f 119 16 14
f 119 14 12
f 16 158 18
f 158 16 23
f 16 18 17
f 23 16 117
f 117 16 119
f 117 120 20
f 117 119 120
f 23 117 21
f 21 117 19
f 25 170 173
f 28 27 170
f 28 170 25
f 37 38 36
f 37 39 38
f 38 39 40
f 39 37 47
f 47 37 125
f 46 44 42
f 42 44 45
f 46 151 44
f 50 46 49
f 18 52 53
f 18 142 52
f 18 53 54
f 54 53 56
f 53 52 55
f 57 59 71
f 49 59 57
f 49 46 59
f 11 134 69
f 71 59 64
f 1 62 60
f 62 1 65
f 1 60 138
f 76 9 75
f 76 75 90
f 79 113 92
f 84 98 85
f 74 89 73
f 73 89 90
f 90 75 73
f 91 60 88
f 91 88 89
f 88 60 48
f 48 86 88
f 92 113 88
f 92 88 86
f 47 93 86
f 86 93 84
f 93 125 94
f 100 123 34
f 103 101 102
f 102 101 24
f 104 107 105
f 107 110 113
f 107 113 108
f 108 113 79
f 118 9 76
f 118 76 114
f 114 76 115
f 107 104 110
f 101 81 83
f 101 103 81
f 24 101 121
f 34 123 97
f 93 94 100
f 100 94 123
f 125 37 124
f 47 125 93
f 47 86 48
f 91 72 138
f 138 60 91
f 84 85 83
f 132 130 131
f 132 131 6
f 6 131 133
f 6 133 134
f 138 130 132
f 138 72 130
f 1 138 140
f 144 143 145
f 144 51 143
f 142 147 146
f 142 148 147
f 147 148 149
f 150 51 144
f 151 51 150
f 151 50 51
f 151 150 152
f 155 153 154
f 152 156 157
f 152 150 156
f 148 158 155
f 155 158 153
f 142 158 148
f 18 158 142
f 158 161 159
f 159 161 160
f 161 163 162
f 163 165 164
f 161 165 163
f 26 168 167
f 37 36 169
f 37 169 35
f 171 173 170
f 174 175 172
f 174 23 175
f 165 23 174
f 177 178 176
f 42 45 178
f 42 178 177
f 161 23 165
f 158 23 161
f 50 151 46
f 28 97 27
f 34 97 28
f 23 21 22
f 190 191 192
f 220 349 221
f 223 220 219
f 349 220 346
f 346 220 345
f 345 220 343
f 343 220 360
f 360 220 223
f 224 223 222
f 222 223 229
f 223 219 244
f 223 244 229
f 349 224 225
f 349 350 224
f 224 350 351
f 224 351 354
f 224 354 355
f 224 355 223
f 224 222 226
f 229 233 1040
f 229 232 233
f 233 232 234
f 234 236 235
f 238 241 1225
f 238 244 241
f 241 244 240
f 244 238 1410
f 244 219 243
f 241 240 245
f 249 257 251
f 249 258 257
f 249 259 258
f 249 260 259
f 976 262 264
f 976 264 266
f 266 264 1270
f 264 1241 1270
f 271 268 269
f 272 271 1233
f 272 267 271
f 272 1233 273
f 1231 1224 277
f 279 278 297
f 278 1223 297
f 278 279 1014
f 1014 279 296
f 278 1014 275
f 1014 296 285
f 1014 285 281
f 299 292 291
f 299 310 292
f 304 340 305
f 304 363 340
f 340 363 342
f 305 340 358
f 305 358 306
f 306 358 359
f 307 312 309
f 308 1412 312
f 308 312 307
f 299 302 310
f 310 302 311
f 911 316 906
f 906 316 317
f 317 316 1416
f 323 318 327
f 332 329 330
f 329 331 1139
f 329 1139 328
f 336 331 329
f 321 336 329
f 321 329 332
f 321 333 336
f 333 1412 308
f 333 321 1412
f 342 382 341
f 342 363 382
f 365 366 364
f 365 1226 366
f 369 370 371
f 369 1220 370
f 381 1409 389
f 381 366 1409
f 364 366 381
f 385 384 338
f 385 338 381
f 387 384 385
f 385 381 386
f 385 386 1407
f 1136 392 1134
f 1138 392 1136
f 1140 392 396
f 393 392 1138
f 1132 392 1140
f 1134 392 1130
f 1130 392 1132
f 396 392 394
f 1391 1127 403
f 1391 403 404
f 404 403 405
f 437 436 435
f 437 438 436
f 443 1346 442
f 443 1345 1346
f 447 445 446
f 454 511 514
f 468 1391 1290
f 482 484 485
f 485 484 486
f 1118 486 487
f 485 486 1118
f 524 454 520
f 520 454 1281
f 522 523 521
f 527 1153 522
f 527 528 1153
f 530 443 529
f 446 531 532
f 446 445 531
f 532 531 533
f 532 533 535
f 532 535 450
f 530 529 538
f 450 535 537
f 443 530 1345
f 441 540 539
f 441 1211 540
f 547 180 546
f 545 180 547
f 547 546 1170
f 553 528 554
f 570 349 571
f 221 349 570
f 571 349 572
f 572 349 578
f 578 349 581
f 600 611 610
f 617 1114 618
f 1114 617 902
f 694 691 690
f 694 698 695
f 695 698 696
f 697 699 696
f 700 699 697
f 699 700 749
f 712 710 711
f 712 711 713
f 712 713 714
f 712 714 715
f 712 715 716
f 712 716 717
f 712 717 718
f 712 718 719
f 712 719 720
f 712 720 721
f 712 721 722
f 712 722 723
f 712 723 724
f 712 729 731
f 712 731 732
f 712 732 733
f 712 733 735
f 712 735 736
f 712 736 737
f 712 742 744
f 712 744 745
f 712 745 746
f 808 762 767
f 808 913 807
f 820 762 808
f 762 820 821
f 834 862 833
f 862 835 863
f 841 840 879
f 878 879 838
f 841 879 878
f 845 840 841
f 845 859 840
f 846 859 845
f 847 848 859
f 853 852 851
f 712 853 854
f 762 853 712
f 762 852 853
f 712 854 855
f 712 855 710
f 851 852 848
f 762 856 852
f 762 857 856
f 762 821 858
f 762 858 857
f 851 848 850
f 850 848 847
f 847 859 846
f 696 699 860
f 863 837 862
f 862 837 836
f 835 834 869
f 695 696 837
f 893 895 894
f 894 896 897
f 894 895 896
f 893 883 895
f 808 767 913
f 929 930 931
f 935 936 689
f 942 938 940
f 943 938 942
f 943 944 938
f 689 937 946
f 689 946 690
f 700 697 945
f 931 930 943
f 943 930 944
f 952 954 916
f 949 954 952
f 918 954 953
f 916 954 918
f 954 949 955
f 955 949 929
f 929 949 930
f 749 700 948
f 948 700 947
f 936 960 958
f 936 935 960
f 935 925 960
f 961 935 683
f 961 925 935
f 961 923 925
f 961 1041 923
f 967 989 965
f 965 989 966
f 967 970 989
f 1031 967 968
f 969 967 1031
f 969 970 967
f 970 969 994
f 994 969 971
f 975 969 976
f 1017 979 983
f 1017 1018 979
f 984 1018 1017
f 985 1018 984
f 1009 966 1004
f 965 966 1009
f 1017 983 1016
f 1017 1016 1012
f 1017 1012 1011
f 971 969 975
f 976 969 1019
f 1019 969 1020
f 1020 969 1021
f 976 1019 262
f 1039 1088 1089
f 1040 1088 1039
f 1040 1039 1042
f 1044 961 1043
f 1041 961 1044
f 1050 1049 680
f 349 225 1077
f 1040 1085 1088
f 1040 233 1085
f 969 1031 1030
f 762 712 1098
f 762 1098 761
f 712 1099 747
f 712 1100 1099
f 712 1101 1100
f 712 1102 1101
f 712 746 1102
f 712 747 1098
f 712 741 742
f 712 739 741
f 712 737 739
f 712 727 729
f 712 726 727
f 712 724 726
f 349 1077 1105
f 349 1105 1104
f 349 1104 613
f 581 349 613
f 1127 1391 468
f 384 387 331
f 595 596 592
f 595 592 593
f 1167 1163 1154
f 1155 443 1168
f 1161 1156 1157
f 1161 1159 1160
f 1161 1157 1159
f 1159 1157 1158
f 1162 1163 1164
f 1164 1163 1167
f 1161 1160 1164
f 546 1165 1169
f 546 1169 1170
f 1161 1176 1156
f 539 1176 1161
f 539 540 1176
f 529 443 1155
f 544 180 545
f 1180 240 1179
f 1179 240 1181
f 1180 1179 1183
f 1186 1190 1187
f 1190 1417 1189
f 1186 1417 1190
f 1192 1186 1193
f 1254 1186 1191
f 1254 1417 1186
f 1191 1186 1192
f 1192 1193 1194
f 437 435 1200
f 441 437 1211
f 1213 1214 1204
f 1215 1214 1213
f 1221 1222 1220
f 1221 1224 1222
f 1224 1231 1222
f 1223 1224 1221
f 1224 1223 278
f 370 1220 1229
f 1274 1217 1235
f 1237 1217 1274
f 1235 1217 1236
f 1236 1217 1218
f 249 1268 1241
f 1246 1214 1245
f 1246 1248 1214
f 1245 1214 1215
f 1250 1248 1246
f 1250 1246 1252
f 1258 1259 1260
f 1192 1194 1258
f 1258 1194 1259
f 1258 1260 1261
f 249 1267 1268
f 1267 249 1254
f 1275 1273 1234
f 1275 1234 268
f 1270 1269 1276
f 1270 1241 1269
f 268 1234 269
f 1254 249 1417
f 246 240 1180
f 180 544 1279
f 180 1279 215
f 245 240 246
f 1290 1391 447
f 447 1292 445
f 447 1291 1292
f 447 1391 1291
f 1291 1295 1294
f 1294 1295 1296
f 1296 1295 1297
f 1297 1295 1298
f 1298 1295 1301
f 1301 1295 1302
f 1302 1295 1303
f 1303 1295 1304
f 1304 1295 1307
f 1307 1295 1308
f 1308 1295 1309
f 1309 1295 1310
f 1310 1295 1313
f 1313 1295 1314
f 1314 1295 1315
f 1318 1295 1320
f 1320 1295 1321
f 1321 1295 1322
f 1322 1295 1324
f 1324 1295 1325
f 1325 1295 1327
f 1327 1295 1328
f 1328 1295 1329
f 1329 1295 1332
f 1332 1295 1333
f 1333 1295 1334
f 1334 1295 1335
f 1335 1295 1338
f 1338 1295 1339
f 1339 1295 1340
f 1340 1295 1342
f 1342 1295 1343
f 1352 1295 1353
f 1353 1295 1355
f 1355 1295 1354
f 1295 1391 1358
f 1354 1295 1356
f 1402 1295 1352
f 1403 1295 1402
f 1404 1295 1403
f 1405 1295 1404
f 1343 1295 1405
f 1315 1295 1318
f 1291 1391 1295
f 437 441 438
f 405 403 430
f 384 331 336
f 381 338 383
f 371 370 1210
f 371 1210 372
f 232 229 1410
f 323 327 1131
f 320 316 1413
f 1413 316 314
f 314 316 1414
f 1415 316 320
f 319 316 1415
f 1416 316 319
f 271 267 268
f 260 1241 264
f 249 1241 260
f 244 1410 229
f 222 229 231
f 1 139 3
f 3 139 136
f 136 4 3
f 136 70 4
f 128 10 127
f 9 10 128
f 9 7 10
f 134 127 7
f 134 7 12
f 11 134 12
f 11 12 13
f 15 14 16
f 13 14 15
f 66 16 17
f 24 23 22
f 24 22 102
f 102 22 21
f 121 23 24
f 121 25 23
f 26 167 27
f 27 167 170
f 25 29 28
f 25 32 29
f 30 32 25
f 32 33 29
f 37 35 26
f 39 41 40
f 42 41 43
f 177 41 42
f 39 43 41
f 42 43 46
f 48 39 47
f 48 61 39
f 61 43 39
f 60 61 48
f 61 58 43
f 46 43 58
f 50 52 51
f 51 52 142
f 57 56 53
f 53 55 49
f 57 53 49
f 56 57 71
f 46 58 59
f 62 61 60
f 62 65 61
f 65 63 61
f 61 63 58
f 59 63 64
f 59 58 63
f 64 63 65
f 17 64 65
f 17 2 66
f 66 4 16
f 16 4 15
f 70 15 4
f 15 70 67
f 70 68 67
f 11 67 5
f 134 11 69
f 15 67 11
f 67 68 5
f 11 13 15
f 17 18 64
f 64 18 54
f 71 64 54
f 71 54 56
f 17 65 2
f 72 126 130
f 74 128 126
f 75 128 74
f 9 128 75
f 113 110 78
f 108 79 109
f 103 80 81
f 81 80 82
f 87 83 81
f 87 84 83
f 84 87 86
f 87 82 80
f 79 92 87
f 78 77 89
f 89 77 90
f 89 88 78
f 78 88 113
f 76 90 77
f 91 74 126
f 74 91 89
f 93 98 84
f 94 95 97
f 124 37 26
f 26 96 124
f 99 93 100
f 99 98 93
f 99 83 85
f 85 98 99
f 31 99 100
f 31 100 33
f 32 31 33
f 31 101 99
f 117 105 107
f 105 114 115
f 115 106 105
f 108 80 116
f 109 80 108
f 104 111 110
f 111 77 112
f 111 112 110
f 112 78 110
f 77 78 112
f 111 106 77
f 106 115 76
f 106 76 77
f 103 116 80
f 107 108 116
f 103 107 116
f 106 111 105
f 105 111 104
f 114 105 117
f 19 117 103
f 102 19 103
f 102 21 19
f 8 119 9
f 9 119 12
f 8 120 119
f 118 120 8
f 118 20 120
f 114 20 118
f 114 117 20
f 107 103 117
f 99 101 83
f 101 31 121
f 121 31 30
f 25 121 30
f 34 29 33
f 97 96 122
f 26 122 96
f 27 122 26
f 97 122 27
f 34 33 100
f 94 97 123
f 124 96 95
f 97 95 96
f 95 125 124
f 94 125 95
f 92 86 87
f 91 126 72
f 75 74 73
f 80 79 87
f 109 79 80
f 82 87 81
f 130 126 129
f 130 129 131
f 131 129 127
f 131 127 133
f 6 135 132
f 133 127 134
f 10 7 127
f 68 137 135
f 6 5 135
f 5 68 135
f 136 137 68
f 135 137 132
f 68 70 136
f 137 136 139
f 137 141 132
f 138 132 141
f 138 141 140
f 1 140 139
f 137 139 140
f 140 141 137
f 128 127 129
f 129 126 128
f 52 49 55
f 50 49 52
f 142 143 51
f 143 146 145
f 143 142 146
f 145 146 147
f 148 144 149
f 147 149 144
f 150 144 148
f 151 152 158
f 152 153 158
f 157 154 153
f 157 153 152
f 156 155 154
f 156 154 157
f 155 156 150
f 150 148 155
f 151 158 44
f 44 158 159
f 45 159 160
f 44 159 45
f 162 163 176
f 176 163 164
f 164 165 36
f 166 169 174
f 166 35 169
f 166 174 170
f 167 166 170
f 166 167 35
f 35 167 168
f 168 26 35
f 173 171 170
f 170 172 173
f 173 175 25
f 173 172 175
f 25 175 23
f 36 165 174
f 36 174 169
f 170 174 172
f 38 164 36
f 164 177 176
f 177 164 40
f 40 164 38
f 40 41 177
f 162 178 161
f 161 178 45
f 176 178 162
f 45 160 161
f 147 144 145
f 28 29 34
f 32 30 31
f 7 9 12
f 11 5 6
f 181 179 180
f 181 180 213
f 213 203 181
f 203 179 181
f 182 203 183
f 185 182 183
f 203 184 183
f 185 183 184
f 185 186 189
f 185 188 186
f 187 185 184
f 185 189 182
f 189 186 191
f 191 190 189
f 189 190 203
f 189 203 182
f 191 186 193
f 193 192 191
f 186 194 193
f 194 192 193
f 196 194 186
f 194 195 192
f 194 196 549
f 195 194 549
f 197 549 196
f 196 186 198
f 198 1148 196
f 200 1147 1148
f 201 200 1148
f 201 1148 198
f 200 202 199
f 200 201 202
f 213 202 201
f 201 198 203
f 203 213 201
f 198 204 203
f 204 184 203
f 187 184 204
f 187 204 205
f 198 205 204
f 198 188 205
f 205 206 187
f 205 207 206
f 205 188 207
f 207 188 208
f 208 188 209
f 209 188 210
f 187 206 211
f 187 211 212
f 211 187 212
f 215 213 180
f 214 216 202
f 202 213 214
f 199 216 217
f 217 218 199
f 217 219 218
f 221 566 220
f 1144 1145 220
f 220 1145 219
f 220 566 1144
f 1072 224 1074
f 1072 225 224
f 1071 1074 224
f 1071 224 226
f 227 226 222
f 227 228 1070
f 222 230 227
f 228 227 230
f 230 229 1069
f 230 1069 228
f 230 231 229
f 237 236 1225
f 248 237 1225
f 248 1225 241
f 1225 239 238
f 239 1225 1226
f 244 1280 240
f 1280 242 214
f 214 242 216
f 217 216 242
f 219 217 242
f 219 242 243
f 243 242 1280
f 243 1280 244
f 247 248 245
f 247 245 1189
f 248 247 1189
f 251 1417 249
f 251 250 1417
f 255 253 254
f 252 254 253
f 253 237 252
f 256 253 255
f 256 237 253
f 256 255 254
f 257 261 251
f 258 261 257
f 259 261 258
f 260 261 259
f 261 262 263
f 261 263 236
f 236 237 261
f 261 237 256
f 265 266 1270
f 268 266 265
f 977 266 268
f 977 268 267
f 269 270 271
f 270 277 1233
f 270 1233 271
f 980 273 1015
f 273 274 1015
f 1015 274 276
f 275 276 274
f 275 274 277
f 280 276 275
f 277 274 1233
f 273 1233 274
f 275 1224 278
f 1014 280 275
f 919 1014 281
f 282 281 285
f 286 281 282
f 286 282 283
f 283 282 284
f 282 285 284
f 287 286 283
f 804 286 287
f 283 288 287
f 295 288 293
f 283 293 288
f 290 295 291
f 290 291 292
f 293 294 299
f 283 294 293
f 293 291 295
f 294 284 279
f 279 284 296
f 284 285 296
f 299 294 297
f 297 294 279
f 297 298 299
f 299 298 302
f 300 298 297
f 297 303 300
f 302 300 303
f 302 298 301
f 302 301 300
f 1223 303 297
f 1228 302 303
f 1228 1411 302
f 1411 1228 232
f 1411 304 302
f 307 306 359
f 306 307 309
f 309 312 310
f 304 305 311
f 304 311 302
f 311 305 306
f 306 309 311
f 311 309 310
f 310 312 292
f 313 312 1412
f 313 1413 314
f 313 1414 290
f 313 314 1414
f 315 290 1414
f 290 315 288
f 315 289 288
f 906 907 911
f 904 1416 318
f 318 1416 319
f 318 319 322
f 332 1415 321
f 321 1415 320
f 332 319 1415
f 322 319 332
f 904 318 323
f 325 324 323
f 326 325 1131
f 318 328 1135
f 328 318 330
f 328 330 329
f 318 322 330
f 332 330 322
f 333 335 336
f 337 334 336
f 337 338 334
f 339 338 337
f 339 383 338
f 339 344 383
f 341 344 343
f 343 342 341
f 343 360 342
f 343 344 345
f 346 337 347
f 337 348 347
f 350 349 348
f 348 349 347
f 352 354 351
f 355 354 353
f 358 362 356
f 355 353 356
f 353 357 356
f 358 356 357
f 357 353 359
f 353 352 307
f 307 352 308
f 308 335 333
f 308 352 335
f 359 353 307
f 358 357 359
f 340 362 358
f 342 361 340
f 361 362 340
f 361 342 360
f 362 361 223
f 361 360 223
f 356 362 355
f 223 355 362
f 354 352 353
f 351 335 352
f 335 351 350
f 348 335 350
f 335 348 336
f 348 337 336
f 347 349 346
f 337 346 339
f 345 339 346
f 339 345 344
f 363 364 382
f 368 1220 369
f 372 374 371
f 372 373 374
f 373 375 374
f 373 372 1210
f 1210 375 373
f 375 376 374
f 375 425 376
f 377 374 376
f 377 380 378
f 378 374 377
f 390 380 377
f 380 390 379
f 380 379 1408
f 380 1408 389
f 380 389 1409
f 381 383 382
f 341 382 383
f 384 334 338
f 388 387 385
f 1407 1408 379
f 379 390 392
f 391 395 394
f 394 395 396
f 397 398 1140
f 397 395 429
f 396 395 397
f 376 429 395
f 399 398 1406
f 428 399 1406
f 402 400 398
f 399 402 398
f 401 402 399
f 430 406 405
f 405 407 412
f 408 407 405
f 409 407 408
f 410 412 407
f 410 407 409
f 410 411 412
f 410 413 411
f 414 413 410
f 414 410 415
f 415 410 409
f 415 406 417
f 415 408 406
f 416 415 417
f 414 415 416
f 418 408 415
f 415 409 418
f 409 408 418
f 416 419 420
f 416 417 419
f 414 416 420
f 419 414 420
f 406 421 419
f 414 419 421
f 417 406 419
f 426 421 406
f 422 414 421
f 424 422 421
f 423 414 422
f 423 422 424
f 424 426 423
f 421 426 424
f 423 426 427
f 427 375 423
f 425 375 427
f 429 428 1406
f 429 425 428
f 376 425 429
f 425 399 428
f 430 425 426
f 430 426 406
f 399 425 430
f 426 425 427
f 423 375 414
f 413 414 431
f 431 414 375
f 432 413 431
f 433 1366 431
f 1366 432 431
f 433 431 375
f 434 1366 433
f 433 436 434
f 433 435 436
f 435 433 375
f 434 436 438
f 434 438 439
f 438 441 439
f 439 441 440
f 442 440 441
f 1346 440 442
f 1345 445 444
f 1345 531 445
f 446 465 447
f 532 457 449
f 457 532 450
f 450 537 452
f 452 537 451
f 457 450 453
f 454 453 1282
f 514 455 454
f 455 1283 454
f 455 456 1283
f 457 454 1283
f 454 457 453
f 1283 463 457
f 461 457 463
f 461 463 458
f 461 458 459
f 460 449 459
f 460 459 458
f 459 449 461
f 449 457 461
f 458 462 460
f 462 449 460
f 464 465 462
f 449 462 448
f 462 463 464
f 448 462 465
f 464 463 477
f 469 468 478
f 478 470 469
f 470 1125 1127
f 470 1127 469
f 472 470 471
f 472 471 474
f 473 474 471
f 471 475 473
f 475 478 467
f 475 467 473
f 464 477 476
f 476 467 466
f 476 466 464
f 473 476 477
f 473 467 476
f 478 468 467
f 471 478 475
f 470 478 471
f 472 474 479
f 480 479 1286
f 480 1286 481
f 1289 483 484
f 482 1289 484
f 484 483 486
f 486 483 487
f 483 488 487
f 488 483 1288
f 488 490 487
f 488 489 490
f 489 583 490
f 491 583 1287
f 583 489 1287
f 491 1287 1285
f 1285 492 491
f 492 1285 493
f 494 493 496
f 493 1285 497
f 493 497 496
f 1285 495 497
f 496 497 500
f 497 498 500
f 497 495 498
f 474 498 495
f 500 498 499
f 499 498 501
f 504 501 498
f 499 501 502
f 503 504 498
f 503 508 504
f 503 505 508
f 508 505 506
f 456 505 503
f 456 507 505
f 509 510 508
f 509 508 511
f 508 513 511
f 508 506 513
f 456 513 506
f 456 506 512
f 512 506 505
f 512 505 507
f 456 512 507
f 513 514 511
f 514 513 456
f 456 515 514
f 455 514 515
f 456 516 515
f 518 515 516
f 455 515 517
f 517 515 518
f 456 517 518
f 456 518 516
f 455 517 519
f 456 519 517
f 456 455 519
f 524 520 523
f 511 454 524
f 521 451 522
f 524 509 511
f 524 526 525
f 526 523 522
f 526 524 523
f 534 533 531
f 1345 530 534
f 1345 534 531
f 532 448 446
f 535 533 534
f 536 537 535
f 530 538 537
f 530 537 536
f 530 536 535
f 534 530 535
f 527 529 1155
f 527 522 529
f 522 538 529
f 522 537 538
f 442 441 539
f 539 443 442
f 1177 1211 437
f 437 541 1177
f 541 437 542
f 437 543 542
f 542 1199 544
f 1199 542 543
f 545 542 544
f 547 541 545
f 545 541 542
f 546 548 1165
f 549 552 548
f 550 549 548
f 550 195 549
f 548 546 550
f 550 546 180
f 179 195 550
f 180 179 550
f 549 197 555
f 549 555 552
f 197 551 555
f 552 555 554
f 554 555 553
f 555 556 553
f 557 556 555
f 556 560 525
f 556 557 560
f 551 558 557
f 557 558 559
f 559 560 557
f 557 555 551
f 502 501 562
f 563 502 562
f 562 501 561
f 502 563 564
f 566 563 565
f 563 568 564
f 567 568 563
f 563 566 567
f 569 568 567
f 566 569 567
f 570 494 569
f 569 566 221
f 569 221 570
f 571 492 493
f 572 492 571
f 571 493 570
f 491 492 572
f 573 491 572
f 573 583 491
f 574 573 577
f 576 573 574
f 583 573 575
f 573 576 575
f 578 573 572
f 577 573 578
f 578 579 580
f 578 580 577
f 579 578 582
f 582 578 581
f 575 579 582
f 583 575 582
f 585 584 583
f 583 584 597
f 490 583 597
f 583 582 585
f 585 582 590
f 586 585 589
f 588 585 586
f 589 585 587
f 584 585 588
f 587 585 590
f 593 594 595
f 598 599 597
f 591 599 598
f 600 599 591
f 600 596 599
f 598 590 591
f 584 598 597
f 587 598 584
f 590 598 587
f 599 601 597
f 490 597 603
f 601 603 597
f 490 603 602
f 490 602 487
f 325 604 605
f 595 606 605
f 607 1115 608
f 1115 607 609
f 593 609 594
f 592 609 593
f 600 610 592
f 592 610 609
f 600 591 611
f 590 582 611
f 611 591 590
f 611 581 610
f 582 581 611
f 613 612 610
f 610 581 613
f 610 614 609
f 610 612 614
f 616 612 615
f 616 614 612
f 615 612 621
f 616 617 618
f 901 902 617
f 617 616 619
f 619 616 615
f 619 615 620
f 621 620 615
f 620 623 899
f 620 621 622
f 620 622 623
f 619 620 899
f 623 625 624
f 623 624 899
f 625 623 626
f 623 622 626
f 625 627 622
f 628 622 627
f 626 622 628
f 625 628 627
f 625 626 628
f 625 622 621
f 629 625 621
f 629 624 625
f 1106 629 621
f 624 629 630
f 630 631 632
f 630 632 637
f 637 890 630
f 630 890 624
f 634 632 1105
f 634 1105 1077
f 634 1077 633
f 635 634 633
f 635 636 634
f 634 636 632
f 637 632 638
f 638 632 636
f 639 636 640
f 639 640 641
f 641 642 643
f 642 644 643
f 642 645 810
f 810 645 646
f 645 648 646
f 648 645 641
f 648 641 640
f 640 647 648
f 647 819 648
f 819 647 649
f 824 647 825
f 647 824 649
f 640 825 647
f 825 640 650
f 650 640 651
f 652 650 651
f 651 635 652
f 651 640 635
f 635 640 636
f 635 653 652
f 636 639 638
f 635 633 653
f 653 633 654
f 652 653 654
f 656 654 655
f 652 654 656
f 652 656 657
f 659 652 657
f 659 657 658
f 659 660 882
f 662 871 660
f 661 660 663
f 661 662 660
f 663 660 659
f 658 663 659
f 658 665 669
f 669 663 658
f 658 664 665
f 664 666 665
f 666 667 665
f 665 667 668
f 665 668 669
f 669 668 1063
f 669 1063 867
f 670 671 1063
f 867 1063 671
f 671 673 692
f 671 692 867
f 674 671 672
f 671 670 672
f 673 671 674
f 675 674 670
f 675 673 674
f 670 674 672
f 675 670 676
f 684 675 676
f 676 677 684
f 677 676 678
f 677 678 679
f 680 677 679
f 681 677 680
f 677 681 684
f 681 683 684
f 681 682 683
f 680 682 681
f 684 683 685
f 684 685 686
f 687 686 688
f 959 687 688
f 959 690 687
f 687 690 691
f 675 687 691
f 675 692 673
f 675 693 692
f 693 691 695
f 695 691 694
f 690 698 694
f 696 698 697
f 699 708 844
f 749 708 699
f 708 749 701
f 704 701 749
f 701 707 702
f 703 701 704
f 701 706 705
f 701 702 706
f 701 703 707
f 708 701 709
f 709 701 705
f 710 705 711
f 710 709 705
f 711 705 713
f 713 706 714
f 713 705 706
f 714 706 715
f 715 706 716
f 716 702 717
f 716 706 702
f 717 702 718
f 718 707 719
f 718 702 707
f 719 707 720
f 720 703 721
f 720 707 703
f 721 703 722
f 722 704 723
f 722 703 704
f 723 704 724
f 704 749 725
f 724 704 725
f 724 725 726
f 726 725 727
f 727 725 728
f 725 749 728
f 727 728 729
f 729 728 731
f 749 730 728
f 731 728 730
f 731 730 732
f 732 730 733
f 749 734 730
f 733 730 734
f 733 734 735
f 735 734 736
f 736 738 737
f 736 734 738
f 749 738 734
f 737 738 739
f 739 738 740
f 749 740 738
f 739 740 741
f 741 740 742
f 749 743 740
f 742 740 743
f 742 743 744
f 744 743 745
f 745 743 746
f 747 743 948
f 749 948 743
f 743 747 1099
f 748 743 1099
f 750 755 948
f 750 948 753
f 751 754 750
f 751 750 752
f 750 753 752
f 754 755 750
f 754 751 759
f 755 754 756
f 756 754 758
f 754 757 758
f 754 759 757
f 761 756 758
f 761 758 757
f 761 757 760
f 761 760 759
f 757 759 760
f 762 763 766
f 764 766 763
f 764 765 766
f 767 768 769
f 768 770 769
f 767 769 770
f 768 771 770
f 770 771 772
f 767 770 773
f 770 772 773
f 767 773 775
f 775 773 772
f 775 771 1090
f 775 772 774
f 771 775 774
f 1090 776 775
f 776 778 789
f 789 778 777
f 776 779 778
f 779 777 778
f 776 781 779
f 779 782 777
f 780 779 781
f 780 782 779
f 782 783 788
f 782 784 783
f 771 782 780
f 782 786 784
f 777 782 785
f 789 782 788
f 782 789 785
f 786 782 914
f 782 771 787
f 782 787 914
f 789 788 783
f 789 783 790
f 783 784 790
f 789 790 784
f 789 784 913
f 913 784 791
f 792 913 794
f 794 793 792
f 795 793 794
f 913 795 794
f 795 786 793
f 791 795 796
f 913 796 795
f 784 786 795
f 784 795 791
f 913 791 796
f 792 793 797
f 793 786 797
f 786 792 797
f 792 798 803
f 792 786 798
f 803 800 799
f 800 802 799
f 803 798 800
f 786 800 798
f 786 801 800
f 800 801 802
f 803 802 801
f 803 799 802
f 805 806 807
f 807 804 805
f 804 807 803
f 803 807 913
f 644 809 884
f 806 809 810
f 810 809 644
f 806 810 811
f 811 808 806
f 812 808 811
f 810 812 811
f 813 648 819
f 646 813 819
f 646 819 812
f 813 815 648
f 646 814 813
f 815 813 814
f 815 814 817
f 646 815 816
f 815 817 816
f 646 648 815
f 817 814 818
f 646 817 818
f 646 816 817
f 646 818 814
f 819 649 820
f 819 820 812
f 808 812 820
f 820 649 821
f 649 822 821
f 823 822 649
f 822 823 825
f 823 649 824
f 823 824 825
f 858 825 826
f 822 825 858
f 827 831 829
f 829 831 828
f 882 830 831
f 830 882 660
f 830 828 831
f 830 660 871
f 830 871 832
f 832 828 830
f 859 832 840
f 828 832 859
f 840 832 881
f 880 834 833
f 834 835 862
f 837 838 836
f 838 862 836
f 838 879 839
f 878 861 842
f 861 843 842
f 842 841 878
f 841 842 843
f 861 844 843
f 841 843 844
f 841 844 845
f 845 844 846
f 847 846 849
f 847 849 708
f 850 847 708
f 708 851 850
f 851 708 853
f 853 709 854
f 853 708 709
f 854 709 855
f 855 709 710
f 829 848 852
f 829 852 856
f 829 856 827
f 827 856 857
f 822 858 821
f 857 858 827
f 858 831 827
f 828 859 829
f 859 848 829
f 844 708 849
f 844 849 846
f 699 844 860
f 860 844 861
f 878 837 861
f 865 866 864
f 865 692 866
f 865 867 692
f 669 867 663
f 868 867 865
f 865 864 868
f 868 864 835
f 864 863 835
f 870 869 834
f 869 661 835
f 868 835 661
f 661 869 662
f 662 870 871
f 871 870 834
f 872 870 873
f 874 870 872
f 870 662 873
f 869 870 874
f 874 662 869
f 876 662 874
f 874 875 876
f 874 872 875
f 875 662 876
f 872 662 875
f 832 834 881
f 834 880 881
f 834 832 871
f 873 662 872
f 868 661 663
f 868 663 867
f 877 693 695
f 877 866 693
f 877 864 866
f 877 695 837
f 863 877 837
f 864 877 863
f 837 696 860
f 866 692 693
f 878 838 837
f 860 861 837
f 879 881 880
f 879 833 839
f 833 879 880
f 838 833 862
f 839 833 838
f 840 881 879
f 650 659 882
f 826 882 831
f 650 882 826
f 858 826 831
f 650 826 825
f 810 646 812
f 642 810 644
f 884 883 644
f 883 884 885
f 885 884 896
f 887 888 886
f 888 887 889
f 897 888 890
f 888 889 890
f 890 637 897
f 891 897 637
f 891 898 892
f 892 897 891
f 892 898 893
f 892 893 894
f 892 894 897
f 885 896 895
f 883 885 895
f 886 888 897
f 886 897 896
f 898 883 893
f 891 641 643
f 643 898 891
f 891 637 638
f 891 639 641
f 639 891 638
f 643 644 898
f 883 898 644
f 624 890 889
f 624 889 899
f 899 901 619
f 899 900 901
f 889 900 899
f 901 325 605
f 901 605 903
f 608 902 903
f 607 608 903
f 607 903 605
f 901 903 902
f 324 901 900
f 324 900 887
f 887 900 889
f 325 901 324
f 901 617 619
f 887 904 323
f 886 904 887
f 323 324 887
f 904 886 896
f 896 905 904
f 905 317 904
f 905 884 809
f 809 906 905
f 896 884 905
f 906 317 905
f 904 317 1416
f 809 907 906
f 809 909 907
f 805 908 909
f 804 908 805
f 804 287 908
f 809 806 909
f 805 909 806
f 910 909 908
f 908 287 910
f 910 912 911
f 910 289 912
f 910 287 289
f 910 911 909
f 315 316 912
f 289 315 912
f 316 911 912
f 909 911 907
f 808 807 806
f 789 913 776
f 776 913 767
f 803 913 792
f 286 804 801
f 803 801 804
f 286 801 786
f 786 914 286
f 752 915 914
f 787 752 914
f 914 915 286
f 918 915 916
f 916 915 917
f 915 918 286
f 752 917 915
f 919 918 920
f 919 281 918
f 1010 1014 919
f 919 920 1002
f 953 1002 920
f 921 1002 953
f 1009 1002 921
f 921 953 954
f 921 954 963
f 963 954 922
f 962 922 1041
f 922 962 963
f 924 923 922
f 922 923 1041
f 924 925 923
f 926 925 924
f 926 927 925
f 927 926 928
f 926 931 928
f 931 926 956
f 929 931 956
f 928 931 932
f 933 932 943
f 928 932 933
f 960 933 934
f 934 958 960
f 927 960 925
f 935 685 683
f 938 939 940
f 941 934 942
f 934 943 942
f 933 943 934
f 941 942 940
f 944 945 938
f 945 944 700
f 945 937 938
f 690 946 698
f 698 946 697
f 697 946 945
f 946 937 945
f 959 689 690
f 930 700 944
f 930 947 700
f 950 947 949
f 950 948 947
f 949 951 950
f 952 917 951
f 949 952 951
f 916 917 952
f 929 956 955
f 956 924 955
f 924 957 955
f 957 954 955
f 957 924 954
f 920 918 953
f 947 930 949
f 753 951 917
f 753 950 951
f 950 753 948
f 943 932 931
f 958 941 940
f 941 958 934
f 958 940 936
f 936 940 939
f 937 936 939
f 938 937 939
f 937 689 936
f 688 685 959
f 685 688 686
f 959 685 689
f 689 685 935
f 1039 962 1041
f 1036 963 962
f 1036 962 1089
f 1036 964 921
f 921 963 1036
f 964 1038 965
f 1009 964 965
f 994 973 972
f 973 994 971
f 971 974 973
f 974 971 975
f 978 976 266
f 978 266 977
f 976 978 975
f 975 978 974
f 974 978 979
f 979 978 977
f 983 977 267
f 267 980 983
f 267 272 980
f 998 984 1017
f 993 972 985
f 985 986 993
f 986 987 993
f 993 987 988
f 989 988 987
f 990 988 989
f 988 992 993
f 988 990 992
f 992 990 991
f 990 989 991
f 993 992 972
f 972 992 994
f 992 991 995
f 970 995 989
f 970 992 995
f 997 989 987
f 986 997 987
f 986 984 997
f 997 984 996
f 966 997 996
f 998 996 984
f 998 1005 996
f 998 1004 1005
f 999 998 1017
f 1002 1000 1001
f 1002 1001 1003
f 1002 1007 1000
f 1002 1009 1007
f 1005 1004 966
f 966 996 1005
f 1009 1004 1007
f 1006 1007 1004
f 1007 1006 1000
f 1000 1006 999
f 1006 998 999
f 1004 998 1006
f 997 966 1008
f 1008 989 997
f 966 989 1008
f 1009 921 964
f 919 1003 1010
f 1003 1011 1010
f 1010 1011 1013
f 1012 1013 1011
f 1013 1012 276
f 276 1012 1016
f 280 1013 276
f 280 1014 1013
f 1010 1013 1014
f 276 1016 1015
f 1015 1016 982
f 1011 1003 1017
f 1017 1003 1000
f 1000 1003 1001
f 1000 999 1017
f 1003 919 1002
f 984 986 985
f 991 989 995
f 992 970 994
f 972 973 985
f 985 973 1018
f 973 974 1018
f 974 979 1018
f 979 977 983
f 982 983 981
f 980 981 983
f 982 1016 983
f 1015 982 981
f 980 1015 981
f 272 273 980
f 1023 1020 1022
f 1024 1020 1023
f 1020 1024 1026
f 1025 1026 1024
f 1023 1025 1024
f 1023 1026 1025
f 1027 1019 1020
f 1019 1027 262
f 1027 263 262
f 234 235 1027
f 234 1027 1022
f 263 1027 235
f 1022 1027 1026
f 1026 1027 1020
f 1021 1028 1020
f 1020 1028 1022
f 1022 1026 1023
f 233 1022 1029
f 233 234 1022
f 1021 1029 1022
f 1021 1022 1028
f 1030 1029 969
f 1034 1087 967
f 1088 1087 1034
f 1037 1088 1034
f 1034 1035 1037
f 1034 967 1035
f 1035 967 965
f 1036 1037 1038
f 1037 1036 1089
f 1089 1088 1037
f 1089 962 1039
f 1041 1042 1039
f 1042 1044 1043
f 1045 1043 961
f 1041 1044 1042
f 961 1046 1045
f 682 1057 1046
f 1057 682 1049
f 1049 1047 1057
f 1057 1047 1048
f 682 680 1049
f 1049 1050 1047
f 678 1047 1050
f 678 1050 679
f 680 679 1050
f 1047 1052 1048
f 1048 1052 1051
f 1057 1048 1051
f 678 1052 1047
f 1053 1052 678
f 1052 1055 1054
f 1051 1052 1054
f 1054 1055 1056
f 1056 1055 1058
f 1054 1056 1057
f 1058 1061 1056
f 1053 1058 1059
f 1053 1061 1058
f 1059 1058 1060
f 1060 1058 1055
f 1053 678 1061
f 1061 1062 1057
f 1056 1061 1057
f 1064 1062 1061
f 678 676 1061
f 1063 1061 676
f 1063 1064 1061
f 1065 1064 1063
f 1062 1064 1066
f 1064 1065 1066
f 1045 1066 1068
f 1068 1066 1067
f 1068 1067 1069
f 1067 1065 1070
f 1071 1070 1065
f 227 1070 1071
f 1071 1065 667
f 1071 667 1074
f 1072 1074 666
f 1073 1072 666
f 666 655 1073
f 655 1075 1073
f 1075 1072 1073
f 1072 1075 225
f 1076 1077 1075
f 225 1075 1077
f 633 1077 1076
f 654 1076 1075
f 633 1076 654
f 654 1075 655
f 666 1074 667
f 1070 1069 1067
f 1069 1070 228
f 1078 1042 1043
f 1068 1078 1043
f 1078 1068 1069
f 1078 1040 1042
f 229 1040 1078
f 1069 229 1078
f 1065 1067 1066
f 1068 1043 1045
f 1066 1045 1062
f 668 1065 1063
f 667 1065 668
f 1057 1045 1046
f 1045 1057 1062
f 1060 1055 1083
f 1053 1059 1079
f 1053 1079 1080
f 1053 1080 1081
f 1053 1081 1082
f 1054 1057 1051
f 1055 1083 1084
f 1083 1055 1084
f 682 1046 961
f 1085 233 1029
f 1085 1029 1032
f 1032 1086 1085
f 1029 1030 1032
f 1031 1086 1032
f 1087 1085 1086
f 1086 1031 968
f 1087 1086 968
f 968 1033 1087
f 967 1087 1033
f 1088 1085 1087
f 1037 1035 1038
f 965 1038 1035
f 1033 968 967
f 1032 1030 1031
f 1029 1021 969
f 1036 1038 964
f 682 961 683
f 960 927 933
f 927 928 933
f 956 926 924
f 954 924 922
f 281 286 918
f 753 917 752
f 771 752 787
f 789 777 785
f 776 780 781
f 776 1090 780
f 771 780 1090
f 776 767 775
f 772 771 774
f 751 771 768
f 771 751 752
f 751 768 1091
f 1091 768 1092
f 767 1092 768
f 766 1092 767
f 766 1091 1092
f 765 1091 766
f 751 1091 765
f 767 762 766
f 764 751 765
f 751 764 1095
f 764 1093 1095
f 1094 1093 764
f 1093 751 1095
f 1094 764 763
f 1096 1093 1094
f 759 1096 1097
f 761 1097 1096
f 759 751 1096
f 1096 751 1093
f 761 1096 1094
f 761 759 1097
f 763 761 1094
f 763 762 761
f 761 1098 755
f 1098 948 755
f 1098 747 948
f 1101 748 1100
f 1100 748 1099
f 1102 748 1101
f 746 743 1102
f 1102 743 748
f 761 755 756
f 693 675 691
f 675 686 687
f 675 684 686
f 1063 676 670
f 655 666 1103
f 656 655 1103
f 666 664 1103
f 1103 657 656
f 1103 664 657
f 658 657 664
f 659 650 652
f 641 645 642
f 1104 1106 613
f 1104 1107 1106
f 629 1106 1107
f 1107 630 629
f 1108 630 1107
f 1107 1104 1109
f 1108 1107 1109
f 1109 1104 1111
f 1108 1109 1110
f 1109 1111 1110
f 631 1111 1104
f 631 1112 1111
f 1108 1111 1113
f 1113 1111 1108
f 1110 1111 1113
f 1108 1110 1113
f 631 1108 1112
f 1108 631 630
f 621 612 1106
f 613 1106 612
f 631 1104 1105
f 632 631 1105
f 1114 902 608
f 608 1115 1114
f 1115 609 1114
f 618 1114 614
f 609 614 1114
f 614 616 618
f 607 606 609
f 609 606 594
f 606 607 605
f 595 594 606
f 605 604 595
f 595 604 596
f 604 599 596
f 325 601 604
f 601 325 326
f 601 326 1116
f 1116 602 603
f 601 1116 603
f 602 1116 1117
f 602 1118 487
f 602 1117 1118
f 1120 1119 1118
f 482 1120 1129
f 1120 482 1119
f 1129 1121 1122
f 1129 402 1121
f 1122 1121 1123
f 1128 1123 1124
f 1125 1124 1126
f 1124 1121 1126
f 1123 1121 1124
f 1124 1125 1128
f 1127 1125 1126
f 1127 1126 403
f 469 1127 468
f 401 403 1126
f 1126 1121 401
f 1128 479 480
f 1123 1128 1122
f 1128 480 1122
f 1122 480 481
f 1122 481 1129
f 1129 481 1289
f 1289 482 1129
f 472 479 1128
f 1125 470 1128
f 1128 470 472
f 401 1121 402
f 1129 1120 402
f 1118 400 1120
f 400 1117 1141
f 400 1118 1117
f 1132 400 1141
f 1141 1131 327
f 1130 1141 327
f 1132 1141 1130
f 1130 1133 1134
f 1134 1135 328
f 1133 1135 1134
f 1134 1139 1137
f 1134 328 1139
f 1137 1139 331
f 1137 331 1136
f 1136 387 1138
f 387 1136 331
f 387 388 1138
f 388 393 1138
f 1137 1136 1134
f 1133 327 1135
f 1130 327 1133
f 1140 400 1132
f 397 1140 396
f 1141 326 1131
f 1116 1141 1117
f 326 1141 1116
f 1120 400 402
f 1119 482 485
f 1118 1119 485
f 604 601 599
f 596 600 592
f 587 584 588
f 587 586 589
f 587 588 586
f 579 576 580
f 580 576 1142
f 577 580 1142
f 577 1142 576
f 575 576 579
f 577 576 1143
f 570 493 494
f 494 496 569
f 569 496 568
f 199 1145 200
f 199 218 1145
f 1146 1145 1144
f 1146 200 1145
f 1144 566 1146
f 1146 566 565
f 1146 565 1147
f 1146 1147 200
f 1147 565 561
f 1147 561 1148
f 1148 561 559
f 1148 559 558
f 558 1149 1148
f 1149 197 196
f 1150 197 1149
f 1149 558 1151
f 1150 1149 1151
f 196 1148 1149
f 558 1150 1151
f 551 197 1150
f 558 551 1150
f 562 561 565
f 563 562 565
f 496 500 568
f 568 500 564
f 499 564 500
f 502 564 499
f 1152 561 501
f 504 1152 501
f 559 561 1152
f 1152 508 510
f 508 1152 504
f 1152 510 559
f 525 560 510
f 559 510 560
f 525 510 509
f 526 556 525
f 556 526 1153
f 528 556 1153
f 553 556 528
f 528 1163 554
f 1161 1168 443
f 539 1161 443
f 1178 1163 1162
f 1160 1178 1162
f 1163 1165 1166
f 1166 554 1163
f 1168 1164 1167
f 1160 1162 1164
f 552 554 1166
f 1165 1163 1178
f 1165 1178 1169
f 1169 1173 1170
f 1173 1169 1171
f 1172 1173 1171
f 1174 1170 1173
f 1170 1174 547
f 547 1174 1175
f 1157 1174 1173
f 1156 1174 1157
f 1175 1176 541
f 1177 1176 540
f 541 1176 1177
f 1177 540 1211
f 1176 1174 1156
f 1176 1175 1174
f 1157 1173 1158
f 1158 1173 1172
f 1172 1159 1158
f 1171 1159 1172
f 1159 1171 1160
f 1160 1171 1178
f 1171 1169 1178
f 547 1175 541
f 1161 1164 1168
f 527 1155 1154
f 1154 1163 527
f 527 1163 528
f 1154 1155 1168
f 1154 1168 1167
f 548 1166 1165
f 1166 548 552
f 544 1179 1279
f 1181 1279 1179
f 1199 1183 1179
f 1198 1183 1182
f 1198 1180 1183
f 1180 1198 1193
f 1184 1180 1193
f 1184 1185 1180
f 1193 1186 1184
f 1190 1188 1187
f 1187 1184 1186
f 1185 1184 1187
f 246 1187 1188
f 246 1185 1187
f 245 1190 1189
f 246 1190 245
f 1190 246 1188
f 1194 1193 1197
f 1196 1195 1194
f 1196 1194 1197
f 1193 1198 1197
f 1182 1197 1198
f 1182 1196 1197
f 1199 1196 1182
f 543 1196 1199
f 1200 1196 543
f 1208 1196 1200
f 1195 1208 1201
f 1208 1195 1196
f 1202 1201 1203
f 1203 1204 1214
f 1213 1204 1205
f 1206 1205 1204
f 1207 370 1206
f 1207 1206 1203
f 1201 370 1207
f 370 1201 1208
f 1209 370 1208
f 1210 1209 435
f 1209 1210 370
f 375 1210 435
f 1208 1200 1209
f 435 1209 1200
f 1203 1201 1207
f 1206 370 1212
f 1230 1212 1229
f 1205 1212 1213
f 1213 1212 1215
f 1216 1217 1215
f 1218 1217 1216
f 1218 1216 1230
f 1222 1229 1220
f 367 1221 1220
f 1221 1227 1223
f 1225 1227 1221
f 1227 1225 234
f 234 1225 236
f 1226 1225 1221
f 1221 367 1226
f 366 1226 367
f 1228 1223 1227
f 1227 234 1228
f 1228 303 1223
f 1219 1229 1222
f 1219 1222 1231
f 368 367 1220
f 1218 1229 1219
f 1230 1229 1218
f 1215 1212 1230
f 1230 1216 1215
f 1218 1219 1236
f 1231 277 1232
f 277 269 1232
f 277 270 269
f 269 1231 1232
f 1235 1231 269
f 1235 269 1234
f 1219 1235 1236
f 1231 1235 1219
f 1274 1235 1273
f 1217 1237 1215
f 1245 1237 1238
f 1239 1245 1238
f 1239 1240 1245
f 1269 1239 1238
f 1239 1241 1240
f 1239 1269 1241
f 1242 1243 1246
f 1240 1242 1246
f 1243 1244 1246
f 1245 1240 1246
f 1215 1237 1245
f 1262 1247 1248
f 1248 1250 1262
f 1262 1250 1249
f 1251 1249 1250
f 1250 1252 1251
f 1246 1244 1252
f 1244 1253 1252
f 1253 1254 1255
f 1254 1244 1267
f 1254 1253 1244
f 1255 1256 1253
f 1251 1253 1256
f 1256 1255 1266
f 1251 1256 1266
f 1257 1249 1251
f 1257 1258 1263
f 1194 1195 1259
f 1257 1192 1258
f 1201 1259 1195
f 1259 1201 1260
f 1265 1261 1260
f 1261 1247 1262
f 1262 1263 1261
f 1249 1263 1262
f 1261 1263 1258
f 1263 1249 1257
f 1265 1247 1261
f 1260 1201 1202
f 1260 1202 1264
f 1202 1214 1264
f 1247 1265 1264
f 1264 1265 1260
f 1247 1264 1214
f 1247 1214 1248
f 1191 1192 1266
f 1191 1255 1254
f 1266 1255 1191
f 1267 1243 1242
f 1268 1267 1242
f 1192 1257 1266
f 1251 1266 1257
f 1243 1267 1244
f 1251 1252 1253
f 1242 1240 1241
f 1268 1242 1241
f 1269 1274 1276
f 1274 1273 1272
f 1271 1276 1274
f 1273 1235 1234
f 1275 1270 1272
f 1275 1272 1273
f 1270 1276 1271
f 1272 1270 1271
f 1275 1277 1270
f 1270 1277 265
f 1275 268 1277
f 265 1277 1278
f 1278 1277 268
f 1271 1274 1272
f 1274 1238 1237
f 1269 1238 1274
f 1203 1214 1202
f 370 1229 1212
f 1205 1206 1212
f 1206 1204 1203
f 543 437 1200
f 1199 1182 1183
f 544 1199 1179
f 246 1180 1185
f 240 215 1181
f 215 1279 1181
f 215 214 213
f 240 1280 215
f 1280 214 215
f 1153 526 522
f 525 509 524
f 522 451 537
f 1281 521 520
f 1281 452 521
f 521 452 451
f 1281 450 452
f 453 450 1282
f 1281 454 1282
f 450 1281 1282
f 521 523 520
f 1283 456 503
f 503 477 1283
f 503 474 477
f 477 474 473
f 477 463 1283
f 503 498 474
f 474 495 479
f 1284 495 1285
f 479 495 1284
f 1285 1286 1284
f 1285 1287 1286
f 1287 489 1288
f 1286 1287 1288
f 481 1288 1289
f 481 1286 1288
f 488 1288 489
f 1284 1286 479
f 1289 1288 483
f 1290 467 468
f 1290 466 467
f 1290 465 466
f 447 465 1290
f 464 466 465
f 462 458 463
f 449 448 532
f 446 448 465
f 444 445 1292
f 444 1292 1293
f 1292 1291 1293
f 1293 1291 1294
f 1293 1294 1296
f 1293 1296 1299
f 1299 1296 1297
f 1299 1297 1298
f 1299 1298 1300
f 1300 444 1299
f 1300 1298 1301
f 1300 1301 1302
f 1300 1302 1305
f 1305 1302 1303
f 1305 1303 1304
f 1306 444 1305
f 1305 1304 1306
f 1306 1304 1307
f 1306 1307 1308
f 1306 1308 1311
f 1311 1308 1309
f 1311 1309 1310
f 1312 444 1311
f 1311 1310 1312
f 1312 1310 1313
f 1312 1313 1314
f 1312 1314 1316
f 1316 1314 1315
f 444 1316 1317
f 444 1312 1316
f 1317 1316 1319
f 1316 1315 1318
f 1316 1318 1319
f 1319 1318 1320
f 1319 1320 1321
f 1319 1321 1323
f 1323 1321 1322
f 1317 1319 1323
f 1326 1317 1323
f 1323 1324 1326
f 1323 1322 1324
f 1326 1324 1325
f 1326 1325 1327
f 1326 1327 1330
f 1330 1327 1328
f 1330 1328 1329
f 1331 1317 1330
f 1330 1329 1331
f 1331 1329 1332
f 1331 1332 1333
f 1331 1333 1336
f 1336 1333 1334
f 1336 1334 1335
f 1337 1317 1336
f 1336 1335 1337
f 1337 1335 1338
f 1337 1338 1339
f 1337 1339 1341
f 1341 1339 1340
f 1341 1340 1342
f 1344 1342 1343
f 1341 1342 1344
f 1350 1341 1344
f 1317 1341 1350
f 1345 1317 1350
f 1346 1345 1350
f 1346 1350 1347
f 1350 1348 1347
f 1348 1350 1349
f 1350 1344 1351
f 1350 1352 1349
f 1349 1352 1353
f 1349 1353 1348
f 1348 1353 1355
f 1348 1355 1354
f 1347 1348 1354
f 1347 1354 1356
f 1346 1347 1356
f 1357 1346 1356
f 1357 1295 1358
f 1359 1358 1360
f 1360 1363 1359
f 1360 1358 1361
f 1362 1360 1361
f 1362 1363 1360
f 1363 1357 1359
f 1363 1364 1357
f 1363 1362 1364
f 1364 1365 1366
f 1362 1365 1364
f 1346 1364 1367
f 1364 1346 1357
f 1367 1364 1366
f 440 1367 439
f 1367 440 1346
f 439 1367 434
f 434 1367 1366
f 1365 1368 1366
f 1366 1368 432
f 1368 1369 1371
f 1368 1365 1369
f 1370 1368 1374
f 413 1368 1370
f 1368 1371 1373
f 404 1368 1372
f 1368 1373 1372
f 1368 404 1374
f 1368 413 432
f 1374 1375 1370
f 1375 1374 404
f 1391 404 1376
f 1369 1376 1377
f 1371 1369 1377
f 1377 1376 1371
f 1378 1376 404
f 1371 1376 1378
f 1378 404 1373
f 1373 1371 1378
f 1380 1391 1376
f 1379 1391 1380
f 1380 1376 1369
f 1369 1379 1380
f 1369 1365 1379
f 1381 1391 1379
f 1379 1365 1381
f 1365 1390 1381
f 1381 1390 1391
f 1382 1389 1390
f 1383 1389 1382
f 1382 1384 1383
f 1385 1383 1384
f 1384 1386 1385
f 1365 1384 1382
f 1365 1386 1384
f 1386 1389 1385
f 1388 1389 1386
f 1386 1362 1387
f 1386 1387 1388
f 1365 1362 1386
f 1387 1358 1388
f 1358 1389 1388
f 1391 1390 1389
f 1391 1389 1358
f 1362 1358 1393
f 1361 1358 1392
f 1358 1362 1392
f 1362 1361 1392
f 1393 1358 1387
f 1387 1362 1393
f 1385 1389 1383
f 1382 1390 1394
f 1365 1382 1394
f 1390 1365 1394
f 1396 1375 1395
f 1397 1375 1396
f 1398 1375 1397
f 1396 1398 1397
f 1399 1375 1398
f 413 1398 1396
f 1398 1370 1399
f 413 1370 1398
f 1370 1375 1399
f 413 1396 1395
f 1375 1400 1395
f 413 1395 1400
f 413 1400 1401
f 405 1400 1375
f 404 405 1375
f 1400 405 412
f 411 1400 412
f 406 408 405
f 1401 1400 411
f 411 413 1401
f 1373 404 1372
f 1358 1359 1357
f 1295 1357 1356
f 1350 1402 1352
f 1350 1403 1402
f 1351 1404 1403
f 1351 1403 1350
f 1351 1405 1404
f 1344 1343 1405
f 1344 1405 1351
f 1317 1337 1341
f 1336 1317 1331
f 1330 1317 1326
f 1345 444 1317
f 1311 444 1306
f 1305 444 1300
f 444 1293 1299
f 403 401 430
f 430 401 399
f 1140 398 400
f 1406 397 429
f 1406 398 397
f 376 395 391
f 390 391 394
f 394 392 390
f 379 393 385
f 393 379 392
f 388 385 393
f 377 391 390
f 391 377 376
f 385 1407 379
f 386 389 1407
f 389 1408 1407
f 381 389 386
f 336 334 384
f 381 382 364
f 368 366 367
f 368 378 366
f 378 1409 366
f 380 1409 378
f 368 374 378
f 374 368 369
f 374 369 371
f 239 1226 365
f 365 364 363
f 363 239 365
f 239 1411 1410
f 363 1411 239
f 1411 232 1410
f 344 341 383
f 327 318 1135
f 325 323 1131
f 1413 313 1412
f 315 1414 316
f 1413 321 320
f 1413 1412 321
f 290 288 295
f 290 312 313
f 312 290 292
f 363 304 1411
f 232 1228 234
f 294 283 284
f 291 293 299
f 288 289 287
f 275 277 1224
f 268 265 1278
f 264 261 260
f 264 262 261
f 236 263 235
f 251 261 256
f 254 252 256
f 251 256 252
f 252 250 251
f 252 237 250
f 248 1417 237
f 250 237 1417
f 248 1189 1417
f 245 248 241
f 238 239 1410
f 230 222 231
f 1071 226 227
f 219 1145 218
f 199 202 216
f 186 188 198
f 179 192 195
f 192 179 190
f 179 203 190
