v 0.011519 -0.047355 -0.039487
v 0.0094902 -0.048356 -0.040151
v -0.00011697 -0.04839 -0.041188
v -0.001013 -0.045396 -0.041054
v -0.011245 -0.048396 -0.039461
v -0.021735 -0.048395 -0.034983
v -0.027577 -0.046872 -0.030503
v -0.030209 -0.048396 -0.027865
v -0.030073 -0.045435 -0.028018
v -0.028372 -0.045567 -0.029711
v -0.031416 -0.047362 -0.026641
v -0.030353 -0.046811 -0.027706
v -0.036718 -0.048406 -0.019052
v -0.039193 -0.047396 -0.013112
v -0.04052 -0.048396 -0.008171
v -0.041435 -0.048396 -0.000737
v -0.041697 -0.046655 0.0028242
v -0.040357 -0.04838 0.010496
v -0.039802 -0.046895 0.01258
v -0.037919 -0.045411 0.018292
v -0.036211 -0.048396 0.020869
v -0.027611 -0.046851 0.031672
v -0.030064 -0.045472 0.029262
v -0.029183 -0.048392 0.030356
v -0.020627 -0.048396 0.03672
v -0.019455 -0.046851 0.03737
v 0.011478 -0.046906 -0.039526
v -0.0017501 -0.046805 -0.041055
v -0.013918 -0.046584 -0.038619
v -0.016965 -0.045446 -0.037365
v -0.041452 -0.045544 0.0017653
v -0.038833 -0.045425 0.015303
v -0.037535 -0.046525 0.018423
v -0.030845 -0.046863 0.028465
v -0.028374 -0.045567 0.030955
v 0.01317 -0.04685 -0.039576
v -0.012513 -0.046069 -0.039909
v -0.019063 -0.045332 0.041305
v -0.02045 -0.045187 0.044125
v -0.015583 -0.045315 -0.044646
v -0.020319 -0.045303 -0.042327
v 0.01262 -0.046924 -0.040367
v -0.037647 -0.045969 0.019839
v -0.0023243 -0.046821 -0.042951
v -0.0014577 -0.046461 -0.043145
v 0.012467 -0.048376 -0.040123
v -0.03975 -0.045302 0.017955
v -0.040568 -0.045303 0.020005
v -0.041927 -0.045294 -0.014471
v -0.040318 -0.045262 -0.015522
v -0.017735 -0.045374 -0.039443
v -0.019178 -0.045339 -0.04018
v -0.015941 -0.045253 -0.03983
v 0.015996 -0.045545 -0.044135
v 0.015381 -0.045291 -0.041776
v -0.012595 -0.044012 -0.040657
v -0.012874 -0.045398 -0.03987
v -0.03993 -0.046156 -0.012758
v -0.034838 -0.046942 -0.03042
v -0.040915 -0.043882 -0.020675
v -0.040646 -0.043795 0.013496
v -0.037991 -0.043765 0.020564
v -0.037773 -0.043858 0.019977
v -0.012909 -0.043809 -0.039949
v 0.013232 -0.045409 -0.039969
v 0.0148 -0.045473 -0.038824
v 0.012687 -0.046795 -0.040996
v 0.013115 -0.045405 -0.040911
v 0.013918 -0.046869 -0.038029
v 0.012851 -0.0463 -0.041438
v 0.012582 -0.046359 -0.041722
v 0.012564 -0.045401 -0.042232
v 0.012117 -0.046893 -0.041365
v 0.012271 -0.046277 -0.041988
v 0.012715 -0.046414 -0.041367
v 0.012618 -0.046474 -0.041468
v 0.012633 -0.046467 -0.041458
v 0.012643 -0.046462 -0.04145
v -0.029011 -0.046744 -0.032131
v 0.012971 -0.046896 -0.039602
v 0.01267 -0.046895 -0.040136
v 0.011779 -0.047146 -0.03872
v 0.012914 -0.046896 -0.039735
v 0.012861 -0.046887 -0.039838
v 0.012827 -0.046896 -0.039898
v -0.032533 -0.046744 0.02986
v -0.021217 -0.046823 0.038613
v -0.028673 -0.046856 0.033179
v -0.02174 -0.043783 -0.042346
v -0.018664 -0.045394 -0.037423
v -0.018995 -0.044031 -0.037333
v -0.019639 -0.043751 -0.037499
v -0.014617 -0.043756 -0.045299
v 0.013224 -0.043858 -0.040097
v 0.015013 -0.043851 -0.045314
v -0.021762 -0.043768 0.043594
v -0.01954 -0.043816 0.038612
v -0.012669 -0.04375 0.041714
v -0.042712 -0.043773 0.022631
v -0.045683 -0.043787 0.015443
v -0.045694 -0.043807 -0.014167
v -0.040606 -0.043773 -0.012284
v -0.038345 -0.043803 -0.017797
v -0.042707 -0.043751 -0.021393
v 0.0019576 -0.048396 -0.045932
v 0.0075605 -0.048396 -0.045425
v 0.0078486 -0.04812 -0.047071
v 0.0018118 -0.048351 -0.047428
v -0.021418 -0.046896 0.042116
v -0.021418 -0.045396 0.042312
v -0.035606 -0.045396 0.030516
v -0.034778 -0.046896 0.031482
v -0.04108 -0.045396 0.022065
v -0.04108 -0.046896 0.022065
v -0.044188 -0.046896 0.014662
v -0.044157 -0.045396 0.014675
v -0.044313 -0.045396 -0.011586
v -0.044158 -0.046896 -0.013419
v -0.013779 -0.046896 -0.044197
v -0.013816 -0.045396 -0.043757
v -0.006873 -0.045396 -0.045383
v 0.0018325 -0.046896 -0.04598
v 0.0016951 -0.045394 -0.045951
v 0.0028511 -0.047914 -0.045872
v 0.0066163 -0.047843 -0.04549
v 0.007675 -0.045396 -0.045331
v 0.014289 -0.045396 -0.043757
v 0.014289 -0.046896 -0.043757
v 0.0014393 -0.045401 -0.043912
v 0.0018298 -0.046811 -0.043832
v -0.033826 -0.046874 -0.031346
v -0.033538 -0.045398 -0.031413
v -0.021368 -0.045396 -0.040974
v -0.021207 -0.046896 -0.040696
v -0.034875 -0.047362 -0.030083
v -0.038431 -0.047229 -0.025742
v -0.037283 -0.046826 -0.02986
v -0.041209 -0.047109 -0.021006
v -0.040519 -0.045341 -0.018713
v -0.042818 -0.048256 -0.020954
v -0.042758 -0.047699 -0.0201
v -0.04087 -0.04832 -0.019861
v -0.040536 -0.047743 -0.018989
v -0.0407 -0.048063 -0.014949
v -0.039994 -0.048361 -0.015165
v -0.042464 -0.048223 -0.014324
v -0.039589 -0.048196 -0.016964
v -0.045302 -0.0484 -0.014535
v -0.045376 -0.048085 -0.015018
v -0.044871 -0.047955 -0.01529
v -0.045253 -0.047996 0.016517
v -0.045044 -0.04529 0.016641
v -0.045105 -0.048381 0.016185
v -0.040564 -0.04763 0.020156
v -0.040336 -0.048291 0.020858
v -0.039677 -0.048222 0.018653
v -0.042701 -0.048363 0.022099
v -0.042378 -0.048251 0.01553
v -0.040159 -0.048248 0.016608
v -0.042641 -0.047911 0.02132
v -0.043007 -0.045281 0.02149
v 0.015464 -0.048364 -0.044807
v 0.015964 -0.047588 -0.044196
v -0.014526 -0.046902 -0.045353
v -0.015029 -0.048306 -0.044967
v -0.015494 -0.04781 -0.044502
v -0.01477 -0.047677 -0.042014
v -0.019199 -0.048181 -0.039792
v -0.014181 -0.048298 -0.041305
v -0.016899 -0.048259 -0.03926
v -0.020445 -0.047625 -0.042319
v -0.021221 -0.048315 -0.042413
v -0.021813 -0.046888 -0.042313
v -0.020548 -0.045427 0.043772
v -0.020463 -0.047805 0.043571
v -0.042959 -0.04533 -0.02023
v -0.045103 -0.045261 -0.015399
v -0.021068 -0.045166 -0.042597
v -0.019343 -0.047715 0.04141
v -0.040775 -0.045267 0.016308
v -0.014908 -0.04528 -0.041617
v -0.045812 -0.046889 0.015233
v -0.04589 -0.048187 -0.012798
v -0.045954 -0.048115 -0.0012862
v -0.045701 -0.048346 0.0017654
v -0.045894 -0.048191 0.014005
v 0.015507 -0.047979 -0.045151
v -0.038383 -0.048162 -0.0284
v -0.024411 -0.048243 -0.040802
v -0.034956 -0.048345 -0.032218
v -0.030136 -0.048287 -0.036841
v -0.026505 -0.048192 0.040768
v -0.038808 -0.048304 0.028848
v -0.021372 -0.048281 0.043652
v -0.032818 -0.048283 0.035729
v -0.037367 -0.046939 0.03103
v -0.042656 -0.046896 -0.021475
v -0.027997 -0.046903 -0.038614
v -0.042914 -0.047911 0.022351
v -0.021921 -0.046885 0.043588
v -0.030184 -0.046896 0.038073
v 0.0072158 -0.04601 -0.043344
v 0.014947 -0.046894 -0.045357
v -0.0035412 -0.048213 -0.047459
v -0.010026 -0.048309 -0.046463
v 0.0017141 -0.046895 -0.047958
v -0.03006 -0.045406 0.033402
v -0.032267 -0.045419 0.030924
v -0.038652 -0.045394 0.021132
v -0.021405 -0.045481 0.039652
v -0.038774 -0.045405 0.022384
v -0.044097 -0.045396 -0.013361
v -0.040988 -0.045422 0.01346
v -0.042363 -0.045401 0.0027149
v -0.041439 -0.045421 -0.0005703
v -0.042331 -0.045397 -0.0013955
v -0.042345 -0.045403 -0.011276
v -0.04163 -0.045405 -0.012238
v -0.042339 -0.045402 0.012722
v -0.038242 -0.047396 -0.017869
v -0.030052 -0.045429 -0.031901
v -0.020281 -0.045393 -0.038259
v -0.021575 -0.045402 -0.038392
v -0.014361 -0.045406 -0.03855
v -0.019312 -0.046798 -0.036309
v -0.020829 -0.04665 -0.037871
v 0.0013948 -0.045488 -0.041063
v -0.012706 -0.045391 -0.041806
v -0.0010469 -0.045406 -0.043306
v -0.037787 -0.045858 0.020547
v -0.040513 -0.045966 -0.01223
v -0.019612 -0.045964 -0.037303
v -0.039573 -0.047374 -0.014
v 0.0064871 -0.046906 -0.040635
v 0.0073135 -0.04685 -0.045382
v 0.0017907 -0.046814 -0.041041
v 0.016019 -0.045275 -0.044761
v -0.039819 -0.045208 -0.017157
v -0.042435 -0.045292 0.015785
v 0.012748 -0.048396 -0.038423
v -0.011811 -0.046827 -0.039448
v -0.012162 -0.046612 -0.041403
v -0.011802 -0.04645 -0.042001
v -0.0019017 -0.045509 -0.044004
v -0.02967 -0.046327 -0.03162
v -0.021405 -0.046466 -0.038013
v -0.017931 -0.046411 -0.037262
v -0.03943 -0.046714 -0.012466
v -0.041824 -0.046645 -0.01113
v -0.041554 -0.046396 -0.011833
v -0.042107 -0.04623 -0.0014405
v -0.041491 -0.046784 -0.0016667
v -0.041739 -0.046693 0.01229
v -0.04178 -0.046304 0.013071
v -0.040262 -0.046027 0.01357
v -0.039091 -0.046564 0.014674
v -0.032036 -0.046455 0.030431
v -0.038284 -0.04654 0.022273
v -0.038561 -0.046252 0.021553
v -0.03755 -0.046863 0.021736
v -0.036492 -0.046852 0.020436
v -0.017056 -0.045396 0.03856
v -0.017717 -0.046561 0.038251
v -0.019478 -0.046257 0.038367
v -0.020261 -0.045403 0.039469
v -0.020627 -0.046402 0.039242
v -0.029309 -0.046481 0.033599
v -0.029613 -0.046299 0.032663
v 0.012732 -0.046894 -0.04005
v 0.014479 -0.046379 -0.038105
v 0.012834 -0.046619 -0.04012
v 0.0069482 -0.046797 -0.042503
v 0.014081 -0.046869 -0.039114
v 0.015403 -0.047776 -0.040952
v 0.013112 -0.043756 -0.040474
v 0.019144 -0.04384 -0.037584
v 0.022236 -0.043755 -0.042351
v 0.014474 -0.048331 -0.04162
v -0.020076 -0.048329 0.041175
v -0.017174 -0.048245 0.040439
v 0.021433 -0.04517 -0.042641
v -0.017072 -0.045257 0.040662
v 0.027078 -0.048396 -0.02756
v 0.014763 -0.045396 -0.037719
v 0.018263 -0.045392 -0.037766
v -0.018207 -0.04555 0.03893
v 0.016318 -0.045328 -0.039877
v 0.038009 -0.046844 -0.02062
v -0.013549 -0.046859 0.040371
v 0.013071 -0.045838 0.041288
v 0.012395 -0.046759 0.040826
v -0.014927 -0.045321 0.043375
v 0.038092 -0.045798 -0.018878
v 0.030241 -0.045873 -0.027318
v 0.002987 -0.046896 0.041528
v 0.0027451 -0.046844 0.044169
v 0.014268 -0.046554 0.040029
v 0.01592 -0.045396 0.038482
v -0.010386 -0.048367 0.042118
v -0.009605 -0.046896 0.040422
v -0.012267 -0.048396 0.040396
v -0.010141 -0.047156 0.040862
v -0.010768 -0.046896 0.040837
v 0.042387 -0.045265 0.015721
v 0.04075 -0.045368 0.01676
v 0.040271 -0.045264 0.01829
v 0.015941 -0.045274 0.041605
v 0.017596 -0.045274 0.040631
v 0.019641 -0.045296 0.041448
v 0.013131 -0.043784 0.041595
v 0.041039 -0.045403 0.01347
v 0.019656 -0.047659 0.041215
v 0.01602 -0.04526 0.046008
v 0.035076 -0.046971 0.031433
v 0.041452 -0.043917 0.021986
v 0.040855 -0.043882 -0.012441
v 0.041428 -0.043768 -0.012292
v 0.038349 -0.043773 -0.019239
v -0.013618 -0.046882 0.039946
v -0.014363 -0.045396 0.039676
v -0.012846 -0.045419 0.041125
v -0.013966 -0.045704 0.040384
v -0.012653 -0.045402 0.042199
v -0.012201 -0.046268 0.043102
v -0.01209 -0.045401 0.043474
v -0.012304 -0.046415 0.042409
v 0.028331 -0.045396 0.030483
v 0.027982 -0.046421 0.030806
v -0.001613 -0.046896 0.045133
v -0.012497 -0.046896 0.040844
v -0.012167 -0.046896 0.041413
v -0.0013517 -0.046683 0.041589
v -0.012587 -0.046846 0.040864
v -0.012424 -0.046896 0.04101
v -0.012353 -0.046896 0.041141
v -0.011762 -0.0469 0.042552
v -0.0061559 -0.046932 0.042491
v 0.041816 -0.04683 0.0031601
v 0.041166 -0.046796 0.002996
v 0.042015 -0.046769 -0.0018553
v 0.038913 -0.046658 -0.012976
v 0.031107 -0.046896 -0.02636
v 0.029265 -0.046814 -0.031997
v 0.018095 -0.046796 -0.036284
v 0.013833 -0.046657 0.039297
v 0.022272 -0.043819 0.04361
v 0.019338 -0.043861 0.038666
v 0.020155 -0.043789 0.038739
v 0.013532 -0.044039 0.041062
v 0.015021 -0.04378 0.046553
v -0.012888 -0.043854 0.04124
v -0.014606 -0.043801 0.046535
v 0.020122 -0.043808 -0.037469
v 0.043185 -0.043773 -0.021389
v 0.038258 -0.043872 -0.018714
v 0.046164 -0.043774 -0.01418
v 0.041474 -0.044035 0.013436
v 0.046158 -0.043792 0.01544
v 0.040853 -0.043761 0.013766
v 0.038863 -0.043746 0.019097
v 0.043169 -0.043763 0.022647
v -0.0013629 -0.048395 0.047212
v -0.0070867 -0.048396 0.046667
v -0.0074386 -0.046895 0.048231
v 0.03059 -0.046896 -0.034778
v 0.02168 -0.046896 -0.040696
v 0.021891 -0.045396 -0.04107
v 0.03608 -0.045396 -0.029274
v 0.041554 -0.045396 -0.020822
v 0.041839 -0.046896 -0.021159
v 0.044662 -0.046896 -0.01342
v 0.044631 -0.045396 -0.013433
v 0.044661 -0.045396 0.014685
v 0.044632 -0.046896 0.014661
v 0.014252 -0.046896 0.045439
v 0.014289 -0.045396 0.044999
v 0.007346 -0.045396 0.046625
v -0.0014596 -0.046873 0.047179
v -0.0012212 -0.045394 0.047193
v -0.007202 -0.045396 0.046573
v -0.013816 -0.045396 0.044999
v -0.013816 -0.046896 0.044999
v -0.0023163 -0.047847 0.047104
v -0.0061435 -0.047853 0.046735
v -0.001013 -0.045396 0.045154
v -0.001037 -0.045396 0.045153
v 0.034295 -0.046876 0.032592
v 0.034012 -0.045398 0.032655
v 0.021841 -0.045396 0.042216
v 0.02168 -0.046896 0.041938
v 0.03119 -0.047179 0.027507
v 0.035307 -0.0474 0.03134
v 0.035971 -0.047042 0.031133
v 0.041802 -0.046977 0.022216
v 0.041696 -0.047338 0.022446
v 0.043416 -0.047995 0.021824
v 0.043055 -0.047533 0.021157
v 0.043253 -0.048307 0.022142
v 0.040989 -0.047809 0.02023
v 0.040657 -0.048335 0.020808
v 0.042859 -0.048251 0.015518
v 0.040161 -0.048222 0.018742
v 0.040556 -0.04828 0.016696
v 0.045289 -0.047998 0.016501
v 0.045865 -0.048084 0.016247
v 0.043336 -0.045266 -0.014685
v 0.045517 -0.04529 -0.015399
v 0.045934 -0.048119 -0.014928
v 0.045163 -0.047803 -0.015286
v 0.045577 -0.04837 -0.014909
v 0.040553 -0.047924 -0.0157
v 0.040251 -0.048342 -0.015953
v 0.041085 -0.047974 -0.019204
v 0.039991 -0.048399 -0.019706
v 0.042852 -0.048115 -0.014366
v 0.041894 -0.048391 -0.013866
v 0.041114 -0.048204 -0.014961
v 0.040187 -0.048116 -0.017382
v 0.043208 -0.047659 -0.020075
v 0.043295 -0.048268 -0.020866
v -0.015394 -0.047942 0.046091
v -0.015371 -0.047461 0.044928
v -0.014867 -0.048305 0.04637
v -0.014446 -0.044956 0.046652
v 0.015139 -0.045046 0.046512
v 0.015397 -0.048341 0.04621
v 0.015966 -0.047762 0.045526
v 0.015419 -0.04809 0.046441
v 0.015236 -0.047679 0.043324
v 0.016303 -0.048211 0.040996
v 0.014533 -0.048333 0.043103
v 0.019204 -0.048258 0.040472
v 0.021101 -0.047909 0.04367
v 0.021735 -0.048308 0.043694
v 0.021719 -0.047963 -0.042581
v 0.020825 -0.047921 -0.042115
v 0.045498 -0.045196 0.016901
v 0.04348 -0.045199 0.021723
v 0.045437 -0.04532 0.016613
v 0.04588 -0.045061 0.016216
v 0.04359 -0.045046 0.021801
v 0.020641 -0.04513 0.04434
v 0.043517 -0.045252 -0.020113
v 0.043451 -0.045276 -0.020374
v 0.0185 -0.045256 -0.039479
v 0.01969 -0.047723 -0.039999
v 0.040431 -0.045341 -0.018026
v 0.042177 -0.045601 -0.014551
v 0.043703 -0.045196 0.02118
v 0.015378 -0.045297 0.04307
v 0.015989 -0.045591 0.045441
v 0.046286 -0.046889 -0.013991
v 0.045515 -0.048397 0.015944
v 0.046177 -0.048369 0.012308
v 0.046353 -0.048225 0.014049
v 0.04616 -0.048375 -0.01095
v 0.046306 -0.04826 -0.0024307
v 0.046328 -0.048237 0.0029098
v 0.046454 -0.048021 0.0017655
v 0.045987 -0.048396 0.0036726
v 0.046454 -0.048021 0.007487
v 0.046415 -0.048118 -0.012599
v -0.0073587 -0.048285 0.048188
v 0.032343 -0.048249 0.036565
v 0.027314 -0.048268 0.0405
v 0.03624 -0.048359 0.032596
v 0.040366 -0.048179 0.027417
v 0.0218 -0.048363 -0.042211
v 0.04009 -0.048183 -0.02663
v 0.033767 -0.048347 -0.034028
v 0.027768 -0.048277 -0.038933
v 0.043271 -0.04691 0.022991
v 0.022363 -0.04688 0.043549
v 0.033577 -0.046848 0.035638
v 0.022394 -0.046885 -0.042346
v 0.043283 -0.046886 -0.02164
v 0.033512 -0.046897 -0.034484
v -0.0065746 -0.046458 0.044247
v -0.014473 -0.046894 0.046599
v -0.0013835 -0.048348 0.048791
v 0.0059902 -0.048294 0.048486
v 0.014951 -0.04689 0.046641
v -0.0012416 -0.046895 0.0492
v 0.039045 -0.045409 -0.01987
v 0.030432 -0.045423 -0.03222
v 0.028258 -0.045771 -0.029309
v 0.03925 -0.045402 -0.02119
v 0.020672 -0.045472 -0.038131
v 0.022001 -0.045405 -0.038389
v 0.038098 -0.045396 -0.015061
v 0.039682 -0.045397 -0.013912
v 0.038467 -0.045398 -0.017063
v 0.042598 -0.045414 0.0020734
v 0.042818 -0.045402 -0.011277
v 0.041214 -0.045771 -0.0007295
v 0.042813 -0.045402 0.012722
v 0.042056 -0.045395 -0.012267
v 0.042514 -0.045418 -0.00079194
v 0.040119 -0.047371 0.014791
v 0.038716 -0.047396 0.019111
v 0.03912 -0.047163 0.013623
v 0.030098 -0.045396 0.028715
v 0.030254 -0.046632 0.028547
v 0.030391 -0.045407 0.032593
v 0.03011 -0.045405 0.033834
v 0.014602 -0.045393 0.040544
v 0.018289 -0.045389 0.038996
v 0.020629 -0.04682 0.037857
v -0.001013 -0.045396 0.041602
v 0.001958 -0.046415 0.041584
v 0.013236 -0.045392 0.04262
v 0.019885 -0.045903 0.03845
v -0.0016257 -0.046908 0.045124
v -0.0067465 -0.046866 0.046622
v -0.0013709 -0.046855 0.042244
v -0.015601 -0.045354 0.045734
v 0.020966 -0.045451 0.043685
v 0.040997 -0.04534 0.019958
v 0.043098 -0.045382 0.021154
v 0.040627 -0.045236 -0.015722
v 0.020922 -0.045279 -0.042524
v 0.012552 -0.046616 0.042791
v 0.012533 -0.045481 0.043523
v 0.0025981 -0.045404 0.045229
v 0.0018852 -0.046357 0.04448
v 0.0025517 -0.046519 0.044851
v 0.0015225 -0.045406 0.044552
v 0.030142 -0.046328 0.032865
v 0.029558 -0.046727 0.033453
v 0.021552 -0.046651 0.039015
v 0.021877 -0.045481 0.039653
v 0.020831 -0.045449 0.039604
v 0.018248 -0.046526 0.038454
v 0.018095 -0.046796 0.037526
v 0.040298 -0.046206 0.01432
v 0.040645 -0.046054 0.013522
v 0.039735 -0.04679 0.013783
v 0.041822 -0.046468 0.013106
v 0.042399 -0.046529 0.012459
v 0.042383 -0.046467 0.0025575
v 0.041217 -0.045396 0.001871
v 0.041188 -0.046695 -0.001379
v 0.041899 -0.04648 -0.00101
v 0.042861 -0.045537 -0.0015773
v 0.042373 -0.046494 -0.011087
v 0.042243 -0.046298 -0.011846
v 0.040828 -0.045753 -0.012327
v 0.041271 -0.046845 -0.011045
v 0.039808 -0.046493 -0.013388
v 0.032755 -0.046784 -0.028675
v 0.032256 -0.045476 -0.029596
v 0.033346 -0.045453 -0.029321
v 0.038871 -0.046466 -0.021021
v 0.038945 -0.046262 -0.020195
v 0.037917 -0.046606 -0.017256
v 0.037199 -0.046657 -0.017112
v 0.019878 -0.045921 -0.03719
v 0.017076 -0.045396 -0.036761
v 0.018186 -0.046612 -0.037077
v 0.021368 -0.04677 -0.037491
v 0.0218 -0.046441 -0.03808
v 0.030175 -0.046295 -0.031578
v 0.027779 -0.046695 -0.02975
v -0.0010802 -0.046606 0.045106
v -0.001314 -0.046816 0.044874
v -0.0078435 -0.046885 0.04351
v -0.015275 -0.045254 0.041826
v -0.014831 -0.048197 0.042118
v -0.014418 -0.048342 0.044432
v 0.020505 -0.048351 -0.039826
v 0.01746 -0.048254 -0.039245
v -0.008618 -0.048396 0.040653
v 0.022404 -0.048396 0.029071
v 0.019677 -0.045319 -0.040276
v -0.044349 -0.046876 0.01468
v -0.044435 -0.035196 0.014152
v -0.043358 -0.035196 0.01587
v -0.044256 -0.043515 0.01492
v -0.041343 -0.043613 0.01611
v -0.044513 -0.035196 -0.011337
v -0.040716 -0.035196 0.016647
v -0.017946 -0.035196 0.040941
v -0.044432 -0.046894 -0.012923
v 0.040642 -0.035196 0.018416
v -0.041142 -0.035196 -0.015022
v -0.016359 -0.035196 0.041421
v -0.043417 -0.035196 -0.014526
v -0.044224 -0.035196 -0.013591
v -0.043408 -0.043594 -0.014678
v -0.04155 -0.035196 -0.014775
v -0.041245 -0.043553 -0.014953
v -0.040873 -0.035197 -0.015433
v -0.039987 -0.041696 -0.017791
v -0.039032 -0.036821 -0.019688
v -0.041675 -0.041696 -0.019871
v -0.04184 -0.043555 -0.019861
v -0.041564 -0.041696 -0.021407
v -0.041715 -0.041696 -0.020702
v -0.041729 -0.043597 -0.021088
v -0.042645 -0.04357 -0.021476
v -0.045702 -0.043597 -0.014121
v -0.045817 -0.046889 -0.013993
v -0.044279 -0.046854 -0.013441
v -0.043232 -0.04357 0.015946
v -0.045681 -0.043601 0.015387
v -0.042643 -0.043571 0.022718
v -0.040085 -0.043466 0.019189
v -0.040157 -0.035196 0.019195
v -0.03497 -0.035196 0.0316
v -0.022602 -0.035196 0.041492
v -0.018559 -0.035196 0.041114
v -0.018265 -0.043575 0.040934
v -0.014953 -0.043577 0.044461
v -0.019462 -0.043541 0.042139
v -0.020659 -0.043459 0.042348
v -0.021853 -0.043758 0.04341
v -0.021932 -0.046816 0.043479
v -0.014469 -0.043396 0.046576
v -0.014409 -0.046758 0.046594
v -0.014409 -0.041046 0.046594
v -0.007076 -0.041046 0.048314
v -0.014307 -0.020912 0.046556
v -0.0070767 -0.035196 0.048314
v -0.015918 -0.035196 0.046286
v -0.021386 -0.021196 0.043755
v -0.0070639 -0.021012 0.048236
v 0.0029426 -0.020875 0.048818
v 0.015566 -0.020799 0.04627
v 0.022212 -0.021196 0.043576
v 0.028631 -0.021044 0.039588
v 0.034355 -0.021196 0.034739
v 0.038639 -0.020808 0.029712
v 0.04305 -0.020973 0.02279
v 0.046487 -0.021196 0.012828
v 0.045868 -0.020697 0.015625
v 0.046158 -0.043558 0.015355
v 0.046291 -0.046889 0.015236
v 0.04476 -0.043583 -0.013499
v 0.044803 -0.046873 -0.01344
v 0.044987 -0.035196 -0.011337
v 0.044236 -0.035197 -0.014398
v 0.043895 -0.043574 -0.014641
v 0.04617 -0.043598 -0.014123
v 0.041815 -0.043591 -0.019166
v 0.043113 -0.043573 -0.021472
v 0.04308 -0.046868 -0.021579
v 0.041806 -0.046862 -0.021029
v 0.041909 -0.04344 -0.020745
v 0.040558 -0.043555 -0.017901
v 0.044987 -0.035196 0.012579
v 0.040558 -0.035196 -0.017443
v 0.04063 -0.035196 -0.017953
v 0.01842 -0.035196 -0.039699
v -0.015751 -0.035196 -0.040532
v 0.019101 -0.035196 -0.03997
v 0.030797 -0.035196 -0.034986
v 0.0279 -0.041046 -0.037066
v 0.021867 -0.041007 -0.040824
v 0.020856 -0.035196 -0.041143
v 0.01868 -0.043599 -0.039747
v 0.0204 -0.043523 -0.041091
v 0.021756 -0.043396 -0.040878
v 0.021756 -0.046696 -0.040878
v 0.022405 -0.046816 -0.042237
v 0.021867 -0.046819 -0.040824
v 0.021935 -0.046896 -0.040788
v 0.036984 -0.046896 -0.030873
v 0.031737 -0.046896 -0.034048
v 0.037924 -0.041046 -0.027042
v 0.041109 -0.035196 -0.022216
v 0.041974 -0.035196 -0.019383
v 0.033725 -0.021061 -0.034164
v 0.02811 -0.046889 -0.038753
v 0.02324 -0.021113 -0.041876
v 0.014663 -0.021097 -0.045435
v 0.007551 -0.041046 -0.047071
v 0.014884 -0.041046 -0.045352
v 0.022331 -0.043731 -0.042197
v 0.014942 -0.043396 -0.045333
v 0.014884 -0.046757 -0.045352
v 0.014902 -0.046804 -0.045355
v 0.000237 -0.046896 -0.046395
v 0.014365 -0.046696 -0.043939
v 0.007551 -0.046896 -0.047071
v 0.013744 -0.047203 -0.044268
v 0.014248 -0.041007 -0.04398
v 0.0029585 -0.035196 -0.046164
v 0.015446 -0.035196 -0.043171
v 0.015843 -0.035196 -0.040796
v -0.014916 -0.035196 -0.043221
v -0.006851 -0.035196 -0.045589
v -0.015406 -0.035196 -0.040757
v -0.018157 -0.043561 -0.039704
v -0.01985 -0.043578 -0.041114
v -0.021287 -0.043536 -0.040912
v -0.021282 -0.046696 -0.040878
v -0.01999 -0.035197 -0.0411
v -0.02246 -0.035195 -0.040334
v -0.021461 -0.046896 -0.040788
v -0.028442 -0.046894 -0.036407
v -0.034518 -0.046896 -0.030646
v -0.033881 -0.046896 -0.033497
v -0.022097 -0.046893 -0.042352
v -0.03372 -0.041696 -0.031186
v -0.034518 -0.041696 -0.030646
v -0.034533 -0.046896 -0.030649
v -0.034533 -0.041046 -0.030649
v -0.03393 -0.041696 -0.030329
v -0.032712 -0.03909 -0.028785
v -0.033167 -0.041696 -0.028472
v -0.032972 -0.035196 -0.028579
v -0.033207 -0.035196 -0.028562
v -0.033424 -0.035196 -0.028656
v -0.032549 -0.035196 -0.028948
v -0.032405 -0.035196 -0.029376
v -0.018796 -0.035196 -0.04015
v -0.018459 -0.035196 -0.039832
v -0.018014 -0.035196 -0.039701
v -0.017558 -0.035196 -0.039784
v -0.032311 -0.041696 -0.0292
v -0.03356 -0.035196 -0.031617
v -0.03277 -0.035704 -0.028702
v -0.03275 -0.035196 -0.028723
v -0.03277 -0.035196 -0.028702
v -0.039032 -0.035196 -0.019688
v -0.039086 -0.035196 -0.019451
v -0.039096 -0.035196 -0.019923
v -0.039435 -0.037227 -0.020158
v -0.040961 -0.035196 -0.019939
v -0.039493 -0.035196 -0.020177
v -0.039262 -0.035196 -0.0201
v -0.038809 -0.035196 -0.025985
v -0.041726 -0.035196 -0.020929
v -0.03881 -0.041046 -0.025986
v -0.035555 -0.041046 -0.030222
v -0.041707 -0.046891 -0.02126
v -0.04263 -0.046823 -0.021524
v -0.038697 -0.046896 -0.027878
v -0.035239 -0.046896 -0.030553
v -0.038685 -0.041014 -0.027898
v -0.028136 -0.041075 -0.03841
v -0.021843 -0.043399 -0.042261
v -0.025339 -0.021162 -0.040492
v -0.029192 -0.020693 -0.037119
v -0.015267 -0.020827 -0.045043
v -0.0090586 -0.020699 -0.046429
v 0.00087421 -0.021105 -0.047632
v -0.0067074 -0.021188 -0.047152
v -0.007467 -0.041046 -0.04701
v -0.015378 -0.04346 -0.04506
v -0.0020952 -0.046896 -0.047629
v -0.014451 -0.043536 -0.045297
v -0.021777 -0.043696 -0.042098
v -0.015141 -0.043576 -0.04276
v -0.014111 -0.04351 -0.043913
v -0.013775 -0.041007 -0.04398
v -0.013406 -0.047056 -0.044235
v -0.013891 -0.046696 -0.043939
v -0.014393 -0.046816 -0.045362
v -0.015243 -0.043563 -0.04091
v -0.045513 -0.020696 0.000621
v -0.033602 -0.021041 0.034961
v -0.027288 -0.020785 0.040177
v -0.038853 -0.020856 0.028814
v -0.045016 -0.020696 0.015859
v -0.045513 -0.020696 0.006724
v -0.045922 -0.021194 0.014504
v -0.046013 -0.021196 -0.0024305
v -0.045355 -0.020693 -0.013386
v -0.045766 -0.021201 -0.01389
v -0.042957 -0.021209 -0.020978
v -0.042036 -0.020696 -0.021835
v -0.033812 -0.021177 -0.033605
v -0.042537 -0.021196 0.022948
v -0.038541 -0.046896 0.029332
v -0.042606 -0.046868 0.022821
v -0.034906 -0.046896 0.031636
v -0.041173 -0.046896 0.022319
v -0.041262 -0.046696 0.02214
v -0.041208 -0.046819 0.022251
v -0.041262 -0.043396 0.02214
v -0.041208 -0.041007 0.022251
v -0.03745 -0.041046 0.028284
v -0.027427 -0.041046 0.038308
v -0.033599 -0.046896 0.035018
v -0.021413 -0.046862 0.042191
v -0.027502 -0.046894 0.040135
v -0.019905 -0.035196 0.042428
v -0.041449 -0.043572 0.020625
v -0.041557 -0.035196 0.020722
v -0.041396 -0.04356 0.022185
v 0.0076726 -0.021096 -0.047047
v -0.035554 -0.046895 -0.03022
v -0.035554 -0.041205 -0.030221
v -0.035424 -0.041046 -0.030373
v -0.035551 -0.041137 -0.030217
v -0.035553 -0.040954 -0.030219
v -0.035325 -0.035196 -0.030483
v -0.035553 -0.038281 -0.03022
v -0.035554 -0.035196 -0.030221
v -0.033934 -0.035196 -0.030239
v -0.033407 -0.03804 -0.028678
v -0.039026 -0.041696 -0.019903
v 0.016292 -0.035196 -0.040392
v 0.015535 -0.043569 -0.043029
v 0.014365 -0.043396 -0.043939
v 0.014716 -0.04382 -0.044856
v 0.015703 -0.043537 -0.040925
v 0.039348 -0.021196 -0.027699
v 0.046318 -0.021162 -0.013653
v 0.045987 -0.020696 -0.00090425
v 0.043278 -0.021185 -0.021239
v 0.041808 -0.043551 -0.014861
v 0.041688 -0.035196 -0.014873
v 0.044263 -0.035196 0.015626
v 0.041711 -0.035196 0.016089
v 0.044713 -0.043523 0.014935
v 0.043801 -0.043613 0.015992
v 0.044826 -0.046873 0.014682
v 0.043119 -0.043619 0.022706
v 0.041767 -0.043559 0.016105
v 0.041917 -0.043551 0.020626
v 0.041975 -0.035196 0.020921
v 0.03608 -0.035196 0.030863
v 0.04069 -0.035196 0.019317
v 0.040559 -0.035196 0.018872
v 0.018488 -0.035196 0.040943
v 0.018932 -0.035196 0.041074
v 0.0205 -0.035196 0.042424
v 0.022935 -0.035195 0.041576
v 0.021797 -0.046809 0.042105
v 0.021761 -0.043536 0.042154
v 0.029773 -0.046893 0.03704
v 0.022406 -0.046816 0.043481
v 0.033183 -0.046896 0.035971
v 0.03937 -0.046892 0.028875
v 0.041754 -0.046896 0.022361
v 0.043115 -0.046801 0.022763
v 0.041752 -0.043525 0.02214
v 0.029691 -0.035315 0.038747
v 0.022217 -0.035203 0.043545
v 0.015261 -0.035196 0.046472
v 0.0069489 -0.035288 0.048348
v 0.0024978 -0.046896 0.048903
v 0.014867 -0.046816 0.046604
v 0.00043479 -0.035196 0.048871
v 0.01497 -0.043505 0.046595
v 0.014365 -0.046696 0.045181
v 0.014365 -0.043396 0.045181
v 0.014581 -0.04355 0.045226
v 0.014248 -0.041007 0.045222
v 0.013881 -0.047056 0.045477
v 0.0029585 -0.035196 0.047406
v 0.015377 -0.035196 0.044535
v 0.015629 -0.035196 0.04242
v -0.01537 -0.035196 0.042038
v 0.016225 -0.035196 0.041775
v 0.01588 -0.035196 0.042
v 0.015723 -0.043565 0.04215
v 0.018647 -0.043556 0.04094
v 0.018032 -0.035196 0.041026
v 0.020392 -0.043553 0.042327
v 0.022308 -0.043628 0.043452
v 0.015569 -0.043583 0.044077
v -0.012131 -0.035195 0.045842
v -0.015147 -0.035196 0.042447
v -0.014978 -0.035196 0.044426
v -0.013891 -0.043396 0.045181
v -0.014336 -0.043786 0.046352
v -0.013813 -0.046813 0.045212
v -0.014429 -0.046805 0.046599
v -0.0051643 -0.046894 0.047182
v -0.007076 -0.046896 0.048314
v 0.007325 -0.046896 0.046831
v -0.015306 -0.043568 0.042149
v 0.040537 -0.043537 0.019071
v -0.044303 -0.043545 -0.013519
v -0.040159 -0.043621 -0.017815
v 0.0029952 -0.00019481 -0.17815
v -0.028653 0.0096751 -0.19258
v -0.030938 0.0081723 -0.18079
v -0.029326 0.011317 -0.18122
v -0.032285 0.0077753 -0.15006
v -0.022863 0.014306 -0.1917
v -0.027037 0.011921 -0.19332
v -0.022462 0.011657 -0.20584
v -0.023672 0.0094066 -0.2065
v -0.023665 0.0073026 -0.20738
v -0.027053 0.0071306 -0.19932
v -0.027691 0.0054732 -0.19723
v 0.0029493 0.0048026 -0.17932
v 0.003213 0.0068951 -0.18104
v -0.027814 -0.00019592 -0.19695
v 0.0029188 -0.0073521 -0.17807
v 0.00020377 0.0031341 -0.15907
v -0.0036809 -0.016782 -0.17137
v -7.785e-05 -0.014122 -0.17085
v 0.00064504 -0.01187 -0.16914
v -0.0012429 -0.0096627 -0.15439
v -0.00026849 -0.0080049 -0.15446
v 0.00025117 -0.0054237 -0.15771
v 0.00026846 -0.0035126 -0.14867
v -5.8563e-05 0.0054799 -0.14434
v -0.0016862 0.0081125 -0.14934
v -0.0010978 0.0076635 -0.13388
v -0.0066405 0.010502 -0.14797
v -0.022363 0.011165 -0.14946
v 0.0025937 0.0055842 -0.11342
v 0.0022907 0.0030888 -0.12255
v 0.00026176 -0.0051556 -0.1424
v 0.00053498 0.0027313 -0.14183
v -0.0011593 -0.0078876 -0.14507
v -0.0048537 -0.010405 -0.14505
v -0.016867 -0.01213 -0.14533
v -0.004657 -0.011784 -0.15321
v -0.012117 -0.013039 -0.153
v -0.0243 -0.011768 -0.14691
v -0.0032661 -0.010322 -0.12596
v -0.01156 -0.01125 -0.06407
v 0.0041719 -0.0074054 -0.10328
v 0.0054258 -0.0050275 -0.10241
v 0.0048792 0.0037731 -0.10504
v -0.029028 -0.010445 -0.081384
v -0.0064415 -0.011104 -0.067643
v -0.005886 -0.011117 -0.067668
v -0.0079065 -0.011186 -0.068423
v -0.003495 -0.010996 -0.067668
v -0.004292 -0.011043 -0.067668
v -0.005089 -0.011082 -0.067668
v -0.0028859 -0.01133 -0.061681
v 0.0040467 -0.010972 -0.060263
v -0.00079133 -0.012719 -0.054991
v -0.00081164 -0.014375 -0.051268
v -0.00518 -0.017128 -0.047957
v -0.012704 -0.016467 -0.04722
v 0.002495 -0.020573 -0.047479
v -0.045513 -0.020696 -0.011585
v -0.038827 -0.020759 -0.027504
v -0.045337 -0.020103 -0.015601
v -0.043987 -0.013659 -0.013488
v -0.041379 -0.0087284 -0.01268
v -0.038398 -0.007392 0.0014377
v -0.038717 -0.0028692 -0.0039621
v -0.03796 -0.0085674 0.0073458
v -0.036378 -0.0050877 0.0063826
v -0.037513 0.0040563 0.0011188
v -0.029955 0.0035773 0.017526
v -0.033558 -0.002712 0.012115
v -0.033853 -0.0071873 0.013635
v -0.029469 -0.0030343 0.018116
v -0.024563 -0.0053515 0.023657
v -0.023674 0.0027283 0.024158
v -0.018452 -0.0027307 0.027562
v -0.01692 -0.0064304 0.029302
v -0.027402 -0.0099335 0.025428
v -0.01721 -0.0093288 0.031378
v -0.019776 -0.012074 0.033798
v -0.021695 -0.016431 0.04105
v -0.02819 -0.01871 0.039574
v -0.029792 -0.020546 0.038247
v -0.03338 -0.018601 0.035064
v -0.03883 -0.020698 0.028421
v -0.03654 -0.020059 0.032056
v -0.023205 -0.02038 0.042781
v -0.011912 -0.020696 0.046919
v -0.017954 -0.020126 0.04543
v -0.018458 -0.01872 0.045102
v -0.010531 -0.018614 0.047504
v -0.0083319 -0.020109 0.048275
v -0.0051175 -0.018855 0.04851
v 0.00097211 -0.020542 0.048811
v 0.010301 -0.02016 0.047915
v 0.0062325 -0.018781 0.048434
v 0.0097403 -0.020696 0.047622
v 0.026416 -0.020697 0.040961
v 0.039323 -0.020697 0.028394
v 0.045654 -0.017771 0.0010493
v 0.046306 -0.01872 0.014641
v 0.046502 -0.020055 0.014346
v 0.044201 -0.019668 0.020883
v 0.040963 -0.020159 0.026691
v 0.040456 -0.018961 0.027267
v 0.043819 -0.016572 0.0146
v 0.032355 -0.01045 0.014485
v 0.034199 -0.010374 0.0077866
v 0.034134 -0.0088482 -0.0021249
v 0.033196 -0.0089831 -0.016715
v 0.030349 -0.0042013 -0.020796
v 0.028329 -0.0033688 -0.028277
v 0.032358 -0.013207 -0.027986
v 0.029599 -0.009434 -0.029269
v 0.028112 -0.013303 -0.034597
v 0.0235 -0.01101 -0.040993
v 0.023099 -0.0078918 -0.042696
v 0.018016 -0.0084573 -0.052243
v 0.019623 -0.0128 -0.045308
v 0.018701 -0.015217 -0.045063
v 0.013415 -0.013133 -0.050115
v 0.013932 -0.010659 -0.053823
v 0.0069281 -0.014444 -0.050428
v 0.0084389 -0.011979 -0.055003
v 0.011015 -0.0093418 -0.060928
v 0.0042354 -0.010232 -0.066038
v 0.01018 -0.008324 -0.067718
v 0.0041904 -0.00974 -0.081671
v 0.0097963 -0.0056016 -0.082156
v 0.0085262 -0.0076695 -0.080069
v 0.0086629 0.0044577 -0.087618
v 0.0148 0.0061072 -0.059512
v 0.011666 0.0080617 -0.059892
v 0.0018559 0.0099132 -0.072403
v -0.01071 0.010939 -0.05278
v -0.031464 0.0092039 -0.041042
v -0.039228 0.0062524 -0.020327
v -0.03944 0.0039481 -0.0079556
v -0.040469 0.0031193 -0.016171
v -0.034857 0.0062151 0.0056803
v -0.034456 0.0084299 -0.0013095
v -0.03829 0.0063186 -0.0074997
v -0.03592 0.0086803 -0.014599
v -0.024549 0.011668 -0.013485
v -0.014685 0.013071 -0.0064006
v -0.023999 0.011917 -0.0017994
v -0.028349 0.010216 0.0049178
v -0.03128 0.01036 -0.0069702
v -0.030079 0.0083762 0.0098987
v -0.020347 0.010533 0.015808
v -0.017994 0.012188 0.0085973
v -0.0096158 0.013237 0.0075596
v -0.0040531 0.013683 -0.00067586
v -0.002281 0.011697 -0.029484
v 0.0011374 0.010858 -0.043126
v -0.013222 0.011379 -0.034007
v 0.011326 0.0096672 -0.044055
v 0.024728 0.0089129 -0.020282
v 0.019695 0.010835 -0.01575
v 0.0083927 0.013007 -0.0069992
v 0.0078012 0.013087 0.0075803
v 0.020439 0.011456 -0.0031052
v 0.025834 0.0097838 -0.0014227
v 0.029191 0.0069307 0.0035711
v 0.025021 0.0088407 0.0093474
v 0.031862 0.0045879 -0.0069108
v 0.0302 0.007001 -0.0056672
v 0.030852 0.0040567 -0.017673
v 0.029009 0.0042991 -0.025676
v 0.028027 0.0066295 -0.023049
v 0.031917 -0.0031184 -0.0083441
v 0.031762 -0.0049019 0.00077771
v 0.031392 0.004423 0.00096468
v 0.032328 -0.0054976 -0.008307
v 0.024694 0.0039182 -0.037621
v 0.014783 -0.0064734 -0.06211
v 0.01451 -0.0039144 -0.06638
v 0.011719 0.0027973 -0.07669
v 0.010297 -0.0040412 -0.082212
v 0.012764 -0.006213 -0.068726
v 0.01663 0.0046205 -0.057766
v 0.017946 -0.0047962 -0.055289
v 0.017627 0.0027595 -0.056172
v 0.030163 -0.0030684 0.0077361
v 0.03046 -0.0063689 0.010386
v 0.027201 -0.0032835 0.015771
v 0.022579 -0.006517 0.023847
v 0.022989 -0.0028453 0.021915
v 0.017721 -0.0029614 0.026575
v 0.011151 -0.0029822 0.029729
v 0.0044839 -0.0029333 0.03127
v 0.0092354 -0.0072191 0.031838
v -0.0029666 -0.0065312 0.032606
v 0.010171 -0.01129 0.035417
v 0.018156 -0.0074752 0.02804
v 0.013528 -0.013693 0.038262
v 0.0042114 -0.017345 0.046968
v 0.00097438 -0.018774 0.048765
v -0.0038011 -0.017393 0.047103
v -0.0023829 -0.017346 0.043006
v -0.0032084 -0.017149 0.044961
v -0.0028328 -0.015357 0.043054
v -0.00073995 -0.017184 0.041819
v 0.0023714 -0.01492 0.042121
v 0.0038457 -0.016093 0.044289
v 0.003724 -0.014424 0.041353
v -0.0035936 -0.014567 0.041641
v -0.00045325 -0.01473 0.041566
v -0.00035168 -0.011016 0.036043
v -0.0079 -0.010725 0.035137
v -0.011838 -0.0030789 0.030168
v -0.0034056 -0.0032771 0.031641
v 0.0042792 0.0027425 0.031417
v 0.0027844 0.0052226 0.030985
v 0.011304 0.0046468 0.029482
v 0.00031444 0.0072909 0.029732
v 0.0066716 0.009669 0.024843
v -0.0071172 0.0097861 0.025086
v -0.015115 0.0068474 0.027485
v -0.0049315 0.004347 0.031326
v -0.013546 0.0044355 0.029493
v -0.02014 0.0044397 0.026486
v -0.020478 0.0090805 0.020617
v -0.023123 0.0065304 0.022725
v -0.030774 0.0072505 0.012304
v -0.034302 0.004112 0.010598
v -0.036706 0.0033754 0.0044522
v -0.028119 0.0052906 0.019022
v -0.0058813 0.011876 0.018521
v 0.0094856 0.011358 0.018359
v 0.015629 0.011655 0.011419
v 0.019251 0.010465 0.013102
v 0.019046 0.0086293 0.020782
v 0.024337 0.0057939 0.018874
v 0.024284 0.0039769 0.020263
v 0.018238 0.0040972 0.026231
v 0.018413 0.0065317 0.024461
v 0.011035 0.0069902 0.027944
v 0.028363 0.0040202 0.013013
v 0.026863 0.0069589 0.011984
v 0.030389 0.0045159 0.0063446
v -0.010875 -0.016764 0.04515
v 0.0011311 -0.01735 0.041859
v 0.0032262 -0.017304 0.043462
v 0.019056 -0.020151 0.045133
v 0.014238 -0.01881 0.046727
v 0.016352 -0.016643 0.043585
v 0.022059 -0.012448 0.031751
v 0.030313 -0.01249 0.024378
v 0.026883 -0.0073264 0.018846
v 0.024926 -0.010689 0.026265
v 0.040643 -0.017125 0.024239
v 0.027791 -0.016828 0.037649
v 0.03552 -0.017532 0.031984
v 0.029379 -0.018645 0.038948
v 0.034943 -0.020168 0.034233
v 0.035633 -0.019086 0.033493
v 0.027493 -0.020113 0.040618
v 0.021485 -0.018763 0.04393
v -0.040537 -0.0032485 -0.017487
v -0.038898 -0.014839 -0.028873
v -0.036098 -0.013644 -0.037782
v -0.039309 -0.0091952 -0.037586
v -0.038422 -0.007107 -0.054802
v -0.034676 -0.012112 -0.045201
v -0.033906 -0.010422 -0.055227
v -0.017556 -0.014604 -0.048834
v -0.016306 -0.017329 -0.045361
v -0.01422 -0.020535 -0.045326
v -0.0070301 -0.020214 -0.047109
v -0.022478 -0.020198 -0.042049
v -0.023252 -0.018512 -0.041701
v -0.030728 -0.018336 -0.036736
v -0.031206 -0.020211 -0.036053
v -0.035536 -0.019017 -0.031862
v -0.038483 -0.020201 -0.028173
v -0.041669 -0.020181 -0.023385
v -0.041298 -0.0111 -0.021558
v -0.046077 -0.019995 -0.011729
v -0.028286 -0.016797 -0.040303
v -0.028507 -0.013984 -0.045973
v -0.021333 -0.012681 -0.05318
v -0.024139 -0.010775 -0.065002
v -0.032886 -0.0090863 -0.066289
v -0.036461 -0.0073138 -0.066361
v -0.03853 -0.0049146 -0.063789
v -0.039732 -0.0051998 -0.045474
v -0.04051 -0.0073446 -0.02885
v -0.040372 0.0046675 -0.019415
v -0.040705 0.0036691 -0.022561
v -0.03481 0.0080172 -0.055126
v -0.021108 0.010585 -0.062342
v -0.036534 0.006042 -0.087749
v -0.028037 0.0098501 -0.0722
v -0.019729 0.010821 -0.10069
v -0.0078362 0.010595 -0.086525
v -0.028446 0.0099578 -0.10906
v -0.033959 0.0079299 -0.10192
v -0.035469 -0.0078492 -0.10736
v -0.034285 -0.0090565 -0.097236
v -0.030953 -0.010638 -0.11619
v -0.025112 -0.011656 -0.11661
v -0.033566 -0.0079553 -0.13694
v -0.034377 -0.003175 -0.14444
v -0.033979 -0.0055014 -0.1459
v -0.032161 -0.0089497 -0.15612
v -0.031104 -0.0097559 -0.14682
v -0.028896 -0.01086 -0.1496
v -0.03035 -0.01099 -0.15846
v -0.026884 -0.015046 -0.17135
v -0.023242 -0.0131 -0.15612
v -0.021124 -0.017082 -0.17318
v -0.030918 -0.011323 -0.17915
v -0.032834 -0.0044026 -0.16322
v -0.032866 -0.005242 -0.16286
v -0.032792 -0.0073083 -0.16065
v -0.032846 -0.005287 -0.16308
v -0.032856 -0.005265 -0.16297
v -0.03282 -0.005348 -0.16337
v -0.031164 -0.009035 -0.17954
v -0.032853 -0.00527 -0.163
v -0.032852 -0.005273 -0.16301
v -0.032853 -0.005271 -0.163
v -0.032853 -0.00527 -0.163
v -0.032852 -0.005272 -0.16301
v -0.032882 0.0040485 -0.16284
v -0.033475 0.0055777 -0.15132
v -0.027687 0.010258 -0.14869
v -0.035647 0.0056325 -0.11391
v -0.035392 -0.0043878 -0.12855
v -0.017236 0.011404 -0.14886
v -0.012039 0.011217 -0.14715
v -0.025484 0.013504 -0.17624
v -0.018375 0.015103 -0.18081
v -0.0029385 0.01418 -0.17487
v -1.3936e-05 0.014332 -0.19103
v 0.00096903 0.013589 -0.18642
v -0.0093831 0.015137 -0.17626
v -0.009916 0.015376 -0.20408
v -0.011696 0.014122 -0.21522
v -0.017565 0.011034 -0.2147
v -0.018689 0.0073079 -0.21525
v 0.0089624 0.0073041 -0.19677
v -0.01247 0.0073045 -0.22163
v -0.0070548 0.0073146 -0.22552
v -0.001611 0.009684 -0.2268
v 0.0047574 0.0075556 -0.22682
v 0.011277 0.0072919 -0.22285
v -0.00053971 0.0073037 -0.22736
v 0.009681 0.010121 -0.22338
v 0.013214 0.010814 -0.21805
v 0.015441 0.007386 -0.21297
v 0.0086821 0.013382 -0.22112
v 0.014075 0.0098606 -0.20795
v 0.014757 0.0072988 -0.20819
v 0.0082092 0.014249 -0.20658
v 0.012504 0.011503 -0.20715
v 0.010201 0.014131 -0.21251
v 0.0053724 0.015579 -0.2121
v 0.0057607 0.015376 -0.21703
v 0.0021726 0.015671 -0.21824
v -0.0046132 0.014322 -0.22128
v -0.01371 0.0093587 -0.22009
v -0.010719 0.011188 -0.22161
v -0.0080826 0.013281 -0.22124
v -0.0025015 0.016041 -0.21545
v -0.001098 0.015217 -0.22021
v -0.0038858 0.012397 -0.22453
v 0.0036667 0.012863 -0.22469
v 0.0085169 0.0092197 -0.19636
v 0.0037913 0.0073447 -0.18384
v 0.004591 0.0091142 -0.18631
v 0.0033892 0.011991 -0.18752
v -0.00056025 0.011608 -0.16999
v -0.00409 0.0097948 -0.14953
v 1.1416e-05 0.0070561 -0.15935
v 0.0012992 0.0091251 -0.17324
v -0.028729 0.0066469 -0.19344
v -0.028929 -0.011986 -0.19207
v -0.027208 -0.011157 -0.19907
v -0.026653 -0.014889 -0.19555
v -0.027997 -0.0092886 -0.19624
v 0.0028092 -0.0096184 -0.17892
v 0.0033581 -0.01123 -0.18178
v -0.019789 -0.014334 -0.21178
v -0.017354 -0.011256 -0.21665
v -0.024296 -0.011284 -0.20625
v 0.01303 -0.01126 -0.20462
v 0.0043336 -0.014368 -0.189
v 0.0070769 -0.011302 -0.19271
v -0.0076891 -0.017959 -0.17352
v -0.01408 -0.017942 -0.17393
v -0.012603 -0.018715 -0.18222
v -0.024716 -0.017441 -0.18627
v -0.029113 -0.014396 -0.18404
v -0.020212 -0.018381 -0.18555
v -0.020231 -0.017366 -0.20062
v -0.0040382 -0.019093 -0.20311
v -0.00082872 -0.018137 -0.1948
v 0.00057075 -0.016959 -0.18771
v 0.0073077 -0.01725 -0.20269
v 0.012458 -0.015432 -0.20799
v 0.0061073 -0.018805 -0.21052
v 0.014437 -0.013438 -0.21089
v 0.009692 -0.017687 -0.21301
v 0.012623 -0.01516 -0.21784
v 0.0091444 -0.015803 -0.22222
v 0.0025304 -0.017448 -0.22323
v 0.004682 -0.013954 -0.22598
v -0.002224 -0.014452 -0.22602
v -0.0043041 -0.016291 -0.22364
v -0.0023574 -0.011286 -0.22735
v 0.0048264 -0.011251 -0.22663
v 0.011413 -0.011249 -0.22266
v 0.015079 -0.011252 -0.2144
v 0.014523 -0.011251 -0.20799
v -0.011326 -0.014383 -0.22131
v -0.0090493 -0.015795 -0.22171
v -0.0088712 -0.013123 -0.22374
v -0.01041 -0.011257 -0.22338
v -0.0057226 -0.017507 -0.22119
v -0.0020262 -0.018513 -0.22023
v 0.0033062 -0.018232 -0.21749
v 0.0025524 -0.019017 -0.21804
v 0.00024424 -0.018991 -0.21843
v -0.0043917 -0.019108 -0.21635
v -0.0055999 -0.019241 -0.21421
v -0.0040271 -0.018185 -0.21689
v -0.0057404 -0.0182 -0.21227
v -0.0058008 -0.019343 -0.21187
v -0.010956 -0.017753 -0.21621
v -0.0043095 -0.018189 -0.20813
v -0.0050035 -0.019416 -0.20926
v -0.0036093 -0.019408 -0.2077
v 0.000237 -0.018196 -0.20638
v 0.00024412 -0.019304 -0.20633
v 0.0033209 -0.019065 -0.20712
v 0.0048368 -0.018921 -0.20843
v 0.0054905 -0.018211 -0.20959
v 0.0036882 -0.0182 -0.20744
v 0.0020339 -0.019163 -0.20658
v -0.002437 -0.019026 -0.21786
v 0.0054973 -0.018201 -0.21523
v 0.0058634 -0.018829 -0.21459
v 0.0062009 -0.018221 -0.21225
v 0.006312 -0.018762 -0.21233
v 0.0049 -0.018945 -0.21634
v -0.0014885 -0.019378 -0.20659
v -0.015258 -0.014096 -0.21779
v -0.037076 -0.0061165 -0.081704
v -0.036579 -0.0053215 -0.10704
v -0.037704 -0.0040268 -0.084001
v -0.038501 0.0039745 -0.065949
v -0.037319 0.0029873 -0.092714
v -0.038535 -0.0032995 -0.067537
v -0.035231 0.0027145 -0.13233
v -0.034595 -0.0084489 -0.077702
v -0.0047272 0.0099022 -0.11134
v 0.0014159 0.0077795 -0.10747
v 0.0034489 -0.0049876 -0.11345
v 0.00013995 -0.0076534 -0.13062
v -0.024252 0.010598 -0.036994
v 0.00050834 -0.010696 -0.068282
v 0.0053349 -0.017103 -0.048038
v 0.011384 -0.017852 -0.046662
v 0.0089933 -0.020584 -0.046723
v 0.015554 -0.020634 -0.045
v 0.023748 -0.019262 -0.041565
v 0.025774 -0.020158 -0.040596
v 0.023622 -0.017373 -0.041508
v 0.030197 -0.018608 -0.037117
v 0.024993 -0.015306 -0.039591
v 0.04034 -0.018036 -0.025439
v 0.035109 -0.018457 -0.032615
v 0.045328 -0.017654 -0.013937
v 0.044677 -0.018376 -0.017452
v 0.046436 -0.02011 -0.013833
v 0.042514 -0.020052 -0.022866
v 0.045637 -0.020724 -0.015002
v 0.046403 -0.018946 -0.012139
v 0.037427 -0.012972 0.011217
v 0.038347 -0.013227 -0.0044834
v 0.036552 -0.013085 -0.017939
v 0.038978 -0.020679 -0.027579
v 0.028307 -0.020686 -0.038287
v 0.036841 -0.020133 -0.031083
v 0.015507 -0.01696 -0.045883
v -0.041794 -0.020157 0.024599
v -0.035418 -0.014214 0.02685
v -0.030619 -0.015861 0.03451
v -0.037978 -0.017491 0.029096
v -0.030052 -0.0073276 0.019127
v -0.035123 -0.010941 0.019497
v -0.039365 -0.011029 0.012652
v -0.042925 -0.013809 0.012024
v -0.044259 -0.014681 0.00023657
v -0.04609 -0.019951 -0.0017606
v -0.045513 -0.020696 0.012828
v -0.045434 -0.017296 0.013725
v -0.043254 -0.017774 0.020865
v -0.040552 -0.014023 0.019062
v -0.045971 -0.020301 0.01465
v -0.010138 -0.011621 -0.14466
f 27 234 42
f 42 234 272
f 563 560 343
f 127 95 68
f 367 475 366
f 277 475 367
f 277 367 488
f 277 488 353
f 277 275 95
f 95 127 203
f 203 127 128
f 68 95 275
f 277 353 275
f 344 560 563
f 344 559 560
f 80 85 83
f 85 81 269
f 83 85 84
f 27 273 82
f 27 80 36
f 27 36 273
f 27 42 81
f 27 81 80
f 80 81 85
f 100 116 61
f 116 182 115
f 100 182 116
f 61 116 213
f 113 99 209
f 99 113 199
f 199 113 114
f 209 99 62
f 261 34 260
f 260 34 86
f 61 62 100
f 100 62 99
f 225 7 226
f 133 89 92
f 89 133 173
f 173 133 134
f 133 92 222
f 226 7 79
f 92 89 93
f 92 93 64
f 93 164 120
f 56 120 228
f 120 164 119
f 93 120 56
f 28 241 242
f 28 242 44
f 479 421 424
f 194 200 174
f 568 301 280
f 569 299 568
f 362 572 299
f 460 573 403
f 412 283 460
f 414 283 412
f 570 283 414
f 444 476 420
f 281 475 277
f 203 187 237
f 46 105 2
f 3 105 169
f 171 52 41
f 167 40 181
f 40 53 181
f 140 197 176
f 176 197 104
f 177 602 149
f 602 184 183
f 6 170 168
f 6 191 8
f 6 168 191
f 191 168 172
f 8 191 190
f 8 190 13
f 141 139 143
f 176 177 238
f 238 177 49
f 238 49 50
f 13 190 142
f 142 190 140
f 13 142 147
f 13 147 145
f 150 49 177
f 146 49 150
f 13 145 15
f 15 145 146
f 15 146 185
f 15 185 16
f 18 158 159
f 151 239 158
f 180 48 47
f 180 161 48
f 239 161 180
f 21 156 155
f 21 155 157
f 21 157 24
f 24 157 193
f 199 161 99
f 154 48 161
f 152 161 239
f 21 159 156
f 18 159 21
f 182 152 151
f 18 185 158
f 158 185 153
f 184 182 186
f 16 185 18
f 185 146 148
f 182 184 602
f 53 40 41
f 41 40 178
f 166 40 167
f 5 169 170
f 5 170 6
f 169 205 165
f 3 169 5
f 169 105 205
f 205 105 108
f 2 105 3
f 105 46 106
f 278 46 240
f 278 240 283
f 521 237 55
f 521 55 445
f 445 55 287
f 283 570 571
f 278 283 571
f 106 46 278
f 106 278 162
f 106 162 107
f 203 237 95
f 435 475 281
f 476 444 354
f 416 460 456
f 404 304 439
f 425 482 350
f 427 451 429
f 429 451 450
f 312 309 517
f 450 308 307
f 450 313 308
f 308 313 309
f 309 313 442
f 396 472 438
f 440 637 405
f 397 518 399
f 449 304 306
f 449 437 439
f 449 439 304
f 438 472 361
f 401 304 404
f 460 401 454
f 454 401 453
f 637 461 455
f 637 459 461
f 452 459 637
f 459 452 462
f 409 406 415
f 406 443 520
f 407 443 406
f 416 456 410
f 452 407 408
f 470 414 420
f 570 414 470
f 570 470 471
f 570 471 468
f 412 460 416
f 460 283 573
f 460 403 401
f 403 573 402
f 402 573 400
f 400 466 398
f 400 573 434
f 400 434 466
f 466 434 465
f 434 573 432
f 432 573 430
f 430 573 431
f 431 362 480
f 431 480 481
f 431 481 426
f 431 573 362
f 362 573 572
f 362 299 363
f 363 299 423
f 363 423 463
f 423 299 569
f 568 299 301
f 25 280 301
f 25 279 280
f 24 193 195
f 24 195 194
f 24 194 279
f 24 279 25
f 174 200 96
f 39 516 567
f 39 567 282
f 104 103 101
f 249 248 252
f 602 101 212
f 602 212 118
f 212 101 102
f 138 60 104
f 60 138 220
f 60 220 103
f 138 197 137
f 131 137 198
f 134 198 173
f 131 198 134
f 59 131 12
f 59 137 131
f 138 104 197
f 101 103 102
f 107 235 106
f 108 122 206
f 87 88 26
f 26 88 22
f 303 289 319
f 337 302 300
f 337 332 515
f 564 509 385
f 337 300 332
f 381 424 323
f 424 381 479
f 479 381 382
f 323 424 98
f 336 337 566
f 335 331 333
f 330 331 335
f 330 335 334
f 330 334 333
f 302 337 303
f 303 337 336
f 303 336 331
f 303 331 330
f 303 330 289
f 96 98 352
f 110 200 109
f 96 200 110
f 96 110 265
f 96 265 97
f 96 97 98
f 117 115 118
f 117 116 115
f 118 182 602
f 182 118 115
f 201 109 200
f 196 112 201
f 196 114 112
f 114 196 199
f 201 112 109
f 126 72 202
f 127 68 72
f 127 72 126
f 128 235 203
f 203 235 107
f 206 119 164
f 206 122 119
f 207 23 35
f 207 111 208
f 110 210 265
f 210 110 207
f 207 110 111
f 211 113 209
f 211 111 113
f 208 111 211
f 207 208 23
f 32 43 255
f 43 32 20
f 116 219 213
f 214 116 117
f 216 117 217
f 217 117 218
f 218 117 212
f 214 117 216
f 214 216 31
f 31 216 215
f 116 214 219
f 11 136 135
f 11 220 136
f 136 220 138
f 220 14 233
f 220 11 14
f 9 221 10
f 133 221 132
f 223 133 222
f 133 223 221
f 132 221 9
f 90 57 224
f 90 224 30
f 121 244 228
f 121 228 120
f 129 244 121
f 244 129 229
f 229 227 4
f 229 129 227
f 129 121 123
f 202 235 126
f 235 202 272
f 130 129 123
f 130 123 124
f 65 285 66
f 284 285 558
f 66 285 284
f 321 286 322
f 322 286 320
f 320 286 262
f 356 372 317
f 372 452 371
f 356 452 372
f 317 372 497
f 340 341 548
f 342 288 556
f 369 354 484
f 354 369 476
f 476 369 370
f 484 354 318
f 288 342 550
f 340 542 341
f 317 318 356
f 356 318 354
f 291 295 345
f 348 346 350
f 376 482 375
f 350 482 376
f 350 376 511
f 350 511 310
f 389 348 532
f 508 534 529
f 529 534 328
f 473 389 390
f 346 389 473
f 389 346 348
f 348 350 310
f 295 291 522
f 295 522 296
f 388 502 503
f 373 357 311
f 637 373 374
f 637 358 373
f 373 358 357
f 360 358 361
f 394 315 361
f 315 394 395
f 315 395 500
f 315 500 360
f 387 474 473
f 387 473 390
f 314 387 503
f 314 503 391
f 314 474 387
f 394 472 474
f 394 361 472
f 358 360 359
f 339 537 501
f 339 338 537
f 537 338 539
f 463 364 363
f 480 378 483
f 480 362 378
f 373 371 374
f 373 372 371
f 374 452 637
f 452 374 371
f 477 365 475
f 476 370 477
f 477 370 365
f 475 365 366
f 380 325 478
f 381 323 325
f 381 325 380
f 382 364 479
f 382 514 364
f 483 375 482
f 483 378 375
f 485 294 486
f 485 368 552
f 489 367 485
f 367 489 488
f 485 367 368
f 487 369 484
f 487 368 369
f 552 368 487
f 485 552 551
f 485 551 294
f 491 293 547
f 293 491 492
f 492 491 490
f 373 544 372
f 544 493 498
f 498 493 541
f 498 541 495
f 544 373 493
f 493 373 496
f 496 373 311
f 372 544 494
f 372 494 497
f 391 395 392
f 391 500 395
f 501 500 391
f 500 501 499
f 502 504 327
f 389 505 388
f 531 389 532
f 389 531 505
f 388 505 504
f 388 504 502
f 507 506 298
f 385 377 386
f 377 524 523
f 376 523 511
f 377 523 376
f 385 524 377
f 524 385 527
f 527 509 510
f 527 385 509
f 386 377 379
f 478 514 380
f 513 386 379
f 513 379 378
f 576 581 577
f 580 581 576
f 580 582 581
f 580 586 582
f 585 580 590
f 576 583 580
f 580 584 586
f 580 816 584
f 585 816 580
f 590 580 588
f 590 588 587
f 803 593 595
f 599 737 736
f 600 737 599
f 596 600 599
f 596 601 600
f 878 601 596
f 878 589 601
f 601 603 602
f 583 602 603
f 575 602 583
f 575 182 602
f 575 605 182
f 605 575 578
f 604 605 578
f 604 789 605
f 605 789 606
f 579 789 604
f 608 609 790
f 581 582 608
f 608 611 609
f 608 582 611
f 609 611 610
f 614 613 869
f 614 612 613
f 616 786 615
f 786 616 617
f 869 871 618
f 619 618 871
f 620 618 619
f 1362 632 635
f 1344 632 1362
f 635 632 633
f 1344 628 632
f 632 628 630
f 643 639 638
f 639 643 452
f 642 644 643
f 649 644 642
f 649 642 813
f 642 643 638
f 645 647 646
f 647 645 648
f 645 644 648
f 643 644 645
f 650 651 814
f 650 653 651
f 651 653 652
f 653 654 804
f 650 654 653
f 652 653 655
f 656 655 659
f 678 663 662
f 663 678 664
f 663 664 665
f 665 664 666
f 673 668 666
f 673 666 664
f 667 668 673
f 667 647 668
f 652 670 671
f 652 656 670
f 646 647 667
f 677 679 680
f 680 679 681
f 682 684 681
f 682 681 685
f 681 683 685
f 689 690 688
f 688 690 687
f 687 690 691
f 689 692 690
f 689 654 692
f 701 702 700
f 700 702 703
f 704 708 705
f 708 704 710
f 716 714 715
f 716 698 697
f 717 714 716
f 716 715 698
f 718 714 717
f 718 592 714
f 719 585 718
f 718 585 592
f 654 585 719
f 698 715 721
f 720 704 715
f 723 725 724
f 724 725 711
f 711 725 727
f 723 726 725
f 713 731 730
f 712 731 713
f 712 727 731
f 733 730 729
f 732 730 733
f 800 730 732
f 713 730 801
f 801 730 800
f 736 738 793
f 738 736 737
f 793 738 739
f 739 738 702
f 744 746 745
f 763 746 744
f 746 628 1344
f 628 746 763
f 746 936 747
f 746 1344 936
f 754 753 752
f 760 753 754
f 760 694 753
f 758 759 757
f 752 758 755
f 758 752 759
f 754 752 755
f 751 682 757
f 751 757 759
f 684 682 751
f 696 753 695
f 753 694 695
f 696 742 753
f 763 761 764
f 763 772 761
f 628 763 627
f 627 763 622
f 763 744 772
f 763 764 762
f 765 766 1375
f 765 761 766
f 764 761 765
f 766 768 767
f 766 767 1375
f 768 182 767
f 602 182 768
f 602 768 770
f 761 768 766
f 768 769 770
f 768 937 769
f 937 768 761
f 761 772 937
f 937 772 769
f 772 744 938
f 776 777 775
f 776 780 778
f 777 776 778
f 776 779 780
f 775 777 785
f 785 777 786
f 785 786 787
f 787 786 617
f 610 611 788
f 779 791 781
f 779 606 791
f 606 789 791
f 606 779 776
f 936 1344 792
f 703 696 699
f 742 696 703
f 801 800 798
f 797 735 796
f 796 735 794
f 739 702 706
f 711 727 712
f 714 726 723
f 714 592 726
f 710 704 720
f 706 702 701
f 700 703 699
f 694 760 693
f 681 807 806
f 807 681 679
f 660 805 807
f 660 807 661
f 661 807 678
f 681 806 683
f 805 660 808
f 804 654 689
f 634 452 810
f 811 634 810
f 811 810 1356
f 1361 811 1356
f 1362 811 1361
f 1362 635 811
f 635 634 811
f 637 452 634
f 652 655 656
f 650 585 654
f 650 814 640
f 640 814 641
f 816 650 815
f 640 819 650
f 816 585 650
f 636 818 817
f 819 636 817
f 636 819 637
f 639 637 819
f 820 818 636
f 820 821 818
f 821 820 822
f 822 820 839
f 824 825 823
f 828 825 824
f 827 826 825
f 827 825 828
f 828 824 830
f 828 830 829
f 833 835 831
f 831 835 834
f 835 833 836
f 836 833 837
f 836 837 838
f 839 838 837
f 838 839 820
f 848 847 845
f 847 848 850
f 850 848 849
f 848 845 852
f 853 855 854
f 856 855 866
f 856 858 855
f 866 855 853
f 856 857 858
f 857 584 861
f 861 584 827
f 863 862 832
f 831 863 832
f 863 831 834
f 864 863 847
f 859 863 864
f 859 862 863
f 864 847 850
f 862 859 860
f 586 584 857
f 586 857 856
f 866 853 865
f 866 865 867
f 871 868 870
f 871 869 868
f 872 871 870
f 872 873 871
f 873 872 844
f 844 872 874
f 844 874 852
f 844 852 845
f 613 612 875
f 821 822 876
f 827 584 826
f 639 819 640
f 639 452 637
f 627 622 626
f 614 869 616
f 789 579 607
f 603 601 877
f 601 589 877
f 589 878 591
f 575 583 576
f 879 894 1259
f 879 1259 893
f 888 1248 889
f 893 891 879
f 1343 746 936
f 746 744 1146
f 746 937 744
f 746 971 937
f 1343 971 746
f 772 937 769
f 937 971 1375
f 744 937 938
f 938 937 772
f 937 1374 1156
f 1375 960 962
f 960 965 964
f 960 971 965
f 1375 971 960
f 974 1343 811
f 974 811 975
f 971 1343 974
f 811 979 635
f 976 811 635
f 975 811 976
f 811 1354 979
f 1357 979 1354
f 1052 989 1059
f 1076 1121 1120
f 1121 1076 1074
f 1077 1076 1120
f 1146 744 745
f 1164 1167 1332
f 1167 1164 1165
f 1191 1192 1181
f 1181 1203 1191
f 1191 1195 1192
f 1196 1192 1194
f 1196 1191 1197
f 1194 1191 1196
f 1207 1328 1333
f 1207 1333 1181
f 1219 1248 888
f 1219 1220 1248
f 1221 1220 1219
f 1222 1220 1221
f 1229 1222 1226
f 1232 1222 1229
f 1222 1232 1220
f 1229 1226 1225
f 1225 1226 1224
f 1264 1265 1263
f 1265 1264 1267
f 1289 1297 1265
f 1291 1289 1265
f 1290 1289 1291
f 1293 1292 1291
f 1293 1291 1265
f 1265 1297 1263
f 1317 1312 1316
f 1306 1316 1312
f 1309 1306 1312
f 1320 1322 1305
f 1322 1306 1305
f 1316 1306 1322
f 1305 1302 1300
f 1305 1300 1320
f 1181 1333 1203
f 1331 1332 1330
f 1328 1329 1331
f 1333 1328 1331
f 1332 1331 1329
f 1167 1330 1332
f 1354 811 1356
f 811 1362 1356
f 811 1343 1362
f 1356 1362 1361
f 1362 1343 1344
f 761 1379 1374
f 1375 1379 761
f 1375 962 1379
f 761 1374 937
f 891 893 890
f 234 2 3
f 236 28 227
f 227 28 4
f 28 3 5
f 225 29 5
f 29 247 30
f 29 30 224
f 29 225 247
f 225 6 7
f 8 7 6
f 7 12 9
f 7 9 10
f 11 8 13
f 15 14 13
f 16 252 15
f 21 256 18
f 32 33 20
f 256 33 32
f 21 34 261
f 26 24 25
f 22 24 26
f 34 22 35
f 34 35 23
f 22 34 24
f 24 34 21
f 33 256 21
f 33 21 261
f 19 18 256
f 18 19 17
f 16 17 31
f 17 16 18
f 16 31 215
f 252 16 215
f 15 252 248
f 248 14 15
f 11 13 14
f 8 11 12
f 12 7 8
f 5 29 241
f 225 5 6
f 28 5 241
f 28 236 3
f 3 236 234
f 234 27 2
f 74 70 71
f 68 70 72
f 75 76 78
f 78 76 77
f 76 75 67
f 70 67 75
f 284 270 66
f 562 486 563
f 486 562 485
f 562 563 343
f 561 343 560
f 485 562 343
f 489 485 561
f 561 485 343
f 489 561 488
f 488 560 557
f 276 94 275
f 353 276 275
f 353 488 557
f 561 560 488
f 559 344 558
f 559 558 285
f 557 560 559
f 353 557 285
f 559 285 557
f 353 285 276
f 65 94 276
f 65 276 285
f 273 66 270
f 270 284 69
f 69 273 270
f 273 69 82
f 273 65 66
f 273 36 65
f 36 271 65
f 68 65 271
f 68 275 94
f 68 94 65
f 67 68 271
f 68 67 70
f 74 202 72
f 70 74 72
f 78 71 75
f 71 78 77
f 71 77 76
f 71 76 67
f 75 71 70
f 74 71 67
f 74 67 73
f 74 73 272
f 202 74 272
f 73 42 272
f 67 42 73
f 81 42 269
f 269 42 84
f 36 84 42
f 42 271 36
f 42 67 271
f 61 63 62
f 214 31 17
f 17 219 214
f 219 17 253
f 253 254 219
f 219 254 213
f 61 213 255
f 255 213 254
f 253 17 19
f 253 19 254
f 19 255 254
f 256 255 19
f 256 32 255
f 63 255 43
f 43 33 261
f 211 86 208
f 257 34 23
f 23 208 257
f 258 259 260
f 230 259 209
f 62 230 209
f 230 261 259
f 260 259 261
f 209 259 211
f 259 258 211
f 86 257 208
f 86 211 258
f 34 257 86
f 258 260 86
f 43 261 230
f 33 43 20
f 255 63 61
f 63 43 62
f 62 43 230
f 228 242 37
f 247 90 30
f 232 226 222
f 222 92 232
f 222 246 223
f 223 79 221
f 10 245 7
f 245 10 221
f 7 245 79
f 79 246 226
f 79 245 221
f 79 223 246
f 222 226 246
f 232 225 226
f 247 225 232
f 90 247 232
f 90 232 92
f 92 91 90
f 64 93 56
f 56 228 37
f 56 37 57
f 56 57 64
f 64 90 91
f 91 92 64
f 64 57 90
f 29 224 57
f 29 57 37
f 37 241 29
f 45 28 44
f 45 4 28
f 45 229 4
f 229 45 244
f 244 45 44
f 244 243 228
f 243 244 44
f 242 243 44
f 228 243 242
f 241 37 242
f 38 39 282
f 567 280 282
f 352 39 96
f 174 96 39
f 38 179 175
f 38 175 174
f 179 38 280
f 282 280 38
f 475 471 477
f 95 237 281
f 171 178 173
f 206 204 108
f 108 204 205
f 205 206 164
f 206 205 204
f 40 166 164
f 164 166 165
f 205 164 165
f 40 164 93
f 178 93 89
f 137 191 198
f 101 177 104
f 144 146 145
f 172 189 191
f 190 188 140
f 49 144 50
f 49 146 144
f 139 176 238
f 141 176 139
f 143 142 141
f 140 141 142
f 142 143 147
f 143 139 238
f 143 238 147
f 50 147 238
f 147 50 144
f 147 144 145
f 150 149 148
f 150 148 146
f 159 158 239
f 239 180 159
f 159 180 47
f 159 47 156
f 156 47 154
f 154 47 48
f 156 154 155
f 160 155 154
f 155 160 157
f 195 193 196
f 152 100 99
f 152 99 161
f 199 196 193
f 157 199 193
f 199 157 160
f 161 160 154
f 160 161 199
f 151 152 239
f 158 153 151
f 100 152 182
f 151 153 186
f 186 182 151
f 153 185 186
f 186 185 184
f 185 148 184
f 183 184 148
f 149 183 148
f 602 183 149
f 177 149 150
f 177 101 602
f 176 104 177
f 141 140 176
f 197 140 188
f 197 188 137
f 137 188 190
f 137 190 191
f 198 191 189
f 173 189 172
f 189 173 198
f 173 178 89
f 171 173 172
f 171 41 178
f 52 53 41
f 51 53 52
f 53 170 181
f 168 52 171
f 168 51 52
f 171 172 168
f 51 168 170
f 170 53 51
f 169 181 170
f 167 181 169
f 165 167 169
f 167 165 166
f 571 445 287
f 574 436 521
f 445 446 574
f 574 446 436
f 445 571 446
f 570 436 446
f 435 436 468
f 281 436 435
f 436 281 521
f 574 521 445
f 163 54 187
f 187 54 237
f 163 55 54
f 274 55 163
f 274 287 55
f 287 274 571
f 274 163 278
f 162 278 163
f 187 162 163
f 237 54 55
f 571 274 278
f 446 571 570
f 187 203 107
f 162 187 107
f 95 281 277
f 468 471 435
f 471 475 435
f 477 471 470
f 469 477 470
f 469 476 477
f 407 356 354
f 460 457 456
f 459 457 458
f 440 405 439
f 402 306 403
f 399 402 400
f 466 467 398
f 433 517 473
f 430 308 432
f 312 308 309
f 430 450 307
f 428 482 425
f 442 350 346
f 425 313 428
f 425 350 442
f 481 483 482
f 480 483 481
f 481 482 428
f 481 428 426
f 428 427 426
f 427 431 426
f 427 429 431
f 429 430 431
f 429 450 430
f 430 307 308
f 308 312 432
f 432 312 434
f 517 433 312
f 309 442 517
f 451 427 428
f 451 428 313
f 450 451 313
f 433 473 434
f 473 517 346
f 474 466 464
f 467 474 472
f 474 467 466
f 465 474 464
f 465 473 474
f 434 312 433
f 434 473 465
f 465 464 466
f 358 440 361
f 405 455 453
f 637 455 405
f 440 358 637
f 361 440 441
f 438 361 441
f 518 449 306
f 305 306 304
f 519 438 449
f 518 519 449
f 397 519 518
f 519 397 396
f 519 396 438
f 472 396 467
f 396 398 467
f 399 400 398
f 398 396 399
f 399 396 397
f 399 518 306
f 399 306 402
f 305 403 306
f 304 403 305
f 403 304 401
f 439 405 404
f 404 405 453
f 404 453 401
f 460 458 457
f 453 455 454
f 460 454 458
f 461 454 455
f 458 454 461
f 459 458 461
f 459 462 457
f 456 457 462
f 416 415 417
f 411 520 418
f 418 447 413
f 413 447 419
f 411 448 520
f 417 415 448
f 448 411 417
f 411 412 417
f 418 412 411
f 448 406 520
f 418 520 447
f 447 520 443
f 419 447 443
f 444 419 443
f 408 407 409
f 448 415 406
f 409 407 406
f 409 410 408
f 410 409 415
f 410 415 416
f 408 456 462
f 456 408 410
f 462 452 408
f 356 407 452
f 407 354 443
f 354 444 443
f 420 419 444
f 419 420 413
f 420 476 469
f 420 469 470
f 414 413 420
f 436 570 468
f 414 418 413
f 412 418 414
f 416 417 412
f 423 479 364
f 423 364 463
f 421 423 569
f 179 280 279
f 279 175 179
f 175 194 174
f 194 175 279
f 195 192 194
f 195 196 201
f 201 192 195
f 200 192 201
f 200 194 192
f 352 424 39
f 421 479 423
f 421 516 424
f 516 421 422
f 292 567 516
f 568 567 292
f 568 292 422
f 422 292 516
f 569 422 421
f 568 422 569
f 567 568 280
f 38 174 39
f 12 131 9
f 131 132 9
f 1 46 2
f 46 1 82
f 240 46 82
f 1 2 27
f 1 27 82
f 220 233 103
f 216 251 215
f 215 251 252
f 250 248 249
f 249 252 251
f 251 216 249
f 249 216 217
f 218 250 249
f 218 249 217
f 218 231 250
f 102 218 212
f 102 231 218
f 137 136 138
f 11 59 12
f 11 135 59
f 135 136 59
f 59 136 137
f 60 103 104
f 103 233 58
f 103 58 102
f 248 58 233
f 248 233 14
f 250 231 248
f 58 248 231
f 102 58 231
f 178 40 93
f 126 235 128
f 126 128 127
f 106 124 105
f 122 124 123
f 119 123 121
f 119 121 120
f 122 123 119
f 105 124 122
f 105 122 108
f 124 106 125
f 125 106 235
f 97 264 286
f 286 264 263
f 262 286 263
f 264 26 263
f 26 264 87
f 268 22 88
f 268 35 22
f 35 268 207
f 207 268 267
f 268 88 267
f 87 267 88
f 210 207 267
f 267 87 210
f 266 210 87
f 265 210 266
f 266 87 264
f 264 265 266
f 321 351 286
f 564 332 509
f 565 329 513
f 515 565 513
f 565 564 329
f 564 565 515
f 515 332 564
f 323 324 325
f 424 352 98
f 321 98 351
f 321 333 326
f 323 321 326
f 323 98 321
f 326 324 323
f 324 478 325
f 324 326 336
f 566 324 336
f 478 324 566
f 478 566 337
f 333 331 336
f 333 336 326
f 333 289 330
f 289 320 319
f 322 320 289
f 289 333 322
f 322 333 321
f 97 286 351
f 97 351 98
f 97 265 264
f 130 236 227
f 129 130 227
f 110 112 111
f 111 112 114
f 111 114 113
f 110 109 112
f 212 117 118
f 132 131 133
f 133 131 134
f 272 234 125
f 272 125 235
f 130 124 236
f 234 124 125
f 124 234 236
f 269 84 85
f 83 84 36
f 83 36 80
f 281 237 521
f 39 424 516
f 497 546 547
f 544 545 494
f 549 491 547
f 491 341 490
f 549 341 491
f 556 492 490
f 555 492 556
f 293 492 555
f 484 318 293
f 484 293 554
f 484 553 487
f 553 550 552
f 550 294 551
f 550 551 552
f 294 550 342
f 552 487 553
f 484 554 553
f 288 554 293
f 554 288 553
f 553 288 550
f 555 288 293
f 555 556 288
f 547 355 316
f 317 355 318
f 355 547 293
f 542 543 495
f 495 543 498
f 543 340 498
f 498 340 544
f 543 542 340
f 548 341 549
f 548 549 547
f 548 545 340
f 545 544 340
f 545 546 494
f 494 546 497
f 545 548 546
f 547 546 548
f 316 355 317
f 547 316 497
f 317 497 316
f 355 293 318
f 511 522 290
f 523 524 526
f 297 345 506
f 506 345 298
f 297 506 290
f 290 310 511
f 512 348 347
f 534 507 298
f 533 507 534
f 533 512 507
f 505 528 504
f 528 327 504
f 327 528 328
f 328 528 529
f 529 528 505
f 505 531 529
f 529 531 530
f 532 530 531
f 508 530 512
f 529 530 508
f 507 512 347
f 508 533 534
f 512 533 508
f 512 530 532
f 532 348 512
f 347 310 349
f 310 347 348
f 310 290 349
f 507 349 506
f 349 507 347
f 349 290 506
f 297 290 291
f 297 291 345
f 510 525 527
f 525 510 296
f 296 510 295
f 527 525 526
f 527 526 524
f 526 525 296
f 526 522 523
f 522 526 296
f 291 290 522
f 511 523 522
f 503 387 388
f 302 299 300
f 301 299 302
f 300 299 572
f 302 303 301
f 496 538 539
f 359 499 535
f 500 499 360
f 359 311 357
f 357 358 359
f 474 393 394
f 392 314 391
f 314 393 474
f 393 314 392
f 395 393 392
f 393 395 394
f 361 315 360
f 360 499 359
f 501 537 499
f 535 499 537
f 496 540 493
f 541 493 540
f 338 339 540
f 541 540 339
f 538 537 539
f 539 338 540
f 540 496 539
f 311 538 496
f 536 538 311
f 538 536 537
f 537 536 535
f 536 311 535
f 311 359 535
f 442 346 517
f 442 313 425
f 514 363 364
f 380 514 382
f 380 382 381
f 363 384 362
f 362 384 383
f 362 383 378
f 375 379 377
f 375 377 376
f 378 379 375
f 384 363 514
f 365 367 366
f 367 365 368
f 368 365 370
f 368 370 369
f 385 329 564
f 513 329 386
f 386 329 385
f 388 387 389
f 389 387 390
f 437 441 440
f 437 440 439
f 441 437 449
f 441 449 438
f 478 337 384
f 478 384 514
f 378 383 513
f 383 515 513
f 337 515 384
f 384 515 383
f 335 333 334
f 577 578 576
f 578 575 576
f 579 577 581
f 604 577 579
f 577 604 578
f 580 583 588
f 587 588 589
f 590 587 589
f 591 590 589
f 593 592 591
f 803 592 593
f 591 592 585
f 594 592 803
f 595 596 598
f 599 597 598
f 599 598 596
f 597 599 736
f 877 583 603
f 607 608 790
f 607 581 608
f 612 611 582
f 615 614 616
f 787 617 616
f 618 616 869
f 618 620 616
f 624 616 620
f 621 624 620
f 619 621 620
f 622 624 623
f 623 624 621
f 624 763 616
f 625 624 622
f 625 763 624
f 627 626 623
f 623 626 622
f 843 628 627
f 629 630 628
f 630 631 632
f 633 636 635
f 634 635 636
f 634 636 637
f 640 638 639
f 638 640 641
f 671 648 644
f 671 644 649
f 649 814 651
f 649 651 652
f 660 653 804
f 660 655 653
f 658 657 656
f 658 656 659
f 659 661 658
f 655 661 659
f 661 678 662
f 665 662 663
f 666 657 665
f 665 657 658
f 658 662 665
f 657 666 668
f 647 669 668
f 656 669 670
f 656 668 669
f 669 647 670
f 670 648 671
f 648 670 647
f 656 657 668
f 645 646 667
f 809 667 672
f 674 1362 672
f 674 1344 1362
f 674 675 1344
f 676 792 677
f 677 792 675
f 679 677 678
f 677 675 678
f 680 676 677
f 676 680 681
f 676 681 684
f 682 685 687
f 685 686 687
f 687 686 688
f 808 689 688
f 760 690 692
f 760 692 654
f 697 695 694
f 695 699 696
f 695 698 699
f 698 695 697
f 721 700 698
f 700 699 698
f 700 704 701
f 721 704 700
f 701 704 705
f 705 707 706
f 705 706 701
f 707 705 708
f 801 707 708
f 801 708 710
f 709 710 720
f 802 710 709
f 709 711 802
f 802 711 712
f 802 712 713
f 715 714 709
f 722 709 714
f 693 717 716
f 693 716 697
f 694 693 697
f 693 718 717
f 693 719 718
f 719 760 654
f 693 760 719
f 709 720 715
f 704 721 715
f 711 709 722
f 722 714 723
f 724 722 723
f 711 722 724
f 594 725 726
f 594 727 725
f 803 727 594
f 728 729 730
f 731 728 730
f 728 731 727
f 733 734 732
f 597 734 733
f 733 598 597
f 734 597 736
f 793 734 736
f 735 732 734
f 734 794 735
f 734 793 794
f 740 702 738
f 737 740 738
f 740 737 600
f 740 773 702
f 741 702 773
f 741 742 703
f 741 703 702
f 743 742 741
f 743 741 773
f 743 744 745
f 745 742 743
f 748 746 747
f 749 748 751
f 751 748 747
f 749 752 750
f 759 749 751
f 752 749 759
f 749 750 748
f 745 748 750
f 745 750 742
f 752 753 750
f 753 742 750
f 755 756 690
f 756 757 691
f 756 691 690
f 756 755 757
f 757 755 758
f 682 687 757
f 760 754 690
f 690 754 755
f 691 757 687
f 676 684 751
f 751 747 676
f 676 747 792
f 745 746 748
f 774 764 765
f 765 1375 767
f 774 765 767
f 772 771 770
f 772 770 769
f 771 600 770
f 771 740 600
f 938 740 771
f 938 773 740
f 771 772 938
f 773 938 744
f 773 744 743
f 600 601 770
f 601 602 770
f 605 767 182
f 774 605 606
f 774 767 605
f 774 606 764
f 775 764 606
f 606 776 775
f 781 780 779
f 781 782 780
f 783 780 782
f 780 783 778
f 783 782 609
f 778 783 777
f 777 783 609
f 777 784 786
f 777 609 784
f 775 785 764
f 762 764 785
f 763 785 787
f 762 785 763
f 786 784 610
f 610 784 609
f 788 615 610
f 611 614 788
f 614 615 788
f 612 614 611
f 610 615 786
f 782 781 789
f 782 789 790
f 609 782 790
f 789 781 791
f 790 789 607
f 625 622 763
f 936 792 747
f 675 792 1344
f 794 793 739
f 796 795 797
f 794 795 796
f 795 799 797
f 732 797 799
f 732 735 797
f 732 799 800
f 799 798 800
f 798 795 801
f 799 795 798
f 801 795 707
f 739 707 795
f 739 795 794
f 706 707 739
f 733 729 598
f 598 729 595
f 802 713 801
f 802 801 710
f 595 729 728
f 595 728 803
f 728 727 803
f 592 594 726
f 804 689 808
f 688 805 808
f 807 805 806
f 688 806 805
f 678 807 679
f 806 685 683
f 686 806 688
f 806 686 685
f 804 808 660
f 661 655 660
f 678 674 673
f 678 675 674
f 667 673 672
f 672 673 674
f 672 1361 809
f 672 1362 1361
f 809 1361 812
f 812 1361 1356
f 812 1356 810
f 643 812 810
f 452 643 810
f 645 812 643
f 645 667 812
f 809 812 667
f 673 664 678
f 662 658 661
f 649 652 671
f 814 642 641
f 814 813 642
f 814 649 813
f 650 817 815
f 819 817 650
f 815 821 816
f 821 815 818
f 818 815 817
f 876 822 823
f 876 823 825
f 876 825 826
f 860 827 828
f 830 862 829
f 830 832 862
f 832 830 831
f 833 831 830
f 824 833 830
f 840 834 835
f 839 823 822
f 839 824 823
f 833 824 837
f 837 824 839
f 836 838 820
f 820 636 633
f 820 633 836
f 632 836 633
f 632 835 836
f 631 840 835
f 632 631 835
f 630 840 631
f 630 841 840
f 841 842 847
f 629 841 630
f 629 842 841
f 842 843 847
f 628 842 629
f 843 846 844
f 845 843 844
f 847 843 845
f 846 623 844
f 627 846 843
f 627 623 846
f 852 849 848
f 849 851 850
f 851 849 852
f 851 854 850
f 851 853 854
f 851 852 853
f 855 859 854
f 859 855 858
f 859 858 857
f 860 859 861
f 861 859 857
f 860 861 827
f 840 863 834
f 841 847 863
f 863 840 841
f 859 864 854
f 864 850 854
f 860 828 829
f 829 862 860
f 865 613 867
f 865 868 613
f 869 613 868
f 868 865 870
f 872 870 865
f 872 853 874
f 874 853 852
f 621 871 873
f 621 873 844
f 621 619 871
f 875 867 613
f 867 875 866
f 875 856 866
f 875 586 856
f 612 586 875
f 865 853 872
f 844 623 621
f 628 843 842
f 826 584 876
f 821 876 816
f 816 876 584
f 638 641 642
f 616 763 787
f 612 582 586
f 581 607 579
f 583 877 588
f 589 588 877
f 878 595 593
f 595 878 596
f 593 591 878
f 590 591 585
f 1260 1259 894
f 893 1255 890
f 881 880 1255
f 882 880 881
f 882 881 883
f 1210 882 883
f 1211 884 1210
f 884 882 1210
f 1216 884 1211
f 884 885 882
f 885 880 882
f 886 880 885
f 884 886 885
f 886 887 880
f 1217 886 884
f 889 880 887
f 889 887 888
f 880 889 1255
f 890 1255 889
f 890 889 892
f 890 892 891
f 892 1254 891
f 891 1254 879
f 894 898 1260
f 894 895 901
f 898 894 901
f 896 897 899
f 898 899 897
f 896 899 915
f 899 898 900
f 902 900 901
f 903 904 905
f 1252 905 904
f 905 1252 906
f 906 1209 1335
f 905 1335 1336
f 908 905 1336
f 909 910 911
f 912 910 1338
f 899 910 912
f 899 912 913
f 899 913 915
f 914 916 1380
f 913 1380 916
f 915 913 916
f 917 916 914
f 1178 917 1179
f 917 914 1179
f 920 1337 921
f 923 1179 1160
f 1179 919 1160
f 919 926 924
f 924 926 925
f 925 926 927
f 925 930 924
f 925 927 928
f 929 930 925
f 925 928 929
f 928 930 929
f 927 930 928
f 931 932 930
f 932 919 930
f 935 933 934
f 1147 934 1341
f 1147 1341 936
f 746 1147 936
f 1146 1147 746
f 937 939 769
f 1156 939 937
f 941 940 1373
f 940 1374 1373
f 942 941 1373
f 941 942 943
f 943 942 945
f 945 946 943
f 942 944 945
f 946 945 1104
f 1104 945 948
f 1104 948 1103
f 948 947 1103
f 947 948 950
f 948 945 949
f 944 949 945
f 950 949 1369
f 949 950 948
f 1369 951 950
f 952 950 951
f 947 950 952
f 952 951 953
f 952 953 1099
f 953 1098 1099
f 1088 1098 953
f 953 951 954
f 955 954 951
f 955 956 954
f 955 957 956
f 959 967 958
f 961 960 959
f 960 961 963
f 1365 962 963
f 966 964 965
f 964 967 959
f 966 967 964
f 966 969 967
f 969 968 967
f 968 969 970
f 1075 970 971
f 969 971 970
f 974 972 971
f 973 971 972
f 1075 971 973
f 979 978 980
f 980 635 979
f 976 980 981
f 980 976 635
f 981 980 982
f 980 978 1129
f 978 983 1129
f 1129 982 980
f 983 1358 1129
f 1129 1358 1126
f 984 1126 1358
f 1358 985 984
f 985 1062 984
f 986 1062 985
f 987 986 1359
f 987 1359 1360
f 989 987 991
f 989 988 987
f 991 1360 990
f 991 987 1360
f 993 991 992
f 991 990 992
f 994 991 993
f 995 994 993
f 995 993 996
f 998 996 997
f 999 996 998
f 995 996 999
f 999 998 1001
f 1001 998 1000
f 932 931 1001
f 1002 1001 931
f 1002 999 1001
f 1003 1002 931
f 931 930 1003
f 1003 1005 1004
f 1007 1057 1004
f 1004 1005 1007
f 1007 1006 1057
f 920 921 1006
f 1056 1006 921
f 920 1006 1007
f 1056 921 1055
f 922 1008 1055
f 1055 921 922
f 1339 1013 1021
f 1020 1014 1019
f 1014 1166 1019
f 1019 1166 1015
f 1166 1016 1015
f 1015 1137 943
f 1016 1137 1015
f 1015 943 946
f 1017 1018 1019
f 1017 1019 946
f 946 1019 1015
f 1020 1019 1018
f 1025 1020 1018
f 1021 1013 1025
f 1013 1020 1025
f 1339 1021 1022
f 1033 1339 1022
f 1033 1022 1030
f 1022 1021 1023
f 1023 1025 1024
f 1025 1018 1024
f 1027 1024 1026
f 1027 1028 1024
f 1023 1024 1028
f 1029 1023 1028
f 1022 1023 1029
f 1030 1022 1029
f 1031 1030 1037
f 1031 1033 1030
f 1032 1012 1031
f 1012 1033 1031
f 1173 1012 1032
f 1010 1034 1036
f 1010 1036 1035
f 1009 1010 1035
f 1034 1037 1036
f 1036 1037 1039
f 1039 1037 1038
f 1040 1039 1108
f 1039 1038 1108
f 1041 1040 1042
f 1040 1041 1044
f 1050 1044 1041
f 1044 1050 1043
f 1046 1047 1045
f 1045 1047 1043
f 1047 1035 1044
f 1043 1047 1044
f 1044 1035 1040
f 1035 1036 1040
f 1040 1036 1039
f 1052 1047 1046
f 1009 1035 1047
f 1052 1009 1047
f 1048 1045 1043
f 1049 1048 1050
f 1049 1051 1048
f 1051 1049 986
f 1048 1051 988
f 1048 988 1045
f 989 1045 988
f 1045 989 1046
f 1059 994 995
f 1053 1054 1059
f 1059 995 1053
f 1060 1059 1054
f 1056 1055 1054
f 1006 1056 1057
f 1054 1053 1056
f 1053 1057 1056
f 1057 1002 1004
f 1057 1053 1002
f 1053 999 1002
f 1053 995 999
f 1055 1008 1058
f 1008 1009 1058
f 1010 1011 1034
f 1011 1173 1032
f 1011 1032 1034
f 1058 1060 1055
f 1052 1059 1060
f 1060 1058 1052
f 1058 1009 1052
f 1054 1055 1060
f 1059 989 991
f 1059 991 994
f 1052 1046 989
f 988 1051 987
f 1051 986 987
f 1062 986 1049
f 1062 1049 1061
f 1050 1061 1049
f 1062 1061 1063
f 1116 1063 1061
f 1065 1063 1116
f 1112 1065 1116
f 1065 1127 1063
f 1065 1064 1127
f 1066 1064 1065
f 1066 1072 1064
f 1066 1069 1072
f 1067 1069 1066
f 1069 1067 1068
f 1070 1069 1068
f 1086 1069 1070
f 1086 1071 1069
f 1071 1072 1069
f 1073 1125 1071
f 1125 1072 1071
f 1124 1073 1083
f 1124 1083 1074
f 1074 1082 1121
f 1075 1074 1076
f 1120 1080 1077
f 1084 1076 1079
f 1078 1079 1076
f 1079 1078 1077
f 1080 1079 1077
f 1120 1085 1080
f 1079 1080 1085
f 1085 1120 1081
f 1081 1120 1121
f 1082 1081 1121
f 1083 1081 1082
f 1083 1082 1074
f 1084 1079 1085
f 1085 1083 1084
f 1085 1081 1083
f 1084 1083 1086
f 1087 1084 1086
f 1070 1087 1086
f 956 1087 1070
f 956 1070 954
f 1088 954 1070
f 1088 1070 1089
f 1097 1089 1068
f 1070 1068 1089
f 1097 1068 1090
f 1090 1068 1067
f 1093 1091 1092
f 1090 1092 1091
f 1095 1093 1094
f 1093 1097 1091
f 1095 1096 1093
f 1096 1097 1093
f 1090 1091 1097
f 1088 1097 1098
f 1097 1096 1098
f 1098 1096 1099
f 1100 1096 1095
f 1100 1101 1096
f 1101 1099 1096
f 1027 1100 1106
f 1106 1100 1095
f 1026 1102 1027
f 1027 1102 1100
f 1102 1105 1100
f 1100 1105 1101
f 1105 1103 947
f 1102 1103 1105
f 1017 1104 1103
f 1017 1103 1102
f 946 1104 1017
f 1017 1102 1026
f 1101 1105 1099
f 952 1099 1105
f 952 1105 947
f 1018 1017 1026
f 1026 1024 1018
f 1028 1027 1106
f 1106 1029 1028
f 1106 1038 1029
f 1030 1029 1038
f 1107 1038 1106
f 1108 1038 1107
f 1108 1107 1109
f 1107 1110 1109
f 1109 1110 1042
f 1110 1114 1111
f 1114 1112 1111
f 1114 1113 1112
f 1113 1065 1112
f 1113 1066 1065
f 1115 1092 1113
f 1115 1113 1114
f 1110 1115 1114
f 1107 1094 1110
f 1094 1115 1110
f 1093 1092 1115
f 1094 1093 1115
f 1090 1067 1092
f 1067 1113 1092
f 1113 1067 1066
f 1111 1112 1116
f 1110 1111 1117
f 1117 1111 1116
f 1117 1116 1118
f 1118 1061 1050
f 1116 1061 1118
f 1048 1043 1050
f 1041 1117 1118
f 1050 1041 1118
f 1042 1117 1041
f 1042 1040 1109
f 1109 1040 1108
f 1042 1110 1117
f 1037 1030 1038
f 1106 1094 1107
f 1106 1095 1094
f 1088 1089 1097
f 957 1084 1087
f 1087 956 957
f 1119 1084 957
f 958 1119 957
f 967 1119 958
f 967 968 1119
f 968 1076 1119
f 1119 1076 1084
f 968 970 1076
f 1071 1086 1083
f 1076 1077 1078
f 970 1075 1076
f 973 1074 1075
f 972 1123 973
f 1122 1123 972
f 1136 1123 1122
f 1122 975 1135
f 1122 1135 1136
f 1136 1124 1123
f 1123 1124 973
f 1124 1125 1073
f 1128 1125 1126
f 1126 1127 1128
f 1128 1127 1064
f 1125 1128 1072
f 1128 1064 1072
f 1126 984 1127
f 984 1062 1127
f 1131 1129 1126
f 1131 1126 1130
f 1132 1131 1130
f 1135 1133 1134
f 1135 1134 1132
f 1135 975 1133
f 1133 975 976
f 1134 1133 981
f 1133 976 981
f 1134 981 982
f 982 1131 1134
f 982 1129 1131
f 1131 1132 1134
f 1135 1132 1136
f 1132 1130 1136
f 1130 1125 1124
f 1136 1130 1124
f 1130 1126 1125
f 972 974 1122
f 1122 974 975
f 973 1124 1074
f 1071 1083 1073
f 1063 1127 1062
f 1032 1031 1037
f 1034 1032 1037
f 1021 1025 1023
f 1137 1016 1165
f 1165 1155 1137
f 1165 1138 1155
f 1140 1138 1165
f 1140 1139 1138
f 1153 1138 1152
f 1139 1152 1138
f 1152 1139 1150
f 1150 1139 1157
f 1142 1157 1139
f 1139 1140 1142
f 1164 1141 1140
f 1141 1142 1140
f 1143 1159 1158
f 1144 1159 932
f 935 1144 933
f 1144 932 933
f 1145 935 934
f 1146 1145 1147
f 1147 1145 934
f 1146 1148 1149
f 745 1148 1146
f 744 1148 745
f 1149 1148 1150
f 1150 1148 1151
f 744 1151 1148
f 1150 1151 1152
f 1153 1152 1151
f 1151 938 1153
f 938 1151 744
f 772 1153 938
f 1153 772 1154
f 1154 772 939
f 939 940 1155
f 1156 940 939
f 1374 940 1156
f 941 1155 940
f 1154 1155 1138
f 939 1155 1154
f 1154 1138 1153
f 1150 1157 1149
f 1149 1157 1145
f 1157 1144 1145
f 1157 1158 1144
f 1144 1158 1159
f 1145 1144 935
f 1142 1158 1157
f 1146 1149 1145
f 1143 1161 1159
f 1161 1160 1159
f 1161 1143 1162
f 1142 1141 1143
f 1143 1158 1142
f 1162 1143 1141
f 1141 1163 1162
f 1164 1163 1141
f 1332 1163 1164
f 1166 1167 1016
f 1168 1014 1020
f 1013 1168 1020
f 1168 1170 1014
f 1171 1168 1013
f 1171 1175 1168
f 1175 1170 1168
f 1179 914 919
f 1184 1178 1177
f 1181 1180 1207
f 1181 1182 1180
f 1182 1183 1180
f 1183 1184 1180
f 1184 1185 1178
f 1185 917 1178
f 1186 1185 1184
f 1183 1186 1184
f 1186 1187 1185
f 1187 1188 1185
f 1185 1188 917
f 1188 916 917
f 1189 916 1188
f 1189 1269 916
f 1269 1268 916
f 1187 1189 1188
f 1183 1187 1186
f 1197 1191 1203
f 1192 1193 1181
f 1196 1193 1192
f 1194 1192 1195
f 1193 1196 1197
f 1197 1190 1193
f 1191 1199 1195
f 1194 1195 1199
f 1200 1195 1199
f 1201 1195 1200
f 1198 1195 1201
f 1199 1195 1198
f 1199 1198 1201
f 1199 1201 1200
f 1199 1198 1201
f 1194 1199 1191
f 1200 1199 1202
f 1190 1183 1193
f 1181 1193 1182
f 1193 1183 1182
f 1333 1206 1204
f 883 1204 1206
f 883 1206 1175
f 1174 883 1175
f 1205 883 1174
f 907 1205 1174
f 1209 1208 1173
f 1173 1208 1172
f 1208 907 1172
f 907 1174 1172
f 1333 1204 1203
f 1215 1208 1209
f 907 1210 1205
f 1210 883 1205
f 1211 1210 907
f 1208 1211 907
f 1215 1211 1208
f 1212 1215 906
f 1213 1215 1212
f 1214 1213 1212
f 1215 1216 1211
f 1236 1216 1215
f 1213 1236 1215
f 1216 1217 884
f 1217 1241 1218
f 1241 1240 1218
f 1240 1219 1218
f 1219 887 1218
f 886 1218 887
f 1219 888 887
f 1221 1241 1222
f 1226 1223 1246
f 1226 1246 1224
f 1222 1223 1226
f 1225 1224 1227
f 1224 1246 1227
f 1227 1246 1230
f 1227 1230 1228
f 1225 1227 1228
f 1225 1228 1229
f 1228 1235 1229
f 1228 1230 1235
f 1229 1235 1231
f 1232 1229 1231
f 1231 1235 1234
f 1234 1233 1213
f 1233 1236 1213
f 1235 1236 1233
f 1234 1235 1233
f 1235 1237 1236
f 1237 1238 1236
f 1244 1239 1242
f 1242 1239 1245
f 1242 1245 1241
f 1242 1241 1217
f 1243 1242 1217
f 1244 1242 1243
f 1243 1217 1216
f 1236 1243 1216
f 1236 1238 1243
f 1238 1244 1243
f 1221 1219 1240
f 1241 1221 1240
f 1222 1241 1245
f 1239 1244 1245
f 1222 1245 1223
f 1223 1245 1246
f 1245 1244 1246
f 1246 1244 1237
f 1246 1237 1230
f 1230 1237 1235
f 1237 1244 1238
f 1231 1234 1247
f 1247 1232 1231
f 1232 1247 1220
f 1220 1249 1248
f 1220 1247 1249
f 1249 892 1248
f 1249 1250 1254
f 892 1249 1254
f 1247 1250 1249
f 1247 1234 1250
f 1234 1213 1250
f 1250 1213 1214
f 1254 1250 1251
f 1250 1212 1251
f 1250 1214 1212
f 1251 1212 1252
f 1212 906 1252
f 906 1215 1209
f 895 1253 903
f 1253 904 903
f 895 1254 1253
f 1253 1251 904
f 1254 1251 1253
f 895 902 901
f 895 911 902
f 903 911 895
f 1251 1252 904
f 889 1248 892
f 1217 1218 886
f 883 881 1204
f 1203 1204 881
f 1203 881 1197
f 1255 1197 881
f 1256 1197 1255
f 1257 1258 1256
f 1257 1256 1259
f 1257 1259 1260
f 1257 1260 1261
f 1261 1264 1257
f 1264 1262 1258
f 1264 1258 1257
f 1263 1262 1264
f 1266 1265 1267
f 1266 1267 1261
f 1267 1264 1261
f 898 1261 1260
f 1266 1261 897
f 896 1266 897
f 1277 1266 896
f 1268 1277 896
f 1270 1268 1269
f 1271 1189 1187
f 1271 1273 1189
f 1273 1269 1189
f 1273 1270 1269
f 1190 1272 1183
f 1272 1187 1183
f 1272 1271 1187
f 1197 1256 1190
f 1256 1272 1190
f 1258 1271 1272
f 1258 1274 1271
f 1274 1273 1271
f 1307 1275 1273
f 1274 1307 1273
f 1275 1276 1270
f 1270 1276 1268
f 1276 1277 1268
f 1273 1275 1270
f 1276 1278 1277
f 1278 1266 1277
f 1279 1278 1280
f 1280 1278 1315
f 1315 1278 1276
f 1279 1266 1278
f 1293 1265 1279
f 1265 1266 1279
f 1293 1281 1292
f 1293 1279 1281
f 1283 1281 1282
f 1282 1281 1279
f 1283 1292 1281
f 1284 1283 1324
f 1324 1283 1282
f 1285 1284 1324
f 1287 1286 1285
f 1286 1284 1285
f 1289 1286 1287
f 1287 1285 1288
f 1288 1289 1287
f 1289 1290 1286
f 1291 1286 1290
f 1291 1284 1286
f 1291 1283 1284
f 1292 1283 1291
f 1297 1326 1263
f 1297 1294 1326
f 1294 1297 1295
f 1295 1297 1296
f 1297 1288 1296
f 1288 1295 1296
f 1289 1288 1297
f 1295 1288 1298
f 1299 1301 1302
f 1299 1302 1319
f 1308 1303 1304
f 1299 1319 1303
f 1298 1303 1308
f 1298 1299 1303
f 1306 1304 1305
f 1308 1304 1307
f 1307 1310 1275
f 1309 1307 1306
f 1310 1307 1309
f 1311 1310 1309
f 1275 1310 1311
f 1325 1311 1309
f 1325 1309 1312
f 1275 1311 1325
f 1275 1325 1313
f 1313 1276 1275
f 1325 1312 1313
f 1312 1318 1313
f 1316 1315 1317
f 1316 1280 1315
f 1315 1314 1317
f 1317 1314 1318
f 1317 1318 1312
f 1305 1319 1302
f 1319 1305 1303
f 1303 1305 1304
f 1302 1301 1300
f 1300 1324 1320
f 1324 1300 1301
f 1282 1279 1280
f 1323 1282 1280
f 1316 1322 1323
f 1316 1323 1280
f 1321 1282 1323
f 1324 1282 1321
f 1320 1324 1321
f 1322 1321 1323
f 1320 1321 1322
f 1301 1285 1324
f 1285 1301 1299
f 1276 1314 1315
f 1314 1276 1318
f 1318 1276 1313
f 1304 1306 1307
f 1294 1308 1326
f 1326 1308 1262
f 1262 1308 1274
f 1262 1263 1326
f 1308 1307 1274
f 1294 1298 1308
f 1294 1295 1298
f 1285 1299 1288
f 1288 1299 1298
f 1262 1274 1258
f 1256 1258 1272
f 897 1261 898
f 1256 1255 893
f 1268 896 916
f 1207 1176 1328
f 1207 1180 1176
f 1180 1184 1176
f 1176 1184 1177
f 923 1177 1178
f 1328 1176 1327
f 1327 1176 1177
f 1329 1328 1327
f 1327 1177 1334
f 1332 1329 1163
f 1163 1329 1327
f 1175 1206 1170
f 1174 1175 1171
f 1331 1170 1206
f 1331 1206 1333
f 1170 1331 1330
f 1163 1327 1162
f 1161 1162 1334
f 1334 1162 1327
f 1161 1334 923
f 1177 923 1334
f 1178 1179 923
f 1172 1174 1171
f 1335 1209 1173
f 1336 1335 1011
f 1335 1173 1011
f 1172 1169 1012
f 1173 1172 1012
f 1172 1171 1169
f 1336 1011 1010
f 908 1336 1010
f 922 908 1008
f 1008 908 1009
f 908 1010 1009
f 909 908 922
f 1338 910 1337
f 1338 1337 920
f 918 1338 920
f 909 1337 910
f 1337 909 922
f 922 921 1337
f 1170 1330 1167
f 1033 1169 1339
f 1169 1171 1339
f 1171 1013 1339
f 1012 1169 1033
f 1170 1167 1014
f 1014 1167 1166
f 1165 1016 1167
f 1161 923 1160
f 1159 1160 919
f 1159 919 932
f 1164 1140 1165
f 1137 1155 941
f 941 943 1137
f 1007 1005 920
f 1003 1340 1005
f 927 1340 930
f 927 926 1340
f 930 1340 1003
f 1004 1002 1003
f 1000 933 1001
f 1001 933 932
f 1000 998 1341
f 1341 998 1364
f 1342 1341 1364
f 1343 1341 1342
f 1341 1343 936
f 1345 1346 1344
f 1347 1348 1345
f 1349 1348 1347
f 996 1349 1347
f 996 993 1349
f 992 1351 1348
f 1349 992 1348
f 992 990 1351
f 1351 990 1350
f 1350 1352 1353
f 1355 1350 1353
f 1355 1353 1354
f 1356 1355 1354
f 977 1358 983
f 1359 1358 977
f 1359 977 1352
f 1353 1352 1357
f 1354 1353 1357
f 1360 1359 1352
f 1350 1360 1352
f 990 1360 1350
f 1352 977 1357
f 1359 985 1358
f 1357 977 978
f 1362 1363 1361
f 1362 1346 1363
f 1346 1351 1363
f 1346 1348 1351
f 1361 1363 1355
f 1363 1350 1355
f 1361 1355 1356
f 1363 1351 1350
f 1346 1345 1348
f 1344 1346 1362
f 993 992 1349
f 996 1347 997
f 1364 997 1347
f 998 997 1364
f 1344 1342 1364
f 1345 1344 1364
f 1364 1347 1345
f 1343 1342 1344
f 1000 1341 933
f 986 985 1359
f 977 983 978
f 978 979 1357
f 969 965 971
f 966 965 969
f 964 959 960
f 963 962 960
f 1365 1368 1377
f 1377 1368 1366
f 1368 1367 1366
f 1370 1366 955
f 1366 1367 955
f 955 1367 957
f 1367 958 957
f 961 959 1367
f 959 958 1367
f 963 961 1368
f 1368 961 1367
f 955 1369 1370
f 949 1370 1369
f 1370 949 1371
f 944 1371 949
f 1372 1371 944
f 942 1372 944
f 1373 1372 942
f 1374 1376 1373
f 1373 1376 1372
f 1376 1374 1379
f 1376 1378 1372
f 1376 1377 1378
f 1378 1370 1371
f 1372 1378 1371
f 1377 1366 1378
f 1378 1366 1370
f 1379 1377 1376
f 1365 1377 1379
f 1365 1379 962
f 1369 955 951
f 963 1368 1365
f 953 954 1088
f 939 772 769
f 934 933 1341
f 924 930 919
f 919 914 926
f 914 1340 926
f 918 920 1005
f 1340 918 1005
f 1380 918 1340
f 914 1380 1340
f 918 912 1338
f 1380 913 918
f 913 912 918
f 916 896 915
f 902 911 910
f 911 903 908
f 908 909 911
f 903 905 908
f 905 906 1335
f 910 899 902
f 902 899 900
f 898 901 900
f 879 895 894
f 1254 895 879
f 1256 893 1259
