v 0.047964 0.056295 -0.000379
v 0.044024 0.056295 -0.000379
v 0.04823 0.056706 -0.00052623
v 0.037315 0.056739 -0.00059214
v 0.037128 0.048696 -0.00046067
v 0.037457 0.056295 -0.000379
v 0.037135 0.048854 -0.00045793
v 0.036635 0.048673 -0.00543
v 0.035976 0.049137 -0.0080272
v 0.03428 0.05652 -0.013424
v 0.033623 0.056763 -0.015531
v 0.041677 0.056792 -0.023547
v 0.03118 0.056711 -0.019572
v 0.030272 0.056478 -0.020634
v 0.027012 0.056392 -0.024605
v 0.02235 0.056581 -0.028844
v 0.025072 0.048803 -0.026553
v 0.031129 0.048712 -0.019465
v 0.026273 0.056724 -0.025643
v 0.032665 0.056729 -0.03496
v 0.04009 0.056641 -0.026513
v 0.038617 0.056295 -0.028621
v 0.040902 0.051931 -0.025332
v 0.041251 0.051129 -0.024704
v 0.040821 0.052592 -0.025437
v 0.042094 0.048766 -0.023457
v 0.042386 0.050036 -0.022792
v 0.042844 0.049816 -0.022012
v 0.043286 0.048698 -0.021113
v 0.043493 0.048523 -0.020418
v 0.034378 0.04856 -0.013635
v 0.034196 0.048876 -0.013584
v 0.028476 0.048713 -0.023038
v 0.02022 0.048701 -0.030314
v 0.018506 0.056644 -0.031407
v 0.01336 0.056596 -0.033798
v 0.0098586 0.056479 -0.034901
v 0.0055314 0.048965 -0.035784
v -0.0016106 0.048911 -0.036159
v -0.0094771 0.056416 -0.034899
v -0.013998 0.056592 -0.033344
v 0.0016715 0.056736 -0.036344
v -0.015828 0.056795 -0.044345
v -0.031708 0.056711 -0.035421
v -0.012475 0.056745 -0.034326
v -0.019742 0.056707 -0.030538
v -0.027577 0.056766 -0.038464
v 0.012213 0.056795 -0.034663
v -0.00031423 0.056762 -0.047451
v -0.031097 0.056795 -0.019751
v -0.031655 0.056639 -0.017957
v -0.032752 0.056128 -0.015612
v -0.03546 0.056591 -0.008436
v -0.036285 0.056705 -0.0047708
v -0.036525 0.056207 -0.00066911
v -0.036732 0.056728 -0.000869
v -0.036639 0.048806 -0.00046758
v -0.036694 0.05649 -0.00045115
v -0.035394 0.049198 -0.0084234
v -0.034669 0.048622 -0.011538
v -0.033561 0.048832 -0.013907
v -0.03485 0.048496 -0.012378
v -0.031883 0.048721 -0.017381
v -0.028768 0.049118 -0.021987
v -0.028797 0.05656 -0.02202
v -0.024917 0.05614 -0.026179
v -0.025879 0.056712 -0.02556
v -0.022234 0.056452 -0.028514
v -0.017664 0.056447 -0.031532
v -0.021796 0.048828 -0.028828
v -0.016953 0.049156 -0.031903
v -0.016853 0.048635 -0.032128
v -0.01058 0.048625 -0.034613
v -0.017319 0.048495 -0.0323
v -0.023436 0.048584 -0.027784
v -0.028941 0.048495 -0.022905
v -0.028524 0.048632 -0.022567
v -0.024779 0.049067 -0.026341
v -0.020009 0.048516 -0.042854
v -0.029794 0.048545 -0.036999
v -0.0404 0.048548 -0.025257
v -0.037556 0.048625 -0.029278
v -0.035241 0.048803 -0.032047
v -0.031819 0.04871 -0.035401
v -0.036282 0.056552 -0.030904
v -0.041763 0.048546 -0.022797
v -0.041456 0.050324 -0.023639
v -0.040667 0.051287 -0.024936
v -0.040329 0.052611 -0.025482
v -0.041037 0.054575 -0.024351
v -0.042535 0.056368 -0.02186
v -0.039307 0.056604 -0.026943
v -0.042786 0.056786 -0.020597
v -0.036769 0.056777 -0.029874
v -0.022818 0.056598 -0.041715
v -0.025657 0.048676 -0.040044
v -0.020015 0.048811 -0.043198
v -0.010258 0.048527 -0.046382
v -0.012953 0.048676 -0.045763
v -0.014588 0.056682 -0.04524
v -0.0096909 0.056644 -0.046534
v -0.0054804 0.056652 -0.047253
v 0.0027228 0.056451 -0.047626
v 0.011467 0.056598 -0.046305
v 0.0060489 0.056755 -0.047124
v 0.016977 0.056678 -0.044561
v 0.019981 0.056298 -0.043429
v 0.017466 0.048798 -0.044459
v 0.022108 0.048508 -0.042147
v 0.019343 0.048495 -0.031538
v 0.036553 0.048498 -0.030983
v 0.017267 0.04869 -0.03203
v 0.01422 0.048691 -0.03343
v 0.010681 0.048849 -0.034673
v 0.0076994 0.048605 -0.035574
v 0.010564 0.048495 -0.035221
v 0.00096142 0.048601 -0.036341
v -0.0079417 0.048625 -0.035387
v 0.024936 0.048542 -0.026992
v 0.030339 0.048516 -0.021354
v 0.038353 0.048636 -0.028856
v 0.035172 0.048809 -0.032702
v 0.036775 0.056597 -0.030904
v 0.028559 0.056622 -0.038412
v 0.025184 0.056779 -0.040345
v 0.0148 0.056781 -0.04516
v 0.02497 0.056485 -0.040837
v 0.03177 0.048678 -0.035899
v 0.024889 0.048836 -0.040935
v 0.020912 0.056795 -0.030449
v 0.0076186 0.056758 -0.035716
v 0.0046319 0.056565 -0.035952
v -0.0033704 0.056658 -0.036055
v -0.00062861 0.056274 -0.036131
v 0.00027732 0.048522 -0.047451
v -0.0034603 0.048857 -0.047523
v 0.0036873 0.048542 -0.047421
v 0.0070772 0.048635 -0.047101
v 0.011545 0.048599 -0.046229
v -0.018148 0.056692 -0.043914
v -0.027321 0.056466 -0.038994
v -0.034536 0.056622 -0.011689
v -0.034747 0.056795 -0.012261
v -0.044272 0.05661 -0.017867
v -0.046768 0.056779 -0.0087399
v -0.045925 0.056582 -0.013406
v -0.045746 0.054515 -0.013975
v -0.043929 0.055563 -0.018793
v -0.041291 0.054617 -0.0073789
v -0.043263 0.055391 -0.007379
v -0.043737 0.055499 -0.018755
v -0.045089 0.054941 -0.01575
v -0.045496 0.0544 -0.0073757
v -0.04466 0.054045 -0.007379
v -0.044626 0.054011 -0.002179
v -0.04512 0.052048 -0.007379
v -0.045171 0.052238 -0.002179
v -0.045869 0.051812 -0.0073829
v -0.046 0.053363 -0.012003
v -0.046102 0.052519 -0.011705
v -0.046251 0.053473 -0.012191
v -0.045706 0.054128 -0.013386
v -0.046374 0.052783 -0.011704
v -0.046263 0.052196 -0.011881
v -0.046501 0.04868 -0.011172
v -0.047468 0.0487 -0.0063343
v -0.047367 0.056426 -0.00733
v -0.047841 0.056765 -0.0008887
v -0.047489 0.056295 -0.000379
v -0.047763 0.056633 -0.00053274
v -0.041579 0.056295 -0.000379
v -0.039609 0.056545 -0.000446
v -0.044265 0.056729 -0.00062898
v -0.037001 0.056776 -0.00070017
v -0.036847 0.048562 -0.0006076
v -0.041579 0.048608 -0.00058325
v -0.040923 0.048495 -0.000879
v -0.044862 0.048562 -0.000629
v -0.047691 0.048483 -0.00085323
v -0.047897 0.048743 -0.00057651
v -0.047866 0.04861 -0.00094073
v -0.047988 0.056384 -0.00077387
v -0.047943 0.054118 -0.00056222
v -0.04765 0.048812 -0.00041004
v -0.036225 0.048609 -0.0050825
v -0.044519 0.048518 -0.016608
v -0.044775 0.048896 -0.01687
v -0.045118 0.050475 -0.015199
v -0.044777 0.050285 -0.013522
v -0.043261 0.049795 -0.019393
v -0.04457 0.050066 -0.016954
v -0.045112 0.05018 -0.015861
v -0.043847 0.049764 -0.018823
v -0.041141 0.050775 -0.0073787
v -0.041863 0.051248 -0.007379
v -0.040517 0.052645 -0.007379
v -0.041363 0.052645 -0.007379
v -0.041897 0.051282 -0.002179
v -0.041355 0.053055 -0.002179
v -0.043774 0.050735 -0.002179
v -0.04275 0.054555 -0.002179
v -0.043762 0.050781 -0.007379
v -0.044128 0.049962 -0.0073789
v -0.042259 0.054382 -0.007379
v -0.040779 0.054162 -0.024685
v -0.040504 0.05361 -0.025203
v -0.040358 0.052649 -0.025399
v -0.041958 0.055257 -0.022682
v -0.042981 0.055557 -0.02072
v -0.043453 0.056238 -0.020031
v -0.042074 0.04997 -0.022293
v -0.042714 0.049554 -0.021466
v -0.045887 0.051475 -0.012747
v -0.046239 0.051627 -0.012294
v -0.045837 0.050775 -0.013724
v 0.036069 0.048539 -0.0088875
v 0.047513 0.048518 -0.0075485
v 0.047114 0.048831 -0.010907
v 0.045859 0.048601 -0.014636
v 0.045149 0.048987 -0.017132
v 0.044 0.049714 -0.01963
v 0.043887 0.049791 -0.019368
v 0.044978 0.050097 -0.016681
v 0.042481 0.050203 -0.0073981
v 0.043775 0.049882 -0.0074927
v 0.045333 0.050314 -0.014455
v 0.045184 0.050307 -0.007424
v 0.045474 0.050413 -0.015383
v 0.045409 0.050195 -0.01614
v 0.045363 0.050031 -0.016461
v 0.04452 0.049884 -0.01818
v 0.046323 0.050914 -0.013646
v 0.04569 0.050459 -0.015193
v 0.046211 0.051189 -0.013287
v 0.046829 0.052946 -0.011731
v 0.046221 0.054088 -0.013151
v 0.045305 0.054985 -0.014788
v 0.046343 0.053747 -0.01231
v 0.045983 0.05428 -0.0075374
v 0.042297 0.055059 -0.017688
v 0.04341 0.055384 -0.007426
v 0.044693 0.055345 -0.017481
v 0.046188 0.054482 -0.014002
v 0.047107 0.056458 -0.010791
v 0.048029 0.056609 -0.0059088
v 0.04639 0.056741 -0.013052
v 0.04839 0.056615 -0.00070194
v 0.048194 0.048833 -0.0047107
v 0.048379 0.048674 -0.00097901
v 0.037783 0.048495 -0.00088448
v 0.048395 0.048847 -0.00054317
v 0.048172 0.048614 -0.00048456
v 0.048224 0.050867 -0.00044253
v 0.048446 0.052615 -0.00068092
v 0.048359 0.056266 -0.00054939
v 0.036827 0.056719 -0.0046211
v 0.036106 0.056033 -0.0074741
v 0.035707 0.056703 -0.0094649
v 0.044948 0.056538 -0.01755
v 0.044283 0.055521 -0.018895
v 0.045233 0.055214 -0.016678
v 0.04482 0.055508 -0.017829
v 0.041014 0.053774 -0.025145
v 0.042485 0.055301 -0.022591
v 0.043286 0.056143 -0.021337
v 0.041417 0.05441 -0.024481
v 0.041211 0.053687 -0.0073736
v 0.042157 0.054862 -0.0073649
v 0.044905 0.055105 -0.0073876
v 0.046383 0.053311 -0.0073972
v 0.046492 0.052486 -0.0074333
v 0.046026 0.051183 -0.0073882
v 0.046463 0.051984 -0.011857
v 0.046732 0.052207 -0.011897
v 0.04656 0.052873 -0.011694
v 0.041002 0.05265 -0.0074716
v 0.041313 0.051291 -0.0074489
v 0.03709 0.056499 -0.00052465
v 0.017535 0.01158 0.047056
v 0.0094258 0.011264 0.048906
v -0.0073938 0.011028 0.048557
v -0.02991 0.011097 0.038245
v -0.038658 0.010533 0.028665
v -0.047263 0.012817 0.012063
v 0.016774 0.0081328 0.046003
v 0.01671 0.0053397 0.043652
v 0.012787 0.0031298 0.041616
v -0.040778 0.001333 0.012181
v -0.043215 0.0024744 0.0070782
v 0.012801 4.5747e-05 0.034443
v -0.037089 -0.0025666 0.010214
v 0.0065528 -0.0022297 0.032974
v -0.045174 0.0060141 0.01031
v -0.029858 -0.0024838 0.020854
v 0.00078442 0.017755 0.050532
v -0.00015044 0.011339 0.049494
v -0.015205 0.011269 0.046553
v -0.022893 0.011159 0.043043
v -0.028039 0.018336 0.041909
v -0.034527 0.010999 0.033834
v -0.039645 0.018357 0.031092
v -0.042842 0.01089 0.022229
v -0.04495 0.0088349 0.01579
v 0.021995 0.0051619 0.041206
v 0.018843 -0.0019942 0.02859
v -0.039653 -0.0022645 0.0033365
v -0.0086653 -0.0061006 0.032168
v -0.019348 -0.0026488 0.029288
v -0.025068 -0.0025227 0.025504
v -0.03319 -0.0027853 0.016675
v 0.0088196 0.0080634 0.047733
v 0.00068884 0.007914 0.048099
v -0.0095808 0.0078089 0.046758
v -0.021226 0.0077397 0.042374
v -0.029545 0.0077105 0.036701
v -0.036787 0.007606 0.029183
v -0.042203 0.0075625 0.020567
v 0.0086378 0.0052687 0.045491
v 0.00040267 0.0051447 0.045833
v -0.0075099 0.0050213 0.044852
v -0.017158 0.0049439 0.041945
v -0.025812 0.0049806 0.037153
v -0.033163 0.0048992 0.030644
v -0.042829 0.0046667 0.01506
v 0.00037708 0.0029715 0.042819
v -0.012037 0.0025836 0.040593
v -0.0227 0.002706 0.036095
v -0.033968 0.002494 0.025937
v -0.039007 0.0040336 0.021696
v 0.0061838 -0.00029913 0.035566
v -0.028369 0.0023407 0.031456
v -0.0035634 -0.0004835 0.035967
v -0.01465 -0.00075055 0.033553
v -0.020318 -0.00094481 0.030949
v -0.035399 -0.0010087 0.016558
v -0.0065776 -0.0024311 0.033141
v 0.024108 0.016395 0.044678
v -0.046974 0.015928 0.01637
v 0.023076 0.0092122 0.044148
v 0.021224 0.0026037 0.036776
v 0.021131 -0.00035775 0.029204
v 0.01645 -0.0055643 0.029186
v 0.012801 -0.0021728 0.031338
v 0.00047152 -0.0023101 0.033555
v -0.01258 -0.0025048 0.031916
v -0.022735 -0.0059346 0.026633
v -0.048332 0.018207 0.010079
v -0.048315 0.017111 0.00062124
v -0.047195 0.010163 0.00021095
v -0.04625 0.0075982 0.0055333
v -0.043508 0.0018747 0.0022048
v -0.041461 -0.00064736 0.0014021
v -0.02183 0.018372 0.04546
v -0.034256 0.018489 0.036961
v 0.01771 0.018238 0.047582
v 0.0098157 0.017685 0.049684
v 0.004147 0.019062 0.050508
v -0.0073253 0.018199 0.050006
v -0.014795 0.018501 0.048286
v -0.044473 0.018476 0.023715
v -0.047729 0.018793 0.016076
v -0.0019273 -0.012379 0.018068
v 0.013788 -0.010171 0.021562
v 0.019225 -0.0095474 0.018694
v 0.028273 -0.007129 0.0088424
v 0.023924 -0.0082622 0.015629
v -0.036309 -0.0041534 0.0042601
v -0.034796 -0.0047113 0.0081821
v -0.029439 -0.0048606 0.016957
v -0.02332 -0.005419 0.023041
v -0.018809 -0.0055929 0.026029
v -0.003744 -0.005821 0.030193
v 0.010645 -0.0054355 0.028888
v 0.017893 -0.0052818 0.025523
v 0.027531 -0.0050185 0.013994
v 0.022985 -0.0044497 0.021204
v 0.025385 -0.0046337 0.017917
v 0.024637 -0.0095283 0.0094112
v 0.026145 -0.0091926 0.0065873
v -0.036355 -0.0055053 0.0025774
v -0.034504 -0.0068777 0.0053444
v -0.029006 -0.0092018 0.0098323
v -0.022957 -0.010659 0.013323
v -0.01622 -0.011713 0.015756
v -0.0094241 -0.012154 0.017596
v 0.0051072 -0.012247 0.017773
v 0.014729 -0.012054 0.012672
v -0.029989 -0.0018572 0.017043
v -0.026441 -0.001669 0.021124
v -0.011443 -0.005806 0.028867
v -0.0054118 -0.001222 0.031133
v 0.0021138 -0.0057863 0.030278
v 0.029278 -0.0046998 0.0098971
v -0.030726 -0.0078086 0.011435
v -0.024148 -0.009076 0.017165
v -0.017656 -0.009867 0.021051
v -0.010459 -0.010292 0.023385
v -0.002947 -0.01043 0.024446
v 0.0063426 -0.010271 0.024135
v -0.032935 -0.0051927 0.011584
v -0.029495 -0.0063438 0.015668
v -0.01857 -0.007447 0.024726
v -0.023306 -0.0071096 0.021667
v -0.011258 -0.007741 0.027465
v -0.003538 -0.007843 0.028709
v 0.004342 -0.007768 0.028551
v 0.01059 -0.0075906 0.027351
v 0.018009 -0.0071546 0.024044
v 0.023991 -0.0064511 0.018703
v -0.037367 -0.0043368 0.00022866
v 0.019111 -0.011279 0.011149
v 0.0069972 -0.0010459 0.030711
v 0.012004 -0.003392 0.028724
v 0.0034556 -0.013298 -0.015484
v -0.015886 -0.013069 -0.017376
v -0.025676 -0.011908 -0.017344
v -0.032188 -0.01055 -0.017344
v 0.013554 -0.013098 -0.0067168
v 0.0053633 -0.013961 0.00040535
v -0.037204 -0.0080642 -0.010291
v 0.021549 -0.011721 0.0017329
v 0.011036 -0.01339 0.0065273
v -0.005131 -0.01368 0.0096983
v -0.020213 -0.012445 0.007435
v -0.029854 -0.010241 0.003429
v -0.035564 -0.007789 -0.000886
v -0.039693 -0.0047404 -0.012243
v -0.039846 -0.0036712 -0.01266
v -0.038323 -0.0059317 -0.0062337
v 0.0076364 -0.01325 -0.012856
v -0.036962 -0.0086881 -0.017352
v -0.039585 -0.0060725 -0.017351
v -0.040271 -0.0042812 -0.017353
v -0.038653 -0.0037845 -0.0051886
v -0.006546 -0.014051 -0.0061989
v -0.017027 -0.013458 -0.0011333
v -0.0060411 -0.014096 0.0027812
v -0.024295 -0.012377 -0.0028598
v -0.031201 -0.010777 -0.0057185
v -0.0017539 -0.013278 -0.017101
v 0.01216 -0.01457 0.015219
v -0.030954 -0.011034 0.0102
v -0.034655 -0.0093568 0.0076635
v -0.019453 -0.013253 0.017882
v -0.005601 -0.013917 0.022106
v -0.038214 -0.0050661 0.0062741
v -0.034623 -0.0062882 0.013177
v 0.027758 -0.0065436 0.017968
v -0.028429 -0.0067757 0.021155
v -0.015159 -0.0060564 0.030496
v -0.0024822 -0.0061812 0.032876
v 0.0058897 -0.006152 0.03241
v 0.01226 -0.005983 0.030841
v 0.020323 -0.005679 0.026734
v 0.02373 -0.0066131 0.023332
v -0.039989 -0.0036644 0.00040082
v 0.026256 -0.012079 0.0067154
v -0.039657 -0.0054137 0.00106
v -0.037111 -0.0072308 0.0066152
v -0.027026 -0.011876 0.013703
v 0.02698 -0.0046626 0.020114
v 0.029535 -0.0090498 0.010178
v 0.031129 -0.00527 0.011852
v 0.0089127 -0.013575 0.021557
v 0.017996 -0.012664 0.018635
v 0.024375 -0.011365 0.014522
v -0.034054 -0.0085304 0.011177
v -0.028349 -0.010032 0.016983
v -0.021589 -0.011091 0.022005
v -0.014681 -0.011644 0.025082
v -0.0043836 -0.011953 0.027258
v 0.0063129 -0.011798 0.026872
v 0.014441 -0.011307 0.024853
v 0.021626 -0.010408 0.021009
v 0.027434 -0.0089551 0.01535
v -0.022556 -0.0079299 0.025535
v -0.015368 -0.0083388 0.029088
v -0.0069228 -0.0084553 0.031191
v 0.0018175 -0.0085002 0.031536
v 0.010441 -0.0083012 0.030195
v 0.018577 -0.0078609 0.026799
v 0.004036 -0.015053 0.016694
v 0.019094 -0.013725 0.012373
v -0.006978 -0.015085 0.016637
v -0.038637 -0.0067212 0.0025576
v -0.039354 -0.0099669 -0.01735
v 0.0085636 -0.016316 -0.00079843
v 0.010989 -0.015754 0.0079383
v -0.0055907 -0.016235 0.0092796
v -0.016814 -0.015009 0.011442
v -0.024659 -0.014178 0.005603
v -0.031606 -0.012372 0.002714
v -0.040458 -0.0075851 -0.0071841
v 0.010085 -0.015768 -0.010419
v -0.03316 -0.012844 -0.01735
v 0.021416 -0.014362 0.0015895
v -0.041492 -0.0077019 -0.017354
v -0.042739 -0.0045197 -0.017354
v -0.042258 -0.0044569 -0.012539
v -0.0072926 -0.016663 -0.0014607
v -0.018258 -0.015866 -0.0029365
v -0.025676 -0.01472 -0.0046978
v -0.032805 -0.012953 -0.0072729
v -0.038171 -0.0097569 -0.0045737
v -0.0023677 -0.015824 -0.017216
v -0.013351 -0.015635 -0.017342
v -0.041205 -0.0045574 -0.005645
v -0.041328 -0.0024986 -0.0055784
v -0.023853 -0.014748 -0.017341
v 0.0044118 -0.015758 -0.015096
v -0.042496 -0.00024456 -0.0090522
v -0.043744 0.0037227 -0.013405
v -0.047944 0.014496 -0.011967
v -0.04023 -0.0025938 0.00019743
v -0.043987 0.0023086 -0.001724
v -0.04541 0.0049566 0.002282
v -0.042826 0.000981 -0.017354
v -0.043252 0.0051703 -0.017352
v -0.047113 0.016205 -0.017388
v -0.046148 0.0070539 -0.0052109
v -0.044403 0.016648 -0.01736
v -0.040842 0.0060815 -0.017354
v -0.040333 0.001144 -0.017353
v -0.047585 0.019149 -0.016808
v -0.044903 0.019069 -0.016849
v -0.048388 0.021357 -0.014297
v -0.045562 0.021138 -0.014856
v 0.027172 0.000325 0.015315
v 0.023965 -0.000327 0.020612
v 0.018852 -0.0017911 0.02546
v 0.028453 0.004355 0.016451
v 0.019516 0.0035286 0.032973
v 0.024202 0.0037083 0.028146
v 0.020328 0.000237 0.025647
v 0.030751 0.007502 0.018033
v 0.025209 0.007595 0.037671
v 0.035915 0.012251 0.021211
v 0.027172 0.010908 0.038864
v 0.04054 0.015785 0.02181
v 0.028427 0.015355 0.038994
v 0.041689 0.017057 0.02303
v 0.038339 0.017408 0.029495
v 0.03746 0.014987 0.029158
v 0.033411 0.014827 0.03442
v 0.029414 0.001525 0.01004
v 0.030304 0.005978 0.010981
v 0.033182 0.010263 0.014021
v 0.022089 0.0055727 0.036755
v 0.02236 0.011685 0.042387
v 0.040686 0.021519 0.026478
v 0.025861 0.003264 0.022031
v 0.030348 0.0076714 0.025562
v 0.028965 0.007782 0.032126
v 0.034733 0.011646 0.027894
v 0.031505 0.01086 0.033683
v 0.018171 0.001031 0.028394
v 0.021642 0.0081546 0.040888
v 0.017629 -0.00098629 0.026627
v 0.028997 -0.0021566 0.017066
v 0.024269 -0.00205 0.023806
v 0.031076 0.0045123 0.019556
v 0.025309 0.002056 0.030652
v 0.024592 0.004425 0.038331
v 0.042528 0.014492 0.023905
v 0.027191 0.007676 0.040368
v 0.028711 0.011912 0.041358
v 0.043839 0.016692 0.025253
v 0.03879 0.014635 0.031883
v 0.035047 0.016565 0.036829
v 0.031392 0.0019135 0.012135
v 0.033653 0.0070801 0.014522
v 0.043928 0.018966 0.026065
v 0.02744 0.00020435 0.020749
v 0.028264 0.002689 0.024818
v 0.032989 0.0069085 0.02857
v 0.028429 0.00442 0.03283
v 0.032854 0.0081726 0.033704
v 0.033273 0.010985 0.036398
v 0.039386 0.017535 0.03224
v 0.029475 0.016979 0.041411
v 0.034482 0.021797 0.034201
v 0.030009 0.021807 0.037979
v 0.024078 0.021805 0.04195
v 0.014429 0.021808 0.046109
v -0.0069811 0.021808 0.047567
v -0.01659 0.021808 0.045126
v -0.014553 0.018428 0.04575
v -0.028099 0.01861 0.038824
v -0.040656 0.021808 0.025436
v -0.039032 0.018615 0.02772
v -0.045751 0.018743 0.013873
v -0.04588 0.018211 -0.0088337
v -0.045868 0.021808 -0.01235
v 0.042222 0.018362 0.023825
v 0.0027529 0.021808 0.048138
v 0.0098144 0.018868 0.047194
v 0.0020097 0.018838 0.048098
v -0.005827 0.01882 0.047723
v -0.025336 0.021808 0.040718
v -0.033177 0.021808 0.034663
v -0.045786 0.021807 0.014187
v 0.041339 0.02183 0.029918
v 0.034585 0.021808 0.03738
v 0.021108 0.021808 0.046212
v 0.028243 0.021808 0.042305
v 0.012202 0.021808 0.049277
v 0.00014069 0.021808 0.050727
v -0.013152 0.021808 0.048911
v -0.023387 0.021807 0.044711
v -0.030374 0.021807 0.040241
v -0.036225 0.021808 0.035055
v -0.04145 0.021808 0.028659
v -0.045458 0.021808 0.021712
v -0.048285 0.021808 0.014152
v -0.04836 0.021809 -0.012482
v 0.042749 0.021138 0.027769
v -0.040208 0.000828 -0.010006
v -0.039577 -0.001592 -0.009971
v -0.042057 0.005241 -0.00998
v -0.04511 0.012924 -0.009609
v -0.039893 0.000805 -0.002512
v -0.04177 0.0037979 0.0024145
v -0.044391 0.0091737 0.00075716
v -0.043206 0.0060557 0.00064191
v -0.045355 0.013798 -0.0012697
v -0.038149 -0.0014261 -0.00071682
v 0.016374 0.017667 0.045383
v 0.0081001 0.011383 0.046515
v 0.00044203 0.011328 0.046871
v -0.0071881 0.011284 0.04601
v -0.02142 0.01861 0.042917
v -0.034018 0.018625 0.033714
v -0.044337 0.011167 0.011249
v 0.014995 0.011157 0.044992
v 0.014457 0.007821 0.043225
v -0.042782 0.006922 0.010044
v -0.040884 0.00394 0.00882
v -0.036447 -0.0013004 0.0058416
v 0.012358 -0.000901 0.029308
v 0.0015079 -0.0011542 0.031346
v -0.011146 -0.001346 0.030048
v -0.016774 -0.00146 0.028087
v -0.02199 -0.0016052 0.025048
v -0.015014 0.010943 0.043652
v -0.021563 0.011062 0.040682
v -0.027822 0.011012 0.03644
v -0.033265 0.010943 0.031262
v -0.037928 0.010824 0.025212
v -0.043158 0.018507 0.020676
v -0.040958 0.008124 0.017465
v 0.007087 0.007717 0.044567
v -0.000349 0.007609 0.044708
v -0.007671 0.007515 0.043701
v -0.014726 0.007435 0.041602
v -0.021359 0.007361 0.038441
v -0.027381 0.007271 0.034218
v -0.032542 0.007142 0.029067
v -0.036885 0.007033 0.023283
v 0.010527 0.0051311 0.040481
v -0.0039579 0.004976 0.041139
v -0.020173 0.004605 0.035628
v -0.025939 0.004458 0.031699
v -0.03088 0.004287 0.026817
v -0.03508 0.004137 0.021336
v -0.038464 0.004014 0.015338
v 0.010344 0.0030231 0.03588
v -0.003059 0.0028475 0.036984
v -0.013705 0.0047502 0.038505
v -0.017384 0.00032549 0.029466
v -0.022626 0.00012401 0.026311
v -0.027211 -7.3935e-05 0.0221
v -0.031273 -0.00021883 0.017297
v -0.033902 -0.0011699 0.011649
v 0.010186 0.00086461 0.031896
v -0.0022512 0.00051104 0.032966
v -0.011445 0.000317 0.031459
v -0.04765 0.056439 0.0016527
v -0.036934 0.056449 0.0016335
v -0.043549 0.056729 0.001871
v -0.040923 0.056796 0.002121
v -0.037036 0.056791 0.0023351
v -0.036179 0.056502 0.0060126
v -0.036483 0.055544 0.002101
v -0.035385 0.048845 0.0098697
v -0.03545 0.056567 0.0096644
v -0.047201 0.056781 0.0075789
v -0.044519 0.056739 0.018306
v -0.034086 0.056656 0.014215
v -0.033263 0.056436 0.015883
v -0.033253 0.049167 0.015834
v -0.031816 0.048698 0.018826
v -0.028996 0.048735 0.023004
v -0.026649 0.048688 0.025763
v -0.023122 0.048827 0.02909
v -0.023467 0.056247 0.028713
v -0.019631 0.056407 0.031587
v -0.015541 0.056566 0.033885
v -0.018631 0.048969 0.032226
v -0.022045 0.048546 0.030178
v 0.00014 0.048496 0.048371
v -0.012349 0.048496 0.046873
v -0.020536 0.048797 0.044177
v -0.015216 0.048679 0.046264
v -0.021011 0.04853 0.043685
v -0.011017 0.048867 0.047573
v -0.0090536 0.056797 0.047669
v -0.007438 0.05631 0.048284
v -0.0026075 0.056678 0.048705
v 0.0080021 0.056753 0.04804
v 0.0029778 0.056663 0.048708
v 0.00041218 0.056325 0.048897
v 0.002476 0.048791 0.048802
v 0.0085586 0.056474 0.04817
v 0.016479 0.056789 0.045836
v 0.03396 0.056796 0.034779
v 0.034265 0.056648 0.014938
v 0.03593 0.056432 0.0095347
v 0.033033 0.049241 0.017258
v 0.029123 0.049934 0.02337
v 0.029553 0.04868 0.022954
v 0.025585 0.056592 0.027323
v 0.024524 0.049131 0.028271
v 0.033039 0.055899 0.017245
v 0.031133 0.056719 0.020941
v 0.025671 0.056794 0.027995
v 0.028982 0.056528 0.023642
v 0.018525 0.056788 0.03311
v 0.021921 0.056565 0.030403
v 0.016555 0.056648 0.033722
v 0.017446 0.056139 0.033137
v 0.016106 0.048703 0.033848
v 0.010278 0.050305 0.036004
v 0.020514 0.048715 0.031397
v 0.025779 0.048632 0.027276
v 0.016303 0.048496 0.045587
v 0.024018 0.048496 0.029307
v 0.029332 0.048496 0.02408
v 0.033036 0.048508 0.035619
v -0.0037904 0.048496 0.037684
v 0.019631 0.048537 0.0322
v 0.0047208 0.048496 0.037741
v -0.010101 0.048496 0.03646
v 0.015696 0.048609 0.046213
v 0.01828 0.048879 0.045421
v 0.019739 0.056524 0.044783
v 0.026939 0.048682 0.040788
v 0.023432 0.048563 0.042841
v 0.030987 0.048642 0.037715
v 0.033624 0.048668 0.035395
v 0.036851 0.048805 0.032046
v 0.033088 0.056645 0.035873
v 0.036928 0.056537 0.031947
v 0.039183 0.056658 0.028965
v 0.040851 0.053091 0.026665
v 0.039745 0.048819 0.02831
v 0.04199 0.048692 0.024713
v 0.038487 0.048509 0.029586
v 0.044298 0.048562 0.01984
v 0.044658 0.048862 0.019571
v 0.043544 0.049605 0.021954
v 0.040823 0.052584 0.026678
v 0.042483 0.05528 0.023707
v 0.041972 0.054985 0.024818
v 0.041485 0.05451 0.025649
v 0.041022 0.053726 0.026347
v 0.041125 0.051335 0.026227
v 0.041814 0.050429 0.025084
v 0.042398 0.050054 0.024037
v 0.041882 0.050429 0.024816
v 0.041195 0.05122 0.026021
v 0.041059 0.053822 0.02634
v 0.04128 0.054225 0.02587
v 0.042895 0.056796 0.022509
v 0.043255 0.056667 0.022253
v 0.04534 0.056603 0.017643
v 0.046409 0.054218 0.014584
v 0.046459 0.054197 0.014447
v 0.046821 0.053351 0.013184
v 0.046565 0.053506 0.013574
v 0.047495 0.056583 0.010191
v 0.04831 0.053559 0.0017855
v 0.048331 0.056519 0.0017488
v 0.044024 0.056296 0.001621
v 0.047997 0.048872 0.001632
v 0.041398 0.048996 0.001621
v 0.037256 0.056656 0.0017064
v 0.03701 0.056446 0.0019542
v 0.036672 0.056513 0.0059073
v 0.036984 0.049344 0.0019717
v 0.036744 0.048581 0.006314
v 0.037316 0.049004 0.0016348
v 0.048143 0.048546 0.0018274
v 0.037389 0.048652 0.0017422
v 0.037441 0.048514 0.001971
v 0.045975 0.048496 0.015135
v 0.035978 0.048845 0.0093505
v 0.047218 0.048741 0.011551
v 0.046707 0.0517 0.013516
v 0.046772 0.052571 0.012966
v 0.046529 0.052256 0.013025
v 0.046553 0.052864 0.012972
v 0.045449 0.054953 0.016884
v 0.043737 0.055391 0.008621
v 0.042014 0.054843 0.0086208
v 0.043914 0.055501 0.020443
v 0.044467 0.055493 0.01979
v 0.044066 0.055926 0.020889
v 0.045279 0.05528 0.017894
v 0.045996 0.054367 0.015129
v 0.046898 0.052519 0.012886
v 0.043575 0.055566 0.021746
v 0.043539 0.055512 0.021634
v 0.042723 0.055427 0.023479
v 0.043405 0.05563 0.022214
v 0.041072 0.056459 0.026312
v 0.040992 0.052646 0.008621
v 0.041847 0.050554 0.0086208
v 0.044328 0.049888 0.0086207
v 0.045372 0.050372 0.015677
v 0.046348 0.051453 0.013955
v 0.045867 0.050801 0.015407
v 0.046332 0.051588 0.013694
v 0.046344 0.051812 0.0086258
v 0.045971 0.0544 0.008616
v 0.046369 0.053582 0.013346
v 0.04608 0.050585 0.015661
v 0.045905 0.050631 0.015973
v 0.045833 0.048679 0.016377
v 0.045135 0.049942 0.018273
v 0.044846 0.050004 0.018599
v 0.044883 0.050053 0.018184
v 0.044308 0.049809 0.02
v 0.04539 0.050307 0.017154
v 0.043681 0.049771 0.021272
v 0.048025 0.048657 0.0068059
v 0.048439 0.048727 0.0023977
v 0.048267 0.048678 0.0017803
v 0.04847 0.048948 0.0021661
v 0.034493 0.048801 0.01416
v 0.03483 0.048551 0.013805
v 0.032368 0.048577 0.018854
v 0.037098 0.053597 0.0017441
v 0.037079 0.048745 0.0018102
v 0.037166 0.056415 0.0017037
v 0.03613 0.056757 0.010025
v 0.034616 0.056795 0.015394
v 0.04732 0.056785 0.0097267
v 0.046304 0.056614 0.014855
v 0.048193 0.05675 0.0018607
v 0.048108 0.056569 0.0065762
v 0.028029 0.056713 0.039883
v 0.020843 0.056674 0.044153
v 0.015147 0.056297 0.046546
v 0.011558 0.048766 0.047534
v 0.0072473 0.048548 0.048243
v -0.0068521 0.048558 0.048171
v -0.0009137 0.048631 0.048782
v -0.0036853 0.048979 0.04873
v -0.012215 0.048521 0.046904
v -0.007238 0.056546 0.048221
v -0.0123 0.056596 0.047182
v 0.013845 0.056659 0.046774
v 0.024364 0.056448 0.042391
v 0.028905 0.056457 0.039452
v 0.01064 0.048725 0.035973
v 0.013497 0.04853 0.035344
v 0.0046024 0.048661 0.037235
v 0.0026438 0.049394 0.037332
v 0.00024713 0.048636 0.037533
v 0.001589 0.056603 0.037403
v -0.012465 0.049006 0.035148
v -0.010823 0.048639 0.035834
v -0.016046 0.04859 0.033821
v -0.0041447 0.048661 0.037223
v -0.0057369 0.048795 0.036957
v -0.010404 0.056584 0.035863
v -0.01347 0.056699 0.034931
v -0.019689 0.056758 0.031869
v -0.0099893 0.05678 0.036392
v -0.0065147 0.056544 0.0368
v -0.0023298 0.056308 0.037314
v -0.0027182 0.056722 0.037483
v 0.0052561 0.056479 0.037074
v 0.0044029 0.056754 0.037471
v 0.010653 0.056582 0.03595
v 0.012433 0.056725 0.035546
v -0.018829 0.056621 0.044913
v -0.025911 0.056443 0.041224
v -0.026508 0.048774 0.040772
v -0.029039 0.04851 0.038648
v -0.029546 0.04884 0.038585
v -0.029953 0.056639 0.038205
v -0.02603 0.056786 0.040921
v -0.022586 0.056735 0.029746
v -0.035904 0.056644 0.032498
v -0.033996 0.056481 0.034597
v -0.03369 0.048684 0.034876
v -0.026674 0.048515 0.026238
v -0.037503 0.048511 0.030239
v -0.037433 0.048729 0.030735
v -0.038142 0.056296 0.029863
v -0.039564 0.056582 0.027847
v -0.040382 0.053289 0.026663
v -0.040639 0.053962 0.026218
v -0.041279 0.054758 0.025058
v -0.040421 0.053331 0.026594
v -0.040345 0.052626 0.026691
v -0.040748 0.051186 0.025978
v -0.040521 0.051596 0.026428
v -0.041082 0.050699 0.025523
v -0.040245 0.048692 0.026837
v -0.045357 0.048506 0.015791
v -0.031687 0.048512 0.019715
v -0.04126 0.0486 0.024988
v -0.044032 0.048622 0.019516
v -0.033324 0.048573 0.016192
v -0.043532 0.048939 0.021124
v -0.041974 0.050027 0.023796
v -0.044675 0.050199 0.017436
v -0.044079 0.049926 0.019056
v -0.043269 0.049795 0.02074
v -0.043301 0.049774 0.021132
v -0.044189 0.04996 0.018891
v -0.043936 0.049824 0.019848
v -0.043204 0.049689 0.02153
v -0.044877 0.050075 0.017688
v -0.045001 0.050189 0.017311
v -0.045103 0.050459 0.016421
v -0.043246 0.049874 0.008725
v -0.045849 0.051799 0.0086266
v -0.046077 0.052182 0.013141
v -0.046004 0.053021 0.0087661
v -0.045599 0.054075 0.0086721
v -0.044665 0.05503 0.0086979
v -0.044013 0.055229 0.0086204
v -0.045135 0.050707 0.0086284
v -0.040578 0.053013 0.0086313
v -0.040532 0.052365 0.0086661
v -0.040816 0.051353 0.0089139
v -0.041527 0.050489 0.0086963
v -0.042189 0.050148 0.0086309
v -0.044295 0.050051 0.0087174
v -0.041871 0.055111 0.021365
v -0.042914 0.055374 0.0086559
v -0.041788 0.055026 0.0087682
v -0.040957 0.054126 0.0086485
v -0.043296 0.055497 0.020726
v -0.043664 0.055539 0.020539
v -0.043732 0.056317 0.020621
v -0.044603 0.055354 0.018388
v -0.044269 0.05534 0.018911
v -0.045846 0.056609 0.014857
v -0.046017 0.05415 0.014343
v -0.047156 0.056518 0.0096716
v -0.0464 0.052668 0.012916
v -0.046592 0.048766 0.012278
v -0.04621 0.051646 0.013599
v -0.046099 0.05286 0.012952
v -0.045909 0.053774 0.01391
v -0.046266 0.053529 0.013413
v -0.045572 0.054317 0.014939
v -0.045701 0.054085 0.01379
v -0.045611 0.054594 0.015581
v -0.04499 0.054932 0.016911
v -0.044535 0.055162 0.01791
v -0.044063 0.05538 0.019107
v -0.045776 0.051363 0.014033
v -0.045736 0.050804 0.015202
v -0.045508 0.05043 0.015975
v -0.044373 0.049232 0.019188
v -0.047877 0.048581 0.0023263
v -0.036991 0.048512 0.0019737
v -0.047777 0.048564 0.0018056
v -0.047888 0.048704 0.0018511
v -0.047985 0.048968 0.0019309
v -0.047718 0.04896 0.0016685
v -0.047489 0.048996 0.001621
v -0.040266 0.048871 0.0016545
v -0.0369 0.048964 0.001634
v -0.036738 0.052646 0.001685
v -0.036654 0.056597 0.0017517
v -0.036672 0.048682 0.0017647
v -0.036167 0.048758 0.0062258
v -0.036165 0.048527 0.008026
v -0.036554 0.04884 0.0018797
v -0.047911 0.056259 0.0017915
v -0.047899 0.05661 0.0019199
v -0.047903 0.056558 0.0035757
v -0.047703 0.056772 0.0019893
v -0.047507 0.048806 0.0075069
v -0.039128 0.056797 0.027972
v -0.041943 0.056479 0.024056
v -0.042071 0.055406 0.023817
v -0.042349 0.055463 0.023248
v -0.042035 0.05673 0.023505
v -0.030706 0.05677 0.021168
v -0.028224 0.056683 0.024133
v -0.026406 0.056468 0.025999
v -0.030091 0.056464 0.021471
v -0.034876 0.056796 0.013609
v -0.041276 0.054811 0.025203
v -0.044864 0.055325 0.017767
v -0.044756 0.050222 0.017455
v -0.044448 0.050075 0.018074
v -0.044624 0.050168 0.017583
v -0.041747 0.050072 0.024399
f 2 7 5
f 5 252 2
f 2 6 7
f 13 11 12
f 30 216 31
f 43 133 42
f 43 50 67
f 43 46 45
f 43 47 44
f 43 44 50
f 43 67 46
f 43 140 47
f 43 45 133
f 43 42 131
f 43 131 48
f 48 105 43
f 105 49 43
f 49 100 43
f 118 73 98
f 73 74 98
f 74 75 98
f 75 76 98
f 76 80 98
f 76 62 80
f 80 79 98
f 62 81 80
f 81 82 80
f 44 94 143
f 130 126 105
f 137 109 110
f 109 111 110
f 137 110 116
f 98 137 116
f 116 115 98
f 115 117 98
f 117 118 98
f 111 119 110
f 111 120 119
f 130 125 126
f 130 20 125
f 130 19 20
f 35 130 105
f 48 35 105
f 111 30 120
f 30 31 120
f 98 135 137
f 137 139 109
f 94 93 143
f 153 150 154
f 153 154 156
f 158 153 156
f 203 158 156
f 62 179 186
f 62 185 179
f 145 168 54
f 169 184 171
f 184 58 171
f 168 174 54
f 184 57 58
f 185 177 179
f 185 175 177
f 145 54 143
f 62 186 86
f 195 196 194
f 195 197 196
f 198 200 199
f 155 201 199
f 200 157 199
f 157 155 199
f 156 202 203
f 203 202 195
f 194 203 195
f 204 150 149
f 197 204 149
f 150 204 154
f 197 149 196
f 93 145 143
f 44 143 50
f 62 86 81
f 256 4 246
f 4 3 246
f 217 252 250
f 258 246 12
f 270 272 269
f 224 267 269
f 267 268 269
f 272 224 269
f 11 258 12
f 258 256 246
f 30 217 250
f 30 250 216
f 19 13 12
f 19 12 20
f 252 1 2
f 526 348 615
f 593 601 592
f 430 418 494
f 418 496 494
f 421 457 496
f 379 365 457
f 365 463 462
f 393 545 570
f 546 571 570
f 547 564 571
f 539 567 564
f 603 581 582
f 604 605 583
f 604 583 584
f 600 589 611
f 518 521 522
f 517 522 523
f 498 523 433
f 433 432 497
f 432 486 497
f 431 495 486
f 431 417 495
f 417 416 509
f 415 506 509
f 416 415 509
f 417 509 495
f 432 431 486
f 497 498 433
f 498 517 523
f 517 518 522
f 518 519 521
f 601 593 615
f 601 615 614
f 601 614 613
f 589 601 613
f 589 613 612
f 589 612 611
f 600 611 610
f 599 600 610
f 599 610 609
f 586 599 609
f 586 609 608
f 608 585 586
f 608 607 585
f 607 595 585
f 607 606 595
f 606 584 595
f 606 604 584
f 605 582 583
f 605 603 582
f 603 602 581
f 602 550 581
f 547 539 564
f 546 547 571
f 545 546 570
f 393 570 463
f 365 393 463
f 365 462 457
f 421 379 457
f 418 421 496
f 415 505 506
f 977 677 678
f 1000 681 686
f 1000 686 687
f 701 704 699
f 700 701 699
f 704 890 699
f 706 709 714
f 714 715 724
f 714 724 725
f 714 725 727
f 714 727 886
f 879 706 714
f 714 886 884
f 714 884 882
f 714 882 879
f 715 846 724
f 740 736 735
f 747 743 735
f 736 737 735
f 741 866 735
f 738 747 735
f 737 738 735
f 742 739 735
f 866 740 735
f 739 741 735
f 735 855 700
f 735 700 742
f 840 757 738
f 840 795 757
f 715 773 846
f 784 785 783
f 785 786 783
f 785 791 786
f 790 794 795
f 804 816 803
f 816 817 803
f 817 818 803
f 823 824 803
f 818 823 803
f 794 792 795
f 783 782 784
f 841 840 738
f 737 841 738
f 840 790 795
f 773 847 846
f 847 845 846
f 847 849 845
f 849 786 845
f 714 851 715
f 855 857 700
f 700 856 701
f 700 873 742
f 700 699 873
f 879 877 706
f 877 878 706
f 878 894 706
f 894 893 706
f 894 997 893
f 997 991 893
f 890 899 898
f 899 913 898
f 899 912 913
f 912 916 913
f 941 937 935
f 930 936 935
f 937 946 935
f 936 941 935
f 946 944 935
f 912 972 984
f 912 971 972
f 971 973 972
f 978 977 678
f 678 979 978
f 912 984 916
f 996 1000 991
f 1000 687 991
f 997 996 991
f 890 898 699
f 681 680 686
f 680 989 686
f 2 1 3
f 3 4 2
f 4 6 2
f 7 6 278
f 8 5 9
f 9 257 10
f 32 9 10
f 13 10 11
f 13 14 10
f 32 10 14
f 18 32 14
f 18 14 15
f 15 16 17
f 17 18 15
f 19 16 15
f 123 20 12
f 21 123 12
f 123 21 22
f 123 22 121
f 23 121 22
f 22 21 263
f 22 263 25
f 22 25 23
f 23 24 26
f 23 25 24
f 27 28 29
f 28 221 29
f 221 220 29
f 29 219 30
f 18 31 32
f 18 17 33
f 34 17 16
f 16 112 34
f 16 35 112
f 112 35 36
f 113 112 36
f 36 37 113
f 37 114 113
f 37 132 38
f 38 114 37
f 132 134 39
f 39 38 132
f 134 133 39
f 133 40 73
f 73 39 133
f 39 73 118
f 71 40 41
f 71 73 40
f 40 133 45
f 140 43 100
f 142 51 50
f 51 142 52
f 142 53 52
f 59 61 53
f 61 52 53
f 54 58 55
f 54 56 58
f 58 57 55
f 59 57 185
f 60 59 185
f 60 61 59
f 63 61 62
f 77 64 63
f 64 65 52
f 63 64 52
f 51 52 65
f 67 65 66
f 67 66 68
f 67 68 46
f 46 68 69
f 69 41 46
f 41 40 45
f 46 41 45
f 69 68 70
f 41 69 71
f 70 71 69
f 72 73 71
f 72 74 73
f 72 75 74
f 75 77 76
f 77 75 78
f 77 78 64
f 66 78 70
f 64 78 66
f 75 70 78
f 70 72 71
f 70 75 72
f 77 63 76
f 80 82 83
f 80 83 84
f 84 85 44
f 84 83 85
f 83 82 85
f 89 92 85
f 82 89 85
f 212 81 86
f 81 212 87
f 81 87 88
f 82 81 88
f 82 88 89
f 207 89 88
f 89 206 92
f 206 90 92
f 90 91 92
f 92 93 94
f 44 85 94
f 47 141 44
f 47 95 141
f 95 47 140
f 95 97 96
f 79 96 97
f 95 140 97
f 99 97 140
f 100 98 99
f 100 101 98
f 99 140 100
f 101 100 49
f 101 49 102
f 102 49 103
f 103 137 136
f 49 105 103
f 104 105 126
f 108 104 106
f 108 106 107
f 109 139 108
f 119 34 110
f 34 112 110
f 112 113 110
f 114 115 113
f 113 115 116
f 113 116 110
f 39 118 117
f 117 115 38
f 117 38 39
f 119 17 34
f 121 111 122
f 18 33 120
f 23 26 121
f 24 27 26
f 30 26 29
f 27 29 26
f 26 30 111
f 121 26 111
f 123 122 128
f 20 123 128
f 124 20 128
f 20 124 125
f 125 124 127
f 127 124 129
f 128 111 109
f 107 127 129
f 106 127 107
f 129 108 107
f 106 126 125
f 106 125 127
f 109 108 129
f 128 109 129
f 111 128 122
f 124 128 129
f 16 19 130
f 35 16 130
f 36 35 48
f 37 36 131
f 132 37 131
f 132 131 42
f 42 133 134
f 132 42 134
f 131 36 48
f 123 121 122
f 18 120 31
f 17 119 120
f 33 17 120
f 135 98 136
f 136 101 102
f 136 102 103
f 136 98 101
f 135 136 137
f 103 138 137
f 139 138 103
f 138 139 137
f 126 106 104
f 105 104 139
f 139 103 105
f 108 139 104
f 79 99 98
f 99 79 97
f 96 79 80
f 141 96 80
f 44 141 84
f 141 80 84
f 141 95 96
f 144 146 93
f 146 145 93
f 146 147 161
f 152 162 147
f 149 150 208
f 149 208 205
f 208 150 151
f 150 152 151
f 152 148 151
f 162 152 153
f 150 153 152
f 155 157 154
f 157 156 154
f 153 158 160
f 213 158 203
f 213 160 158
f 160 163 159
f 163 161 159
f 161 162 159
f 161 147 162
f 153 159 162
f 214 165 167
f 165 186 179
f 166 165 179
f 166 183 167
f 145 146 167
f 168 145 167
f 170 183 169
f 170 169 171
f 172 170 171
f 170 172 173
f 168 170 173
f 173 174 168
f 54 174 56
f 173 172 174
f 58 56 174
f 172 58 174
f 172 171 58
f 176 57 184
f 57 176 175
f 176 177 175
f 176 184 178
f 176 178 177
f 178 179 177
f 180 181 179
f 166 180 183
f 166 181 180
f 181 166 179
f 170 182 183
f 168 167 182
f 183 182 167
f 183 184 169
f 183 180 184
f 178 180 179
f 178 184 180
f 60 185 62
f 185 57 175
f 168 182 170
f 53 143 54
f 165 166 167
f 86 186 187
f 188 189 190
f 193 188 190
f 192 188 191
f 191 188 193
f 192 191 193
f 187 193 212
f 187 192 193
f 212 193 211
f 193 190 211
f 194 88 211
f 194 211 190
f 199 197 195
f 198 199 195
f 202 156 200
f 156 157 200
f 195 202 200
f 203 194 190
f 203 190 189
f 154 204 201
f 154 201 155
f 204 197 199
f 204 199 201
f 195 200 198
f 196 149 205
f 196 207 194
f 207 196 205
f 207 88 194
f 206 207 205
f 89 207 206
f 90 206 205
f 90 205 208
f 210 208 209
f 209 148 210
f 144 210 148
f 93 91 210
f 93 210 144
f 93 92 91
f 210 91 208
f 90 208 91
f 212 211 87
f 87 211 88
f 213 203 189
f 163 160 164
f 213 214 164
f 214 213 192
f 215 187 165
f 215 192 187
f 214 192 215
f 186 165 187
f 214 215 165
f 164 160 213
f 192 213 188
f 213 189 188
f 86 187 212
f 167 146 161
f 167 161 163
f 167 163 164
f 167 164 214
f 153 160 159
f 148 209 151
f 209 208 151
f 148 152 144
f 152 146 144
f 146 152 147
f 142 50 143
f 53 142 143
f 94 85 92
f 63 62 76
f 68 66 70
f 66 65 64
f 65 67 50
f 51 65 50
f 61 60 62
f 61 63 52
f 53 55 59
f 55 57 59
f 54 55 53
f 115 114 38
f 32 31 216
f 8 32 216
f 32 8 9
f 217 219 218
f 219 217 30
f 219 220 218
f 222 231 221
f 27 222 221
f 224 27 24
f 224 222 27
f 277 224 24
f 25 277 24
f 25 276 277
f 224 225 222
f 226 222 225
f 225 227 226
f 222 226 223
f 228 223 226
f 228 233 223
f 229 231 233
f 230 231 229
f 230 221 231
f 231 222 223
f 233 231 223
f 230 232 220
f 218 220 232
f 230 229 232
f 232 229 233
f 234 233 228
f 218 232 274
f 218 274 235
f 274 232 234
f 236 238 237
f 269 237 238
f 238 239 269
f 275 270 239
f 238 275 239
f 270 269 239
f 269 241 237
f 242 237 241
f 242 241 260
f 241 240 260
f 261 243 242
f 235 243 246
f 235 246 244
f 245 244 246
f 247 245 3
f 245 246 3
f 245 247 254
f 245 254 248
f 245 248 218
f 249 217 248
f 8 250 5
f 5 250 252
f 249 252 217
f 251 253 252
f 254 253 251
f 248 251 249
f 254 251 248
f 254 3 253
f 253 3 1
f 253 1 252
f 254 255 3
f 247 3 255
f 255 254 247
f 249 251 252
f 217 218 248
f 244 245 218
f 256 257 278
f 7 278 257
f 9 7 257
f 257 258 10
f 259 12 246
f 261 259 243
f 261 262 259
f 265 262 260
f 262 265 259
f 260 264 265
f 264 240 263
f 263 266 264
f 21 266 263
f 21 265 266
f 12 265 21
f 12 259 265
f 265 264 266
f 240 267 263
f 276 25 263
f 276 263 267
f 268 267 240
f 241 268 240
f 268 241 269
f 272 271 273
f 227 272 234
f 272 273 234
f 234 226 227
f 273 274 234
f 274 273 275
f 238 235 275
f 235 238 236
f 271 275 273
f 235 274 275
f 270 271 272
f 224 227 225
f 224 272 227
f 275 271 270
f 276 267 277
f 267 224 277
f 264 260 240
f 261 242 260
f 262 261 260
f 243 259 246
f 11 10 258
f 256 258 257
f 9 5 7
f 4 278 6
f 256 278 4
f 244 218 235
f 243 235 236
f 243 236 237
f 243 237 242
f 234 232 233
f 234 228 226
f 221 28 27
f 221 230 220
f 219 29 220
f 8 216 250
f 15 13 19
f 15 14 13
f 355 604 606
f 285 311 318
f 287 330 290
f 290 292 343
f 342 305 343
f 560 305 454
f 453 342 343
f 343 292 452
f 471 478 477
f 471 479 478
f 472 480 479
f 473 481 480
f 560 455 461
f 559 461 448
f 474 475 448
f 466 462 475
f 463 448 475
f 463 559 448
f 561 570 571
f 575 562 574
f 576 340 562
f 565 566 339
f 569 566 578
f 568 578 577
f 579 572 602
f 569 602 603
f 580 603 605
f 337 605 604
f 605 337 580
f 580 569 603
f 569 579 602
f 616 602 572
f 579 567 572
f 564 577 575
f 568 579 569
f 567 568 564
f 567 579 568
f 564 568 577
f 568 569 578
f 569 580 566
f 578 565 577
f 578 566 565
f 304 565 339
f 339 279 285
f 339 285 286
f 304 339 286
f 286 287 304
f 287 340 304
f 304 563 565
f 577 565 563
f 563 304 340
f 577 563 576
f 575 577 576
f 576 563 340
f 573 341 560
f 340 341 562
f 562 341 573
f 575 576 562
f 574 562 573
f 564 575 561
f 564 561 571
f 561 575 574
f 561 574 573
f 561 573 570
f 573 560 559
f 573 559 570
f 559 560 461
f 559 463 570
f 462 463 475
f 496 457 483
f 441 483 465
f 465 464 441
f 482 441 464
f 484 490 489
f 467 468 447
f 291 446 447
f 352 511 508
f 515 520 512
f 512 519 518
f 513 348 526
f 347 614 615
f 361 613 614
f 360 612 613
f 301 611 612
f 354 610 611
f 282 298 299
f 326 333 332
f 332 345 336
f 336 451 344
f 352 514 306
f 293 284 350
f 348 349 347
f 347 284 338
f 322 331 327
f 331 294 309
f 324 288 329
f 283 302 316
f 302 303 317
f 302 317 316
f 316 317 329
f 316 329 323
f 317 303 324
f 317 324 329
f 329 288 335
f 334 309 308
f 329 335 294
f 331 309 334
f 328 329 294
f 328 294 331
f 328 323 329
f 327 331 334
f 323 328 331
f 322 323 331
f 315 323 322
f 315 316 323
f 300 283 316
f 300 316 315
f 282 300 315
f 354 300 282
f 301 300 354
f 301 283 300
f 301 302 283
f 360 302 301
f 360 303 302
f 338 303 360
f 303 338 284
f 284 347 349
f 350 284 349
f 303 293 324
f 284 293 303
f 293 289 288
f 324 293 288
f 349 516 350
f 293 350 516
f 516 289 293
f 351 289 516
f 306 289 351
f 289 306 288
f 306 351 352
f 306 446 291
f 306 514 446
f 291 288 306
f 288 291 335
f 335 291 310
f 335 310 294
f 309 346 308
f 308 450 345
f 345 307 336
f 332 336 344
f 334 308 345
f 313 320 319
f 297 359 353
f 299 609 610
f 353 608 609
f 358 607 608
f 296 281 312
f 357 606 607
f 606 357 356
f 281 296 358
f 358 297 281
f 296 295 358
f 607 295 357
f 607 358 295
f 359 358 608
f 353 359 608
f 609 299 353
f 359 297 358
f 353 298 297
f 281 297 313
f 281 313 312
f 312 313 319
f 312 319 318
f 325 319 320
f 318 319 325
f 333 334 345
f 332 333 345
f 325 326 332
f 327 334 333
f 320 326 325
f 326 327 333
f 326 320 321
f 313 321 320
f 313 314 321
f 297 314 313
f 297 298 314
f 321 327 326
f 321 322 327
f 314 322 321
f 314 315 322
f 282 315 314
f 298 282 314
f 354 282 299
f 298 353 299
f 610 354 299
f 301 354 611
f 360 301 612
f 361 360 613
f 360 361 338
f 347 361 614
f 338 361 347
f 615 348 347
f 349 348 513
f 526 519 513
f 526 524 519
f 512 513 519
f 349 513 520
f 516 349 520
f 520 513 512
f 512 518 517
f 511 517 498
f 493 497 486
f 504 486 503
f 487 494 496
f 505 510 487
f 494 487 510
f 487 500 505
f 500 506 505
f 500 501 506
f 501 509 506
f 491 492 502
f 443 442 467
f 443 467 459
f 459 485 504
f 485 493 504
f 504 443 459
f 442 443 492
f 443 504 492
f 460 442 491
f 442 492 491
f 491 502 501
f 501 502 509
f 492 504 503
f 492 503 502
f 502 503 509
f 503 495 509
f 503 486 495
f 504 493 486
f 497 493 499
f 499 498 497
f 498 499 511
f 511 512 517
f 515 512 511
f 515 351 516
f 351 515 352
f 515 516 520
f 352 515 511
f 499 508 511
f 499 507 508
f 507 493 485
f 507 499 493
f 485 458 507
f 485 456 458
f 507 458 456
f 456 508 507
f 514 352 508
f 508 456 514
f 456 485 459
f 514 456 446
f 456 459 446
f 459 467 446
f 467 447 446
f 310 291 447
f 442 460 467
f 460 468 467
f 310 447 449
f 468 449 447
f 449 294 310
f 449 309 294
f 309 449 346
f 476 346 449
f 469 470 476
f 444 445 470
f 444 470 469
f 469 476 449
f 468 469 449
f 444 469 468
f 460 444 468
f 491 444 460
f 444 491 490
f 490 491 501
f 490 501 500
f 490 484 444
f 484 445 444
f 489 490 500
f 441 482 488
f 489 488 482
f 489 500 487
f 488 489 487
f 482 484 489
f 484 482 445
f 482 464 445
f 483 441 488
f 488 496 483
f 496 488 487
f 462 466 457
f 483 457 466
f 466 465 483
f 466 475 474
f 465 466 474
f 455 448 461
f 474 448 455
f 474 455 481
f 473 474 481
f 465 474 473
f 464 465 473
f 472 473 480
f 464 473 472
f 445 464 472
f 471 472 479
f 445 472 471
f 445 471 470
f 470 471 477
f 476 477 346
f 470 477 476
f 308 346 450
f 477 450 346
f 477 478 450
f 307 345 450
f 478 307 450
f 478 451 307
f 451 336 307
f 478 479 451
f 452 344 451
f 479 452 451
f 479 480 452
f 343 452 453
f 480 453 452
f 480 342 453
f 480 481 342
f 481 454 342
f 481 455 454
f 560 454 455
f 341 305 560
f 454 305 342
f 344 452 292
f 305 341 343
f 341 290 343
f 341 340 290
f 330 344 292
f 330 332 344
f 290 330 292
f 340 287 290
f 325 332 330
f 330 287 325
f 318 325 287
f 286 318 287
f 285 318 286
f 311 312 318
f 296 312 311
f 280 296 311
f 295 296 280
f 356 295 280
f 280 311 285
f 279 280 285
f 356 280 279
f 357 295 356
f 606 356 355
f 355 356 279
f 604 355 337
f 566 580 337
f 566 337 339
f 337 355 279
f 279 339 337
f 367 410 626
f 618 621 626
f 428 523 617
f 617 619 624
f 658 650 648
f 657 648 647
f 656 647 646
f 655 646 645
f 654 645 644
f 653 644 630
f 652 630 629
f 651 629 628
f 635 628 634
f 634 549 557
f 553 536 538
f 549 540 538
f 549 583 540
f 584 627 596
f 595 596 597
f 595 597 598
f 585 598 587
f 599 631 588
f 600 588 632
f 600 632 590
f 589 590 649
f 601 649 591
f 601 591 592
f 522 521 620
f 521 592 620
f 521 525 592
f 525 527 593
f 525 593 592
f 601 589 649
f 648 649 590
f 647 648 590
f 590 589 600
f 647 590 632
f 646 647 632
f 600 599 588
f 646 632 588
f 645 646 588
f 599 586 631
f 586 587 631
f 645 588 631
f 587 645 631
f 587 586 585
f 587 598 630
f 598 585 595
f 629 630 598
f 598 597 629
f 595 584 596
f 628 629 597
f 597 596 628
f 627 628 596
f 627 584 583
f 542 543 544
f 554 555 544
f 552 555 554
f 539 542 541
f 541 542 594
f 542 550 594
f 539 547 537
f 551 552 535
f 532 548 533
f 666 659 548
f 667 660 659
f 676 669 668
f 665 637 636
f 637 638 622
f 367 368 381
f 394 383 382
f 395 384 383
f 396 385 384
f 398 362 385
f 399 386 362
f 399 363 386
f 366 378 364
f 378 365 379
f 411 378 421
f 422 386 387
f 423 362 386
f 423 385 362
f 423 384 385
f 424 382 383
f 425 426 381
f 426 380 381
f 427 434 429
f 431 432 420
f 435 436 437
f 419 435 437
f 430 419 418
f 440 415 435
f 414 440 435
f 430 414 419
f 414 435 419
f 435 415 436
f 415 438 436
f 415 416 438
f 416 439 438
f 416 417 439
f 420 439 417
f 417 431 420
f 432 433 427
f 432 427 429
f 420 432 429
f 410 429 434
f 429 410 380
f 426 429 380
f 420 429 426
f 439 420 426
f 439 426 425
f 438 439 425
f 425 381 382
f 424 425 382
f 438 425 424
f 436 438 424
f 437 436 424
f 424 383 384
f 423 424 384
f 437 424 423
f 422 423 386
f 419 423 422
f 419 437 423
f 418 419 422
f 421 418 422
f 387 411 422
f 411 421 422
f 378 379 421
f 545 393 528
f 377 529 528
f 530 534 529
f 413 639 558
f 376 409 408
f 408 409 364
f 376 377 409
f 407 408 363
f 374 376 408
f 374 408 407
f 373 374 407
f 373 407 406
f 392 406 405
f 372 405 404
f 371 404 402
f 370 402 403
f 369 403 401
f 643 642 371
f 392 391 640
f 640 675 674
f 640 391 675
f 390 642 641
f 389 369 388
f 400 369 401
f 369 389 370
f 369 370 403
f 370 389 643
f 390 371 642
f 371 370 643
f 370 371 402
f 371 390 404
f 402 404 397
f 372 391 392
f 641 372 390
f 641 391 372
f 390 372 404
f 404 405 397
f 405 372 392
f 392 373 406
f 373 392 412
f 392 640 412
f 412 640 674
f 674 532 556
f 639 412 674
f 556 639 674
f 639 413 412
f 373 412 413
f 556 558 639
f 558 373 413
f 558 374 373
f 558 530 374
f 558 556 534
f 534 530 558
f 376 374 530
f 376 530 529
f 377 376 529
f 528 375 377
f 545 528 531
f 546 545 531
f 393 375 528
f 377 375 409
f 409 375 366
f 365 375 393
f 375 365 366
f 378 366 365
f 409 366 364
f 364 378 411
f 364 411 387
f 408 364 363
f 363 364 387
f 363 387 386
f 407 363 399
f 406 407 399
f 406 399 398
f 405 406 398
f 405 398 397
f 398 399 362
f 397 398 385
f 402 397 396
f 403 402 396
f 396 397 385
f 401 403 395
f 403 396 395
f 395 396 384
f 401 395 394
f 394 395 383
f 394 382 381
f 367 381 380
f 368 394 381
f 400 401 394
f 368 400 394
f 673 388 369
f 369 400 673
f 400 368 673
f 673 637 665
f 673 638 637
f 388 673 672
f 389 388 672
f 672 665 664
f 672 673 665
f 389 672 671
f 643 389 671
f 671 664 663
f 671 672 664
f 643 671 670
f 642 643 670
f 670 663 662
f 670 671 663
f 642 670 669
f 641 642 669
f 669 662 661
f 669 670 662
f 641 669 676
f 391 676 675
f 391 641 676
f 668 669 661
f 676 668 667
f 675 676 667
f 667 668 660
f 675 667 666
f 674 675 666
f 666 667 659
f 674 666 532
f 666 548 532
f 533 556 532
f 533 534 556
f 551 533 552
f 534 533 551
f 529 534 551
f 528 551 531
f 528 529 551
f 531 551 535
f 547 531 535
f 547 546 531
f 535 552 537
f 547 535 537
f 552 554 537
f 539 543 542
f 554 544 543
f 537 543 539
f 537 554 543
f 550 542 581
f 544 581 542
f 627 583 549
f 583 582 540
f 581 544 540
f 540 582 581
f 555 540 544
f 555 538 540
f 553 538 555
f 552 553 555
f 533 548 553
f 533 553 552
f 548 536 553
f 536 548 557
f 538 536 549
f 536 557 549
f 634 628 627
f 634 627 549
f 659 635 548
f 635 557 548
f 635 634 557
f 659 660 651
f 659 651 635
f 635 651 628
f 660 652 651
f 651 652 629
f 660 653 652
f 652 653 630
f 644 645 587
f 630 644 587
f 660 654 653
f 660 668 654
f 653 654 644
f 668 655 654
f 668 661 655
f 654 655 645
f 661 656 655
f 661 662 656
f 655 656 646
f 662 657 656
f 662 663 657
f 656 657 647
f 663 658 657
f 663 664 658
f 657 658 648
f 648 650 649
f 665 636 650
f 664 650 658
f 664 665 650
f 650 636 633
f 649 633 591
f 650 633 649
f 592 591 633
f 633 625 592
f 592 625 620
f 633 636 623
f 633 623 625
f 620 625 623
f 636 637 624
f 637 622 624
f 636 624 623
f 619 623 624
f 619 620 623
f 522 620 619
f 523 619 617
f 523 522 619
f 428 433 523
f 428 427 433
f 427 428 434
f 626 410 434
f 434 618 626
f 617 618 428
f 618 434 428
f 618 617 621
f 621 624 622
f 617 624 621
f 638 626 622
f 621 622 626
f 638 673 368
f 368 367 638
f 638 367 626
f 367 380 410
f 505 415 440
f 510 505 440
f 510 440 414
f 414 430 510
f 430 494 510
f 567 539 541
f 541 594 567
f 594 572 567
f 572 594 550
f 550 602 616
f 593 527 526
f 527 524 526
f 519 524 525
f 525 521 519
f 527 525 524
f 593 526 615
f 616 572 550
f 679 678 677
f 981 678 679
f 981 679 680
f 679 989 680
f 981 680 681
f 683 981 682
f 685 683 682
f 684 683 685
f 685 682 681
f 688 685 1000
f 685 681 1000
f 952 687 686
f 684 685 689
f 690 684 689
f 694 898 693
f 694 699 898
f 698 694 695
f 695 694 693
f 698 695 696
f 998 695 693
f 894 696 695
f 696 697 698
f 871 698 697
f 873 699 698
f 694 698 699
f 702 703 887
f 704 703 702
f 703 704 701
f 707 861 705
f 861 706 887
f 710 706 708
f 710 709 706
f 710 708 711
f 711 857 712
f 710 711 712
f 713 710 712
f 713 712 855
f 716 717 723
f 718 723 717
f 718 719 723
f 718 720 719
f 841 720 718
f 721 726 719
f 719 722 721
f 719 720 722
f 719 726 723
f 724 723 726
f 724 726 725
f 726 721 725
f 728 729 727
f 729 728 730
f 732 885 730
f 730 731 732
f 731 865 732
f 730 733 731
f 722 733 730
f 728 721 722
f 730 728 722
f 720 734 722
f 734 720 737
f 743 855 735
f 855 743 854
f 743 747 744
f 745 744 747
f 747 748 746
f 749 748 738
f 738 750 749
f 749 752 751
f 851 751 715
f 752 753 715
f 752 715 751
f 754 753 752
f 750 754 752
f 750 755 761
f 750 761 754
f 749 750 752
f 738 757 750
f 757 755 750
f 757 756 755
f 758 756 757
f 758 759 756
f 758 757 795
f 760 832 834
f 763 772 762
f 763 764 772
f 764 763 815
f 764 815 753
f 765 761 772
f 754 761 765
f 761 766 770
f 755 756 767
f 755 767 766
f 756 768 767
f 756 760 768
f 769 767 768
f 770 769 768
f 767 769 770
f 766 767 770
f 760 834 768
f 755 766 761
f 771 754 765
f 771 764 753
f 765 764 771
f 754 771 753
f 764 765 772
f 753 773 715
f 774 775 773
f 848 775 776
f 848 776 777
f 848 777 778
f 777 779 778
f 780 848 778
f 810 797 780
f 797 850 780
f 780 778 810
f 835 838 850
f 838 782 850
f 781 782 838
f 849 782 783
f 786 849 783
f 786 844 787
f 788 787 717
f 717 787 796
f 787 789 796
f 842 789 787
f 842 843 789
f 793 791 785
f 792 793 785
f 796 790 840
f 797 828 795
f 798 828 797
f 810 798 797
f 803 802 805
f 809 802 824
f 803 824 802
f 803 805 804
f 772 804 762
f 804 805 762
f 808 806 802
f 806 808 775
f 775 808 776
f 802 806 805
f 776 808 802
f 776 802 809
f 777 776 779
f 778 779 799
f 799 810 778
f 798 810 799
f 799 779 801
f 779 776 809
f 807 806 775
f 811 806 807
f 806 811 812
f 814 813 762
f 813 763 762
f 811 814 762
f 814 815 813
f 815 814 774
f 815 763 813
f 814 807 774
f 811 807 814
f 811 762 812
f 762 805 812
f 806 812 805
f 775 774 807
f 816 804 772
f 817 816 770
f 816 761 770
f 761 816 772
f 817 770 768
f 817 768 818
f 831 818 834
f 831 819 818
f 818 768 834
f 820 818 819
f 800 822 820
f 800 801 823
f 824 823 801
f 801 779 825
f 824 801 825
f 824 825 809
f 779 809 825
f 820 822 823
f 822 800 823
f 820 823 818
f 799 801 800
f 799 800 820
f 799 820 798
f 826 798 827
f 827 798 820
f 826 827 828
f 827 829 828
f 828 829 759
f 834 832 831
f 832 830 831
f 829 833 830
f 829 827 833
f 830 833 831
f 833 819 831
f 833 827 819
f 827 821 819
f 829 830 832
f 829 832 759
f 832 760 759
f 798 826 828
f 827 820 821
f 821 820 819
f 758 828 759
f 835 797 795
f 835 795 792
f 792 784 837
f 793 792 794
f 781 837 784
f 781 784 782
f 781 838 837
f 837 838 836
f 836 792 837
f 792 785 784
f 835 792 836
f 836 838 835
f 828 758 795
f 840 839 796
f 839 718 796
f 839 840 841
f 839 841 718
f 720 841 737
f 796 789 790
f 790 789 843
f 790 843 794
f 793 794 843
f 786 791 842
f 793 843 791
f 842 791 843
f 842 844 786
f 842 787 844
f 796 718 717
f 788 717 845
f 717 716 845
f 845 716 846
f 848 847 773
f 848 780 847
f 780 850 847
f 788 845 786
f 787 788 786
f 849 850 782
f 849 847 850
f 775 848 773
f 797 835 850
f 774 753 815
f 753 774 773
f 756 759 760
f 852 851 714
f 852 863 851
f 852 714 853
f 852 853 745
f 714 862 853
f 853 713 854
f 855 854 713
f 857 855 712
f 857 856 700
f 711 858 857
f 711 708 858
f 708 707 858
f 856 857 858
f 856 859 701
f 708 860 707
f 706 860 708
f 706 861 860
f 860 861 707
f 705 858 707
f 856 858 705
f 859 705 703
f 859 856 705
f 859 703 701
f 714 709 713
f 714 713 862
f 862 713 853
f 854 744 745
f 854 745 853
f 743 744 854
f 852 745 863
f 863 745 747
f 863 747 746
f 863 864 851
f 864 863 746
f 851 864 751
f 751 864 748
f 751 748 749
f 864 746 748
f 748 747 738
f 733 736 740
f 734 733 722
f 731 740 866
f 733 740 731
f 865 731 866
f 865 866 741
f 867 865 741
f 869 868 867
f 869 874 868
f 875 868 874
f 875 881 870
f 868 875 870
f 876 880 875
f 880 881 875
f 875 871 876
f 872 871 875
f 872 873 871
f 873 698 871
f 873 872 742
f 875 874 872
f 872 874 742
f 874 739 742
f 697 876 871
f 880 876 879
f 876 877 879
f 877 697 878
f 877 876 697
f 696 878 697
f 696 894 878
f 880 882 881
f 870 882 884
f 870 881 882
f 883 885 732
f 885 883 884
f 885 884 886
f 886 729 885
f 729 730 885
f 729 886 727
f 883 870 884
f 870 883 868
f 732 868 883
f 880 879 882
f 874 869 739
f 869 741 739
f 868 732 867
f 869 867 741
f 732 865 867
f 733 734 736
f 734 737 736
f 728 727 725
f 721 728 725
f 724 846 716
f 716 723 724
f 709 710 713
f 703 861 887
f 887 706 893
f 893 888 887
f 890 704 889
f 890 889 891
f 888 892 891
f 893 892 888
f 895 893 991
f 895 896 892
f 892 896 897
f 897 899 890
f 899 897 900
f 896 895 897
f 895 900 897
f 895 902 901
f 901 902 904
f 901 904 903
f 902 1001 904
f 904 905 994
f 901 903 907
f 906 907 903
f 906 904 907
f 901 907 909
f 909 907 908
f 909 910 911
f 911 914 899
f 900 911 899
f 692 898 913
f 914 912 899
f 915 917 970
f 1006 917 911
f 940 918 908
f 940 929 918
f 929 921 918
f 918 921 922
f 920 924 921
f 921 929 919
f 919 920 921
f 924 922 921
f 924 926 970
f 929 942 928
f 967 928 942
f 929 928 919
f 1003 919 928
f 936 930 967
f 942 936 967
f 930 931 967
f 930 932 931
f 932 958 931
f 958 932 933
f 962 958 933
f 934 964 962
f 934 944 964
f 944 934 935
f 937 938 946
f 907 938 939
f 938 904 946
f 938 907 904
f 939 940 908
f 907 939 908
f 939 938 940
f 940 941 929
f 941 942 929
f 930 933 932
f 941 936 942
f 938 941 940
f 945 946 943
f 943 946 904
f 944 945 943
f 946 945 944
f 944 943 947
f 994 943 904
f 994 947 943
f 994 948 947
f 948 992 949
f 950 951 948
f 953 963 952
f 954 956 955
f 960 952 954
f 955 960 954
f 956 957 955
f 955 957 931
f 931 957 967
f 957 928 967
f 955 931 958
f 960 958 959
f 955 958 960
f 953 960 963
f 963 960 959
f 963 959 961
f 961 959 962
f 959 958 962
f 964 961 962
f 963 961 964
f 950 963 964
f 966 965 947
f 965 944 947
f 965 964 944
f 951 950 965
f 950 964 965
f 948 951 966
f 948 966 947
f 951 965 966
f 957 968 928
f 956 969 968
f 927 968 969
f 927 969 970
f 956 970 969
f 912 915 970
f 912 970 956
f 956 971 912
f 975 976 974
f 975 986 976
f 986 677 977
f 976 986 977
f 974 977 973
f 974 976 977
f 974 973 971
f 972 973 978
f 973 977 978
f 980 979 678
f 980 678 981
f 985 981 683
f 985 980 981
f 980 985 982
f 983 985 684
f 684 985 683
f 980 982 979
f 978 979 982
f 972 978 982
f 982 983 984
f 984 972 982
f 684 916 984
f 916 684 690
f 691 916 690
f 916 691 913
f 983 684 984
f 982 985 983
f 986 987 677
f 986 988 987
f 988 986 975
f 989 987 988
f 987 989 677
f 679 677 989
f 988 686 989
f 686 988 954
f 954 988 975
f 954 975 990
f 954 990 956
f 971 956 990
f 971 990 975
f 971 975 974
f 926 927 970
f 956 968 957
f 960 953 952
f 954 952 686
f 995 687 949
f 995 991 687
f 995 949 992
f 948 994 992
f 1001 994 905
f 1001 905 904
f 902 992 1001
f 995 992 902
f 998 997 894
f 998 894 695
f 999 997 998
f 690 689 999
f 691 690 999
f 999 689 996
f 999 996 997
f 996 688 1000
f 689 688 996
f 999 692 691
f 692 999 998
f 991 995 902
f 992 993 1001
f 994 1001 993
f 992 994 993
f 952 1002 949
f 687 952 949
f 952 963 1002
f 950 1002 963
f 950 949 1002
f 950 948 949
f 937 941 938
f 930 935 933
f 935 934 933
f 962 933 934
f 968 927 1003
f 968 1003 928
f 1003 1004 1005
f 1003 1005 919
f 919 1005 1004
f 1003 923 1004
f 1004 923 920
f 919 1004 920
f 1003 927 923
f 923 924 920
f 926 923 927
f 926 924 923
f 925 924 970
f 925 918 922
f 1006 918 925
f 1006 925 917
f 925 970 917
f 922 924 925
f 910 908 918
f 1006 910 918
f 910 1006 911
f 910 909 908
f 914 911 917
f 914 917 915
f 914 915 912
f 692 913 691
f 909 911 900
f 909 900 901
f 904 906 903
f 902 895 991
f 895 901 900
f 692 693 898
f 897 890 891
f 892 897 891
f 895 892 893
f 891 889 888
f 704 702 889
f 888 889 702
f 887 888 702
f 703 705 861
f 693 692 998
f 688 689 685
f 681 682 981
