v 0.2783 0.036812 -0.043482
v 0.28702 0.037777 -0.041144
v 0.27036 0.033635 -0.04561
v 0.26914 0.03235 -0.046453
v 0.26314 0.028756 -0.047544
v 0.25577 0.019942 -0.049517
v 0.25423 0.01544 -0.050453
v 0.25211 0.011519 -0.050498
v 0.25045 0.0037341 -0.050948
v 0.25053 -0.0046211 -0.050921
v 0.24859 0.001707 -0.051441
v 0.25243 -0.0037095 -0.056625
v 0.25116 -0.0047519 -0.051273
v 0.2539 -0.011177 -0.056231
v 0.25238 -0.010831 -0.050947
v 0.25252 -0.013662 -0.050388
v 0.25457 -0.016695 -0.050355
v 0.25541 -0.015311 -0.055825
v 0.25071 -0.015311 -0.057085
v 0.25909 -0.019322 -0.054841
v 0.25244 -0.019311 -0.056623
v 0.25736 -0.019314 -0.055305
v 0.25765 -0.022028 -0.049537
v 0.25862 -0.024538 -0.048756
v 0.26146 -0.026701 -0.048514
v 0.26108 -0.024685 -0.054306
v 0.26605 -0.030742 -0.047281
v 0.26546 -0.031015 -0.046921
v 0.26957 -0.033652 -0.045821
v 0.26993 -0.033212 -0.046242
v 0.27228 -0.035022 -0.045095
v 0.2726 -0.034565 -0.045526
v 0.27513 -0.036174 -0.044331
v 0.27542 -0.035701 -0.044771
v 0.27316 -0.034154 -0.05107
v 0.27684 -0.035701 -0.050084
v 0.27972 -0.036672 -0.049313
v 0.27829 -0.036624 -0.044047
v 0.27802 -0.037109 -0.043556
v 0.28453 -0.038178 -0.041812
v 0.28495 -0.037675 -0.042273
v 0.29033 -0.038113 -0.040259
v 0.29603 -0.03706 -0.03873
v 0.29058 -0.037589 -0.040763
v 0.29051 -0.037687 -0.046422
v 0.29051 -0.042175 -0.046422
v 0.28664 -0.037667 -0.047458
v 0.28664 -0.042175 -0.047458
v 0.28664 -0.036172 -0.04746
v 0.2877 -0.036167 -0.051418
v 0.2905 -0.036193 -0.046424
v 0.27974 -0.036167 -0.03999
v 0.27343 -0.034255 -0.041681
v 0.26819 -0.031606 -0.043085
v 0.27313 -0.032516 -0.051076
v 0.27418 -0.032472 -0.055041
v 0.28086 -0.035157 -0.053251
v 0.27418 -0.039056 -0.055041
v 0.27312 -0.039056 -0.051081
v 0.2808 -0.041257 -0.053268
v 0.27973 -0.041303 -0.04931
v 0.2877 -0.042175 -0.051418
v 0.27838 -0.034666 -0.049676
v 0.2832 -0.035833 -0.048058
v 0.26928 -0.030206 -0.05211
v 0.27032 -0.030156 -0.056077
v 0.26926 -0.031944 -0.052116
v 0.26926 -0.037155 -0.052116
v 0.26594 -0.029568 -0.053005
v 0.27032 -0.037155 -0.056077
v 0.26511 -0.034483 -0.053228
v 0.26377 -0.032616 -0.057831
v 0.2679 -0.032596 -0.056724
v 0.26163 -0.030624 -0.058405
v 0.26484 -0.030604 -0.070406
v 0.26631 -0.031044 -0.072114
v 0.26731 -0.032596 -0.070823
v 0.2697 -0.032592 -0.072755
v 0.26529 -0.030354 -0.072078
v 0.26585 -0.028469 -0.074128
v 0.26607 -0.02675 -0.074946
v 0.27245 -0.032509 -0.073263
v 0.2738 -0.031196 -0.07334
v 0.26617 -0.024714 -0.075361
v 0.27381 -0.030617 -0.073362
v 0.26664 -0.023787 -0.075284
v 0.27024 -0.020054 -0.074317
v 0.26617 -0.024261 -0.075363
v 0.26162 -0.024261 -0.058406
v 0.26277 -0.023078 -0.0581
v 0.26015 -0.019311 -0.0588
v 0.2535 -0.019311 -0.060583
v 0.25492 -0.023672 -0.055959
v 0.25724 -0.025571 -0.059581
v 0.25963 -0.029733 -0.054697
v 0.26574 -0.027312 -0.053513
v 0.26925 -0.029399 -0.056361
v 0.27192 -0.029391 -0.06631
v 0.26926 -0.031196 -0.056361
v 0.26972 -0.02645 -0.071868
v 0.27316 -0.029391 -0.070947
v 0.27318 -0.029384 -0.071022
v 0.26973 -0.026428 -0.071948
v 0.27319 -0.029374 -0.07106
v 0.2732 -0.029361 -0.071096
v 0.27321 -0.029344 -0.071132
v 0.26976 -0.026415 -0.072018
v 0.2698 -0.026393 -0.072083
v 0.26673 -0.023059 -0.07283
v 0.26677 -0.023038 -0.072894
v 0.2667 -0.023072 -0.072759
v 0.26668 -0.023077 -0.072685
v 0.26972 -0.026445 -0.071872
v 0.26682 -0.023009 -0.072951
v 0.26687 -0.022973 -0.073
v 0.26985 -0.026363 -0.07214
v 0.27324 -0.029273 -0.071231
v 0.26989 -0.026326 -0.072189
v 0.26995 -0.026283 -0.072227
v 0.27325 -0.02921 -0.071288
v 0.27327 -0.029137 -0.071338
v 0.27328 -0.029054 -0.071377
v 0.27329 -0.028964 -0.071406
v 0.27 -0.026234 -0.072255
v 0.27006 -0.026181 -0.072271
v 0.26698 -0.022883 -0.073065
v 0.26704 -0.022831 -0.07308
v 0.26692 -0.02293 -0.073038
v 0.27011 -0.026126 -0.072275
v 0.26711 -0.02276 -0.073088
v 0.26971 -0.020068 -0.072454
v 0.27193 -0.020054 -0.071795
v 0.27332 -0.021578 -0.071572
v 0.27245 -0.020054 -0.073727
v 0.27381 -0.021549 -0.073362
v 0.27329 -0.028869 -0.071424
v 0.27323 -0.0293 -0.071199
v 0.27322 -0.029324 -0.071166
v 0.26209 -0.023476 -0.054392
v 0.25932 -0.023817 -0.045461
v 0.26301 -0.027698 -0.044471
v 0.2558 -0.018681 -0.046405
v 0.25358 -0.01399 -0.047
v 0.25698 -0.015322 -0.055405
v 0.25582 -0.012504 -0.055516
v 0.25467 -0.0087636 -0.055664
v 0.25176 -0.0079556 -0.047487
v 0.25101 -0.0027759 -0.047688
v 0.25395 -0.0038155 -0.056181
v 0.25498 -0.00024684 -0.060176
v 0.25559 -0.0079167 -0.060024
v 0.25806 -0.015311 -0.05936
v 0.25177 -0.015311 -0.061045
v 0.24965 -0.007914 -0.061613
v 0.24864 -0.0078972 -0.05764
v 0.24801 -0.000223 -0.05781
v 0.24907 -0.000223 -0.061771
v 0.24977 0.0079132 -0.061583
v 0.25177 0.014865 -0.061045
v 0.24854 0.0070083 -0.057667
v 0.25071 0.014865 -0.057085
v 0.25541 0.014865 -0.055825
v 0.25731 0.018899 -0.055316
v 0.25699 0.014874 -0.055403
v 0.25806 0.014865 -0.05936
v 0.25552 0.0072069 -0.060042
v 0.25418 0.0051673 -0.056154
v 0.25143 0.0054538 -0.047576
v 0.25539 0.010716 -0.055712
v 0.25271 0.011055 -0.047231
v 0.24779 -0.001574 -0.04855
v 0.24942 0.008213 -0.05122
v 0.24826 0.006317 -0.048425
v 0.25128 0.014511 -0.050722
v 0.25094 0.0158 -0.047707
v 0.25411 0.020406 -0.049963
v 0.25784 0.025735 -0.048963
v 0.25494 0.022913 -0.046635
v 0.25884 0.027737 -0.045589
v 0.26237 0.030359 -0.047749
v 0.26734 0.033987 -0.046419
v 0.26389 0.032209 -0.044237
v 0.26961 0.03569 -0.042705
v 0.27304 0.036899 -0.04489
v 0.27529 0.037948 -0.041182
v 0.27942 0.038822 -0.043182
v 0.28123 0.039267 -0.039592
v 0.28572 0.039585 -0.041493
v 0.28755 0.039585 -0.037898
v 0.29204 0.039267 -0.0398
v 0.29412 0.038776 -0.036135
v 0.29825 0.037874 -0.038136
v 0.30391 0.035554 -0.036619
v 0.30048 0.036783 -0.034434
v 0.30617 0.03385 -0.032908
v 0.30938 0.032204 -0.035152
v 0.31422 0.027937 -0.033857
v 0.3111 0.030165 -0.031586
v 0.31542 0.025742 -0.030429
v 0.31835 0.022924 -0.032751
v 0.31916 0.020408 -0.029428
v 0.32199 0.014509 -0.028669
v 0.32247 0.015413 -0.031647
v 0.32474 0.0076523 -0.031039
v 0.32385 0.0082044 -0.028171
v 0.32553 -0.0002223 -0.030826
v 0.32479 -0.00022237 -0.027918
v 0.32469 -0.0083805 -0.03105
v 0.32358 -0.0099881 -0.028242
v 0.32286 -0.014686 -0.031542
v 0.32009 -0.020608 -0.032284
v 0.32082 -0.017715 -0.028981
v 0.3174 -0.0236 -0.0299
v 0.3162 -0.026181 -0.033325
v 0.31188 -0.030608 -0.034483
v 0.31345 -0.028375 -0.030958
v 0.30882 -0.032475 -0.032197
v 0.30672 -0.034454 -0.035867
v 0.30098 -0.037328 -0.037404
v 0.30315 -0.036019 -0.033718
v 0.29695 -0.038482 -0.035379
v 0.29518 -0.039148 -0.038958
v 0.28889 -0.040007 -0.040645
v 0.29071 -0.039784 -0.037049
v 0.28438 -0.040007 -0.038746
v 0.28228 -0.039762 -0.042416
v 0.27606 -0.038393 -0.044081
v 0.27837 -0.039199 -0.040356
v 0.27254 -0.037443 -0.041918
v 0.27012 -0.03602 -0.045673
v 0.26444 -0.032468 -0.047196
v 0.26681 -0.034599 -0.043454
v 0.26138 -0.03063 -0.04491
v 0.25983 -0.028383 -0.048432
v 0.25587 -0.0236 -0.049491
v 0.25671 -0.025745 -0.046162
v 0.25305 -0.020354 -0.047142
v 0.25258 -0.017975 -0.050373
v 0.25022 -0.011848 -0.051005
v 0.25041 -0.014687 -0.047849
v 0.24858 -0.008382 -0.04834
v 0.24883 -0.0051288 -0.051378
v 0.32337 0.001973 -0.031916
v 0.3228 0.0087958 -0.031559
v 0.32374 -0.0015884 -0.031304
v 0.3227 -0.0092585 -0.031585
v 0.32321 -0.004328 -0.031955
v 0.32462 -0.0042534 -0.037281
v 0.32362 -0.0097774 -0.037548
v 0.32174 -0.015311 -0.038055
v 0.32141 -0.012398 -0.032447
v 0.32227 -0.0093948 -0.032216
v 0.31919 -0.017845 -0.033079
v 0.32177 -0.012711 -0.031833
v 0.3193 -0.018309 -0.032495
v 0.31624 -0.023302 -0.033316
v 0.31534 -0.025556 -0.039767
v 0.3138 -0.025619 -0.034486
v 0.31308 -0.027905 -0.040374
v 0.31168 -0.027813 -0.035054
v 0.31403 -0.025958 -0.033908
v 0.31188 -0.028181 -0.034483
v 0.30956 -0.030215 -0.035105
v 0.3071 -0.032035 -0.035765
v 0.30939 -0.029821 -0.035667
v 0.30801 -0.031899 -0.041732
v 0.30696 -0.031617 -0.036319
v 0.30438 -0.033212 -0.037012
v 0.304 -0.034122 -0.042805
v 0.30403 -0.039056 -0.042799
v 0.3017 -0.034565 -0.037728
v 0.30031 -0.035701 -0.043796
v 0.29889 -0.035701 -0.038483
v 0.29721 -0.036664 -0.044627
v 0.29604 -0.036575 -0.039245
v 0.29891 -0.036174 -0.037958
v 0.30177 -0.035022 -0.037194
v 0.30448 -0.033652 -0.036468
v 0.30509 -0.039056 -0.046759
v 0.29807 -0.041369 -0.04864
v 0.30509 -0.032472 -0.046759
v 0.29842 -0.035145 -0.048543
v 0.29806 -0.0349 -0.044236
v 0.28769 -0.036732 -0.037858
v 0.29317 -0.036044 -0.03639
v 0.30076 -0.033538 -0.034358
v 0.30651 -0.030134 -0.032817
v 0.31125 -0.027543 -0.040706
v 0.31002 -0.029399 -0.045439
v 0.31741 -0.026369 -0.058995
v 0.31736 -0.02645 -0.059103
v 0.31268 -0.029391 -0.055388
v 0.31393 -0.029391 -0.060025
v 0.31394 -0.029384 -0.0601
v 0.3174 -0.026428 -0.059175
v 0.31396 -0.029374 -0.060138
v 0.31396 -0.029361 -0.060174
v 0.31741 -0.026415 -0.059252
v 0.31397 -0.029344 -0.06021
v 0.31398 -0.029324 -0.060244
v 0.3174 -0.026393 -0.059327
v 0.314 -0.029274 -0.060308
v 0.31402 -0.02921 -0.060366
v 0.3174 -0.026363 -0.059399
v 0.31738 -0.026326 -0.059466
v 0.32042 -0.023009 -0.058588
v 0.32043 -0.023038 -0.058516
v 0.3204 -0.022972 -0.058655
v 0.32037 -0.02293 -0.058715
v 0.32034 -0.022882 -0.058767
v 0.31735 -0.026283 -0.059526
v 0.31732 -0.026234 -0.059577
v 0.31403 -0.029137 -0.060415
v 0.31404 -0.029054 -0.060455
v 0.31405 -0.028964 -0.060484
v 0.31728 -0.026181 -0.059619
v 0.31405 -0.028869 -0.060502
v 0.31723 -0.026126 -0.05965
v 0.31408 -0.021641 -0.060654
v 0.31542 -0.020054 -0.060142
v 0.31457 -0.021549 -0.062439
v 0.31457 -0.030617 -0.062439
v 0.31593 -0.020054 -0.062074
v 0.31814 -0.020054 -0.061484
v 0.31767 -0.020077 -0.059596
v 0.32175 -0.023787 -0.060517
v 0.32219 -0.024261 -0.060352
v 0.31485 -0.031492 -0.062329
v 0.31457 -0.031196 -0.062417
v 0.31577 -0.0326 -0.06148
v 0.32183 -0.028625 -0.059042
v 0.32217 -0.024965 -0.060286
v 0.32204 -0.02714 -0.059814
v 0.318 -0.032596 -0.059507
v 0.31891 -0.032595 -0.057215
v 0.3155 -0.032606 -0.04397
v 0.32099 -0.03061 -0.055855
v 0.31765 -0.030609 -0.043395
v 0.31137 -0.032596 -0.045077
v 0.3138 -0.033221 -0.040182
v 0.32093 -0.02571 -0.038269
v 0.32202 -0.025582 -0.042223
v 0.32471 -0.019311 -0.037257
v 0.32577 -0.019311 -0.041217
v 0.31912 -0.019311 -0.043
v 0.31806 -0.019317 -0.039041
v 0.31765 -0.024261 -0.043395
v 0.31636 -0.021817 -0.039258
v 0.31219 -0.024988 -0.031296
v 0.3171 -0.01797 -0.029978
v 0.31921 -0.013238 -0.029415
v 0.32221 -0.0093911 -0.037907
v 0.32318 -0.0044482 -0.037847
v 0.32437 -0.0032013 -0.041592
v 0.32297 -0.010459 -0.041967
v 0.32121 -0.015311 -0.042441
v 0.3275 -0.015311 -0.040756
v 0.32643 -0.015311 -0.036795
v 0.32967 -0.0074545 -0.040173
v 0.32845 -0.0083586 -0.036257
v 0.32916 0.0023578 -0.036064
v 0.33017 0.0023628 -0.040038
v 0.32661 0.014806 -0.036747
v 0.32899 0.009963 -0.040354
v 0.3275 0.014865 -0.040756
v 0.32121 0.014865 -0.042441
v 0.32179 0.014853 -0.03804
v 0.3218 0.010442 -0.038036
v 0.32296 0.0051708 -0.037724
v 0.32375 0.0071987 -0.041758
v 0.32337 -0.0001644 -0.037693
v 0.32154 -0.0013355 -0.02879
v 0.32082 -0.0075057 -0.028982
v 0.32106 0.0054579 -0.028918
v 0.31977 0.011032 -0.029264
v 0.31766 0.016348 -0.029829
v 0.32015 0.014929 -0.03848
v 0.31475 0.02122 -0.03061
v 0.31809 0.018895 -0.039029
v 0.30798 0.029694 -0.041741
v 0.31648 0.02261 -0.043684
v 0.31275 0.025682 -0.04036
v 0.31912 0.018865 -0.043
v 0.31765 0.023815 -0.043395
v 0.31612 0.026004 -0.054467
v 0.32041 0.022631 -0.058287
v 0.32043 0.022626 -0.058363
v 0.31738 0.025987 -0.059098
v 0.31736 0.026004 -0.059103
v 0.3174 0.025982 -0.059175
v 0.3174 0.025969 -0.059252
v 0.31394 0.028938 -0.0601
v 0.31396 0.028928 -0.060138
v 0.31393 0.028945 -0.060025
v 0.31002 0.028951 -0.045439
v 0.31396 0.028915 -0.060174
v 0.31397 0.028898 -0.06021
v 0.31398 0.028878 -0.060244
v 0.3174 0.025947 -0.059327
v 0.31399 0.028854 -0.060277
v 0.314 0.028827 -0.060309
v 0.31402 0.028764 -0.060366
v 0.3174 0.025917 -0.059399
v 0.31738 0.02588 -0.059466
v 0.32042 0.022563 -0.058588
v 0.3204 0.022527 -0.058655
v 0.32043 0.022592 -0.058516
v 0.32043 0.022613 -0.05844
v 0.32037 0.022484 -0.058715
v 0.31735 0.025837 -0.059526
v 0.32034 0.022437 -0.058767
v 0.3203 0.022385 -0.058809
v 0.31732 0.025788 -0.059577
v 0.31728 0.025735 -0.059619
v 0.31404 0.028608 -0.060455
v 0.31403 0.028691 -0.060415
v 0.31405 0.028518 -0.060484
v 0.31405 0.028423 -0.060502
v 0.31723 0.02568 -0.05965
v 0.32024 0.02232 -0.058852
v 0.31767 0.019631 -0.059596
v 0.31542 0.019608 -0.060142
v 0.31814 0.019608 -0.061484
v 0.31593 0.019608 -0.062074
v 0.32175 0.023341 -0.060517
v 0.32219 0.023815 -0.060352
v 0.31457 0.030171 -0.06244
v 0.32219 0.024269 -0.06035
v 0.32203 0.026724 -0.059814
v 0.3157 0.032064 -0.061673
v 0.32172 0.028681 -0.058613
v 0.31137 0.03215 -0.045077
v 0.31002 0.03075 -0.045439
v 0.31551 0.032147 -0.043969
v 0.31893 0.03215 -0.05707
v 0.31765 0.030163 -0.043395
v 0.32086 0.030164 -0.055385
v 0.32229 0.024796 -0.04215
v 0.31753 0.02928 -0.039182
v 0.32577 0.018865 -0.041217
v 0.32223 0.023226 -0.037921
v 0.32471 0.018865 -0.037257
v 0.31978 0.018863 -0.038579
v 0.31694 0.023204 -0.039339
v 0.31539 0.023313 -0.03406
v 0.31202 0.028405 -0.040658
v 0.31136 0.027718 -0.035141
v 0.30651 0.032121 -0.035923
v 0.31298 0.026647 -0.03419
v 0.30234 0.033833 -0.03756
v 0.29573 0.036815 -0.03881
v 0.29171 0.037013 -0.040403
v 0.29742 0.03622 -0.04457
v 0.30403 0.033724 -0.042799
v 0.29762 0.035712 -0.038825
v 0.30403 0.03861 -0.042799
v 0.30403 0.032029 -0.042798
v 0.30509 0.032026 -0.046759
v 0.2988 0.034591 -0.048445
v 0.29157 0.035721 -0.050383
v 0.29157 0.041729 -0.050383
v 0.29044 0.035777 -0.04644
v 0.29465 0.035242 -0.045308
v 0.29051 0.037243 -0.046422
v 0.29051 0.041729 -0.046422
v 0.29807 0.040923 -0.04864
v 0.29782 0.040738 -0.044464
v 0.30509 0.03861 -0.046759
v 0.28581 0.037278 -0.04199
v 0.28664 0.035721 -0.047458
v 0.28664 0.041729 -0.047458
v 0.28662 0.037304 -0.047463
v 0.28011 0.036591 -0.043514
v 0.27847 0.035823 -0.049646
v 0.27441 0.03492 -0.045035
v 0.27312 0.033714 -0.051081
v 0.27312 0.03861 -0.051081
v 0.27312 0.03203 -0.051082
v 0.27418 0.032026 -0.055041
v 0.27774 0.034003 -0.049812
v 0.27028 0.032305 -0.042526
v 0.27535 0.03449 -0.041166
v 0.2807 0.035806 -0.039733
v 0.28624 0.036277 -0.038247
v 0.29179 0.035806 -0.036763
v 0.29714 0.034491 -0.035328
v 0.29939 0.034005 -0.044047
v 0.30221 0.032306 -0.033969
v 0.30919 0.02758 -0.0321
v 0.26554 0.029299 -0.043795
v 0.26441 0.025748 -0.053266
v 0.26923 0.029729 -0.05212
v 0.26925 0.028953 -0.056362
v 0.26967 0.025941 -0.071892
v 0.26278 0.02262 -0.058073
v 0.26015 0.018865 -0.0588
v 0.26162 0.023815 -0.058406
v 0.26617 0.023815 -0.075363
v 0.26162 0.030163 -0.058406
v 0.26496 0.030164 -0.070871
v 0.26378 0.032161 -0.057829
v 0.26743 0.03215 -0.07098
v 0.26612 0.030634 -0.071844
v 0.26526 0.029938 -0.071964
v 0.26887 0.032146 -0.072336
v 0.2659 0.027763 -0.074343
v 0.26613 0.025294 -0.075213
v 0.27229 0.032154 -0.073131
v 0.27351 0.031044 -0.073405
v 0.2738 0.03075 -0.07334
v 0.27381 0.030171 -0.073362
v 0.26926 0.03075 -0.056361
v 0.2679 0.03215 -0.056724
v 0.26331 0.032739 -0.05371
v 0.27032 0.036709 -0.056077
v 0.26926 0.036709 -0.052116
v 0.27032 0.02971 -0.056077
v 0.26924 0.031568 -0.052119
v 0.2644 0.028994 -0.047724
v 0.26293 0.026322 -0.05381
v 0.26016 0.024828 -0.04886
v 0.25909 0.018865 -0.05484
v 0.25244 0.018865 -0.056623
v 0.2535 0.018865 -0.060583
v 0.25724 0.025129 -0.05958
v 0.25622 0.025263 -0.055611
v 0.26036 0.020978 -0.054203
v 0.25483 0.01631 -0.046664
v 0.25939 0.023526 -0.045443
v 0.25658 0.019953 -0.049817
v 0.27381 0.021103 -0.073362
v 0.26664 0.023341 -0.075284
v 0.27024 0.019608 -0.074317
v 0.27245 0.019608 -0.073727
v 0.26971 0.019622 -0.072454
v 0.27193 0.019608 -0.071795
v 0.26711 0.022314 -0.073088
v 0.26704 0.022385 -0.07308
v 0.27011 0.02568 -0.072275
v 0.27006 0.025735 -0.072271
v 0.27329 0.028423 -0.071424
v 0.27329 0.028518 -0.071406
v 0.27328 0.028608 -0.071377
v 0.27 0.025788 -0.072255
v 0.27327 0.028691 -0.071338
v 0.27325 0.028764 -0.071288
v 0.26995 0.025837 -0.072227
v 0.26989 0.02588 -0.072189
v 0.26692 0.022484 -0.073038
v 0.26698 0.022436 -0.073065
v 0.26687 0.022526 -0.073
v 0.26682 0.022563 -0.072951
v 0.26985 0.025917 -0.07214
v 0.26677 0.022592 -0.072894
v 0.2698 0.025947 -0.072083
v 0.26673 0.022613 -0.07283
v 0.2667 0.022626 -0.072759
v 0.26976 0.025969 -0.072018
v 0.2732 0.028915 -0.071096
v 0.26973 0.025982 -0.071948
v 0.27318 0.028938 -0.071022
v 0.27319 0.028928 -0.07106
v 0.27316 0.028945 -0.070947
v 0.27192 0.028945 -0.06631
v 0.26972 0.026004 -0.071868
v 0.26668 0.022631 -0.072685
v 0.27321 0.028898 -0.071132
v 0.27322 0.028878 -0.071166
v 0.27324 0.028827 -0.071231
v 0.27332 0.021132 -0.071572
v 0.2825 0.035243 -0.048566
v 0.28082 0.034667 -0.053262
v 0.2877 0.035721 -0.051418
v 0.2877 0.041729 -0.051418
v 0.2812 0.040923 -0.053161
v 0.27933 0.040738 -0.049416
v 0.27418 0.03861 -0.055041
v 0.30789 0.031507 -0.041764
v 0.30895 0.02971 -0.045724
v 0.30897 0.036834 -0.045718
v 0.30789 0.036709 -0.041764
v 0.31204 0.034037 -0.040652
v 0.30667 0.031401 -0.036398
v 0.31826 0.019951 -0.032774
v 0.31865 0.018348 -0.033185
v 0.32111 0.01293 -0.032526
v 0.32402 0.0076275 -0.037442
v 0.3225 0.008003 -0.032163
v 0.32478 0.0015644 -0.037238
v 0.31782 0.032146 -0.059862
v 0.32122 0.030041 -0.056746
v 0.31457 0.03075 -0.062417
v 0.31457 0.021103 -0.06244
v 0.31408 0.021156 -0.060655
v 0.31975 -0.019284 -0.038585
v 0.32022 -0.015272 -0.038458
v 0.31647 -0.023064 -0.043664
v 0.30789 -0.037155 -0.041764
v 0.30895 -0.037155 -0.045724
v 0.30895 -0.030156 -0.045724
v 0.31002 -0.031196 -0.045439
v 0.32149 -0.029947 -0.057731
v 0.32024 -0.022766 -0.058852
v 0.3203 -0.022831 -0.058809
v 0.32043 -0.023059 -0.05844
v 0.32043 -0.023072 -0.058363
v 0.32041 -0.023077 -0.058287
v 0.30789 -0.03016 -0.041764
v 0.30402 -0.032514 -0.042801
v 0.29157 -0.036167 -0.050383
v 0.29157 -0.042175 -0.050383
v 0.29782 -0.041184 -0.044464
v 0.31613 -0.022812 -0.033898
v 0.25244 0.010614 -0.050929
v 0.25376 0.010227 -0.05627
v 0.25257 0.0041474 -0.056588
v 0.25099 0.0030735 -0.051332
v 0.29812 -0.019311 -0.090284
v 0.30201 -0.019327 -0.089344
v 0.29891 -0.019311 -0.093234
v 0.29803 -0.024118 -0.089961
v 0.30167 -0.027745 -0.088083
v 0.29763 -0.029085 -0.088453
v 0.30093 -0.031668 -0.085311
v 0.29693 -0.032055 -0.085858
v 0.29579 -0.034302 -0.081608
v 0.3 -0.03376 -0.081857
v 0.29879 -0.035085 -0.077351
v 0.29332 -0.035958 -0.072369
v 0.2969 -0.036033 -0.070294
v 0.28664 -0.036208 -0.047459
v 0.29051 -0.042245 -0.046424
v 0.29051 -0.036161 -0.046422
v 0.28664 -0.042161 -0.047458
v 0.29196 -0.042139 -0.067322
v 0.29684 -0.042005 -0.070067
v 0.29895 -0.041108 -0.07794
v 0.29482 -0.041366 -0.077979
v 0.30061 -0.039288 -0.084139
v 0.29703 -0.03883 -0.086213
v 0.30166 -0.037028 -0.088059
v 0.30241 -0.034329 -0.090838
v 0.29814 -0.035967 -0.090365
v 0.30298 -0.030838 -0.09299
v 0.29883 -0.032831 -0.092949
v 0.3034 -0.025676 -0.094548
v 0.29933 -0.028808 -0.094807
v 0.29961 -0.023553 -0.095861
v 0.29967 -0.019311 -0.09608
v 0.29967 -0.015311 -0.09608
v 0.30354 -0.019311 -0.095045
v 0.30354 -0.015311 -0.095045
v 0.30277 -0.019311 -0.092198
v 0.30277 -0.015311 -0.092198
v 0.29891 -0.015311 -0.093234
v 0.30277 0.018865 -0.092198
v 0.30198 0.018865 -0.089249
v 0.29891 0.018865 -0.093234
v 0.30354 0.018865 -0.095045
v 0.30277 0.014865 -0.092198
v 0.30354 0.014865 -0.095045
v 0.29891 0.014865 -0.093234
v 0.29967 0.014865 -0.09608
v 0.29967 0.018865 -0.09608
v 0.29954 0.025225 -0.095584
v 0.30348 0.023107 -0.094826
v 0.30319 0.028358 -0.093773
v 0.30254 0.033343 -0.091333
v 0.29912 0.030388 -0.094027
v 0.29838 0.034682 -0.091249
v 0.30162 0.036683 -0.087907
v 0.2971 0.038271 -0.086473
v 0.30061 0.038843 -0.084137
v 0.29895 0.040662 -0.07794
v 0.29507 0.040706 -0.078918
v 0.2928 0.041596 -0.070448
v 0.29684 0.041559 -0.070068
v 0.29051 0.041799 -0.046424
v 0.28664 0.041767 -0.04746
v 0.29704 0.035571 -0.07079
v 0.29051 0.035715 -0.046422
v 0.28664 0.035715 -0.047458
v 0.29879 0.034639 -0.077351
v 0.29297 0.03561 -0.071089
v 0.29493 0.034639 -0.078387
v 0.2961 0.033391 -0.08274
v 0.30023 0.032969 -0.082696
v 0.30114 0.030443 -0.086097
v 0.29703 0.031304 -0.08624
v 0.29759 0.02877 -0.088303
v 0.29799 0.024631 -0.089811
v 0.30163 0.027368 -0.087926
v 0.3019 0.023502 -0.088962
v 0.29812 0.018865 -0.090284
v 0.27448 0.014865 -0.085641
v 0.27889 0.014865 -0.088081
v 0.27448 0.018865 -0.085641
v 0.27052 0.014865 -0.082529
v 0.2671 0.014865 -0.078825
v 0.2687 0.018865 -0.080788
v 0.2643 0.014865 -0.07459
v 0.26432 0.018865 -0.074624
v 0.26179 0.014865 -0.069113
v 0.26028 0.014865 -0.067223
v 0.26185 0.018865 -0.069197
v 0.26025 0.018865 -0.067209
v 0.25696 0.014865 -0.05541
v 0.25697 0.018865 -0.055409
v 0.25233 0.014865 -0.056651
v 0.25233 0.018865 -0.056651
v 0.25679 0.014865 -0.072658
v 0.25657 0.018865 -0.072202
v 0.2597 0.018865 -0.078629
v 0.2597 0.014865 -0.078629
v 0.26306 0.018865 -0.083371
v 0.26306 0.014865 -0.083371
v 0.26711 0.018865 -0.087536
v 0.26711 0.014865 -0.087536
v 0.27176 0.018865 -0.091027
v 0.27176 0.014865 -0.091027
v 0.27689 0.018865 -0.093757
v 0.27689 0.014865 -0.093757
v 0.28238 0.018865 -0.095663
v 0.28238 0.014865 -0.095663
v 0.2881 0.018865 -0.096699
v 0.2881 0.014865 -0.096699
v 0.29391 0.018865 -0.096839
v 0.29391 0.014865 -0.096839
v 0.3089 0.014865 -0.092821
v 0.3089 0.018865 -0.092821
v 0.31387 0.014865 -0.089795
v 0.31387 0.018865 -0.089795
v 0.3183 0.014865 -0.086039
v 0.3183 0.018865 -0.086039
v 0.3221 0.014865 -0.081643
v 0.3221 0.018865 -0.081643
v 0.32518 0.014865 -0.076713
v 0.32518 0.018865 -0.076713
v 0.32746 0.014865 -0.071368
v 0.32746 0.018865 -0.071368
v 0.32888 0.014865 -0.065734
v 0.32888 0.018865 -0.065734
v 0.32942 0.014865 -0.059947
v 0.32942 0.018865 -0.059947
v 0.32893 0.014865 -0.052818
v 0.32896 0.018865 -0.053322
v 0.32482 0.018865 -0.037229
v 0.32482 0.014865 -0.037229
v 0.32019 0.014865 -0.03847
v 0.32018 0.018865 -0.038471
v 0.32307 0.014865 -0.049606
v 0.32297 0.014865 -0.052264
v 0.32322 0.018865 -0.050355
v 0.32342 0.014865 -0.058749
v 0.32285 0.018865 -0.052835
v 0.32342 0.018865 -0.058787
v 0.32311 0.018865 -0.063817
v 0.32311 0.014865 -0.063817
v 0.32121 0.018865 -0.071136
v 0.322 0.014865 -0.068733
v 0.32013 0.014865 -0.07341
v 0.31753 0.014865 -0.077728
v 0.31861 0.014865 -0.081744
v 0.31753 0.018865 -0.077728
v 0.31862 0.018878 -0.081814
v 0.31474 0.018865 -0.082779
v 0.31474 0.014865 -0.082779
v 0.31439 0.018865 -0.081463
v 0.31439 0.014865 -0.081463
v 0.30849 0.018865 -0.086274
v 0.30921 0.014865 -0.085815
v 0.30235 0.014865 -0.08911
v 0.29536 0.014865 -0.090756
v 0.29967 0.018865 -0.090006
v 0.29014 0.018865 -0.090925
v 0.28818 0.014865 -0.090671
v 0.28348 0.014865 -0.089745
v 0.28348 0.018865 -0.089745
v 0.28383 0.014865 -0.091061
v 0.28383 0.018865 -0.091061
v 0.27997 0.014865 -0.092097
v 0.27997 0.018865 -0.092097
v 0.27889 0.018865 -0.088081
v 0.27448 -0.019311 -0.085641
v 0.27889 -0.019311 -0.088081
v 0.27448 -0.015311 -0.085641
v 0.26837 -0.019311 -0.080476
v 0.27052 -0.015311 -0.082529
v 0.2671 -0.015311 -0.078825
v 0.26432 -0.019311 -0.074624
v 0.26432 -0.015311 -0.074624
v 0.26199 -0.019311 -0.069472
v 0.26089 -0.019311 -0.068089
v 0.26185 -0.015311 -0.069187
v 0.25982 -0.019311 -0.065986
v 0.26035 -0.015311 -0.067322
v 0.25696 -0.015311 -0.055411
v 0.25697 -0.019311 -0.055409
v 0.25233 -0.015311 -0.056651
v 0.25233 -0.019311 -0.056651
v 0.25684 -0.019311 -0.072807
v 0.25666 -0.015311 -0.072332
v 0.2597 -0.019311 -0.078629
v 0.2597 -0.015311 -0.078629
v 0.26306 -0.019311 -0.08337
v 0.26306 -0.015311 -0.08337
v 0.26711 -0.019311 -0.087536
v 0.26711 -0.015311 -0.087536
v 0.27176 -0.019311 -0.091027
v 0.27176 -0.015311 -0.091027
v 0.27689 -0.019311 -0.093757
v 0.27689 -0.015311 -0.093757
v 0.28238 -0.019311 -0.095663
v 0.28238 -0.015311 -0.095663
v 0.2881 -0.019311 -0.096699
v 0.2881 -0.015311 -0.096699
v 0.29391 -0.019311 -0.096839
v 0.29391 -0.015311 -0.096839
v 0.3089 -0.019311 -0.092821
v 0.3089 -0.015311 -0.092821
v 0.31387 -0.015311 -0.089795
v 0.31387 -0.019311 -0.089795
v 0.3183 -0.015311 -0.086039
v 0.3183 -0.019311 -0.086039
v 0.3221 -0.015311 -0.081643
v 0.3221 -0.019311 -0.081643
v 0.32518 -0.015311 -0.076713
v 0.32518 -0.019311 -0.076713
v 0.32746 -0.015311 -0.071367
v 0.32746 -0.019311 -0.071367
v 0.32888 -0.015311 -0.065734
v 0.32888 -0.019311 -0.065734
v 0.32942 -0.015311 -0.059947
v 0.32942 -0.019311 -0.059947
v 0.32886 -0.019311 -0.052566
v 0.32893 -0.015311 -0.052895
v 0.32482 -0.015311 -0.037229
v 0.32482 -0.019311 -0.037229
v 0.32018 -0.015311 -0.03847
v 0.32018 -0.019311 -0.038471
v 0.32313 -0.019311 -0.049611
v 0.32323 -0.015311 -0.050462
v 0.32288 -0.019311 -0.05276
v 0.32342 -0.019311 -0.058763
v 0.32285 -0.015311 -0.052846
v 0.32342 -0.015311 -0.058787
v 0.32311 -0.015311 -0.063817
v 0.32271 -0.019311 -0.066313
v 0.32201 -0.015311 -0.068733
v 0.32013 -0.015311 -0.07341
v 0.32013 -0.019311 -0.07341
v 0.31753 -0.019311 -0.077728
v 0.31861 -0.019311 -0.081744
v 0.31753 -0.015311 -0.077728
v 0.31861 -0.015311 -0.081744
v 0.31474 -0.015311 -0.082779
v 0.31439 -0.015311 -0.081463
v 0.31475 -0.019316 -0.082819
v 0.31439 -0.019311 -0.081463
v 0.30884 -0.019311 -0.086023
v 0.31078 -0.015311 -0.084615
v 0.30461 -0.015311 -0.088278
v 0.29773 -0.015311 -0.09035
v 0.30235 -0.019311 -0.08911
v 0.29536 -0.019311 -0.090756
v 0.28818 -0.019311 -0.090671
v 0.28348 -0.019311 -0.089745
v 0.29056 -0.015311 -0.090917
v 0.28348 -0.015311 -0.089745
v 0.28383 -0.015311 -0.091061
v 0.28383 -0.019311 -0.091061
v 0.27997 -0.015311 -0.092097
v 0.27889 -0.015311 -0.088081
v 0.27999 -0.019324 -0.092167
v 0.26926 0.032715 -0.052116
v 0.27312 0.032723 -0.051081
v 0.27982 0.032599 -0.076073
v 0.27579 0.032639 -0.076506
v 0.2813 0.031639 -0.081594
v 0.27743 0.03166 -0.082631
v 0.27808 0.030531 -0.08505
v 0.28202 0.030371 -0.084294
v 0.27851 0.029047 -0.086652
v 0.2825 0.028276 -0.086075
v 0.27887 0.025412 -0.087996
v 0.28275 0.024483 -0.087012
v 0.2828 0.014865 -0.087217
v 0.27894 0.014865 -0.088245
v 0.27993 0.024452 -0.09195
v 0.28374 0.026208 -0.090731
v 0.28338 0.030308 -0.089361
v 0.27971 0.028623 -0.091116
v 0.28289 0.032793 -0.087537
v 0.27925 0.031887 -0.089412
v 0.28186 0.035207 -0.083684
v 0.2786 0.03401 -0.086981
v 0.27776 0.035438 -0.083869
v 0.27977 0.036636 -0.075892
v 0.27312 0.036715 -0.051081
v 0.27604 0.036612 -0.077437
v 0.26926 0.036715 -0.052116
v 0.30789 0.032723 -0.041764
v 0.30403 0.032728 -0.042799
v 0.31459 0.032599 -0.066755
v 0.3107 0.032585 -0.06771
v 0.31217 0.031694 -0.073167
v 0.31611 0.031602 -0.072422
v 0.31284 0.030577 -0.07567
v 0.31684 0.030239 -0.075147
v 0.31328 0.029047 -0.077334
v 0.31728 0.028161 -0.076802
v 0.31752 0.024483 -0.077694
v 0.31364 0.025411 -0.078679
v 0.31371 0.014865 -0.078928
v 0.31757 0.014865 -0.077899
v 0.31846 0.027054 -0.081198
v 0.31469 0.025015 -0.082569
v 0.31445 0.028896 -0.081702
v 0.31817 0.03015 -0.080113
v 0.31776 0.032398 -0.078588
v 0.314 0.03199 -0.079997
v 0.31716 0.034173 -0.076366
v 0.31337 0.034009 -0.077667
v 0.31636 0.035478 -0.07336
v 0.3125 0.035494 -0.074404
v 0.31468 0.036612 -0.067083
v 0.31068 0.036636 -0.06761
v 0.30789 0.036715 -0.041764
v 0.30403 0.036715 -0.042799
v 0.30789 -0.033161 -0.041764
v 0.30403 -0.033174 -0.042799
v 0.3107 -0.033032 -0.067695
v 0.31384 -0.033133 -0.063955
v 0.31221 -0.032106 -0.073313
v 0.31544 -0.032645 -0.069948
v 0.31646 -0.031536 -0.073737
v 0.31314 -0.030201 -0.076814
v 0.31698 -0.030192 -0.075681
v 0.31361 -0.026515 -0.07856
v 0.31737 -0.027825 -0.077137
v 0.31756 -0.022581 -0.077842
v 0.31371 -0.015312 -0.078935
v 0.31757 -0.015311 -0.077892
v 0.31857 -0.024893 -0.081597
v 0.31461 -0.027181 -0.0823
v 0.31432 -0.030475 -0.08122
v 0.31834 -0.029063 -0.080766
v 0.3138 -0.033265 -0.079255
v 0.31787 -0.032433 -0.078989
v 0.31716 -0.034619 -0.076366
v 0.31276 -0.035623 -0.075387
v 0.31632 -0.035977 -0.073215
v 0.31075 -0.037091 -0.067861
v 0.31457 -0.037069 -0.066695
v 0.30789 -0.037161 -0.041764
v 0.30403 -0.037161 -0.042799
v 0.26926 -0.033161 -0.052116
v 0.27588 -0.033077 -0.076836
v 0.27914 -0.033119 -0.073562
v 0.28098 -0.03247 -0.080433
v 0.27764 -0.031851 -0.08341
v 0.28202 -0.030817 -0.084294
v 0.27842 -0.029968 -0.086304
v 0.28242 -0.029139 -0.085808
v 0.2788 -0.027004 -0.087717
v 0.28272 -0.026086 -0.0869
v 0.27892 -0.022581 -0.088195
v 0.2828 -0.015311 -0.087217
v 0.27894 -0.015311 -0.088245
v 0.27982 -0.027493 -0.091552
v 0.28378 -0.02522 -0.090866
v 0.28356 -0.029205 -0.090044
v 0.27953 -0.030594 -0.090467
v 0.27912 -0.032845 -0.088941
v 0.28316 -0.032077 -0.088534
v 0.27856 -0.034535 -0.086838
v 0.28254 -0.034308 -0.086247
v 0.27772 -0.03594 -0.083721
v 0.28159 -0.035924 -0.082678
v 0.27594 -0.037069 -0.077049
v 0.27983 -0.037091 -0.076145
v 0.26926 -0.037161 -0.052116
v 0.27312 -0.037161 -0.051081
v 0.27312 -0.033169 -0.051081
f 18 19 153
f 92 21 22
f 37 36 61
f 612 272 274
f 611 46 45
f 50 49 47
f 58 59 35
f 67 68 70
f 73 99 70
f 87 135 84
f 88 110 114
f 94 91 89
f 137 138 83
f 131 134 87
f 159 161 162
f 164 162 163
f 187 483 484
f 257 259 340
f 269 279 281
f 282 279 280
f 329 299 300
f 326 308 306
f 328 321 324
f 324 320 325
f 345 346 595
f 342 347 345
f 596 250 595
f 357 358 250
f 366 377 367
f 438 383 384
f 426 407 405
f 400 398 592
f 422 423 421
f 423 593 428
f 580 432 433
f 443 379 383
f 468 456 454
f 578 380 457
f 459 460 466
f 460 462 464
f 574 472 573
f 479 476 577
f 525 497 496
f 532 551 552
f 510 568 569
f 512 513 515
f 515 516 518
f 496 522 163
f 509 531 533
f 534 535 533
f 575 573 572
f 579 578 580
f 599 598 266
f 619 620 618
f 633 632 630
f 631 632 633
f 620 650 649
f 652 649 650
f 654 651 652
f 655 653 654
f 655 652 650
f 657 658 656
f 656 662 660
f 659 660 661
f 661 662 663
f 663 658 664
f 664 661 663
f 678 682 681
f 681 684 680
f 707 710 709
f 663 658 662
f 662 656 660
f 659 660 656
f 747 749 748
f 762 765 763
f 766 763 765
f 769 766 768
f 779 778 780
f 782 779 780
f 783 781 782
f 863 655 868
f 797 800 798
f 800 802 801
f 620 650 655
f 653 655 654
f 652 653 654
f 837 835 836
f 839 838 837
f 852 855 853
f 853 856 858
f 856 859 858
f 871 869 870
f 871 872 874
f 873 874 872
f 899 875 876
f 781 887 888
f 781 780 779
f 928 903 902
f 767 915 914
f 765 767 766
f 928 927 929
f 956 930 931
f 943 856 942
f 855 858 856
f 982 984 957
f 984 958 957
f 968 872 969
f 874 870 871
f 245 244 206
f 204 206 244
f 203 204 244
f 584 203 244
f 200 203 584
f 197 200 584
f 449 197 584
f 196 197 448
f 193 196 448
f 192 193 451
f 190 192 451
f 188 190 2
f 186 188 1
f 184 186 1
f 181 184 3
f 180 181 5
f 177 180 5
f 176 177 6
f 174 176 6
f 172 174 8
f 9 172 8
f 11 172 9
f 174 6 8
f 177 5 6
f 3 184 1
f 1 188 2
f 197 449 448
f 193 448 451
f 3 5 181
f 190 451 2
f 239 242 16
f 238 239 16
f 235 238 24
f 234 235 24
f 231 234 28
f 230 231 28
f 227 230 33
f 226 227 39
f 223 226 40
f 42 223 40
f 222 223 42
f 219 222 276
f 277 219 276
f 218 219 278
f 215 218 263
f 262 215 263
f 214 215 261
f 211 214 256
f 255 211 256
f 210 211 254
f 208 210 246
f 206 208 246
f 246 245 206
f 254 211 255
f 261 215 262
f 278 219 277
f 230 28 29
f 242 10 16
f 254 246 210
f 238 16 24
f 256 214 261
f 234 24 28
f 264 263 218
f 278 264 218
f 230 29 31
f 227 33 39
f 230 31 33
f 43 276 222
f 43 222 42
f 226 39 40
f 161 160 615
f 155 19 14
f 19 18 14
f 162 161 615
f 615 160 616
f 155 14 12
f 22 18 144
f 144 20 22
f 153 152 18
f 152 144 18
f 20 91 22
f 91 92 22
f 22 21 93
f 93 95 26
f 26 95 69
f 95 71 69
f 71 68 67
f 67 69 71
f 26 22 93
f 48 47 61
f 47 37 61
f 59 61 36
f 35 59 36
f 612 270 272
f 270 269 272
f 46 612 45
f 274 45 612
f 51 610 45
f 610 611 45
f 45 47 49
f 49 51 45
f 48 62 47
f 62 50 47
f 372 373 207
f 209 207 373
f 351 209 373
f 212 209 350
f 213 212 350
f 216 213 349
f 217 216 287
f 220 217 286
f 221 220 286
f 224 221 285
f 225 224 284
f 52 225 284
f 228 225 52
f 229 228 53
f 232 229 53
f 233 232 141
f 236 233 140
f 237 236 142
f 240 237 142
f 241 240 147
f 171 241 148
f 148 241 147
f 240 142 143
f 140 233 141
f 232 53 54
f 286 217 287
f 350 209 351
f 213 350 349
f 221 286 285
f 53 228 52
f 143 147 240
f 140 142 236
f 216 349 287
f 54 141 232
f 224 285 284
f 65 55 35
f 35 67 65
f 35 55 56
f 56 58 35
f 60 58 57
f 58 56 57
f 62 60 50
f 57 50 60
f 70 66 67
f 66 65 67
f 99 97 66
f 66 70 99
f 70 72 73
f 73 72 77
f 78 82 77
f 82 73 77
f 75 74 89
f 89 88 75
f 88 84 75
f 84 81 75
f 81 80 75
f 80 79 75
f 83 99 82
f 99 73 82
f 84 86 87
f 87 134 135
f 135 85 84
f 87 86 131
f 86 88 114
f 131 86 130
f 88 89 90
f 130 86 127
f 127 86 126
f 88 90 112
f 88 112 111
f 126 86 128
f 128 86 115
f 88 111 109
f 88 109 110
f 115 86 114
f 94 92 91
f 91 90 89
f 89 74 94
f 83 85 137
f 85 135 133
f 136 85 133
f 99 83 98
f 97 99 98
f 101 98 83
f 85 136 123
f 85 123 122
f 85 122 121
f 85 121 120
f 102 101 83
f 104 102 83
f 85 120 117
f 85 117 137
f 105 104 83
f 106 105 83
f 138 106 83
f 133 132 131
f 130 133 131
f 131 132 134
f 151 152 153
f 153 154 151
f 158 159 166
f 159 165 166
f 162 164 165
f 165 159 162
f 163 522 164
f 148 168 173
f 168 170 173
f 175 173 170
f 528 175 170
f 178 175 528
f 529 178 528
f 179 178 529
f 182 179 490
f 183 182 481
f 185 183 482
f 187 185 483
f 189 187 484
f 191 189 485
f 194 191 486
f 195 194 488
f 198 195 489
f 199 198 489
f 201 199 378
f 202 201 376
f 205 202 375
f 207 205 374
f 374 372 207
f 375 374 205
f 202 376 375
f 201 378 376
f 199 489 378
f 485 189 484
f 481 182 490
f 185 482 483
f 482 183 481
f 194 486 488
f 486 191 485
f 179 529 490
f 488 489 195
f 358 360 249
f 250 358 249
f 360 361 248
f 248 361 589
f 361 363 587
f 363 367 587
f 248 249 360
f 361 587 589
f 266 598 340
f 340 341 257
f 341 343 595
f 259 266 340
f 341 595 257
f 608 266 609
f 266 269 609
f 281 609 269
f 269 270 279
f 611 610 280
f 610 282 280
f 282 281 279
f 321 322 319
f 322 329 302
f 319 322 317
f 329 601 292
f 601 289 292
f 317 322 315
f 315 322 314
f 329 292 293
f 314 322 313
f 313 322 303
f 329 293 294
f 303 322 302
f 329 294 296
f 329 296 297
f 329 297 299
f 300 302 329
f 347 327 597
f 327 326 307
f 326 324 325
f 597 327 607
f 607 327 606
f 326 325 603
f 326 603 604
f 606 327 605
f 605 327 307
f 326 604 310
f 326 310 309
f 326 309 308
f 306 307 326
f 325 320 319
f 603 325 319
f 324 326 328
f 328 322 321
f 321 323 324
f 324 323 320
f 330 339 601
f 601 329 330
f 329 328 330
f 347 338 337
f 332 327 337
f 327 347 337
f 333 332 337
f 333 337 331
f 602 331 337
f 339 330 336
f 336 330 335
f 330 334 335
f 336 599 339
f 599 600 601
f 339 599 601
f 600 289 601
f 595 343 344
f 344 345 595
f 345 344 342
f 342 338 347
f 347 597 345
f 595 346 596
f 357 356 355
f 357 355 359
f 355 354 359
f 362 359 354
f 365 364 370
f 364 362 370
f 370 366 365
f 354 370 362
f 596 356 250
f 356 357 250
f 367 363 365
f 365 366 367
f 443 367 377
f 377 379 443
f 438 440 383
f 383 381 384
f 384 436 438
f 423 425 421
f 425 426 405
f 421 425 420
f 426 384 381
f 420 425 412
f 412 425 411
f 426 381 386
f 426 386 387
f 411 425 409
f 409 425 406
f 426 387 408
f 426 408 407
f 406 425 405
f 385 389 388
f 592 427 400
f 427 593 594
f 418 427 594
f 433 592 395
f 427 418 417
f 427 417 415
f 394 395 592
f 427 415 416
f 427 416 402
f 392 394 592
f 393 392 592
f 427 402 401
f 427 401 400
f 396 393 592
f 397 396 592
f 398 397 592
f 594 422 421
f 420 594 421
f 422 424 423
f 428 425 423
f 423 424 593
f 593 427 428
f 384 426 437
f 426 428 437
f 428 429 437
f 429 431 437
f 431 591 437
f 437 436 384
f 432 434 435
f 590 430 435
f 430 432 435
f 592 433 430
f 433 432 430
f 395 579 433
f 579 580 433
f 580 434 432
f 582 581 578
f 439 582 446
f 444 439 446
f 442 441 443
f 441 439 444
f 444 443 441
f 582 578 446
f 383 440 443
f 440 442 443
f 456 467 453
f 467 465 464
f 454 456 453
f 467 464 453
f 454 457 458
f 458 468 454
f 454 578 457
f 460 461 466
f 466 468 459
f 468 458 459
f 464 465 461
f 461 460 464
f 472 464 462
f 462 470 472
f 471 472 574
f 472 470 573
f 471 576 472
f 576 477 474
f 477 476 474
f 472 576 474
f 478 492 518
f 518 476 478
f 478 476 479
f 476 477 577
f 496 524 525
f 525 499 497
f 497 495 496
f 497 498 495
f 498 532 554
f 532 533 535
f 495 498 566
f 566 498 557
f 557 498 556
f 532 535 537
f 532 537 538
f 556 498 554
f 532 538 550
f 532 550 549
f 552 554 532
f 532 549 551
f 497 499 500
f 507 498 500
f 498 497 500
f 506 507 500
f 504 506 500
f 513 508 501
f 501 508 502
f 508 505 502
f 508 513 512
f 512 510 508
f 510 509 508
f 531 511 570
f 511 510 569
f 570 511 541
f 510 512 564
f 493 564 512
f 564 563 510
f 541 511 542
f 542 511 543
f 543 511 545
f 545 511 546
f 510 563 561
f 510 561 562
f 546 511 569
f 510 562 559
f 510 559 567
f 510 567 568
f 501 515 513
f 515 517 512
f 517 493 512
f 518 492 517
f 517 515 518
f 523 163 526
f 514 526 520
f 518 514 520
f 518 516 514
f 163 520 526
f 163 523 524
f 524 496 163
f 533 532 509
f 509 511 531
f 531 534 533
f 534 536 535
f 535 536 570
f 537 535 570
f 572 479 577
f 577 575 572
f 575 574 573
f 380 578 579
f 578 581 580
f 266 608 600
f 600 599 266
f 619 653 620
f 618 620 621
f 620 649 648
f 648 647 621
f 647 645 623
f 645 643 623
f 643 640 625
f 640 638 626
f 638 635 629
f 635 631 629
f 623 643 625
f 625 640 626
f 620 648 621
f 623 621 647
f 638 629 626
f 632 636 630
f 636 637 630
f 630 637 628
f 637 639 627
f 639 641 627
f 627 641 624
f 641 642 624
f 624 642 622
f 642 644 622
f 644 646 622
f 646 651 653
f 653 619 646
f 619 622 646
f 628 637 627
f 633 630 631
f 631 634 632
f 635 634 631
f 632 634 635
f 620 655 650
f 652 651 649
f 654 653 651
f 655 620 653
f 655 654 652
f 656 659 666
f 666 667 693
f 693 667 692
f 667 668 692
f 692 668 688
f 668 671 688
f 671 673 687
f 673 674 687
f 674 677 680
f 683 674 680
f 677 678 680
f 656 666 693
f 693 657 656
f 674 683 687
f 671 687 688
f 657 694 658
f 656 658 662
f 659 656 660
f 661 660 662
f 663 662 658
f 664 659 661
f 679 676 684
f 676 675 684
f 675 672 686
f 685 675 686
f 672 670 689
f 670 669 690
f 669 665 691
f 665 664 658
f 658 694 691
f 665 658 691
f 669 691 690
f 684 675 685
f 686 672 689
f 670 690 689
f 678 681 680
f 678 679 682
f 679 684 682
f 681 682 684
f 767 769 771
f 767 771 731
f 761 762 737
f 762 763 735
f 737 762 735
f 763 767 733
f 733 767 731
f 760 761 739
f 776 777 779
f 781 696 722
f 696 695 720
f 722 696 720
f 776 779 726
f 779 781 724
f 726 779 724
f 773 776 726
f 695 698 718
f 752 754 745
f 748 749 745
f 741 743 758
f 743 745 754
f 737 739 761
f 739 741 760
f 733 735 763
f 729 731 771
f 660 661 729
f 728 663 662
f 660 729 771
f 726 728 773
f 728 662 773
f 662 660 772
f 745 749 751
f 660 771 772
f 722 724 781
f 718 720 695
f 714 716 699
f 716 718 698
f 699 716 698
f 711 714 701
f 709 711 707
f 745 751 752
f 711 701 703
f 701 714 699
f 704 707 711
f 743 754 758
f 703 704 711
f 741 758 760
f 662 772 773
f 765 764 736
f 764 759 738
f 736 764 738
f 770 768 766
f 770 766 732
f 766 765 734
f 732 766 734
f 780 778 775
f 697 783 719
f 783 782 721
f 719 783 721
f 782 780 723
f 780 775 725
f 723 780 725
f 700 697 717
f 755 753 746
f 756 755 746
f 747 746 750
f 746 744 756
f 744 742 757
f 742 740 759
f 757 742 759
f 740 738 759
f 736 734 765
f 732 730 770
f 730 659 656
f 730 656 770
f 753 750 746
f 658 664 727
f 727 725 775
f 723 721 782
f 719 717 697
f 717 715 700
f 715 713 700
f 713 712 702
f 712 710 708
f 658 727 775
f 656 658 774
f 774 658 775
f 706 712 708
f 756 744 757
f 712 706 705
f 712 705 702
f 713 702 700
f 774 770 656
f 707 706 708
f 707 708 710
f 709 710 712
f 712 711 709
f 663 664 658
f 662 658 656
f 659 661 660
f 745 746 747
f 747 748 745
f 747 750 749
f 762 764 765
f 766 767 763
f 769 767 766
f 779 777 778
f 782 781 779
f 783 696 781
f 858 859 860
f 858 860 822
f 851 852 828
f 852 853 826
f 853 858 824
f 848 851 830
f 852 826 828
f 830 851 828
f 866 867 871
f 874 785 811
f 785 784 809
f 866 871 815
f 871 874 813
f 865 866 815
f 871 813 815
f 785 809 811
f 784 787 807
f 809 784 807
f 843 844 835
f 841 843 835
f 840 841 835
f 838 840 835
f 834 835 844
f 830 832 848
f 832 834 848
f 822 824 858
f 824 826 853
f 651 819 653
f 819 822 860
f 653 819 860
f 817 649 620
f 815 817 865
f 811 813 874
f 805 807 787
f 801 803 790
f 803 805 787
f 800 801 795
f 795 798 800
f 817 620 865
f 620 653 865
f 864 653 860
f 834 844 848
f 795 801 793
f 793 801 792
f 790 792 801
f 790 803 787
f 653 864 865
f 855 854 825
f 854 850 827
f 825 854 827
f 850 849 829
f 861 857 856
f 861 856 821
f 856 855 823
f 821 856 823
f 862 861 821
f 870 869 868
f 786 873 810
f 873 872 812
f 810 873 812
f 872 870 814
f 870 868 816
f 814 870 816
f 816 868 818
f 788 786 808
f 845 842 836
f 846 845 836
f 839 837 836
f 842 839 836
f 836 833 846
f 833 831 847
f 831 829 849
f 847 831 849
f 829 827 850
f 825 823 855
f 821 820 862
f 820 652 654
f 820 654 862
f 655 650 818
f 814 812 872
f 810 808 786
f 808 806 788
f 791 804 802
f 806 804 789
f 802 799 797
f 804 791 789
f 802 797 796
f 846 833 847
f 802 796 794
f 802 794 791
f 654 655 862
f 806 789 788
f 862 655 863
f 655 818 868
f 797 798 795
f 797 799 800
f 800 799 802
f 620 649 650
f 653 620 655
f 652 651 653
f 837 838 835
f 839 840 838
f 841 840 839
f 852 854 855
f 853 855 856
f 856 857 859
f 871 867 869
f 871 870 872
f 873 785 874
f 899 901 875
f 782 781 888
f 889 782 885
f 885 782 888
f 892 889 885
f 894 892 883
f 896 894 881
f 881 894 883
f 897 896 880
f 900 897 880
f 878 900 880
f 901 900 878
f 878 875 901
f 892 885 883
f 881 880 896
f 875 878 876
f 779 780 887
f 780 890 886
f 887 780 886
f 890 891 884
f 891 893 884
f 893 882 884
f 893 895 882
f 895 898 879
f 898 899 876
f 877 898 876
f 895 879 882
f 886 890 884
f 898 877 879
f 781 779 887
f 781 782 780
f 899 898 901
f 898 900 901
f 928 929 903
f 763 765 915
f 765 916 912
f 916 919 911
f 919 920 911
f 920 922 909
f 920 909 911
f 922 924 907
f 924 926 907
f 926 928 902
f 904 926 902
f 922 907 909
f 912 916 911
f 915 765 912
f 926 904 907
f 903 927 905
f 929 927 903
f 927 925 906
f 925 923 906
f 906 923 908
f 923 921 908
f 908 921 910
f 921 918 910
f 918 917 913
f 917 766 913
f 766 767 914
f 913 766 914
f 918 913 910
f 905 927 906
f 767 763 915
f 765 763 767
f 928 926 927
f 956 955 930
f 853 855 943
f 944 853 941
f 941 853 943
f 947 944 940
f 949 947 940
f 950 949 938
f 952 950 936
f 952 936 935
f 954 952 935
f 955 954 933
f 938 949 940
f 944 941 940
f 933 930 955
f 933 954 935
f 950 938 936
f 930 933 931
f 856 858 942
f 942 858 939
f 858 945 939
f 945 946 939
f 946 948 937
f 948 951 937
f 951 953 934
f 932 953 931
f 953 956 931
f 951 934 937
f 939 946 937
f 953 932 934
f 943 855 856
f 855 853 858
f 956 953 955
f 953 954 955
f 982 983 984
f 872 874 969
f 874 970 965
f 970 973 965
f 973 974 963
f 974 976 963
f 976 978 961
f 978 980 961
f 980 982 958
f 957 958 982
f 969 874 967
f 965 967 874
f 980 958 961
f 965 973 963
f 976 961 963
f 983 981 984
f 981 979 960
f 979 977 960
f 977 975 962
f 975 972 964
f 972 971 966
f 971 871 966
f 871 870 968
f 975 964 962
f 964 972 966
f 871 968 966
f 984 981 959
f 959 981 960
f 960 977 962
f 968 870 872
f 874 872 870
f 981 983 982
f 982 980 981
f 10 617 13
f 12 15 13
f 16 13 15
f 16 15 17
f 14 17 15
f 22 23 17
f 24 17 23
f 24 23 25
f 26 25 23
f 69 27 25
f 28 25 27
f 29 27 30
f 32 30 35
f 44 41 45
f 57 64 50
f 64 52 49
f 49 284 51
f 53 63 55
f 55 63 57
f 61 58 60
f 62 61 60
f 30 27 67
f 70 71 72
f 72 71 95
f 72 75 77
f 79 76 77
f 79 80 78
f 78 80 81
f 85 82 84
f 93 92 94
f 113 90 96
f 96 98 113
f 98 100 113
f 102 104 105
f 105 106 138
f 108 109 107
f 107 111 103
f 103 112 113
f 113 112 90
f 116 110 108
f 118 114 116
f 138 137 117
f 116 120 118
f 119 115 118
f 118 121 119
f 119 122 124
f 124 123 125
f 125 126 124
f 124 128 119
f 129 127 125
f 134 133 135
f 129 133 130
f 125 136 129
f 139 142 140
f 145 147 143
f 148 146 149
f 152 151 145
f 154 19 155
f 156 154 155
f 157 160 158
f 161 158 160
f 165 164 169
f 166 169 167
f 150 166 167
f 168 167 169
f 168 148 150
f 11 171 173
f 175 172 173
f 179 177 178
f 182 180 179
f 183 184 181
f 187 186 185
f 189 188 187
f 191 190 189
f 195 196 193
f 199 197 198
f 199 200 197
f 201 200 199
f 202 203 201
f 205 203 202
f 207 204 205
f 207 208 206
f 212 210 209
f 212 211 210
f 217 215 216
f 217 218 215
f 220 218 217
f 221 222 219
f 224 223 222
f 225 226 223
f 229 227 228
f 229 230 227
f 232 230 229
f 233 231 232
f 236 235 234
f 237 238 235
f 240 239 238
f 241 239 240
f 241 242 239
f 247 249 248
f 251 250 249
f 253 613 595
f 267 268 266
f 268 271 269
f 279 612 280
f 282 609 281
f 283 285 286
f 288 287 349
f 608 288 289
f 291 292 290
f 597 607 290
f 293 291 294
f 297 296 294
f 300 299 297
f 304 303 302
f 305 306 308
f 304 307 306
f 311 308 309
f 312 309 310
f 311 314 313
f 305 313 303
f 312 315 314
f 316 317 315
f 318 319 317
f 321 320 323
f 326 327 332
f 334 331 602
f 335 334 602
f 338 341 340
f 344 341 342
f 345 597 348
f 350 596 346
f 348 350 346
f 351 373 352
f 354 355 352
f 360 357 359
f 359 361 360
f 364 361 362
f 365 363 364
f 368 366 370
f 370 371 369
f 353 372 371
f 373 372 353
f 377 375 376
f 382 378 489
f 395 382 380
f 381 382 385
f 388 386 381
f 390 386 388
f 391 387 390
f 392 393 396
f 385 394 389
f 396 397 398
f 398 400 401
f 403 402 404
f 404 405 403
f 403 407 399
f 399 408 391
f 410 406 404
f 413 409 410
f 414 411 413
f 413 417 414
f 410 415 413
f 414 418 419
f 419 594 420
f 419 412 414
f 427 430 428
f 434 582 439
f 434 437 435
f 442 438 441
f 452 2 451
f 453 452 455
f 454 455 450
f 459 457 487
f 463 460 459
f 464 469 452
f 466 465 467
f 467 468 466
f 474 473 472
f 476 475 474
f 4 475 476
f 480 479 572
f 481 478 480
f 480 483 482
f 485 484 462
f 488 486 487
f 488 457 380
f 491 490 529
f 527 496 495
f 504 503 505
f 508 507 506
f 514 515 501
f 520 519 518
f 524 526 525
f 528 164 522
f 491 529 527
f 528 170 169
f 532 498 507
f 539 538 537
f 540 541 542
f 539 570 541
f 544 542 543
f 547 543 545
f 548 545 546
f 547 551 549
f 544 549 550
f 548 552 551
f 553 554 552
f 555 556 554
f 558 557 556
f 568 567 559
f 559 562 561
f 560 566 557
f 563 565 561
f 565 564 494
f 495 566 494
f 553 546 569
f 540 550 538
f 570 534 531
f 573 470 571
f 471 575 576
f 577 576 575
f 580 581 582
f 585 586 367
f 587 588 243
f 248 243 247
f 594 424 422
f 404 416 410
f 340 599 336
f 318 604 603
f 316 310 604
f 301 605 307
f 298 606 605
f 295 607 606
f 46 280 612
f 614 162 615
f 617 615 616
f 619 618 621
f 621 622 619
f 623 624 622
f 625 624 623
f 625 627 624
f 626 628 627
f 629 628 626
f 632 635 636
f 638 639 637
f 643 641 640
f 645 642 643
f 645 644 642
f 647 644 645
f 648 646 647
f 648 651 646
f 666 664 665
f 669 667 665
f 672 671 670
f 672 673 671
f 675 673 672
f 675 677 674
f 676 678 677
f 685 680 684
f 686 683 685
f 690 688 689
f 691 693 692
f 694 693 691
f 696 697 695
f 697 698 695
f 702 699 700
f 705 701 702
f 701 705 703
f 703 706 704
f 704 706 707
f 712 714 711
f 713 716 714
f 715 718 716
f 717 720 718
f 719 722 720
f 721 724 722
f 725 724 723
f 725 728 726
f 727 663 728
f 729 659 730
f 731 730 732
f 733 732 734
f 735 734 736
f 735 738 737
f 739 738 740
f 739 742 741
f 741 744 743
f 745 744 746
f 753 749 750
f 755 752 753
f 755 754 752
f 757 754 756
f 757 760 758
f 764 761 759
f 771 768 770
f 772 770 774
f 772 774 773
f 773 774 775
f 775 777 776
f 785 786 784
f 788 784 786
f 789 787 788
f 791 787 789
f 794 790 791
f 793 794 796
f 797 795 796
f 801 804 803
f 805 804 806
f 807 806 808
f 809 808 810
f 809 812 811
f 811 814 813
f 813 816 815
f 817 816 818
f 650 817 818
f 819 652 820
f 821 819 820
f 823 822 821
f 825 824 823
f 825 828 826
f 827 830 828
f 829 832 830
f 831 834 832
f 836 834 833
f 847 844 846
f 849 848 847
f 849 851 848
f 854 851 850
f 859 861 860
f 860 861 862
f 864 863 865
f 865 863 868
f 869 866 868
f 877 880 879
f 882 880 881
f 884 885 886
f 885 887 886
f 780 889 890
f 892 890 889
f 894 891 892
f 896 893 894
f 896 895 893
f 897 895 896
f 900 895 897
f 904 903 905
f 904 906 907
f 907 908 909
f 909 910 911
f 911 913 912
f 913 915 912
f 765 766 917
f 921 920 919
f 923 920 921
f 925 922 923
f 925 926 924
f 931 933 932
f 934 936 937
f 937 936 938
f 937 940 939
f 941 942 939
f 944 945 858
f 947 945 944
f 947 946 945
f 949 946 947
f 949 948 946
f 952 953 951
f 958 960 961
f 963 964 965
f 965 966 967
f 968 967 966
f 874 871 971
f 972 970 971
f 975 974 973
f 977 974 975
f 977 978 976
f 981 978 979
f 473 1 469
f 1 2 469
f 475 1 473
f 4 3 475
f 3 1 475
f 519 5 4
f 5 3 4
f 521 5 519
f 530 6 521
f 6 5 521
f 7 6 530
f 8 6 7
f 614 8 7
f 9 8 614
f 617 9 614
f 11 9 10
f 11 10 242
f 10 9 617
f 13 617 12
f 156 155 12
f 160 156 12
f 12 616 160
f 12 14 15
f 16 10 13
f 14 18 17
f 18 22 17
f 22 26 23
f 24 16 17
f 26 69 25
f 28 24 25
f 29 28 27
f 32 31 30
f 31 29 30
f 34 33 32
f 33 31 32
f 38 39 34
f 39 33 34
f 32 35 34
f 35 36 34
f 34 36 38
f 36 37 38
f 41 40 38
f 40 39 38
f 38 37 41
f 37 47 41
f 47 45 41
f 44 42 41
f 42 40 41
f 275 43 44
f 43 42 44
f 45 274 44
f 64 49 50
f 49 52 284
f 65 54 55
f 54 53 55
f 57 56 55
f 61 59 58
f 62 48 61
f 64 57 63
f 53 52 63
f 63 52 64
f 96 54 65
f 96 65 97
f 65 66 97
f 27 69 67
f 67 35 30
f 70 68 71
f 95 74 72
f 75 72 74
f 77 75 79
f 76 78 77
f 76 79 78
f 81 82 78
f 82 81 84
f 85 83 82
f 84 88 86
f 96 90 139
f 90 91 139
f 139 91 20
f 93 21 92
f 94 95 93
f 95 94 74
f 96 97 98
f 98 101 100
f 102 103 100
f 103 113 100
f 100 101 102
f 105 107 103
f 103 102 105
f 138 108 107
f 107 105 138
f 108 110 109
f 107 109 111
f 103 111 112
f 116 114 110
f 118 115 114
f 117 116 108
f 108 138 117
f 116 117 120
f 119 128 115
f 118 120 121
f 119 121 122
f 124 122 123
f 125 127 126
f 124 126 128
f 129 130 127
f 134 132 133
f 129 136 133
f 125 123 136
f 139 141 96
f 139 140 141
f 96 141 54
f 139 20 142
f 144 142 20
f 145 143 144
f 143 142 144
f 145 146 147
f 146 148 147
f 148 149 150
f 151 150 149
f 151 149 146
f 157 158 150
f 154 157 150
f 158 166 150
f 150 151 154
f 151 146 145
f 145 144 152
f 154 153 19
f 156 157 154
f 157 156 160
f 161 159 158
f 530 163 7
f 163 162 7
f 528 169 164
f 166 165 169
f 168 150 167
f 169 170 168
f 171 148 173
f 173 172 11
f 175 174 172
f 175 176 174
f 175 178 176
f 178 177 176
f 179 180 177
f 182 181 180
f 182 183 181
f 183 185 184
f 185 186 184
f 187 188 186
f 189 190 188
f 191 192 190
f 191 194 192
f 194 193 192
f 194 195 193
f 195 198 196
f 198 197 196
f 201 203 200
f 205 204 203
f 207 206 204
f 207 209 208
f 209 210 208
f 212 213 211
f 213 214 211
f 213 216 214
f 216 215 214
f 220 219 218
f 220 221 219
f 221 224 222
f 224 225 223
f 225 228 226
f 228 227 226
f 232 231 230
f 233 234 231
f 233 236 234
f 236 237 235
f 237 240 238
f 241 171 242
f 171 11 242
f 247 243 245
f 244 245 243
f 245 246 247
f 247 246 252
f 247 252 249
f 252 251 249
f 251 253 250
f 252 246 251
f 246 254 251
f 251 254 253
f 254 255 253
f 253 255 613
f 255 256 613
f 257 595 613
f 258 257 613
f 260 259 258
f 259 257 258
f 265 259 260
f 258 261 260
f 261 262 260
f 613 256 258
f 256 261 258
f 260 262 265
f 262 263 265
f 265 263 267
f 263 264 267
f 267 266 265
f 266 259 265
f 267 264 268
f 264 278 268
f 269 266 268
f 273 272 271
f 272 269 271
f 275 274 273
f 274 272 273
f 44 274 275
f 273 276 275
f 276 43 275
f 271 277 273
f 277 276 273
f 268 278 271
f 278 277 271
f 279 270 612
f 283 609 282
f 282 285 283
f 282 610 51
f 285 282 51
f 285 51 284
f 287 609 286
f 287 288 608
f 290 289 288
f 289 600 608
f 290 288 597
f 292 289 290
f 291 293 292
f 290 295 291
f 295 294 291
f 294 295 298
f 298 297 294
f 297 298 301
f 301 300 297
f 300 301 304
f 304 302 300
f 304 305 303
f 305 304 306
f 304 301 307
f 311 305 308
f 312 311 309
f 311 312 314
f 305 311 313
f 312 316 315
f 316 318 317
f 318 603 319
f 321 319 320
f 328 326 332
f 328 329 322
f 332 333 328
f 330 328 333
f 331 330 333
f 334 330 331
f 336 335 337
f 337 338 336
f 340 336 338
f 338 342 341
f 344 343 341
f 348 346 345
f 348 349 350
f 596 351 352
f 352 373 353
f 352 353 354
f 353 371 354
f 352 355 596
f 355 356 596
f 360 358 357
f 359 362 361
f 364 363 361
f 368 377 366
f 368 375 377
f 369 374 368
f 374 375 368
f 369 368 370
f 371 374 369
f 370 354 371
f 374 371 372
f 378 377 376
f 379 378 381
f 378 382 381
f 377 378 379
f 380 382 489
f 380 579 395
f 381 383 379
f 381 385 388
f 390 387 386
f 392 390 389
f 390 388 389
f 389 394 392
f 391 408 387
f 396 391 390
f 390 392 396
f 385 395 394
f 385 382 395
f 398 399 391
f 391 396 398
f 401 403 399
f 399 398 401
f 403 401 402
f 404 406 405
f 403 405 407
f 399 407 408
f 410 409 406
f 413 411 409
f 414 412 411
f 413 415 417
f 410 416 415
f 414 417 418
f 419 418 594
f 419 420 412
f 428 426 425
f 427 592 430
f 430 429 428
f 429 430 590
f 590 431 429
f 434 580 582
f 434 436 437
f 439 438 436
f 436 434 439
f 438 439 441
f 442 440 438
f 443 444 585
f 585 444 445
f 445 444 447
f 444 446 447
f 447 446 583
f 446 578 583
f 583 448 447
f 448 449 447
f 450 448 583
f 451 448 450
f 455 451 450
f 452 451 455
f 452 469 2
f 453 464 452
f 454 453 455
f 583 454 450
f 459 458 457
f 457 488 487
f 487 463 459
f 463 462 460
f 463 485 462
f 464 472 469
f 466 461 465
f 467 456 468
f 469 472 473
f 473 474 475
f 476 518 4
f 480 478 479
f 572 571 480
f 483 480 571
f 481 480 482
f 483 462 484
f 487 486 485
f 487 485 463
f 380 489 488
f 462 483 470
f 483 571 470
f 478 481 492
f 481 490 492
f 492 490 491
f 491 493 492
f 493 517 492
f 494 493 491
f 494 491 495
f 527 522 496
f 525 526 499
f 526 514 499
f 501 499 514
f 500 499 501
f 501 502 500
f 504 500 502
f 504 502 503
f 506 504 505
f 508 509 507
f 509 510 511
f 514 516 515
f 4 518 519
f 519 520 521
f 520 163 521
f 521 163 530
f 524 523 526
f 527 528 522
f 491 527 495
f 527 529 528
f 505 508 506
f 503 502 505
f 509 532 507
f 539 540 538
f 540 539 541
f 539 537 570
f 544 540 542
f 547 544 543
f 548 547 545
f 547 548 551
f 544 547 549
f 548 553 552
f 553 555 554
f 555 558 556
f 558 560 557
f 559 558 555
f 555 568 559
f 561 560 558
f 558 559 561
f 560 494 566
f 494 560 565
f 560 561 565
f 565 563 564
f 564 493 494
f 568 555 553
f 553 569 568
f 553 548 546
f 540 544 550
f 570 536 534
f 572 573 571
f 471 574 575
f 577 477 576
f 578 454 583
f 447 449 445
f 449 584 445
f 445 584 585
f 585 584 586
f 584 244 586
f 586 244 588
f 244 243 588
f 588 587 586
f 587 367 586
f 367 443 585
f 589 587 243
f 248 589 243
f 435 437 591
f 591 590 435
f 591 431 590
f 594 593 424
f 404 402 416
f 253 595 250
f 350 351 596
f 349 597 288
f 349 348 597
f 340 598 599
f 602 337 335
f 318 316 604
f 316 312 310
f 301 298 605
f 298 295 606
f 295 290 607
f 287 608 609
f 283 286 609
f 46 611 280
f 614 7 162
f 617 614 615
f 616 12 617
f 621 623 622
f 625 626 627
f 629 630 628
f 629 631 630
f 635 638 636
f 638 637 636
f 638 640 639
f 640 641 639
f 643 642 641
f 647 646 644
f 648 649 651
f 666 659 664
f 665 667 666
f 669 668 667
f 669 670 668
f 670 671 668
f 675 674 673
f 675 676 677
f 676 679 678
f 685 683 680
f 686 687 683
f 686 689 687
f 689 688 687
f 690 692 688
f 690 691 692
f 694 657 693
f 696 783 697
f 697 700 698
f 700 699 698
f 702 701 699
f 703 705 706
f 712 713 714
f 713 715 716
f 715 717 718
f 717 719 720
f 719 721 722
f 721 723 724
f 725 726 724
f 725 727 728
f 727 664 663
f 729 661 659
f 731 729 730
f 733 731 732
f 735 733 734
f 735 736 738
f 739 737 738
f 739 740 742
f 741 742 744
f 745 743 744
f 753 751 749
f 753 752 751
f 754 755 756
f 757 758 754
f 757 759 760
f 759 761 760
f 764 762 761
f 771 769 768
f 772 771 770
f 776 773 775
f 775 778 777
f 785 873 786
f 788 787 784
f 791 790 787
f 794 792 790
f 794 793 792
f 796 795 793
f 801 802 804
f 805 803 804
f 807 805 806
f 809 807 808
f 809 810 812
f 811 812 814
f 813 814 816
f 817 815 816
f 650 649 817
f 819 651 652
f 821 822 819
f 823 824 822
f 825 826 824
f 825 827 828
f 827 829 830
f 829 831 832
f 831 833 834
f 836 835 834
f 841 839 842
f 843 841 842
f 842 845 843
f 845 844 843
f 844 845 846
f 847 848 844
f 849 850 851
f 854 852 851
f 859 857 861
f 864 860 862
f 864 862 863
f 866 865 868
f 869 867 866
f 877 876 878
f 877 878 880
f 882 879 880
f 882 881 883
f 884 882 883
f 884 883 885
f 885 888 887
f 780 782 889
f 892 891 890
f 894 893 891
f 900 898 895
f 904 902 903
f 904 905 906
f 907 906 908
f 909 908 910
f 911 910 913
f 913 914 915
f 917 916 765
f 917 918 916
f 918 919 916
f 918 921 919
f 923 922 920
f 925 924 922
f 925 927 926
f 932 933 935
f 934 932 935
f 934 935 936
f 937 938 940
f 939 940 941
f 941 943 942
f 858 853 944
f 949 950 948
f 950 951 948
f 950 952 951
f 952 954 953
f 958 984 959
f 958 959 960
f 961 960 962
f 963 961 962
f 963 962 964
f 965 964 966
f 968 969 967
f 971 970 874
f 972 973 970
f 972 975 973
f 977 976 974
f 977 979 978
f 981 980 978
