v 0.32806 0.012777 -0.022383
v 0.32806 -0.013223 -0.022383
v 0.32806 0.012777 0.025
v 0.32806 0.012777 0.043
v 0.32806 0.008777 0.025
v 0.32806 0.008777 0.0225
v 0.32806 0.008777 0.0275
v 0.32706 0.008777 0.0275
v 0.32806 0.008777 0.043
v 0.32706 0.008777 0.043
v 0.32806 0.008654 0.044481
v 0.32806 0.008289 0.045922
v 0.32706 0.008654 0.044481
v 0.32706 0.008289 0.045922
v 0.32706 0.007692 0.047284
v 0.32806 0.007692 0.047284
v 0.32706 0.006879 0.048528
v 0.32806 0.006879 0.048528
v 0.32706 0.005873 0.049622
v 0.32806 0.005873 0.049622
v 0.32706 0.0047 0.050534
v 0.32806 0.0047 0.050534
v 0.32706 0.003392 0.051242
v 0.32706 0.001986 0.051725
v 0.32806 0.003392 0.051242
v 0.32806 0.001986 0.051725
v 0.32806 -0.000223 0.051969
v 0.32706 0.00052 0.051969
v 0.32706 -0.000966 0.051969
v 0.32706 -0.002432 0.051725
v 0.32706 -0.003838 0.051242
v 0.32806 -0.002432 0.051725
v 0.32806 -0.003838 0.051242
v 0.32806 -0.005145 0.050534
v 0.32706 -0.005145 0.050534
v 0.32806 -0.006318 0.049622
v 0.32706 -0.006318 0.049622
v 0.32806 -0.007325 0.048528
v 0.32706 -0.007325 0.048528
v 0.32806 -0.008138 0.047284
v 0.32806 -0.008735 0.045922
v 0.32706 -0.008138 0.047284
v 0.32706 -0.008735 0.045922
v 0.32706 -0.0091 0.044481
v 0.32706 -0.009223 0.043
v 0.32806 -0.0091 0.044481
v 0.32806 -0.009223 0.043
v 0.32806 -0.009223 0.0275
v 0.32706 -0.009223 0.0275
v 0.32806 -0.009223 0.025
v 0.32806 -0.009223 0.0225
v 0.32806 -0.013223 0.025
v 0.32806 -0.013223 0.043
v 0.32806 -0.013046 0.04514
v 0.32806 -0.012519 0.047221
v 0.32806 -0.011656 0.049187
v 0.32806 -0.010482 0.050985
v 0.32806 -0.009028 0.052564
v 0.32806 -0.007333 0.053883
v 0.32806 -0.005445 0.054905
v 0.32806 -0.003414 0.055602
v 0.32806 -0.001296 0.055956
v 0.32806 0.000851 0.055956
v 0.32806 0.002969 0.055602
v 0.32806 0.004999 0.054905
v 0.32806 0.010036 0.050985
v 0.32806 0.008582 0.052564
v 0.32806 0.006887 0.053883
v 0.32806 0.01121 0.049187
v 0.32806 0.012073 0.047221
v 0.32806 0.0126 0.04514
v 0.32806 -0.009223 0.007
v 0.32706 -0.009223 0.0225
v 0.32706 -0.00685 0.0225
v 0.32706 -0.009223 0.007
v 0.32706 -0.008237 0.007
v 0.32706 -0.009112 0.005592
v 0.32706 -0.008782 0.004219
v 0.32806 -0.009112 0.005592
v 0.32806 -0.008782 0.004219
v 0.32806 -0.008242 0.002914
v 0.32706 -0.008242 0.002914
v 0.32806 -0.007504 0.00171
v 0.32706 -0.007504 0.00171
v 0.32806 -0.006587 0.000636
v 0.32706 -0.006587 0.000636
v 0.32806 -0.005513 -0.000281
v 0.32706 -0.005513 -0.000281
v 0.32806 -0.004309 -0.001019
v 0.32806 -0.003004 -0.00156
v 0.32706 -0.004309 -0.001019
v 0.32706 -0.003004 -0.00156
v 0.32706 -0.001631 -0.001889
v 0.32706 -0.000223 -0.002
v 0.32706 0.001185 -0.001889
v 0.32806 -0.000927 -0.0019445
v 0.32806 0.001185 -0.001889
v 0.32806 0.002558 -0.001559
v 0.32706 0.002558 -0.001559
v 0.32806 0.003863 -0.001019
v 0.32706 0.003863 -0.001019
v 0.32806 0.005067 -0.000281
v 0.32706 0.005067 -0.000281
v 0.32806 0.006141 0.000636
v 0.32806 0.007058 0.00171
v 0.32706 0.006141 0.000636
v 0.32706 0.007058 0.00171
v 0.32706 0.007796 0.002914
v 0.32706 0.008337 0.004219
v 0.32806 0.007796 0.002914
v 0.32806 0.008337 0.004219
v 0.32806 0.008666 0.005592
v 0.32806 0.008777 0.007
v 0.32706 0.008666 0.005592
v 0.32706 0.008777 0.007
v 0.32706 0.007791 0.007
v 0.32706 0.008777 0.0225
v 0.32706 0.006617 0.0225
v 0.32706 0.006617 0.023231
v 0.32706 0.003904 0.0225
v 0.32706 0.001718 0.0225
v 0.32706 0.003904 0.023231
v 0.32706 0.003919 0.02323
v 0.32706 0.003729 0.02325
v 0.32706 0.003545 0.023297
v 0.32706 0.004109 0.023234
v 0.32706 0.004297 0.023268
v 0.32706 0.004476 0.023332
v 0.32706 0.004561 0.023375
v 0.32706 0.004642 0.023426
v 0.32706 0.004718 0.023484
v 0.32706 0.004787 0.023549
v 0.32706 0.00485 0.02362
v 0.32706 0.004905 0.023698
v 0.32706 0.004951 0.023781
v 0.32706 0.004988 0.023869
v 0.32706 0.005015 0.023959
v 0.32706 0.005034 0.024054
v 0.32706 0.004516 0.024054
v 0.32706 0.004472 0.023962
v 0.32706 0.004414 0.023878
v 0.32706 0.00438 0.02384
v 0.32706 0.004342 0.023806
v 0.32706 0.004301 0.023777
v 0.32706 0.004256 0.023752
v 0.32706 0.00421 0.023733
v 0.32706 0.00416 0.023718
v 0.32706 0.004059 0.023702
v 0.32706 0.003957 0.0237
v 0.32706 0.003904 0.023703
v 0.32706 0.003904 0.024382
v 0.32706 0.003856 0.02371
v 0.32706 0.003757 0.023735
v 0.32706 0.003709 0.023754
v 0.32706 0.003664 0.023777
v 0.32706 0.003621 0.023804
v 0.32706 0.003581 0.023836
v 0.32706 0.003544 0.02387
v 0.32706 0.003509 0.023908
v 0.32706 0.003451 0.023992
v 0.32706 0.003407 0.024084
v 0.32706 0.003376 0.024181
v 0.32706 0.003355 0.024281
v 0.32706 0.003342 0.024382
v 0.32706 0.005057 0.024382
v 0.32706 0.005063 0.024542
v 0.32706 0.005054 0.024732
v 0.32706 0.005027 0.024921
v 0.32706 0.004977 0.025105
v 0.32706 0.004901 0.02528
v 0.32706 0.0048 0.025441
v 0.32706 0.004739 0.025515
v 0.32706 0.004673 0.025583
v 0.32706 0.0046 0.025644
v 0.32706 0.004521 0.025698
v 0.32706 0.004438 0.025745
v 0.32706 0.004351 0.025783
v 0.32706 0.004168 0.025836
v 0.32706 0.003979 0.025858
v 0.32706 0.003788 0.025853
v 0.32706 0.003904 0.025859
v 0.32706 0.003601 0.025818
v 0.32706 0.00351 0.025789
v 0.32706 0.003423 0.025751
v 0.32706 0.003259 0.025654
v 0.32706 0.003114 0.02553
v 0.32706 0.002992 0.025383
v 0.32706 0.002894 0.02522
v 0.32706 0.002821 0.025044
v 0.32706 0.002773 0.02486
v 0.32706 0.002749 0.024671
v 0.32706 0.002745 0.02448
v 0.32706 0.002762 0.02429
v 0.32706 0.002801 0.024104
v 0.32706 0.002865 0.023924
v 0.32706 0.002954 0.023756
v 0.32706 0.00307 0.023605
v 0.32706 0.003137 0.023537
v 0.32706 0.003209 0.023475
v 0.32706 0.003369 0.023372
v 0.32706 0.003479 0.025158
v 0.32706 0.003433 0.025077
v 0.32706 0.003538 0.025231
v 0.32706 0.003572 0.025264
v 0.32706 0.003608 0.025293
v 0.32706 0.003647 0.025319
v 0.32706 0.003688 0.025341
v 0.32706 0.003731 0.025359
v 0.32706 0.003776 0.025373
v 0.32706 0.003821 0.025382
v 0.32706 0.003868 0.025387
v 0.32706 0.003961 0.025387
v 0.32706 0.004054 0.025374
v 0.32706 0.004099 0.025361
v 0.32706 0.004143 0.025345
v 0.32706 0.004184 0.025324
v 0.32706 0.004224 0.025299
v 0.32706 0.00426 0.02527
v 0.32706 0.004293 0.025237
v 0.32706 0.004323 0.025201
v 0.32706 0.00435 0.025162
v 0.32706 0.004393 0.025079
v 0.32706 0.004425 0.024991
v 0.32706 0.004447 0.0249
v 0.32706 0.004461 0.024808
v 0.32706 0.003356 0.024808
v 0.32706 0.003373 0.0249
v 0.32706 0.003398 0.02499
v 0.32706 0.003904 0.0275
v 0.32706 0.001718 0.0275
v 0.32706 0.006617 0.0275
v 0.32706 0.006617 0.025859
v 0.32706 0.006692 0.025858
v 0.32706 0.006501 0.025853
v 0.32706 0.006314 0.025818
v 0.32706 0.006224 0.025789
v 0.32706 0.006136 0.025751
v 0.32706 0.005973 0.025654
v 0.32706 0.005828 0.02553
v 0.32706 0.005706 0.025383
v 0.32706 0.005608 0.02522
v 0.32706 0.005534 0.025044
v 0.32706 0.005486 0.02486
v 0.32706 0.005462 0.024671
v 0.32706 0.005459 0.02448
v 0.32706 0.005475 0.02429
v 0.32706 0.005514 0.024104
v 0.32706 0.005578 0.023924
v 0.32706 0.005668 0.023756
v 0.32706 0.005783 0.023605
v 0.32706 0.00585 0.023537
v 0.32706 0.005923 0.023475
v 0.32706 0.006083 0.023372
v 0.32706 0.006258 0.023297
v 0.32706 0.006443 0.02325
v 0.32706 0.006632 0.02323
v 0.32706 0.006823 0.023234
v 0.32706 0.00701 0.023268
v 0.32706 0.00719 0.023332
v 0.32706 0.007275 0.023375
v 0.32706 0.007355 0.023426
v 0.32706 0.007431 0.023484
v 0.32706 0.0075 0.023549
v 0.32706 0.007563 0.02362
v 0.32706 0.007618 0.023698
v 0.32706 0.007664 0.023781
v 0.32706 0.007702 0.023869
v 0.32706 0.007729 0.023959
v 0.32706 0.007747 0.024054
v 0.32706 0.00723 0.024054
v 0.32706 0.007185 0.023962
v 0.32706 0.007128 0.023878
v 0.32706 0.007093 0.02384
v 0.32706 0.007056 0.023806
v 0.32706 0.007015 0.023777
v 0.32706 0.00697 0.023752
v 0.32706 0.006924 0.023733
v 0.32706 0.006873 0.023718
v 0.32706 0.006773 0.023702
v 0.32706 0.006671 0.0237
v 0.32706 0.006569 0.02371
v 0.32706 0.006617 0.023703
v 0.32706 0.00647 0.023735
v 0.32706 0.006423 0.023754
v 0.32706 0.006378 0.023777
v 0.32706 0.006335 0.023804
v 0.32706 0.006294 0.023836
v 0.32706 0.006257 0.02387
v 0.32706 0.006223 0.023908
v 0.32706 0.006165 0.023992
v 0.32706 0.006121 0.024084
v 0.32706 0.006089 0.024181
v 0.32706 0.006068 0.024281
v 0.32706 0.006056 0.024382
v 0.32706 0.006617 0.024382
v 0.32706 0.00777 0.024382
v 0.32706 0.007776 0.024542
v 0.32706 0.007768 0.024732
v 0.32706 0.00774 0.024921
v 0.32706 0.00769 0.025105
v 0.32706 0.007615 0.02528
v 0.32706 0.007514 0.025441
v 0.32706 0.007453 0.025515
v 0.32706 0.007386 0.025583
v 0.32706 0.007313 0.025644
v 0.32706 0.007235 0.025698
v 0.32706 0.007152 0.025745
v 0.32706 0.007064 0.025783
v 0.32706 0.006881 0.025836
v 0.32706 0.007105 0.025079
v 0.32706 0.007137 0.024991
v 0.32706 0.007159 0.0249
v 0.32706 0.007173 0.024808
v 0.32706 0.006068 0.024808
v 0.32706 0.006085 0.0249
v 0.32706 0.00611 0.02499
v 0.32706 0.006146 0.025076
v 0.32706 0.006192 0.025157
v 0.32706 0.00625 0.025231
v 0.32706 0.006284 0.025264
v 0.32706 0.00632 0.025293
v 0.32706 0.006359 0.025319
v 0.32706 0.0064 0.025341
v 0.32706 0.006443 0.025359
v 0.32706 0.006488 0.025373
v 0.32706 0.00658 0.025387
v 0.32706 0.006673 0.025387
v 0.32706 0.006766 0.025374
v 0.32706 0.006812 0.025361
v 0.32706 0.006855 0.025345
v 0.32706 0.006897 0.025324
v 0.32706 0.006936 0.025299
v 0.32706 0.006972 0.02527
v 0.32706 0.007006 0.025237
v 0.32706 0.007035 0.025201
v 0.32706 0.007062 0.025162
v 0.32706 -0.001709 0.0275
v 0.32706 0.001718 0.025644
v 0.32706 0.001674 0.025596
v 0.32706 0.001756 0.025679
v 0.32706 0.00185 0.025749
v 0.32706 0.001603 0.025502
v 0.32706 0.001545 0.025401
v 0.32706 0.001545 0.025802
v 0.32706 0.001025 0.025802
v 0.32706 0.001025 0.023286
v 0.32706 0.001025 0.024813
v 0.32706 0.001618 0.023286
v 0.32706 0.001618 0.024656
v 0.32706 0.001624 0.024766
v 0.32706 0.00163 0.024813
v 0.32706 0.001718 0.024813
v 0.32706 0.001641 0.024873
v 0.32706 0.001675 0.024977
v 0.32706 0.001698 0.025027
v 0.32706 0.001718 0.025061
v 0.32706 0.001726 0.025074
v 0.32706 0.001759 0.025118
v 0.32706 0.001796 0.025158
v 0.32706 0.001838 0.025194
v 0.32706 0.001882 0.025226
v 0.32706 0.001929 0.025253
v 0.32706 0.001979 0.025275
v 0.32706 0.00203 0.025293
v 0.32706 0.002084 0.025305
v 0.32706 0.002193 0.025318
v 0.32706 0.002302 0.025316
v 0.32706 0.002411 0.025302
v 0.32706 0.002411 0.02583
v 0.32706 0.002401 0.025836
v 0.32706 0.00239 0.025841
v 0.32706 0.002364 0.025849
v 0.32706 0.002334 0.025854
v 0.32706 0.002298 0.025858
v 0.32706 0.002181 0.025857
v 0.32706 0.002065 0.025839
v 0.32706 0.001954 0.025803
v 0.32706 -1.2e-05 0.024813
v 0.32706 -1.2e-05 0.025332
v 0.32706 -1.2e-05 0.024055
v 0.32706 -8e-06 0.023985
v 0.32706 7e-06 0.023916
v 0.32706 1.9e-05 0.023882
v 0.32706 3.5e-05 0.023852
v 0.32706 5.5e-05 0.023822
v 0.32706 7.9e-05 0.023797
v 0.32706 0.000107 0.023776
v 0.32706 0.000138 0.023758
v 0.32706 0.00017 0.023745
v 0.32706 0.000205 0.023735
v 0.32706 0.000274 0.023726
v 0.32706 0.000345 0.023725
v 0.32706 0.000415 0.02373
v 0.32706 0.000485 0.02374
v 0.32706 0.000553 0.023758
v 0.32706 0.000553 0.023295
v 0.32706 0.000421 0.023256
v 0.32706 0.000286 0.023235
v 0.32706 0.000148 0.02323
v 0.32706 1.1e-05 0.023242
v 0.32706 -0.000122 0.023274
v 0.32706 -0.000187 0.023298
v 0.32706 -0.000248 0.023329
v 0.32706 -0.000306 0.023366
v 0.32706 -0.00036 0.023408
v 0.32706 -0.000409 0.023456
v 0.32706 -0.000453 0.023509
v 0.32706 -0.000491 0.023566
v 0.32706 -0.000524 0.023626
v 0.32706 -0.00055 0.023689
v 0.32706 -0.000571 0.023755
v 0.32706 -0.000597 0.02389
v 0.32706 -0.000605 0.024027
v 0.32706 -0.000605 0.025333
v 0.32706 -0.000948 0.025333
v 0.32706 -0.000948 0.025802
v 0.32706 -0.000605 0.025802
v 0.32706 -0.000605 0.026395
v 0.32706 -1.2e-05 0.026395
v 0.32706 -1.2e-05 0.025802
v 0.32706 0.000553 0.025802
v 0.32706 0.000553 0.025332
v 0.32706 -0.000605 0.024813
v 0.32706 -0.001414 0.024813
v 0.32706 -0.001414 0.025802
v 0.32706 -0.001414 0.023286
v 0.32706 -0.001709 0.023286
v 0.32706 -0.001709 0.0225
v 0.32706 -0.002007 0.023286
v 0.32706 -0.002007 0.025802
v 0.32706 -0.001709 0.025802
v 0.32706 -0.001709 0.02607
v 0.32706 -0.001682 0.02607
v 0.32706 -0.001737 0.02607
v 0.32706 -0.001791 0.026077
v 0.32706 -0.001844 0.02609
v 0.32706 -0.001894 0.026112
v 0.32706 -0.001917 0.026126
v 0.32706 -0.001939 0.026142
v 0.32706 -0.001979 0.02618
v 0.32706 -0.001996 0.026202
v 0.32706 -0.002011 0.026224
v 0.32706 -0.002035 0.026273
v 0.32706 -0.002051 0.026326
v 0.32706 -0.002059 0.02638
v 0.32706 -0.00206 0.026434
v 0.32706 -0.002056 0.026489
v 0.32706 -0.002044 0.026542
v 0.32706 -0.002024 0.026593
v 0.32706 -0.002011 0.026617
v 0.32706 -0.001996 0.02664
v 0.32706 -0.00196 0.026681
v 0.32706 -0.001939 0.026699
v 0.32706 -0.001917 0.026715
v 0.32706 -0.001894 0.026729
v 0.32706 -0.001869 0.026741
v 0.32706 -0.001818 0.026759
v 0.32706 -0.001764 0.026768
v 0.32706 -0.001709 0.026772
v 0.32706 -0.001655 0.026768
v 0.32706 -0.001601 0.026759
v 0.32706 -0.00155 0.026741
v 0.32706 -0.001525 0.026729
v 0.32706 -0.001502 0.026715
v 0.32706 -0.00148 0.026699
v 0.32706 -0.001459 0.026681
v 0.32706 -0.001423 0.02664
v 0.32706 -0.001408 0.026617
v 0.32706 -0.001395 0.026593
v 0.32706 -0.001375 0.026542
v 0.32706 -0.001363 0.026489
v 0.32706 -0.001359 0.026434
v 0.32706 -0.00136 0.02638
v 0.32706 -0.001368 0.026326
v 0.32706 -0.001384 0.026273
v 0.32706 -0.001408 0.026224
v 0.32706 -0.001423 0.026202
v 0.32706 -0.00144 0.02618
v 0.32706 -0.00148 0.026142
v 0.32706 -0.001502 0.026126
v 0.32706 -0.001525 0.026112
v 0.32706 -0.001575 0.02609
v 0.32706 -0.001628 0.026077
v 0.32706 -0.003747 0.0225
v 0.32706 -0.003747 0.025359
v 0.32706 -0.003704 0.025361
v 0.32706 -0.003795 0.025354
v 0.32706 -0.003885 0.025336
v 0.32706 -0.00397 0.025303
v 0.32706 -0.00401 0.025281
v 0.32706 -0.004048 0.025256
v 0.32706 -0.004084 0.025227
v 0.32706 -0.004117 0.025195
v 0.32706 -0.004174 0.025124
v 0.32706 -0.004218 0.025044
v 0.32706 -0.004251 0.024958
v 0.32706 -0.004272 0.024869
v 0.32706 -0.004284 0.024778
v 0.32706 -0.004287 0.024687
v 0.32706 -0.004287 0.023288
v 0.32706 -0.00488 0.023288
v 0.32706 -0.00488 0.025802
v 0.32706 -0.004346 0.025802
v 0.32706 -0.004344 0.025426
v 0.32706 -0.004252 0.025548
v 0.32706 -0.004141 0.025653
v 0.32706 -0.004079 0.025698
v 0.32706 -0.004014 0.025737
v 0.32706 -0.003873 0.025798
v 0.32706 -0.003747 0.025833
v 0.32706 -0.003725 0.025837
v 0.32706 -0.003747 0.0275
v 0.32706 -0.00685 0.0275
v 0.32706 -0.00685 0.023752
v 0.32706 -0.00681 0.023754
v 0.32706 -0.00693 0.023754
v 0.32706 -0.00705 0.023766
v 0.32706 -0.007166 0.023795
v 0.32706 -0.007223 0.023816
v 0.32706 -0.007277 0.023842
v 0.32706 -0.007328 0.023873
v 0.32706 -0.007376 0.023909
v 0.32706 -0.00742 0.02395
v 0.32706 -0.007459 0.023995
v 0.32706 -0.007494 0.024044
v 0.32706 -0.007524 0.024096
v 0.32706 -0.007571 0.024207
v 0.32706 -0.007601 0.024323
v 0.32706 -0.007617 0.024442
v 0.32706 -0.007622 0.024562
v 0.32706 -0.007622 0.026677
v 0.32706 -0.008222 0.026677
v 0.32706 -0.008222 0.024513
v 0.32706 -0.008209 0.024301
v 0.32706 -0.0081485 0.024043
v 0.32706 -0.008088 0.023896
v 0.32706 -0.008036 0.023803
v 0.32706 -0.007977 0.023716
v 0.32706 -0.007908 0.023634
v 0.32706 -0.007833 0.02356
v 0.32706 -0.007751 0.023494
v 0.32706 -0.007662 0.023434
v 0.32706 -0.007472 0.023341
v 0.32706 -0.007269 0.023278
v 0.32706 -0.00706 0.023243
v 0.32706 -0.006848 0.023232
v 0.32706 -0.006636 0.023243
v 0.32706 -0.006427 0.023278
v 0.32706 -0.006225 0.023342
v 0.32706 -0.006035 0.023436
v 0.32706 -0.005947 0.023495
v 0.32706 -0.005865 0.023561
v 0.32706 -0.005789 0.023635
v 0.32706 -0.005721 0.023717
v 0.32706 -0.005662 0.023804
v 0.32706 -0.00561 0.023897
v 0.32706 -0.005567 0.023993
v 0.32706 -0.005533 0.024094
v 0.32706 -0.00549 0.024301
v 0.32706 -0.005477 0.024513
v 0.32706 -0.005477 0.026677
v 0.32706 -0.006119 0.026677
v 0.32706 -0.006119 0.024562
v 0.32706 -0.006124 0.024442
v 0.32706 -0.00614 0.024323
v 0.32706 -0.00617 0.024207
v 0.32706 -0.006216 0.024096
v 0.32706 -0.006246 0.024043
v 0.32706 -0.006281 0.023995
v 0.32706 -0.00632 0.02395
v 0.32706 -0.006364 0.023909
v 0.32706 -0.006412 0.023873
v 0.32706 -0.006464 0.023842
v 0.32706 -0.006517 0.023816
v 0.32706 -0.006574 0.023795
v 0.32706 -0.006691 0.023766
v 0.32706 -0.00685 0.023232
v 0.32706 -0.003574 0.025856
v 0.32706 -0.003421 0.025858
v 0.32706 -0.003269 0.025842
v 0.32706 -0.003193 0.025824
v 0.32706 -0.003121 0.025801
v 0.32706 -0.003051 0.02577
v 0.32706 -0.002984 0.025733
v 0.32706 -0.002922 0.025689
v 0.32706 -0.002864 0.025639
v 0.32706 -0.002812 0.025583
v 0.32706 -0.002766 0.025522
v 0.32706 -0.002727 0.025457
v 0.32706 -0.002693 0.025387
v 0.32706 -0.002646 0.025242
v 0.32706 -0.002621 0.025091
v 0.32706 -0.002613 0.024938
v 0.32706 -0.002613 0.023286
v 0.32706 -0.003206 0.023286
v 0.32706 -0.003206 0.024845
v 0.32706 -0.003211 0.024937
v 0.32706 -0.003225 0.025027
v 0.32706 -0.003253 0.025114
v 0.32706 -0.003273 0.025156
v 0.32706 -0.003297 0.025194
v 0.32706 -0.003326 0.02523
v 0.32706 -0.003359 0.025261
v 0.32706 -0.003396 0.025288
v 0.32706 -0.003436 0.02531
v 0.32706 -0.003477 0.025328
v 0.32706 -0.003522 0.025341
v 0.32706 -0.003612 0.025357
v 0.32706 0.007693 0.005748
v 0.32706 0.007692 0.008255
v 0.32706 0.007398 0.009479
v 0.32706 0.006915 0.010642
v 0.32706 0.006257 0.011715
v 0.32706 0.005438 0.012672
v 0.32706 0.00448 0.013489
v 0.32706 0.002824 0.014385
v 0.32706 0.001017 0.014917
v 0.32706 -0.000238 0.015014
v 0.32706 -0.001557 0.014902
v 0.32706 -0.00284 0.014575
v 0.32706 -0.004051 0.014041
v 0.32706 -0.005157 0.013315
v 0.32706 -0.006129 0.012416
v 0.32706 -0.00694 0.01137
v 0.32706 -0.007568 0.010205
v 0.32706 -0.007995 0.008952
v 0.32706 -0.008211 0.007647
v 0.32706 -0.008208 0.006323
v 0.32706 -0.007988 0.005018
v 0.32706 -0.007556 0.003767
v 0.32706 -0.006924 0.002604
v 0.32706 -0.006109 0.001561
v 0.32706 -0.005133 0.000666
v 0.32706 -0.004024 -5.5e-05
v 0.32706 -0.002811 -0.000585
v 0.32706 -0.001527 -0.000907
v 0.32706 -0.000208 -0.001014
v 0.32706 0.001044 -0.000913
v 0.32706 0.002265 -0.000618
v 0.32706 0.003425 -0.000136
v 0.32706 0.004495 0.000522
v 0.32706 0.005449 0.001339
v 0.32706 0.006264 0.002295
v 0.32706 0.00692 0.003366
v 0.32706 0.0074 0.004526
v 0.32706 -0.008237 0.043
v 0.32706 -0.008208 0.042323
v 0.32706 -0.008211 0.043647
v 0.32706 -0.007995 0.044952
v 0.32456 -0.008211 0.043647
v 0.32456 -0.008208 0.042323
v 0.32456 -0.007995 0.044952
v 0.32456 -0.007568 0.046205
v 0.32706 -0.007568 0.046205
v 0.32456 -0.00694 0.04737
v 0.32706 -0.00694 0.04737
v 0.32456 -0.006129 0.048416
v 0.32706 -0.006129 0.048416
v 0.32456 -0.005157 0.049315
v 0.32456 -0.004051 0.050041
v 0.32706 -0.005157 0.049315
v 0.32706 -0.004051 0.050041
v 0.32706 -0.00284 0.050575
v 0.32706 -0.001557 0.050902
v 0.32456 -0.00284 0.050575
v 0.32456 -0.001557 0.050902
v 0.32456 -0.000238 0.051014
v 0.32456 0.001017 0.050917
v 0.32706 0.0003895 0.050965
v 0.32706 0.002242 0.050625
v 0.32456 0.002242 0.050625
v 0.32706 0.003406 0.050145
v 0.32706 0.00448 0.049489
v 0.32456 0.003406 0.050145
v 0.32456 0.00448 0.049489
v 0.32456 0.005438 0.048672
v 0.32706 0.005438 0.048672
v 0.32456 0.006257 0.047715
v 0.32456 0.006915 0.046642
v 0.32706 0.006257 0.047715
v 0.32706 0.006915 0.046642
v 0.32706 0.007398 0.045479
v 0.32706 0.007692 0.044255
v 0.32456 0.007398 0.045479
v 0.32456 0.007692 0.044255
v 0.32456 0.007791 0.043
v 0.32456 0.007693 0.041748
v 0.32706 0.007791 0.043
v 0.32706 0.007693 0.041748
v 0.32706 0.0074 0.040526
v 0.32456 0.0074 0.040526
v 0.32706 0.00692 0.039366
v 0.32456 0.00692 0.039366
v 0.32706 0.006264 0.038295
v 0.32456 0.006264 0.038295
v 0.32706 0.005449 0.037339
v 0.32456 0.005449 0.037339
v 0.32706 0.004495 0.036522
v 0.32456 0.004495 0.036522
v 0.32706 0.003425 0.035864
v 0.32456 0.003425 0.035864
v 0.32706 0.002265 0.035382
v 0.32456 0.002265 0.035382
v 0.32706 0.001044 0.035087
v 0.32456 0.001044 0.035087
v 0.32706 -0.000208 0.034986
v 0.32456 -0.000208 0.034986
v 0.32706 -0.001527 0.035093
v 0.32456 -0.001527 0.035093
v 0.32706 -0.002811 0.035415
v 0.32456 -0.002811 0.035415
v 0.32706 -0.004024 0.035945
v 0.32456 -0.004024 0.035945
v 0.32706 -0.005133 0.036666
v 0.32456 -0.005133 0.036666
v 0.32706 -0.006109 0.037561
v 0.32706 -0.006924 0.038604
v 0.32456 -0.006109 0.037561
v 0.32456 -0.006924 0.038604
v 0.32456 -0.007556 0.039767
v 0.32456 -0.007988 0.041018
v 0.32706 -0.007556 0.039767
v 0.32706 -0.007988 0.041018
v 0.32656 -0.004588 0.043
v 0.32656 -0.004529 0.042284
v 0.32656 -0.004529 0.043716
v 0.32656 -0.004353 0.041588
v 0.32656 -0.004064 0.04093
v 0.32656 -0.003671 0.040328
v 0.32656 -0.003184 0.0398
v 0.32656 -0.002618 0.039358
v 0.32656 -0.001986 0.039016
v 0.32656 -0.001306 0.038783
v 0.32656 -0.000598 0.038665
v 0.32656 0.000121 0.038665
v 0.32656 0.00083 0.038783
v 0.32656 0.001509 0.039016
v 0.32656 0.002141 0.039358
v 0.32656 0.002708 0.0398
v 0.32656 0.003194 0.040328
v 0.32656 0.003587 0.04093
v 0.32656 0.003876 0.041588
v 0.32656 0.004052 0.042284
v 0.32656 0.004112 0.043
v 0.32656 0.004052 0.043716
v 0.32656 0.003876 0.044412
v 0.32656 0.003587 0.04507
v 0.32656 0.003194 0.045672
v 0.32656 0.002708 0.0462
v 0.32656 0.002141 0.046642
v 0.32656 0.001509 0.046984
v 0.32656 0.00083 0.047217
v 0.32656 0.000121 0.047335
v 0.32656 -0.000598 0.047335
v 0.32656 -0.001306 0.047217
v 0.32656 -0.001986 0.046984
v 0.32656 -0.002618 0.046642
v 0.32656 -0.003184 0.0462
v 0.32656 -0.003671 0.045672
v 0.32656 -0.004064 0.04507
v 0.32656 -0.004353 0.044412
v 0.32656 -0.004988 0.043
v 0.32656 -0.004924 0.043782
v 0.32656 -0.004924 0.042218
v 0.32706 -0.00617 0.043
v 0.32706 -0.006089 0.042024
v 0.32706 -0.006182 0.043
v 0.32706 -0.006089 0.043976
v 0.32706 -0.005848 0.044926
v 0.32706 -0.006101 0.043978
v 0.32706 -0.00586 0.04493
v 0.32706 -0.006114 0.04398
v 0.32706 -0.006195 0.043
v 0.32706 -0.006127 0.043983
v 0.32706 -0.005872 0.044934
v 0.32706 -0.005885 0.044938
v 0.32706 -0.005477 0.045835
v 0.32706 -0.005466 0.045829
v 0.32706 -0.005489 0.045841
v 0.32706 -0.004939 0.046659
v 0.32706 -0.004949 0.046667
v 0.32706 -0.004929 0.046651
v 0.32706 -0.004273 0.047383
v 0.32706 -0.004282 0.047392
v 0.32706 -0.003496 0.047987
v 0.32706 -0.004264 0.047373
v 0.32706 -0.004256 0.047364
v 0.32706 -0.003489 0.047976
v 0.32706 -0.003483 0.047966
v 0.32706 -0.002626 0.048443
v 0.32706 -0.002621 0.048432
v 0.32706 -0.001697 0.048762
v 0.32706 -0.002631 0.048455
v 0.32706 -0.002636 0.048467
v 0.32706 -0.001701 0.048775
v 0.32706 -0.00073 0.048937
v 0.32706 -0.001704 0.048787
v 0.32706 -0.000731 0.04895
v 0.32706 0.000255 0.04895
v 0.32706 0.000254 0.048937
v 0.32706 0.001227 0.048787
v 0.32706 0.00216 0.048467
v 0.32706 0.001224 0.048775
v 0.32706 0.001221 0.048762
v 0.32706 0.002155 0.048455
v 0.32706 0.002149 0.048443
v 0.32706 0.00302 0.047987
v 0.32706 0.003027 0.047998
v 0.32706 0.003796 0.047383
v 0.32706 0.003013 0.047976
v 0.32706 0.003787 0.047373
v 0.32706 0.003006 0.047966
v 0.32656 0.00236 0.046977
v 0.32706 0.002144 0.048432
v 0.32706 0.003779 0.047364
v 0.32706 0.004443 0.046643
v 0.32656 0.002979 0.046495
v 0.32656 0.00351 0.045918
v 0.32656 0.00167 0.04735
v 0.32656 0.000928 0.047605
v 0.32656 0.000154 0.047734
v 0.32706 0.001218 0.04875
v 0.32706 0.000252 0.048911
v 0.32706 0.000253 0.048924
v 0.32706 -0.000728 0.048911
v 0.32656 -0.000631 0.047734
v 0.32706 -0.001694 0.04875
v 0.32706 -0.000729 0.048924
v 0.32656 -0.001404 0.047605
v 0.32656 -0.002146 0.04735
v 0.32656 -0.002836 0.046977
v 0.32656 -0.003455 0.046495
v 0.32656 -0.003987 0.045918
v 0.32656 -0.004416 0.045261
v 0.32706 -0.004919 0.046643
v 0.32706 -0.005455 0.045823
v 0.32656 -0.004731 0.044542
v 0.32656 0.003939 0.045261
v 0.32656 0.004254 0.044542
v 0.32706 0.004978 0.045823
v 0.32706 0.004989 0.045829
v 0.32706 0.005372 0.044926
v 0.32706 0.005612 0.043976
v 0.32706 0.005384 0.04493
v 0.32706 0.005396 0.044934
v 0.32706 0.005625 0.043978
v 0.32706 0.005637 0.04398
v 0.32706 0.005706 0.043
v 0.32706 0.005693 0.043
v 0.32706 0.005625 0.042022
v 0.32706 0.005719 0.043
v 0.32706 0.005732 0.043
v 0.32706 0.005637 0.04202
v 0.32706 0.005396 0.041066
v 0.32706 0.00565 0.042017
v 0.32706 0.005408 0.041062
v 0.32706 0.005012 0.040159
v 0.32706 0.004473 0.039333
v 0.32706 0.005001 0.040165
v 0.32706 0.004989 0.040171
v 0.32706 0.004463 0.039341
v 0.32706 0.004452 0.039349
v 0.32706 0.003796 0.038617
v 0.32706 0.003805 0.038608
v 0.32706 0.003787 0.038627
v 0.32706 0.00302 0.038013
v 0.32706 0.003027 0.038002
v 0.32706 0.002155 0.037545
v 0.32706 0.003013 0.038024
v 0.32706 0.002149 0.037557
v 0.32706 0.003006 0.038034
v 0.32706 0.003779 0.038636
v 0.32706 0.002144 0.037568
v 0.32656 0.00236 0.039023
v 0.32656 0.00167 0.03865
v 0.32656 0.002979 0.039505
v 0.32656 0.00351 0.040082
v 0.32656 0.003939 0.040739
v 0.32706 0.004443 0.039357
v 0.32706 0.004978 0.040177
v 0.32706 0.005372 0.041074
v 0.32706 0.005384 0.04107
v 0.32706 0.005612 0.042024
v 0.32656 0.004254 0.041458
v 0.32656 0.004447 0.042218
v 0.32656 0.004512 0.043
v 0.32656 0.004447 0.043782
v 0.32656 0.000928 0.038395
v 0.32706 0.001218 0.03725
v 0.32656 0.000154 0.038266
v 0.32706 0.000252 0.037089
v 0.32656 -0.000631 0.038266
v 0.32706 -0.000728 0.037089
v 0.32656 -0.001404 0.038395
v 0.32656 -0.002146 0.03865
v 0.32656 -0.002836 0.039023
v 0.32706 -0.002621 0.037568
v 0.32706 -0.002626 0.037557
v 0.32706 -0.001694 0.03725
v 0.32706 -0.003483 0.038034
v 0.32706 -0.004256 0.038636
v 0.32706 -0.003489 0.038024
v 0.32706 -0.004264 0.038627
v 0.32706 -0.003496 0.038013
v 0.32706 -0.004273 0.038617
v 0.32706 -0.002631 0.037545
v 0.32706 -0.003504 0.038002
v 0.32706 -0.002636 0.037533
v 0.32706 -0.004282 0.038608
v 0.32706 -0.004949 0.039333
v 0.32706 -0.005489 0.040159
v 0.32706 -0.004939 0.039341
v 0.32706 -0.004929 0.039349
v 0.32706 -0.005477 0.040165
v 0.32706 -0.005466 0.040171
v 0.32706 -0.005872 0.041066
v 0.32706 -0.00586 0.04107
v 0.32706 -0.006114 0.04202
v 0.32706 -0.005885 0.041062
v 0.32706 -0.006127 0.042017
v 0.32706 -0.006208 0.043
v 0.32706 -0.007138 0.043
v 0.32706 -0.007044 0.044136
v 0.32706 -0.007044 0.041864
v 0.32706 -0.007154 0.043
v 0.32706 -0.00706 0.041862
v 0.32706 -0.007169 0.043
v 0.32706 -0.00706 0.044138
v 0.32706 -0.007075 0.044141
v 0.32706 -0.006779 0.045245
v 0.32706 -0.00632 0.046291
v 0.32706 -0.006764 0.04524
v 0.32706 -0.006794 0.04525
v 0.32706 -0.006334 0.046299
v 0.32705 -0.006807 0.045255
v 0.32705 -0.007089 0.044143
v 0.32704 -0.00682 0.04526
v 0.32705 -0.006347 0.046306
v 0.32704 -0.006358 0.046312
v 0.32705 -0.005719 0.047266
v 0.32706 -0.005708 0.047257
v 0.32704 -0.00573 0.047274
v 0.32705 -0.004942 0.04811
v 0.32705 -0.004037 0.048814
v 0.32704 -0.004951 0.04812
v 0.32706 -0.004932 0.048099
v 0.32706 -0.004029 0.048802
v 0.32706 -0.004922 0.048088
v 0.32706 -0.004912 0.048076
v 0.32706 -0.005696 0.047248
v 0.32706 -0.004021 0.04879
v 0.32706 -0.003016 0.049333
v 0.32706 -0.004012 0.048776
v 0.32706 -0.00301 0.049319
v 0.32706 -0.001932 0.049689
v 0.32706 -0.000808 0.049876
v 0.32706 -0.001936 0.049704
v 0.32706 -0.00194 0.049719
v 0.32706 -0.000809 0.049892
v 0.32706 0.000333 0.049892
v 0.32706 -0.000811 0.049907
v 0.32705 -0.000812 0.049922
v 0.32706 0.000334 0.049907
v 0.32705 0.000335 0.049922
v 0.32706 0.001463 0.049719
v 0.32706 0.002546 0.049347
v 0.32706 0.001459 0.049704
v 0.32705 0.001467 0.049733
v 0.32704 0.00147 0.049746
v 0.32705 0.002552 0.04936
v 0.32704 0.002557 0.049373
v 0.32705 0.00356 0.048814
v 0.32705 0.004466 0.04811
v 0.32704 0.003568 0.048826
v 0.32706 0.003553 0.048802
v 0.32706 0.004456 0.048099
v 0.32706 0.003544 0.04879
v 0.32706 0.004446 0.048088
v 0.32706 0.00254 0.049333
v 0.32706 0.003536 0.048776
v 0.32706 0.004435 0.048076
v 0.32706 0.002533 0.049319
v 0.32706 0.001456 0.049689
v 0.32706 0.000332 0.049876
v 0.32706 0.005207 0.047238
v 0.32706 0.00583 0.046284
v 0.32706 0.005219 0.047248
v 0.32706 0.005844 0.046291
v 0.32706 0.005231 0.047257
v 0.32706 0.005857 0.046299
v 0.32705 0.005243 0.047266
v 0.32704 0.005253 0.047274
v 0.32705 0.00587 0.046306
v 0.32704 0.005882 0.046312
v 0.32705 0.006331 0.045255
v 0.32705 0.006612 0.044143
v 0.32704 0.006343 0.04526
v 0.32706 0.006317 0.04525
v 0.32706 0.006598 0.044141
v 0.32706 0.006303 0.045245
v 0.32706 0.006583 0.044138
v 0.32706 0.006288 0.04524
v 0.32706 0.006568 0.044136
v 0.32706 0.006662 0.043
v 0.32706 0.006568 0.041864
v 0.32706 0.006677 0.043
v 0.32706 0.006693 0.043
v 0.32706 0.006583 0.041862
v 0.32706 0.006303 0.040755
v 0.32706 0.006598 0.041859
v 0.32705 0.006612 0.041857
v 0.32706 0.006317 0.04075
v 0.32706 0.005857 0.039701
v 0.32705 0.006331 0.040745
v 0.32705 0.00587 0.039694
v 0.32704 0.006343 0.04074
v 0.32704 0.006626 0.041855
v 0.32704 0.005882 0.039688
v 0.32704 0.006355 0.040737
v 0.32704 0.005892 0.039682
v 0.32702 0.006364 0.040733
v 0.32704 0.006637 0.041853
v 0.32702 0.006647 0.041851
v 0.32704 0.006732 0.043
v 0.32704 0.00672 0.043
v 0.32704 0.006637 0.044147
v 0.32702 0.006743 0.043
v 0.32702 0.006647 0.044149
v 0.32701 0.006751 0.043
v 0.32701 0.006655 0.04415
v 0.32699 0.006757 0.043
v 0.32701 0.006655 0.04185
v 0.32699 0.006661 0.041849
v 0.32701 0.006372 0.040731
v 0.32701 0.005908 0.039674
v 0.32699 0.006378 0.040729
v 0.32698 0.006381 0.040728
v 0.32699 0.005914 0.039671
v 0.32698 0.005917 0.039669
v 0.32699 0.005282 0.038704
v 0.32698 0.005285 0.038701
v 0.32701 0.005277 0.038707
v 0.32699 0.004499 0.037854
v 0.32699 0.003588 0.037144
v 0.32698 0.004502 0.037851
v 0.32701 0.004495 0.037858
v 0.32701 0.003584 0.037149
v 0.32702 0.00449 0.037864
v 0.32702 0.00358 0.037156
v 0.32702 0.005271 0.038712
v 0.32704 0.004483 0.037871
v 0.32704 0.003574 0.037164
v 0.32704 0.005263 0.038719
v 0.32704 0.004475 0.03788
v 0.32704 0.003568 0.037174
v 0.32704 0.005253 0.038726
v 0.32705 0.004466 0.03789
v 0.32705 0.00356 0.037186
v 0.32706 0.004456 0.037901
v 0.32705 0.005243 0.038734
v 0.32706 0.005231 0.038743
v 0.32706 0.005219 0.038752
v 0.32706 0.005844 0.039709
v 0.32706 0.004446 0.037912
v 0.32706 0.005207 0.038762
v 0.32706 0.004435 0.037924
v 0.32706 0.00583 0.039716
v 0.32706 0.006288 0.04076
v 0.32706 0.003536 0.037224
v 0.32706 0.003544 0.03721
v 0.32706 0.002533 0.036681
v 0.32706 0.001456 0.036311
v 0.32706 0.00254 0.036667
v 0.32706 0.002546 0.036653
v 0.32706 0.001459 0.036296
v 0.32706 0.000333 0.036108
v 0.32706 0.001463 0.036281
v 0.32706 0.000334 0.036093
v 0.32705 0.001467 0.036267
v 0.32705 0.000335 0.036078
v 0.32704 0.00147 0.036254
v 0.32705 0.002552 0.03664
v 0.32704 0.002557 0.036627
v 0.32704 0.002562 0.036616
v 0.32702 0.002566 0.036607
v 0.32704 0.001473 0.036243
v 0.32704 0.000337 0.036053
v 0.32702 0.001475 0.036233
v 0.32702 0.000338 0.036043
v 0.32701 0.001477 0.036225
v 0.32701 0.000339 0.036035
v 0.32699 0.001479 0.036219
v 0.32701 0.002569 0.0366
v 0.32699 0.002572 0.036594
v 0.32698 0.002573 0.036591
v 0.32698 0.00359 0.037141
v 0.32698 0.00148 0.036215
v 0.32696 0.002574 0.03659
v 0.32256 0.002574 0.03659
v 0.32696 0.00359 0.03714
v 0.32696 0.00148 0.036214
v 0.32256 0.00148 0.036214
v 0.32696 0.00034 0.036024
v 0.32256 0.00034 0.036024
v 0.32698 0.00034 0.036025
v 0.32696 -0.000816 0.036024
v 0.32256 -0.000816 0.036024
v 0.32696 -0.001957 0.036214
v 0.32698 -0.000816 0.036025
v 0.32699 -0.000816 0.036029
v 0.32698 -0.001956 0.036215
v 0.32699 -0.001955 0.036219
v 0.32698 -0.00305 0.036591
v 0.32699 -0.003048 0.036594
v 0.32698 -0.004066 0.037141
v 0.32696 -0.00305 0.03659
v 0.32256 -0.00305 0.03659
v 0.32696 -0.004067 0.03714
v 0.32256 -0.004067 0.03714
v 0.32696 -0.004979 0.03785
v 0.32256 -0.004979 0.03785
v 0.32696 -0.005762 0.038701
v 0.32698 -0.004978 0.037851
v 0.32699 -0.004976 0.037854
v 0.32698 -0.005761 0.038701
v 0.32699 -0.005758 0.038704
v 0.32698 -0.006394 0.039669
v 0.32699 -0.00639 0.039671
v 0.32698 -0.006858 0.040728
v 0.32696 -0.006395 0.039668
v 0.32696 -0.006859 0.040727
v 0.32256 -0.006395 0.039668
v 0.32256 -0.005762 0.038701
v 0.32256 -0.006859 0.040727
v 0.32256 -0.007143 0.041848
v 0.32256 -0.007238 0.043
v 0.32696 -0.007143 0.041848
v 0.32696 -0.007238 0.043
v 0.32698 -0.007142 0.041848
v 0.32699 -0.007138 0.041849
v 0.32698 -0.007237 0.043
v 0.32699 -0.007233 0.043
v 0.32698 -0.007142 0.044152
v 0.32696 -0.007143 0.044152
v 0.32698 -0.006858 0.045272
v 0.32699 -0.007138 0.044151
v 0.32699 -0.006854 0.045271
v 0.32701 -0.007132 0.04415
v 0.32701 -0.006849 0.045269
v 0.32702 -0.007124 0.044149
v 0.32701 -0.007227 0.043
v 0.32702 -0.007219 0.043
v 0.32701 -0.007132 0.04185
v 0.32701 -0.006849 0.040731
v 0.32702 -0.007124 0.041851
v 0.32704 -0.007114 0.041853
v 0.32702 -0.006841 0.040733
v 0.32702 -0.006378 0.039677
v 0.32704 -0.006831 0.040737
v 0.32704 -0.006369 0.039682
v 0.32704 -0.00682 0.04074
v 0.32704 -0.007102 0.041855
v 0.32704 -0.006358 0.039688
v 0.32705 -0.006807 0.040745
v 0.32705 -0.007089 0.041857
v 0.32706 -0.006794 0.04075
v 0.32705 -0.006347 0.039694
v 0.32705 -0.005719 0.038734
v 0.32706 -0.006334 0.039701
v 0.32706 -0.00632 0.039709
v 0.32706 -0.005708 0.038743
v 0.32706 -0.005696 0.038752
v 0.32706 -0.004932 0.037901
v 0.32705 -0.004942 0.03789
v 0.32706 -0.004922 0.037912
v 0.32706 -0.004029 0.037198
v 0.32705 -0.004037 0.037186
v 0.32706 -0.004021 0.03721
v 0.32706 -0.003022 0.036653
v 0.32705 -0.003028 0.03664
v 0.32706 -0.00194 0.036281
v 0.32706 -0.003016 0.036667
v 0.32706 -0.00301 0.036681
v 0.32706 -0.001936 0.036296
v 0.32706 -0.001932 0.036311
v 0.32706 -0.000809 0.036108
v 0.32706 -0.000808 0.036124
v 0.32706 -0.000811 0.036093
v 0.32705 -0.000812 0.036078
v 0.32705 -0.001943 0.036267
v 0.32704 -0.000813 0.036065
v 0.32704 -0.001947 0.036254
v 0.32704 -0.000814 0.036053
v 0.32704 0.000336 0.036065
v 0.32704 -0.00195 0.036243
v 0.32702 -0.000815 0.036043
v 0.32702 -0.001952 0.036233
v 0.32701 -0.000815 0.036035
v 0.32701 -0.001954 0.036225
v 0.32701 -0.003046 0.0366
v 0.32701 -0.004061 0.037149
v 0.32702 -0.003042 0.036607
v 0.32702 -0.004056 0.037156
v 0.32704 -0.003038 0.036616
v 0.32704 -0.004051 0.037164
v 0.32704 -0.003034 0.036627
v 0.32704 -0.004044 0.037174
v 0.32704 -0.004951 0.03788
v 0.32704 -0.00573 0.038726
v 0.32704 -0.004959 0.037871
v 0.32704 -0.005739 0.038719
v 0.32702 -0.004966 0.037864
v 0.32702 -0.005747 0.038712
v 0.32701 -0.004972 0.037858
v 0.32701 -0.005754 0.038707
v 0.32701 -0.006385 0.039674
v 0.32699 -0.004064 0.037144
v 0.32706 0.000332 0.036124
v 0.32706 -0.004012 0.037224
v 0.32706 -0.004912 0.037924
v 0.32706 -0.005683 0.038762
v 0.32706 -0.006307 0.039716
v 0.32706 -0.006764 0.04076
v 0.32706 -0.006779 0.040755
v 0.32706 -0.007075 0.041859
v 0.32705 -0.007184 0.043
v 0.32704 -0.007197 0.043
v 0.32704 -0.007102 0.044145
v 0.32704 -0.007209 0.043
v 0.32704 -0.007114 0.044147
v 0.32704 -0.006831 0.045263
v 0.32704 -0.006369 0.046318
v 0.32702 -0.006841 0.045267
v 0.32702 -0.006378 0.046323
v 0.32701 -0.006385 0.046326
v 0.32702 -0.005747 0.047288
v 0.32702 -0.004966 0.048136
v 0.32701 -0.005754 0.047293
v 0.32704 -0.005739 0.047281
v 0.32704 -0.004959 0.048129
v 0.32704 -0.004051 0.048836
v 0.32704 -0.003038 0.049384
v 0.32702 -0.004056 0.048844
v 0.32704 -0.004044 0.048826
v 0.32704 -0.003034 0.049373
v 0.32704 -0.001947 0.049746
v 0.32705 -0.003028 0.04936
v 0.32705 -0.001943 0.049733
v 0.32706 -0.003022 0.049347
v 0.32704 -0.000813 0.049935
v 0.32704 -0.00195 0.049757
v 0.32704 -0.000814 0.049947
v 0.32702 -0.001952 0.049767
v 0.32702 -0.000815 0.049957
v 0.32701 -0.001954 0.049775
v 0.32702 -0.003042 0.049393
v 0.32701 -0.003046 0.0494
v 0.32699 -0.003048 0.049406
v 0.32701 -0.004061 0.048851
v 0.32701 -0.004972 0.048142
v 0.32699 -0.004064 0.048856
v 0.32698 -0.004066 0.048859
v 0.32699 -0.004976 0.048146
v 0.32698 -0.004978 0.048149
v 0.32699 -0.005758 0.047296
v 0.32698 -0.005761 0.047299
v 0.32699 -0.00639 0.046329
v 0.32698 -0.006394 0.046331
v 0.32696 -0.006395 0.046332
v 0.32696 -0.006859 0.045273
v 0.32256 -0.006395 0.046332
v 0.32696 -0.005762 0.047299
v 0.32256 -0.005762 0.047299
v 0.32696 -0.004979 0.04815
v 0.32696 -0.004067 0.04886
v 0.32256 -0.004979 0.04815
v 0.32256 -0.004067 0.04886
v 0.32256 -0.00305 0.04941
v 0.32696 -0.00305 0.04941
v 0.32256 -0.001957 0.049786
v 0.32256 -0.000816 0.049976
v 0.32696 -0.001957 0.049786
v 0.32696 -0.000816 0.049976
v 0.32698 -0.001956 0.049785
v 0.32698 -0.000816 0.049975
v 0.32698 -0.00305 0.049409
v 0.32699 -0.001955 0.049781
v 0.32699 -0.000816 0.049971
v 0.32701 -0.000815 0.049965
v 0.32699 0.000339 0.049971
v 0.32698 0.00034 0.049975
v 0.32699 0.001479 0.049781
v 0.32701 0.000339 0.049965
v 0.32702 0.000338 0.049957
v 0.32701 0.001477 0.049775
v 0.32702 0.001475 0.049767
v 0.32701 0.002569 0.0494
v 0.32699 0.002572 0.049406
v 0.32702 0.002566 0.049393
v 0.32701 0.003584 0.048851
v 0.32701 0.004495 0.048142
v 0.32699 0.003588 0.048856
v 0.32702 0.00358 0.048844
v 0.32702 0.00449 0.048136
v 0.32704 0.003574 0.048836
v 0.32704 0.004483 0.048129
v 0.32704 0.002562 0.049384
v 0.32704 0.001473 0.049757
v 0.32704 0.000337 0.049947
v 0.32704 0.000336 0.049935
v 0.32704 0.005263 0.047281
v 0.32704 0.004475 0.04812
v 0.32702 0.005271 0.047288
v 0.32704 0.005892 0.046318
v 0.32702 0.005901 0.046323
v 0.32704 0.006355 0.045263
v 0.32702 0.006364 0.045267
v 0.32701 0.006372 0.045269
v 0.32699 0.006378 0.045271
v 0.32701 0.005908 0.046326
v 0.32699 0.005914 0.046329
v 0.32701 0.005277 0.047293
v 0.32699 0.005282 0.047296
v 0.32698 0.005285 0.047299
v 0.32699 0.004499 0.048146
v 0.32698 0.004502 0.048149
v 0.32696 0.004503 0.04815
v 0.32698 0.00359 0.048859
v 0.32696 0.00359 0.04886
v 0.32698 0.002573 0.049409
v 0.32696 0.002574 0.04941
v 0.32698 0.00148 0.049785
v 0.32696 0.00148 0.049786
v 0.32256 0.00148 0.049786
v 0.32696 0.00034 0.049976
v 0.32256 0.00034 0.049976
v 0.32256 0.002574 0.04941
v 0.32256 0.00359 0.04886
v 0.32256 0.004503 0.04815
v 0.32256 0.005286 0.047299
v 0.32696 0.005286 0.047299
v 0.32256 0.005918 0.046332
v 0.32256 0.006382 0.045273
v 0.32696 0.005918 0.046332
v 0.32696 0.006382 0.045273
v 0.32698 0.005917 0.046331
v 0.32698 0.006381 0.045272
v 0.32698 0.006665 0.044152
v 0.32696 0.006666 0.044152
v 0.32699 0.006661 0.044151
v 0.32698 0.00676 0.043
v 0.32696 0.006762 0.043
v 0.32698 0.006665 0.041848
v 0.32696 0.006666 0.041848
v 0.32256 0.006666 0.041848
v 0.32696 0.006382 0.040727
v 0.32696 0.005918 0.039668
v 0.32256 0.006382 0.040727
v 0.32256 0.005918 0.039668
v 0.32256 0.005286 0.038701
v 0.32696 0.005286 0.038701
v 0.32256 0.004503 0.03785
v 0.32256 0.00359 0.03714
v 0.32696 0.004503 0.03785
v 0.32256 0.006762 0.043
v 0.32256 0.006666 0.044152
v 0.32256 -0.006859 0.045273
v 0.32256 -0.007143 0.044152
v 0.32699 -0.006854 0.040729
v 0.32256 -0.001957 0.036214
v 0.32699 0.000339 0.036029
v 0.32706 0.003553 0.037198
v 0.32702 0.005901 0.039677
v 0.32704 0.006626 0.044145
v 0.32705 0.006707 0.043
v 0.32706 -0.005683 0.047238
v 0.32706 -0.006307 0.046284
v 0.32706 -0.006101 0.042022
v 0.32706 -0.005848 0.041074
v 0.32656 -0.004731 0.041458
v 0.32706 -0.005455 0.040177
v 0.32706 -0.004919 0.039357
v 0.32656 -0.004416 0.040739
v 0.32656 -0.003987 0.040082
v 0.32656 -0.003455 0.039505
v 0.32706 -0.001704 0.037213
v 0.32706 -0.000731 0.03705
v 0.32706 -0.001701 0.037225
v 0.32706 -0.001697 0.037238
v 0.32706 -0.00073 0.037063
v 0.32706 0.000254 0.037063
v 0.32706 -0.000729 0.037076
v 0.32706 0.000253 0.037076
v 0.32706 0.001221 0.037238
v 0.32706 0.001224 0.037225
v 0.32706 0.001227 0.037213
v 0.32706 0.00216 0.037533
v 0.32706 0.000255 0.03705
v 0.32706 0.00565 0.043983
v 0.32706 0.005408 0.044938
v 0.32706 0.005012 0.045841
v 0.32706 0.005001 0.045835
v 0.32706 0.004473 0.046667
v 0.32706 0.003805 0.047392
v 0.32706 0.004463 0.046659
v 0.32706 0.004452 0.046651
v 0.32706 -0.003504 0.047998
f 636 635 92
f 117 297 296
f 229 177 176
f 198 197 121
f 156 154 151
f 201 222 210
f 712 512 710
f 286 284 295
f 335 327 319
f 345 230 419
f 428 401 402
f 353 351 352
f 430 438 439
f 484 485 500
f 660 721 707
f 756 760 736
f 799 801 984
f 1387 1386 1187
f 3 5 6
f 3 6 113
f 50 52 51
f 52 2 72
f 51 52 72
f 1 3 113
f 1 113 112
f 79 72 2
f 1 112 111
f 1 111 110
f 80 79 2
f 81 80 2
f 1 110 105
f 1 105 104
f 83 81 2
f 85 83 2
f 2 1 96
f 1 104 102
f 1 102 100
f 87 85 2
f 89 87 2
f 1 100 98
f 1 98 97
f 90 89 2
f 96 90 2
f 1 97 96
f 52 50 48
f 52 48 53
f 48 47 53
f 54 53 47
f 56 55 40
f 55 54 41
f 40 55 41
f 58 57 36
f 57 56 38
f 36 57 38
f 60 59 34
f 59 58 36
f 62 61 32
f 61 60 33
f 64 63 26
f 63 62 27
f 26 63 27
f 68 65 22
f 65 64 25
f 22 65 25
f 66 67 20
f 67 68 20
f 70 69 16
f 69 66 18
f 4 71 9
f 71 70 11
f 9 71 11
f 5 3 7
f 3 4 7
f 9 7 4
f 69 18 16
f 61 33 32
f 59 36 34
f 54 47 46
f 66 20 18
f 20 68 22
f 54 46 41
f 12 11 70
f 16 12 70
f 40 38 56
f 60 34 33
f 25 64 26
f 62 32 27
f 45 646 648
f 45 648 44
f 648 649 44
f 43 44 649
f 39 42 656
f 42 43 654
f 656 42 654
f 35 37 661
f 37 39 658
f 30 31 663
f 31 35 662
f 663 31 662
f 28 29 669
f 29 30 664
f 23 24 670
f 24 28 669
f 670 24 669
f 19 21 673
f 21 23 672
f 673 21 672
f 15 17 680
f 17 19 677
f 680 17 677
f 13 14 682
f 14 15 681
f 688 10 683
f 10 13 683
f 14 681 682
f 681 15 680
f 29 664 669
f 37 658 661
f 658 39 656
f 43 649 654
f 682 683 13
f 673 677 19
f 35 661 662
f 672 23 670
f 30 663 664
f 75 76 627
f 75 627 626
f 74 73 622
f 73 75 625
f 121 428 618
f 428 484 619
f 621 74 622
f 484 74 621
f 73 625 624
f 75 626 625
f 73 624 623
f 118 120 616
f 120 121 616
f 613 117 614
f 73 623 622
f 117 118 615
f 117 613 612
f 117 612 611
f 484 621 620
f 115 117 611
f 614 117 615
f 610 116 115
f 611 610 115
f 484 620 619
f 428 619 618
f 615 118 616
f 121 618 617
f 121 617 616
f 74 577 545
f 74 545 544
f 516 514 530
f 514 513 531
f 518 517 528
f 517 516 528
f 524 523 520
f 523 522 520
f 526 525 524
f 528 527 526
f 530 529 516
f 529 528 516
f 531 530 514
f 528 526 520
f 526 524 520
f 520 518 528
f 73 74 543
f 74 544 543
f 73 543 542
f 73 542 541
f 532 531 513
f 73 541 540
f 73 540 539
f 532 513 49
f 533 532 49
f 73 539 538
f 73 538 537
f 533 49 73
f 534 533 73
f 73 537 536
f 73 536 535
f 535 534 73
f 115 116 609
f 115 609 114
f 609 645 114
f 109 114 645
f 107 108 643
f 108 109 644
f 103 106 641
f 106 107 642
f 99 101 639
f 101 103 640
f 640 103 641
f 94 95 637
f 95 99 638
f 637 95 638
f 92 93 636
f 93 94 637
f 636 93 637
f 88 91 634
f 91 92 635
f 634 91 635
f 84 86 632
f 86 88 633
f 632 86 633
f 78 82 630
f 82 84 631
f 630 82 631
f 75 77 628
f 77 78 629
f 628 76 75
f 629 628 77
f 629 78 630
f 106 642 641
f 108 644 643
f 644 109 645
f 107 643 642
f 632 631 84
f 633 88 634
f 101 640 639
f 99 639 638
f 295 282 280
f 280 279 295
f 279 278 295
f 278 277 276
f 272 271 295
f 271 270 295
f 274 272 295
f 278 276 295
f 276 274 295
f 296 295 270
f 296 270 269
f 256 119 118
f 8 231 307
f 231 232 233
f 231 233 309
f 256 118 257
f 118 117 259
f 257 118 258
f 258 118 259
f 231 309 308
f 231 308 307
f 8 307 306
f 260 259 117
f 261 260 117
f 8 306 305
f 8 305 304
f 262 261 117
f 263 262 117
f 8 304 303
f 8 303 302
f 264 263 117
f 265 264 117
f 8 302 301
f 8 301 300
f 266 265 117
f 267 266 117
f 117 8 298
f 8 300 299
f 8 299 298
f 268 267 117
f 269 268 117
f 117 298 297
f 296 269 117
f 151 150 149
f 149 148 151
f 148 147 151
f 147 146 145
f 141 140 151
f 140 139 151
f 143 141 151
f 147 145 151
f 145 143 151
f 165 151 139
f 165 139 138
f 123 122 120
f 120 118 129
f 118 119 255
f 118 255 254
f 126 123 120
f 127 126 120
f 118 254 253
f 118 253 130
f 128 127 120
f 129 128 120
f 118 130 129
f 253 252 130
f 252 251 130
f 131 130 251
f 251 250 131
f 250 249 133
f 132 131 250
f 133 132 250
f 249 248 135
f 133 249 134
f 248 247 137
f 134 249 135
f 247 246 138
f 135 248 136
f 136 248 137
f 246 245 165
f 137 247 138
f 245 244 166
f 138 246 165
f 244 243 167
f 165 245 166
f 243 242 168
f 166 244 167
f 242 241 169
f 167 243 168
f 241 240 170
f 168 242 169
f 169 241 170
f 240 239 171
f 170 240 171
f 239 238 172
f 171 239 172
f 238 237 174
f 172 238 173
f 237 236 174
f 173 238 174
f 236 235 231
f 174 236 175
f 234 232 231
f 235 234 231
f 236 231 175
f 231 229 175
f 229 181 179
f 229 179 178
f 229 178 177
f 176 175 229
f 230 338 340
f 230 340 341
f 181 229 180
f 229 230 369
f 180 229 182
f 182 229 183
f 230 341 377
f 230 377 376
f 183 229 184
f 184 229 369
f 230 376 375
f 230 375 374
f 185 184 369
f 230 374 373
f 230 373 372
f 186 185 369
f 187 186 369
f 230 372 371
f 230 371 370
f 188 187 368
f 189 188 368
f 187 369 368
f 230 370 369
f 368 367 191
f 367 366 191
f 366 365 352
f 190 189 368
f 366 352 191
f 365 364 352
f 364 363 362
f 358 357 352
f 352 121 194
f 121 120 200
f 196 121 197
f 362 360 352
f 360 358 352
f 364 362 352
f 191 190 368
f 192 191 352
f 121 196 195
f 120 122 124
f 120 124 125
f 193 192 352
f 120 125 200
f 200 199 121
f 194 193 352
f 195 194 121
f 199 198 121
f 150 151 152
f 151 164 163
f 152 151 153
f 163 162 151
f 162 161 151
f 161 160 151
f 160 159 151
f 159 158 151
f 158 157 156
f 156 155 154
f 154 153 151
f 158 156 151
f 226 225 224
f 224 223 226
f 223 222 226
f 222 221 218
f 221 220 218
f 220 219 218
f 218 217 216
f 216 215 218
f 215 214 218
f 214 213 212
f 212 211 210
f 210 209 206
f 209 208 206
f 201 202 228
f 228 227 222
f 227 226 222
f 214 212 218
f 212 210 222
f 218 212 222
f 206 204 210
f 204 201 210
f 201 228 222
f 10 688 689
f 10 689 690
f 231 8 698
f 8 10 690
f 692 8 690
f 337 230 706
f 230 229 702
f 700 231 698
f 229 231 700
f 8 692 694
f 8 694 696
f 513 512 712
f 512 337 708
f 717 49 716
f 8 696 698
f 49 513 714
f 49 717 722
f 49 722 45
f 229 700 702
f 716 49 714
f 647 646 45
f 723 647 45
f 230 702 704
f 722 723 45
f 230 704 706
f 714 513 712
f 337 706 708
f 708 710 512
f 282 295 281
f 295 294 293
f 281 295 283
f 293 292 295
f 292 291 295
f 291 290 295
f 290 289 295
f 289 288 295
f 288 287 286
f 286 285 284
f 284 283 295
f 288 286 295
f 314 313 315
f 313 312 315
f 312 311 315
f 311 310 315
f 335 334 331
f 334 333 331
f 331 330 329
f 329 328 327
f 327 326 325
f 325 324 323
f 321 320 323
f 320 319 323
f 319 318 317
f 317 316 310
f 316 315 310
f 310 335 317
f 331 329 335
f 329 327 335
f 327 325 319
f 325 323 319
f 319 317 335
f 337 459 460
f 337 460 461
f 339 338 344
f 338 230 344
f 344 343 342
f 342 339 344
f 230 337 419
f 337 461 462
f 337 462 463
f 345 344 230
f 337 463 464
f 337 464 465
f 337 465 466
f 337 466 418
f 418 466 467
f 337 418 419
f 467 468 418
f 468 469 418
f 469 470 418
f 470 471 418
f 471 472 418
f 472 473 418
f 473 474 418
f 474 475 416
f 418 474 416
f 475 476 416
f 476 477 416
f 477 478 416
f 478 479 425
f 479 480 425
f 416 478 425
f 480 481 425
f 481 482 425
f 433 432 431
f 425 424 415
f 424 423 415
f 433 431 483
f 431 425 483
f 423 414 415
f 416 417 418
f 425 415 416
f 482 483 425
f 379 378 422
f 378 347 422
f 422 347 345
f 419 420 421
f 421 422 345
f 421 345 419
f 423 424 413
f 424 426 413
f 426 427 428
f 121 352 348
f 352 351 350
f 348 352 349
f 350 349 352
f 426 428 403
f 428 121 399
f 412 413 426
f 346 347 395
f 347 378 380
f 395 347 380
f 121 348 346
f 411 412 426
f 410 411 426
f 380 381 393
f 395 380 394
f 381 382 383
f 383 384 387
f 384 385 387
f 387 388 389
f 389 390 387
f 390 391 387
f 391 392 381
f 392 393 381
f 393 394 380
f 381 383 391
f 383 387 391
f 346 395 396
f 409 410 426
f 408 409 426
f 121 346 396
f 121 396 397
f 407 408 426
f 406 407 426
f 121 397 398
f 121 398 399
f 405 406 426
f 404 405 426
f 428 399 400
f 428 400 401
f 403 404 426
f 402 403 428
f 355 354 352
f 354 353 352
f 512 510 511
f 512 511 578
f 459 337 458
f 337 512 452
f 458 337 457
f 457 337 456
f 512 578 579
f 512 579 580
f 456 337 455
f 455 337 454
f 512 580 581
f 512 581 448
f 581 582 448
f 454 337 453
f 453 337 452
f 582 583 448
f 583 584 448
f 584 585 447
f 448 584 447
f 585 586 446
f 451 452 512
f 450 451 512
f 586 587 444
f 447 585 446
f 587 588 430
f 449 450 512
f 448 449 512
f 588 589 430
f 446 586 445
f 445 586 444
f 589 590 430
f 444 587 443
f 443 587 430
f 590 591 430
f 591 592 430
f 592 593 430
f 593 594 429
f 443 430 442
f 442 430 441
f 595 596 485
f 596 597 486
f 430 593 429
f 596 486 485
f 597 598 486
f 440 441 430
f 598 599 486
f 439 440 430
f 599 600 486
f 600 601 486
f 601 602 603
f 603 604 605
f 605 606 603
f 606 607 603
f 607 608 601
f 608 486 601
f 485 484 595
f 484 428 594
f 428 427 429
f 428 429 594
f 601 603 607
f 430 431 435
f 431 432 434
f 431 434 435
f 594 595 484
f 430 435 436
f 430 436 437
f 430 437 438
f 513 514 562
f 514 515 563
f 562 514 563
f 515 576 565
f 576 575 565
f 573 572 569
f 572 571 569
f 571 570 569
f 567 566 565
f 565 564 515
f 564 563 515
f 569 567 573
f 567 565 573
f 575 573 565
f 510 512 509
f 512 513 561
f 509 512 503
f 503 504 505
f 503 505 506
f 503 506 507
f 503 507 508
f 513 562 561
f 503 508 509
f 512 561 503
f 502 503 561
f 502 561 560
f 501 502 560
f 501 560 559
f 498 499 493
f 499 500 485
f 493 499 492
f 501 559 558
f 497 498 493
f 501 558 557
f 496 497 493
f 501 557 556
f 501 556 555
f 494 495 493
f 501 555 554
f 492 499 491
f 501 554 553
f 491 499 490
f 501 553 552
f 490 499 489
f 501 552 551
f 489 499 488
f 501 551 550
f 488 499 487
f 501 550 549
f 487 499 485
f 501 549 74
f 549 548 74
f 500 501 484
f 484 501 74
f 548 547 74
f 577 74 546
f 546 74 547
f 687 686 685
f 685 684 679
f 679 678 676
f 676 675 674
f 674 671 668
f 668 667 666
f 666 665 660
f 660 659 657
f 657 655 653
f 653 652 650
f 650 651 721
f 721 720 719
f 719 718 715
f 715 713 711
f 711 709 707
f 707 705 699
f 705 703 699
f 703 701 699
f 699 697 695
f 695 693 699
f 693 691 699
f 691 687 685
f 685 679 676
f 676 674 668
f 668 666 676
f 666 660 676
f 660 657 653
f 653 650 721
f 721 719 715
f 715 711 721
f 711 707 721
f 691 685 660
f 685 676 660
f 660 653 721
f 707 699 660
f 699 691 660
f 726 724 728
f 724 725 728
f 725 727 728
f 728 729 732
f 729 730 732
f 730 731 732
f 732 733 736
f 733 734 736
f 734 735 736
f 736 737 740
f 737 738 740
f 738 739 740
f 740 741 744
f 741 742 744
f 742 743 744
f 744 745 746
f 746 747 744
f 747 748 744
f 748 749 750
f 750 751 748
f 751 752 748
f 752 753 754
f 754 755 752
f 755 756 752
f 756 757 758
f 758 759 756
f 759 760 756
f 760 761 726
f 760 726 728
f 728 732 760
f 732 736 760
f 736 740 752
f 740 744 752
f 744 748 752
f 752 756 736
f 922 921 774
f 922 774 923
f 774 776 923
f 932 923 776
f 1376 1377 779
f 1377 932 779
f 953 949 784
f 949 1376 781
f 955 954 797
f 954 953 794
f 797 954 794
f 984 956 798
f 956 955 797
f 982 983 802
f 983 984 801
f 802 983 801
f 981 980 808
f 980 982 808
f 986 985 1401
f 985 981 1403
f 1401 985 1403
f 1003 1002 1400
f 1002 986 1401
f 852 1004 1003
f 1399 852 1003
f 1002 1401 1400
f 808 982 802
f 956 797 798
f 949 781 784
f 932 776 779
f 1400 1399 1003
f 1376 779 781
f 953 784 1407
f 1404 1403 981
f 808 1404 981
f 953 1407 794
f 984 798 799
f 1004 852 855
f 1004 855 1005
f 855 856 1005
f 1068 1005 856
f 1065 1067 857
f 1067 1068 857
f 1069 1066 864
f 1066 1065 858
f 1072 1071 1396
f 1071 1069 1397
f 1396 1071 1397
f 1187 1218 1398
f 1218 1072 1396
f 1183 1185 908
f 1185 1187 1386
f 908 1185 1386
f 1220 1219 907
f 1219 1183 907
f 1222 1221 911
f 1221 1220 910
f 911 1221 910
f 924 1223 919
f 1223 1222 911
f 921 922 924
f 920 921 924
f 1223 911 919
f 907 1183 908
f 1218 1396 1398
f 1066 858 864
f 1068 856 857
f 919 920 924
f 1065 857 858
f 1069 864 867
f 909 910 1220
f 907 909 1220
f 1069 867 1397
f 1187 1398 1387
f 768 762 763
f 762 766 764
f 765 1378 766
f 765 770 767
f 768 771 770
f 837 768 763
f 770 775 772
f 767 772 773
f 921 772 774
f 774 775 776
f 776 777 779
f 771 777 775
f 782 777 778
f 779 780 781
f 784 780 783
f 786 780 782
f 784 785 1407
f 788 783 786
f 835 786 782
f 789 786 787
f 791 788 789
f 790 785 788
f 827 790 791
f 792 793 790
f 794 785 793
f 797 793 795
f 798 795 796
f 792 796 795
f 798 800 799
f 799 803 801
f 801 805 802
f 806 803 804
f 804 800 824
f 806 807 805
f 802 807 808
f 808 809 1404
f 810 809 807
f 814 810 806
f 812 811 810
f 817 812 813
f 813 814 819
f 815 1406 811
f 818 815 817
f 820 814 822
f 821 822 823
f 822 806 804
f 823 804 824
f 821 825 826
f 825 824 828
f 826 827 829
f 825 792 827
f 828 800 796
f 830 827 791
f 830 789 831
f 831 787 832
f 832 835 833
f 833 836 834
f 836 782 778
f 769 778 771
f 834 769 837
f 839 840 838
f 838 816 818
f 840 1406 816
f 842 841 840
f 843 844 842
f 839 843 842
f 844 1402 841
f 846 845 844
f 849 846 843
f 851 846 848
f 849 850 848
f 848 853 851
f 852 847 851
f 852 853 855
f 850 854 853
f 855 854 856
f 856 859 857
f 857 861 858
f 860 854 882
f 862 859 860
f 865 861 862
f 858 863 864
f 867 863 866
f 869 863 865
f 1397 866 868
f 869 868 866
f 873 869 871
f 872 869 865
f 874 872 876
f 874 873 871
f 877 872 879
f 878 879 880
f 872 862 879
f 880 862 860
f 881 860 882
f 884 880 881
f 883 882 850
f 884 883 885
f 849 885 883
f 887 849 843
f 890 889 888
f 888 873 875
f 892 891 890
f 892 899 893
f 896 897 895
f 895 899 894
f 899 898 1389
f 897 902 898
f 900 903 902
f 896 901 900
f 898 904 906
f 903 904 902
f 907 905 909
f 908 904 907
f 909 912 910
f 911 912 914
f 903 912 905
f 913 914 912
f 915 916 914
f 919 914 916
f 917 918 916
f 920 916 918
f 921 918 773
f 922 928 925
f 922 926 924
f 927 926 925
f 925 929 927
f 929 930 933
f 923 930 928
f 932 931 930
f 934 930 931
f 935 934 938
f 936 933 935
f 1228 935 937
f 939 935 938
f 942 938 940
f 938 941 940
f 943 941 946
f 942 943 945
f 943 947 944
f 945 944 1244
f 946 951 947
f 941 948 946
f 953 948 949
f 1376 948 950
f 947 952 1249
f 954 951 953
f 955 952 954
f 956 957 955
f 958 952 957
f 958 959 961
f 956 960 959
f 961 960 963
f 962 958 961
f 962 963 964
f 963 967 965
f 964 965 968
f 970 965 966
f 966 967 979
f 969 964 968
f 971 968 970
f 971 972 974
f 972 966 975
f 972 976 973
f 974 973 1312
f 976 977 978
f 975 979 977
f 980 978 977
f 982 977 979
f 983 979 967
f 984 967 960
f 985 978 981
f 986 987 985
f 990 987 988
f 989 978 987
f 991 990 993
f 991 976 989
f 1312 991 992
f 994 991 993
f 994 995 997
f 995 990 998
f 995 999 996
f 997 996 1374
f 999 1000 1001
f 990 1000 998
f 1003 1000 1002
f 1002 988 986
f 1004 1001 1003
f 1004 1008 1006
f 1006 999 1001
f 1006 1010 1007
f 1010 1009 1012
f 1005 1009 1008
f 1007 1011 1375
f 1011 1012 1014
f 1014 1013 1015
f 1012 1063 1013
f 1017 1014 1016
f 1018 1014 1015
f 1022 1016 1019
f 1020 1016 1018
f 1021 1020 1373
f 1023 1019 1021
f 1024 1023 1027
f 1025 1022 1024
f 1025 1026 1374
f 1024 1028 1026
f 1027 1032 1029
f 1029 1028 1027
f 1029 1350 1030
f 1029 1033 1031
f 1033 1034 1036
f 1034 1023 1021
f 1034 1373 1035
f 1036 1035 1038
f 1039 1036 1038
f 1353 1036 1037
f 1039 1040 1041
f 1040 1035 1042
f 1045 1040 1043
f 1043 1042 1046
f 1045 1044 1096
f 1044 1046 1047
f 1046 1049 1047
f 1046 1050 1048
f 1049 1051 1052
f 1050 1051 1048
f 1051 1055 1052
f 1051 1056 1054
f 1054 1058 1055
f 1056 1057 1054
f 1058 1059 1372
f 1060 1059 1057
f 1018 1060 1056
f 1060 1013 1061
f 1059 1062 1064
f 1013 1062 1061
f 1067 1062 1063
f 1065 1064 1062
f 1068 1063 1009
f 1069 1064 1066
f 1071 1070 1069
f 1072 1073 1071
f 1372 1073 1074
f 1077 1073 1075
f 1218 1075 1072
f 1078 1075 1076
f 1080 1077 1078
f 1082 1077 1079
f 1081 1080 1194
f 1081 1082 1079
f 1083 1058 1082
f 1058 1074 1082
f 1052 1083 1084
f 1084 1081 1086
f 1085 1052 1084
f 1085 1086 1088
f 1088 1087 1089
f 1087 1081 1194
f 1091 1088 1089
f 1090 1085 1088
f 1092 1091 1371
f 1094 1090 1092
f 1094 1047 1093
f 1093 1049 1085
f 1097 1094 1092
f 1095 1044 1094
f 1098 1096 1095
f 1101 1095 1097
f 1098 1363 1100
f 1101 1099 1098
f 1103 1102 1101
f 1103 1097 1105
f 1103 1107 1104
f 1103 1109 1106
f 1108 1107 1106
f 1106 1111 1108
f 1105 1110 1109
f 1109 1112 1111
f 1108 1113 1116
f 1111 1114 1113
f 1113 1217 1115
f 1116 1115 1118
f 1118 1117 1116
f 1116 1370 1108
f 1120 1119 1118
f 1118 1123 1120
f 1122 1121 1120
f 1122 1123 1125
f 1125 1124 1126
f 1115 1124 1123
f 1127 1126 1128
f 1130 1125 1127
f 1129 1128 1369
f 1131 1127 1129
f 1131 1132 1130
f 1130 1133 1122
f 1137 1134 1131
f 1138 1135 1137
f 1138 1139 1141
f 1137 1129 1139
f 1129 1140 1139
f 1142 1139 1140
f 1138 1143 1144
f 1141 1146 1143
f 1144 1145 1270
f 1143 1147 1145
f 1146 1149 1147
f 1151 1146 1142
f 1148 1233 1149
f 1152 1148 1151
f 1151 1140 1153
f 1151 1155 1152
f 1140 1154 1153
f 1153 1157 1155
f 1229 1155 1156
f 1155 1159 1156
f 1154 1158 1157
f 1158 1159 1157
f 1159 1163 1161
f 1156 1161 1162
f 1162 1164 1165
f 1163 1164 1161
f 1165 1166 1225
f 1167 1166 1164
f 1209 1167 1163
f 1167 1171 1169
f 1169 1224 1166
f 1169 1172 1170
f 1173 1172 1171
f 1174 1171 1168
f 1177 1173 1174
f 1176 1175 1173
f 1177 1179 1176
f 1176 1182 1178
f 1180 1181 1179
f 1179 1184 1182
f 1183 1178 1182
f 1185 1182 1184
f 1187 1184 1186
f 1181 1186 1184
f 1187 1076 1218
f 1078 1186 1188
f 1080 1188 1189
f 1189 1181 1190
f 1192 1189 1190
f 1194 1189 1191
f 1193 1192 1195
f 1087 1191 1193
f 1197 1193 1195
f 1089 1193 1196
f 1199 1196 1197
f 1091 1196 1198
f 1110 1199 1112
f 1371 1198 1110
f 1114 1199 1200
f 1200 1197 1202
f 1200 1203 1201
f 1217 1200 1201
f 1203 1204 1205
f 1202 1195 1204
f 1205 1206 1207
f 1195 1206 1204
f 1206 1177 1207
f 1206 1190 1180
f 1210 1207 1208
f 1208 1177 1174
f 1211 1208 1209
f 1208 1168 1209
f 1212 1211 1213
f 1212 1205 1210
f 1214 1213 1215
f 1201 1212 1214
f 1126 1214 1215
f 1217 1214 1124
f 1126 1216 1128
f 1216 1213 1158
f 1369 1216 1154
f 1213 1160 1158
f 1211 1163 1160
f 1219 1175 1178
f 1221 1175 1220
f 1222 1172 1221
f 1223 1170 1222
f 924 1224 1223
f 1166 926 1225
f 927 1165 1225
f 1227 1165 1226
f 927 936 1226
f 1227 936 1228
f 1229 1162 1227
f 1227 1230 1229
f 1229 1150 1152
f 1150 1231 1233
f 1230 937 1231
f 1234 1231 1232
f 1231 939 1232
f 1149 1234 1235
f 1234 1239 1236
f 1238 1234 1236
f 1238 1237 1260
f 1237 1239 1240
f 1232 942 1239
f 1240 942 945
f 1237 1241 1243
f 1240 1244 1241
f 1242 1244 1245
f 1243 1242 1256
f 1244 1247 1245
f 1245 1248 1246
f 1242 1246 1251
f 944 1249 1247
f 1247 958 1248
f 1246 962 1250
f 1252 1246 1250
f 1253 1252 1254
f 1256 1251 1253
f 1255 1254 1289
f 1255 1256 1253
f 1257 1243 1256
f 1258 1255 1287
f 1258 1259 1257
f 1263 1259 1261
f 1259 1237 1243
f 1264 1261 1262
f 1262 1258 1286
f 1264 1265 1263
f 1265 1260 1263
f 1266 1267 1265
f 1267 1238 1265
f 1145 1267 1268
f 1267 1149 1235
f 1269 1266 1272
f 1270 1268 1269
f 1269 1367 1270
f 1272 1271 1269
f 1274 1273 1272
f 1272 1264 1274
f 1275 1276 1274
f 1275 1264 1262
f 1279 1277 1275
f 1282 1278 1279
f 1283 1280 1282
f 1283 1284 1285
f 1282 1286 1284
f 1285 1287 1288
f 1286 1287 1284
f 1287 1289 1288
f 1288 1293 1290
f 1285 1290 1291
f 1291 1292 1332
f 1292 1293 1295
f 1289 1294 1293
f 1293 1296 1295
f 1292 1297 1298
f 1297 1296 1299
f 1298 1300 1302
f 1297 1303 1300
f 1301 1303 1304
f 1325 1300 1301
f 1304 1305 1306
f 1299 1305 1303
f 1306 974 1312
f 1305 971 974
f 1296 1307 1299
f 1308 971 1307
f 1294 1308 1296
f 1309 969 1308
f 1254 1309 1294
f 1252 1310 1309
f 1250 964 1310
f 1306 992 1311
f 1304 1311 1313
f 1313 1314 1315
f 1311 994 1314
f 1315 1316 1317
f 1316 994 997
f 1316 1374 1026
f 1028 1316 1026
f 1318 1315 1317
f 1318 1028 1030
f 1350 1318 1030
f 1319 1320 1318
f 1323 1320 1321
f 1320 1313 1315
f 1323 1301 1322
f 1301 1313 1322
f 1324 1321 1346
f 1324 1325 1323
f 1326 1302 1325
f 1341 1326 1324
f 1327 1328 1326
f 1331 1328 1329
f 1328 1298 1302
f 1333 1330 1331
f 1332 1298 1330
f 1335 1332 1333
f 1331 1334 1333
f 1333 1336 1335
f 1335 1281 1283
f 1283 1291 1335
f 1329 1337 1331
f 1327 1338 1329
f 1341 1339 1327
f 1344 1340 1341
f 1345 1342 1344
f 1345 1346 1347
f 1344 1324 1346
f 1346 1319 1347
f 1349 1347 1348
f 1348 1319 1350
f 1352 1348 1351
f 1351 1350 1031
f 1352 1353 1354
f 1351 1033 1353
f 1354 1037 1356
f 1365 1354 1355
f 1356 1355 1354
f 1356 1039 1357
f 1357 1358 1356
f 1361 1359 1357
f 1364 1360 1361
f 1100 1362 1364
f 1361 1045 1364
f 1364 1096 1100
f 1357 1041 1361
f 1352 1366 1349
f 1349 1343 1345
f 1279 1262 1286
f 1270 1368 1144
f 1136 1144 1368
f 1105 1092 1371
f 1059 1070 1372
f 1053 1018 1056
f 1050 1020 1053
f 1035 1050 1042
f 1025 996 1375
f 1025 1011 1017
f 1007 996 999
f 1377 950 931
f 934 950 941
f 767 918 1378
f 766 917 1379
f 1379 915 1381
f 764 1379 1380
f 1383 1379 1381
f 1381 913 1382
f 1384 1381 1382
f 1385 1382 901
f 901 913 903
f 1386 906 908
f 1387 1388 1386
f 1389 1390 1392
f 1389 906 1388
f 1398 1390 1387
f 1392 1391 1393
f 893 1389 1392
f 893 1393 891
f 1393 1395 1394
f 891 1394 889
f 870 1395 868
f 889 870 873
f 1396 868 1395
f 1398 1395 1391
f 1399 845 847
f 1400 1402 845
f 1401 1405 1402
f 1403 809 1405
f 1406 1402 1405
f 811 1405 809
f 520 519 518
f 522 521 520
f 276 275 274
f 274 273 272
f 145 144 143
f 143 142 141
f 362 361 360
f 360 359 358
f 357 356 352
f 208 207 206
f 206 205 204
f 204 203 201
f 310 336 335
f 333 332 331
f 323 322 321
f 385 386 387
f 352 356 355
f 575 574 573
f 569 568 567
f 495 496 493
f 768 765 762
f 762 765 766
f 765 767 1378
f 765 768 770
f 768 769 771
f 837 769 768
f 770 771 775
f 767 770 772
f 921 773 772
f 774 772 775
f 776 775 777
f 771 778 777
f 782 780 777
f 779 777 780
f 784 781 780
f 786 783 780
f 784 783 785
f 788 785 783
f 835 787 786
f 789 788 786
f 791 790 788
f 790 793 785
f 827 792 790
f 792 795 793
f 794 1407 785
f 797 794 793
f 798 797 795
f 792 828 796
f 798 796 800
f 799 800 803
f 801 803 805
f 806 805 803
f 804 803 800
f 806 810 807
f 802 805 807
f 808 807 809
f 810 811 809
f 814 812 810
f 812 815 811
f 817 815 812
f 813 812 814
f 815 816 1406
f 818 816 815
f 820 819 814
f 821 820 822
f 822 814 806
f 823 822 804
f 821 823 825
f 825 823 824
f 826 825 827
f 825 828 792
f 828 824 800
f 830 829 827
f 830 791 789
f 831 789 787
f 832 787 835
f 833 835 836
f 836 835 782
f 769 836 778
f 834 836 769
f 839 842 840
f 838 840 816
f 840 841 1406
f 842 844 841
f 843 846 844
f 839 887 843
f 844 845 1402
f 846 847 845
f 849 848 846
f 851 847 846
f 849 883 850
f 848 850 853
f 852 1399 847
f 852 851 853
f 850 882 854
f 855 853 854
f 856 854 859
f 857 859 861
f 860 859 854
f 862 861 859
f 865 863 861
f 858 861 863
f 867 864 863
f 869 866 863
f 1397 867 866
f 869 870 868
f 873 870 869
f 872 871 869
f 874 871 872
f 874 875 873
f 877 876 872
f 878 877 879
f 872 865 862
f 880 879 862
f 881 880 860
f 884 878 880
f 883 881 882
f 884 881 883
f 849 886 885
f 887 886 849
f 890 891 889
f 888 889 873
f 892 893 891
f 892 894 899
f 896 900 897
f 895 897 899
f 899 897 898
f 897 900 902
f 900 901 903
f 896 1385 901
f 898 902 904
f 903 905 904
f 907 904 905
f 908 906 904
f 909 905 912
f 911 910 912
f 903 913 912
f 913 915 914
f 915 917 916
f 919 911 914
f 917 1378 918
f 920 919 916
f 921 920 918
f 922 923 928
f 922 925 926
f 927 1225 926
f 925 928 929
f 929 928 930
f 923 932 930
f 932 1377 931
f 934 933 930
f 935 933 934
f 936 929 933
f 1228 936 935
f 939 937 935
f 942 939 938
f 938 934 941
f 943 940 941
f 942 940 943
f 943 946 947
f 945 943 944
f 946 948 951
f 941 950 948
f 953 951 948
f 1376 949 948
f 947 951 952
f 954 952 951
f 955 957 952
f 956 959 957
f 958 1249 952
f 958 957 959
f 956 984 960
f 961 959 960
f 962 1248 958
f 962 961 963
f 963 960 967
f 964 963 965
f 970 968 965
f 966 965 967
f 969 1310 964
f 971 969 968
f 971 970 972
f 972 970 966
f 972 975 976
f 974 972 973
f 976 975 977
f 975 966 979
f 980 981 978
f 982 980 977
f 983 982 979
f 984 983 967
f 985 987 978
f 986 988 987
f 990 989 987
f 989 976 978
f 991 989 990
f 991 973 976
f 1312 973 991
f 994 992 991
f 994 993 995
f 995 993 990
f 995 998 999
f 997 995 996
f 999 998 1000
f 990 988 1000
f 1003 1001 1000
f 1002 1000 988
f 1004 1006 1001
f 1004 1005 1008
f 1006 1007 999
f 1006 1008 1010
f 1010 1008 1009
f 1005 1068 1009
f 1007 1010 1011
f 1011 1010 1012
f 1014 1012 1013
f 1012 1009 1063
f 1017 1011 1014
f 1018 1016 1014
f 1022 1017 1016
f 1020 1019 1016
f 1021 1019 1020
f 1023 1022 1019
f 1024 1022 1023
f 1025 1017 1022
f 1025 1024 1026
f 1024 1027 1028
f 1027 1023 1032
f 1029 1030 1028
f 1029 1031 1350
f 1029 1032 1033
f 1033 1032 1034
f 1034 1032 1023
f 1034 1021 1373
f 1036 1034 1035
f 1039 1037 1036
f 1353 1033 1036
f 1039 1038 1040
f 1040 1038 1035
f 1045 1041 1040
f 1043 1040 1042
f 1045 1043 1044
f 1044 1043 1046
f 1046 1048 1049
f 1046 1042 1050
f 1049 1048 1051
f 1050 1053 1051
f 1051 1054 1055
f 1051 1053 1056
f 1054 1057 1058
f 1056 1060 1057
f 1058 1057 1059
f 1060 1061 1059
f 1018 1015 1060
f 1060 1015 1013
f 1059 1061 1062
f 1013 1063 1062
f 1067 1065 1062
f 1065 1066 1064
f 1068 1067 1063
f 1069 1070 1064
f 1071 1073 1070
f 1072 1075 1073
f 1372 1070 1073
f 1077 1074 1073
f 1218 1076 1075
f 1078 1077 1075
f 1080 1079 1077
f 1082 1074 1077
f 1081 1079 1080
f 1081 1083 1082
f 1083 1055 1058
f 1058 1372 1074
f 1052 1055 1083
f 1084 1083 1081
f 1085 1049 1052
f 1085 1084 1086
f 1088 1086 1087
f 1087 1086 1081
f 1091 1090 1088
f 1090 1093 1085
f 1092 1090 1091
f 1094 1093 1090
f 1094 1044 1047
f 1093 1047 1049
f 1097 1095 1094
f 1095 1096 1044
f 1098 1100 1096
f 1101 1098 1095
f 1098 1099 1363
f 1101 1102 1099
f 1103 1104 1102
f 1103 1101 1097
f 1103 1106 1107
f 1103 1105 1109
f 1108 1370 1107
f 1106 1109 1111
f 1105 1371 1110
f 1109 1110 1112
f 1108 1111 1113
f 1111 1112 1114
f 1113 1114 1217
f 1116 1113 1115
f 1118 1119 1117
f 1116 1117 1370
f 1120 1121 1119
f 1118 1115 1123
f 1122 1133 1121
f 1122 1120 1123
f 1125 1123 1124
f 1115 1217 1124
f 1127 1125 1126
f 1130 1122 1125
f 1129 1127 1128
f 1131 1130 1127
f 1131 1134 1132
f 1130 1132 1133
f 1137 1135 1134
f 1138 1136 1135
f 1138 1137 1139
f 1137 1131 1129
f 1129 1369 1140
f 1142 1141 1139
f 1138 1141 1143
f 1141 1142 1146
f 1144 1143 1145
f 1143 1146 1147
f 1146 1148 1149
f 1151 1148 1146
f 1148 1150 1233
f 1152 1150 1148
f 1151 1142 1140
f 1151 1153 1155
f 1140 1369 1154
f 1153 1154 1157
f 1229 1152 1155
f 1155 1157 1159
f 1154 1216 1158
f 1158 1160 1159
f 1159 1160 1163
f 1156 1159 1161
f 1162 1161 1164
f 1163 1167 1164
f 1165 1164 1166
f 1167 1169 1166
f 1209 1168 1167
f 1167 1168 1171
f 1169 1170 1224
f 1169 1171 1172
f 1173 1175 1172
f 1174 1173 1171
f 1177 1176 1173
f 1176 1178 1175
f 1177 1180 1179
f 1176 1179 1182
f 1180 1190 1181
f 1179 1181 1184
f 1183 1219 1178
f 1185 1183 1182
f 1187 1185 1184
f 1181 1188 1186
f 1187 1186 1076
f 1078 1076 1186
f 1080 1078 1188
f 1189 1188 1181
f 1192 1191 1189
f 1194 1080 1189
f 1193 1191 1192
f 1087 1194 1191
f 1197 1196 1193
f 1089 1087 1193
f 1199 1198 1196
f 1091 1089 1196
f 1110 1198 1199
f 1371 1091 1198
f 1114 1112 1199
f 1200 1199 1197
f 1200 1202 1203
f 1217 1114 1200
f 1203 1202 1204
f 1202 1197 1195
f 1205 1204 1206
f 1195 1192 1206
f 1206 1180 1177
f 1206 1192 1190
f 1210 1205 1207
f 1208 1207 1177
f 1211 1210 1208
f 1208 1174 1168
f 1212 1210 1211
f 1212 1203 1205
f 1214 1212 1213
f 1201 1203 1212
f 1126 1124 1214
f 1217 1201 1214
f 1126 1215 1216
f 1216 1215 1213
f 1369 1128 1216
f 1213 1211 1160
f 1211 1209 1163
f 1219 1220 1175
f 1221 1172 1175
f 1222 1170 1172
f 1223 1224 1170
f 924 926 1224
f 1166 1224 926
f 927 1226 1165
f 1227 1162 1165
f 927 929 936
f 1227 1226 936
f 1229 1156 1162
f 1227 1228 1230
f 1229 1230 1150
f 1150 1230 1231
f 1230 1228 937
f 1234 1233 1231
f 1231 937 939
f 1149 1233 1234
f 1234 1232 1239
f 1238 1235 1234
f 1238 1236 1237
f 1237 1236 1239
f 1232 939 942
f 1240 1239 942
f 1237 1240 1241
f 1240 945 1244
f 1242 1241 1244
f 1243 1241 1242
f 1244 944 1247
f 1245 1247 1248
f 1242 1245 1246
f 944 947 1249
f 1247 1249 958
f 1246 1248 962
f 1252 1251 1246
f 1253 1251 1252
f 1256 1242 1251
f 1255 1253 1254
f 1255 1257 1256
f 1257 1259 1243
f 1258 1257 1255
f 1258 1261 1259
f 1263 1260 1259
f 1259 1260 1237
f 1264 1263 1261
f 1262 1261 1258
f 1264 1266 1265
f 1265 1238 1260
f 1266 1268 1267
f 1267 1235 1238
f 1145 1147 1267
f 1267 1147 1149
f 1269 1268 1266
f 1270 1145 1268
f 1269 1271 1367
f 1272 1273 1271
f 1274 1276 1273
f 1272 1266 1264
f 1275 1277 1276
f 1275 1274 1264
f 1279 1278 1277
f 1282 1280 1278
f 1283 1281 1280
f 1283 1282 1284
f 1282 1279 1286
f 1285 1284 1287
f 1286 1258 1287
f 1287 1255 1289
f 1288 1289 1293
f 1285 1288 1290
f 1291 1290 1292
f 1292 1290 1293
f 1289 1254 1294
f 1293 1294 1296
f 1292 1295 1297
f 1297 1295 1296
f 1298 1297 1300
f 1297 1299 1303
f 1301 1300 1303
f 1325 1302 1300
f 1304 1303 1305
f 1299 1307 1305
f 1306 1305 974
f 1305 1307 971
f 1296 1308 1307
f 1308 969 971
f 1294 1309 1308
f 1309 1310 969
f 1254 1252 1309
f 1252 1250 1310
f 1250 962 964
f 1306 1312 992
f 1304 1306 1311
f 1313 1311 1314
f 1311 992 994
f 1315 1314 1316
f 1316 1314 994
f 1316 997 1374
f 1028 1317 1316
f 1318 1320 1315
f 1318 1317 1028
f 1350 1319 1318
f 1319 1321 1320
f 1323 1322 1320
f 1320 1322 1313
f 1323 1325 1301
f 1301 1304 1313
f 1324 1323 1321
f 1324 1326 1325
f 1326 1328 1302
f 1341 1327 1326
f 1327 1329 1328
f 1331 1330 1328
f 1328 1330 1298
f 1333 1332 1330
f 1332 1292 1298
f 1335 1291 1332
f 1331 1337 1334
f 1333 1334 1336
f 1335 1336 1281
f 1283 1285 1291
f 1329 1338 1337
f 1327 1339 1338
f 1341 1340 1339
f 1344 1342 1340
f 1345 1343 1342
f 1345 1344 1346
f 1344 1341 1324
f 1346 1321 1319
f 1349 1345 1347
f 1348 1347 1319
f 1352 1349 1348
f 1351 1348 1350
f 1352 1351 1353
f 1351 1031 1033
f 1354 1353 1037
f 1365 1352 1354
f 1356 1358 1355
f 1356 1037 1039
f 1357 1359 1358
f 1361 1360 1359
f 1364 1362 1360
f 1100 1363 1362
f 1361 1041 1045
f 1364 1045 1096
f 1357 1039 1041
f 1352 1365 1366
f 1349 1366 1343
f 1279 1275 1262
f 1270 1367 1368
f 1136 1138 1144
f 1105 1097 1092
f 1059 1064 1070
f 1053 1020 1018
f 1050 1373 1020
f 1035 1373 1050
f 1025 1374 996
f 1025 1375 1011
f 1007 1375 996
f 1377 1376 950
f 934 931 950
f 767 773 918
f 766 1378 917
f 1379 917 915
f 764 766 1379
f 1383 1380 1379
f 1381 915 913
f 1384 1383 1381
f 1385 1384 1382
f 901 1382 913
f 1386 1388 906
f 1387 1390 1388
f 1389 1388 1390
f 1389 898 906
f 1398 1391 1390
f 1392 1390 1391
f 893 899 1389
f 893 1392 1393
f 1393 1391 1395
f 891 1393 1394
f 870 1394 1395
f 889 1394 870
f 1396 1397 868
f 1398 1396 1395
f 1399 1400 845
f 1400 1401 1402
f 1401 1403 1405
f 1403 1404 809
f 1406 841 1402
f 811 1406 1405
