v 0.015925 -0.079757 0.046041
v 0.01233 -0.079196 0.046493
v 0.021024 -0.082625 0.043472
v 0.020349 -0.081997 0.044069
v 0.016339 -0.079877 0.045941
v 0.008315 -0.079351 0.04637
v 0.006097 -0.079755 0.04604
v 0.011189 -0.079166 0.046515
v 0.004313 -0.080254 0.045621
v 0.000303 -0.081979 0.044087
v -0.000808 -0.082626 0.043472
v 0.022719 -0.08528 0.040684
v 0.023104 -0.087694 0.037698
v -0.00426 -0.08528 0.040684
v -0.006391 -0.087697 0.037701
v 0.022632 -0.089861 0.034544
v 0.021522 -0.091783 0.031195
v -0.007664 -0.08988 0.034515
v -0.007716 -0.089998 0.034325
v -0.008272 -0.091781 0.031194
v 0.020349 -0.092954 0.028787
v 0.019699 -0.093435 0.02769
v 0.017002 -0.094779 0.02412
v -0.008144 -0.093434 0.027689
v -0.007716 -0.094175 0.02583
v -0.007072 -0.094778 0.02412
v 0.012726 -0.095853 0.020384
v 0.01634 -0.095008 0.02341
v 0.01233 -0.095915 0.020126
v 0.008321 -0.096332 0.018202
v 0.004312 -0.096471 0.017462
v 0.000302 -0.096399 0.017852
v -0.004363 -0.095853 0.020384
v -0.003707 -0.095984 0.019832
v 0.01267 -0.079217 0.046476
v 0.014067 -0.079369 0.046358
v 0.015495 -0.079645 0.046133
v 0.016822 -0.080036 0.045807
v 0.018101 -0.080564 0.045356
v 0.01926 -0.081205 0.044793
v 0.020294 -0.081951 0.044112
v 0.005506 -0.079903 0.045917
v 0.000404 -0.081924 0.044138
v 0.002854 -0.080781 0.045167
v -0.003701 -0.08477 0.041254
v -0.001793 -0.083275 0.042831
v 0.021172 -0.082782 0.043319
v 0.02187 -0.083655 0.042443
v 0.022422 -0.084592 0.04145
v 0.022798 -0.085507 0.040423
v 0.023028 -0.086442 0.039307
v 0.023108 -0.087322 0.03819
v -0.005303 -0.086347 0.039427
v 0.02306 -0.088212 0.036991
v 0.021875 -0.091304 0.032091
v -0.007499 -0.089531 0.035062
v -0.00657 -0.087952 0.037356
v -0.008102 -0.091037 0.032568
v 0.020776 -0.092583 0.029587
v 0.019335 -0.093668 0.027127
v 0.017571 -0.094556 0.024775
v -0.008246 -0.093095 0.028468
v -0.008322 -0.092435 0.029891
v -0.007129 -0.094736 0.024247
v -0.007652 -0.094252 0.025622
v -0.008033 -0.093688 0.027077
v 0.016191 -0.095055 0.023259
v 0.015515 -0.095255 0.0226
v 0.013185 -0.095775 0.020699
v 0.010625 -0.096135 0.019158
v 0.007888 -0.096358 0.018067
v 0.006475 -0.096424 0.017721
v 0.005035 -0.096462 0.017513
v 0.002144 -0.09646 0.017521
v 0.00068 -0.096417 0.01776
v -0.004511 -0.095819 0.020522
v -0.005542 -0.095528 0.021636
v -0.006416 -0.09517 0.022882
v -0.006635 -0.095054 0.023259
v -0.000694 -0.09634 0.018162
v -0.002061 -0.096219 0.018767
v -0.003325 -0.09605 0.019547
v 0.02106 0.080668 0.042151
v 0.014191 0.080668 0.042151
v 0.017626 0.080668 0.042151
v 0.02106 0.093313 0.020513
v 0.02106 0.091774 0.025348
v 0.02106 0.089712 0.029984
v 0.02106 0.087152 0.034365
v 0.02106 0.084125 0.038437
v 0.015909 0.09431 0.015538
v 0.014191 0.084125 0.038437
v 0.014191 0.087152 0.034365
v 0.014191 0.089712 0.029984
v 0.014191 0.091774 0.025348
v 0.014191 0.093313 0.020513
v 0.017626 0.084125 0.038437
v 0.017626 0.087152 0.034365
v 0.017626 0.089712 0.029984
v 0.017626 0.091774 0.025348
v 0.017626 0.093313 0.020513
v 0.018242 0.071448 0.049026
v 0.018865 0.071553 0.048966
v 0.019463 0.071743 0.048857
v 0.019748 0.071872 0.048782
v 0.020018 0.072022 0.048695
v 0.020272 0.072193 0.048595
v 0.020511 0.072384 0.048481
v 0.020928 0.072813 0.048221
v 0.021104 0.073048 0.048075
v 0.021256 0.073296 0.04792
v 0.021486 0.073817 0.047587
v 0.021621 0.074355 0.047233
v 0.021675 0.074943 0.046834
v 0.021657 0.075434 0.046489
v 0.021564 0.075957 0.046111
v 0.021383 0.076457 0.045739
v 0.021104 0.07692 0.045386
v 0.020929 0.077132 0.045221
v 0.02073 0.077331 0.045065
v 0.020273 0.077679 0.044787
v 0.020018 0.077828 0.044667
v 0.019747 0.077957 0.044562
v 0.019168 0.078157 0.044398
v 0.018556 0.07828 0.044294
v 0.017927 0.078336 0.044246
v 0.017294 0.078336 0.044246
v 0.016665 0.07828 0.044294
v 0.016053 0.078157 0.044398
v 0.015474 0.077957 0.044562
v 0.015203 0.077828 0.044667
v 0.014948 0.077679 0.044787
v 0.014491 0.077331 0.045065
v 0.014292 0.077132 0.045221
v 0.014117 0.07692 0.045386
v 0.013838 0.076457 0.045739
v 0.013656 0.075957 0.046111
v 0.013564 0.075434 0.046489
v 0.0136 0.074355 0.047233
v 0.013735 0.073817 0.047587
v 0.013965 0.073296 0.04792
v 0.014117 0.073048 0.048075
v 0.014292 0.072813 0.048221
v 0.01471 0.072384 0.048481
v 0.014948 0.072193 0.048595
v 0.015203 0.072022 0.048695
v 0.015472 0.071872 0.048782
v 0.015758 0.071743 0.048857
v 0.016356 0.071553 0.048966
v 0.017294 0.071431 0.049035
v 0.019169 0.071637 0.048918
v 0.02073 0.072591 0.048356
v 0.021256 0.076694 0.04556
v 0.020511 0.077513 0.04492
v 0.019463 0.078067 0.044472
v 0.015758 0.078067 0.044472
v 0.01471 0.077513 0.04492
v 0.013965 0.076694 0.04556
v 0.013546 0.074943 0.046834
v 0.01449 0.072591 0.048356
v 0.016052 0.071637 0.048918
v 0.01761 0.074989 0.046801
v -0.092282 0.08946 0.030468
v -0.092205 0.090312 0.02877
v -0.092284 0.089739 0.029932
v -0.066263 0.09188 0.025067
v -0.066817 0.0924 0.023596
v -0.067854 0.093025 0.021576
v -0.06919 0.093516 0.019697
v -0.070795 0.093877 0.018059
v -0.07081 0.093879 0.018046
v -0.072665 0.094129 0.016695
v -0.074693 0.094288 0.015692
v -0.076833 0.094376 0.015061
v -0.079028 0.094413 0.014784
v -0.081542 0.094402 0.014878
v -0.083407 0.094349 0.015296
v -0.085486 0.094221 0.016155
v -0.086474 0.094125 0.016732
v -0.087404 0.094005 0.017397
v -0.088282 0.093858 0.018153
v -0.089087 0.09368 0.018985
v -0.089883 0.093444 0.019988
v -0.090451 0.093219 0.020862
v -0.090985 0.092936 0.021876
v -0.091418 0.092613 0.02294
v -0.091733 0.09226 0.024006
v -0.092184 0.088362 0.032428
v -0.091863 0.087193 0.034298
v -0.091283 0.085976 0.036058
v -0.090412 0.084747 0.037674
v -0.089239 0.083553 0.039111
v -0.088534 0.082986 0.039754
v -0.087761 0.082459 0.040331
v -0.086006 0.081531 0.041298
v -0.085046 0.081151 0.041681
v -0.084033 0.080831 0.041997
v -0.081912 0.080389 0.042422
v -0.07972 0.080197 0.042598
v -0.077514 0.080238 0.042561
v -0.075345 0.080535 0.042283
v -0.074294 0.080783 0.042044
v -0.07328 0.081095 0.041737
v -0.071386 0.081891 0.040929
v -0.068297 0.083988 0.038601
v -0.067161 0.085176 0.037128
v -0.06631 0.086387 0.035486
v -0.065753 0.087582 0.0337
v -0.065472 0.088727 0.031803
v -0.065624 0.090774 0.027767
v -0.066077 0.091647 0.025678
v -0.068954 0.093446 0.019987
v -0.071708 0.094016 0.017333
v -0.073656 0.094219 0.01615
v -0.076168 0.094356 0.015216
v -0.080132 0.094415 0.014764
v -0.084466 0.094295 0.015678
v -0.091808 0.087048 0.034516
v -0.089569 0.083852 0.038762
v -0.082986 0.080578 0.042243
v -0.081542 0.080339 0.042468
v -0.076168 0.080389 0.042421
v -0.072308 0.081466 0.041364
v -0.06971 0.082873 0.039879
v -0.068449 0.083852 0.038762
v -0.065967 0.08705 0.034517
v -0.065431 0.089768 0.029875
v -0.086914 0.094072 0.01703
v -0.091937 0.09188 0.025067
v -0.085438 0.092248 0.024041
v -0.08477 0.092579 0.023047
v -0.084369 0.092723 0.022591
v -0.083934 0.092848 0.022183
v -0.082938 0.093042 0.021521
v -0.082403 0.093107 0.02129
v -0.081823 0.093157 0.021109
v -0.080656 0.093209 0.020912
v -0.079475 0.093217 0.02088
v -0.07801 0.093166 0.021071
v -0.077155 0.093098 0.021317
v -0.076603 0.093032 0.021551
v -0.07608 0.092952 0.021832
v -0.075582 0.092854 0.022162
v -0.075113 0.09274 0.02254
v -0.074283 0.092464 0.023405
v -0.073613 0.092126 0.024392
v -0.073104 0.091734 0.025454
v -0.072738 0.091296 0.026554
v -0.072423 0.090566 0.028218
v -0.085935 0.09188 0.025067
v -0.081542 0.093175 0.021043
v -0.073269 0.09188 0.025067
v -0.076168 0.092967 0.02178
v -0.084229 0.090312 0.02877
v -0.076168 0.090312 0.02877
v -0.072491 0.087906 0.033185
v -0.072688 0.08733 0.034092
v -0.072983 0.086746 0.034964
v -0.073391 0.086169 0.035788
v -0.073928 0.085614 0.036549
v -0.074603 0.085101 0.037224
v -0.075203 0.084759 0.037658
v -0.075862 0.084463 0.038026
v -0.076336 0.084302 0.038224
v -0.076834 0.08417 0.038383
v -0.077355 0.084069 0.038505
v -0.078424 0.083959 0.038635
v -0.080578 0.084059 0.038517
v -0.081106 0.084152 0.038405
v -0.081606 0.084274 0.038258
v -0.082091 0.084429 0.038069
v -0.082545 0.084612 0.037842
v -0.082965 0.084822 0.03758
v -0.083524 0.085184 0.037115
v -0.084006 0.085582 0.036591
v -0.084508 0.086149 0.035815
v -0.084875 0.086736 0.034977
v -0.085129 0.087326 0.034097
v -0.085289 0.087906 0.033185
v -0.072817 0.087049 0.034516
v -0.077885 0.083999 0.038588
v -0.085022 0.087048 0.034516
v -0.076168 0.084355 0.038159
v -0.081542 0.084256 0.038279
v -0.078855 0.087906 0.033185
v -0.070795 0.083852 0.038762
v -0.070795 0.087051 0.034518
v -0.070795 0.089739 0.029932
v -0.070795 0.09188 0.025067
v -0.070795 0.093446 0.019988
v -0.076168 0.083852 0.038762
v -0.076168 0.089739 0.029932
v -0.076168 0.093446 0.019988
v -0.081542 0.083852 0.038762
v -0.081542 0.089739 0.029932
v -0.081542 0.093446 0.019988
v -0.086916 0.083852 0.038762
v -0.086916 0.087051 0.034518
v -0.086916 0.089739 0.029932
v -0.086916 0.09188 0.025067
v -0.086916 0.093446 0.019988
v -0.060847 0.08946 0.030468
v -0.060785 0.090312 0.02877
v -0.060859 0.089739 0.029932
v -0.034828 0.09188 0.025067
v -0.035382 0.0924 0.023596
v -0.036419 0.093025 0.021576
v -0.037755 0.093516 0.019697
v -0.038945 0.093795 0.018448
v -0.039375 0.093879 0.018046
v -0.04123 0.094129 0.016695
v -0.043257 0.094288 0.015692
v -0.045397 0.094376 0.015061
v -0.047592 0.094413 0.014784
v -0.050112 0.094402 0.014879
v -0.051971 0.094349 0.015296
v -0.05405 0.094221 0.016155
v -0.055038 0.094125 0.016732
v -0.055969 0.094005 0.017397
v -0.056847 0.093858 0.018153
v -0.057652 0.09368 0.018985
v -0.058448 0.093444 0.019988
v -0.059016 0.093219 0.020862
v -0.059549 0.092936 0.021876
v -0.059983 0.092613 0.02294
v -0.060298 0.09226 0.024006
v -0.060748 0.088362 0.032428
v -0.060428 0.087193 0.034298
v -0.059848 0.085976 0.036058
v -0.058977 0.084747 0.037674
v -0.057804 0.083553 0.039111
v -0.057099 0.082986 0.039754
v -0.055487 0.081975 0.040843
v -0.055482 0.081972 0.040845
v -0.054571 0.081531 0.041298
v -0.053611 0.081151 0.041681
v -0.052598 0.080831 0.041997
v -0.050295 0.080364 0.042445
v -0.048285 0.080197 0.042598
v -0.046079 0.080238 0.042561
v -0.043909 0.080535 0.042283
v -0.042859 0.080783 0.042044
v -0.041845 0.081095 0.041737
v -0.03995 0.081891 0.040929
v -0.036862 0.083988 0.038601
v -0.035726 0.085176 0.037128
v -0.034874 0.086387 0.035486
v -0.034318 0.087582 0.0337
v -0.034037 0.088727 0.031803
v -0.034188 0.090774 0.027767
v -0.034642 0.091647 0.025678
v -0.037519 0.093446 0.019987
v -0.040273 0.094016 0.017333
v -0.042221 0.094219 0.01615
v -0.044737 0.094356 0.015215
v -0.048697 0.094415 0.014764
v -0.053031 0.094295 0.015678
v -0.060373 0.087048 0.034516
v -0.058134 0.083852 0.038762
v -0.051551 0.080578 0.042243
v -0.044736 0.080389 0.042421
v -0.040873 0.081466 0.041364
v -0.038275 0.082873 0.039879
v -0.037014 0.083852 0.038762
v -0.034532 0.08705 0.034517
v -0.033995 0.089768 0.029875
v -0.055485 0.094071 0.017035
v -0.060502 0.09188 0.025067
v -0.054003 0.092248 0.024041
v -0.053335 0.092579 0.023047
v -0.052934 0.092723 0.022591
v -0.052499 0.092848 0.022183
v -0.051502 0.093042 0.021521
v -0.050968 0.093107 0.02129
v -0.050388 0.093157 0.021109
v -0.049221 0.093209 0.020912
v -0.048039 0.093217 0.02088
v -0.046574 0.093166 0.021071
v -0.04572 0.093098 0.021317
v -0.045168 0.093032 0.021551
v -0.044644 0.092952 0.021832
v -0.044147 0.092854 0.022162
v -0.043677 0.09274 0.02254
v -0.042848 0.092464 0.023405
v -0.042178 0.092126 0.024392
v -0.041669 0.091734 0.025454
v -0.041303 0.091296 0.026554
v -0.040988 0.090566 0.028218
v -0.0545 0.09188 0.025067
v -0.050112 0.093174 0.021045
v -0.041834 0.09188 0.025067
v -0.044736 0.092967 0.021778
v -0.0528 0.090312 0.02877
v -0.044736 0.090312 0.02877
v -0.041071 0.087906 0.033185
v -0.041267 0.087329 0.034092
v -0.04156 0.086746 0.034965
v -0.041966 0.086168 0.03579
v -0.042504 0.085613 0.036551
v -0.043182 0.085102 0.037223
v -0.043989 0.084655 0.03779
v -0.04444 0.084464 0.038026
v -0.044915 0.084302 0.038223
v -0.045413 0.084171 0.038383
v -0.045934 0.084069 0.038505
v -0.046457 0.084 0.038587
v -0.047003 0.083959 0.038635
v -0.049157 0.084059 0.038517
v -0.049686 0.084152 0.038405
v -0.050185 0.084274 0.038258
v -0.050671 0.084428 0.038069
v -0.051125 0.084612 0.037843
v -0.051545 0.084822 0.03758
v -0.052104 0.085184 0.037115
v -0.052585 0.085582 0.036591
v -0.053088 0.086149 0.035815
v -0.053455 0.086736 0.034977
v -0.053709 0.087326 0.034097
v -0.05387 0.087906 0.033185
v -0.041395 0.087049 0.034516
v -0.042825 0.08535 0.0369
v -0.053603 0.087048 0.034516
v -0.044736 0.084359 0.038154
v -0.050112 0.084254 0.038282
v -0.047424 0.087906 0.033185
v -0.039361 0.083852 0.038762
v -0.039361 0.087051 0.034518
v -0.039361 0.089739 0.029932
v -0.039361 0.09188 0.025067
v -0.039361 0.093446 0.019988
v -0.044736 0.083852 0.038762
v -0.044736 0.089739 0.029932
v -0.044736 0.093446 0.019988
v -0.050112 0.083852 0.038762
v -0.050112 0.089739 0.029932
v -0.050112 0.093446 0.019988
v -0.055487 0.083852 0.038762
v -0.055487 0.087051 0.034518
v -0.055487 0.089739 0.029932
v -0.055487 0.09188 0.025067
v -0.055487 0.093446 0.019988
v -0.03012 0.080433 0.042376
v -0.028814 0.080197 0.042598
v -0.027459 0.080208 0.042588
v -0.026119 0.080361 0.042445
v -0.024771 0.080684 0.042137
v -0.023627 0.081115 0.041716
v -0.022537 0.081685 0.041141
v -0.021582 0.082352 0.040444
v -0.020165 0.083767 0.038862
v -0.020093 0.083812 0.038809
v -0.029586 0.080277 0.042523
v -0.02923 0.080227 0.04257
v -0.029884 0.080345 0.042459
v -0.020093 0.080668 0.042151
v -0.014071 0.080668 0.042151
v -0.019421 0.080668 0.042151
v -0.014071 0.093285 0.020621
v -0.014071 0.091695 0.025556
v -0.014071 0.089559 0.03028
v -0.014071 0.086905 0.034734
v -0.014071 0.083767 0.038862
v -0.020181 0.09431 0.015538
v -0.02094 0.088813 0.031654
v -0.02094 0.089559 0.03028
v -0.02094 0.091695 0.025556
v -0.02094 0.093285 0.020621
v -0.021002 0.088163 0.032761
v -0.021871 0.086497 0.035324
v -0.022193 0.086188 0.035765
v -0.022574 0.08589 0.036178
v -0.023005 0.085615 0.03655
v -0.023483 0.08536 0.036888
v -0.023994 0.085136 0.037179
v -0.02454 0.084942 0.037428
v -0.025121 0.08478 0.037632
v -0.025713 0.084656 0.037788
v -0.026967 0.084518 0.03796
v -0.028862 0.084489 0.037995
v -0.03012 0.084584 0.037877
v -0.021568 0.086864 0.034788
v -0.02477 0.084873 0.037515
v -0.03012 0.083767 0.038862
v -0.019421 0.083767 0.038862
v -0.019421 0.086905 0.034734
v -0.019421 0.089559 0.03028
v -0.019421 0.091695 0.025556
v -0.019421 0.093285 0.020621
v -0.02477 0.083767 0.038862
v -0.002058 0.08437 0.03814
v -0.0057055 0.08437 0.03814
v -0.008604 0.083379 0.039311
v -0.002058 0.080668 0.042151
v -0.002058 0.079546 0.043195
v 0.0039 0.075281 0.046598
v 0.004811 0.080668 0.042151
v 0.004811 0.079546 0.043195
v 0.008785 0.080668 0.042151
v 0.008785 0.084361 0.038152
v 0.008785 0.083379 0.039311
v 0.004811 0.084361 0.038152
v 0.004811 0.091979 0.024801
v 0.004811 0.091774 0.025349
v 0.004811 0.089536 0.030325
v 0.004811 0.086724 0.035001
v 0.002989 0.093408 0.020143
v 0.004428 0.093023 0.021564
v 0.004184 0.093247 0.020748
v 0.002546 0.093928 0.017798
v 0.001975 0.094046 0.017171
v 0.00135 0.094144 0.016608
v 0.000678 0.094224 0.016118
v -2.7e-05 0.094285 0.015711
v -0.000778 0.094333 0.015376
v -0.002327 0.094392 0.014945
v -0.003913 0.094412 0.014784
v -0.005504 0.094404 0.014849
v -0.008604 0.093408 0.020143
v 0.004723 0.092531 0.023191
v 0.002989 0.09381 0.01838
v -0.001542 0.094368 0.015125
v -0.002807 0.094402 0.01487
v 0.003954 0.093404 0.020141
v -0.008604 0.09302 0.021593
v -0.007812 0.09308 0.02138
v -0.007004 0.093117 0.02125
v -0.006189 0.093132 0.021192
v -0.005372 0.09313 0.0212
v -0.0043615 0.09308 0.02138
v -0.003792 0.093018 0.021599
v -0.003432 0.092957 0.021814
v -0.003114 0.092881 0.022074
v -0.002835 0.092789 0.022379
v -0.002599 0.09268 0.022729
v -0.002416 0.092564 0.023094
v -0.002188 0.092294 0.023901
v -0.002058 0.091859 0.025123
v -0.004965 0.093118 0.021243
v -0.002807 0.092778 0.022415
v -0.002058 0.086724 0.035001
v -0.002058 0.089536 0.030325
v -0.002058 0.091774 0.025349
v 0.002989 0.079546 0.043195
v 0.002989 0.083379 0.039311
v 0.002989 0.086724 0.035001
v 0.002989 0.089536 0.030325
v 0.002989 0.091774 0.025349
v -0.002807 0.083379 0.039311
v -0.002807 0.093408 0.020143
v 0.028084 0.087085 0.034467
v 0.028171 0.086072 0.035928
v 0.028463 0.085021 0.037327
v 0.029075 0.083863 0.038749
v 0.029396 0.083433 0.039248
v 0.029851 0.082935 0.03981
v 0.030387 0.082457 0.040332
v 0.03099 0.082012 0.040804
v 0.031658 0.081603 0.041226
v 0.03238 0.081243 0.041589
v 0.033241 0.080904 0.041924
v 0.033967 0.080679 0.04214
v 0.034797 0.080484 0.042327
v 0.035675 0.080337 0.042467
v 0.037436 0.080194 0.042601
v 0.039208 0.080212 0.042584
v 0.040966 0.080374 0.042433
v 0.04268 0.080701 0.04212
v 0.044304 0.081209 0.041622
v 0.045066 0.081532 0.041298
v 0.045782 0.081896 0.040925
v 0.047067 0.082731 0.040035
v 0.048137 0.083668 0.038978
v 0.028086 0.086905 0.034735
v 0.028701 0.084489 0.037995
v 0.038587 0.08019 0.042604
v 0.04384 0.081041 0.041789
v 0.046451 0.082298 0.040503
v 0.048152 0.080668 0.042151
v 0.054344 0.080668 0.042151
v 0.049092 0.080668 0.042151
v 0.054344 0.093285 0.020621
v 0.054344 0.091695 0.025556
v 0.054344 0.089559 0.03028
v 0.054344 0.086905 0.034734
v 0.054344 0.083767 0.038862
v 0.048283 0.094305 0.015574
v 0.047475 0.088634 0.031966
v 0.047475 0.089559 0.03028
v 0.047475 0.091695 0.025556
v 0.047475 0.093285 0.020621
v 0.047433 0.088086 0.03289
v 0.047051 0.086952 0.034659
v 0.046674 0.086389 0.035479
v 0.046157 0.085849 0.036233
v 0.045306 0.085237 0.037046
v 0.044706 0.08492 0.037456
v 0.044266 0.084737 0.037687
v 0.043799 0.084578 0.037885
v 0.042809 0.08434 0.038177
v 0.041242 0.084179 0.038372
v 0.039654 0.084185 0.038368
v 0.03861 0.084302 0.038229
v 0.038092 0.084403 0.038106
v 0.037614 0.08453 0.037949
v 0.037146 0.084693 0.037745
v 0.036723 0.084885 0.037502
v 0.03634 0.085108 0.037215
v 0.035865 0.085492 0.036711
v 0.03549 0.085912 0.036143
v 0.035168 0.0865 0.035319
v 0.035002 0.087094 0.03445
v 0.034953 0.087676 0.033555
v 0.045844 0.085594 0.036578
v 0.043312 0.084446 0.038048
v 0.038588 0.084306 0.038224
v 0.035307 0.086204 0.035738
v 0.035041 0.086903 0.034733
v 0.04384 0.084591 0.037869
v 0.034953 0.093285 0.020621
v 0.034953 0.091695 0.025556
v 0.034953 0.089559 0.03028
v 0.03071 0.09431 0.015538
v 0.028084 0.089559 0.03028
v 0.028084 0.091695 0.025556
v 0.028084 0.093285 0.020621
v 0.049092 0.083767 0.038862
v 0.049092 0.086905 0.034734
v 0.049092 0.089559 0.03028
v 0.049092 0.091695 0.025556
v 0.049092 0.093285 0.020621
v 0.04384 0.083767 0.038862
v 0.038588 0.083767 0.038862
v 0.033336 0.083767 0.038862
v 0.033336 0.086905 0.034734
v 0.033336 0.089559 0.03028
v 0.033336 0.091695 0.025556
v 0.033336 0.093285 0.020621
v 0.077139 0.094408 0.014816
v 0.074687 0.094392 0.014963
v 0.072266 0.094329 0.015439
v 0.069925 0.094198 0.016289
v 0.067728 0.09398 0.017531
v 0.066698 0.093828 0.0183
v 0.065752 0.093646 0.019147
v 0.064647 0.093352 0.020364
v 0.064088 0.093161 0.021091
v 0.063398 0.092858 0.022151
v 0.062796 0.092509 0.023266
v 0.062621 0.092386 0.023638
v 0.062303 0.092124 0.024395
v 0.061809 0.091548 0.025922
v 0.06141 0.09072 0.027886
v 0.061259 0.089621 0.030161
v 0.071861 0.094312 0.015556
v 0.068799 0.0941 0.016864
v 0.06656 0.093805 0.018414
v 0.061259 0.077306 0.045085
v 0.061259 0.081716 0.04111
v 0.061259 0.085578 0.036599
v 0.061259 0.088827 0.031629
v 0.067629 0.07242 0.048459
v 0.068698 0.08935 0.030677
v 0.068698 0.088827 0.031629
v 0.068698 0.085578 0.036599
v 0.068698 0.081716 0.04111
v 0.068698 0.077306 0.045085
v 0.068847 0.090308 0.028767
v 0.069284 0.091178 0.026838
v 0.06982 0.091682 0.025587
v 0.070171 0.091911 0.024984
v 0.07103 0.0923 0.023892
v 0.071539 0.092461 0.023414
v 0.072092 0.0926 0.022987
v 0.07269 0.092717 0.022613
v 0.073308 0.092812 0.022303
v 0.075319 0.09299 0.0217
v 0.076702 0.093034 0.021545
v 0.078093 0.093034 0.021546
v 0.079476 0.09299 0.021701
v 0.081487 0.092812 0.022304
v 0.082105 0.092717 0.022613
v 0.082703 0.0926 0.022988
v 0.083255 0.09246 0.023416
v 0.083762 0.092299 0.023897
v 0.084422 0.092012 0.024707
v 0.084977 0.091682 0.025589
v 0.085515 0.091178 0.026838
v 0.085954 0.090308 0.028767
v 0.086103 0.08935 0.030677
v 0.069494 0.091408 0.026281
v 0.071861 0.092546 0.023154
v 0.077162 0.093038 0.02153
v 0.082462 0.09265 0.022827
v 0.085304 0.091408 0.026281
v 0.086103 0.077306 0.045085
v 0.086103 0.081716 0.04111
v 0.086103 0.085578 0.036599
v 0.086103 0.088827 0.031629
v 0.090413 0.07242 0.048459
v 0.093064 0.089621 0.030161
v 0.093064 0.088827 0.031629
v 0.093064 0.085578 0.036599
v 0.093064 0.081716 0.04111
v 0.093064 0.077306 0.045085
v 0.091511 0.092512 0.023259
v 0.090904 0.092861 0.02214
v 0.090215 0.093163 0.021081
v 0.089426 0.093427 0.02007
v 0.08855 0.093649 0.019132
v 0.087603 0.093832 0.018284
v 0.08657 0.093983 0.017514
v 0.083414 0.094256 0.015916
v 0.08202 0.09433 0.015432
v 0.079595 0.094392 0.014961
v 0.092912 0.090722 0.027883
v 0.092411 0.091693 0.025557
v 0.092009 0.092126 0.02439
v 0.09169 0.092386 0.023637
v 0.089893 0.09328 0.020646
v 0.085496 0.094103 0.016848
v 0.077162 0.094408 0.014816
v 0.092607 0.091407 0.02628
v 0.087763 0.077306 0.045085
v 0.087763 0.081716 0.04111
v 0.087763 0.085578 0.036599
v 0.087763 0.088827 0.031628
v 0.087763 0.091408 0.026281
v 0.087763 0.093279 0.020645
v 0.082463 0.093279 0.020645
v 0.077162 0.093279 0.020645
v 0.071861 0.093279 0.020645
v 0.06656 0.077306 0.045085
v 0.06656 0.081716 0.04111
v 0.06656 0.085578 0.036599
v 0.06656 0.088827 0.031628
v 0.06656 0.091408 0.026281
v 0.06656 0.093279 0.020645
v -0.015886 -0.073268 0.048215
v -0.015886 -0.077968 0.044913
v -0.015886 -0.08912 0.031896
v -0.021414 -0.073268 0.048215
v -0.015886 -0.085956 0.036689
v -0.021414 -0.091662 0.026745
v -0.021414 -0.093543 0.021318
v -0.026942 -0.073268 0.048215
v -0.026942 -0.085956 0.036689
v -0.026942 -0.093543 0.021318
v -0.032471 -0.073268 0.048215
v -0.032471 -0.093543 0.021318
v -0.037999 -0.073268 0.048215
v -0.037999 -0.077968 0.044913
v -0.037999 -0.093543 0.021318
v -0.043527 -0.082219 0.041051
v -0.043527 -0.085956 0.036689
v -0.043527 -0.08912 0.031896
v -0.043527 -0.091662 0.026745
v -0.043527 -0.093543 0.021318
v -0.015886 -0.069655 0.050214
v -0.011623 -0.073268 0.048214
v -0.010357 -0.077135 0.045564
v -0.012819 -0.077968 0.044913
v -0.015886 -0.084412 0.038626
v -0.011713 -0.084412 0.038626
v -0.012281 -0.085956 0.036689
v -0.013172 -0.088182 0.033457
v -0.015886 -0.091604 0.026882
v -0.021414 -0.068274 0.05087
v -0.017991 -0.078007 0.044876
v -0.021415 -0.074718 0.047292
v -0.021414 -0.084412 0.038626
v -0.020904 -0.08912 0.031895
v -0.020509 -0.088405 0.033098
v -0.021414 -0.093839 0.020195
v -0.029038 -0.068874 0.050591
v -0.026942 -0.074301 0.047563
v -0.026942 -0.084412 0.038626
v -0.023841 -0.091662 0.026745
v -0.026942 -0.092596 0.024322
v -0.026942 -0.09454 0.016894
v -0.035361 -0.071411 0.049295
v -0.032471 -0.076382 0.046126
v -0.027578 -0.085956 0.036689
v -0.02701 -0.084412 0.038626
v -0.032471 -0.092981 0.023185
v -0.032471 -0.094728 0.015728
v -0.037999 -0.073079 0.048331
v -0.034628 -0.077967 0.044912
v -0.038165 -0.092114 0.025621
v -0.037999 -0.09464 0.016299
v -0.04337 -0.077967 0.044913
v -0.037999 -0.081736 0.041539
v -0.043527 -0.078149 0.044767
v -0.040119 -0.085955 0.036689
v -0.040619 -0.089118 0.031895
v -0.043527 -0.094024 0.019431
v -0.047397 -0.084122 0.038967
v -0.048127 -0.085955 0.036689
v -0.048737 -0.089117 0.031894
v -0.047982 -0.091671 0.026724
v -0.045259 -0.093541 0.021318
v -0.011806 -0.072992 0.048382
v -0.012288 -0.072362 0.048756
v -0.012838 -0.071765 0.049098
v -0.013758 -0.070966 0.049536
v -0.015552 -0.069819 0.050132
v -0.010584 -0.075697 0.046618
v -0.011047 -0.074342 0.047535
v -0.011392 -0.073653 0.047976
v -0.014848 -0.090619 0.028986
v -0.017079 -0.069163 0.050454
v -0.020419 -0.068381 0.050821
v -0.020868 -0.074937 0.047144
v -0.020451 -0.075144 0.047002
v -0.020056 -0.075379 0.04684
v -0.019509 -0.075792 0.04655
v -0.019025 -0.076254 0.046218
v -0.018744 -0.076594 0.045967
v -0.018307 -0.077283 0.045445
v -0.017774 -0.078776 0.044248
v -0.020774 -0.088904 0.032267
v -0.021414 -0.089825 0.03062
v -0.018544 -0.092964 0.023164
v -0.015971 -0.091666 0.026734
v -0.020584 -0.093646 0.020933
v -0.023917 -0.06826 0.050876
v -0.026702 -0.074268 0.047584
v -0.025714 -0.074184 0.047638
v -0.023732 -0.074231 0.04761
v -0.022719 -0.074372 0.04752
v -0.021797 -0.074594 0.047375
v -0.022333 -0.090691 0.028886
v -0.024044 -0.091755 0.026522
v -0.025531 -0.092278 0.025193
v -0.026365 -0.092482 0.02464
v -0.025464 -0.094423 0.017541
v -0.022411 -0.094029 0.019412
v -0.032301 -0.069937 0.050072
v -0.031315 -0.075726 0.046598
v -0.029094 -0.074807 0.047228
v -0.027676 -0.074427 0.04748
v -0.027251 -0.092649 0.024172
v -0.028167 -0.092777 0.0238
v -0.030106 -0.092937 0.023321
v -0.031095 -0.092973 0.023212
v -0.032174 -0.094725 0.015747
v -0.030451 -0.094695 0.015945
v -0.028756 -0.094639 0.016307
v -0.033652 -0.077216 0.045495
v -0.037775 -0.081415 0.041857
v -0.036231 -0.079544 0.043581
v -0.033078 -0.092968 0.023224
v -0.034084 -0.092921 0.02337
v -0.035493 -0.092775 0.023804
v -0.036824 -0.09254 0.02448
v -0.037621 -0.092317 0.025089
v -0.035622 -0.094715 0.01582
v -0.034049 -0.094731 0.015706
v -0.038262 -0.073268 0.048216
v -0.040683 -0.075231 0.046942
v -0.039554 -0.084545 0.038451
v -0.038601 -0.082678 0.04057
v -0.040636 -0.088905 0.032262
v -0.040586 -0.088031 0.033668
v -0.040245 -0.086347 0.036161
v -0.039448 -0.091365 0.027433
v -0.040161 -0.090539 0.02922
v -0.040537 -0.089601 0.031034
v -0.03899 -0.091695 0.02666
v -0.042146 -0.094271 0.018309
v -0.039004 -0.094585 0.016632
v -0.045487 -0.080787 0.042425
v -0.048445 -0.087203 0.034891
v -0.048562 -0.090372 0.029536
v -0.048089 -0.091513 0.027098
v -0.047539 -0.092193 0.025413
v -0.046376 -0.093021 0.023028
v -0.044826 -0.093687 0.020782
v 0.018074 -0.082051 0.041223
v 0.018074 -0.085839 0.036843
v 0.018074 -0.089047 0.032022
v 0.018074 -0.091624 0.026837
v 0.012746 -0.082051 0.041223
v 0.012746 -0.091624 0.026837
v 0.012746 -0.093529 0.021368
v 0.007418 -0.082051 0.041223
v 0.007418 -0.093529 0.021368
v 0.00209 -0.082051 0.041223
v 0.00209 -0.093529 0.021368
v -0.003238 -0.085839 0.036843
v -0.003238 -0.089047 0.032022
v -0.003238 -0.091624 0.026837
v -0.003238 -0.093529 0.021368
v 0.018087 -0.079139 0.043944
v 0.021735 -0.082051 0.041223
v 0.022342 -0.089047 0.032022
v 0.020104 -0.091624 0.026837
v 0.018074 -0.092768 0.023826
v 0.012746 -0.077799 0.045049
v 0.015513 -0.085839 0.036843
v 0.012746 -0.082593 0.040661
v 0.014891 -0.089047 0.032022
v 0.012747 -0.09137 0.027421
v 0.015912 -0.093528 0.021368
v 0.012746 -0.094182 0.018729
v 0.007418 -0.078064 0.044839
v 0.011189 -0.077743 0.045092
v 0.007418 -0.082373 0.040892
v 0.012269 -0.091659 0.026749
v 0.007418 -0.093076 0.022891
v 0.007418 -0.094655 0.016207
v 0.00209 -0.079685 0.043468
v 0.002089 -0.085264 0.03758
v 0.00209 -0.092978 0.023195
v -0.002062 -0.082051 0.041223
v 0.001521 -0.085836 0.036842
v -0.003238 -0.08296 0.04027
v -0.000477 -0.089047 0.032022
v -0.000455 -0.091623 0.026836
v -0.003238 -0.094374 0.017796
v -0.00607 -0.085839 0.036843
v -0.007924 -0.089047 0.032022
v -0.0064398 -0.093545 0.021303
v 0.021172 -0.081368 0.041905
v 0.020294 -0.080536 0.042697
v 0.01926 -0.079788 0.043377
v 0.023028 -0.08502 0.037885
v 0.022798 -0.084089 0.039005
v 0.022422 -0.083177 0.040034
v 0.02187 -0.08224 0.041029
v 0.02264 -0.088391 0.033122
v 0.02306 -0.086778 0.035557
v 0.023109 -0.085871 0.036796
v 0.020776 -0.091078 0.028082
v 0.021875 -0.089828 0.030615
v 0.019335 -0.092128 0.025587
v 0.01996 -0.091727 0.026589
v 0.016822 -0.078616 0.044387
v 0.015495 -0.078224 0.044712
v 0.014067 -0.077946 0.044935
v 0.012769 -0.082602 0.040652
v 0.013128 -0.082761 0.040483
v 0.013462 -0.082941 0.04029
v 0.013773 -0.083141 0.040073
v 0.014197 -0.083485 0.039693
v 0.014753 -0.08409 0.039004
v 0.015096 -0.084622 0.038375
v 0.01533 -0.085141 0.037737
v 0.015484 -0.085686 0.037042
v 0.015562 -0.086731 0.035629
v 0.015406 -0.087725 0.03417
v 0.015079 -0.088657 0.032685
v 0.014758 -0.089286 0.031602
v 0.014614 -0.089521 0.031177
v 0.014002 -0.090314 0.029667
v 0.013224 -0.09103 0.028179
v 0.017571 -0.092977 0.023196
v 0.013185 -0.094114 0.019038
v 0.015515 -0.093634 0.02098
v 0.01267 -0.077794 0.045053
v 0.008308 -0.077929 0.044946
v 0.008106 -0.082242 0.041028
v 0.009833 -0.082109 0.041163
v 0.011557 -0.082257 0.041013
v 0.011979 -0.082348 0.040918
v 0.012388 -0.082464 0.040796
v 0.011134 -0.092193 0.025417
v 0.009824 -0.092628 0.024231
v 0.00909 -0.092806 0.023713
v 0.008335 -0.092949 0.023283
v 0.007525 -0.093063 0.022929
v 0.007888 -0.094633 0.016342
v 0.009282 -0.09455 0.01684
v 0.010625 -0.094438 0.01746
v 0.005506 -0.078483 0.044497
v 0.002854 -0.079364 0.043749
v 0.002537 -0.084865 0.038077
v 0.00367 -0.084013 0.039094
v 0.004977 -0.083249 0.039954
v 0.006464 -0.082636 0.040616
v 0.007274 -0.082406 0.040857
v 0.006692 -0.093143 0.022676
v 0.005839 -0.09319 0.022524
v 0.004964 -0.093205 0.022473
v 0.004065 -0.093188 0.02253
v 0.00324 -0.093136 0.022701
v 0.002816 -0.093091 0.022843
v 0.002408 -0.093034 0.023022
v 0.002118 -0.09472 0.015783
v 0.003589 -0.094731 0.015704
v 0.005035 -0.094721 0.015773
v 0.006236 -0.094696 0.01594
v 0.000404 -0.080509 0.042723
v -0.001793 -0.08186 0.041417
v -0.000281 -0.088563 0.03284
v 0.000186 -0.087642 0.034294
v 0.000801 -0.086705 0.03566
v -0.000544 -0.091475 0.027185
v -0.000696 -0.091094 0.028045
v -0.00077 -0.090298 0.029707
v -0.000611 -0.089449 0.031311
v -0.00056 -0.089286 0.031604
v 0.002027 -0.092965 0.023233
v 0.001668 -0.092884 0.023479
v 0.001332 -0.092791 0.023757
v 0.001019 -0.092685 0.024067
v 0.000461 -0.09243 0.024783
v 3.3e-05 -0.092146 0.025539
v -0.000311 -0.091817 0.02637
v -0.002061 -0.094511 0.017059
v -0.000694 -0.094617 0.016439
v 0.00068 -0.094683 0.016026
v -0.003701 -0.083354 0.039839
v -0.005303 -0.084925 0.038005
v -0.00657 -0.08652 0.035924
v -0.007499 -0.088083 0.033614
v -0.008102 -0.089566 0.031098
v -0.008322 -0.090934 0.02839
v -0.0082458 -0.091577 0.026944
v -0.008205 -0.091726 0.026588
v -0.008033 -0.092147 0.025536
v -0.0073301 -0.093018 0.023081
v -0.005542 -0.093888 0.019995
v -0.004511 -0.094154 0.018857
v -0.003325 -0.094362 0.017859
v -0.007652 -0.093473 0.024843
v -0.008032 -0.092464 0.025852
v -0.007129 -0.094403 0.023914
v 0.01757 -0.094049 0.024268
v 0.019335 -0.092429 0.025888
v 0.054285 -0.073177 0.048271
v 0.054285 -0.077797 0.045049
v 0.054285 -0.081988 0.041286
v 0.048316 -0.073177 0.048271
v 0.048316 -0.085689 0.03704
v 0.048316 -0.093329 0.022062
v 0.042347 -0.073177 0.048271
v 0.042347 -0.088842 0.032373
v 0.042347 -0.093329 0.022062
v 0.036377 -0.073177 0.048271
v 0.036377 -0.077797 0.045049
v 0.036377 -0.091402 0.027355
v 0.036377 -0.093329 0.022062
v 0.030408 -0.093329 0.022062
v 0.054285 -0.069211 0.050432
v 0.060012 -0.077761 0.045075
v 0.058299 -0.081989 0.041286
v 0.054285 -0.085374 0.037444
v 0.054285 -0.09284 0.023612
v 0.054436 -0.09284 0.023612
v 0.054285 -0.093068 0.022914
v 0.048316 -0.068199 0.050903
v 0.052307 -0.077795 0.045047
v 0.048316 -0.074011 0.04775
v 0.050481 -0.081989 0.041286
v 0.053752 -0.085689 0.037039
v 0.048316 -0.083692 0.039456
v 0.048316 -0.088396 0.033113
v 0.054104 -0.093329 0.022063
v 0.048316 -0.09284 0.023612
v 0.053002 -0.094595 0.016574
v 0.048316 -0.094595 0.016574
v 0.042347 -0.069091 0.050488
v 0.042348 -0.074817 0.047223
v 0.04475 -0.085689 0.03704
v 0.045049 -0.085537 0.037235
v 0.048044 -0.088515 0.032919
v 0.0473 -0.088842 0.032373
v 0.042347 -0.086868 0.035436
v 0.042347 -0.090853 0.028568
v 0.042347 -0.09284 0.023612
v 0.042347 -0.094595 0.016574
v 0.036377 -0.072279 0.048805
v 0.037461 -0.078934 0.044117
v 0.036377 -0.078356 0.044599
v 0.037998 -0.088842 0.032373
v 0.036378 -0.089523 0.031178
v 0.040847 -0.091402 0.027355
v 0.036433 -0.09284 0.023612
v 0.036377 -0.094595 0.016574
v 0.035347 -0.073177 0.048271
v 0.035346 -0.077797 0.045049
v 0.032667 -0.076309 0.04618
v 0.031455 -0.091402 0.027356
v 0.030409 -0.091762 0.026504
v 0.030408 -0.094595 0.016574
v 0.025543 -0.093329 0.022063
v 0.025618 -0.093222 0.022417
v 0.024439 -0.094595 0.016574
v 0.058413 -0.072211 0.048845
v 0.057539 -0.071259 0.04938
v 0.056488 -0.070407 0.049832
v 0.055349 -0.06971 0.050186
v 0.060061 -0.076649 0.045928
v 0.059935 -0.075498 0.046756
v 0.059624 -0.074379 0.047511
v 0.059085 -0.073215 0.048247
v 0.0585 -0.081716 0.041561
v 0.05906 -0.080811 0.042439
v 0.059473 -0.079916 0.043262
v 0.059819 -0.078823 0.044211
v 0.05431 -0.085359 0.037463
v 0.056191 -0.084062 0.039037
v 0.057821 -0.08256 0.040695
v 0.054083 -0.06913 0.050471
v 0.052801 -0.068714 0.05067
v 0.051421 -0.068418 0.050807
v 0.050049 -0.068253 0.05088
v 0.048666 -0.068198 0.050904
v 0.048454 -0.074033 0.047736
v 0.049292 -0.074227 0.047611
v 0.04967 -0.074355 0.047528
v 0.050034 -0.074509 0.047427
v 0.050397 -0.074698 0.047302
v 0.050732 -0.074913 0.047158
v 0.051037 -0.075152 0.046996
v 0.051314 -0.075415 0.046815
v 0.05156 -0.075699 0.046616
v 0.051772 -0.075997 0.046404
v 0.051948 -0.076309 0.046178
v 0.052089 -0.076634 0.045938
v 0.052259 -0.077275 0.045452
v 0.052307 -0.07796 0.044915
v 0.05225 -0.07859 0.044404
v 0.0521 -0.07925 0.043848
v 0.051612 -0.080451 0.042776
v 0.050879 -0.081544 0.041732
v 0.049923 -0.082513 0.040745
v 0.048805 -0.083365 0.039823
v 0.050179 -0.087545 0.034441
v 0.052276 -0.0865 0.03595
v 0.045904 -0.068348 0.050836
v 0.043188 -0.068851 0.050602
v 0.042706 -0.074666 0.047324
v 0.043481 -0.074393 0.047505
v 0.044279 -0.074181 0.047643
v 0.045107 -0.074029 0.04774
v 0.046781 -0.073908 0.047816
v 0.047652 -0.073937 0.047797
v 0.0476 -0.08414 0.03894
v 0.046342 -0.08486 0.038082
v 0.040585 -0.069739 0.050172
v 0.039349 -0.070327 0.049873
v 0.038174 -0.071 0.049518
v 0.039384 -0.076767 0.04584
v 0.04059 -0.07581 0.046538
v 0.041255 -0.075382 0.046838
v 0.041961 -0.074998 0.047101
v 0.038368 -0.077796 0.045048
v 0.036023 -0.072572 0.048633
v 0.034183 -0.074373 0.047515
v 0.29763 0.038698 0.021627
v 0.29823 0.038348 0.02177
v 0.29701 0.039037 0.021566
v 0.29575 0.039677 0.021643
v 0.29464 0.040192 0.021891
v 0.29449 0.040259 0.021939
v 0.29388 0.04052 0.022174
v 0.29328 0.040758 0.022472
v 0.2927 0.040968 0.022834
v 0.29216 0.041145 0.023254
v 0.29166 0.04129 0.02373
v 0.29119 0.041402 0.024257
v 0.29039 0.04153 0.025422
v 0.28976 0.041543 0.02669
v 0.28927 0.041458 0.028018
v 0.28921 0.041441 0.028193
v 0.29252 0.039954 0.027507
v 0.2889 0.041292 0.029379
v 0.28863 0.041058 0.030753
v 0.28845 0.040767 0.03213
v 0.28833 0.040428 0.033504
v 0.28833 0.040427 0.033508
v 0.29159 0.038983 0.032813
v 0.28829 0.040041 0.034868
v 0.28833 0.0396 0.036216
v 0.28848 0.039097 0.037534
v 0.28868 0.038696 0.038439
v 0.28878 0.038522 0.038797
v 0.28899 0.038206 0.039395
v 0.28926 0.037872 0.039961
v 0.28958 0.03752 0.040486
v 0.27741 0.046006 0.032575
v 0.2766 0.046125 0.033537
v 0.27823 0.045873 0.031626
v 0.27904 0.045738 0.030673
v 0.27994 0.045581 0.029625
v 0.28067 0.045449 0.028769
v 0.28139 0.045315 0.027936
v 0.28095 0.045174 0.029368
v 0.28149 0.045296 0.027818
v 0.2823 0.045137 0.026867
v 0.28167 0.045408 0.026961
v 0.28249 0.045686 0.023958
v 0.27845 0.046788 0.027443
v 0.27777 0.047081 0.027544
v 0.27461 0.048466 0.028017
v 0.27486 0.048982 0.025101
v 0.27867 0.047319 0.02453
v 0.27892 0.047212 0.024493
v 0.28299 0.045468 0.023883
v 0.28628 0.04401 0.02339
v 0.28524 0.043572 0.027516
v 0.28704 0.043666 0.023277
v 0.28685 0.043226 0.025667
v 0.28593 0.043427 0.026729
v 0.285 0.043621 0.027792
v 0.28414 0.043795 0.028791
v 0.28408 0.043806 0.028856
v 0.28316 0.043983 0.02992
v 0.28223 0.044151 0.030986
v 0.28131 0.04431 0.032052
v 0.27946 0.0446 0.034187
v 0.27923 0.044632 0.034457
v 0.28038 0.04446 0.033119
v 0.27519 0.046262 0.035416
v 0.27896 0.044667 0.034771
v 0.27776 0.044741 0.03645
v 0.27744 0.044698 0.037083
v 0.27721 0.0446 0.037748
v 0.27708 0.044448 0.038429
v 0.27703 0.044247 0.039107
v 0.27705 0.044128 0.039441
v 0.27711 0.043995 0.039767
v 0.27726 0.043769 0.040223
v 0.27748 0.043521 0.04063
v 0.27768 0.043342 0.040864
v 0.27792 0.04316 0.04106
v 0.27818 0.042978 0.041214
v 0.27846 0.0428 0.041322
v 0.27877 0.042628 0.041388
v 0.27908 0.042464 0.041414
v 0.2794 0.042309 0.041405
v 0.28005 0.042027 0.041304
v 0.28068 0.041785 0.0411
v 0.28099 0.041684 0.040954
v 0.28129 0.041598 0.040781
v 0.28157 0.041528 0.04058
v 0.28184 0.041475 0.040352
v 0.28209 0.041439 0.040101
v 0.28232 0.041417 0.039832
v 0.28272 0.041417 0.03925
v 0.2829 0.041436 0.038923
v 0.28451 0.040739 0.038608
v 0.28556 0.040019 0.03917
v 0.28505 0.039874 0.040314
v 0.28474 0.039837 0.040859
v 0.28438 0.039827 0.04138
v 0.28399 0.039847 0.041868
v 0.28355 0.039898 0.042321
v 0.28308 0.03998 0.042733
v 0.28258 0.040092 0.043097
v 0.28205 0.040234 0.043414
v 0.28151 0.040404 0.043683
v 0.28039 0.040812 0.04408
v 0.27934 0.041248 0.044301
v 0.2807 0.04178 0.041093
v 0.27924 0.041291 0.044315
v 0.27811 0.041829 0.044384
v 0.27755 0.042121 0.044342
v 0.27701 0.042426 0.044243
v 0.27649 0.042742 0.044084
v 0.27599 0.043066 0.043864
v 0.27553 0.043395 0.043584
v 0.27512 0.043722 0.043245
v 0.27542 0.043476 0.043505
v 0.27475 0.044045 0.042848
v 0.27444 0.044356 0.042399
v 0.27418 0.044654 0.041905
v 0.27399 0.044932 0.041373
v 0.27386 0.045188 0.04081
v 0.27381 0.045358 0.040388
v 0.27701 0.043958 0.040007
v 0.27711 0.043988 0.039784
v 0.27378 0.045622 0.039635
v 0.27382 0.045802 0.039031
v 0.27391 0.045955 0.038424
v 0.27405 0.046078 0.037824
v 0.27424 0.046168 0.037234
v 0.27449 0.046226 0.036656
v 0.2751 0.046264 0.035554
v 0.27582 0.046218 0.034522
v 0.26457 0.056428 0.03486
v 0.26291 0.056298 0.0381
v 0.26411 0.057151 0.03422
v 0.26301 0.058926 0.032699
v 0.26215 0.058906 0.034438
v 0.26143 0.058876 0.035868
v 0.263 0.058943 0.032685
v 0.26058 0.06042 0.0346
v 0.26001 0.061502 0.03374
v 0.2615 0.061507 0.030605
v 0.26397 0.061516 0.024336
v 0.26455 0.060643 0.025033
v 0.26496 0.061521 0.021202
v 0.26671 0.059121 0.023157
v 0.26672 0.05911 0.023166
v 0.26746 0.058804 0.021873
v 0.26591 0.060838 0.020208
v 0.26904 0.056823 0.023571
v 0.27012 0.056939 0.019781
v 0.26672 0.056608 0.030013
v 0.26533 0.05649 0.033243
v 0.26625 0.057265 0.029434
v 0.26434 0.059003 0.02965
v 0.26504 0.059021 0.02793
v 0.26503 0.059035 0.027918
v 0.26341 0.061514 0.025903
v 0.26218 0.06151 0.029038
v 0.26736 0.056664 0.028401
v 0.26564 0.059052 0.026341
v 0.26851 0.056771 0.02518
v 0.26805 0.057361 0.024661
v 0.26615 0.05909 0.024871
v 0.26563 0.059065 0.02633
v 0.26276 0.060534 0.029815
v 0.26372 0.058974 0.031095
v 0.26373 0.058958 0.031109
v 0.25551 -0.059059 0.045474
v 0.25439 -0.06193 0.043147
v 0.25648 -0.061936 0.040011
v 0.2577 -0.059172 0.042249
v 0.25771 -0.059148 0.04227
v 0.25649 -0.059125 0.044056
v 0.25857 -0.057301 0.043855
v 0.2549 -0.060613 0.044194
v 0.2555 -0.059087 0.045451
v 0.25898 -0.056447 0.04461
v 0.25667 -0.056276 0.047885
v 0.26005 -0.056526 0.042979
v 0.27012 -0.057385 0.019781
v 0.25744 -0.061939 0.038443
v 0.25798 -0.060745 0.039391
v 0.2592 -0.061945 0.035308
v 0.26057 -0.059287 0.037461
v 0.26058 -0.059266 0.037479
v 0.26156 -0.057463 0.039025
v 0.25956 -0.059246 0.039239
v 0.26201 -0.056674 0.039724
v 0.25871 -0.059212 0.040652
v 0.25872 -0.059189 0.040671
v 0.26144 -0.059303 0.035884
v 0.26143 -0.059322 0.035868
v 0.26291 -0.056744 0.0381
v 0.26457 -0.056874 0.03486
v 0.26411 -0.057597 0.03422
v 0.26672 -0.059556 0.023166
v 0.26671 -0.059567 0.023157
v 0.26805 -0.057807 0.024661
v 0.26615 -0.059536 0.024871
v 0.26851 -0.057217 0.02518
v 0.26736 -0.05711 0.028401
v 0.26564 -0.059497 0.026341
v 0.26504 -0.059467 0.02793
v 0.26625 -0.05771 0.029434
v 0.26503 -0.059481 0.027918
v 0.26434 -0.059448 0.02965
v 0.26341 -0.06196 0.025903
v 0.26218 -0.061955 0.029038
v 0.26276 -0.06098 0.029815
v 0.26372 -0.05942 0.031095
v 0.26373 -0.059404 0.031109
v 0.26533 -0.056936 0.033243
v 0.26672 -0.057053 0.030013
v 0.26301 -0.059372 0.032699
v 0.2615 -0.061953 0.030605
v 0.26001 -0.061948 0.03374
v 0.26058 -0.060866 0.0346
v 0.26215 -0.059352 0.034438
v 0.263 -0.059389 0.032685
v 0.26496 -0.061967 0.021202
v 0.26397 -0.061962 0.024336
v 0.26455 -0.061089 0.025033
v 0.26563 -0.05951 0.02633
v 0.26746 -0.05925 0.021873
v 0.26904 -0.057269 0.023571
v 0.26591 -0.061284 0.020208
v 0.24744 0.061463 0.051663
v 0.24948 0.061469 0.04942
v 0.25003 0.059013 0.051519
v 0.25012 0.058992 0.051446
v 0.25079 0.056567 0.053528
v 0.24799 0.058948 0.0537
v 0.24531 0.061456 0.053822
v 0.25172 0.058462 0.0503
v 0.25171 0.058497 0.050271
v 0.25267 0.055531 0.052832
v 0.25541 0.055736 0.049528
v 0.25505 0.056655 0.048718
v 0.25432 0.058566 0.047079
v 0.25285 0.05854 0.048899
v 0.25124 0.060017 0.049014
v 0.25431 0.058595 0.047054
v 0.25326 0.061481 0.044715
v 0.25081 0.061473 0.047851
v 0.26005 0.05608 0.042979
v 0.26201 0.056228 0.039724
v 0.25872 0.058743 0.040671
v 0.25871 0.058766 0.040652
v 0.25956 0.0588 0.039239
v 0.25798 0.060299 0.039391
v 0.25744 0.061494 0.038443
v 0.2592 0.061499 0.035308
v 0.26058 0.05882 0.037479
v 0.26156 0.057017 0.039025
v 0.26057 0.058841 0.037461
v 0.26144 0.058857 0.035884
v 0.25771 0.058702 0.04227
v 0.25857 0.056855 0.043855
v 0.2577 0.058726 0.042249
v 0.25649 0.058679 0.044056
v 0.25648 0.061491 0.040011
v 0.25439 0.061484 0.043147
v 0.2549 0.060167 0.044194
v 0.2555 0.058642 0.045451
v 0.25551 0.058614 0.045474
v 0.25667 0.05583 0.047885
v 0.25898 0.056001 0.04461
v 0.30151 0.034637 0.029657
v 0.30152 0.034997 0.028284
v 0.30143 0.035395 0.026924
v 0.30121 0.035846 0.025598
v 0.30119 0.035865 0.025546
v 0.298 0.037414 0.026297
v 0.30081 0.036366 0.024339
v 0.30053 0.036655 0.023754
v 0.3002 0.036966 0.023213
v 0.29979 0.037295 0.022731
v 0.29933 0.03764 0.022323
v 0.2988 0.037994 0.022
v 0.2987 0.038059 0.021951
v 0.29799 0.037423 0.026275
v 0.29794 0.037484 0.026126
v 0.29783 0.037622 0.025815
v 0.29811 0.037231 0.026783
v 0.29827 0.036795 0.02815
v 0.29829 0.036414 0.029544
v 0.29823 0.036064 0.030945
v 0.2982 0.035977 0.031303
v 0.2981 0.035731 0.032346
v 0.29791 0.035418 0.033744
v 0.29763 0.03514 0.035134
v 0.29721 0.034928 0.036498
v 0.2972 0.034925 0.036519
v 0.30056 0.033384 0.035696
v 0.29691 0.034868 0.037155
v 0.29654 0.034859 0.037773
v 0.29632 0.034879 0.038057
v 0.29607 0.03492 0.038318
v 0.2958 0.034982 0.038551
v 0.29551 0.035065 0.03875
v 0.29521 0.035168 0.038913
v 0.29489 0.03529 0.03904
v 0.29457 0.035426 0.039131
v 0.29425 0.035576 0.039189
v 0.29392 0.035735 0.039215
v 0.2936 0.035905 0.039203
v 0.29329 0.036085 0.039148
v 0.293 0.036271 0.039045
v 0.29273 0.036465 0.038892
v 0.2925 0.036654 0.038696
v 0.2923 0.036838 0.038464
v 0.29199 0.037183 0.037915
v 0.29192 0.03728 0.037735
v 0.29171 0.037639 0.036971
v 0.29156 0.038116 0.035731
v 0.29155 0.038151 0.03563
v 0.29094 0.037707 0.03795
v 0.29004 0.03709 0.04103
v 0.29041 0.036776 0.041362
v 0.28997 0.037153 0.040957
v 0.29091 0.036396 0.04169
v 0.29146 0.036021 0.041932
v 0.29205 0.035656 0.042091
v 0.29266 0.035308 0.042169
v 0.29329 0.034978 0.042175
v 0.29456 0.034375 0.042009
v 0.2946 0.034359 0.042002
v 0.2952 0.034104 0.041845
v 0.29583 0.033859 0.041619
v 0.29644 0.033644 0.04133
v 0.29702 0.033464 0.040976
v 0.29758 0.033322 0.040558
v 0.30029 0.033277 0.036482
v 0.29972 0.033153 0.037777
v 0.299 0.033124 0.038995
v 0.29857 0.033154 0.03956
v 0.2981 0.033219 0.040084
v 0.30072 0.033471 0.035144
v 0.30104 0.033715 0.033783
v 0.30127 0.033997 0.032411
v 0.30142 0.034306 0.031034
v 0.30146 0.034431 0.030504
v 0.29539 0.035103 0.038819
v 0.29153 0.038589 0.034253
v 0.29159 0.038971 0.032861
v 0.29171 0.039309 0.031461
v 0.2919 0.039601 0.030058
v 0.29218 0.03983 0.028659
v 0.2926 0.039968 0.027284
v 0.29289 0.039985 0.026622
v 0.29326 0.03995 0.026003
v 0.29348 0.039908 0.025718
v 0.29372 0.039849 0.025455
v 0.29398 0.039771 0.025221
v 0.29402 0.039758 0.025191
v 0.29426 0.039674 0.025018
v 0.29456 0.03956 0.02485
v 0.29487 0.039431 0.024719
v 0.29519 0.03929 0.024622
v 0.29551 0.039139 0.024559
v 0.29584 0.038979 0.024526
v 0.29616 0.038812 0.02453
v 0.29647 0.038638 0.024576
v 0.29677 0.038458 0.024671
v 0.29705 0.038276 0.024819
v 0.29729 0.0381 0.025013
v 0.2975 0.037932 0.025248
v 0.29768 0.037772 0.02552
v 0.24799 -0.059394 0.0537
v 0.25003 -0.059459 0.051519
v 0.25079 -0.057013 0.053528
v 0.24531 -0.061902 0.053822
v 0.24744 -0.061909 0.051663
v 0.25326 -0.061927 0.044715
v 0.25081 -0.061919 0.047851
v 0.25431 -0.059041 0.047054
v 0.25285 -0.058986 0.048899
v 0.25432 -0.059012 0.047079
v 0.25505 -0.057101 0.048718
v 0.25541 -0.056182 0.049528
v 0.25267 -0.055977 0.052832
v 0.25172 -0.058908 0.0503
v 0.25171 -0.058942 0.050271
v 0.25124 -0.060463 0.049014
v 0.25012 -0.059438 0.051446
v 0.24948 -0.061915 0.04942
v 0.32696 0.003824 0.02324
v 0.32696 0.003651 0.023516
v 0.32696 0.004203 0.023251
v 0.32696 0.0045185 0.023354
v 0.32696 0.00468 0.023455
v 0.32696 0.0048185 0.023584
v 0.32696 0.004928 0.023739
v 0.32696 0.004988 0.023869
v 0.32696 0.005015 0.023959
v 0.32696 0.004775 0.024054
v 0.32696 0.004472 0.023962
v 0.32696 0.004414 0.023878
v 0.32696 0.00438 0.02384
v 0.32696 0.004342 0.023806
v 0.32696 0.004301 0.023777
v 0.32696 0.004256 0.023752
v 0.32696 0.00421 0.023733
v 0.32696 0.00416 0.023718
v 0.32696 0.004059 0.023702
v 0.32696 0.003957 0.0237
v 0.32696 0.003856 0.02371
v 0.32696 0.003709 0.023754
v 0.32696 0.003621 0.023804
v 0.32696 0.003581 0.023836
v 0.32696 0.003544 0.02387
v 0.32696 0.003509 0.023908
v 0.32696 0.003451 0.023992
v 0.32696 0.003407 0.024084
v 0.32696 0.003376 0.024181
v 0.32696 0.003355 0.024281
v 0.32696 0.00506 0.024462
v 0.32696 0.0050405 0.024826
v 0.32696 0.0046815 0.025098
v 0.32696 0.004977 0.025105
v 0.32696 0.004901 0.02528
v 0.32696 0.0048 0.025441
v 0.32696 0.004706 0.025549
v 0.32696 0.0045605 0.025671
v 0.32696 0.004349 0.025508
v 0.32696 0.0040735 0.025847
v 0.32696 0.0036945 0.025836
v 0.32696 0.0034665 0.02577
v 0.32696 0.0034155 0.025459
v 0.32696 0.003114 0.02553
v 0.32696 0.002992 0.025383
v 0.32696 0.002894 0.02522
v 0.32696 0.00284 0.025098
v 0.32696 0.003097 0.024972
v 0.32696 0.002773 0.02486
v 0.32696 0.002749 0.024671
v 0.32696 0.002745 0.02448
v 0.32696 0.002762 0.02429
v 0.32696 0.002833 0.024014
v 0.32696 0.003012 0.02368
v 0.32696 0.003173 0.023506
v 0.32696 0.0035165 0.023575
v 0.32696 0.0034385 0.025087
v 0.32696 0.0035085 0.025194
v 0.32696 0.003608 0.025293
v 0.32696 0.003647 0.025319
v 0.32696 0.003688 0.025341
v 0.32696 0.003731 0.025359
v 0.32696 0.003776 0.025373
v 0.32696 0.003821 0.025382
v 0.32696 0.0039145 0.025387
v 0.32696 0.004054 0.025374
v 0.32696 0.004099 0.025361
v 0.32696 0.004143 0.025345
v 0.32696 0.004184 0.025324
v 0.32696 0.0042875 0.025541
v 0.32696 0.004293 0.025237
v 0.32696 0.0043365 0.025182
v 0.32696 0.004393 0.025079
v 0.32696 0.004425 0.024991
v 0.32696 0.004447 0.0249
v 0.32696 0.004461 0.024808
v 0.32696 0.003349 0.024595
v 0.32696 0.003398 0.02499
v 0.32696 0.0064075 0.025836
v 0.32696 0.00618 0.02577
v 0.32696 0.0061285 0.025459
v 0.32696 0.005828 0.02553
v 0.32696 0.005706 0.025383
v 0.32696 0.005608 0.02522
v 0.32696 0.005534 0.025044
v 0.32696 0.0058555 0.025098
v 0.32696 0.005486 0.02486
v 0.32696 0.005462 0.024671
v 0.32696 0.005459 0.02448
v 0.32696 0.005475 0.02429
v 0.32696 0.005546 0.024014
v 0.32696 0.0057255 0.02368
v 0.32696 0.0058865 0.023506
v 0.32696 0.0062305 0.023575
v 0.32696 0.006364 0.023516
v 0.32696 0.0065375 0.02324
v 0.32696 0.0069165 0.023251
v 0.32696 0.0072325 0.023354
v 0.32696 0.007393 0.023455
v 0.32696 0.0075315 0.023584
v 0.32696 0.007641 0.023739
v 0.32696 0.007702 0.023869
v 0.32696 0.007729 0.023959
v 0.32696 0.0074885 0.024054
v 0.32696 0.007185 0.023962
v 0.32696 0.007128 0.023878
v 0.32696 0.007093 0.02384
v 0.32696 0.007056 0.023806
v 0.32696 0.007015 0.023777
v 0.32696 0.00697 0.023752
v 0.32696 0.006924 0.023733
v 0.32696 0.006873 0.023718
v 0.32696 0.006773 0.023702
v 0.32696 0.006671 0.0237
v 0.32696 0.006569 0.02371
v 0.32696 0.006423 0.023754
v 0.32696 0.006335 0.023804
v 0.32696 0.006294 0.023836
v 0.32696 0.006257 0.02387
v 0.32696 0.006223 0.023908
v 0.32696 0.006165 0.023992
v 0.32696 0.006121 0.024084
v 0.32696 0.006089 0.024181
v 0.32696 0.006068 0.024281
v 0.32696 0.007773 0.024462
v 0.32696 0.007754 0.024826
v 0.32696 0.007691 0.025101
v 0.32696 0.007615 0.02528
v 0.32696 0.007305 0.025269
v 0.32696 0.0074195 0.025549
v 0.32696 0.007274 0.025671
v 0.32696 0.007062 0.025508
v 0.32696 0.0067865 0.025847
v 0.32696 0.007062 0.025162
v 0.32696 0.007105 0.025079
v 0.32696 0.007137 0.024991
v 0.32696 0.007159 0.0249
v 0.32696 0.007173 0.024808
v 0.32696 0.006062 0.024595
v 0.32696 0.006085 0.0249
v 0.32696 0.00611 0.02499
v 0.32696 0.006146 0.025076
v 0.32696 0.006221 0.025194
v 0.32696 0.00632 0.025293
v 0.32696 0.006359 0.025319
v 0.32696 0.0064 0.025341
v 0.32696 0.006443 0.025359
v 0.32696 0.006488 0.025373
v 0.32696 0.0066265 0.025387
v 0.32696 0.006766 0.025374
v 0.32696 0.006812 0.025361
v 0.32696 0.006855 0.025345
v 0.32696 0.006897 0.025324
v 0.32696 0.007 0.025541
v 0.32696 0.007006 0.025237
v 0.32696 0.007035 0.025201
v 0.32696 0.001803 0.025714
v 0.32696 0.0016385 0.025549
v 0.32696 0.0016355 0.025237
v 0.32696 0.001545 0.025802
v 0.32696 0.001025 0.024544
v 0.32696 0.001618 0.023286
v 0.32696 0.001618 0.024656
v 0.32696 0.001624 0.024766
v 0.32696 0.001641 0.024873
v 0.32696 0.001675 0.024977
v 0.32696 0.001698 0.025027
v 0.32696 0.001759 0.025118
v 0.32696 0.001796 0.025158
v 0.32696 0.001838 0.025194
v 0.32696 0.001882 0.025226
v 0.32696 0.001929 0.025253
v 0.32696 0.001979 0.025275
v 0.32696 0.00203 0.025293
v 0.32696 0.002019 0.025554
v 0.32696 0.002193 0.025318
v 0.32696 0.002302 0.025316
v 0.32696 0.002411 0.025302
v 0.32696 0.002411 0.02583
v 0.32696 0.002401 0.025836
v 0.32696 0.002377 0.025845
v 0.32696 0.002316 0.025856
v 0.32696 0.002123 0.025848
v 0.32696 -1.2e-05 0.024055
v 0.32696 -8e-06 0.023985
v 0.32696 7e-06 0.023916
v 0.32696 1.9e-05 0.023882
v 0.32696 4.5e-05 0.023837
v 0.32696 7.9e-05 0.023797
v 0.32696 0.000107 0.023776
v 0.32696 0.000138 0.023758
v 0.32696 0.00017 0.023745
v 0.32696 0.000205 0.023735
v 0.32696 0.000274 0.023726
v 0.32696 0.000345 0.023725
v 0.32696 0.000415 0.02373
v 0.32696 0.000485 0.02374
v 0.32696 0.000553 0.023758
v 0.32696 0.000487 0.023276
v 0.32696 0.000217 0.023233
v 0.32696 -5.55e-05 0.023258
v 0.32696 -0.0002175 0.023314
v 0.32696 -0.000333 0.023387
v 0.32696 -0.000431 0.023482
v 0.32696 -0.0005075 0.023596
v 0.32696 -0.00055 0.023689
v 0.32696 -0.000584 0.023823
v 0.32696 -0.000605 0.02468
v 0.32696 -0.000948 0.025333
v 0.32696 -0.0007765 0.025802
v 0.32696 -0.000605 0.026395
v 0.32696 -1.2e-05 0.026099
v 0.32696 0.000553 0.025802
v 0.32696 0.0002705 0.025332
v 0.32696 -0.0017095 0.02607
v 0.32696 -0.001791 0.026077
v 0.32696 -0.001844 0.02609
v 0.32696 -0.0019055 0.026119
v 0.32696 -0.001939 0.026142
v 0.32696 -0.001979 0.02618
v 0.32696 -0.0020035 0.026213
v 0.32696 -0.002043 0.026299
v 0.32696 -0.002059 0.02638
v 0.32696 -0.002056 0.026489
v 0.32696 -0.002044 0.026542
v 0.32696 -0.002024 0.026593
v 0.32696 -0.002011 0.026617
v 0.32696 -0.001996 0.02664
v 0.32696 -0.00196 0.026681
v 0.32696 -0.001928 0.026707
v 0.32696 -0.0018815 0.026735
v 0.32696 -0.001791 0.026764
v 0.32696 -0.001682 0.02677
v 0.32696 -0.001601 0.026759
v 0.32696 -0.0015375 0.026735
v 0.32696 -0.001502 0.026715
v 0.32696 -0.00148 0.026699
v 0.32696 -0.001441 0.026661
v 0.32696 -0.001408 0.026617
v 0.32696 -0.001395 0.026593
v 0.32696 -0.001369 0.026516
v 0.32696 -0.001359 0.026434
v 0.32696 -0.00171 0.026407
v 0.32696 -0.001368 0.026326
v 0.32696 -0.001384 0.026273
v 0.32696 -0.0014155 0.026213
v 0.32696 -0.00146 0.026161
v 0.32696 -0.001502 0.026126
v 0.32696 -0.001525 0.026112
v 0.32696 -0.0016015 0.026084
v 0.32696 -0.003885 0.025336
v 0.32696 -0.00397 0.025303
v 0.32696 -0.00401 0.025281
v 0.32696 -0.004048 0.025256
v 0.32696 -0.004084 0.025227
v 0.32696 -0.004117 0.025195
v 0.32696 -0.004174 0.025124
v 0.32696 -0.004218 0.025044
v 0.32696 -0.004251 0.024958
v 0.32696 -0.004284 0.024778
v 0.32696 -0.004287 0.024687
v 0.32696 -0.004287 0.023288
v 0.32696 -0.00488 0.024545
v 0.32696 -0.004346 0.025802
v 0.32696 -0.004308 0.025148
v 0.32696 -0.0041965 0.025601
v 0.32696 -0.0040465 0.025718
v 0.32696 -0.003834 0.025576
v 0.32696 -0.00693 0.023754
v 0.32696 -0.00705 0.023766
v 0.32696 -0.007166 0.023795
v 0.32696 -0.0073475 0.023579
v 0.32696 -0.007277 0.023842
v 0.32696 -0.007328 0.023873
v 0.32696 -0.007376 0.023909
v 0.32696 -0.00742 0.02395
v 0.32696 -0.007459 0.023995
v 0.32696 -0.007494 0.024044
v 0.32696 -0.007524 0.024096
v 0.32696 -0.007571 0.024207
v 0.32696 -0.007601 0.024323
v 0.32696 -0.007617 0.024442
v 0.32696 -0.007622 0.026677
v 0.32696 -0.008222 0.026677
v 0.32696 -0.007922 0.024537
v 0.32696 -0.0081875 0.024197
v 0.32696 -0.0081095 0.023944
v 0.32696 -0.0080065 0.02376
v 0.32696 -0.0078705 0.023597
v 0.32696 -0.0077065 0.023464
v 0.32696 -0.0071645 0.023261
v 0.32696 -0.006829 0.023493
v 0.32696 -0.0065315 0.023261
v 0.32696 -0.00613 0.023389
v 0.32696 -0.005906 0.023528
v 0.32696 -0.005755 0.023676
v 0.32696 -0.005636 0.02385
v 0.32696 -0.00555 0.024044
v 0.32696 -0.005477 0.024513
v 0.32696 -0.005798 0.025619
v 0.32696 -0.006124 0.024442
v 0.32696 -0.005815 0.024312
v 0.32696 -0.00617 0.024207
v 0.32696 -0.006216 0.024096
v 0.32696 -0.006246 0.024043
v 0.32696 -0.006281 0.023995
v 0.32696 -0.00632 0.02395
v 0.32696 -0.006364 0.023909
v 0.32696 -0.006412 0.023873
v 0.32696 -0.006464 0.023842
v 0.32696 -0.006517 0.023816
v 0.32696 -0.006574 0.023795
v 0.32696 -0.006691 0.023766
v 0.32696 -0.0034975 0.025857
v 0.32696 -0.003231 0.025833
v 0.32696 -0.003086 0.025785
v 0.32696 -0.002953 0.025711
v 0.32696 -0.002838 0.025611
v 0.32696 -0.0027465 0.025489
v 0.32696 -0.0026695 0.025315
v 0.32696 -0.002617 0.025015
v 0.32696 -0.0029095 0.023286
v 0.32696 -0.003206 0.024845
v 0.32696 -0.003211 0.024937
v 0.32696 -0.003225 0.025027
v 0.32696 -0.003253 0.025114
v 0.32696 -0.003273 0.025156
v 0.32696 -0.003297 0.025194
v 0.32696 -0.003326 0.02523
v 0.32696 -0.003359 0.025261
v 0.32696 -0.003396 0.025288
v 0.32696 -0.003436 0.02531
v 0.32696 -0.003477 0.025328
v 0.32696 -0.003522 0.025341
v 0.32696 -0.0036685 0.025597
v 0.32696 -0.003704 0.025361
f 267 294 291
f 407 434 431
f 572 626 631
f 267 268 294
f 407 408 434
f 454 452 442
f 743 823 766
f 882 885 962
f 882 962 963
f 1272 1273 1223
f 1271 1272 1222
f 1273 1272 1224
f 1243 1242 1241
f 1272 1271 1270
f 1463 1467 1462
f 1462 1467 1461
f 1569 1609 1610
f 1568 1569 1611
f 1611 1569 1610
f 1567 1568 1612
f 1613 1567 1612
f 1568 1611 1612
f 1546 1547 1544
f 1544 1545 1546
f 1543 1544 1547
f 1542 1543 1547
f 1542 1548 1549
f 1541 1542 1549
f 1541 1550 1551
f 1540 1541 1551
f 1540 1552 1553
f 1539 1540 1553
f 1537 1539 1555
f 1592 1538 1558
f 1538 1537 1557
f 1591 1592 1560
f 1562 1591 1561
f 1590 1591 1562
f 1590 1563 1564
f 1589 1590 1564
f 1589 1565 1566
f 1587 1588 1613
f 1588 1589 1566
f 1613 1588 1566
f 1585 1586 1613
f 1586 1587 1613
f 1585 1613 1584
f 1614 1593 1583
f 1583 1584 1614
f 1539 1554 1555
f 1539 1553 1554
f 1548 1542 1547
f 1540 1551 1552
f 1549 1550 1541
f 1565 1589 1564
f 1537 1555 1556
f 1563 1590 1562
f 1537 1556 1557
f 1561 1591 1560
f 1559 1560 1592
f 1583 1593 1582
f 1593 1594 1581
f 1582 1593 1581
f 1594 1580 1581
f 1579 1580 1594
f 1578 1579 1595
f 1577 1578 1597
f 1576 1577 1601
f 1606 1576 1604
f 1607 1574 1575
f 1573 1574 1607
f 1571 1572 1569
f 1572 1573 1608
f 1569 1570 1571
f 1608 1569 1572
f 1578 1596 1597
f 1578 1595 1596
f 1607 1608 1573
f 1605 1606 1604
f 1577 1597 1598
f 1577 1598 1599
f 1604 1576 1603
f 1577 1599 1600
f 1603 1576 1602
f 1602 1576 1601
f 1577 1600 1601
f 1622 1679 1619
f 1620 1622 1619
f 1679 1618 1619
f 1617 1618 1679
f 1616 1617 1680
f 1615 1616 1682
f 1669 1615 1685
f 1690 1669 1688
f 1691 1667 1668
f 1666 1667 1691
f 1665 1666 1692
f 1665 1663 1664
f 1692 1670 1665
f 1616 1681 1682
f 1616 1680 1681
f 1691 1692 1666
f 1689 1690 1688
f 1615 1682 1683
f 1615 1683 1684
f 1688 1669 1687
f 1615 1684 1685
f 1687 1669 1686
f 1686 1669 1685
f 1663 1665 1671
f 1663 1671 1672
f 1662 1663 1673
f 1673 1663 1672
f 1661 1662 1674
f 1675 1661 1674
f 1662 1673 1674
f 1640 1641 1638
f 1638 1639 1640
f 1637 1638 1641
f 1636 1637 1641
f 1636 1642 1643
f 1635 1636 1643
f 1635 1644 1645
f 1634 1635 1645
f 1634 1646 1647
f 1633 1634 1647
f 1632 1633 1649
f 1630 1631 1652
f 1631 1632 1651
f 1629 1630 1654
f 1656 1629 1655
f 1628 1629 1656
f 1628 1657 1658
f 1627 1628 1658
f 1627 1659 1660
f 1625 1626 1675
f 1626 1627 1660
f 1675 1626 1660
f 1623 1624 1675
f 1624 1625 1675
f 1623 1675 1621
f 1622 1621 1676
f 1676 1621 1675
f 1677 1678 1622
f 1622 1676 1677
f 1633 1648 1649
f 1633 1647 1648
f 1642 1636 1641
f 1634 1645 1646
f 1643 1644 1635
f 1659 1627 1658
f 1632 1649 1650
f 1657 1628 1656
f 1632 1650 1651
f 1655 1629 1654
f 1653 1654 1630
f 1713 1714 1715
f 1718 1719 1712
f 1711 1693 1710
f 1693 1694 1709
f 1693 1709 1710
f 1695 1696 1697
f 1694 1695 1707
f 1717 1718 1712
f 1713 1715 1717
f 1712 1713 1717
f 1695 1697 1701
f 1719 1711 1712
f 1709 1694 1708
f 1697 1699 1700
f 1697 1698 1699
f 1708 1694 1707
f 1697 1700 1701
f 1695 1701 1702
f 1695 1702 1703
f 1706 1707 1695
f 1705 1706 1695
f 1704 1705 1695
f 1750 1749 1748
f 1720 1750 1744
f 1750 1748 1746
f 1748 1747 1746
f 1744 1743 1721
f 1746 1745 1744
f 1750 1746 1744
f 1721 1720 1744
f 1743 1742 1724
f 1724 1742 1741
f 1741 1740 1725
f 1740 1739 1726
f 1739 1738 1727
f 1738 1737 1728
f 1737 1736 1728
f 1728 1736 1729
f 1736 1735 1730
f 1735 1734 1733
f 1735 1733 1732
f 1729 1736 1730
f 1741 1725 1724
f 1722 1721 1743
f 1740 1726 1725
f 1739 1727 1726
f 1738 1728 1727
f 1735 1732 1731
f 1731 1730 1735
f 1723 1722 1743
f 1724 1723 1743
f 1769 1768 1770
f 1768 1767 1766
f 1753 1752 1754
f 1752 1751 1754
f 1783 1782 1785
f 1779 1778 1777
f 1774 1773 1776
f 1771 1770 1773
f 1766 1765 1763
f 1763 1761 1766
f 1761 1779 1766
f 1779 1758 1754
f 1758 1757 1754
f 1757 1756 1754
f 1751 1786 1779
f 1786 1785 1779
f 1782 1781 1785
f 1781 1779 1785
f 1779 1777 1773
f 1777 1776 1773
f 1770 1768 1779
f 1768 1766 1779
f 1754 1751 1779
f 1773 1770 1779
f 1858 1857 1859
f 1857 1856 1861
f 1860 1857 1861
f 1856 1855 1862
f 1856 1862 1861
f 1855 1854 1862
f 1854 1853 1863
f 1853 1852 1867
f 1852 1851 1869
f 1851 1850 1870
f 1871 1804 1872
f 1804 1803 1787
f 1803 1802 1787
f 1802 1801 1790
f 1802 1788 1787
f 1801 1800 1799
f 1799 1798 1797
f 1799 1797 1796
f 1799 1796 1801
f 1851 1870 1869
f 1852 1869 1868
f 1862 1854 1863
f 1860 1859 1857
f 1850 1871 1870
f 1801 1795 1794
f 1801 1794 1793
f 1801 1793 1792
f 1801 1792 1791
f 1864 1863 1853
f 1865 1864 1853
f 1801 1791 1790
f 1790 1789 1802
f 1866 1865 1853
f 1867 1866 1853
f 1789 1788 1802
f 1868 1867 1852
f 1821 1822 1818
f 1822 1823 1816
f 1822 1817 1818
f 1823 1824 1815
f 1816 1823 1815
f 1824 1825 1814
f 1815 1824 1814
f 1825 1826 1813
f 1826 1808 1809
f 1808 1827 1807
f 1806 1827 1805
f 1827 1828 1805
f 1828 1829 1849
f 1829 1830 1847
f 1848 1829 1847
f 1830 1831 1844
f 1831 1832 1843
f 1832 1833 1841
f 1832 1842 1843
f 1833 1834 1839
f 1833 1840 1841
f 1838 1835 1837
f 1837 1835 1836
f 1847 1830 1846
f 1844 1831 1843
f 1846 1830 1845
f 1814 1825 1813
f 1819 1820 1821
f 1817 1822 1816
f 1827 1806 1807
f 1829 1848 1849
f 1834 1838 1839
f 1839 1840 1833
f 1841 1842 1832
f 1812 1813 1826
f 1844 1845 1830
f 1811 1812 1826
f 1810 1811 1826
f 1809 1810 1826
f 85 90 97
f 93 97 98
f 88 98 89
f 95 99 100
f 86 100 87
f 96 100 101
f 87 99 88
f 94 98 99
f 89 97 90
f 92 85 97
f 138 159 162
f 287 209 288
f 289 168 290
f 293 290 213
f 301 296 178
f 300 301 184
f 298 299 188
f 294 297 195
f 298 191 297
f 164 299 254
f 299 298 279
f 254 292 255
f 291 294 199
f 256 287 288
f 287 286 206
f 204 224 286
f 427 349 428
f 429 307 430
f 433 430 353
f 441 436 317
f 440 441 323
f 438 439 327
f 438 330 437
f 303 439 393
f 439 438 419
f 393 432 394
f 431 434 339
f 395 427 428
f 427 426 346
f 344 363 426
f 457 462 484
f 451 472 473
f 460 485 461
f 466 486 487
f 458 487 459
f 467 487 488
f 459 486 460
f 461 484 462
f 451 457 484
f 544 548 493
f 544 545 490
f 504 545 505
f 542 546 547
f 549 506 509
f 503 546 504
f 541 545 546
f 501 545 544
f 544 543 496
f 580 585 626
f 583 627 584
f 589 628 629
f 581 629 582
f 590 629 630
f 582 628 583
f 631 632 567
f 550 634 635
f 620 635 621
f 625 636 637
f 619 636 620
f 624 635 636
f 612 635 634
f 632 633 563
f 584 626 585
f 695 724 696
f 702 724 703
f 698 725 726
f 726 715 727
f 729 714 730
f 737 731 642
f 660 734 735
f 664 733 665
f 657 733 658
f 666 733 732
f 659 733 734
f 663 734 664
f 735 736 652
f 731 730 639
f 728 727 706
f 701 725 702
f 697 724 725
f 704 724 723
f 746 772 742
f 746 783 782
f 742 776 746
f 764 762 742
f 738 761 807
f 924 925 878
f 1014 1015 890
f 1016 1017 890
f 1022 1023 892
f 1009 1010 888
f 990 991 886
f 972 973 886
f 958 884 957
f 956 897 883
f 883 902 908
f 880 953 954
f 936 881 935
f 933 934 880
f 884 967 968
f 888 984 985
f 892 1005 1006
f 891 998 999
f 890 994 995
f 1013 889 1012
f 993 887 992
f 974 975 885
f 959 906 882
f 879 949 950
f 930 931 879
f 937 938 882
f 928 929 878
f 1025 1020 1026
f 1025 64 1027
f 1027 26 79
f 1021 78 922
f 77 922 78
f 76 1022 77
f 1023 33 34
f 81 919 1024
f 80 1009 81
f 32 1011 1010
f 74 988 1011
f 990 989 31
f 910 991 72
f 972 971 30
f 904 29 957
f 69 958 957
f 956 903 67
f 1029 61 60
f 21 933 896
f 17 55 934
f 16 930 895
f 16 931 930
f 13 52 932
f 932 52 926
f 51 927 926
f 12 928 927
f 49 929 928
f 47 923 894
f 924 923 3
f 40 924 41
f 39 925 40
f 38 937 893
f 1 938 937
f 36 938 37
f 35 959 898
f 2 906 959
f 6 960 8
f 974 905 7
f 9 975 974
f 43 992 911
f 992 11 993
f 45 1012 916
f 1012 14 1013
f 15 1014 920
f 56 1014 57
f 921 1015 19
f 20 1017 1016
f 62 1017 63
f 1029 936 935
f 1029 935 897
f 23 61 1028
f 1027 1021 1025
f 1026 1020 1019
f 1026 66 25
f 1090 1091 1030
f 1030 1114 1115
f 1036 1135 1136
f 1039 1145 1146
f 1040 1081 1074
f 1074 1073 1148
f 1150 1082 1081
f 1039 1149 1080
f 1142 1143 1036
f 1131 1132 1036
f 1031 1123 1124
f 1128 1056 1034
f 1066 1057 1064
f 1075 1076 1077
f 1042 1083 1084
f 1038 1079 1071
f 1038 1061 1035
f 1035 1060 1058
f 1059 1058 1050
f 1050 1049 1048
f 1035 1070 1038
f 1086 1085 1043
f 1043 1087 1086
f 1043 1079 1042
f 1041 1076 1083
f 1041 1042 1078
f 1037 1069 1067
f 1037 1068 1075
f 1130 1034 1129
f 1034 1140 1065
f 1102 1103 1032
f 1099 1100 1031
f 1106 1107 1033
f 1094 1095 1031
f 1151 1513 1514
f 1501 1162 1500
f 1497 1498 1168
f 1495 1172 1494
f 1470 1468 1467
f 1185 1184 1213
f 1187 1189 1188
f 1207 1206 1191
f 1194 1192 1199
f 1197 1195 1198
f 1204 1203 1201
f 1211 1210 1189
f 1219 1218 1279
f 1261 1228 1227
f 1237 1236 1251
f 1264 1265 1272
f 1284 1286 1406
f 1285 1286 1284
f 1289 1287 1286
f 1289 1288 1290
f 1293 1295 1292
f 1300 1297 1299
f 1303 1304 1317
f 1305 1304 1303
f 1315 1306 1308
f 1312 1313 1310
f 1296 1313 1312
f 1293 1314 1313
f 1315 1316 1304
f 1319 1320 1321
f 1323 1322 1324
f 1327 1328 1318
f 1323 1326 1325
f 1331 1333 1334
f 1337 1335 1336
f 1338 1329 1340
f 1337 1339 1332
f 1344 1343 1341
f 1349 1346 1348
f 1348 1351 1352
f 1356 1353 1354
f 1358 1357 1355
f 1356 1360 1359
f 1363 1362 1361
f 1366 1365 1369
f 1368 1342 1367
f 1368 1364 1345
f 1371 1370 1347
f 1349 1373 1372
f 1374 1330 1375
f 1378 1379 1380
f 1377 1382 1379
f 1388 1390 1384
f 1389 1390 1388
f 1391 1392 1394
f 1391 1385 1390
f 1404 1399 1397
f 1400 1398 1399
f 1400 1405 1401
f 1403 1399 1404
f 1407 1410 1408
f 1413 1409 1412
f 1413 1414 1410
f 1408 1410 1415
f 1436 1437 1418
f 1429 1430 1423
f 1440 1441 1488
f 1481 1449 1450
f 1472 1458 1459
f 1463 1464 1467
f 1521 1519 1520
f 1519 1523 1520
f 1525 1524 1526
f 1527 1528 1529
f 1530 1531 1532
f 1527 1533 1534
f 1520 1536 1535
f 85 83 90
f 93 92 97
f 88 99 98
f 95 94 99
f 86 101 100
f 91 96 101
f 86 91 101
f 96 95 100
f 87 100 99
f 94 93 98
f 89 98 97
f 92 84 85
f 162 150 102
f 102 103 162
f 103 151 162
f 151 104 162
f 104 105 162
f 105 106 162
f 106 107 162
f 107 108 162
f 108 152 162
f 152 109 162
f 109 110 162
f 110 111 162
f 111 112 162
f 112 113 162
f 113 114 162
f 162 126 127
f 127 128 162
f 128 129 162
f 129 156 162
f 156 130 162
f 130 131 162
f 131 132 162
f 132 157 162
f 157 133 162
f 133 134 162
f 134 135 162
f 135 158 162
f 158 136 162
f 136 137 162
f 137 138 162
f 162 114 115
f 115 116 162
f 116 117 162
f 117 153 162
f 153 118 162
f 118 119 162
f 119 120 162
f 120 154 162
f 154 121 162
f 121 122 162
f 122 123 162
f 123 155 162
f 155 124 162
f 124 125 162
f 125 126 162
f 159 139 162
f 139 140 162
f 140 141 162
f 141 142 162
f 142 143 162
f 143 160 162
f 160 144 162
f 144 145 162
f 145 146 162
f 146 147 162
f 147 148 162
f 148 161 162
f 161 149 162
f 149 150 162
f 224 225 286
f 287 280 258
f 287 258 259
f 291 286 262
f 286 287 259
f 262 286 261
f 263 283 291
f 262 263 291
f 259 260 286
f 260 261 286
f 287 226 208
f 208 209 287
f 209 227 288
f 289 252 247
f 289 247 248
f 255 292 249
f 292 288 249
f 288 289 249
f 289 248 249
f 289 166 167
f 167 168 289
f 168 212 290
f 290 170 171
f 171 213 290
f 213 172 293
f 172 214 293
f 214 173 293
f 173 215 293
f 296 251 237
f 296 237 238
f 241 253 293
f 240 241 293
f 293 296 238
f 293 238 239
f 239 240 293
f 296 176 177
f 177 217 296
f 217 178 296
f 178 179 301
f 179 228 301
f 301 183 184
f 184 185 300
f 185 186 300
f 186 187 300
f 187 229 300
f 301 228 180
f 180 181 301
f 181 182 301
f 182 183 301
f 300 250 230
f 300 230 301
f 230 231 301
f 251 296 236
f 296 301 234
f 236 296 235
f 235 296 234
f 301 231 232
f 301 232 233
f 233 234 301
f 293 215 174
f 174 175 293
f 175 216 296
f 293 175 296
f 216 176 296
f 290 212 169
f 169 170 290
f 285 292 295
f 254 299 295
f 299 165 163
f 163 188 299
f 188 189 298
f 189 218 298
f 294 284 270
f 294 270 271
f 298 297 276
f 297 294 272
f 273 297 272
f 277 282 298
f 276 277 298
f 294 271 272
f 275 276 297
f 274 275 297
f 297 273 274
f 297 219 192
f 192 193 297
f 193 194 297
f 297 194 195
f 195 196 294
f 196 197 294
f 197 220 294
f 220 198 294
f 198 221 294
f 298 218 190
f 190 191 298
f 191 219 297
f 164 165 299
f 298 282 278
f 279 285 295
f 298 278 279
f 295 299 279
f 254 295 292
f 293 253 242
f 293 242 243
f 289 290 246
f 290 293 244
f 244 293 243
f 246 252 289
f 245 246 290
f 290 244 245
f 227 210 288
f 210 211 289
f 288 210 289
f 211 166 289
f 294 221 199
f 199 200 291
f 200 222 291
f 291 283 264
f 291 264 265
f 269 284 294
f 268 269 294
f 291 265 266
f 291 266 281
f 291 281 267
f 292 285 256
f 257 280 287
f 288 292 256
f 256 257 287
f 286 225 205
f 205 206 286
f 206 207 287
f 207 226 287
f 291 222 201
f 201 202 291
f 202 203 291
f 203 223 291
f 223 204 286
f 291 223 286
f 363 364 426
f 427 420 397
f 427 397 398
f 431 426 401
f 426 427 398
f 400 426 421
f 402 423 431
f 401 402 431
f 398 399 426
f 399 421 426
f 400 401 426
f 427 365 348
f 348 349 427
f 349 366 428
f 429 391 386
f 429 386 387
f 394 432 388
f 432 428 388
f 428 429 388
f 429 387 388
f 429 305 306
f 306 307 429
f 307 352 430
f 430 309 310
f 310 353 430
f 353 311 433
f 311 354 433
f 354 312 433
f 312 355 433
f 436 390 376
f 436 376 377
f 380 392 433
f 379 380 433
f 433 436 377
f 433 377 378
f 378 379 433
f 436 315 316
f 316 357 436
f 357 317 436
f 317 318 441
f 318 367 441
f 441 322 323
f 323 324 440
f 324 325 440
f 325 326 440
f 326 368 440
f 441 367 319
f 319 320 441
f 320 321 441
f 321 322 441
f 440 389 369
f 440 369 441
f 369 370 441
f 390 436 375
f 436 441 373
f 375 436 374
f 374 436 373
f 441 370 371
f 441 371 372
f 372 373 441
f 433 355 313
f 313 314 433
f 314 356 436
f 433 314 436
f 356 315 436
f 430 352 308
f 308 309 430
f 425 432 435
f 393 439 435
f 439 304 302
f 302 327 439
f 327 328 438
f 328 358 438
f 434 424 410
f 434 410 411
f 438 437 416
f 437 434 412
f 413 437 412
f 417 422 438
f 416 417 438
f 434 411 412
f 415 416 437
f 414 415 437
f 437 413 414
f 437 359 331
f 331 332 437
f 332 333 437
f 437 333 334
f 334 335 437
f 335 336 434
f 437 335 434
f 336 337 434
f 337 360 434
f 360 338 434
f 438 358 329
f 329 330 438
f 330 359 437
f 303 304 439
f 438 422 418
f 419 425 435
f 438 418 419
f 435 439 419
f 393 435 432
f 433 392 381
f 433 381 382
f 429 430 385
f 430 433 383
f 383 433 382
f 385 391 429
f 384 385 430
f 430 383 384
f 366 350 428
f 350 351 429
f 428 350 429
f 351 305 429
f 434 338 339
f 339 340 431
f 340 361 431
f 431 423 403
f 431 403 404
f 409 424 434
f 408 409 434
f 431 404 405
f 431 405 406
f 431 406 407
f 432 425 395
f 396 420 427
f 428 432 395
f 395 396 427
f 426 364 345
f 345 346 426
f 346 347 427
f 347 365 427
f 431 361 341
f 341 342 431
f 342 343 431
f 343 362 431
f 362 344 426
f 431 362 426
f 457 456 462
f 485 481 469
f 484 485 451
f 489 450 474
f 450 451 473
f 485 469 470
f 485 470 451
f 470 471 451
f 450 473 474
f 475 482 489
f 474 475 489
f 451 471 472
f 460 486 485
f 466 465 486
f 458 488 487
f 463 467 488
f 458 463 488
f 467 466 487
f 459 487 486
f 489 483 444
f 483 442 453
f 453 442 452
f 453 443 483
f 443 444 483
f 444 445 489
f 445 446 489
f 489 446 447
f 447 448 489
f 448 449 489
f 449 450 489
f 489 482 476
f 489 476 477
f 480 483 479
f 483 489 478
f 479 483 478
f 489 477 478
f 486 465 464
f 486 464 468
f 481 485 468
f 485 486 468
f 461 485 484
f 451 455 457
f 495 497 543
f 548 492 493
f 493 494 543
f 543 544 493
f 491 492 548
f 545 540 490
f 490 491 548
f 548 544 490
f 504 546 545
f 542 541 546
f 547 503 502
f 502 519 547
f 519 506 547
f 507 508 506
f 508 523 506
f 506 520 509
f 509 510 549
f 510 511 549
f 511 512 549
f 512 513 549
f 513 514 549
f 514 521 549
f 521 515 549
f 515 522 549
f 518 524 525
f 518 525 526
f 533 539 549
f 532 533 549
f 549 518 528
f 518 526 527
f 518 527 528
f 531 532 549
f 530 531 549
f 549 528 538
f 529 530 549
f 549 538 529
f 549 522 516
f 516 517 549
f 517 518 549
f 549 539 534
f 549 534 506
f 534 535 506
f 547 506 536
f 537 542 547
f 536 537 547
f 506 535 536
f 503 547 546
f 541 540 545
f 544 500 501
f 500 499 501
f 501 505 545
f 543 497 496
f 496 498 500
f 500 544 496
f 494 495 543
f 580 579 585
f 627 592 593
f 627 593 626
f 593 594 626
f 631 626 596
f 597 618 631
f 596 597 631
f 626 594 613
f 626 613 595
f 595 596 626
f 583 628 627
f 589 588 628
f 581 630 629
f 586 590 630
f 581 586 630
f 590 589 629
f 582 629 628
f 632 575 565
f 565 566 632
f 566 567 632
f 567 576 631
f 632 615 603
f 632 603 604
f 617 634 610
f 634 633 609
f 610 634 616
f 616 634 609
f 633 632 605
f 632 604 605
f 633 605 606
f 633 606 607
f 608 609 633
f 633 607 608
f 633 553 554
f 554 555 633
f 555 556 633
f 556 557 633
f 557 558 633
f 558 559 633
f 559 560 633
f 635 623 550
f 550 573 634
f 620 636 635
f 625 624 636
f 619 622 637
f 622 625 637
f 619 637 636
f 624 623 635
f 634 573 551
f 551 552 634
f 552 574 633
f 634 552 633
f 574 553 633
f 634 617 611
f 612 621 635
f 634 611 612
f 633 560 561
f 561 562 633
f 562 563 633
f 563 564 632
f 564 575 632
f 631 618 598
f 631 598 614
f 602 615 632
f 601 602 632
f 631 614 599
f 631 599 600
f 601 632 600
f 632 631 600
f 628 588 587
f 628 587 591
f 627 628 591
f 592 627 591
f 584 627 626
f 631 576 568
f 568 569 631
f 569 570 631
f 570 577 631
f 577 571 631
f 572 578 580
f 571 572 631
f 572 580 626
f 699 704 723
f 695 723 724
f 702 725 724
f 698 697 725
f 726 701 700
f 700 715 726
f 715 722 727
f 729 693 682
f 729 682 683
f 727 728 685
f 728 729 683
f 686 694 727
f 685 686 727
f 728 683 684
f 728 684 685
f 729 712 713
f 713 714 729
f 714 721 730
f 731 691 673
f 731 673 674
f 692 730 677
f 730 731 676
f 677 730 676
f 731 674 675
f 731 675 676
f 731 654 641
f 641 655 731
f 655 642 731
f 642 643 737
f 643 656 737
f 737 645 646
f 646 647 737
f 647 648 736
f 737 647 736
f 648 649 736
f 649 650 736
f 650 651 736
f 735 663 662
f 735 662 667
f 690 736 668
f 736 735 667
f 668 736 667
f 660 659 734
f 664 734 733
f 657 732 733
f 661 666 732
f 657 661 732
f 666 665 733
f 659 658 733
f 663 735 734
f 736 651 652
f 652 653 735
f 653 660 735
f 737 656 644
f 644 645 737
f 736 690 669
f 736 669 670
f 731 737 671
f 737 736 670
f 672 691 731
f 671 672 731
f 737 670 671
f 730 721 638
f 638 639 730
f 639 640 731
f 640 654 731
f 728 709 710
f 710 711 728
f 711 720 729
f 728 711 729
f 720 712 729
f 728 719 708
f 708 709 728
f 730 692 678
f 730 678 679
f 681 693 729
f 680 681 729
f 729 730 679
f 679 680 729
f 727 722 716
f 716 717 727
f 717 718 727
f 718 705 727
f 705 706 727
f 706 707 728
f 707 719 728
f 727 694 687
f 727 687 688
f 698 726 689
f 726 727 688
f 689 726 688
f 701 726 725
f 697 696 724
f 704 703 724
f 695 699 723
f 758 738 805
f 738 759 801
f 805 738 804
f 801 802 738
f 802 803 738
f 803 804 738
f 768 739 818
f 739 738 817
f 818 739 817
f 738 741 813
f 741 769 812
f 741 812 813
f 738 813 814
f 816 817 738
f 815 816 738
f 738 814 815
f 741 745 828
f 745 775 826
f 745 826 827
f 830 769 741
f 829 830 741
f 745 827 828
f 828 829 741
f 775 745 840
f 745 748 839
f 840 745 839
f 748 781 838
f 748 838 839
f 781 748 848
f 748 750 848
f 750 751 848
f 751 787 848
f 791 751 792
f 751 790 792
f 792 753 791
f 797 754 796
f 754 753 796
f 798 755 872
f 755 754 872
f 754 797 872
f 799 756 874
f 756 755 873
f 874 756 873
f 755 798 873
f 800 757 876
f 757 756 876
f 799 875 756
f 875 876 756
f 795 757 877
f 757 800 877
f 789 752 870
f 752 757 869
f 870 752 869
f 757 795 869
f 785 749 857
f 749 752 856
f 857 749 856
f 752 789 856
f 779 747 847
f 747 749 847
f 749 785 845
f 845 846 749
f 846 847 749
f 773 744 836
f 744 747 836
f 747 779 835
f 835 836 747
f 744 773 824
f 743 744 822
f 823 743 822
f 744 824 822
f 743 821 831
f 831 777 743
f 821 743 766
f 766 740 821
f 740 771 821
f 771 740 820
f 740 742 772
f 820 740 772
f 746 782 772
f 746 776 783
f 742 770 776
f 742 762 770
f 764 763 762
f 764 742 765
f 742 740 765
f 765 740 809
f 740 766 809
f 778 747 834
f 747 744 833
f 834 747 833
f 744 743 833
f 743 777 832
f 743 832 833
f 784 749 844
f 749 747 843
f 844 749 843
f 747 778 841
f 747 841 842
f 747 842 843
f 752 749 852
f 749 784 851
f 749 851 852
f 855 788 752
f 854 855 752
f 752 852 853
f 853 854 752
f 756 757 788
f 868 756 788
f 757 752 788
f 794 755 867
f 755 756 866
f 867 755 866
f 756 868 865
f 756 865 866
f 793 754 864
f 754 755 863
f 864 754 863
f 755 794 862
f 755 862 863
f 791 753 861
f 753 754 860
f 861 753 860
f 754 793 860
f 796 753 871
f 753 792 871
f 751 791 849
f 751 849 850
f 850 787 751
f 790 751 859
f 751 750 859
f 750 858 859
f 750 786 858
f 786 750 780
f 750 748 780
f 780 748 837
f 748 745 774
f 837 748 774
f 774 745 825
f 745 741 825
f 741 767 825
f 761 739 819
f 739 768 819
f 767 741 811
f 741 738 810
f 811 741 810
f 738 758 810
f 759 738 808
f 738 739 761
f 761 760 806
f 738 807 808
f 806 807 761
f 878 894 923
f 893 878 925
f 923 924 878
f 899 879 948
f 879 878 946
f 948 879 947
f 878 882 942
f 882 900 940
f 882 940 941
f 947 879 946
f 882 941 942
f 945 946 878
f 878 942 943
f 878 943 944
f 944 945 878
f 885 907 961
f 885 961 962
f 965 900 882
f 964 965 882
f 963 964 882
f 907 885 980
f 885 887 979
f 980 885 979
f 887 912 976
f 887 976 977
f 887 977 978
f 978 979 887
f 912 887 914
f 914 916 912
f 916 889 912
f 912 889 915
f 921 890 1015
f 890 889 1014
f 889 920 1014
f 891 890 1017
f 1018 891 1017
f 890 921 1016
f 922 892 1021
f 892 891 1021
f 891 1018 1019
f 1019 1020 891
f 1020 1021 891
f 919 892 1024
f 1024 892 1023
f 922 1022 892
f 988 888 1011
f 888 892 1009
f 1011 888 1010
f 892 919 1009
f 910 886 991
f 886 888 990
f 988 989 888
f 989 990 888
f 904 884 973
f 884 886 973
f 886 910 971
f 971 972 886
f 903 884 958
f 884 904 957
f 897 881 883
f 883 884 903
f 903 956 883
f 902 883 955
f 883 881 955
f 881 880 954
f 880 901 952
f 880 952 953
f 954 955 881
f 896 881 936
f 881 897 935
f 895 880 934
f 880 881 933
f 881 896 933
f 909 886 970
f 886 884 968
f 970 886 969
f 884 883 966
f 883 908 966
f 969 886 968
f 884 966 967
f 886 909 981
f 886 981 982
f 987 913 888
f 986 987 888
f 888 886 983
f 886 982 983
f 985 986 888
f 888 983 984
f 918 891 1008
f 891 892 1007
f 1008 891 1007
f 892 888 1004
f 888 913 1002
f 888 1002 1003
f 888 1003 1004
f 1006 1007 892
f 892 1004 1005
f 917 890 1001
f 890 891 999
f 1001 890 1000
f 891 918 997
f 891 997 998
f 1000 890 999
f 915 889 996
f 889 890 995
f 996 889 995
f 890 917 994
f 920 889 1013
f 889 916 1012
f 914 887 993
f 887 911 992
f 911 887 975
f 887 885 975
f 885 905 974
f 905 885 960
f 885 882 906
f 960 885 906
f 882 898 959
f 901 880 951
f 880 879 950
f 951 880 950
f 879 899 949
f 879 880 930
f 932 879 931
f 880 895 930
f 898 882 939
f 882 878 937
f 939 882 938
f 878 893 937
f 894 878 929
f 878 879 928
f 879 932 926
f 926 927 879
f 927 928 879
f 1025 1021 1020
f 1025 65 64
f 1027 64 26
f 1021 1027 79
f 79 78 1021
f 77 1022 922
f 76 1023 1022
f 1023 76 33
f 34 82 1023
f 82 1024 1023
f 1024 82 81
f 81 1009 919
f 80 1010 1009
f 1010 80 32
f 32 75 1011
f 1011 75 74
f 988 74 989
f 74 31 989
f 31 73 990
f 990 73 991
f 73 72 991
f 72 71 910
f 71 971 910
f 971 71 30
f 30 70 973
f 973 972 30
f 973 70 904
f 70 29 904
f 27 69 957
f 29 27 957
f 69 68 958
f 958 68 903
f 68 67 903
f 67 1028 956
f 1029 1028 61
f 936 1029 60
f 60 22 936
f 22 21 896
f 21 59 933
f 896 936 22
f 933 59 934
f 59 17 934
f 934 55 895
f 55 16 895
f 16 54 931
f 931 54 932
f 54 13 932
f 52 51 926
f 51 50 927
f 927 50 12
f 12 49 928
f 49 48 929
f 929 48 894
f 48 47 894
f 923 47 3
f 3 4 924
f 4 41 924
f 40 925 924
f 39 893 925
f 39 38 893
f 937 38 5
f 1 37 938
f 937 5 1
f 36 939 938
f 939 36 898
f 36 35 898
f 959 35 2
f 2 8 906
f 960 906 8
f 960 6 905
f 6 7 905
f 7 42 974
f 974 42 9
f 9 44 975
f 975 44 911
f 44 43 911
f 992 43 10
f 10 11 992
f 11 46 993
f 993 46 914
f 46 45 916
f 914 46 916
f 45 14 1012
f 14 53 1013
f 1013 53 920
f 53 15 920
f 15 57 1014
f 56 1015 1014
f 1015 56 18
f 18 19 1015
f 19 58 921
f 58 1016 921
f 1016 58 20
f 20 63 1017
f 62 1018 1017
f 956 1028 897
f 1028 1029 897
f 1028 67 28
f 28 23 1028
f 1018 62 24
f 24 66 1019
f 66 1026 1019
f 1019 1018 24
f 65 1025 25
f 1025 1026 25
f 1044 1030 1092
f 1030 1096 1089
f 1092 1030 1091
f 1089 1090 1030
f 1052 1031 1121
f 1031 1030 1119
f 1121 1031 1120
f 1030 1033 1111
f 1033 1053 1109
f 1033 1109 1110
f 1120 1031 1119
f 1033 1110 1111
f 1118 1119 1030
f 1030 1111 1112
f 1030 1112 1113
f 1117 1118 1030
f 1116 1117 1030
f 1030 1113 1114
f 1115 1116 1030
f 1053 1033 1138
f 1033 1036 1136
f 1138 1033 1137
f 1036 1063 1133
f 1036 1133 1134
f 1137 1033 1136
f 1036 1134 1135
f 1063 1036 1147
f 1036 1039 1146
f 1147 1036 1146
f 1039 1040 1144
f 1040 1148 1144
f 1039 1144 1145
f 1040 1074 1148
f 1081 1040 1150
f 1040 1039 1150
f 1039 1080 1150
f 1039 1072 1149
f 1072 1039 1143
f 1039 1036 1143
f 1036 1062 1141
f 1141 1142 1036
f 1062 1036 1132
f 1036 1033 1131
f 1033 1051 1131
f 1054 1032 1126
f 1032 1031 1124
f 1126 1032 1125
f 1031 1052 1122
f 1031 1122 1123
f 1125 1032 1124
f 1047 1032 1127
f 1032 1054 1127
f 1034 1055 1128
f 1055 1047 1127
f 1128 1055 1127
f 1057 1034 1064
f 1064 1068 1067
f 1068 1037 1067
f 1064 1067 1066
f 1076 1041 1077
f 1077 1069 1075
f 1069 1037 1075
f 1084 1043 1042
f 1042 1041 1083
f 1038 1042 1079
f 1038 1071 1061
f 1035 1061 1060
f 1050 1048 1059
f 1059 1035 1058
f 1035 1059 1070
f 1086 1088 1085
f 1043 1084 1087
f 1043 1085 1079
f 1042 1038 1078
f 1038 1070 1078
f 1078 1077 1041
f 1055 1034 1130
f 1034 1057 1129
f 1034 1056 1139
f 1034 1139 1140
f 1065 1064 1034
f 1046 1032 1103
f 1032 1047 1101
f 1102 1032 1101
f 1045 1031 1100
f 1031 1032 1098
f 1098 1032 1097
f 1032 1046 1097
f 1098 1099 1031
f 1051 1033 1108
f 1033 1030 1106
f 1108 1033 1107
f 1030 1044 1104
f 1104 1105 1030
f 1105 1106 1030
f 1030 1031 1095
f 1096 1030 1095
f 1045 1093 1031
f 1093 1094 1031
f 1155 1505 1506
f 1155 1506 1507
f 1153 1154 1512
f 1154 1155 1510
f 1510 1155 1509
f 1152 1151 1514
f 1151 1153 1513
f 1513 1153 1512
f 1431 1430 1432
f 1430 1152 1515
f 1432 1430 1433
f 1433 1430 1518
f 1155 1507 1508
f 1155 1508 1509
f 1518 1430 1517
f 1517 1430 1516
f 1154 1510 1511
f 1154 1511 1512
f 1516 1430 1515
f 1514 1515 1152
f 1166 1167 1165
f 1167 1499 1164
f 1165 1167 1164
f 1499 1500 1163
f 1164 1499 1163
f 1162 1163 1500
f 1162 1501 1502
f 1160 1161 1503
f 1161 1162 1502
f 1158 1159 1505
f 1159 1160 1504
f 1156 1157 1505
f 1157 1158 1505
f 1505 1155 1156
f 1504 1505 1159
f 1160 1503 1504
f 1161 1502 1503
f 1172 1173 1170
f 1173 1496 1170
f 1496 1497 1169
f 1170 1496 1169
f 1170 1171 1172
f 1168 1169 1497
f 1167 1166 1498
f 1166 1168 1498
f 1467 1465 1176
f 1465 1466 1175
f 1176 1465 1175
f 1466 1494 1174
f 1176 1177 1467
f 1174 1175 1466
f 1173 1172 1495
f 1172 1174 1494
f 1467 1177 1178
f 1178 1179 1467
f 1179 1180 1467
f 1180 1181 1467
f 1181 1470 1467
f 1215 1216 1281
f 1216 1213 1182
f 1281 1216 1183
f 1213 1189 1185
f 1185 1189 1186
f 1184 1182 1213
f 1182 1183 1216
f 1187 1186 1189
f 1202 1201 1200
f 1200 1193 1191
f 1193 1192 1191
f 1191 1190 1207
f 1190 1188 1207
f 1206 1202 1191
f 1202 1200 1191
f 1189 1207 1188
f 1192 1193 1199
f 1199 1198 1194
f 1198 1195 1194
f 1197 1196 1195
f 1201 1202 1205
f 1205 1204 1201
f 1189 1213 1212
f 1189 1212 1214
f 1208 1207 1189
f 1209 1208 1189
f 1189 1214 1211
f 1210 1209 1189
f 1272 1223 1222
f 1275 1274 1221
f 1274 1271 1221
f 1277 1276 1220
f 1276 1275 1220
f 1220 1275 1221
f 1279 1278 1219
f 1278 1277 1219
f 1219 1277 1220
f 1215 1280 1218
f 1280 1279 1218
f 1217 1216 1215
f 1271 1222 1221
f 1218 1217 1215
f 1255 1256 1234
f 1255 1234 1233
f 1258 1257 1231
f 1257 1255 1232
f 1231 1257 1232
f 1260 1259 1229
f 1259 1258 1230
f 1230 1258 1231
f 1262 1261 1227
f 1261 1260 1228
f 1265 1263 1226
f 1263 1262 1227
f 1272 1265 1224
f 1263 1227 1226
f 1260 1229 1228
f 1255 1233 1232
f 1225 1224 1265
f 1259 1230 1229
f 1226 1225 1265
f 1243 1241 1245
f 1241 1240 1246
f 1246 1240 1247
f 1245 1244 1243
f 1246 1245 1241
f 1249 1248 1239
f 1248 1247 1240
f 1249 1238 1250
f 1251 1250 1237
f 1237 1250 1238
f 1253 1252 1235
f 1252 1251 1236
f 1255 1254 1256
f 1254 1253 1256
f 1235 1256 1253
f 1236 1235 1252
f 1238 1249 1239
f 1240 1239 1248
f 1270 1269 1272
f 1269 1268 1272
f 1268 1267 1272
f 1267 1266 1272
f 1266 1264 1272
f 1286 1287 1406
f 1406 1283 1282
f 1282 1284 1406
f 1285 1288 1286
f 1286 1288 1289
f 1288 1291 1290
f 1313 1295 1293
f 1295 1294 1292
f 1300 1298 1297
f 1304 1316 1317
f 1317 1302 1301
f 1301 1303 1317
f 1305 1306 1304
f 1304 1306 1315
f 1306 1307 1308
f 1313 1314 1310
f 1310 1309 1311
f 1311 1312 1310
f 1296 1295 1313
f 1321 1323 1325
f 1325 1319 1321
f 1323 1321 1322
f 1326 1323 1318
f 1323 1324 1318
f 1324 1327 1318
f 1334 1337 1332
f 1332 1331 1334
f 1337 1334 1335
f 1339 1337 1340
f 1337 1336 1340
f 1336 1338 1340
f 1342 1368 1341
f 1368 1345 1341
f 1345 1344 1341
f 1349 1347 1346
f 1373 1349 1352
f 1349 1348 1352
f 1348 1350 1351
f 1356 1355 1353
f 1355 1356 1359
f 1359 1358 1355
f 1360 1356 1361
f 1356 1354 1361
f 1354 1363 1361
f 1369 1368 1367
f 1367 1366 1369
f 1368 1369 1364
f 1347 1349 1372
f 1372 1371 1347
f 1374 1376 1330
f 1378 1377 1379
f 1379 1382 1381
f 1381 1380 1379
f 1377 1383 1382
f 1390 1385 1384
f 1384 1386 1387
f 1387 1388 1384
f 1389 1392 1390
f 1390 1392 1391
f 1392 1393 1394
f 1399 1398 1397
f 1397 1395 1396
f 1396 1404 1397
f 1399 1405 1400
f 1405 1402 1401
f 1403 1405 1399
f 1407 1409 1410
f 1410 1409 1413
f 1409 1411 1412
f 1410 1414 1415
f 1415 1416 1417
f 1417 1408 1415
f 1422 1423 1434
f 1422 1434 1421
f 1434 1435 1420
f 1420 1421 1434
f 1418 1419 1436
f 1419 1420 1435
f 1436 1419 1435
f 1438 1492 1437
f 1492 1418 1437
f 1430 1431 1423
f 1423 1422 1424
f 1424 1425 1423
f 1425 1426 1423
f 1426 1427 1423
f 1427 1428 1423
f 1428 1429 1423
f 1492 1438 1491
f 1438 1439 1490
f 1491 1438 1490
f 1439 1440 1489
f 1490 1439 1489
f 1488 1489 1440
f 1443 1444 1442
f 1444 1488 1441
f 1442 1444 1441
f 1444 1443 1483
f 1443 1445 1484
f 1483 1443 1484
f 1445 1446 1485
f 1484 1445 1485
f 1486 1485 1446
f 1486 1447 1487
f 1482 1487 1448
f 1448 1487 1447
f 1480 1481 1450
f 1481 1482 1449
f 1449 1482 1448
f 1478 1479 1493
f 1479 1480 1493
f 1493 1477 1478
f 1450 1493 1480
f 1447 1486 1446
f 1477 1493 1451
f 1477 1451 1452
f 1475 1476 1454
f 1476 1477 1454
f 1473 1474 1457
f 1474 1475 1456
f 1455 1475 1454
f 1471 1472 1459
f 1472 1473 1458
f 1468 1469 1460
f 1469 1471 1459
f 1467 1468 1461
f 1473 1457 1458
f 1457 1474 1456
f 1475 1455 1456
f 1477 1452 1453
f 1477 1453 1454
f 1460 1461 1468
f 1459 1460 1469
f 1464 1465 1467
f 1535 1521 1520
f 1519 1522 1523
f 1526 1527 1534
f 1534 1525 1526
f 1527 1526 1528
f 1533 1527 1532
f 1527 1529 1532
f 1529 1530 1532
f 1520 1523 1536
f 1715 1716 1717
f 1765 1764 1763
f 1763 1762 1761
f 1761 1760 1779
f 1779 1759 1758
f 1756 1755 1754
f 1785 1784 1783
f 1781 1780 1779
f 1776 1775 1774
f 1773 1772 1771
