v -0.0054589 -0.0053131 0.023581
v -0.010297 -0.005338 0.018043
v -0.0007966 -0.00301 0.028592
v -0.010063 -0.003009 0.018938
v -0.005565 -0.006196 0.022937
v -0.0081141 -0.0067598 0.019312
v 0.00034501 -0.0068905 0.027668
v 2.038e-05 -0.0059099 0.028615
v 0.004101 -0.0059494 0.030743
v 0.008435 -0.006123 0.030514
v 0.0081633 -0.006846 0.029711
v 0.0042067 -0.0068913 0.029669
v 0.011044 -0.0069781 0.010437
v 0.01152 -0.0069418 0.027685
v 0.010842 -0.0067032 0.0032601
v -0.013409 -0.00697 0.010685
v -0.01636 -0.0069638 0.0023944
v -0.016913 -0.0073705 -0.0026056
v -0.015446 -0.007946 -0.0061473
v -0.011796 -0.007009 -0.0040167
v 0.0094483 -0.0069976 -0.0031095
v 0.011663 -0.0057303 -0.0084547
v 0.011046 -0.0066864 -0.011638
v 0.012262 -0.0056878 -0.015751
v 0.012554 -0.0029925 -0.0075063
v 0.012569 0.0029897 -0.0075243
v 0.01089 -0.003009 -0.002169
v 0.007513 -0.003009 0.004658
v 0.01089 0.003044 -0.002169
v 0.012484 -0.003009 0.00043295
v 0.012498 -0.0055658 0.0097396
v -0.00417 -0.003009 0.014359
v 0.00194 -0.003009 0.009787
v 0.00194 0.003044 0.009787
v 0.007513 0.003044 0.004658
v 0.013493 0.0030455 0.012249
v -0.00417 0.003044 0.014359
v -0.0010514 0.0030442 0.028366
v 0.015029 0.003044 0.019888
v -0.010258 -8.7735e-06 0.019073
v -0.010059 0.003044 0.018934
v -0.005451 0.005285 0.02359
v -0.003196 0.005285 0.025854
v -0.000146 0.005254 0.028717
v -0.0058808 0.0053346 0.023137
v -0.010293 0.005318 0.018051
v -0.014351 0.005353 0.011949
v -0.0094016 0.0083274 0.017789
v -0.0084887 0.0094158 0.017186
v -0.012456 0.009188 0.011466
v -0.013199 0.0083758 0.01165
v -0.015319 0.0089848 0.0050732
v -0.013132 0.0094914 0.0079197
v -0.011148 0.009491 0.0073916
v -0.012278 0.0094543 0.0029272
v -0.013303 0.009491 -0.0028839
v -0.013004 0.0094171 -0.0091357
v -0.015596 0.0094825 -0.0088615
v -0.012772 0.0094684 -0.012902
v -0.012867 0.0091037 -0.0084674
v -0.012906 0.0092804 -0.0030451
v -0.012346 0.0092626 0.0013184
v -0.012219 0.007325 0.0016787
v -0.011156 0.009118 0.0058215
v -0.010327 0.0072389 0.0079377
v -0.0080875 0.0070497 0.012088
v -0.007625 0.0073575 0.013289
v -0.0051103 0.0071487 0.01675
v -0.0088943 0.0092908 0.011265
v -0.0072276 0.0093512 0.014163
v -0.0073135 0.0094793 0.014749
v -0.0055918 0.0093008 0.016371
v -0.0034655 0.009487 0.022372
v -0.0045283 0.0091323 0.022687
v -0.005114 0.0085058 0.022753
v -0.0044834 0.0069328 0.023331
v -0.0028224 0.0092015 0.022506
v -0.0036558 0.0090603 0.022859
v -0.0023031 0.0091466 0.021683
v -0.0023874 0.0093939 0.020536
v -0.0028294 0.0094812 0.022083
v -0.0024862 0.0091489 0.020167
v -0.0021949 0.0072046 0.020701
v -0.0026558 0.0071712 0.019744
v -0.0015618 0.0069972 0.020933
v -0.0022638 0.0071848 0.021785
v -0.0029426 0.0071424 0.022758
v -0.0032078 0.0071507 0.022941
v -0.0029925 0.0069914 0.023291
v -0.0039752 0.0068601 0.023404
v 0.00046406 0.0067655 0.027882
v -0.00295 0.006156 0.025602
v 0.003991 0.006124 0.030579
v 0.004089 0.0069183 0.029555
v 0.011522 0.0069238 0.027684
v 0.008435 0.006105 0.030514
v 0.0081621 0.0068277 0.029709
v 0.013478 0.0069685 0.022842
v 0.010237 0.0069926 0.0079312
v 0.01098 0.0068078 0.0059451
v 0.010698 0.0066503 -0.0042598
v 0.01161 0.0056743 0.001905
v 0.01169 0.0057461 -0.0092582
v 0.012468 0.003044 0.00048159
v 0.01155 0.005652 -0.00346
v 0.012324 0.0056372 -0.016574
v 0.011772 0.0066622 -0.018714
v 0.014329 -9.1624e-06 -0.022674
v 0.014651 0.0067725 -0.037522
v 0.01425 0.0056496 -0.029895
v 0.01757 -2.2137e-05 -0.04282
v 0.01536 0.0061557 -0.037582
v 0.017211 0.00569 -0.046155
v 0.015494 -0.0059692 -0.037479
v 0.014679 -0.006806 -0.037623
v 0.012889 -0.0066586 -0.026325
v 0.012006 -0.0070093 -0.028145
v 0.015913 -0.0069665 -0.045965
v 0.007295 -0.010847 -0.047445
v 0.013352 -0.008038 -0.050431
v 0.014538 -0.010912 -0.058638
v 0.017269 -0.0070203 -0.051407
v 0.017725 -0.0060176 -0.049273
v 0.018727 -0.0080173 -0.058864
v 0.018633 -0.010608 -0.064524
v 0.019182 -0.0096973 -0.063949
v 0.018026 -0.012111 -0.065457
v 0.017891 -0.012443 -0.065628
v 0.007002 -0.015917 -0.051337
v -0.0026196 -0.01451 -0.036334
v -0.0036763 -0.010922 -0.030868
v -0.0099852 -0.0080499 -0.014877
v -0.0055502 -0.012689 -0.030018
v -0.010437 -0.010925 -0.020569
v -0.011498 -0.011451 -0.020357
v -0.015351 -0.0089953 -0.010158
v -0.012594 -0.011391 -0.023336
v -0.011159 -0.012259 -0.023714
v -0.0083584 -0.013423 -0.030806
v -0.0038469 -0.014853 -0.036267
v -0.0095226 -0.011279 -0.035945
v -0.0027183 -0.014051 -0.048372
v -0.0016618 -0.015497 -0.041604
v 0.00077596 -0.016032 -0.045983
v 0.0035388 -0.016028 -0.057238
v 0.0044634 -0.016482 -0.049669
v 0.0090778 -0.0165 -0.05585
v 0.0071868 -0.016722 -0.056094
v 0.014259 -0.015024 -0.061962
v 0.012223 -0.015991 -0.060583
v 0.01385 -0.01611 -0.067952
v 0.016146 -0.016033 -0.078
v 0.0042514 -0.012018 -0.0768
v 0.0092504 -0.016131 -0.076338
v 0.012334 -0.016823 -0.075145
v 0.0072319 -0.0059825 -0.096015
v 0.0074945 0.0059234 -0.097202
v 0.0095103 0.011421 -0.095717
v 0.009246 0.016117 -0.076332
v 0.015373 0.014821 -0.10394
v 0.014314 0.016614 -0.083569
v 0.012346 0.010601 -0.11018
v 0.019598 0.015293 -0.096825
v 0.021293 0.014476 -0.10983
v 0.017577 0.01312 -0.12395
v 0.013781 0.0098203 -0.12222
v 0.011395 0.005251 -0.1209
v 0.010636 -8.5537e-06 -0.12551
v 0.011655 -0.0050457 -0.12725
v 0.01319 -0.010221 -0.11626
v 0.010808 -0.005378 -0.11536
v 0.010093 -9.9874e-06 -0.11714
v 0.0099656 0.0055896 -0.10923
v 0.0089649 -1.1549e-05 -0.10854
v 0.009288 -0.005716 -0.10569
v 0.010432 -0.011284 -0.099462
v 0.016139 -0.016195 -0.092808
v 0.019094 -0.01551 -0.093511
v 0.023004 -0.011515 -0.090578
v 0.024856 -0.0061133 -0.085582
v 0.024882 -0.011052 -0.10404
v 0.026041 -8.3537e-06 -0.0868
v 0.028739 -8.1893e-06 -0.10333
v 0.026283 0.0060042 -0.094222
v 0.027706 -0.0058715 -0.10438
v 0.028595 0.0057445 -0.11138
v 0.025668 0.010745 -0.11087
v 0.026832 0.010087 -0.12441
v 0.022433 0.013465 -0.12282
v 0.018886 0.015019 -0.11022
v 0.017953 0.011972 -0.13622
v 0.022988 0.012334 -0.13581
v 0.020461 0.012091 -0.14232
v 0.013898 0.0087329 -0.13999
v 0.017349 0.011072 -0.14827
v 0.012881 0.008498 -0.14859
v 0.0093861 0.0046559 -0.14996
v 0.011694 0.008528 -0.15462
v 0.016229 0.010907 -0.15681
v 0.010083 0.008791 -0.16063
v 0.0053672 0.004928 -0.16287
v 0.008334 0.011475 -0.17365
v 0.0074007 0.00946 -0.16826
v 0.003564 0.008071 -0.17113
v 0.01379 0.011279 -0.16711
v 0.021198 0.011095 -0.16356
v 0.019376 0.011661 -0.17238
v 0.012696 0.012518 -0.17565
v 0.008325 0.013449 -0.18195
v 0.016462 0.012987 -0.18287
v 0.01943 0.012438 -0.18605
v 0.016271 0.013452 -0.18737
v 0.018763 0.012787 -0.18904
v 0.02208 0.011262 -0.19078
v 0.02412 0.0094579 -0.19243
v 0.025874 0.0070273 -0.19373
v 0.028755 0.0028254 -0.18764
v 0.026001 0.006469 -0.19423
v 0.026295 0.0056094 -0.19512
v 0.026124 0.0053507 -0.19603
v 0.025972 0.0053181 -0.19703
v 0.018785 0.005334 -0.19233
v 0.010833 0.005376 -0.18646
v 0.018223 0.0052569 -0.20445
v -0.0030101 0.0053128 -0.17867
v -0.0032528 0.0051464 -0.1786
v -0.005152 0.003416 -0.18044
v -0.0012471 0.0028365 -0.17417
v -0.0015568 0.0064315 -0.177
v -0.0034134 -2.8082e-05 -0.1772
v 0.00072607 -7.7659e-06 -0.16974
v 0.001998 0.005572 -0.17034
v -0.0025628 0.0049766 -0.17732
v -0.0020423 0.0056417 -0.17755
v -2.2048e-05 0.0086021 -0.17785
v -5.1053e-05 0.0087714 -0.1775
v 0.0053808 0.012692 -0.18023
v 0.0021896 0.011031 -0.17871
v 0.0043564 0.012192 -0.18019
v 0.010915 0.013797 -0.18382
v 0.006981 0.013066 -0.1818
v 0.011125 0.013532 -0.18438
v 0.01986 0.011998 -0.19002
v 0.012888 0.013804 -0.18502
v 0.025121 0.006989 -0.19383
v 0.020166 0.0064008 -0.19089
v 0.025286 0.0071981 -0.19386
v 0.025825 0.0057381 -0.19489
v 0.014883 0.005649 -0.18818
v 0.009712 0.006975 -0.18419
v 0.012221 0.0062501 -0.18599
v 0.0078182 0.0063812 -0.18315
v -0.0012333 0.0065234 -0.17741
v 0.0063236 0.0077224 -0.18195
v -0.0025267 0.0053847 -0.17793
v 0.024031 0.008977 -0.19286
v 0.02314 0.010281 -0.19201
v 0.020811 0.011965 -0.19029
v 0.0032886 -9.1095e-06 -0.16418
v 0.004576 -0.005166 -0.16481
v 0.003591 -0.008086 -0.1712
v 0.010081 -0.008828 -0.16068
v 0.0078002 -0.0047581 -0.15597
v 0.002022 -0.005579 -0.1704
v 0.0074158 -0.0095218 -0.1683
v 0.008321 -0.01156 -0.17369
v 0.013787 -0.011322 -0.16717
v 0.0048559 -0.012612 -0.1801
v 0.0082892 -0.01354 -0.18196
v 0.012616 -0.012573 -0.17578
v 0.014922 -0.013658 -0.18628
v 0.019185 -0.011743 -0.17369
v 0.018922 -0.012795 -0.1886
v 0.021037 -0.011904 -0.19042
v 0.018655 -0.0127 -0.18912
v 0.016985 -0.013077 -0.18809
v 0.011288 -0.013804 -0.18425
v 0.0030142 -0.011571 -0.17945
v -0.0011912 -0.0064839 -0.17746
v -0.0018449 -0.0057205 -0.17759
v -0.002403 -0.005396 -0.17816
v 0.0035352 -0.005395 -0.18188
v 0.013274 -0.005667 -0.18717
v 0.013425 -0.005353 -0.18897
v 0.025878 -0.0058018 -0.19485
v 0.026208 -0.0055486 -0.19531
v 0.026447 -0.0053114 -0.19544
v 0.026013 -0.0053789 -0.19604
v 0.026016 -0.0052025 -0.19817
v 0.024884 -0.0052141 -0.20307
v 0.024535 -0.0047889 -0.20554
v 0.024038 -0.0051484 -0.20667
v 0.023168 -0.0048064 -0.21026
v 0.02535 -1.0721e-05 -0.20497
v 0.023239 -0.0023209 -0.21151
v 0.022943 -0.002002 -0.21181
v 0.022861 -0.0035287 -0.21148
v 0.023227 0.0012677 -0.21173
v 0.022877 0.0031625 -0.21161
v 0.023124 0.0046326 -0.21049
v 0.022851 0.0044321 -0.21087
v 0.025786 0.0037157 -0.2015
v 0.02768 -3.854e-06 -0.19528
v 0.027564 -0.0034425 -0.19361
v 0.029186 -0.003022 -0.18465
v 0.026663 -0.0051167 -0.19526
v 0.029607 -9.0188e-06 -0.18485
v 0.026197 -0.008336 -0.18316
v 0.02582 -0.0090686 -0.1714
v 0.029124 -0.00538 -0.17715
v 0.028914 0.0054461 -0.17816
v 0.026142 0.008264 -0.18308
v 0.025291 0.009341 -0.17409
v 0.03096 -3.7984e-05 -0.17556
v 0.032206 -8.7854e-06 -0.16069
v 0.030211 0.0049975 -0.16659
v 0.030904 0.0049643 -0.15254
v 0.02714 0.0087567 -0.15707
v 0.032456 -9.1511e-06 -0.1482
v 0.030873 -0.0049016 -0.15613
v 0.030782 0.0051678 -0.13893
v 0.030766 -0.0051755 -0.13897
v 0.027437 -0.0094178 -0.13767
v 0.027424 -0.008891 -0.15055
v 0.027349 0.009555 -0.13453
v 0.027528 0.0091079 -0.14406
v 0.030184 -0.0054 -0.12873
v 0.031753 -8.5558e-06 -0.13059
v 0.029962 0.0054737 -0.1253
v 0.03025 -9.0013e-06 -0.11517
v 0.029321 -0.005623 -0.11836
v 0.026301 -0.010437 -0.1177
v 0.021302 -0.014502 -0.1099
v 0.019249 -0.014718 -0.11395
v 0.022438 -0.01349 -0.12289
v 0.017585 -0.013117 -0.12401
v 0.017956 -0.011974 -0.13626
v 0.020463 -0.012103 -0.1424
v 0.02299 -0.012357 -0.13589
v 0.012879 -0.008517 -0.14863
v 0.017352 -0.011086 -0.1483
v 0.0105 -0.004706 -0.14427
v 0.013899 -0.008746 -0.14001
v 0.01411 -0.009427 -0.12821
v 0.01143 -0.004861 -0.13545
v 0.010168 -1.4245e-05 -0.13766
v 0.011654 0.0049427 -0.13257
v 0.010873 0.004715 -0.14135
v 0.01415 0.009309 -0.13044
v 0.0082435 -9.4533e-06 -0.1491
v 0.0054951 -8.9953e-06 -0.15843
v 0.011691 -0.008556 -0.15467
v 0.016227 -0.010931 -0.15686
v 0.021188 -0.011108 -0.16364
v 0.019733 -0.011508 -0.15174
v 0.022611 -0.011221 -0.15229
v 0.015398 -0.014818 -0.10406
v 0.027009 -0.009924 -0.12774
v 0.022611 0.011199 -0.15229
v 0.019731 0.011491 -0.1517
v 0.024533 -0.0092169 -0.19267
v 0.023709 -0.010098 -0.19195
v 0.0225 -0.011056 -0.18798
v 0.025668 -0.0070618 -0.19398
v 0.024309 -0.0087724 -0.19309
v 0.023106 -0.010425 -0.19196
v 0.022537 -0.010399 -0.19186
v 0.002692 -0.0064283 -0.17992
v 0.009814 -0.007741 -0.18414
v 0.0073347 -0.013228 -0.18203
v 0.025236 -0.0069684 -0.19392
v 0.026042 -0.0069956 -0.19362
v 0.026363 0.0051557 -0.1963
v 0.025134 0.0051675 -0.20203
v 0.02418 0.0051337 -0.20598
v 0.023119 0.0051242 -0.2095
v 0.02317 0.0052258 -0.20871
v 0.024316 0.0052839 -0.20393
v 0.015439 0.0051397 -0.20489
v 0.016476 0.004462 -0.20704
v -0.0077458 0.0050804 -0.19061
v -0.0094579 0.005241 -0.18725
v -0.0099374 0.0052152 -0.18768
v -0.0090916 0.0049219 -0.18627
v -0.011964 0.003805 -0.18943
v -0.010069 0.0050071 -0.18752
v -0.010405 0.0051069 -0.18813
v -0.010854 0.0049776 -0.18859
v -0.010535 0.0051189 -0.18874
v -0.011329 0.0044617 -0.1896
v -0.011587 0.0043919 -0.1894
v -0.01193 0.0031515 -0.19001
v -0.012325 0.0017322 -0.18964
v -0.0085475 -9.5525e-06 -0.18462
v -0.012255 0.00068557 -0.1892
v -0.01208 -0.0032142 -0.18971
v -0.010727 -0.0050263 -0.18856
v -0.011541 -0.0044318 -0.18921
v -0.009249 -0.0050624 -0.18665
v -0.005143 -0.003431 -0.18049
v -0.0092389 -0.0051995 -0.18694
v -0.0097759 -0.0052569 -0.18797
v -0.010383 -0.0051657 -0.18868
v -0.011284 -0.0044716 -0.18963
v -0.011793 -0.0033672 -0.19001
v 0.0084595 -0.0052551 -0.19951
v 0.025001 -0.0053213 -0.20117
v 0.023284 -0.0052444 -0.20865
v 0.023321 -0.0051972 -0.20874
v 0.022981 -0.0050172 -0.20995
v 0.022594 -0.0044874 -0.21087
v 0.0054228 -0.00331 -0.20083
v 0.0081859 -0.0044779 -0.20184
v -0.012102 -0.0016933 -0.18999
v 0.004051 0.0031556 -0.20003
v 0.01685 0.0024183 -0.20811
v 0.011046 0.0013194 -0.2045
v 0.0052623 -0.001333 -0.20087
v 0.02244 -0.0032699 -0.21151
v 0.022593 -0.0016697 -0.21174
v 0.022586 0.002243 -0.21174
v 0.022432 0.003505 -0.2114
v 0.022525 0.0046021 -0.21068
v -0.012222 -0.0028695 -0.18961
v 0.013864 -0.0050451 -0.20429
v -0.00194 -0.005274 -0.1918
v -0.0051342 -0.0053044 -0.18177
v -0.003754 -0.005301 -0.17975
v -0.0044235 -0.0051385 -0.18036
v -0.0014525 -0.0026928 -0.17442
v -0.0026007 -0.0051819 -0.1777
v -0.0015215 -0.006309 -0.17696
v -0.00256 -0.005357 -0.17804
v -0.003002 -0.005312 -0.17866
v -0.002838 -0.005353 -0.17877
v -0.002403 -0.005396 -0.17816
v -0.0028384 -0.0053529 -0.17878
v 5.6176e-05 -0.0087385 -0.17733
v -1.4652e-05 -0.0086697 -0.17781
v 0.0023032 -0.011119 -0.17862
v -0.0052794 0.0052548 -0.18162
v 0.023548 0.011424 -0.093962
v 0.020692 0.011759 -0.077314
v 0.016816 0.015958 -0.081159
v 0.0050601 0.011932 -0.07953
v 0.0020284 -8.4255e-06 -0.080881
v 0.0010619 -0.0062936 -0.075017
v 0.0028303 0.0062444 -0.080371
v -0.0027468 -8.6747e-06 -0.066788
v -0.0020271 -0.011904 -0.058026
v -0.0090442 -0.0058791 -0.046524
v -0.010583 -8.1768e-06 -0.0449
v -0.0079658 0.011467 -0.040557
v -0.0064665 0.014083 -0.034282
v -0.0037529 0.014823 -0.036407
v -0.0021632 0.014109 -0.049827
v -0.0010805 0.015597 -0.042494
v -0.0001375 0.014954 -0.040206
v -0.0047148 0.011031 -0.029525
v -0.0055175 0.013613 -0.031282
v -0.0092083 0.013062 -0.027249
v -0.010072 0.01108 -0.021434
v -0.0076582 0.0080211 -0.018391
v -0.01272 0.010816 -0.017707
v -0.011462 0.010382 -0.018241
v -0.012063 0.010116 -0.016855
v -0.012533 0.0069894 -0.0032066
v -0.012042 0.0070618 0.0013772
v -0.010823 0.0070418 0.0060837
v -0.012865 0.0074868 -0.0073132
v -0.012691 0.0078458 -0.0099353
v -0.012335 0.008757 -0.013328
v -0.01222 0.009393 -0.01501
v -0.012117 0.009781 -0.016128
v -0.012377 0.0094475 -0.014482
v -0.013721 0.009654 -0.013118
v -0.014599 0.0097749 -0.012564
v -0.015007 0.010037 -0.014993
v -0.013326 0.011021 -0.021459
v -0.017166 0.0054775 -0.019743
v -0.011292 0.011294 -0.029244
v -0.0099204 0.012755 -0.028106
v -0.013453 0.0056899 -0.033403
v -0.014634 -9.3059e-06 -0.032969
v -0.013444 -0.0057051 -0.033421
v -0.015637 -0.0095148 -0.015953
v -0.017112 -0.0055064 -0.019956
v -0.018871 -8.9959e-06 -0.01642
v -0.017287 -8.999e-06 -0.023645
v -0.018605 -0.005495 -0.009322
v -0.015094 -0.0099307 -0.014804
v -0.01811 -0.0069645 -0.0062636
v -0.017633 -0.0074421 -0.005015
v -0.018577 -0.005449 -0.001989
v -0.017785 -0.0059373 0.0022828
v -0.017199 -0.0065357 0.0025518
v -0.01713 -0.0055792 0.0053967
v -0.015082 -9.9028e-06 0.012267
v -0.019717 -8.9941e-06 -0.0016792
v -0.018179 -9e-06 0.0055624
v -0.014499 -0.0054637 0.011682
v -0.015578 -0.0063996 0.0082928
v -0.011666 -0.0063248 0.015492
v -0.013199 -0.005545 0.013812
v -0.0095881 -0.0053682 0.018996
v -0.017205 0.00539 0.005226
v -0.018579 0.00543 -0.001964
v -0.016576 0.0090303 -0.0022402
v -0.018611 0.005476 -0.009293
v -0.016692 0.0089406 -0.00915
v -0.01597 0.0092332 -0.014729
v -0.019804 -8.9949e-06 -0.0090768
v -0.012237 0.008164 -0.012061
v -0.012818 0.0073744 -0.003204
v 0.009635 0.006991 -0.0073797
v 0.012006 0.0069908 -0.028207
v -0.0081351 0.006991 -0.0095997
v 0.015313 0.0070078 -0.045945
v 0.013236 0.0080211 -0.050259
v 0.0030301 0.010917 -0.041129
v 0.0055475 0.01582 -0.049122
v 0.002239 0.016096 -0.045673
v 0.006894 0.01639 -0.05233
v 0.003285 0.016392 -0.048846
v 0.0014661 0.015865 -0.050263
v 0.0071827 0.016682 -0.054411
v 0.0094983 0.016819 -0.064538
v 0.0034932 0.016001 -0.057122
v 0.0011284 0.012001 -0.067278
v -0.0023961 0.011946 -0.056816
v -0.008772 0.005852 -0.047306
v 0.013834 0.016091 -0.067904
v 0.011974 0.016045 -0.060263
v 0.014162 0.015036 -0.061924
v 0.010553 0.016144 -0.057395
v 0.010888 0.015627 -0.057
v 0.014785 0.01089 -0.059031
v 0.019092 0.0084903 -0.061044
v 0.018879 0.010584 -0.064887
v 0.019622 0.0088868 -0.06387
v 0.017053 0.013247 -0.065125
v 0.018425 0.011773 -0.065875
v 0.018434 0.011657 -0.065689
v 0.017942 0.012075 -0.065279
v 0.015394 0.013762 -0.062713
v 0.021185 0.006032 -0.066385
v 0.019808 0.005969 -0.059507
v 0.02338 0.0060635 -0.077551
v 0.018149 0.00586 -0.051132
v 0.01933 -0.0062951 -0.05749
v 0.019565 -0.0086575 -0.063139
v 0.018485 -0.011637 -0.065773
v 0.021192 -0.006051 -0.066437
v 0.020687 -0.011776 -0.077321
v 0.021495 1.2705e-05 -0.06325
v 0.017729 0.0066753 -0.051384
v 0.01769 0.0078055 -0.056334
v 0.016695 0.0067462 -0.047714
v 0.018684 0.0072401 -0.056444
v 0.004169 -9e-06 -0.088101
v 0.0064034 -9.0287e-06 -0.096335
v 0.014286 -0.0056822 -0.029988
v 0.013596 -0.0056302 -0.025563
v 0.013356 -9.8336e-06 -0.014203
v 0.012976 -0.00086409 -0.0093375
v 0.011984 0.006073 0.007632
v 0.012656 0.006339 0.012946
v 0.013847 0.0067648 0.020181
v 0.01461 0.00605 0.024546
v 0.013908 0.00674 0.024359
v 0.012318 0.006063 0.028355
v 0.008523 0.005193 0.030831
v 0.008541 0.005192 0.030826
v 0.008492 0.003044 0.031026
v 0.00391 0.005227 0.030907
v -0.000145 0.005259 0.028716
v 8.4e-05 0.006141 0.028463
v 0.003794 0.003044 0.031086
v 0.003911 0.005227 0.030907
v 8.6e-05 0.006146 0.028461
v 0.012572 0.003044 0.028684
v 0.014994 0.003044 0.024628
v 0.012546 0.0051159 0.028568
v 0.014907 0.0050954 0.024611
v 0.014532 0.0060929 0.020074
v 0.014819 0.005263 0.020012
v 0.014917 0.003049 0.01943
v 0.013496 0.0054124 0.014863
v -0.0051172 0.0063033 0.023338
v -0.0055656 0.0059567 0.023169
v -0.0099633 0.009176 0.0089319
v -0.010906 0.0093659 0.0069164
v 0.01266 -0.0063569 0.012944
v 0.014819 -0.005282 0.020012
v 0.013557 -0.0054525 0.015152
v 0.013759 -0.0030123 0.013969
v 0.014987 -0.003011 0.019689
v 0.015022 -0.00301 0.019837
v 0.015033 -0.00301 0.019884
v 0.015033 -0.003009 0.019887
v 0.014995 -0.003009 0.024628
v 0.012572 -0.003009 0.028686
v 0.015031 -0.00301 0.019874
v 0.015033 -0.003009 0.019886
v 0.008491 -0.003009 0.03103
v 0.003792 -0.003009 0.031089
v 0.012546 -0.005134 0.028567
v 0.0085297 -0.0052102 0.03083
v 0.012318 -0.006081 0.028355
v 0.01461 -0.006068 0.024544
v 0.013661 -0.0069255 0.024254
v 0.014526 -0.0061237 0.020091
v 0.013828 -0.0067991 0.020285
v 0.014906 -0.0051135 0.02461
v 0.011694 -0.0059289 0.0043006
v 0.011543 -0.0057223 -0.0022407
v -0.00084 -0.00151 -0.18258
v -0.0016467 -0.0015098 -0.18273
v -0.0002511 -0.00151 -0.18363
v -0.0017242 -0.005333 -0.18274
v -0.00084 -0.005337 -0.18258
v -0.00020503 -0.0053172 -0.18374
v 0.013447 -0.005395 -0.1881
v 0.0038329 -0.005667 -0.18125
v 0.010632 -0.0062689 -0.185
v 0.024552 -0.0087315 -0.19327
v 0.025756 -0.0063632 -0.19442
v 0.02564 -0.0070914 -0.1942
v 0.020689 -0.005667 -0.19182
v 0.026151 -0.0061198 -0.19506
v 0.025871 -0.005665 -0.19506
v 0.025659 -0.0054347 -0.19548
v 0.024042 -0.0097077 -0.1933
v 0.021177 -0.011844 -0.19768
v 0.025324 -0.0079673 -0.19421
v 0.026155 -0.0058107 -0.19598
v 0.026126 -0.0062307 -0.1954
v 0.022267 -0.011246 -0.19203
v 0.024167 -0.0094809 -0.19318
v 0.023281 -0.010267 -0.19241
v 0.023904 -0.0094327 -0.19281
v 0.025781 -0.007044 -0.19448
v 0.020616 -0.011951 -0.19055
v 0.019468 -0.012672 -0.19005
v 0.014475 -0.014882 -0.19716
v 0.01502 -0.013802 -0.18732
v 0.0092304 -0.015212 -0.19163
v 0.0022262 -0.016933 -0.19783
v 0.006176 -0.017376 -0.20363
v -0.002723 -0.0187 -0.20651
v 0.000883 -0.018631 -0.20877
v 0.0014294 -0.018603 -0.20939
v 0.0033202 -0.01832 -0.21085
v 0.000627 -0.018642 -0.20861
v -0.0033966 -0.018581 -0.20661
v -0.0078116 -0.018 -0.20396
v -0.013702 -0.014781 -0.2003
v -0.016242 -0.011178 -0.19866
v 0.0035566 -0.014689 -0.18793
v -0.0052188 -0.016083 -0.19564
v -0.012596 -0.01596 -0.20036
v -0.0076906 -0.014017 -0.19314
v -0.00183 -0.012046 -0.18462
v 0.0076131 -0.01366 -0.18275
v 0.0048967 -0.012888 -0.18093
v 0.010274 -0.013896 -0.18419
v 0.0063269 -0.013167 -0.18158
v 0.0032557 -0.011933 -0.17978
v 0.0017734 -0.010935 -0.179
v 0.00074633 -0.009856 -0.17841
v 0.0031695 -0.011575 -0.1796
v 0.009871 -0.007741 -0.18417
v 0.00023412 -0.0089387 -0.17803
v -0.0007528 -0.0070584 -0.1776
v 0.021259 -0.007115 -0.1914
v -0.0014366 -0.006307 -0.17743
v -0.0012894 -0.0061986 -0.17754
v -0.0015269 -0.00575 -0.17776
v -0.0021161 -0.0058491 -0.17773
v -0.0016527 -0.0056311 -0.17786
v -0.0023403 -0.0054785 -0.17824
v -0.0027225 -0.0053812 -0.17901
v -0.0028938 -0.0056351 -0.17876
v -0.0050699 -0.0056363 -0.18175
v -0.0068832 -0.0057708 -0.18408
v -0.0087611 -0.0053878 -0.18669
v -0.0042058 -0.0053505 -0.18114
v -0.0021007 -0.0053737 -0.17842
v -0.0086923 -0.0052781 -0.18716
v -0.0066492 -0.0051752 -0.191
v -0.0074455 -0.004335 -0.19226
v -0.011082 -0.0046706 -0.18957
v -0.011534 -0.0041878 -0.18985
v -0.009925 -0.005331 -0.18811
v -0.011565 -0.004673 -0.18949
v -0.010647 -0.0052177 -0.18877
v -0.0091543 -0.005668 -0.18686
v -0.010441 -0.0056629 -0.18837
v -0.010715 -0.0073107 -0.18954
v -0.0177 -0.0072607 -0.19735
v -0.0087382 -0.010895 -0.19016
v -0.016648 -0.010346 -0.19799
v -0.015622 -0.012449 -0.19865
v -0.014389 -0.014264 -0.19957
v -0.013168 -0.015508 -0.20043
v -0.011482 -0.016736 -0.20153
v -0.0097863 -0.017632 -0.2023
v -0.0065842 -0.018468 -0.20424
v -0.017483 -0.007835 -0.19783
v -0.018434 -0.0033497 -0.19699
v -0.018148 -0.0044692 -0.19682
v -0.018488 -0.001158 -0.19662
v -0.018488 -0.0025002 -0.19721
v -0.017977 0.0062131 -0.19762
v -0.015458 0.012487 -0.1992
v 0.001869 -0.018064 -0.21007
v 0.0048402 0.017888 -0.21193
v -0.0035379 0.018305 -0.20665
v -0.0036117 0.018559 -0.20628
v -0.0068957 0.018058 -0.20448
v -0.011399 0.016526 -0.20171
v -0.0071731 0.018175 -0.2039
v 0.0019473 0.016957 -0.19824
v -0.006362 0.018257 -0.20422
v -0.002779 0.01861 -0.20647
v -0.00037345 0.01865 -0.20825
v 0.00952 0.01509 -0.19111
v 0.0056721 0.01739 -0.20299
v 0.014467 0.014923 -0.19706
v 0.021072 0.011773 -0.1976
v 0.016266 0.013595 -0.18799
v 0.016824 0.013367 -0.18814
v 0.020183 0.012219 -0.19031
v 0.020232 0.012372 -0.19065
v 0.021304 0.01162 -0.19107
v 0.018773 0.012728 -0.18929
v 0.023595 0.0096846 -0.19261
v 0.012334 0.013412 -0.18517
v 0.020936 0.0071517 -0.19118
v 0.02085 0.00625 -0.19141
v 0.0074451 0.0062497 -0.183
v 0.020586 0.0056489 -0.19176
v 0.016343 0.0065431 -0.18841
v -0.0011608 0.0064455 -0.17749
v -0.00086761 0.0071852 -0.1775
v -0.00072646 0.0079811 -0.17766
v -0.0001489 0.0086462 -0.17789
v 0.0011403 0.010398 -0.17865
v 0.011302 0.013684 -0.18452
v 0.0026662 0.011176 -0.17932
v 0.0040766 0.012186 -0.18023
v 0.0035176 0.014569 -0.18792
v 0.0050621 0.012753 -0.18088
v 0.0024242 0.011444 -0.17944
v -0.001876 0.011971 -0.18458
v -0.00090906 0.0082593 -0.17789
v -0.0071667 0.013699 -0.19222
v -0.002649 0.014869 -0.19151
v -0.01032 0.011288 -0.19197
v -0.0023103 0.0061851 -0.17786
v -0.0021867 0.0060189 -0.17766
v -0.0014443 0.006236 -0.17743
v -0.001554 0.006719 -0.1774
v -0.0020446 0.0056281 -0.17776
v -0.0028989 0.0054922 -0.1787
v -0.0021063 0.0053725 -0.17827
v -0.0066166 0.0056575 -0.18356
v -0.0047711 0.0053333 -0.1817
v -0.002569 0.005334 -0.17894
v -0.00082841 0.0052901 -0.18256
v -0.0017242 0.0053148 -0.18274
v -0.0016467 0.0014908 -0.18273
v -0.0097323 0.005248 -0.18804
v -0.0062343 0.005233 -0.19034
v -0.010518 0.0055333 -0.18836
v -0.010257 0.0057516 -0.18803
v -0.010854 0.0074979 -0.18961
v -0.017486 0.0081136 -0.19722
v -0.012384 0.0040892 -0.18997
v -0.018146 0.0057465 -0.1971
v -0.017139 0.009649 -0.19795
v -0.018471 0.0034529 -0.19715
v -0.018641 0.001395 -0.19688
v -0.01446 -1.065e-05 -0.19189
v -0.012127 -0.0046275 -0.18989
v -0.012261 -0.0033171 -0.18988
v -0.012675 0.00045699 -0.18985
v -0.0128 -0.0015696 -0.19001
v -0.012421 0.001327 -0.18984
v -0.012556 0.0017123 -0.18988
v -0.012668 0.0027306 -0.18999
v -0.012083 0.0030692 -0.18992
v -0.011679 0.0047017 -0.18943
v -0.0076728 0.0033187 -0.19261
v -0.011397 0.0043623 -0.18968
v -0.0077393 0.001491 -0.19271
v -0.012212 -0.0021897 -0.18991
v -0.0077586 -0.0015372 -0.19274
v -0.006353 -0.00151 -0.19358
v -0.000525 -0.00151 -0.19724
v -0.000526 -0.001333 -0.19724
v 0.005296 0.001314 -0.20089
v -0.005678 0.00017546 -0.19401
v 0.005301 -0.001333 -0.20089
v 0.005303 -0.00151 -0.20089
v 0.005301 0.001314 -0.20089
v 0.005303 -0.001333 -0.20089
v 0.011126 0.001314 -0.20455
v 0.016956 0.001314 -0.2082
v 0.011126 0.001491 -0.20455
v 0.011131 -0.001333 -0.20455
v 0.011131 -0.00151 -0.20455
v 0.016959 -0.001333 -0.2082
v 0.018551 -0.00151 -0.2092
v 0.022945 -6.7328e-05 -0.21199
v 0.02296 -0.0023823 -0.21211
v 0.02303 0.00084317 -0.21246
v 0.022439 -9.4011e-06 -0.21407
v 0.022743 0.0037076 -0.21238
v 0.022112 -0.003982 -0.21388
v 0.018906 0.002713 -0.22068
v 0.018965 0.0042198 -0.22054
v 0.017344 0.0096613 -0.21964
v 0.021037 0.007741 -0.21325
v 0.018586 0.0070102 -0.21993
v 0.017952 0.00868 -0.21974
v 0.018921 -0.0018288 -0.22077
v 0.010577 0.01676 -0.21552
v 0.0059807 0.018134 -0.21249
v 0.010363 0.017172 -0.21499
v 0.011432 0.016375 -0.21598
v 0.0083968 0.017874 -0.21347
v 0.013917 0.015819 -0.20902
v 0.012325 0.016171 -0.21617
v 0.017889 0.013559 -0.20809
v 0.014016 0.01461 -0.21752
v 0.015378 0.013177 -0.21833
v 0.016853 0.010387 -0.21947
v 0.01656 0.011906 -0.21858
v 0.019297 0.011127 -0.21223
v 0.024144 0.0063581 -0.20458
v 0.025881 0.0059897 -0.19697
v 0.025836 0.0055848 -0.19692
v 0.025672 0.0053561 -0.19652
v 0.024894 0.0056375 -0.20186
v 0.020888 0.001491 -0.20388
v 0.022616 0.001491 -0.19832
v 0.022616 0.005312 -0.19832
v 0.020735 0.0052719 -0.20434
v 0.018532 0.0015009 -0.20922
v 0.019413 0.0051234 -0.20746
v 0.022936 0.0052546 -0.20861
v 0.023987 0.0055572 -0.20572
v 0.022535 0.004729 -0.21053
v 0.023058 0.0053286 -0.20893
v 0.023378 0.0058717 -0.2082
v 0.022865 0.0057646 -0.21011
v 0.022869 0.0051909 -0.21044
v 0.022774 0.0041051 -0.21145
v 0.022621 0.0032823 -0.21165
v 0.023006 0.0018457 -0.21221
v 0.018795 0.0042935 -0.20873
v 0.022542 0.005027 -0.20974
v 0.022095 0.005317 -0.19724
v 0.022095 0.001491 -0.19724
v 0.02123 0.001491 -0.19718
v 0.021342 0.0053142 -0.19722
v 0.019824 0.005334 -0.19299
v 0.005296 0.001491 -0.20089
v 0.002709 0.001491 -0.18559
v -0.0002511 0.001491 -0.18363
v 0.01601 0.001491 -0.19394
v -0.000534 0.001491 -0.19723
v -0.00084 0.001491 -0.18258
v -0.00021602 0.0053139 -0.18372
v 0.011111 0.005376 -0.18663
v -0.0016809 0.0056513 -0.1778
v 0.025714 0.0055059 -0.19519
v 0.01403 0.001491 -0.1927
v 0.01205 0.001491 -0.19145
v 0.01007 0.001491 -0.19021
v 0.004054 0.001491 -0.18644
v 0.0080933 0.005314 -0.18897
v 0.008089 0.001491 -0.18897
v 0.006744 0.001491 -0.18812
v 0.005399 0.001491 -0.18728
v 0.026028 0.0055737 -0.19591
v 0.025979 0.0057313 -0.19513
v 0.025709 0.0062548 -0.19442
v 0.026061 0.0061828 -0.19507
v 0.025998 0.0063912 -0.19511
v 0.025521 0.0072304 -0.19414
v 0.024773 0.0085242 -0.19386
v 0.024305 0.0091159 -0.19329
v 0.022615 0.010839 -0.19229
v 0.025279 0.0071644 -0.19391
v 0.014431 0.014637 -0.21721
v 0.0064279 0.018214 -0.2125
v 0.0020914 0.01857 -0.20995
v 0.0015443 0.018384 -0.20977
v 0.008056 -0.017241 -0.21395
v 0.019266 0.00097387 -0.22071
v 0.019053 -0.0020642 -0.22072
v 0.019318 -0.0030936 -0.22041
v 0.018632 -0.0068271 -0.22015
v 0.021152 -0.007821 -0.21333
v 0.019495 -0.011267 -0.21236
v 0.023322 -0.007247 -0.20663
v 0.022954 -0.0056217 -0.2102
v 0.023614 -0.0057486 -0.20765
v 0.023571 -0.0055868 -0.20764
v 0.024437 -0.0054122 -0.20364
v 0.02485 -0.0057894 -0.2026
v 0.025005 -0.005333 -0.19932
v 0.023666 -0.0053081 -0.20611
v 0.020735 -0.0052909 -0.20434
v 0.023027 -0.0052801 -0.20898
v 0.023357 -0.005339 -0.20758
v 0.022593 -0.0049476 -0.21006
v 0.022886 -0.0051353 -0.21024
v 0.02282 -0.004022 -0.21186
v 0.022609 -0.0042639 -0.21112
v 0.022633 -0.0031191 -0.21168
v 0.018618 -0.0033667 -0.20909
v 0.019412 -0.0051414 -0.20746
v 0.020888 -0.00151 -0.20388
v 0.022616 -0.00151 -0.19832
v 0.022095 -0.00151 -0.19724
v 0.021929 -0.0053348 -0.19732
v 0.022616 -0.005331 -0.19832
v 0.02123 -0.00151 -0.19718
v 0.01601 -0.00151 -0.19394
v 0.01403 -0.00151 -0.1927
v 0.019975 -0.005333 -0.19642
v 0.01205 -0.00151 -0.19145
v 0.002709 -0.00151 -0.18559
v 0.004054 -0.00151 -0.18644
v 0.01007 -0.00151 -0.19021
v 0.008089 -0.00151 -0.18897
v 0.005399 -0.00151 -0.18728
v 0.006744 -0.00151 -0.18812
v 0.025703 -0.0053621 -0.19652
v 0.02596 -0.0054806 -0.19593
v 0.025932 -0.0057088 -0.19718
v 0.025601 -0.0061989 -0.19853
v 0.023324 -0.0053379 -0.2076
v 0.018887 -0.00448 -0.20855
v 0.0177 -0.0099181 -0.21958
v 0.015937 -0.013206 -0.21842
v 0.015976 -0.012711 -0.21876
v 0.01336 -0.015301 -0.21718
v 0.014235 -0.014983 -0.21731
v 0.018228 -0.013531 -0.20771
v 0.014002 -0.015786 -0.20908
v 0.012221 -0.016268 -0.21628
v 0.011929 -0.015954 -0.21638
v 0.0091744 -0.017554 -0.21422
v 0.0063838 -0.018136 -0.21223
v 0.010725 -0.016793 -0.20711
v 0.005176 -0.018231 -0.2118
v 0.0085059 -0.017577 -0.21409
v 0.00576 -0.01768 -0.21251
v 0.018762 -0.0050463 -0.22051
v 0.016845 -0.010913 -0.21944
v -0.007344 0.004462 -0.1921
v -0.010585 0.0051567 -0.18874
v -0.009785 0.005219 -0.18824
v -0.006843 0.005026 -0.1913
v -0.015568 0.012705 -0.19903
v -0.013301 0.015282 -0.20044
v -0.010391 0.017179 -0.20187
v -0.013244 0.015438 -0.20006
v -0.015126 0.013415 -0.19893
v -0.016372 0.011394 -0.1982
v -0.0084806 0.0059286 -0.18596
v -0.0093996 0.0057315 -0.18702
v -0.0087162 0.0054382 -0.18633
v -0.0054144 0.0063129 -0.18222
v -0.0031276 0.0058451 -0.17886
v -0.0025798 0.0057311 -0.1781
v 0.008526 0.013714 -0.1831
v 0.0081023 0.01346 -0.18266
v 0.012411 0.013899 -0.18547
v 0.013723 0.013705 -0.18613
v -0.004732 0.018474 -0.20525
v -0.003145 0.018594 -0.20624
v -0.006318 0.018265 -0.20425
v -0.0024375 -0.018251 -0.20736
v -0.01814 -0.004808 -0.1975
v -0.0022256 -0.0061856 -0.17789
v -0.0054874 -0.0063135 -0.18247
v -0.00032515 -0.0089738 -0.17817
v -0.00085402 -0.0075995 -0.1776
v -0.001655 -0.006832 -0.17762
v -0.0023159 -0.0059696 -0.1779
v -0.010056 -0.005205 -0.18864
v 0.0096576 -0.013429 -0.18349
v 0.012808 -0.013807 -0.18557
v 0.0090562 -0.013659 -0.18324
v 0.016028 -0.013464 -0.18764
v 0.016984 -0.013003 -0.18813
v 0.017864 -0.01306 -0.18883
v -0.000944 -0.018692 -0.20762
v -0.002518 -0.018702 -0.20663
f 14 12 7
f 14 11 12
f 13 14 7
f 13 611 14
f 16 20 21
f 21 13 16
f 13 7 16
f 16 17 20
f 30 25 27
f 30 27 28
f 596 30 28
f 596 33 32
f 596 28 33
f 35 29 104
f 35 104 36
f 34 35 36
f 37 34 36
f 37 36 587
f 37 40 32
f 37 41 40
f 38 41 37
f 53 49 71
f 53 71 54
f 53 54 55
f 58 56 57
f 57 59 58
f 58 53 55
f 58 55 56
f 81 80 71
f 99 66 85
f 99 85 89
f 94 97 95
f 89 94 95
f 95 98 99
f 89 95 99
f 222 221 224
f 225 222 224
f 225 224 441
f 243 241 242
f 241 235 239
f 370 367 276
f 378 377 224
f 221 378 224
f 426 407 284
f 426 406 407
f 406 408 407
f 417 421 420
f 407 288 284
f 426 284 427
f 427 402 426
f 284 437 427
f 224 382 441
f 370 278 439
f 99 515 517
f 99 517 467
f 99 467 469
f 99 469 66
f 515 516 517
f 516 518 517
f 20 118 117
f 29 26 104
f 581 578 38
f 581 574 578
f 85 87 89
f 49 81 71
f 40 4 32
f 597 596 32
f 3 606 602
f 606 605 602
f 32 4 3
f 20 117 21
f 617 618 620
f 618 617 619
f 620 621 617
f 622 621 688
f 1001 643 641
f 988 656 989
f 656 658 989
f 656 657 658
f 641 671 997
f 620 689 687
f 621 620 687
f 621 687 688
f 620 690 689
f 714 715 718
f 988 714 718
f 988 989 714
f 718 716 988
f 718 717 716
f 721 720 718
f 750 745 749
f 768 771 770
f 769 768 770
f 768 773 771
f 773 774 771
f 803 797 798
f 798 799 803
f 799 798 618
f 801 799 800
f 800 799 618
f 801 803 799
f 802 803 801
f 802 801 804
f 804 801 800
f 804 800 805
f 806 802 804
f 808 806 804
f 811 809 808
f 810 808 809
f 806 808 810
f 813 811 812
f 811 805 812
f 811 813 809
f 813 812 814
f 813 815 809
f 815 813 814
f 717 828 838
f 717 838 827
f 849 852 844
f 848 849 844
f 850 809 815
f 850 810 809
f 810 850 846
f 864 848 844
f 848 864 865
f 848 865 847
f 847 865 866
f 864 868 867
f 869 873 802
f 869 802 806
f 810 869 806
f 869 810 866
f 869 872 870
f 869 870 871
f 869 866 872
f 871 873 869
f 871 772 873
f 772 796 873
f 873 796 803
f 873 803 802
f 796 792 797
f 796 797 803
f 871 874 772
f 868 770 883
f 879 872 883
f 880 879 883
f 881 880 883
f 883 884 881
f 885 884 883
f 770 875 883
f 885 883 875
f 886 885 875
f 882 886 875
f 870 882 875
f 866 867 883
f 868 883 867
f 872 866 883
f 864 844 868
f 871 870 875
f 771 772 874
f 770 771 874
f 846 847 866
f 810 846 866
f 827 901 716
f 717 827 716
f 914 915 916
f 915 946 916
f 931 927 926
f 931 926 812
f 926 814 812
f 931 928 927
f 931 812 805
f 928 929 930
f 914 930 929
f 942 914 929
f 929 934 942
f 931 932 934
f 932 931 805
f 932 933 934
f 933 935 934
f 934 622 942
f 935 938 934
f 938 939 622
f 938 622 934
f 622 939 941
f 941 940 622
f 940 937 622
f 937 936 622
f 936 619 622
f 619 936 805
f 936 932 805
f 928 930 927
f 914 916 930
f 962 653 716
f 901 962 716
f 964 956 901
f 827 964 901
f 805 800 619
f 800 618 619
f 715 721 718
f 997 1001 641
f 2 1 4
f 505 1 2
f 1 3 4
f 1 505 5
f 505 503 5
f 8 1 5
f 503 6 5
f 5 6 7
f 7 8 5
f 9 8 7
f 7 12 9
f 9 12 11
f 9 11 10
f 613 611 13
f 613 13 593
f 593 13 15
f 15 13 21
f 16 7 6
f 18 19 17
f 20 17 19
f 19 18 136
f 19 132 20
f 132 19 136
f 132 136 135
f 21 23 15
f 22 15 23
f 23 24 22
f 24 23 116
f 117 116 23
f 21 117 23
f 25 24 564
f 25 22 24
f 25 616 22
f 27 25 26
f 25 30 616
f 29 28 27
f 26 29 27
f 30 596 615
f 30 615 616
f 596 31 615
f 596 595 31
f 34 32 33
f 35 34 33
f 35 33 28
f 29 35 28
f 36 566 588
f 587 39 37
f 39 38 37
f 34 37 32
f 41 38 42
f 43 45 42
f 44 43 42
f 38 44 42
f 45 46 42
f 41 42 46
f 40 46 47
f 46 40 41
f 47 46 51
f 45 48 46
f 46 48 51
f 48 49 50
f 51 48 50
f 51 50 52
f 53 50 49
f 53 52 50
f 54 592 55
f 56 55 62
f 56 62 61
f 57 56 61
f 53 58 508
f 59 57 60
f 60 57 61
f 63 514 61
f 61 62 63
f 63 62 64
f 65 63 64
f 469 65 66
f 68 66 67
f 71 72 70
f 82 72 80
f 72 71 80
f 73 81 49
f 74 73 49
f 78 75 76
f 75 78 74
f 78 77 74
f 77 78 88
f 79 87 86
f 79 77 87
f 80 81 79
f 79 81 77
f 73 77 81
f 83 84 82
f 82 84 68
f 84 85 68
f 85 83 86
f 85 84 83
f 87 85 86
f 88 76 90
f 76 589 90
f 88 89 87
f 90 89 88
f 91 89 90
f 92 91 90
f 93 94 91
f 91 94 89
f 97 94 93
f 95 97 96
f 96 97 93
f 99 98 100
f 99 100 101
f 515 99 101
f 102 101 100
f 26 103 105
f 104 105 102
f 105 104 26
f 105 103 101
f 102 105 101
f 103 107 101
f 103 106 107
f 108 110 106
f 106 110 109
f 110 112 109
f 113 110 111
f 112 110 113
f 123 114 118
f 115 118 114
f 115 114 562
f 562 116 115
f 117 118 115
f 117 115 116
f 121 120 119
f 124 122 120
f 121 124 120
f 120 122 118
f 123 118 122
f 123 122 124
f 125 124 121
f 125 126 124
f 121 128 125
f 125 127 126
f 149 121 119
f 121 149 128
f 149 119 129
f 130 129 133
f 131 133 129
f 119 131 129
f 131 120 132
f 119 120 131
f 133 135 130
f 135 133 134
f 134 133 131
f 132 135 134
f 491 138 135
f 135 136 491
f 137 139 138
f 140 138 139
f 140 135 138
f 140 139 143
f 140 130 135
f 142 143 139
f 141 142 139
f 142 144 143
f 145 144 142
f 146 144 145
f 147 129 146
f 147 146 148
f 145 148 146
f 150 147 148
f 150 149 147
f 128 149 151
f 149 150 151
f 155 151 150
f 151 152 552
f 552 128 151
f 155 152 151
f 154 155 148
f 148 155 150
f 153 176 154
f 156 176 153
f 448 157 561
f 158 157 448
f 159 160 158
f 161 160 159
f 160 162 158
f 161 190 160
f 163 190 161
f 163 164 190
f 160 166 162
f 190 165 160
f 160 165 166
f 162 166 167
f 167 347 168
f 166 347 167
f 168 169 171
f 171 169 170
f 171 172 168
f 167 168 172
f 171 174 172
f 173 172 174
f 173 167 172
f 162 167 173
f 157 173 174
f 158 173 157
f 158 162 173
f 174 175 156
f 175 171 176
f 156 175 176
f 174 171 175
f 154 357 177
f 176 357 154
f 179 181 180
f 178 181 179
f 183 182 180
f 182 183 184
f 183 180 185
f 181 185 180
f 183 186 184
f 184 186 187
f 186 188 187
f 187 188 189
f 187 189 164
f 164 189 190
f 188 192 189
f 189 193 190
f 189 192 193
f 190 193 191
f 193 195 191
f 191 195 194
f 195 196 194
f 194 196 197
f 196 198 197
f 195 198 196
f 198 201 197
f 198 200 201
f 195 199 198
f 199 200 198
f 200 203 201
f 199 205 200
f 205 203 200
f 205 202 203
f 203 204 201
f 205 208 202
f 206 207 205
f 207 208 205
f 210 240 208
f 208 240 209
f 207 210 208
f 211 210 207
f 212 210 211
f 212 244 210
f 244 240 210
f 258 213 211
f 211 213 212
f 214 257 258
f 218 216 217
f 217 219 218
f 248 219 220
f 220 221 222
f 222 223 220
f 222 225 223
f 441 226 225
f 225 226 233
f 226 227 228
f 233 226 228
f 232 229 228
f 228 230 231
f 230 228 227
f 228 229 233
f 233 234 255
f 234 233 229
f 229 236 235
f 203 238 236
f 203 236 204
f 204 236 229
f 202 237 238
f 202 238 203
f 238 237 239
f 237 241 239
f 235 238 239
f 241 240 242
f 243 242 212
f 243 212 213
f 242 244 212
f 240 244 242
f 241 237 209
f 209 240 241
f 245 247 218
f 216 218 247
f 248 245 218
f 248 218 219
f 245 248 246
f 220 249 248
f 248 249 251
f 248 251 246
f 251 250 246
f 249 252 251
f 251 252 250
f 250 252 254
f 253 254 252
f 253 235 254
f 253 229 235
f 235 241 254
f 241 243 254
f 243 245 254
f 246 254 245
f 246 250 254
f 253 252 234
f 253 234 229
f 225 255 223
f 223 255 234
f 223 234 249
f 249 234 252
f 220 223 249
f 215 216 247
f 256 215 247
f 256 257 215
f 247 245 256
f 245 257 256
f 213 258 243
f 243 258 257
f 245 243 257
f 235 236 238
f 208 209 237
f 208 237 202
f 233 255 225
f 201 228 259
f 228 231 259
f 201 232 228
f 260 259 231
f 231 430 260
f 430 264 260
f 260 264 261
f 260 261 265
f 263 260 262
f 260 265 262
f 260 263 259
f 262 265 267
f 265 266 267
f 261 438 265
f 438 440 265
f 265 440 266
f 440 268 266
f 370 269 268
f 268 269 270
f 269 277 270
f 277 271 272
f 272 271 273
f 275 273 271
f 273 275 274
f 367 366 274
f 367 274 275
f 367 275 276
f 276 271 277
f 275 271 276
f 370 276 277
f 370 268 278
f 439 432 279
f 279 432 280
f 280 281 282
f 437 284 282
f 283 280 282
f 437 282 281
f 368 280 283
f 283 282 288
f 285 368 283
f 285 283 288
f 284 288 282
f 286 288 287
f 285 288 286
f 288 407 287
f 291 289 290
f 289 291 304
f 291 290 292
f 291 292 293
f 294 291 293
f 297 295 293
f 295 294 293
f 295 297 296
f 298 295 296
f 300 298 299
f 298 300 294
f 300 299 301
f 300 302 294
f 294 303 304
f 303 294 302
f 294 304 291
f 372 304 305
f 307 305 304
f 303 307 304
f 372 306 304
f 307 303 217
f 310 305 307
f 309 308 310
f 307 314 310
f 314 217 311
f 311 316 314
f 316 311 313
f 311 312 313
f 314 315 310
f 315 314 316
f 315 320 310
f 309 310 320
f 315 316 317
f 317 316 318
f 319 315 317
f 315 319 320
f 319 322 320
f 319 317 321
f 323 324 322
f 324 320 322
f 319 328 322
f 328 319 321
f 328 321 329
f 329 321 325
f 321 326 325
f 328 327 322
f 328 331 327
f 328 330 331
f 330 328 329
f 330 329 186
f 330 183 331
f 183 330 186
f 183 185 331
f 332 331 185
f 333 335 332
f 333 332 181
f 181 332 185
f 334 335 333
f 336 337 334
f 337 338 334
f 334 338 335
f 338 339 335
f 337 341 338
f 343 340 341
f 343 341 337
f 342 340 343
f 345 343 344
f 344 343 337
f 345 342 343
f 346 342 345
f 346 345 169
f 169 345 344
f 169 168 346
f 347 346 168
f 194 348 347
f 347 348 346
f 349 194 347
f 191 194 349
f 166 349 347
f 165 349 166
f 165 191 349
f 190 191 165
f 348 197 350
f 194 197 348
f 348 350 346
f 342 346 350
f 263 342 350
f 263 350 351
f 197 351 350
f 197 201 351
f 201 259 351
f 263 351 259
f 342 263 340
f 263 352 340
f 340 352 341
f 352 353 341
f 352 262 353
f 263 262 352
f 355 341 353
f 353 354 356
f 353 267 354
f 356 355 353
f 262 267 353
f 356 354 324
f 338 355 356
f 338 356 339
f 339 356 323
f 356 324 323
f 354 309 324
f 324 309 320
f 341 355 338
f 267 272 354
f 354 272 309
f 267 270 272
f 272 273 309
f 169 344 170
f 170 344 336
f 170 336 357
f 357 336 334
f 357 334 177
f 177 334 178
f 334 333 178
f 176 170 357
f 178 333 181
f 344 337 336
f 358 323 327
f 323 322 327
f 339 323 358
f 358 327 331
f 332 358 331
f 335 339 358
f 335 358 332
f 186 329 188
f 326 359 192
f 325 326 192
f 359 360 193
f 192 359 193
f 199 360 359
f 199 195 360
f 193 360 195
f 318 206 359
f 359 206 199
f 326 318 359
f 206 205 199
f 321 317 326
f 317 318 326
f 329 325 188
f 188 325 192
f 318 313 206
f 316 313 318
f 313 207 206
f 312 214 313
f 313 214 211
f 313 211 207
f 312 215 214
f 258 211 214
f 311 215 312
f 217 216 311
f 311 216 215
f 314 307 217
f 361 372 310
f 308 361 310
f 310 372 305
f 363 361 308
f 362 361 363
f 363 273 274
f 363 274 362
f 273 363 309
f 309 363 308
f 365 366 367
f 365 368 371
f 365 369 368
f 370 369 365
f 369 439 368
f 370 439 369
f 368 279 280
f 368 439 279
f 371 368 285
f 367 370 365
f 371 364 365
f 365 361 366
f 361 362 366
f 361 365 364
f 364 371 285
f 285 286 364
f 306 364 287
f 364 306 372
f 364 286 287
f 364 372 361
f 366 362 274
f 287 289 306
f 306 289 304
f 302 217 303
f 374 373 302
f 217 302 373
f 217 373 219
f 220 219 373
f 220 373 221
f 221 373 374
f 375 300 376
f 300 301 376
f 379 377 376
f 377 378 376
f 378 375 376
f 378 374 375
f 378 221 374
f 224 377 379
f 380 381 379
f 224 379 381
f 382 224 381
f 382 381 383
f 383 384 382
f 394 230 384
f 394 384 385
f 230 227 384
f 385 384 386
f 386 384 383
f 387 386 383
f 386 387 388
f 385 386 388
f 389 388 387
f 389 381 390
f 389 390 391
f 391 388 389
f 392 385 391
f 393 385 392
f 395 393 424
f 395 385 393
f 385 395 394
f 394 395 424
f 398 424 396
f 399 398 397
f 399 401 400
f 402 401 399
f 403 402 397
f 399 397 402
f 403 397 398
f 403 404 425
f 398 404 403
f 405 404 398
f 425 404 413
f 413 404 405
f 406 426 403
f 407 408 290
f 407 290 289
f 408 292 290
f 292 409 293
f 408 409 292
f 410 293 409
f 408 410 409
f 411 293 410
f 297 411 419
f 297 293 411
f 419 411 412
f 411 413 412
f 413 405 412
f 405 414 418
f 418 412 405
f 418 414 415
f 415 414 392
f 415 392 390
f 391 390 392
f 415 390 380
f 380 390 381
f 416 417 415
f 418 415 417
f 417 420 418
f 418 420 412
f 420 419 412
f 419 420 296
f 296 420 421
f 298 421 299
f 296 421 298
f 417 416 421
f 422 421 416
f 416 415 422
f 422 415 380
f 422 380 423
f 376 423 379
f 423 380 379
f 423 376 301
f 422 423 301
f 421 422 299
f 422 301 299
f 296 297 419
f 392 414 393
f 393 414 424
f 424 414 396
f 414 405 396
f 425 413 411
f 406 403 425
f 410 425 411
f 408 406 425
f 410 408 425
f 407 289 287
f 428 429 427
f 400 430 230
f 429 431 430
f 431 432 430
f 430 432 264
f 430 400 429
f 431 429 428
f 428 434 431
f 431 434 433
f 437 434 428
f 434 435 436
f 437 435 434
f 434 436 433
f 427 437 428
f 281 436 435
f 436 281 433
f 281 435 437
f 281 280 433
f 280 431 433
f 432 431 280
f 438 432 439
f 438 439 440
f 439 278 440
f 268 440 278
f 432 438 261
f 264 432 261
f 429 401 427
f 401 429 400
f 402 427 401
f 403 426 402
f 405 398 396
f 399 400 394
f 230 394 400
f 424 399 394
f 424 398 399
f 385 388 391
f 383 389 387
f 389 383 381
f 382 384 441
f 226 441 227
f 441 384 227
f 300 375 302
f 302 375 374
f 295 298 294
f 270 277 272
f 269 370 277
f 266 270 267
f 266 268 270
f 430 231 230
f 204 229 232
f 204 232 201
f 215 257 214
f 184 187 442
f 442 187 164
f 442 164 163
f 548 442 443
f 548 184 442
f 442 163 444
f 443 442 444
f 444 163 161
f 159 158 445
f 445 158 448
f 449 446 447
f 446 449 448
f 450 145 142
f 451 447 450
f 451 450 141
f 141 450 142
f 447 451 452
f 451 485 452
f 485 451 141
f 453 531 483
f 483 531 452
f 481 453 483
f 453 481 454
f 461 455 454
f 455 457 454
f 456 454 457
f 457 455 522
f 522 455 458
f 458 455 460
f 458 460 459
f 459 463 520
f 462 459 460
f 462 463 459
f 455 461 460
f 460 461 464
f 462 460 464
f 463 462 465
f 465 466 513
f 465 462 464
f 513 463 465
f 463 513 517
f 517 513 471
f 517 471 467
f 467 471 470
f 467 63 468
f 63 467 514
f 470 514 467
f 469 468 63
f 467 468 469
f 475 470 471
f 475 60 470
f 475 471 472
f 473 475 472
f 466 473 472
f 466 474 473
f 473 474 475
f 476 59 475
f 476 477 59
f 465 477 476
f 476 475 466
f 476 466 465
f 464 478 477
f 58 477 478
f 478 479 511
f 511 479 480
f 479 481 480
f 481 479 482
f 461 482 479
f 479 478 461
f 461 478 464
f 481 482 454
f 461 454 482
f 481 483 480
f 480 483 484
f 485 487 484
f 487 485 137
f 485 141 137
f 141 139 137
f 487 137 486
f 138 486 137
f 486 138 491
f 487 490 488
f 487 488 489
f 486 490 487
f 486 491 493
f 492 486 493
f 486 492 490
f 494 492 495
f 493 495 492
f 495 493 496
f 17 502 496
f 495 496 502
f 502 497 495
f 494 497 499
f 495 497 494
f 497 501 498
f 497 500 499
f 497 498 500
f 501 497 502
f 501 502 503
f 503 504 501
f 504 2 501
f 504 505 2
f 505 504 503
f 16 6 503
f 503 502 16
f 506 500 498
f 506 507 499
f 506 499 500
f 498 47 506
f 507 506 508
f 506 47 52
f 506 52 508
f 47 51 52
f 509 507 508
f 509 508 510
f 509 510 511
f 478 511 510
f 511 480 509
f 509 480 488
f 480 489 488
f 510 58 478
f 58 510 508
f 509 488 512
f 507 509 512
f 490 512 488
f 507 512 499
f 490 494 512
f 494 499 512
f 501 40 498
f 47 498 40
f 501 2 40
f 17 16 502
f 17 496 18
f 496 493 18
f 492 494 490
f 491 136 493
f 493 136 18
f 487 489 484
f 480 484 489
f 485 484 452
f 483 452 484
f 477 465 464
f 477 58 59
f 474 466 475
f 471 513 472
f 466 472 513
f 475 59 60
f 470 60 61
f 514 470 61
f 515 101 107
f 516 515 107
f 516 107 109
f 518 516 109
f 519 463 518
f 463 519 520
f 521 458 520
f 521 522 458
f 523 522 521
f 524 522 523
f 457 524 525
f 456 525 528
f 528 525 526
f 525 524 526
f 523 526 524
f 533 527 526
f 526 527 528
f 527 159 528
f 528 159 529
f 529 445 448
f 159 445 529
f 530 529 448
f 528 529 530
f 528 530 456
f 530 448 531
f 453 530 531
f 456 530 453
f 531 448 449
f 449 452 531
f 452 449 447
f 527 161 159
f 533 532 527
f 532 161 527
f 532 533 534
f 532 534 541
f 534 535 536
f 533 535 534
f 533 526 535
f 526 523 535
f 536 535 521
f 535 523 521
f 520 536 521
f 520 537 536
f 519 557 537
f 520 519 537
f 545 536 537
f 545 537 539
f 539 537 538
f 540 542 539
f 540 539 538
f 539 542 543
f 542 541 543
f 544 543 541
f 544 539 543
f 539 544 545
f 545 544 541
f 545 541 534
f 546 443 542
f 542 532 541
f 542 444 532
f 542 443 444
f 546 542 540
f 546 547 555
f 540 547 546
f 546 548 443
f 548 546 555
f 555 547 549
f 123 550 555
f 550 123 124
f 124 551 550
f 551 124 126
f 552 551 126
f 552 126 127
f 551 552 553
f 554 180 553
f 555 553 180
f 552 554 553
f 551 553 550
f 555 550 553
f 182 555 180
f 555 182 548
f 152 554 552
f 554 179 180
f 152 178 554
f 178 179 554
f 155 177 152
f 177 178 152
f 123 555 111
f 111 555 549
f 111 549 113
f 113 549 556
f 113 556 558
f 557 518 558
f 557 558 556
f 558 518 109
f 557 519 518
f 557 556 559
f 557 559 538
f 540 538 559
f 559 549 547
f 549 559 556
f 547 540 559
f 558 109 112
f 113 558 112
f 538 537 557
f 536 545 534
f 532 444 161
f 457 525 456
f 522 524 457
f 463 517 518
f 520 458 459
f 454 456 453
f 447 153 450
f 450 153 145
f 153 154 145
f 156 447 446
f 447 156 153
f 446 560 156
f 560 446 448
f 156 560 561
f 448 561 560
f 182 184 548
f 154 177 155
f 171 170 176
f 157 174 561
f 156 561 174
f 145 154 148
f 127 128 552
f 149 129 147
f 143 144 146
f 143 146 140
f 146 129 130
f 146 130 140
f 131 132 134
f 132 120 118
f 132 118 20
f 125 128 127
f 108 563 562
f 108 24 563
f 116 563 24
f 562 563 116
f 111 108 562
f 111 562 114
f 108 111 110
f 114 123 111
f 106 109 107
f 108 564 24
f 564 108 106
f 26 564 106
f 106 103 26
f 26 565 564
f 25 565 26
f 564 565 25
f 36 102 566
f 36 104 102
f 567 566 100
f 100 566 102
f 98 567 100
f 568 567 98
f 568 570 569
f 568 98 570
f 569 570 571
f 570 95 571
f 98 95 570
f 569 571 583
f 573 583 571
f 571 96 572
f 572 573 571
f 571 95 96
f 575 574 573
f 583 573 574
f 573 572 575
f 578 575 576
f 577 576 575
f 575 578 574
f 577 575 579
f 572 579 575
f 579 572 96
f 579 96 93
f 579 93 580
f 580 577 579
f 91 580 93
f 577 580 92
f 580 91 92
f 44 38 578
f 576 44 578
f 39 582 581
f 584 581 582
f 39 581 38
f 584 583 581
f 583 574 581
f 585 569 584
f 583 584 569
f 586 584 582
f 584 586 585
f 587 588 586
f 585 586 588
f 582 39 586
f 586 39 587
f 587 36 588
f 585 588 567
f 567 588 566
f 585 568 569
f 568 585 567
f 43 576 577
f 577 92 43
f 44 576 43
f 43 92 589
f 92 90 589
f 589 45 43
f 45 589 590
f 75 45 590
f 589 76 590
f 75 590 76
f 45 75 48
f 75 74 48
f 85 66 68
f 86 83 79
f 83 82 80
f 83 80 79
f 88 87 77
f 78 76 88
f 77 73 74
f 49 48 74
f 72 82 68
f 72 68 67
f 69 72 67
f 70 72 69
f 69 71 70
f 65 64 591
f 591 592 69
f 64 592 591
f 64 55 592
f 54 69 592
f 591 69 67
f 591 67 65
f 54 71 69
f 67 66 65
f 63 65 469
f 62 55 64
f 53 508 52
f 2 4 40
f 595 612 593
f 595 594 612
f 594 595 596
f 594 596 597
f 597 599 594
f 600 598 597
f 597 598 599
f 32 600 597
f 32 3 600
f 3 602 600
f 602 601 600
f 594 600 601
f 600 603 598
f 600 599 603
f 600 604 599
f 604 600 594
f 599 604 594
f 598 603 599
f 601 602 614
f 602 607 614
f 602 605 607
f 605 608 607
f 609 607 608
f 607 609 610
f 609 611 610
f 614 610 612
f 610 614 607
f 610 611 613
f 612 610 613
f 612 594 614
f 593 612 613
f 601 614 594
f 609 14 611
f 10 14 609
f 608 10 609
f 605 9 608
f 608 9 10
f 605 606 9
f 606 3 8
f 8 9 606
f 1 8 3
f 593 31 595
f 31 593 615
f 593 15 615
f 15 616 615
f 22 616 15
f 10 11 14
f 619 617 622
f 617 621 622
f 622 688 623
f 629 623 624
f 624 623 688
f 625 629 624
f 627 629 625
f 675 627 625
f 626 627 675
f 627 626 628
f 627 631 629
f 630 631 627
f 627 628 630
f 629 631 632
f 943 631 636
f 631 630 636
f 630 637 636
f 637 630 635
f 637 635 633
f 637 633 638
f 634 945 637
f 638 634 637
f 638 633 640
f 633 639 640
f 626 641 640
f 626 640 635
f 640 639 635
f 639 633 635
f 628 626 635
f 628 635 642
f 628 642 630
f 635 630 642
f 626 675 641
f 641 643 640
f 643 638 640
f 643 644 638
f 634 638 644
f 645 634 644
f 644 646 645
f 647 645 646
f 648 649 647
f 647 649 645
f 649 648 650
f 651 649 650
f 649 651 652
f 655 653 652
f 651 654 652
f 988 653 655
f 656 988 655
f 656 655 708
f 650 708 655
f 708 650 648
f 660 708 659
f 659 708 648
f 660 662 661
f 660 707 708
f 661 707 660
f 663 662 660
f 663 660 659
f 663 659 665
f 664 665 659
f 659 666 664
f 659 647 666
f 659 648 647
f 664 666 999
f 664 999 667
f 665 664 667
f 671 668 667
f 668 665 667
f 671 673 670
f 671 670 669
f 671 641 672
f 673 671 674
f 671 672 674
f 674 625 677
f 675 674 672
f 675 625 674
f 641 675 672
f 674 676 993
f 677 676 674
f 673 674 993
f 678 677 624
f 677 680 679
f 678 680 677
f 688 681 680
f 680 681 679
f 688 680 678
f 684 683 681
f 681 682 684
f 684 686 685
f 687 686 684
f 682 687 684
f 689 686 687
f 682 688 687
f 688 682 681
f 690 620 618
f 798 690 618
f 798 691 690
f 996 689 690
f 996 692 696
f 691 692 996
f 996 690 691
f 692 691 693
f 696 692 693
f 693 695 696
f 697 696 698
f 698 785 699
f 699 711 700
f 699 700 702
f 785 711 699
f 702 701 699
f 702 703 701
f 703 662 701
f 703 704 662
f 661 704 705
f 661 705 706
f 707 661 706
f 656 708 707
f 706 656 707
f 657 656 706
f 657 706 705
f 657 704 658
f 657 705 704
f 658 704 703
f 658 703 702
f 709 658 700
f 658 702 700
f 989 709 700
f 989 700 710
f 711 710 700
f 711 712 710
f 712 783 710
f 783 713 710
f 714 989 713
f 718 720 719
f 720 721 722
f 721 971 722
f 752 722 971
f 723 722 752
f 724 722 723
f 726 725 723
f 724 723 725
f 726 723 728
f 729 728 727
f 727 728 723
f 734 730 729
f 731 729 727
f 731 734 729
f 734 732 736
f 734 736 733
f 734 733 735
f 736 735 733
f 737 736 739
f 736 738 739
f 738 743 739
f 740 739 743
f 742 740 743
f 742 743 741
f 741 743 745
f 741 745 744
f 745 746 763
f 746 745 747
f 747 750 748
f 747 745 750
f 738 749 743
f 743 749 745
f 750 753 751
f 753 752 755
f 754 753 755
f 753 754 751
f 752 758 755
f 756 755 978
f 755 759 978
f 756 748 755
f 758 757 755
f 755 757 759
f 748 754 755
f 748 756 747
f 747 756 746
f 756 763 746
f 756 760 763
f 756 978 760
f 760 980 761
f 762 763 761
f 744 763 762
f 764 762 761
f 764 761 980
f 764 766 877
f 877 762 764
f 766 764 765
f 768 765 767
f 768 769 765
f 772 771 774
f 773 768 977
f 977 775 966
f 966 775 793
f 777 793 775
f 775 776 777
f 778 777 759
f 777 779 793
f 779 777 780
f 777 778 780
f 781 714 780
f 778 781 780
f 714 782 780
f 782 783 780
f 779 780 783
f 779 783 784
f 783 712 784
f 711 784 712
f 784 711 785
f 785 788 784
f 785 695 786
f 788 785 786
f 788 786 787
f 787 786 789
f 789 790 787
f 791 787 790
f 779 784 791
f 784 788 791
f 787 791 788
f 792 793 791
f 779 791 793
f 795 793 792
f 790 792 791
f 792 794 795
f 792 790 789
f 796 794 792
f 797 792 789
f 786 797 789
f 805 807 804
f 804 807 808
f 807 811 808
f 811 807 805
f 814 923 815
f 815 923 816
f 816 861 815
f 816 817 861
f 818 817 816
f 822 819 818
f 819 817 818
f 818 816 820
f 904 818 820
f 904 902 818
f 818 902 822
f 902 904 903
f 821 822 902
f 823 826 822
f 825 822 826
f 819 822 825
f 824 819 825
f 825 826 824
f 838 823 822
f 828 829 898
f 828 898 830
f 831 828 830
f 831 830 834
f 834 830 833
f 897 834 833
f 897 833 835
f 897 836 834
f 897 837 836
f 838 836 837
f 838 837 823
f 839 823 837
f 826 839 840
f 826 840 824
f 841 824 840
f 841 840 835
f 839 835 840
f 842 841 835
f 842 835 730
f 730 835 729
f 835 833 729
f 891 842 730
f 842 891 887
f 887 843 842
f 844 845 843
f 843 845 842
f 844 853 845
f 844 852 853
f 849 847 846
f 849 848 847
f 852 849 851
f 851 849 846
f 850 851 846
f 855 853 852
f 854 858 855
f 855 856 853
f 841 856 857
f 857 824 841
f 857 856 858
f 857 858 859
f 819 859 861
f 819 857 859
f 860 861 859
f 854 860 859
f 858 854 859
f 815 860 850
f 861 860 815
f 854 862 860
f 863 851 862
f 854 863 862
f 851 863 852
f 852 863 855
f 863 854 855
f 860 862 850
f 850 862 851
f 817 819 861
f 855 858 856
f 857 819 824
f 856 841 845
f 856 845 853
f 866 865 867
f 865 864 867
f 875 874 871
f 770 876 766
f 766 769 770
f 876 877 766
f 876 742 877
f 877 741 744
f 742 741 877
f 868 878 876
f 878 742 876
f 770 868 876
f 872 879 870
f 879 880 870
f 880 881 882
f 880 882 870
f 881 884 885
f 881 885 886
f 881 886 882
f 844 878 868
f 878 844 887
f 878 887 888
f 844 843 887
f 878 888 889
f 892 889 890
f 889 888 890
f 891 892 890
f 893 894 892
f 891 893 892
f 893 895 894
f 737 894 895
f 735 737 895
f 734 895 730
f 891 730 895
f 895 893 891
f 895 734 735
f 736 737 735
f 737 892 894
f 892 737 896
f 737 739 896
f 889 896 740
f 896 889 892
f 896 739 740
f 888 887 890
f 891 890 887
f 889 740 742
f 878 889 742
f 875 770 874
f 845 841 842
f 839 826 823
f 897 839 837
f 839 897 835
f 836 831 834
f 828 831 836
f 838 828 836
f 830 832 833
f 833 832 729
f 728 832 898
f 729 832 728
f 898 829 899
f 728 898 899
f 900 726 899
f 900 718 726
f 718 719 726
f 717 718 900
f 717 900 899
f 899 726 728
f 717 899 829
f 828 717 829
f 832 830 898
f 827 838 821
f 838 822 821
f 827 902 903
f 827 903 963
f 904 963 903
f 904 905 963
f 905 904 820
f 948 905 906
f 905 820 906
f 907 906 908
f 906 907 948
f 908 906 909
f 906 820 909
f 908 909 910
f 910 911 913
f 911 912 913
f 912 944 913
f 915 914 912
f 925 916 946
f 917 946 918
f 915 918 946
f 911 918 915
f 918 911 917
f 919 917 920
f 911 920 917
f 922 920 921
f 909 921 920
f 820 921 909
f 816 921 820
f 922 921 816
f 923 922 816
f 923 924 922
f 926 925 924
f 814 924 923
f 924 814 926
f 926 927 916
f 926 916 925
f 929 928 931
f 931 934 929
f 936 937 935
f 936 935 933
f 937 938 935
f 941 939 938
f 937 940 938
f 940 941 938
f 936 933 932
f 629 632 623
f 942 623 632
f 943 942 632
f 632 631 943
f 942 943 944
f 942 944 912
f 636 944 943
f 944 945 913
f 908 913 945
f 944 637 945
f 636 637 944
f 914 942 912
f 942 622 623
f 927 930 916
f 946 919 925
f 947 925 919
f 925 947 924
f 922 947 919
f 924 947 922
f 919 946 917
f 922 919 920
f 910 909 920
f 920 911 910
f 911 915 912
f 908 910 913
f 907 949 948
f 949 950 948
f 951 950 949
f 951 949 952
f 952 949 907
f 907 953 952
f 955 952 953
f 957 955 954
f 955 953 954
f 957 961 955
f 956 951 955
f 956 955 961
f 901 956 961
f 958 957 959
f 958 960 957
f 961 960 653
f 958 653 960
f 961 957 960
f 962 961 653
f 962 901 961
f 957 954 959
f 645 959 954
f 649 959 645
f 959 649 958
f 958 652 653
f 652 958 649
f 956 964 951
f 964 827 963
f 950 964 948
f 964 963 905
f 964 905 948
f 964 950 951
f 645 954 953
f 634 953 945
f 953 908 945
f 953 907 908
f 645 953 634
f 951 952 955
f 902 827 821
f 797 693 798
f 693 797 786
f 794 796 772
f 794 965 795
f 966 795 965
f 795 966 793
f 966 967 773
f 967 966 968
f 965 968 966
f 968 774 773
f 774 968 794
f 968 773 967
f 968 965 794
f 772 774 794
f 693 786 695
f 715 781 969
f 715 714 781
f 969 781 974
f 721 715 969
f 721 969 970
f 970 972 971
f 721 970 971
f 757 971 972
f 972 759 757
f 758 971 757
f 972 973 759
f 759 973 974
f 778 974 781
f 759 974 778
f 969 974 973
f 970 973 972
f 970 969 973
f 975 978 777
f 759 777 978
f 776 975 777
f 975 976 977
f 975 977 767
f 978 975 767
f 765 978 767
f 979 978 765
f 979 765 980
f 979 760 978
f 760 979 980
f 977 976 775
f 976 975 776
f 976 776 775
f 977 966 773
f 768 767 977
f 765 769 766
f 765 764 980
f 744 762 877
f 744 745 763
f 760 761 763
f 752 971 758
f 748 751 754
f 727 723 752
f 981 727 752
f 753 981 752
f 749 982 753
f 753 982 981
f 982 749 981
f 749 983 981
f 983 749 984
f 738 984 749
f 738 736 984
f 736 732 984
f 983 731 727
f 731 983 984
f 732 731 984
f 981 983 727
f 750 749 753
f 750 751 748
f 734 731 732
f 725 726 719
f 719 986 725
f 725 985 724
f 725 986 985
f 985 986 719
f 987 985 720
f 985 987 724
f 985 719 720
f 724 987 720
f 724 720 722
f 988 716 653
f 714 783 782
f 714 713 783
f 713 989 710
f 989 658 709
f 704 661 662
f 701 662 663
f 991 701 663
f 991 699 701
f 991 663 992
f 994 990 991
f 990 685 991
f 994 991 992
f 685 990 684
f 673 993 992
f 994 992 993
f 993 676 994
f 677 679 676
f 676 679 995
f 676 995 994
f 990 994 995
f 683 679 681
f 679 683 995
f 684 995 683
f 990 995 684
f 673 992 670
f 670 992 669
f 663 669 992
f 697 991 685
f 991 697 699
f 697 698 699
f 698 696 785
f 696 695 785
f 697 685 686
f 697 694 696
f 697 686 694
f 694 686 996
f 996 696 694
f 693 691 798
f 689 996 686
f 678 624 688
f 625 624 677
f 646 1000 998
f 646 998 647
f 647 998 666
f 998 999 666
f 997 999 998
f 1001 998 1000
f 1001 997 998
f 646 1002 1000
f 646 644 1002
f 643 1002 644
f 1001 1002 643
f 1001 1000 1002
f 997 671 667
f 997 667 999
f 671 669 668
f 663 668 669
f 663 665 668
f 655 1004 650
f 1003 655 652
f 1003 1004 655
f 650 1004 1003
f 654 1003 652
f 1003 654 651
f 650 1003 651
