v 0.004892 -0.018267 -0.21245
v 0.009595 -0.017349 -0.21544
v 0.005022 -0.017913 -0.21218
v 0.009688 -0.016998 -0.21512
v 0.000116 -0.018558 -0.20946
v 0.004681 -0.018448 -0.21283
v 0.000114 -0.018562 -0.20947
v 0.009343 -0.017527 -0.21582
v 0.00028 -0.018203 -0.20921
v 0.004694 -0.018447 -0.21283
v -0.002909 -0.019372 -0.21428
v 0.001855 -0.019149 -0.2177
v -0.005762 -0.019609 -0.21882
v -0.001242 -0.019297 -0.22245
v 0.006614 -0.017954 -0.22084
v 0.011074 -0.015185 -0.22326
v 0.003518 -0.01779 -0.22577
v 0.009016 -0.015068 -0.22642
v 0.009855 -0.015071 -0.22532
v 0.009392 -0.017512 -0.21585
v 0.01369 -0.015212 -0.21864
v 0.013757 -0.015153 -0.21868
v 0.01394 -0.015035 -0.21823
v 0.017037 -0.010737 -0.2202
v 0.013942 -0.014738 -0.21781
v 0.017037 -0.010737 -0.2202
v 0.016955 -0.010563 -0.21971
v 0.013764 -0.01435 -0.21755
v 0.016655 -0.010332 -0.21937
v 0.016957 -0.010566 -0.21972
v 0.018189 -0.007203 -0.22092
v 0.018086 -0.007107 -0.22042
v 0.018793 -0.003544 -0.2213
v 0.01868 -0.003499 -0.2208
v 0.018053 -0.0056837 -0.22025
v 0.018527 0.000209 -0.22054
v 0.018332 0.003838 -0.22042
v 0.005041 -0.017467 -0.21207
v 0.00965 -0.016551 -0.21497
v -0.0018889 -0.017757 -0.20771
v -0.0080117 0.017307 -0.20386
v 0.00034 0.018148 -0.20911
v -0.017859 0.0017199 -0.19767
v -0.004457 0.018314 -0.20622
v -0.004646 0.018669 -0.20645
v 0.000281 0.018604 -0.2092
v -0.009131 0.017399 -0.20329
v 0.000282 0.018601 -0.2092
v -0.009379 0.01775 -0.20351
v -0.013397 0.015139 -0.20062
v -0.013086 0.014751 -0.20067
v -0.016466 0.0098563 -0.19854
v -0.016416 0.010964 -0.19873
v -0.017555 0.007505 -0.19802
v -0.016422 0.010967 -0.19873
v -0.016891 0.011138 -0.19887
v -0.018049 0.007601 -0.19814
v -0.013771 0.015436 -0.2008
v -0.014032 0.015613 -0.20121
v -0.014102 0.015554 -0.20116
v -0.016892 0.011138 -0.19887
v -0.017258 0.011201 -0.19923
v -0.018422 0.007636 -0.1985
v -0.019024 0.003976 -0.19812
v -0.02215 0.003977 -0.20317
v -0.019735 0.011201 -0.2032
v -0.020131 0.011201 -0.20386
v -0.017066 0.015588 -0.20557
v -0.019392 0.01308 -0.20489
v -0.018752 0.012697 -0.20526
v -0.01811 0.015473 -0.20704
v -0.020496 0.011201 -0.20448
v -0.021465 0.008843 -0.20416
v -0.020129 0.009879 -0.20479
v -0.020646 0.008521 -0.20463
v -0.022588 0.008515 -0.20845
v -0.023458 0.008843 -0.20809
v -0.020647 0.008521 -0.20463
v -0.020648 0.008521 -0.20463
v -0.02065 0.008522 -0.20463
v -0.020654 0.008523 -0.20463
v -0.020676 0.008532 -0.20461
v -0.020705 0.008543 -0.2046
v -0.020763 0.008566 -0.20456
v -0.02088 0.008612 -0.2045
v -0.020997 0.008659 -0.20443
v -0.020647 0.00852 -0.20463
v -0.020646 0.00852 -0.20463
v -0.023921 0.007982 -0.20851
v -0.023594 0.008762 -0.20835
v -0.023738 0.008554 -0.20853
v -0.023856 0.008272 -0.20859
v -0.022852 0.00824 -0.20887
v -0.022722 0.009877 -0.21052
v -0.022715 0.008438 -0.2087
v -0.022964 0.007972 -0.20892
v -0.02303 0.007694 -0.20885
v -0.023778 0.006835 -0.21043
v -0.023003 0.004096 -0.20684
v -0.023887 0.004146 -0.20636
v -0.023857 0.003501 -0.2086
v -0.023901 0.004393 -0.20908
v -0.02293 0.003504 -0.20652
v -0.023385 0.000492 -0.207
v -0.022298 0.000492 -0.20493
v -0.02317 0.000503 -0.20444
v -0.022261 0.000201 -0.20486
v -0.023132 0.000201 -0.20437
v -0.02317 -0.0001 -0.20444
v -0.022929 -0.003099 -0.20652
v -0.022298 -9e-05 -0.20493
v -0.023862 -0.003573 -0.20627
v -0.02215 -0.003574 -0.20317
v -0.020132 -0.010799 -0.20386
v -0.019734 -0.010799 -0.2032
v -0.023892 -0.003832 -0.20641
v -0.018421 -0.007242 -0.1985
v -0.021466 -0.00844 -0.20416
v -0.019024 -0.003575 -0.19812
v -0.018045 -0.007206 -0.19815
v -0.018649 -0.003544 -0.19776
v -0.019228 0.000192 -0.19799
v -0.019026 -0.003561 -0.19812
v -0.018849 0.000192 -0.19764
v -0.018648 0.003945 -0.19776
v -0.018344 0.000192 -0.19752
v -0.019025 0.003961 -0.19812
v -0.018145 0.003899 -0.19765
v -0.018146 -0.003499 -0.19765
v -0.017377 -0.0056733 -0.19797
v -0.015978 -0.010332 -0.19885
v -0.008974 -0.016551 -0.20326
v -0.01755 -0.00711 -0.19802
v -0.016423 -0.010566 -0.19873
v -0.016421 -0.010565 -0.19873
v -0.016892 -0.010737 -0.19887
v -0.016899 -0.010739 -0.19887
v -0.017259 -0.010799 -0.19923
v -0.013777 -0.015037 -0.20081
v -0.009385 -0.017352 -0.20352
v -0.013401 -0.01474 -0.20062
v -0.014103 -0.015152 -0.20117
v -0.014033 -0.015212 -0.20121
v -0.017064 -0.015186 -0.20557
v -0.009658 -0.017512 -0.20387
v -0.009606 -0.017528 -0.2039
v -0.012944 -0.017955 -0.20854
v -0.019018 -0.015068 -0.20879
v -0.008051 -0.019149 -0.21147
v -0.016051 -0.017791 -0.21347
v -0.010989 -0.019298 -0.21632
v -0.018395 -0.015072 -0.20756
v -0.020209 -0.010452 -0.20588
v -0.018113 -0.015069 -0.20705
v -0.02025 -0.010319 -0.20582
v -0.020306 -0.010182 -0.20578
v -0.020132 -0.009476 -0.2048
v -0.021021 -0.010798 -0.20539
v -0.020462 -0.009927 -0.2058
v -0.021088 -0.010635 -0.20534
v -0.021253 -0.010361 -0.20536
v -0.020647 -0.009737 -0.20595
v -0.021445 -0.010158 -0.20551
v -0.021619 -0.010078 -0.20576
v -0.023337 -0.010078 -0.20969
v -0.022296 -0.010798 -0.20793
v -0.022478 -0.009662 -0.20998
v -0.020817 -0.009664 -0.20619
v -0.020738 -0.009681 -0.20606
v -0.022725 -0.009472 -0.21052
v -0.022677 -0.009523 -0.21677
v -0.022624 -0.01046 -0.21277
v -0.022406 -0.010141 -0.21056
v -0.02259 -0.00811 -0.20845
v -0.023026 -0.007295 -0.20885
v -0.022829 -0.010037 -0.21272
v -0.022924 -0.009849 -0.21282
v -0.022965 -0.007568 -0.20892
v -0.023022 -0.009674 -0.21321
v -0.022481 -0.009924 -0.21043
v -0.023531 -0.007838 -0.21124
v -0.022726 -0.010247 -0.21271
v -0.022996 -0.009715 -0.21299
v -0.023016 -0.00968 -0.2131
v -0.022513 -0.009788 -0.2103
v -0.023498 -0.008078 -0.21152
v -0.023503 -0.007982 -0.21136
v -0.022853 -0.007836 -0.20887
v -0.022716 -0.008035 -0.2087
v -0.022512 -0.009694 -0.21014
v -0.023779 -0.006431 -0.21043
v -0.023002 -0.003692 -0.20684
v -0.0239 -0.003988 -0.20908
v -0.024831 -0.004141 -0.20876
v -0.024461 -0.008153 -0.21106
v -0.024429 -0.008404 -0.21136
v -0.024433 -0.008304 -0.21118
v -0.024445 -0.008439 -0.21153
v -0.025694 -0.002725 -0.21151
v -0.025612 -0.003878 -0.21448
v -0.025932 -9.9e-05 -0.21231
v -0.0258 -0.002725 -0.21382
v -0.024288 -9.9e-05 -0.20658
v -0.025694 0.003129 -0.21151
v -0.025928 0.000203 -0.21223
v -0.024737 -0.002725 -0.20798
v -0.023385 -9e-05 -0.207
v -0.023857 -0.003096 -0.2086
v -0.023353 0.000202 -0.20694
v -0.024255 0.000202 -0.2065
v -0.024288 0.000503 -0.20658
v -0.024737 0.003129 -0.20798
v -0.02483 0.004546 -0.20876
v -0.02446 0.008558 -0.21106
v -0.023529 0.008244 -0.21124
v -0.024432 0.008709 -0.21118
v -0.024428 0.008809 -0.21136
v -0.024444 0.008844 -0.21153
v -0.023512 0.008516 -0.2117
v -0.024448 0.008844 -0.21155
v -0.025612 0.004283 -0.21448
v -0.023496 0.008482 -0.21152
v -0.022673 0.009929 -0.21677
v -0.023502 0.008386 -0.21136
v -0.023968 0.004915 -0.21694
v -0.023392 0.008544 -0.21577
v -0.022485 0.010117 -0.21718
v -0.02303 0.010072 -0.2132
v -0.021717 0.009964 -0.21936
v -0.022603 0.010109 -0.21676
v -0.023668 0.005802 -0.21739
v -0.023366 0.008488 -0.21599
v -0.023405 0.008151 -0.21629
v -0.023464 0.007927 -0.21631
v -0.021157 0.010896 -0.21975
v -0.022378 0.010194 -0.21744
v -0.02337 0.00835 -0.21617
v -0.024324 0.008793 -0.2162
v -0.024326 0.008647 -0.21639
v -0.024355 0.008844 -0.21596
v -0.024361 0.008438 -0.21652
v -0.024422 0.008204 -0.21655
v -0.0245 0.007982 -0.21648
v -0.023537 0.007723 -0.21625
v -0.024598 0.004139 -0.21438
v -0.024712 0.003504 -0.21404
v -0.024361 0.003511 -0.21622
v -0.024851 0.000494 -0.21459
v -0.025874 0.000504 -0.21472
v -0.025271 0.00393 -0.21663
v -0.022917 0.00393 -0.22179
v -0.024613 0.00599 -0.21771
v -0.022001 0.011203 -0.22017
v -0.021609 0.011203 -0.2209
v -0.021984 0.01123 -0.22018
v -0.019115 0.014869 -0.22143
v -0.019206 0.013209 -0.22307
v -0.018008 0.01596 -0.22158
v -0.018407 0.016741 -0.21857
v -0.018874 0.015825 -0.22017
v -0.013503 0.018749 -0.22143
v -0.015851 0.015107 -0.22544
v -0.01776 0.01271 -0.22514
v -0.014659 0.016365 -0.22534
v -0.014726 0.016299 -0.22535
v -0.017114 0.012433 -0.22452
v -0.016548 0.011023 -0.22567
v -0.018696 0.010023 -0.22384
v -0.013808 0.015345 -0.22644
v -0.018822 0.011203 -0.22475
v -0.020301 0.008845 -0.22399
v -0.019007 0.011203 -0.22454
v -0.02141 0.011203 -0.22125
v -0.019431 0.004265 -0.22601
v -0.017461 0.007983 -0.22717
v -0.019552 0.008624 -0.22337
v -0.019593 0.00393 -0.22589
v -0.017701 0.008845 -0.22673
v -0.017033 0.008642 -0.22601
v -0.017499 0.008766 -0.22694
v -0.017363 0.008265 -0.22719
v -0.016802 0.007807 -0.22644
v -0.016721 0.008359 -0.22637
v -0.017375 0.008552 -0.22711
v -0.01671 0.00808 -0.22646
v -0.014821 0.010053 -0.22748
v -0.009635 0.010053 -0.23074
v -0.012282 0.010247 -0.2292
v -0.016378 0.01023 -0.22611
v -0.016841 0.008567 -0.22621
v -0.01431 0.008652 -0.22825
v -0.014735 0.008374 -0.228
v -0.015169 0.007629 -0.22784
v -0.014789 0.010241 -0.22745
v -0.014547 0.008577 -0.22809
v -0.015133 0.008768 -0.22888
v -0.014891 0.008845 -0.22904
v -0.013372 0.0031 -0.23094
v -0.012989 0.008845 -0.23033
v -0.015329 0.008559 -0.22878
v -0.017537 0.004553 -0.22773
v -0.017144 0.0039636 -0.22683
v -0.018258 0.0031 -0.22725
v -0.018722 0.000498 -0.22557
v -0.019426 0.000505 -0.22628
v -0.019484 0.000203 -0.22623
v -0.019426 -9.8e-05 -0.22628
v -0.01878 0.000203 -0.22551
v -0.018722 -9.1e-05 -0.22557
v -0.020332 -9.1e-05 -0.22386
v -0.01887 -0.0034803 -0.22521
v -0.02113 0.000203 -0.22446
v -0.020376 0.000203 -0.22381
v -0.021077 -9.8e-05 -0.22452
v -0.020326 0.000492 -0.22387
v -0.021077 0.000505 -0.22452
v -0.018867 0.0038901 -0.22521
v -0.019594 -0.003523 -0.22589
v -0.022918 -0.003524 -0.22179
v -0.025272 -0.003524 -0.21663
v -0.025874 -9.8e-05 -0.21472
v -0.020302 -0.008438 -0.22399
v -0.021411 -0.010797 -0.22125
v -0.019007 -0.010797 -0.22454
v -0.021611 -0.010797 -0.2209
v -0.024613 -0.005584 -0.21772
v -0.022002 -0.010797 -0.22017
v -0.02172 -0.009557 -0.21936
v -0.021985 -0.010824 -0.22018
v -0.021155 -0.010489 -0.21976
v -0.019115 -0.014465 -0.22143
v -0.019206 -0.012805 -0.22307
v -0.01801 -0.015554 -0.22159
v -0.018875 -0.015421 -0.22017
v -0.013501 -0.018345 -0.22143
v -0.015851 -0.014702 -0.22544
v -0.018407 -0.016338 -0.21857
v -0.022231 -0.013032 -0.2153
v -0.020336 -0.015183 -0.21525
v -0.020332 -0.015117 -0.21335
v -0.019036 -0.015396 -0.21986
v -0.022245 -0.009989 -0.2176
v -0.022722 -0.011035 -0.21825
v -0.022871 -0.010797 -0.21813
v -0.023393 -0.010077 -0.21746
v -0.023629 -0.010798 -0.2136
v -0.02314 -0.010349 -0.2179
v -0.023231 -0.010211 -0.2178
v -0.022335 -0.009845 -0.21751
v -0.02242 -0.009749 -0.21736
v -0.023321 -0.010113 -0.21765
v -0.022487 -0.009712 -0.21718
v -0.022606 -0.009704 -0.21676
v -0.023956 -0.010077 -0.21318
v -0.023629 -0.010698 -0.21263
v -0.023842 -0.010274 -0.21275
v -0.023921 -0.01013 -0.21294
v -0.023739 -0.010475 -0.21264
v -0.02354 -0.010885 -0.2127
v -0.023581 -0.010798 -0.21266
v -0.021921 -0.013503 -0.21431
v -0.020088 -0.014702 -0.21035
v -0.021274 -0.014113 -0.21269
v -0.023191 -0.010798 -0.21046
v -0.023346 -0.01035 -0.21017
v -0.02338 -0.010212 -0.21005
v -0.023379 -0.010112 -0.20988
v -0.019108 -0.014958 -0.20869
v -0.020997 -0.010886 -0.20545
v -0.017761 -0.012303 -0.22514
v -0.017114 -0.012026 -0.22452
v -0.014725 -0.015896 -0.22535
v -0.01466 -0.015958 -0.22534
v -0.01381 -0.014938 -0.22645
v -0.013142 -0.016046 -0.22659
v -0.013599 -0.016027 -0.22623
v -0.008722 -0.018983 -0.22353
v -0.008723 -0.018982 -0.22353
v -0.004764 -0.018343 -0.22693
v -0.010163 -0.017953 -0.22582
v -0.011364 -0.016155 -0.22773
v -0.009553 -0.016047 -0.22884
v -0.013601 -0.015571 -0.2267
v -0.011365 -0.016154 -0.22773
v -0.014843 -0.014128 -0.22682
v -0.016547 -0.010623 -0.22567
v -0.01721 -0.010884 -0.22637
v -0.012709 -0.010797 -0.22987
v -0.014483 -0.010797 -0.22866
v -0.017033 -0.010077 -0.22683
v -0.017323 -0.010633 -0.22636
v -0.017263 -0.010797 -0.22635
v -0.012801 -0.010076 -0.23003
v -0.012284 -0.00984 -0.2292
v -0.008085 -0.010077 -0.23245
v -0.014791 -0.009836 -0.22745
v -0.00962 -0.009836 -0.2307
v -0.012703 -0.010797 -0.22987
v -0.010852 -0.010796 -0.23094
v -0.009028 -0.014138 -0.23047
v -0.007534 -0.010633 -0.23251
v -0.00759 -0.010885 -0.23241
v -0.007554 -0.010797 -0.23245
v -0.00719 -0.010361 -0.23161
v -0.007251 -0.010619 -0.23151
v -0.007265 -0.010095 -0.23166
v -0.007613 -0.010356 -0.23256
v -0.004674 -0.009617 -0.23265
v -0.007722 -0.009828 -0.23155
v -0.005437 -0.010797 -0.23316
v -0.004116 -0.008438 -0.23416
v -0.007349 -0.008236 -0.2321
v -0.003886 -0.008218 -0.23322
v -0.005967 -0.012027 -0.23152
v -0.007463 -0.009897 -0.23164
v -0.009636 -0.009647 -0.23074
v -0.00759 -0.009844 -0.2316
v -0.00781 -0.007953 -0.23197
v -0.007888 -0.007673 -0.232
v -0.014824 -0.009647 -0.22748
v -0.009806 -0.007238 -0.23121
v -0.007834 -0.0074 -0.23208
v -0.014311 -0.008245 -0.22825
v -0.010134 -0.007967 -0.23089
v -0.00761 -0.00816 -0.23201
v -0.010299 -0.00817 -0.23076
v -0.010543 -0.008245 -0.23062
v -0.011003 -0.008438 -0.23148
v -0.012991 -0.008438 -0.23033
v -0.014892 -0.008438 -0.22904
v -0.013372 -0.002693 -0.23094
v -0.008678 -0.004145 -0.2333
v -0.01533 -0.008152 -0.22878
v -0.006552 -9.8e-05 -0.23437
v -0.018258 -0.002693 -0.22725
v -0.007935 -0.002693 -0.23374
v -0.017538 -0.004145 -0.22773
v -0.010582 -0.008152 -0.23177
v -0.010754 -0.008361 -0.23163
v -0.017141 -0.0035642 -0.22683
v -0.016806 -0.007402 -0.22644
v -0.017462 -0.007576 -0.22717
v -0.019432 -0.003859 -0.22601
v -0.017364 -0.007858 -0.22719
v -0.017376 -0.008145 -0.22711
v -0.017702 -0.008438 -0.22673
v -0.017034 -0.008236 -0.22602
v -0.019553 -0.008218 -0.22337
v -0.0175 -0.008359 -0.22694
v -0.016722 -0.007953 -0.22637
v -0.016842 -0.008161 -0.22621
v -0.016712 -0.007674 -0.22646
v -0.018697 -0.009617 -0.22384
v -0.018824 -0.010797 -0.22475
v -0.01638 -0.009828 -0.22612
v -0.016662 -0.010361 -0.22566
v -0.016674 -0.010094 -0.22575
v -0.016568 -0.009897 -0.22592
v -0.017335 -0.010356 -0.22645
v -0.017225 -0.010149 -0.22663
v -0.014751 -0.0079522 -0.228
v -0.015134 -0.008361 -0.22888
v -0.014548 -0.008171 -0.22809
v -0.006215 -9.2e-05 -0.23343
v -0.0080395 -0.0035636 -0.23255
v -0.005626 -0.003099 -0.2335
v -0.005979 -0.003765 -0.23332
v -0.008209 -0.007576 -0.23299
v -0.0062236 -0.0037044 -0.23431
v -0.004252 -9.8e-05 -0.23509
v -0.001006 -0.003524 -0.23556
v -0.001006 0.00393 -0.23556
v 0.004647 -0.003524 -0.23545
v 5.1e-05 -0.010797 -0.23404
v -0.00118 -0.010797 -0.23397
v 0.00339 -0.005583 -0.23533
v -0.00518 -0.010797 -0.23324
v 0.006629 -9.8e-05 -0.23517
v 0.006705 0.000203 -0.23515
v 0.006629 0.000504 -0.23517
v 0.004628 -0.003104 -0.23446
v 0.006301 -8.9e-05 -0.23419
v 0.008328 0.000493 -0.2333
v 0.008328 -8.9e-05 -0.2333
v 0.006367 0.000203 -0.23417
v 0.006745 -0.003098 -0.23383
v 0.006737 -0.003879 -0.23483
v 0.007407 -0.002725 -0.23471
v 0.006386 -0.003735 -0.23387
v 0.003825 -0.004475 -0.23442
v 0.004447 -0.007577 -0.2347
v 0.00424 -0.007317 -0.23373
v 0.004358 -0.007798 -0.23465
v 0.004154 -0.007521 -0.23369
v 0.003425 -0.009522 -0.23317
v 0.004152 -0.007745 -0.23362
v 0.004238 -0.007944 -0.23354
v 0.004452 -0.00824 -0.2345
v 0.004358 -0.008031 -0.23458
v 0.004629 -0.008386 -0.23441
v 0.004857 -0.008439 -0.23434
v 0.004611 -0.008138 -0.23339
v 0.0044 -0.008083 -0.23346
v 0.008865 -0.008439 -0.23252
v 0.008332 -0.00811 -0.23174
v 0.008895 -0.008439 -0.2325
v 0.009316 -0.008154 -0.23232
v 0.009033 -0.008404 -0.23242
v 0.009456 -0.002725 -0.23361
v 0.011548 -0.004134 -0.23166
v 0.009456 0.003129 -0.23361
v 0.013296 -9.9e-05 -0.23021
v 0.008896 0.000202 -0.23414
v 0.012215 -0.002725 -0.23123
v 0.008826 -9.9e-05 -0.23418
v 0.008391 0.000202 -0.23327
v 0.011273 -0.003095 -0.23071
v 0.012518 -9e-05 -0.22958
v 0.012759 -0.003099 -0.22896
v 0.012568 0.000202 -0.22952
v 0.013924 0.000492 -0.22769
v 0.013924 -9e-05 -0.22769
v 0.014743 -0.0001 -0.22827
v 0.013969 0.000202 -0.22763
v 0.01479 0.000202 -0.2282
v 0.015436 0.003976 -0.22681
v 0.014743 0.000503 -0.22827
v 0.01276 0.003503 -0.22896
v 0.01339 0.003977 -0.22969
v 0.012501 0.004097 -0.22916
v 0.013275 0.004236 -0.22978
v 0.011566 0.008843 -0.23012
v 0.011384 0.007981 -0.23073
v 0.01426 0.008843 -0.2266
v 0.010694 0.007694 -0.23007
v 0.00962 0.006759 -0.23143
v 0.009071 0.009875 -0.2305
v 0.010596 0.007973 -0.23004
v 0.01128 0.008274 -0.2307
v 0.010597 0.008243 -0.22992
v 0.011281 0.008556 -0.23057
v 0.011384 0.008763 -0.23036
v 0.010694 0.00844 -0.22972
v 0.010867 0.008515 -0.22949
v 0.013106 0.009878 -0.22568
v 0.013476 0.008521 -0.22607
v 0.01348 0.008522 -0.22607
v 0.013551 0.011201 -0.22587
v 0.013477 0.008521 -0.22607
v 0.013478 0.008521 -0.22607
v 0.013484 0.008523 -0.22608
v 0.013491 0.008526 -0.22608
v 0.013532 0.008543 -0.22611
v 0.013588 0.008566 -0.22615
v 0.0137 0.008612 -0.22622
v 0.013924 0.008705 -0.22638
v 0.013477 0.008521 -0.22607
v 0.013812 0.008658 -0.2263
v 0.014036 0.008751 -0.22645
v 0.014148 0.008797 -0.22653
v 0.012705 0.01308 -0.22505
v 0.01209 0.012697 -0.22464
v 0.013937 0.011201 -0.22529
v 0.014365 0.011201 -0.22464
v 0.011077 0.015589 -0.22325
v 0.016872 0.011201 -0.22068
v 0.018033 0.007643 -0.22141
v 0.01376 0.015553 -0.21868
v 0.013942 0.015438 -0.21823
v 0.017037 0.011138 -0.2202
v 0.013691 0.015614 -0.21863
v 0.009395 0.017913 -0.21585
v 0.009597 0.017753 -0.21545
v 0.004893 0.018672 -0.21245
v 0.009343 0.017929 -0.21581
v 0.013945 0.015141 -0.21781
v 0.009691 0.017402 -0.21512
v 0.005024 0.018317 -0.21218
v 0.013767 0.014751 -0.21755
v 0.0086749 0.01731 -0.21435
v 0.016656 0.010734 -0.21937
v 0.018086 0.007511 -0.22042
v 0.017751 0.007379 -0.22005
v 0.016958 0.010965 -0.21971
v 0.017038 0.011136 -0.2202
v 0.016959 0.010966 -0.21971
v 0.018189 0.007607 -0.22092
v 0.018794 0.003945 -0.2213
v 0.018637 0.003976 -0.22179
v 0.015436 -0.003574 -0.22681
v 0.018637 -0.003575 -0.22179
v 0.018842 0.000209 -0.22192
v 0.018639 0.003962 -0.22179
v 0.018994 0.000209 -0.22143
v 0.018879 0.000209 -0.22092
v 0.018638 -0.003561 -0.22179
v 0.018681 0.0039 -0.2208
v 0.018033 -0.007239 -0.22142
v 0.016871 -0.010799 -0.22069
v 0.014361 -0.010799 -0.22464
v 0.013936 -0.010799 -0.22529
v 0.012704 -0.012677 -0.22505
v 0.01355 -0.010799 -0.22587
v 0.012084 -0.012298 -0.22464
v 0.010202 -0.015068 -0.22484
v 0.013107 -0.009475 -0.22568
v 0.012292 -0.010181 -0.22627
v 0.01215 -0.010447 -0.22624
v 0.012891 -0.010886 -0.22675
v 0.009149 -0.014957 -0.22645
v 0.012948 -0.010798 -0.22674
v 0.013024 -0.010633 -0.22678
v 0.011215 -0.010798 -0.229
v 0.010056 -0.010078 -0.23072
v 0.009305 -0.010798 -0.23092
v 0.008079 -0.014701 -0.22806
v 0.01288 -0.010078 -0.22744
v 0.012144 -0.009664 -0.22691
v 0.013025 -0.010158 -0.22718
v 0.00944 -0.009662 -0.23006
v 0.013077 -0.01036 -0.22694
v 0.012339 -0.009927 -0.22642
v 0.012286 -0.009738 -0.22665
v 0.009071 -0.009471 -0.2305
v 0.009297 -0.009693 -0.23017
v 0.009154 -0.009786 -0.23024
v 0.009753 -0.01021 -0.23091
v 0.009905 -0.010111 -0.23084
v 0.009627 -0.01035 -0.23093
v 0.009034 -0.009924 -0.23025
v 0.008913 -0.010094 -0.23025
v 0.006479 -0.014109 -0.23015
v 0.005462 -0.015117 -0.22959
v 0.006968 -0.010454 -0.23142
v 0.00744 -0.010885 -0.23219
v 0.005296 -0.013497 -0.23143
v 0.007079 -0.010249 -0.23146
v 0.003758 -0.015183 -0.23041
v -6.2e-05 -0.016336 -0.23011
v 0.004548 -0.01303 -0.23213
v 0.006678 -0.010798 -0.23266
v 0.002262 -0.010797 -0.23394
v -0.000966 -0.015392 -0.23123
v 0.002097 -0.011027 -0.23386
v 0.002463 -0.009989 -0.23315
v 0.002581 -0.010349 -0.23408
v 5.9e-05 -0.010487 -0.2331
v 0.002588 -0.009846 -0.23318
v 0.002713 -0.010211 -0.23412
v 0.002892 -0.010113 -0.23413
v 0.002757 -0.009749 -0.2332
v 0.002946 -0.009719 -0.23318
v 0.0034 -0.009707 -0.2331
v 0.003094 -0.010077 -0.23412
v 0.00719 -0.010077 -0.23277
v 0.006763 -0.009668 -0.23196
v 0.007542 -0.010699 -0.23224
v 0.007529 -0.010275 -0.23248
v 0.007393 -0.010131 -0.23264
v 0.006944 -0.009715 -0.23183
v 0.00707 -0.00985 -0.23169
v 0.007116 -0.010039 -0.23156
v 0.00758 -0.010476 -0.23235
v 0.007498 -0.010798 -0.23221
v -0.002943 -0.015552 -0.23106
v 3.5e-05 -0.010822 -0.23403
v -0.002334 -0.014457 -0.23199
v 0.000658 -0.009556 -0.23343
v -0.001301 -0.015418 -0.23122
v 0.003271 -0.005396 -0.23434
v -0.003765 -0.012803 -0.23277
v -0.000774 -0.010797 -0.234
v -0.006245 -0.012305 -0.23237
v -0.007756 -0.015905 -0.22972
v -0.007342 -0.014692 -0.23079
v -0.007771 -0.015959 -0.22967
v -0.009042 -0.016028 -0.22909
v -0.009143 -0.014951 -0.22938
v -0.009456 -0.015564 -0.22931
v 0.010693 -0.00729 -0.23007
v 0.008753 -0.007838 -0.23155
v 0.010693 -0.008036 -0.22972
v 0.010596 -0.007839 -0.22992
v 0.008636 -0.007982 -0.23158
v 0.008488 -0.008078 -0.23164
v 0.00962 -0.006355 -0.23143
v 0.010866 -0.008113 -0.22949
v 0.010595 -0.007569 -0.23005
v 0.011383 -0.007578 -0.23073
v 0.011279 -0.00787 -0.2307
v 0.01128 -0.008152 -0.23057
v 0.011382 -0.008359 -0.23036
v 0.011565 -0.00844 -0.23012
v 0.013275 -0.003833 -0.22978
v 0.014259 -0.00844 -0.2266
v 0.013476 -0.008117 -0.22607
v 0.01339 -0.003574 -0.22969
v 0.012499 -0.003693 -0.22916
v 0.010856 -0.003981 -0.23096
v 0.009191 -0.008304 -0.23235
v 0.004693 0.018849 -0.21283
v 0.001856 0.019552 -0.21769
v 0.006616 0.018358 -0.22083
v 0.009017 0.015472 -0.22641
v 0.009855 0.015475 -0.22532
v -0.00124 0.019702 -0.22244
v 0.00352 0.018195 -0.22577
v 0.005465 0.015521 -0.22958
v 0.00915 0.015361 -0.22645
v 0.008081 0.015106 -0.22805
v -6.1e-05 0.016743 -0.2301
v -0.004763 0.01875 -0.22692
v -0.00294 0.015958 -0.23105
v 0.004551 0.013437 -0.23213
v -0.000954 0.015801 -0.23123
v -0.0013 0.015826 -0.23122
v 0.00376 0.015588 -0.2304
v 0.006986 0.010853 -0.23141
v 0.005297 0.013903 -0.23143
v 0.007442 0.01129 -0.23219
v 0.006682 0.011202 -0.23265
v 0.002263 0.011203 -0.23393
v 0.003095 0.010483 -0.23411
v 0.007192 0.010482 -0.23277
v 0.007547 0.011094 -0.23224
v 0.007499 0.011202 -0.23221
v 0.007085 0.010645 -0.23147
v 0.007581 0.010874 -0.23235
v 0.007118 0.010437 -0.23156
v 0.007069 0.010251 -0.23169
v 0.007528 0.010676 -0.23249
v 0.007392 0.010534 -0.23264
v 0.006943 0.010119 -0.23183
v 0.00676 0.010071 -0.23195
v 0.0034 0.01011 -0.2331
v 0.003424 0.009928 -0.23316
v 6.1e-05 0.010894 -0.2331
v 0.004155 0.007927 -0.23369
v 0.004402 0.008487 -0.23346
v 0.008332 0.008516 -0.23174
v 0.004615 0.008537 -0.2334
v 0.003827 0.004879 -0.23441
v 0.000658 0.009963 -0.23343
v 0.002946 0.010119 -0.23318
v 0.004153 0.00815 -0.23362
v 0.004239 0.008349 -0.23354
v 0.008489 0.008482 -0.23164
v 0.003271 0.005802 -0.23434
v 0.002674 0.010195 -0.23319
v 0.002803 0.010559 -0.23413
v 0.002462 0.010385 -0.23315
v 0.002583 0.010755 -0.23408
v 0.002098 0.011434 -0.23385
v 0.00339 0.005989 -0.23533
v 0.004647 0.00393 -0.23545
v 5.3e-05 0.011203 -0.23404
v 3.7e-05 0.011227 -0.23403
v -0.000771 0.011203 -0.234
v -0.002333 0.014865 -0.23198
v -0.003765 0.013211 -0.23277
v -0.001179 0.011203 -0.23397
v -0.005182 0.011203 -0.23323
v -0.005436 0.011203 -0.23316
v -0.004115 0.008845 -0.23416
v -0.004672 0.010023 -0.23265
v -0.003884 0.008624 -0.23322
v -0.007705 0.008845 -0.23301
v -0.008208 0.007983 -0.23299
v -0.006305 0.004266 -0.23426
v -0.006126 0.00393 -0.23435
v -0.005979 0.004172 -0.23332
v -0.004252 0.000505 -0.23509
v -0.005626 0.003505 -0.2335
v -0.006216 0.000498 -0.23343
v -0.0078 0.003509 -0.23268
v -0.003983 0.000497 -0.23414
v -0.004174 0.000203 -0.23511
v -0.003991 -8.6e-05 -0.23413
v -0.003919 0.000203 -0.23415
v -0.006141 0.000203 -0.23346
v -0.006551 0.000505 -0.23437
v -0.006476 0.000203 -0.2344
v -0.007935 0.0031 -0.23374
v -0.008678 0.004552 -0.2333
v -0.008279 0.004456 -0.23238
v -0.010581 0.008559 -0.23176
v -0.009805 0.007645 -0.2312
v -0.007831 0.007808 -0.23208
v -0.010133 0.008374 -0.23089
v -0.010298 0.008577 -0.23076
v -0.010753 0.008768 -0.23163
v -0.011002 0.008845 -0.23148
v -0.010541 0.008653 -0.23061
v -0.008267 0.008265 -0.23291
v -0.007886 0.00808 -0.232
v -0.008185 0.008552 -0.23288
v -0.007809 0.008359 -0.23197
v -0.00761 0.008567 -0.23201
v -0.007979 0.008766 -0.23292
v -0.007348 0.008643 -0.2321
v -0.007265 0.010498 -0.23166
v -0.007463 0.010302 -0.23164
v -0.007189 0.010763 -0.23161
v -0.005966 0.012434 -0.23152
v -0.007245 0.011023 -0.23151
v -0.007722 0.010229 -0.23155
v -0.008084 0.010483 -0.23245
v -0.009619 0.010242 -0.23069
v -0.012799 0.010483 -0.23002
v -0.014484 0.011203 -0.22866
v -0.017032 0.010483 -0.22683
v -0.012701 0.011203 -0.22987
v -0.012708 0.011203 -0.22986
v -0.010853 0.011203 -0.23094
v -0.009028 0.014548 -0.23046
v -0.007532 0.011036 -0.23251
v -0.007553 0.011203 -0.23245
v -0.007588 0.011291 -0.23241
v -0.007614 0.01076 -0.23256
v -0.00782 0.010556 -0.23254
v -0.009454 0.015972 -0.22931
v -0.011363 0.016561 -0.22772
v -0.009141 0.015358 -0.22937
v -0.00955 0.016454 -0.22884
v -0.00904 0.016435 -0.22909
v -0.007768 0.016365 -0.22966
v -0.00734 0.0151 -0.23079
v -0.007754 0.016315 -0.22971
v -0.008721 0.019387 -0.22352
v -0.00872 0.019388 -0.22352
v -0.010992 0.019701 -0.21631
v -0.005761 0.020013 -0.21881
v -0.00576 0.020013 -0.21881
v -0.00291 0.019775 -0.21428
v -0.008054 0.019552 -0.21146
v -0.009605 0.017929 -0.2039
v -0.012946 0.018357 -0.20854
v -0.004902 0.018848 -0.2068
v -0.004889 0.01885 -0.20681
v -0.002908 0.019775 -0.21427
v -0.000114 0.019137 -0.20983
v 0.000116 0.018963 -0.20946
v 0.004682 0.01885 -0.21282
v 0.000118 0.01896 -0.20946
v -0.009655 0.017913 -0.20387
v -0.016053 0.018194 -0.21347
v -0.019016 0.015472 -0.20879
v -0.018384 0.015475 -0.20754
v -0.020219 0.010842 -0.20588
v -0.021019 0.011202 -0.20539
v -0.020996 0.011289 -0.20544
v -0.019107 0.01536 -0.20868
v -0.020313 0.010577 -0.20577
v -0.020466 0.010325 -0.2058
v -0.021092 0.011027 -0.20534
v -0.021256 0.010758 -0.20536
v -0.021446 0.010559 -0.20551
v -0.021618 0.010482 -0.20575
v -0.02248 0.010056 -0.20997
v -0.020648 0.010138 -0.20595
v -0.023336 0.010482 -0.20969
v -0.022296 0.011202 -0.20793
v -0.020818 0.010059 -0.20619
v -0.02319 0.011202 -0.21046
v -0.020088 0.015105 -0.21035
v -0.021273 0.014517 -0.21268
v -0.02033 0.015522 -0.21335
v -0.02241 0.010542 -0.21056
v -0.020334 0.015588 -0.21524
v -0.022641 0.010848 -0.21278
v -0.022732 0.010644 -0.21271
v -0.023539 0.01129 -0.2127
v -0.02192 0.013907 -0.2143
v -0.023628 0.011203 -0.2136
v -0.02223 0.013435 -0.21529
v -0.02287 0.011203 -0.21813
v -0.019033 0.0158 -0.21987
v -0.022722 0.011439 -0.21824
v -0.022247 0.010385 -0.21761
v -0.023139 0.010755 -0.2179
v -0.023392 0.010483 -0.21745
v -0.023278 0.010559 -0.21772
v -0.023955 0.010482 -0.21318
v -0.023632 0.011093 -0.21263
v -0.02392 0.010534 -0.21294
v -0.023843 0.010676 -0.21275
v -0.023741 0.010873 -0.21264
v -0.022925 0.010251 -0.21282
v -0.022832 0.010436 -0.21272
v -0.022995 0.010118 -0.21299
v -0.02358 0.011202 -0.21266
v -0.022486 0.010317 -0.21042
v -0.023345 0.010754 -0.21017
v -0.022512 0.010187 -0.21029
v -0.023379 0.010611 -0.21004
v -0.023377 0.010515 -0.20988
v -0.02251 0.010097 -0.21013
v -0.010161 0.018359 -0.22581
v -0.006244 0.012712 -0.23237
v -0.01314 0.016453 -0.22658
v -0.011364 0.01656 -0.22772
v -0.014844 0.014531 -0.22682
v -0.013601 0.015976 -0.2267
v -0.017209 0.011291 -0.22636
v -0.017261 0.011203 -0.22635
v -0.017323 0.011036 -0.22636
v -0.016662 0.010764 -0.22566
v -0.016673 0.010498 -0.22575
v -0.017333 0.01076 -0.22645
v -0.017223 0.010556 -0.22663
v -0.016566 0.010302 -0.22592
v -0.013597 0.016433 -0.22623
v 0.004628 0.00351 -0.23446
v 0.006387 0.00414 -0.23387
v 0.006745 0.003504 -0.23383
v 0.006302 0.000491 -0.23421
v 0.006737 0.004284 -0.23483
v 0.007407 0.00313 -0.23471
v 0.008826 0.000504 -0.23418
v 0.004448 0.007982 -0.23469
v 0.008866 0.008844 -0.23252
v 0.008897 0.008843 -0.2325
v 0.004858 0.008844 -0.23434
v 0.00463 0.008792 -0.23441
v 0.004359 0.008436 -0.23458
v 0.004359 0.008203 -0.23465
v 0.004453 0.008645 -0.2345
v 0.004238 0.007723 -0.23373
v 0.009317 0.008558 -0.23232
v 0.009034 0.008809 -0.23241
v 0.009192 0.008708 -0.23234
v 0.008636 0.008386 -0.23158
v 0.008754 0.008243 -0.23155
v 0.011549 0.004539 -0.23166
v 0.010857 0.004386 -0.23096
v 0.012215 0.003129 -0.23123
v 0.011274 0.0035 -0.23071
v 0.012518 0.000492 -0.22958
v 0.013297 0.000503 -0.23021
v 0.013348 0.000201 -0.23015
v 0.008917 0.010492 -0.23025
v 0.009306 0.011202 -0.23091
v 0.009629 0.010754 -0.23093
v 0.00648 0.014515 -0.23014
v 0.009038 0.010317 -0.23026
v 0.009157 0.010187 -0.23023
v 0.009757 0.010611 -0.23091
v 0.009907 0.010515 -0.23083
v 0.010058 0.010482 -0.23072
v 0.012881 0.010482 -0.22744
v 0.011218 0.011202 -0.22899
v 0.00944 0.010065 -0.23005
v 0.012147 0.010059 -0.22691
v 0.009299 0.010097 -0.23016
v 0.013025 0.010559 -0.22718
v 0.012286 0.010139 -0.22665
v 0.012341 0.010324 -0.22642
v 0.0123 0.010575 -0.22627
v 0.013078 0.010757 -0.22694
v 0.013029 0.011025 -0.22679
v 0.012949 0.011202 -0.22674
v 0.012167 0.010842 -0.22623
v 0.012892 0.011289 -0.22674
v 0.010204 0.015472 -0.22483
v -0.007706 -0.008438 -0.23301
v -0.008267 -0.007858 -0.23291
v -0.00798 -0.00836 -0.23292
v -0.008186 -0.008146 -0.23288
v -0.00782 -0.01015 -0.23254
v -0.005764 -0.019609 -0.21882
v -0.023668 -0.005397 -0.21739
v -0.023968 -0.004511 -0.21695
v -0.023538 -0.007317 -0.21625
v -0.024362 -0.003104 -0.21622
v -0.024598 -0.003733 -0.21438
v -0.023465 -0.007522 -0.21631
v -0.023406 -0.007745 -0.21629
v -0.024423 -0.007798 -0.21655
v -0.024501 -0.007577 -0.21649
v -0.024362 -0.008032 -0.21652
v -0.024356 -0.008439 -0.21596
v -0.024327 -0.008241 -0.2164
v -0.023371 -0.007944 -0.21618
v -0.024325 -0.008388 -0.2162
v -0.02337 -0.008082 -0.21599
v -0.023407 -0.008132 -0.21577
v -0.023514 -0.008111 -0.2117
v -0.024449 -0.008439 -0.21156
v -0.024712 -0.003098 -0.21404
v -0.024924 -8.8e-05 -0.21238
v -0.024866 -8.5e-05 -0.2146
v -0.024861 0.000203 -0.21453
v -0.025885 0.000203 -0.21464
v -0.024928 0.00049 -0.21238
v -0.024921 0.000203 -0.21231
v -0.025932 0.000504 -0.21231
v -0.0258 0.00313 -0.21382
v -0.023595 -0.008358 -0.20835
v -0.023739 -0.00815 -0.20853
v -0.023857 -0.007869 -0.20859
v -0.023922 -0.007578 -0.20851
v -0.023459 -0.00844 -0.20809
v -0.022676 -0.010352 -0.21274
v -0.020648 -0.008117 -0.20463
v -0.018748 -0.012298 -0.20526
v -0.020497 -0.010799 -0.20448
v -0.019394 -0.012676 -0.20489
v -0.002907 -0.019372 -0.21428
v -0.004902 -0.018447 -0.2068
v -0.004891 -0.018449 -0.20681
v -0.000116 -0.018736 -0.20983
v -0.004651 -0.018271 -0.20646
v -0.00446 -0.017916 -0.20622
v -0.009135 -0.017001 -0.20329
v -0.013088 -0.01435 -0.20067
v 0.00028 -0.0182 -0.2092
f 35 39 29
f 37 35 36
f 37 38 35
f 35 38 39
f 29 39 28
f 40 38 41
f 580 38 37
f 41 38 580
f 41 580 42
f 40 41 43
f 52 41 51
f 43 41 52
f 70 72 69
f 80 75 79
f 82 75 81
f 83 75 82
f 85 75 84
f 132 130 131
f 40 130 132
f 40 43 130
f 317 277 274
f 440 435 437
f 318 311 443
f 466 469 467
f 546 554 553
f 548 562 561
f 548 545 562
f 580 37 581
f 580 581 579
f 581 37 583
f 604 603 602
f 770 771 769
f 770 773 771
f 775 783 784
f 775 784 785
f 787 786 789
f 112 192 116
f 1006 1005 1007
f 132 131 1015
f 1 8 2
f 4 1 2
f 9 1 3
f 3 1 4
f 1 9 5
f 7 1 5
f 7 6 1
f 10 1 6
f 8 1 10
f 12 8 10
f 10 11 12
f 11 10 6
f 13 12 11
f 15 8 12
f 13 14 12
f 15 12 14
f 20 15 16
f 15 19 16
f 15 14 17
f 17 18 15
f 15 18 19
f 15 20 8
f 20 16 21
f 2 8 20
f 21 2 20
f 16 22 21
f 2 21 23
f 23 21 22
f 25 2 23
f 24 23 26
f 23 24 27
f 23 27 25
f 23 22 26
f 25 27 28
f 28 27 29
f 30 29 27
f 27 24 30
f 32 29 30
f 31 30 24
f 32 30 31
f 32 31 33
f 29 32 35
f 32 33 34
f 34 35 32
f 34 36 35
f 4 39 3
f 3 39 38
f 4 28 39
f 3 38 40
f 44 41 42
f 44 42 48
f 44 45 47
f 46 45 44
f 46 44 48
f 47 41 44
f 42 46 48
f 47 45 49
f 47 49 50
f 50 51 47
f 47 51 41
f 50 52 51
f 50 53 52
f 54 52 53
f 50 55 53
f 54 53 55
f 57 55 56
f 58 56 55
f 54 55 57
f 58 55 50
f 56 58 61
f 49 59 58
f 50 49 58
f 58 59 60
f 58 60 61
f 61 57 56
f 63 61 62
f 61 60 62
f 61 63 57
f 66 63 62
f 63 65 64
f 57 63 64
f 66 65 63
f 60 66 62
f 65 66 67
f 60 68 66
f 66 69 67
f 68 69 66
f 70 69 71
f 68 71 69
f 67 69 72
f 75 73 72
f 73 67 72
f 75 72 74
f 74 72 70
f 77 75 76
f 74 76 75
f 73 75 77
f 75 81 80
f 75 84 83
f 75 86 85
f 87 78 88
f 100 77 89
f 100 73 77
f 89 77 91
f 76 90 77
f 91 77 90
f 89 91 92
f 90 93 91
f 91 93 92
f 94 93 95
f 94 96 93
f 93 90 95
f 92 93 96
f 94 97 96
f 97 92 96
f 97 94 98
f 97 98 99
f 100 97 99
f 97 100 89
f 92 97 89
f 103 100 99
f 99 101 103
f 99 102 101
f 99 98 102
f 104 103 101
f 104 105 103
f 106 103 105
f 100 103 106
f 106 65 100
f 108 65 106
f 107 108 106
f 107 106 105
f 108 107 109
f 65 108 109
f 110 109 111
f 110 112 109
f 109 107 111
f 113 109 112
f 65 109 113
f 113 64 65
f 113 118 114
f 113 114 115
f 113 115 117
f 119 64 113
f 116 113 112
f 118 113 116
f 113 117 119
f 119 120 121
f 120 119 117
f 119 121 123
f 64 119 122
f 122 119 123
f 124 123 121
f 124 122 123
f 126 125 124
f 125 127 124
f 126 124 121
f 124 127 122
f 125 64 127
f 64 122 127
f 128 125 126
f 126 121 129
f 126 43 128
f 129 43 126
f 129 130 43
f 133 131 130
f 133 130 129
f 133 134 131
f 120 134 133
f 133 121 120
f 129 121 133
f 120 136 134
f 131 134 135
f 136 135 134
f 136 138 137
f 139 136 137
f 136 117 138
f 139 135 136
f 117 136 120
f 139 143 140
f 141 139 140
f 135 139 141
f 139 137 142
f 143 139 142
f 144 143 142
f 144 145 143
f 140 143 145
f 147 146 145
f 146 140 145
f 147 145 144
f 148 147 152
f 148 150 147
f 149 146 147
f 151 149 147
f 152 147 144
f 151 147 150
f 152 153 148
f 152 155 153
f 154 155 152
f 144 154 152
f 156 153 155
f 154 156 155
f 158 153 156
f 157 156 154
f 156 157 159
f 158 156 160
f 161 156 159
f 160 156 161
f 161 162 163
f 161 159 162
f 164 161 163
f 164 160 161
f 164 167 165
f 166 164 165
f 166 160 164
f 163 168 164
f 167 164 168
f 168 170 167
f 163 169 168
f 169 157 168
f 168 157 170
f 171 179 170
f 186 171 170
f 170 172 173
f 170 182 172
f 180 170 173
f 174 170 157
f 189 170 174
f 170 175 191
f 175 170 178
f 170 176 182
f 170 177 176
f 170 183 177
f 178 170 188
f 170 179 184
f 185 170 180
f 187 170 181
f 181 170 191
f 170 184 183
f 190 170 185
f 186 170 187
f 188 170 189
f 167 170 190
f 191 195 181
f 191 175 192
f 191 192 193
f 194 191 193
f 191 194 195
f 199 195 194
f 195 198 196
f 195 196 197
f 197 181 195
f 199 198 195
f 200 199 202
f 200 198 199
f 199 201 202
f 199 205 201
f 203 199 206
f 203 204 199
f 205 199 204
f 199 194 206
f 206 208 207
f 206 207 203
f 208 206 194
f 208 192 110
f 110 207 208
f 208 194 193
f 193 192 208
f 111 207 110
f 209 203 207
f 105 207 111
f 105 209 207
f 104 210 209
f 209 105 104
f 209 210 203
f 210 104 211
f 211 203 210
f 104 212 211
f 204 211 212
f 204 203 211
f 101 212 104
f 212 101 213
f 213 204 212
f 213 101 102
f 214 204 213
f 98 213 102
f 213 98 214
f 215 216 214
f 214 98 215
f 217 214 216
f 218 214 217
f 204 214 218
f 219 218 222
f 218 219 220
f 221 218 220
f 222 218 217
f 218 221 204
f 223 222 94
f 223 219 222
f 94 222 224
f 217 224 222
f 94 224 215
f 216 215 224
f 216 224 217
f 94 228 223
f 223 231 225
f 234 223 225
f 226 223 232
f 219 223 226
f 227 223 230
f 236 223 227
f 223 228 230
f 231 223 229
f 223 235 229
f 232 223 237
f 233 223 234
f 237 223 233
f 236 235 223
f 238 232 237
f 239 237 233
f 238 237 239
f 239 233 241
f 239 240 238
f 241 240 239
f 243 241 242
f 241 233 242
f 243 240 241
f 245 243 244
f 242 244 243
f 221 240 243
f 245 221 243
f 244 225 245
f 246 221 245
f 245 247 246
f 245 225 247
f 248 246 247
f 247 249 248
f 250 247 225
f 247 250 249
f 251 249 250
f 252 251 250
f 250 225 252
f 229 252 231
f 252 225 231
f 253 251 252
f 252 229 253
f 251 253 254
f 255 254 253
f 253 229 255
f 235 256 255
f 255 229 235
f 256 254 255
f 256 235 258
f 254 256 257
f 258 257 256
f 235 260 258
f 259 258 260
f 261 258 259
f 258 262 257
f 262 258 261
f 262 266 263
f 263 257 262
f 264 262 265
f 266 262 264
f 262 261 265
f 267 268 266
f 267 266 269
f 269 266 264
f 270 266 268
f 266 270 263
f 270 268 271
f 271 272 270
f 270 257 263
f 257 270 272
f 273 257 272
f 272 251 273
f 251 272 271
f 251 254 273
f 257 273 254
f 251 271 277
f 277 271 274
f 274 271 275
f 275 271 278
f 271 268 276
f 276 278 271
f 278 276 279
f 279 280 278
f 275 278 281
f 281 278 280
f 282 281 285
f 281 282 275
f 281 280 284
f 284 283 281
f 281 283 285
f 286 282 285
f 286 285 283
f 291 286 287
f 286 288 287
f 288 286 294
f 286 289 294
f 268 289 286
f 286 290 279
f 286 283 290
f 295 286 291
f 286 292 293
f 286 295 292
f 282 286 293
f 286 279 268
f 296 295 297
f 295 296 292
f 297 295 291
f 291 299 297
f 298 297 299
f 298 300 297
f 297 300 296
f 300 293 292
f 301 293 300
f 292 296 300
f 300 298 301
f 293 301 302
f 303 302 301
f 301 298 303
f 302 303 304
f 304 303 305
f 298 305 303
f 305 308 304
f 298 307 305
f 305 307 306
f 306 308 305
f 310 304 308
f 308 307 309
f 310 308 309
f 308 306 307
f 304 310 315
f 311 314 310
f 310 309 311
f 310 312 313
f 312 310 314
f 315 310 313
f 304 315 317
f 312 315 313
f 315 312 316
f 316 317 315
f 316 251 277
f 312 251 316
f 277 317 316
f 304 317 302
f 317 275 282
f 282 302 317
f 317 274 275
f 311 318 314
f 251 314 319
f 251 312 314
f 319 314 318
f 319 326 320
f 321 319 320
f 321 251 319
f 322 319 318
f 319 322 324
f 319 324 323
f 325 319 323
f 319 325 327
f 319 327 326
f 328 327 329
f 327 328 326
f 325 329 327
f 328 329 330
f 331 330 329
f 325 331 329
f 331 325 332
f 332 333 331
f 330 331 333
f 334 330 333
f 333 337 334
f 333 335 337
f 333 336 335
f 336 333 332
f 335 151 337
f 337 339 338
f 341 337 338
f 337 340 339
f 150 340 337
f 337 341 334
f 337 151 150
f 330 341 342
f 341 330 334
f 343 342 341
f 341 338 343
f 342 343 344
f 338 344 343
f 344 345 347
f 346 345 344
f 344 338 346
f 342 344 347
f 347 345 348
f 348 349 347
f 347 349 342
f 351 350 349
f 330 349 350
f 351 349 348
f 330 342 349
f 350 351 345
f 348 345 351
f 330 350 171
f 350 345 352
f 171 350 352
f 345 353 352
f 171 352 353
f 179 171 353
f 353 354 179
f 354 353 345
f 354 184 179
f 183 354 357
f 354 183 184
f 346 354 345
f 346 355 354
f 354 355 356
f 354 356 357
f 356 177 357
f 357 177 183
f 358 176 356
f 356 176 177
f 356 355 358
f 358 182 176
f 355 182 358
f 359 182 355
f 359 355 360
f 355 346 360
f 346 359 360
f 172 182 359
f 361 172 359
f 359 346 361
f 339 172 361
f 338 339 361
f 361 346 338
f 340 172 339
f 173 172 340
f 363 173 340
f 340 150 362
f 340 362 363
f 362 364 363
f 173 363 364
f 173 364 365
f 166 165 364
f 362 166 364
f 364 165 365
f 185 365 366
f 365 367 366
f 365 165 367
f 365 185 180
f 173 365 180
f 190 367 167
f 367 190 366
f 167 367 165
f 366 190 185
f 150 368 362
f 368 166 362
f 368 153 369
f 148 153 368
f 369 166 368
f 150 148 368
f 153 158 369
f 166 369 158
f 371 336 370
f 332 370 336
f 336 371 373
f 335 336 372
f 336 373 372
f 371 374 373
f 373 374 376
f 378 373 375
f 375 373 376
f 377 372 373
f 377 373 378
f 14 378 379
f 14 377 378
f 380 379 378
f 378 375 380
f 381 379 380
f 380 375 381
f 382 379 381
f 382 381 384
f 381 375 383
f 385 381 383
f 381 385 384
f 385 386 387
f 385 374 386
f 387 389 385
f 374 385 383
f 384 385 388
f 388 385 389
f 389 390 393
f 389 391 390
f 391 389 392
f 389 387 392
f 389 393 388
f 393 396 394
f 397 393 394
f 393 397 395
f 395 399 393
f 396 393 390
f 393 399 398
f 388 393 398
f 399 402 400
f 400 398 399
f 401 399 395
f 399 401 403
f 402 399 403
f 401 404 403
f 403 404 402
f 402 404 405
f 404 408 405
f 407 406 404
f 406 408 404
f 407 404 401
f 405 408 414
f 409 408 417
f 408 409 416
f 410 408 411
f 410 414 408
f 411 408 413
f 408 412 413
f 416 412 408
f 415 408 406
f 417 408 415
f 415 395 417
f 417 395 409
f 416 425 412
f 416 418 425
f 416 419 418
f 416 422 419
f 416 394 420
f 420 423 416
f 416 409 397
f 394 416 397
f 422 416 421
f 416 424 421
f 416 423 427
f 416 426 424
f 416 427 426
f 427 423 429
f 427 429 428
f 428 426 427
f 429 423 430
f 430 431 429
f 431 428 429
f 432 431 436
f 438 431 432
f 431 433 437
f 431 430 433
f 431 434 436
f 298 434 431
f 431 437 435
f 307 431 435
f 431 438 428
f 307 298 431
f 438 421 424
f 432 421 438
f 428 438 439
f 424 439 438
f 439 426 428
f 439 424 426
f 437 461 440
f 461 437 433
f 311 309 440
f 435 440 309
f 442 311 441
f 440 441 311
f 443 311 442
f 322 443 442
f 322 318 443
f 441 444 442
f 445 442 444
f 446 442 445
f 322 442 446
f 449 447 446
f 448 446 447
f 446 448 322
f 446 445 449
f 447 449 451
f 445 450 449
f 449 450 451
f 451 420 447
f 450 420 451
f 452 420 450
f 444 452 450
f 444 450 445
f 441 420 452
f 444 441 452
f 453 322 448
f 447 453 448
f 453 454 322
f 371 454 453
f 455 453 420
f 447 420 453
f 453 455 458
f 453 386 371
f 453 456 386
f 453 457 456
f 453 458 457
f 390 458 455
f 458 459 457
f 460 458 390
f 459 458 460
f 390 459 460
f 390 391 459
f 459 456 457
f 391 456 459
f 391 387 456
f 456 387 386
f 455 420 396
f 396 390 455
f 454 371 370
f 332 454 370
f 332 324 454
f 324 322 454
f 420 441 461
f 461 441 440
f 420 461 463
f 462 461 433
f 461 462 463
f 420 463 423
f 463 462 430
f 463 430 423
f 433 430 462
f 436 465 432
f 464 436 434
f 465 436 464
f 464 466 465
f 467 465 466
f 422 465 467
f 421 432 465
f 422 421 465
f 467 468 422
f 467 469 468
f 469 411 468
f 469 466 470
f 470 471 469
f 471 411 469
f 471 477 411
f 470 472 471
f 472 478 471
f 476 471 473
f 471 478 473
f 471 474 475
f 474 471 476
f 477 471 475
f 479 482 478
f 478 480 479
f 472 480 478
f 481 478 482
f 481 473 478
f 482 483 484
f 485 483 482
f 482 486 481
f 482 484 486
f 482 479 485
f 486 488 487
f 486 487 489
f 488 486 484
f 489 481 486
f 489 490 481
f 492 490 489
f 489 487 491
f 489 491 492
f 493 492 491
f 492 493 494
f 494 490 492
f 494 495 490
f 496 495 494
f 493 496 494
f 497 495 496
f 498 497 496
f 498 496 499
f 499 496 493
f 491 499 493
f 491 501 499
f 499 501 500
f 499 500 498
f 504 502 501
f 503 501 502
f 487 501 491
f 503 500 501
f 487 504 501
f 502 504 505
f 506 505 504
f 487 506 504
f 506 507 508
f 509 507 506
f 508 505 506
f 506 487 509
f 507 509 510
f 509 487 488
f 515 509 488
f 510 509 514
f 511 512 509
f 509 513 511
f 509 512 514
f 509 515 513
f 516 515 484
f 516 513 515
f 488 484 515
f 483 513 516
f 484 483 516
f 517 514 518
f 514 517 510
f 518 514 512
f 518 519 517
f 518 522 519
f 512 520 518
f 521 518 520
f 518 521 522
f 522 521 524
f 524 523 522
f 523 519 522
f 524 525 523
f 521 525 524
f 526 523 525
f 526 525 527
f 525 521 527
f 528 529 527
f 528 527 521
f 526 527 529
f 531 526 529
f 529 528 530
f 529 530 531
f 532 531 533
f 534 531 532
f 531 535 533
f 534 526 531
f 531 530 535
f 537 535 536
f 536 535 530
f 535 537 538
f 538 533 535
f 538 537 540
f 538 539 533
f 539 538 540
f 540 537 543
f 539 540 541
f 541 540 542
f 542 540 543
f 543 537 544
f 544 542 543
f 544 537 545
f 544 545 546
f 546 532 544
f 542 544 532
f 548 546 545
f 546 547 550
f 551 546 547
f 534 546 548
f 546 557 549
f 546 550 557
f 552 546 551
f 546 553 552
f 555 546 554
f 558 546 555
f 556 546 558
f 546 534 532
f 546 534 560
f 560 546 559
f 561 563 548
f 563 534 548
f 526 563 564
f 526 534 563
f 561 564 563
f 526 564 567
f 561 565 564
f 565 568 564
f 564 568 566
f 567 564 566
f 570 568 569
f 571 569 568
f 568 570 566
f 565 571 568
f 565 572 571
f 573 571 572
f 569 571 573
f 576 569 573
f 573 575 574
f 577 573 574
f 575 573 572
f 576 573 577
f 577 574 578
f 577 579 576
f 578 580 577
f 577 580 579
f 582 581 583
f 582 584 581
f 581 576 579
f 576 581 584
f 584 582 586
f 570 584 585
f 569 584 570
f 584 569 576
f 585 584 586
f 587 586 582
f 587 585 586
f 582 588 587
f 589 587 588
f 587 589 567
f 567 585 587
f 589 591 590
f 589 590 526
f 591 589 592
f 526 567 589
f 592 589 593
f 589 588 593
f 594 593 588
f 594 592 593
f 595 33 594
f 33 596 594
f 595 594 588
f 594 596 592
f 33 591 596
f 591 592 596
f 34 33 595
f 595 588 597
f 595 36 34
f 597 36 595
f 597 583 37
f 582 583 597
f 597 588 582
f 597 37 36
f 31 591 33
f 31 598 591
f 598 590 591
f 24 598 31
f 598 24 599
f 600 598 599
f 600 590 598
f 22 600 599
f 590 600 601
f 600 602 601
f 22 16 600
f 16 602 600
f 601 602 603
f 16 605 602
f 604 602 605
f 605 606 604
f 607 606 605
f 16 19 605
f 608 605 19
f 607 605 608
f 608 18 610
f 608 19 18
f 611 608 609
f 608 610 609
f 608 611 607
f 607 611 612
f 611 613 612
f 609 613 611
f 614 613 615
f 617 613 614
f 616 615 613
f 613 610 616
f 613 609 610
f 612 613 617
f 618 619 617
f 617 620 618
f 621 617 619
f 620 617 614
f 612 617 621
f 621 622 607
f 619 622 621
f 621 607 612
f 622 619 623
f 606 607 622
f 606 622 623
f 619 618 623
f 606 623 618
f 624 620 625
f 624 618 620
f 614 625 620
f 624 625 626
f 627 626 625
f 628 625 614
f 627 625 628
f 614 629 628
f 628 629 627
f 614 615 629
f 626 627 629
f 615 631 629
f 629 631 630
f 626 629 630
f 634 624 631
f 624 630 631
f 632 631 615
f 631 632 633
f 634 631 633
f 635 637 634
f 634 636 635
f 634 638 636
f 637 624 634
f 634 633 638
f 633 639 638
f 638 640 636
f 638 639 640
f 641 636 640
f 640 642 641
f 639 643 640
f 640 644 642
f 640 643 644
f 644 645 642
f 645 644 643
f 648 646 645
f 642 645 646
f 645 647 648
f 643 647 645
f 649 648 650
f 648 649 646
f 650 648 651
f 648 647 651
f 652 650 651
f 651 495 652
f 651 647 495
f 652 495 653
f 653 654 652
f 650 652 654
f 654 653 655
f 655 641 654
f 654 642 646
f 654 641 642
f 654 649 650
f 654 646 649
f 655 653 656
f 656 659 655
f 657 641 655
f 657 655 658
f 658 655 659
f 659 656 660
f 659 660 661
f 659 661 658
f 661 624 662
f 660 624 661
f 658 661 662
f 662 624 637
f 658 662 663
f 663 662 637
f 663 637 657
f 657 658 663
f 656 624 660
f 637 664 657
f 664 641 657
f 664 637 635
f 635 641 664
f 624 656 495
f 495 656 653
f 495 647 668
f 647 643 669
f 667 647 665
f 647 669 665
f 647 667 666
f 666 668 647
f 639 669 643
f 639 665 669
f 670 495 668
f 668 476 670
f 476 668 474
f 474 668 666
f 495 670 490
f 476 490 670
f 667 672 666
f 672 667 671
f 665 671 667
f 475 474 672
f 666 672 474
f 671 475 672
f 671 410 477
f 475 671 477
f 673 671 675
f 410 671 673
f 671 674 675
f 665 674 671
f 676 675 674
f 414 675 676
f 675 414 673
f 676 379 382
f 379 676 674
f 678 676 677
f 676 382 677
f 678 414 676
f 405 678 400
f 400 678 679
f 679 678 382
f 405 414 678
f 678 677 382
f 382 384 679
f 384 400 679
f 674 665 379
f 414 410 673
f 379 665 639
f 641 635 636
f 17 14 639
f 639 633 17
f 639 14 379
f 616 633 632
f 17 633 616
f 615 616 632
f 624 626 630
f 606 618 624
f 680 624 686
f 624 680 688
f 624 681 686
f 624 684 681
f 624 682 687
f 624 683 682
f 624 688 683
f 624 685 684
f 495 685 624
f 624 687 606
f 689 688 680
f 690 683 688
f 690 688 689
f 691 683 690
f 689 691 690
f 692 682 691
f 691 682 683
f 689 693 691
f 691 693 692
f 694 693 689
f 694 695 693
f 687 692 693
f 695 687 693
f 603 606 695
f 695 601 603
f 590 695 694
f 590 601 695
f 687 695 696
f 695 606 696
f 606 687 696
f 590 694 697
f 680 694 689
f 698 697 694
f 694 680 698
f 698 686 699
f 680 686 698
f 698 699 517
f 698 517 519
f 519 697 698
f 686 510 699
f 510 517 699
f 697 519 523
f 523 590 697
f 692 687 682
f 507 686 681
f 510 686 507
f 508 684 685
f 505 508 685
f 495 505 685
f 684 700 507
f 700 684 508
f 684 507 681
f 508 507 700
f 610 17 616
f 17 610 18
f 604 606 603
f 599 24 26
f 26 22 599
f 523 526 590
f 585 567 566
f 585 566 570
f 574 46 578
f 578 42 580
f 578 46 42
f 703 575 572
f 702 701 575
f 574 575 701
f 702 575 703
f 703 572 565
f 704 707 703
f 704 703 705
f 705 703 565
f 706 702 703
f 706 703 707
f 708 707 710
f 707 708 711
f 707 704 709
f 707 709 710
f 711 706 707
f 711 708 717
f 712 706 711
f 713 712 711
f 713 711 716
f 711 717 714
f 715 711 714
f 711 715 716
f 717 718 719
f 708 718 717
f 714 717 719
f 719 718 720
f 720 721 719
f 719 721 714
f 721 723 722
f 722 714 721
f 721 720 726
f 721 724 723
f 721 725 724
f 725 721 726
f 726 727 725
f 727 726 720
f 537 727 718
f 537 729 727
f 727 720 718
f 725 727 728
f 728 727 729
f 731 729 730
f 537 730 729
f 728 729 731
f 731 730 732
f 731 725 728
f 724 731 732
f 724 725 731
f 732 730 733
f 734 732 733
f 732 734 724
f 537 734 733
f 736 734 537
f 735 724 734
f 734 736 735
f 747 736 537
f 737 736 743
f 737 749 736
f 736 738 742
f 736 745 738
f 736 739 746
f 736 741 739
f 736 740 741
f 736 747 740
f 736 742 748
f 736 748 743
f 736 744 735
f 736 749 744
f 736 746 745
f 750 744 749
f 750 749 752
f 737 751 749
f 752 749 751
f 751 722 752
f 722 723 752
f 752 723 750
f 753 751 715
f 737 715 751
f 751 753 722
f 714 722 753
f 715 714 753
f 744 750 723
f 742 754 748
f 754 743 748
f 742 755 754
f 756 743 754
f 472 754 755
f 472 756 754
f 743 756 757
f 758 757 756
f 472 758 756
f 759 758 760
f 758 759 757
f 758 472 761
f 760 758 761
f 472 762 761
f 760 761 762
f 472 764 762
f 760 762 763
f 762 764 763
f 765 763 764
f 765 764 766
f 767 766 764
f 764 768 767
f 764 769 768
f 764 770 769
f 764 472 770
f 773 770 772
f 472 772 770
f 773 774 775
f 776 774 773
f 775 771 773
f 773 772 776
f 464 776 778
f 776 464 780
f 776 780 774
f 777 776 772
f 776 777 779
f 778 776 779
f 780 781 774
f 780 782 781
f 434 780 464
f 782 780 434
f 434 781 782
f 298 781 434
f 783 774 781
f 781 298 783
f 783 775 774
f 298 784 783
f 784 787 785
f 298 786 784
f 787 784 786
f 287 788 787
f 789 287 787
f 787 788 785
f 790 287 789
f 791 789 786
f 791 790 789
f 790 791 792
f 786 792 791
f 790 792 793
f 299 793 792
f 792 298 299
f 298 792 786
f 793 287 790
f 291 287 793
f 291 793 299
f 788 287 795
f 788 794 768
f 794 788 795
f 768 771 788
f 785 788 771
f 795 287 797
f 794 795 796
f 796 795 797
f 797 287 798
f 796 797 799
f 799 797 798
f 800 799 798
f 799 800 767
f 767 796 799
f 800 287 765
f 800 765 766
f 798 287 800
f 766 767 800
f 796 768 794
f 767 768 796
f 785 771 775
f 777 778 779
f 778 777 470
f 470 466 778
f 464 778 466
f 472 777 772
f 472 470 777
f 769 771 768
f 765 801 803
f 765 802 801
f 765 806 802
f 804 763 765
f 765 803 805
f 765 805 804
f 806 765 287
f 807 802 806
f 808 807 806
f 806 287 808
f 287 288 808
f 809 808 288
f 808 809 807
f 809 810 813
f 811 810 809
f 814 807 809
f 809 294 811
f 809 813 812
f 814 809 812
f 294 809 288
f 814 816 807
f 818 814 815
f 812 815 814
f 816 814 817
f 814 818 817
f 805 817 818
f 815 805 818
f 817 805 803
f 817 803 816
f 807 816 819
f 816 803 819
f 807 819 820
f 819 803 801
f 819 801 820
f 820 802 807
f 820 801 802
f 823 815 821
f 815 822 821
f 812 822 815
f 815 823 805
f 804 805 823
f 804 823 826
f 823 821 824
f 825 823 824
f 826 823 825
f 824 826 825
f 827 804 826
f 827 826 828
f 830 828 826
f 830 826 829
f 829 826 824
f 830 831 832
f 831 830 829
f 832 706 830
f 828 830 712
f 830 706 712
f 831 833 832
f 706 832 833
f 833 831 835
f 834 702 833
f 833 835 834
f 833 702 706
f 837 836 835
f 835 836 838
f 838 834 835
f 837 835 831
f 834 838 839
f 838 45 839
f 836 45 838
f 834 839 840
f 840 839 841
f 839 842 841
f 842 839 45
f 842 843 841
f 843 842 574
f 842 45 844
f 844 574 842
f 574 844 46
f 45 46 844
f 843 840 841
f 702 843 701
f 574 701 843
f 843 702 840
f 702 834 840
f 837 831 846
f 845 837 68
f 837 845 836
f 837 848 68
f 846 847 837
f 837 847 848
f 849 71 848
f 68 848 71
f 849 848 847
f 853 71 849
f 849 847 852
f 850 849 851
f 849 850 853
f 849 852 851
f 74 853 854
f 853 74 71
f 856 854 853
f 853 850 855
f 856 853 855
f 857 854 856
f 855 858 856
f 856 858 857
f 859 858 861
f 858 859 863
f 860 858 863
f 860 857 858
f 858 862 861
f 855 862 858
f 74 860 863
f 74 863 94
f 94 863 859
f 861 862 864
f 865 864 862
f 850 862 855
f 851 862 850
f 862 851 852
f 862 852 865
f 852 846 865
f 864 865 866
f 865 867 866
f 846 867 865
f 868 866 867
f 870 868 867
f 870 867 869
f 867 259 869
f 259 867 846
f 870 869 873
f 872 871 870
f 871 94 870
f 870 94 868
f 870 873 872
f 874 873 875
f 874 872 873
f 869 875 873
f 875 876 874
f 869 259 875
f 875 878 876
f 259 877 875
f 875 877 878
f 878 879 876
f 879 878 877
f 877 235 879
f 879 235 236
f 236 880 879
f 876 879 880
f 236 882 880
f 881 876 880
f 881 880 882
f 227 882 236
f 882 227 881
f 881 230 883
f 230 881 227
f 883 874 881
f 881 874 876
f 883 230 228
f 228 885 883
f 884 874 883
f 884 883 886
f 886 883 885
f 884 886 887
f 886 889 887
f 885 888 886
f 886 888 889
f 889 94 871
f 888 94 889
f 887 889 871
f 890 94 888
f 885 890 888
f 228 94 890
f 885 228 890
f 887 871 884
f 872 884 871
f 884 872 891
f 891 874 884
f 872 874 891
f 235 877 260
f 259 260 877
f 94 892 868
f 893 868 892
f 864 868 893
f 866 868 864
f 861 893 895
f 861 864 893
f 894 893 892
f 894 895 893
f 861 895 896
f 897 895 894
f 895 897 896
f 896 897 859
f 94 859 897
f 94 897 894
f 896 859 861
f 94 894 892
f 74 854 860
f 857 860 854
f 846 852 847
f 846 831 259
f 49 836 845
f 59 49 845
f 845 68 59
f 45 836 49
f 259 831 261
f 831 829 261
f 898 261 829
f 829 824 898
f 822 261 898
f 898 824 822
f 713 828 712
f 828 713 760
f 828 760 827
f 804 827 899
f 760 899 827
f 760 763 899
f 763 804 899
f 822 824 821
f 900 261 822
f 900 822 901
f 822 813 901
f 822 812 813
f 900 901 903
f 813 902 901
f 901 902 903
f 903 269 900
f 902 269 903
f 267 902 904
f 267 269 902
f 810 904 902
f 902 813 810
f 905 267 904
f 904 810 905
f 267 905 907
f 907 905 906
f 810 906 905
f 907 268 267
f 909 908 907
f 908 268 907
f 909 907 906
f 906 811 909
f 910 908 909
f 909 811 910
f 910 911 908
f 911 910 811
f 911 811 289
f 289 268 911
f 911 268 908
f 906 810 811
f 269 912 900
f 264 900 912
f 264 261 900
f 269 264 912
f 811 294 289
f 760 713 759
f 737 759 713
f 759 737 757
f 743 757 737
f 755 913 480
f 913 755 742
f 480 472 755
f 913 914 915
f 742 914 913
f 480 913 916
f 915 916 913
f 483 916 915
f 483 485 916
f 916 479 480
f 479 916 485
f 918 915 917
f 917 915 914
f 915 918 483
f 917 511 918
f 511 919 918
f 483 918 919
f 511 513 919
f 513 483 919
f 917 922 511
f 917 914 920
f 923 917 920
f 921 917 923
f 922 917 921
f 923 925 924
f 924 739 923
f 923 920 925
f 741 921 923
f 923 739 741
f 925 920 926
f 926 745 925
f 924 925 927
f 925 745 927
f 927 745 746
f 927 739 924
f 927 746 739
f 926 928 738
f 928 926 920
f 926 738 745
f 920 914 928
f 742 928 914
f 742 738 928
f 511 922 929
f 929 922 930
f 740 930 922
f 740 922 921
f 929 930 931
f 930 932 931
f 930 740 747
f 930 747 932
f 932 537 933
f 747 537 932
f 933 931 932
f 536 929 933
f 933 537 536
f 931 933 929
f 511 929 934
f 536 934 929
f 934 536 935
f 937 934 935
f 511 934 936
f 937 936 934
f 936 937 938
f 528 938 937
f 937 530 528
f 935 530 937
f 521 938 528
f 521 520 938
f 520 939 938
f 936 938 939
f 939 511 936
f 511 939 512
f 520 940 939
f 512 939 940
f 940 520 512
f 536 530 935
f 921 741 740
f 723 735 744
f 716 737 713
f 715 737 716
f 724 735 723
f 537 733 730
f 537 718 941
f 941 718 708
f 945 537 941
f 941 942 943
f 941 944 942
f 941 943 945
f 944 941 708
f 946 537 945
f 945 947 946
f 947 945 943
f 948 946 947
f 947 949 948
f 943 949 947
f 952 948 949
f 950 952 949
f 951 950 949
f 951 949 942
f 942 949 943
f 952 537 954
f 953 537 952
f 948 952 954
f 952 950 953
f 954 537 946
f 948 954 946
f 956 545 953
f 953 545 537
f 955 953 950
f 953 955 956
f 957 545 956
f 955 957 956
f 958 545 957
f 959 958 957
f 959 957 955
f 960 958 959
f 950 959 955
f 950 960 959
f 961 958 960
f 951 960 950
f 960 951 961
f 962 961 963
f 961 962 958
f 951 963 961
f 709 962 963
f 963 951 709
f 964 962 705
f 705 962 704
f 704 962 709
f 964 958 962
f 964 565 561
f 565 964 705
f 561 562 964
f 545 964 562
f 545 958 964
f 709 951 710
f 710 951 942
f 708 710 944
f 710 942 944
f 532 541 542
f 532 533 541
f 541 533 539
f 505 495 502
f 502 495 503
f 500 503 497
f 503 495 497
f 500 497 498
f 473 481 490
f 473 490 476
f 411 477 410
f 468 965 966
f 468 411 965
f 966 422 468
f 966 967 968
f 966 965 967
f 422 966 419
f 968 418 966
f 966 418 419
f 967 425 968
f 968 425 418
f 412 967 965
f 967 412 425
f 413 965 411
f 965 413 412
f 435 309 307
f 420 394 396
f 969 415 407
f 395 415 969
f 407 415 406
f 407 395 969
f 395 397 409
f 401 395 407
f 405 400 402
f 384 398 400
f 398 384 388
f 387 391 392
f 371 386 374
f 374 383 375
f 377 151 335
f 372 377 335
f 970 151 377
f 377 14 970
f 14 13 970
f 151 970 13
f 376 374 375
f 332 323 324
f 332 325 323
f 330 171 328
f 326 328 971
f 171 971 328
f 972 326 971
f 171 972 971
f 972 973 975
f 972 976 973
f 974 320 972
f 972 975 974
f 972 320 326
f 171 976 972
f 978 973 976
f 978 976 977
f 171 977 976
f 973 978 979
f 980 979 978
f 978 977 980
f 981 980 982
f 981 979 980
f 980 977 982
f 982 977 983
f 982 983 985
f 981 982 984
f 982 985 984
f 171 985 983
f 981 985 986
f 171 986 985
f 984 985 981
f 988 986 987
f 171 987 986
f 986 988 981
f 987 198 988
f 198 200 988
f 988 200 981
f 198 987 186
f 171 186 987
f 171 983 977
f 981 200 979
f 979 975 973
f 200 975 979
f 200 989 975
f 974 975 989
f 989 991 974
f 989 202 990
f 990 991 989
f 202 989 200
f 990 992 991
f 321 974 991
f 992 993 991
f 991 993 321
f 248 993 992
f 249 321 993
f 993 248 249
f 992 990 248
f 248 990 994
f 994 990 995
f 990 205 995
f 990 202 201
f 205 990 201
f 205 994 995
f 997 246 994
f 248 994 246
f 997 994 996
f 994 205 996
f 996 204 997
f 204 221 997
f 246 997 221
f 205 204 996
f 320 974 321
f 251 321 249
f 282 293 302
f 280 279 290
f 280 290 283
f 280 283 284
f 268 279 276
f 261 264 265
f 244 242 234
f 234 225 244
f 242 233 234
f 232 238 240
f 232 240 226
f 220 226 240
f 221 220 240
f 226 220 219
f 94 215 98
f 198 186 196
f 196 187 197
f 181 197 187
f 196 186 187
f 175 116 192
f 112 110 192
f 999 188 189
f 174 998 189
f 999 189 998
f 1000 188 999
f 999 1001 1000
f 1002 1001 999
f 1002 999 998
f 174 118 1002
f 118 116 1002
f 998 174 1002
f 1002 116 1001
f 175 1000 1001
f 116 175 1001
f 1000 175 178
f 1000 178 188
f 172 182 1003
f 174 157 1004
f 118 174 1004
f 157 118 1004
f 169 163 162
f 162 157 169
f 160 166 158
f 159 157 162
f 157 154 1005
f 1005 1006 157
f 157 1006 118
f 1007 114 1006
f 114 118 1006
f 1007 1005 154
f 154 144 1007
f 1007 115 114
f 1007 144 115
f 13 149 151
f 149 11 1008
f 1010 149 1008
f 11 149 13
f 149 1010 1009
f 149 1009 146
f 1010 7 1012
f 7 1010 1011
f 1010 1008 1011
f 1012 1009 1010
f 5 1012 7
f 1012 5 9
f 1012 9 1013
f 140 146 1012
f 1014 140 1012
f 1012 146 1009
f 1014 1012 1013
f 1013 132 1014
f 1014 132 1015
f 1014 1015 141
f 141 140 1014
f 135 1015 131
f 141 1015 135
f 1013 40 132
f 1013 1016 40
f 1016 1013 9
f 9 3 1016
f 3 40 1016
f 1008 6 1011
f 6 7 1011
f 11 6 1008
f 144 142 115
f 142 137 138
f 115 142 138
f 117 115 138
f 54 125 128
f 128 52 54
f 128 43 52
f 54 57 125
f 57 64 125
f 105 111 107
f 94 95 76
f 90 76 95
f 94 76 74
f 65 73 100
f 71 74 70
f 65 67 73
f 68 60 59
f 25 28 4
f 4 2 25
