v 0.004892 0.018267 -0.21245
v 0.009595 0.017349 -0.21544
v 0.005022 0.017913 -0.21218
v 0.009688 0.016998 -0.21512
v 0.000116 0.018558 -0.20946
v 0.004681 0.018448 -0.21283
v 0.000114 0.018562 -0.20947
v 0.009343 0.017527 -0.21582
v 0.00028 0.018203 -0.20921
v 0.004694 0.018447 -0.21283
v -0.002909 0.019372 -0.21428
v 0.001855 0.019149 -0.2177
v -0.005762 0.019609 -0.21882
v -0.001242 0.019297 -0.22245
v 0.006614 0.017954 -0.22084
v 0.011074 0.015185 -0.22326
v 0.003518 0.01779 -0.22577
v 0.009016 0.015068 -0.22642
v 0.009855 0.015071 -0.22532
v 0.009392 0.017512 -0.21585
v 0.01369 0.015212 -0.21864
v 0.013757 0.015153 -0.21868
v 0.01394 0.015035 -0.21823
v 0.017037 0.010737 -0.2202
v 0.013942 0.014738 -0.21781
v 0.017037 0.010737 -0.2202
v 0.016955 0.010563 -0.21971
v 0.013764 0.01435 -0.21755
v 0.016655 0.010332 -0.21937
v 0.016957 0.010566 -0.21972
v 0.018189 0.007203 -0.22092
v 0.018086 0.007107 -0.22042
v 0.018793 0.003544 -0.2213
v 0.01868 0.003499 -0.2208
v 0.018053 0.0056837 -0.22025
v 0.018527 -0.000209 -0.22054
v 0.018332 -0.003838 -0.22042
v 0.0025529 0.017759 -0.2105
v 0.00965 0.016551 -0.21497
v -0.004365 0.017467 -0.20616
v 0.0086749 -0.01731 -0.21435
v 0.00034 -0.018148 -0.20911
v -0.0080117 -0.017307 -0.20386
v -0.017346 -0.0063269 -0.19799
v -0.004457 -0.018314 -0.20622
v -0.004646 -0.018669 -0.20645
v 0.000281 -0.018604 -0.2092
v -0.009131 -0.017399 -0.20329
v 0.000282 -0.018601 -0.2092
v -0.009379 -0.01775 -0.20351
v -0.013397 -0.015139 -0.20062
v -0.013086 -0.014751 -0.20067
v -0.015977 -0.010733 -0.19885
v -0.016416 -0.010964 -0.19873
v -0.017555 -0.007505 -0.19802
v -0.016422 -0.010967 -0.19873
v -0.016891 -0.011138 -0.19887
v -0.018049 -0.007601 -0.19814
v -0.013771 -0.015436 -0.2008
v -0.014032 -0.015613 -0.20121
v -0.014102 -0.015554 -0.20116
v -0.016892 -0.011138 -0.19887
v -0.017258 -0.011201 -0.19923
v -0.018422 -0.007636 -0.1985
v -0.019024 -0.003976 -0.19812
v -0.02215 -0.003977 -0.20317
v -0.019735 -0.011201 -0.2032
v -0.020131 -0.011201 -0.20386
v -0.017066 -0.015588 -0.20557
v -0.019392 -0.01308 -0.20489
v -0.018752 -0.012697 -0.20526
v -0.01811 -0.015473 -0.20704
v -0.020496 -0.011201 -0.20448
v -0.021465 -0.008843 -0.20416
v -0.020129 -0.009879 -0.20479
v -0.020646 -0.008521 -0.20463
v -0.022588 -0.008515 -0.20845
v -0.020647 -0.008521 -0.20463
v -0.023458 -0.008843 -0.20809
v -0.020648 -0.008521 -0.20463
v -0.02065 -0.008522 -0.20463
v -0.020654 -0.008523 -0.20463
v -0.020676 -0.008532 -0.20461
v -0.020705 -0.008543 -0.2046
v -0.020763 -0.008566 -0.20456
v -0.02088 -0.008612 -0.2045
v -0.020997 -0.008659 -0.20443
v -0.020647 -0.00852 -0.20463
v -0.020646 -0.00852 -0.20463
v -0.023887 -0.004146 -0.20636
v -0.023921 -0.007982 -0.20851
v -0.023594 -0.008762 -0.20835
v -0.023738 -0.008554 -0.20853
v -0.023856 -0.008272 -0.20859
v -0.022852 -0.00824 -0.20887
v -0.022722 -0.009877 -0.21052
v -0.022715 -0.008438 -0.2087
v -0.022964 -0.007972 -0.20892
v -0.02303 -0.007694 -0.20885
v -0.023778 -0.006835 -0.21043
v -0.023003 -0.004096 -0.20684
v -0.023857 -0.003501 -0.2086
v -0.023901 -0.004393 -0.20908
v -0.02293 -0.003504 -0.20652
v -0.023385 -0.000492 -0.207
v -0.022298 -0.000492 -0.20493
v -0.02317 -0.000503 -0.20444
v -0.022261 -0.000201 -0.20486
v -0.023132 -0.000201 -0.20437
v -0.02317 0.0001 -0.20444
v -0.022929 0.003099 -0.20652
v -0.022298 9e-05 -0.20493
v -0.023862 0.003573 -0.20627
v -0.02215 0.003574 -0.20317
v -0.020132 0.010799 -0.20386
v -0.019734 0.010799 -0.2032
v -0.023892 0.003832 -0.20641
v -0.018421 0.007242 -0.1985
v -0.021466 0.00844 -0.20416
v -0.019024 0.003575 -0.19812
v -0.018045 0.007206 -0.19815
v -0.018649 0.003544 -0.19776
v -0.019228 -0.000192 -0.19799
v -0.019026 0.003561 -0.19812
v -0.018849 -0.000192 -0.19764
v -0.018648 -0.003945 -0.19776
v -0.018344 -0.000192 -0.19752
v -0.019025 -0.003961 -0.19812
v -0.018145 -0.003899 -0.19765
v -0.018146 0.003499 -0.19765
v -0.017849 -0.000192 -0.19768
v -0.015978 0.010332 -0.19885
v -0.008974 0.016551 -0.20326
v -0.017377 0.0056733 -0.19797
v -0.01755 0.00711 -0.19802
v -0.016423 0.010566 -0.19873
v -0.016421 0.010565 -0.19873
v -0.016892 0.010737 -0.19887
v -0.016899 0.010739 -0.19887
v -0.017259 0.010799 -0.19923
v -0.013777 0.015037 -0.20081
v -0.009385 0.017352 -0.20352
v -0.013401 0.01474 -0.20062
v -0.014103 0.015152 -0.20117
v -0.014033 0.015212 -0.20121
v -0.017064 0.015186 -0.20557
v -0.009658 0.017512 -0.20387
v -0.009606 0.017528 -0.2039
v -0.012944 0.017955 -0.20854
v -0.019018 0.015068 -0.20879
v -0.008051 0.019149 -0.21147
v -0.016051 0.017791 -0.21347
v -0.010989 0.019298 -0.21632
v -0.018395 0.015072 -0.20756
v -0.020209 0.010452 -0.20588
v -0.018113 0.015069 -0.20705
v -0.02025 0.010319 -0.20582
v -0.020306 0.010182 -0.20578
v -0.020132 0.009476 -0.2048
v -0.021021 0.010798 -0.20539
v -0.020462 0.009927 -0.2058
v -0.021088 0.010635 -0.20534
v -0.021253 0.010361 -0.20536
v -0.020647 0.009737 -0.20595
v -0.021445 0.010158 -0.20551
v -0.021619 0.010078 -0.20576
v -0.023337 0.010078 -0.20969
v -0.022296 0.010798 -0.20793
v -0.022478 0.009662 -0.20998
v -0.020817 0.009664 -0.20619
v -0.020738 0.009681 -0.20606
v -0.022725 0.009472 -0.21052
v -0.022677 0.009523 -0.21677
v -0.022624 0.01046 -0.21277
v -0.022406 0.010141 -0.21056
v -0.02259 0.00811 -0.20845
v -0.023026 0.007295 -0.20885
v -0.022829 0.010037 -0.21272
v -0.022924 0.009849 -0.21282
v -0.022965 0.007568 -0.20892
v -0.023022 0.009674 -0.21321
v -0.022481 0.009924 -0.21043
v -0.023531 0.007838 -0.21124
v -0.022726 0.010247 -0.21271
v -0.022996 0.009715 -0.21299
v -0.023016 0.00968 -0.2131
v -0.022513 0.009788 -0.2103
v -0.023498 0.008078 -0.21152
v -0.023503 0.007982 -0.21136
v -0.022853 0.007836 -0.20887
v -0.022716 0.008035 -0.2087
v -0.022512 0.009694 -0.21014
v -0.023779 0.006431 -0.21043
v -0.023002 0.003692 -0.20684
v -0.0239 0.003988 -0.20908
v -0.024831 0.004141 -0.20876
v -0.024461 0.008153 -0.21106
v -0.024429 0.008404 -0.21136
v -0.024433 0.008304 -0.21118
v -0.024445 0.008439 -0.21153
v -0.025694 0.002725 -0.21151
v -0.025612 0.003878 -0.21448
v -0.025932 9.9e-05 -0.21231
v -0.0258 0.002725 -0.21382
v -0.024288 9.9e-05 -0.20658
v -0.025694 -0.003129 -0.21151
v -0.025928 -0.000203 -0.21223
v -0.024737 0.002725 -0.20798
v -0.023385 9e-05 -0.207
v -0.023857 0.003096 -0.2086
v -0.023353 -0.000202 -0.20694
v -0.024255 -0.000202 -0.2065
v -0.024288 -0.000503 -0.20658
v -0.024737 -0.003129 -0.20798
v -0.02483 -0.004546 -0.20876
v -0.02446 -0.008558 -0.21106
v -0.023529 -0.008244 -0.21124
v -0.024432 -0.008709 -0.21118
v -0.024428 -0.008809 -0.21136
v -0.024444 -0.008844 -0.21153
v -0.023512 -0.008516 -0.2117
v -0.024448 -0.008844 -0.21155
v -0.025612 -0.004283 -0.21448
v -0.023496 -0.008482 -0.21152
v -0.022673 -0.009929 -0.21677
v -0.023502 -0.008386 -0.21136
v -0.023968 -0.004915 -0.21694
v -0.023392 -0.008544 -0.21577
v -0.022485 -0.010117 -0.21718
v -0.02303 -0.010072 -0.2132
v -0.021717 -0.009964 -0.21936
v -0.022603 -0.010109 -0.21676
v -0.023668 -0.005802 -0.21739
v -0.023366 -0.008488 -0.21599
v -0.023405 -0.008151 -0.21629
v -0.023464 -0.007927 -0.21631
v -0.021157 -0.010896 -0.21975
v -0.022378 -0.010194 -0.21744
v -0.02337 -0.00835 -0.21617
v -0.024324 -0.008793 -0.2162
v -0.024326 -0.008647 -0.21639
v -0.024355 -0.008844 -0.21596
v -0.024361 -0.008438 -0.21652
v -0.024422 -0.008204 -0.21655
v -0.0245 -0.007982 -0.21648
v -0.023537 -0.007723 -0.21625
v -0.024598 -0.004139 -0.21438
v -0.024712 -0.003504 -0.21404
v -0.024361 -0.003511 -0.21622
v -0.024851 -0.000494 -0.21459
v -0.025874 -0.000504 -0.21472
v -0.025271 -0.00393 -0.21663
v -0.022917 -0.00393 -0.22179
v -0.024613 -0.00599 -0.21771
v -0.022001 -0.011203 -0.22017
v -0.021609 -0.011203 -0.2209
v -0.021984 -0.01123 -0.22018
v -0.019115 -0.014869 -0.22143
v -0.019206 -0.013209 -0.22307
v -0.018008 -0.01596 -0.22158
v -0.018407 -0.016741 -0.21857
v -0.018874 -0.015825 -0.22017
v -0.013503 -0.018749 -0.22143
v -0.015851 -0.015107 -0.22544
v -0.01776 -0.01271 -0.22514
v -0.014659 -0.016365 -0.22534
v -0.014726 -0.016299 -0.22535
v -0.017114 -0.012433 -0.22452
v -0.016548 -0.011023 -0.22567
v -0.018696 -0.010023 -0.22384
v -0.013808 -0.015345 -0.22644
v -0.018822 -0.011203 -0.22475
v -0.020301 -0.008845 -0.22399
v -0.019007 -0.011203 -0.22454
v -0.02141 -0.011203 -0.22125
v -0.019431 -0.004265 -0.22601
v -0.017461 -0.007983 -0.22717
v -0.019552 -0.008624 -0.22337
v -0.019593 -0.00393 -0.22589
v -0.017701 -0.008845 -0.22673
v -0.017033 -0.008642 -0.22601
v -0.017499 -0.008766 -0.22694
v -0.017363 -0.008265 -0.22719
v -0.016802 -0.007807 -0.22644
v -0.016721 -0.008359 -0.22637
v -0.017375 -0.008552 -0.22711
v -0.01671 -0.00808 -0.22646
v -0.014821 -0.010053 -0.22748
v -0.009635 -0.010053 -0.23074
v -0.012282 -0.010247 -0.2292
v -0.016378 -0.01023 -0.22611
v -0.016841 -0.008567 -0.22621
v -0.01431 -0.008652 -0.22825
v -0.014735 -0.008374 -0.228
v -0.015169 -0.007629 -0.22784
v -0.014789 -0.010241 -0.22745
v -0.014547 -0.008577 -0.22809
v -0.015133 -0.008768 -0.22888
v -0.014891 -0.008845 -0.22904
v -0.013372 -0.0031 -0.23094
v -0.012989 -0.008845 -0.23033
v -0.015329 -0.008559 -0.22878
v -0.017537 -0.004553 -0.22773
v -0.017144 -0.0039636 -0.22683
v -0.018258 -0.0031 -0.22725
v -0.018722 -0.000498 -0.22557
v -0.019426 -0.000505 -0.22628
v -0.019484 -0.000203 -0.22623
v -0.019426 9.8e-05 -0.22628
v -0.01878 -0.000203 -0.22551
v -0.018722 9.1e-05 -0.22557
v -0.020332 9.1e-05 -0.22386
v -0.02113 -0.000203 -0.22446
v -0.020376 -0.000203 -0.22381
v -0.021077 9.8e-05 -0.22452
v -0.020326 -0.000492 -0.22387
v -0.018867 -0.0038901 -0.22521
v -0.021077 -0.000505 -0.22452
v -0.019594 0.003523 -0.22589
v -0.022918 0.003524 -0.22179
v -0.025272 0.003524 -0.21663
v -0.025874 9.8e-05 -0.21472
v -0.020302 0.008438 -0.22399
v -0.021411 0.010797 -0.22125
v -0.019007 0.010797 -0.22454
v -0.021611 0.010797 -0.2209
v -0.024613 0.005584 -0.21772
v -0.022002 0.010797 -0.22017
v -0.02172 0.009557 -0.21936
v -0.021985 0.010824 -0.22018
v -0.021155 0.010489 -0.21976
v -0.019115 0.014465 -0.22143
v -0.019206 0.012805 -0.22307
v -0.01801 0.015554 -0.22159
v -0.018875 0.015421 -0.22017
v -0.013501 0.018345 -0.22143
v -0.015851 0.014702 -0.22544
v -0.018406 0.016338 -0.21857
v -0.022231 0.013032 -0.2153
v -0.020336 0.015183 -0.21525
v -0.020332 0.015117 -0.21335
v -0.019036 0.015396 -0.21986
v -0.022245 0.009989 -0.2176
v -0.022722 0.011035 -0.21825
v -0.022871 0.010797 -0.21813
v -0.023393 0.010077 -0.21746
v -0.023629 0.010798 -0.2136
v -0.02314 0.010349 -0.2179
v -0.023231 0.010211 -0.2178
v -0.022335 0.009845 -0.21751
v -0.02242 0.009749 -0.21736
v -0.023321 0.010113 -0.21765
v -0.022487 0.009712 -0.21718
v -0.022606 0.009704 -0.21676
v -0.023956 0.010077 -0.21318
v -0.023629 0.010698 -0.21263
v -0.023842 0.010274 -0.21275
v -0.023921 0.01013 -0.21294
v -0.023739 0.010475 -0.21264
v -0.02354 0.010885 -0.2127
v -0.023581 0.010798 -0.21266
v -0.021921 0.013503 -0.21431
v -0.020088 0.014702 -0.21035
v -0.021274 0.014113 -0.21269
v -0.023191 0.010798 -0.21046
v -0.023346 0.01035 -0.21017
v -0.02338 0.010212 -0.21005
v -0.023379 0.010112 -0.20988
v -0.019108 0.014958 -0.20869
v -0.020997 0.010886 -0.20545
v -0.017761 0.012303 -0.22514
v -0.017114 0.012026 -0.22452
v -0.014725 0.015896 -0.22535
v -0.01466 0.015958 -0.22534
v -0.01381 0.014938 -0.22645
v -0.013142 0.016046 -0.22659
v -0.013599 0.016027 -0.22623
v -0.008722 0.018983 -0.22353
v -0.008723 0.018982 -0.22353
v -0.004764 0.018343 -0.22693
v -0.010163 0.017953 -0.22582
v -0.011364 0.016155 -0.22773
v -0.009553 0.016047 -0.22884
v -0.013601 0.015571 -0.2267
v -0.011365 0.016154 -0.22773
v -0.014843 0.014128 -0.22682
v -0.016547 0.010623 -0.22567
v -0.01721 0.010884 -0.22637
v -0.012709 0.010797 -0.22987
v -0.014483 0.010797 -0.22866
v -0.017033 0.010077 -0.22683
v -0.017323 0.010633 -0.22636
v -0.017263 0.010797 -0.22635
v -0.012801 0.010076 -0.23003
v -0.012284 0.00984 -0.2292
v -0.008085 0.010077 -0.23245
v -0.014791 0.009836 -0.22745
v -0.00962 0.009836 -0.2307
v -0.012703 0.010797 -0.22987
v -0.010852 0.010796 -0.23094
v -0.009028 0.014138 -0.23047
v -0.007534 0.010633 -0.23251
v -0.00759 0.010885 -0.23241
v -0.007554 0.010797 -0.23245
v -0.00719 0.010361 -0.23161
v -0.007251 0.010619 -0.23151
v -0.007265 0.010095 -0.23166
v -0.007613 0.010356 -0.23256
v -0.004674 0.009617 -0.23265
v -0.007722 0.009828 -0.23155
v -0.005437 0.010797 -0.23316
v -0.004116 0.008438 -0.23416
v -0.007349 0.008236 -0.2321
v -0.003886 0.008218 -0.23322
v -0.005967 0.012027 -0.23152
v -0.007463 0.009897 -0.23164
v -0.009636 0.009647 -0.23074
v -0.00759 0.009844 -0.2316
v -0.00781 0.007953 -0.23197
v -0.007888 0.007673 -0.232
v -0.014824 0.009647 -0.22748
v -0.009806 0.007238 -0.23121
v -0.007834 0.0074 -0.23208
v -0.014311 0.008245 -0.22825
v -0.010134 0.007967 -0.23089
v -0.00761 0.00816 -0.23201
v -0.010299 0.00817 -0.23076
v -0.010543 0.008245 -0.23062
v -0.011003 0.008438 -0.23148
v -0.012991 0.008438 -0.23033
v -0.014892 0.008438 -0.22904
v -0.013372 0.002693 -0.23094
v -0.008678 0.004145 -0.2333
v -0.01533 0.008152 -0.22878
v -0.006552 9.8e-05 -0.23437
v -0.018258 0.002693 -0.22725
v -0.007935 0.002693 -0.23374
v -0.017538 0.004145 -0.22773
v -0.010582 0.008152 -0.23177
v -0.010754 0.008361 -0.23163
v -0.014751 0.0079522 -0.228
v -0.017141 0.0035642 -0.22683
v -0.01887 0.0034803 -0.22521
v -0.016806 0.007402 -0.22644
v -0.017462 0.007576 -0.22717
v -0.019432 0.003859 -0.22601
v -0.017364 0.007858 -0.22719
v -0.017376 0.008145 -0.22711
v -0.017702 0.008438 -0.22673
v -0.017034 0.008236 -0.22602
v -0.019553 0.008218 -0.22337
v -0.0175 0.008359 -0.22694
v -0.016722 0.007953 -0.22637
v -0.016842 0.008161 -0.22621
v -0.016712 0.007674 -0.22646
v -0.018697 0.009617 -0.22384
v -0.018824 0.010797 -0.22475
v -0.01638 0.009828 -0.22612
v -0.016662 0.010361 -0.22566
v -0.016674 0.010094 -0.22575
v -0.016568 0.009897 -0.22592
v -0.017335 0.010356 -0.22645
v -0.017225 0.010149 -0.22663
v -0.015134 0.008361 -0.22888
v -0.014548 0.008171 -0.22809
v -0.006215 9.2e-05 -0.23343
v -0.005626 0.003099 -0.2335
v -0.005979 0.003765 -0.23332
v -0.0080395 0.0035636 -0.23255
v -0.008209 0.007576 -0.23299
v -0.0062236 0.0037044 -0.23431
v -0.004252 9.8e-05 -0.23509
v -0.001006 0.003524 -0.23556
v -0.001006 -0.00393 -0.23556
v 0.004647 0.003524 -0.23545
v 5.1e-05 0.010797 -0.23404
v -0.00118 0.010797 -0.23397
v 0.00339 0.005583 -0.23533
v -0.00518 0.010797 -0.23324
v 0.006629 9.8e-05 -0.23517
v 0.006705 -0.000203 -0.23515
v 0.006629 -0.000504 -0.23517
v 0.004628 0.003104 -0.23446
v 0.006301 8.9e-05 -0.23419
v 0.008328 -0.000493 -0.2333
v 0.008328 8.9e-05 -0.2333
v 0.006367 -0.000203 -0.23417
v 0.006745 0.003098 -0.23383
v 0.006737 0.003879 -0.23483
v 0.007407 0.002725 -0.23471
v 0.006386 0.003735 -0.23387
v 0.003825 0.004475 -0.23442
v 0.004447 0.007577 -0.2347
v 0.00424 0.007317 -0.23373
v 0.004358 0.007798 -0.23465
v 0.004154 0.007521 -0.23369
v 0.003425 0.009522 -0.23317
v 0.004152 0.007745 -0.23362
v 0.004238 0.007944 -0.23354
v 0.004452 0.00824 -0.2345
v 0.004358 0.008031 -0.23458
v 0.004629 0.008386 -0.23441
v 0.004857 0.008439 -0.23434
v 0.004611 0.008138 -0.23339
v 0.0044 0.008083 -0.23346
v 0.008865 0.008439 -0.23252
v 0.008332 0.00811 -0.23174
v 0.008896 0.008439 -0.2325
v 0.009316 0.008154 -0.23232
v 0.009033 0.008404 -0.23242
v 0.009456 0.002725 -0.23361
v 0.011548 0.004134 -0.23166
v 0.009456 -0.003129 -0.23361
v 0.013296 9.9e-05 -0.23021
v 0.008896 -0.000202 -0.23414
v 0.012215 0.002725 -0.23123
v 0.008826 9.9e-05 -0.23418
v 0.008391 -0.000202 -0.23327
v 0.011273 0.003095 -0.23071
v 0.012518 9e-05 -0.22958
v 0.012759 0.003099 -0.22896
v 0.012568 -0.000202 -0.22952
v 0.013924 -0.000492 -0.22769
v 0.013924 9e-05 -0.22769
v 0.014743 0.0001 -0.22827
v 0.013969 -0.000202 -0.22763
v 0.01479 -0.000202 -0.2282
v 0.015436 -0.003976 -0.22681
v 0.014743 -0.000503 -0.22827
v 0.01276 -0.003503 -0.22896
v 0.01339 -0.003977 -0.22969
v 0.012501 -0.004097 -0.22916
v 0.013276 -0.004236 -0.22978
v 0.011566 -0.008843 -0.23012
v 0.011384 -0.007981 -0.23073
v 0.01426 -0.008843 -0.2266
v 0.010694 -0.007694 -0.23007
v 0.00962 -0.006759 -0.23143
v 0.009071 -0.009875 -0.2305
v 0.010596 -0.007973 -0.23004
v 0.01128 -0.008274 -0.2307
v 0.010597 -0.008243 -0.22992
v 0.011281 -0.008556 -0.23057
v 0.011384 -0.008763 -0.23036
v 0.010694 -0.00844 -0.22972
v 0.010867 -0.008515 -0.22949
v 0.013106 -0.009878 -0.22568
v 0.013476 -0.008521 -0.22607
v 0.01348 -0.008522 -0.22607
v 0.013551 -0.011201 -0.22587
v 0.013477 -0.008521 -0.22607
v 0.013478 -0.008521 -0.22607
v 0.013484 -0.008523 -0.22608
v 0.013532 -0.008543 -0.22611
v 0.013588 -0.008566 -0.22615
v 0.0137 -0.008612 -0.22622
v 0.013924 -0.008705 -0.22638
v 0.013491 -0.008526 -0.22608
v 0.013812 -0.008658 -0.2263
v 0.014036 -0.008751 -0.22645
v 0.014148 -0.008797 -0.22653
v 0.012705 -0.01308 -0.22505
v 0.01209 -0.012697 -0.22464
v 0.013937 -0.011201 -0.22529
v 0.014365 -0.011201 -0.22464
v 0.011077 -0.015589 -0.22325
v 0.016872 -0.011201 -0.22068
v 0.018033 -0.007643 -0.22141
v 0.01376 -0.015553 -0.21868
v 0.013942 -0.015438 -0.21823
v 0.017037 -0.011138 -0.2202
v 0.013691 -0.015614 -0.21863
v 0.009395 -0.017913 -0.21585
v 0.009597 -0.017753 -0.21545
v 0.004893 -0.018672 -0.21245
v 0.009343 -0.017929 -0.21581
v 0.013945 -0.015141 -0.21781
v 0.009691 -0.017402 -0.21512
v 0.005024 -0.018317 -0.21218
v 0.013767 -0.014751 -0.21755
v 0.016656 -0.010734 -0.21937
v 0.018086 -0.007511 -0.22042
v 0.017751 -0.007379 -0.22005
v 0.016958 -0.010965 -0.21971
v 0.017038 -0.011136 -0.2202
v 0.016959 -0.010966 -0.21971
v 0.018189 -0.007607 -0.22092
v 0.018794 -0.003945 -0.2213
v 0.018637 -0.003976 -0.22179
v 0.015436 0.003574 -0.22681
v 0.018637 0.003575 -0.22179
v 0.018842 -0.000209 -0.22192
v 0.018639 -0.003962 -0.22179
v 0.018994 -0.000209 -0.22143
v 0.018879 -0.000209 -0.22092
v 0.018638 0.003561 -0.22179
v 0.018681 -0.0039 -0.2208
v 0.018033 0.007239 -0.22142
v 0.016871 0.010799 -0.22069
v 0.014362 0.010799 -0.22464
v 0.013936 0.010799 -0.22529
v 0.012704 0.012677 -0.22505
v 0.01355 0.010799 -0.22587
v 0.012084 0.012298 -0.22464
v 0.010202 0.015068 -0.22484
v 0.013107 0.009475 -0.22568
v 0.012292 0.010181 -0.22627
v 0.01215 0.010447 -0.22624
v 0.012891 0.010886 -0.22675
v 0.009149 0.014957 -0.22645
v 0.012948 0.010798 -0.22674
v 0.013024 0.010633 -0.22678
v 0.011215 0.010798 -0.229
v 0.010056 0.010078 -0.23072
v 0.009305 0.010798 -0.23092
v 0.008079 0.014701 -0.22806
v 0.01288 0.010078 -0.22744
v 0.012144 0.009664 -0.22691
v 0.013025 0.010158 -0.22718
v 0.00944 0.009662 -0.23006
v 0.013077 0.01036 -0.22694
v 0.012339 0.009927 -0.22642
v 0.012286 0.009738 -0.22665
v 0.009071 0.009471 -0.2305
v 0.009297 0.009693 -0.23017
v 0.009154 0.009786 -0.23024
v 0.009753 0.01021 -0.23091
v 0.009905 0.010111 -0.23084
v 0.009627 0.01035 -0.23093
v 0.009034 0.009924 -0.23025
v 0.008913 0.010094 -0.23025
v 0.006479 0.014109 -0.23015
v 0.005462 0.015117 -0.22959
v 0.006968 0.010454 -0.23142
v 0.007441 0.010885 -0.23219
v 0.005296 0.013497 -0.23143
v 0.007079 0.010249 -0.23146
v 0.003758 0.015183 -0.23041
v -6.2e-05 0.016336 -0.23011
v 0.004548 0.01303 -0.23213
v 0.006678 0.010798 -0.23266
v 0.002262 0.010797 -0.23394
v -0.000966 0.015392 -0.23123
v 0.002097 0.011027 -0.23386
v 0.002463 0.009989 -0.23315
v 0.002581 0.010349 -0.23408
v 5.9e-05 0.010487 -0.2331
v 0.002588 0.009846 -0.23318
v 0.002713 0.010211 -0.23412
v 0.002892 0.010113 -0.23413
v 0.002757 0.009749 -0.2332
v 0.002946 0.009719 -0.23318
v 0.0034 0.009707 -0.2331
v 0.003094 0.010077 -0.23412
v 0.00719 0.010077 -0.23277
v 0.006763 0.009668 -0.23196
v 0.007542 0.010699 -0.23224
v 0.007529 0.010275 -0.23248
v 0.007393 0.010131 -0.23264
v 0.006944 0.009715 -0.23183
v 0.00707 0.00985 -0.23169
v 0.007116 0.010039 -0.23156
v 0.00758 0.010476 -0.23235
v 0.007498 0.010798 -0.23221
v -0.002943 0.015552 -0.23106
v 3.5e-05 0.010822 -0.23403
v -0.002334 0.014457 -0.23199
v 0.000658 0.009556 -0.23343
v -0.001301 0.015418 -0.23122
v 0.003271 0.005396 -0.23434
v -0.003765 0.012803 -0.23277
v -0.000774 0.010797 -0.234
v -0.006245 0.012305 -0.23237
v -0.007756 0.015905 -0.22972
v -0.007342 0.014692 -0.23079
v -0.007771 0.015959 -0.22967
v -0.009042 0.016028 -0.22909
v -0.009143 0.014951 -0.22938
v -0.009456 0.015564 -0.22931
v 0.010693 0.00729 -0.23007
v 0.008753 0.007838 -0.23155
v 0.010693 0.008036 -0.22972
v 0.010596 0.007839 -0.22992
v 0.008636 0.007982 -0.23158
v 0.008488 0.008078 -0.23164
v 0.00962 0.006355 -0.23143
v 0.010866 0.008113 -0.22949
v 0.010595 0.007569 -0.23005
v 0.011383 0.007578 -0.23073
v 0.011279 0.00787 -0.2307
v 0.01128 0.008152 -0.23057
v 0.011382 0.008359 -0.23036
v 0.011565 0.00844 -0.23012
v 0.013275 0.003833 -0.22978
v 0.014259 0.00844 -0.2266
v 0.013476 0.008117 -0.22607
v 0.01339 0.003574 -0.22969
v 0.012499 0.003693 -0.22916
v 0.010856 0.003981 -0.23096
v 0.009191 0.008304 -0.23235
v 0.004693 -0.018849 -0.21283
v 0.001856 -0.019552 -0.21769
v 0.006616 -0.018358 -0.22083
v 0.009017 -0.015472 -0.22641
v 0.009855 -0.015475 -0.22532
v -0.00124 -0.019702 -0.22244
v 0.00352 -0.018195 -0.22577
v 0.005465 -0.015521 -0.22958
v 0.00915 -0.015361 -0.22645
v 0.008081 -0.015106 -0.22805
v -6.1e-05 -0.016743 -0.2301
v -0.004763 -0.01875 -0.22692
v -0.00294 -0.015958 -0.23105
v 0.004551 -0.013437 -0.23213
v -0.000954 -0.015801 -0.23123
v -0.0013 -0.015826 -0.23122
v 0.00376 -0.015588 -0.2304
v 0.006986 -0.010853 -0.23141
v 0.005297 -0.013903 -0.23143
v 0.007442 -0.01129 -0.23219
v 0.006682 -0.011202 -0.23265
v 0.002263 -0.011203 -0.23393
v 0.003095 -0.010483 -0.23411
v 0.007192 -0.010482 -0.23277
v 0.007547 -0.011094 -0.23224
v 0.007499 -0.011202 -0.23221
v 0.007085 -0.010645 -0.23147
v 0.007581 -0.010874 -0.23235
v 0.007118 -0.010437 -0.23156
v 0.007069 -0.010251 -0.23169
v 0.007528 -0.010676 -0.23249
v 0.007392 -0.010534 -0.23264
v 0.006943 -0.010119 -0.23183
v 0.00676 -0.010071 -0.23195
v 0.0034 -0.01011 -0.2331
v 0.003424 -0.009928 -0.23316
v 6.1e-05 -0.010894 -0.2331
v 0.004155 -0.007927 -0.23369
v 0.004402 -0.008487 -0.23346
v 0.008332 -0.008516 -0.23174
v 0.004615 -0.008537 -0.2334
v 0.003827 -0.004879 -0.23441
v 0.000658 -0.009963 -0.23343
v 0.002946 -0.010119 -0.23318
v 0.004153 -0.00815 -0.23362
v 0.004239 -0.008349 -0.23354
v 0.008489 -0.008482 -0.23164
v 0.003271 -0.005802 -0.23434
v 0.002674 -0.010195 -0.23319
v 0.002803 -0.010559 -0.23413
v 0.002462 -0.010385 -0.23315
v 0.002583 -0.010755 -0.23408
v 0.002098 -0.011434 -0.23385
v 0.003391 -0.005989 -0.23533
v 0.004647 -0.00393 -0.23545
v 5.3e-05 -0.011203 -0.23404
v 3.7e-05 -0.011227 -0.23403
v -0.000771 -0.011203 -0.234
v -0.002333 -0.014865 -0.23198
v -0.003765 -0.013211 -0.23277
v -0.001179 -0.011203 -0.23397
v -0.005182 -0.011203 -0.23323
v -0.005436 -0.011203 -0.23316
v -0.004115 -0.008845 -0.23416
v -0.004672 -0.010023 -0.23265
v -0.003884 -0.008624 -0.23322
v -0.007705 -0.008845 -0.23301
v -0.008208 -0.007983 -0.23299
v -0.006305 -0.004266 -0.23426
v -0.006126 -0.00393 -0.23435
v -0.005979 -0.004172 -0.23332
v -0.004252 -0.000505 -0.23509
v -0.005626 -0.003505 -0.2335
v -0.006216 -0.000498 -0.23343
v -0.0078 -0.003509 -0.23268
v -0.003983 -0.000497 -0.23414
v -0.004174 -0.000203 -0.23511
v -0.003991 8.6e-05 -0.23413
v -0.003919 -0.000203 -0.23415
v -0.006141 -0.000203 -0.23346
v -0.006551 -0.000505 -0.23437
v -0.006476 -0.000203 -0.2344
v -0.007935 -0.0031 -0.23374
v -0.008678 -0.004552 -0.2333
v -0.008279 -0.004456 -0.23238
v -0.010581 -0.008559 -0.23176
v -0.009805 -0.007645 -0.2312
v -0.007831 -0.007808 -0.23208
v -0.010133 -0.008374 -0.23089
v -0.010298 -0.008577 -0.23076
v -0.010753 -0.008768 -0.23163
v -0.011002 -0.008845 -0.23148
v -0.010541 -0.008653 -0.23061
v -0.008267 -0.008265 -0.23291
v -0.007886 -0.00808 -0.232
v -0.008185 -0.008552 -0.23288
v -0.007809 -0.008359 -0.23197
v -0.00761 -0.008567 -0.23201
v -0.007979 -0.008766 -0.23292
v -0.007348 -0.008643 -0.2321
v -0.007265 -0.010498 -0.23166
v -0.007463 -0.010302 -0.23164
v -0.007189 -0.010763 -0.23161
v -0.005966 -0.012434 -0.23152
v -0.007245 -0.011023 -0.23151
v -0.007722 -0.010229 -0.23155
v -0.008084 -0.010483 -0.23245
v -0.009619 -0.010242 -0.23069
v -0.012799 -0.010483 -0.23002
v -0.014484 -0.011203 -0.22866
v -0.017032 -0.010483 -0.22683
v -0.012701 -0.011203 -0.22987
v -0.012708 -0.011203 -0.22986
v -0.010853 -0.011203 -0.23094
v -0.009028 -0.014548 -0.23046
v -0.007532 -0.011036 -0.23251
v -0.007553 -0.011203 -0.23245
v -0.007588 -0.011291 -0.23241
v -0.007614 -0.01076 -0.23256
v -0.00782 -0.010556 -0.23254
v -0.009454 -0.015972 -0.22931
v -0.011363 -0.016561 -0.22772
v -0.009141 -0.015358 -0.22937
v -0.00955 -0.016454 -0.22884
v -0.00904 -0.016435 -0.22909
v -0.007768 -0.016365 -0.22966
v -0.00734 -0.0151 -0.23079
v -0.007754 -0.016315 -0.22971
v -0.008721 -0.019387 -0.22352
v -0.00872 -0.019388 -0.22352
v -0.010992 -0.019701 -0.21631
v -0.005761 -0.020013 -0.21881
v -0.00576 -0.020013 -0.21881
v -0.00291 -0.019775 -0.21428
v -0.008054 -0.019552 -0.21146
v -0.009605 -0.017929 -0.2039
v -0.012946 -0.018357 -0.20854
v -0.004902 -0.018848 -0.2068
v -0.004889 -0.01885 -0.20681
v -0.002908 -0.019775 -0.21427
v -0.000114 -0.019137 -0.20983
v 0.000116 -0.018963 -0.20946
v 0.004682 -0.01885 -0.21282
v 0.000118 -0.01896 -0.20946
v -0.009655 -0.017913 -0.20387
v -0.016053 -0.018194 -0.21347
v -0.019016 -0.015472 -0.20879
v -0.018384 -0.015475 -0.20754
v -0.020219 -0.010842 -0.20588
v -0.021019 -0.011202 -0.20539
v -0.020996 -0.011289 -0.20544
v -0.019107 -0.01536 -0.20868
v -0.020313 -0.010577 -0.20577
v -0.020466 -0.010325 -0.2058
v -0.021092 -0.011027 -0.20534
v -0.021256 -0.010758 -0.20536
v -0.021446 -0.010559 -0.20551
v -0.021618 -0.010482 -0.20575
v -0.02248 -0.010056 -0.20997
v -0.020648 -0.010138 -0.20595
v -0.023336 -0.010482 -0.20969
v -0.022296 -0.011202 -0.20793
v -0.020818 -0.010059 -0.20619
v -0.02319 -0.011202 -0.21046
v -0.020088 -0.015105 -0.21035
v -0.021273 -0.014517 -0.21268
v -0.02033 -0.015522 -0.21335
v -0.02241 -0.010542 -0.21056
v -0.020334 -0.015588 -0.21524
v -0.022641 -0.010848 -0.21278
v -0.022732 -0.010644 -0.21271
v -0.023539 -0.01129 -0.2127
v -0.02192 -0.013907 -0.2143
v -0.023628 -0.011203 -0.2136
v -0.02223 -0.013435 -0.21529
v -0.02287 -0.011203 -0.21813
v -0.019033 -0.0158 -0.21987
v -0.022722 -0.011439 -0.21824
v -0.022247 -0.010385 -0.21761
v -0.023139 -0.010755 -0.2179
v -0.023392 -0.010483 -0.21745
v -0.023278 -0.010559 -0.21772
v -0.023955 -0.010482 -0.21318
v -0.023632 -0.011093 -0.21263
v -0.02392 -0.010534 -0.21294
v -0.023843 -0.010676 -0.21275
v -0.023741 -0.010873 -0.21264
v -0.022925 -0.010251 -0.21282
v -0.022832 -0.010436 -0.21272
v -0.022995 -0.010118 -0.21299
v -0.02358 -0.011202 -0.21266
v -0.022486 -0.010317 -0.21042
v -0.023345 -0.010754 -0.21017
v -0.022512 -0.010187 -0.21029
v -0.023379 -0.010611 -0.21004
v -0.023377 -0.010515 -0.20988
v -0.02251 -0.010097 -0.21013
v -0.010161 -0.018359 -0.22581
v -0.006244 -0.012712 -0.23237
v -0.01314 -0.016453 -0.22658
v -0.011364 -0.01656 -0.22772
v -0.014844 -0.014531 -0.22682
v -0.013601 -0.015976 -0.2267
v -0.017209 -0.011291 -0.22636
v -0.017261 -0.011203 -0.22635
v -0.017323 -0.011036 -0.22636
v -0.016662 -0.010764 -0.22566
v -0.016673 -0.010498 -0.22575
v -0.017333 -0.01076 -0.22645
v -0.017223 -0.010556 -0.22663
v -0.016566 -0.010302 -0.22592
v -0.013597 -0.016433 -0.22623
v 0.004628 -0.00351 -0.23446
v 0.006387 -0.00414 -0.23387
v 0.006745 -0.003504 -0.23383
v 0.006302 -0.000491 -0.23421
v 0.006737 -0.004284 -0.23483
v 0.007407 -0.00313 -0.23471
v 0.008826 -0.000504 -0.23418
v 0.004448 -0.007982 -0.23469
v 0.008866 -0.008844 -0.23252
v 0.008897 -0.008843 -0.2325
v 0.004858 -0.008844 -0.23434
v 0.00463 -0.008792 -0.23441
v 0.004359 -0.008436 -0.23458
v 0.004359 -0.008203 -0.23465
v 0.004453 -0.008645 -0.2345
v 0.004238 -0.007723 -0.23373
v 0.009317 -0.008558 -0.23232
v 0.009034 -0.008809 -0.23241
v 0.009192 -0.008708 -0.23234
v 0.008636 -0.008386 -0.23158
v 0.008754 -0.008243 -0.23155
v 0.011549 -0.004539 -0.23166
v 0.010857 -0.004386 -0.23096
v 0.012215 -0.003129 -0.23123
v 0.011274 -0.0035 -0.23071
v 0.012518 -0.000492 -0.22958
v 0.013297 -0.000503 -0.23021
v 0.013348 -0.000201 -0.23015
v 0.008917 -0.010492 -0.23025
v 0.009306 -0.011202 -0.23091
v 0.009629 -0.010754 -0.23093
v 0.00648 -0.014515 -0.23014
v 0.009038 -0.010317 -0.23026
v 0.009157 -0.010187 -0.23023
v 0.009757 -0.010611 -0.23091
v 0.009907 -0.010515 -0.23083
v 0.010058 -0.010482 -0.23072
v 0.012881 -0.010482 -0.22744
v 0.011218 -0.011202 -0.22899
v 0.00944 -0.010065 -0.23005
v 0.012147 -0.010059 -0.22691
v 0.009299 -0.010097 -0.23016
v 0.013025 -0.010559 -0.22718
v 0.012286 -0.010139 -0.22665
v 0.012341 -0.010324 -0.22642
v 0.0123 -0.010575 -0.22627
v 0.013078 -0.010757 -0.22694
v 0.013029 -0.011025 -0.22679
v 0.012949 -0.011202 -0.22674
v 0.012167 -0.010842 -0.22623
v 0.012892 -0.011289 -0.22674
v 0.010204 -0.015472 -0.22483
v -0.007706 0.008438 -0.23301
v -0.008267 0.007858 -0.23291
v -0.00798 0.00836 -0.23292
v -0.008186 0.008146 -0.23288
v -0.00782 0.01015 -0.23254
v -0.005764 0.019609 -0.21882
v -0.023668 0.005397 -0.21739
v -0.023968 0.004511 -0.21695
v -0.023538 0.007317 -0.21625
v -0.024362 0.003104 -0.21622
v -0.024598 0.003733 -0.21438
v -0.023465 0.007522 -0.21631
v -0.023406 0.007745 -0.21629
v -0.024423 0.007798 -0.21655
v -0.024501 0.007577 -0.21649
v -0.024362 0.008032 -0.21652
v -0.024356 0.008439 -0.21596
v -0.024327 0.008241 -0.2164
v -0.023371 0.007944 -0.21618
v -0.024325 0.008388 -0.2162
v -0.02337 0.008082 -0.21599
v -0.023407 0.008132 -0.21577
v -0.023514 0.008111 -0.2117
v -0.024449 0.008439 -0.21156
v -0.024712 0.003098 -0.21404
v -0.024924 8.8e-05 -0.21238
v -0.024866 8.5e-05 -0.2146
v -0.024861 -0.000203 -0.21453
v -0.025885 -0.000203 -0.21464
v -0.024928 -0.00049 -0.21238
v -0.024921 -0.000203 -0.21231
v -0.025932 -0.000504 -0.21231
v -0.0258 -0.00313 -0.21382
v -0.023595 0.008358 -0.20835
v -0.023739 0.00815 -0.20853
v -0.023857 0.007869 -0.20859
v -0.023922 0.007578 -0.20851
v -0.023459 0.00844 -0.20809
v -0.022676 0.010352 -0.21274
v -0.020648 0.008117 -0.20463
v -0.018748 0.012298 -0.20526
v -0.020497 0.010799 -0.20448
v -0.019394 0.012676 -0.20489
v -0.002907 0.019372 -0.21428
v -0.004902 0.018447 -0.2068
v -0.004891 0.018449 -0.20681
v -0.000116 0.018736 -0.20983
v -0.004651 0.018271 -0.20646
v -0.00446 0.017916 -0.20622
v -0.009135 0.017001 -0.20329
v -0.013088 0.01435 -0.20067
v 0.00028 0.0182 -0.2092
f 35 29 39
f 37 36 35
f 37 35 38
f 35 39 38
f 29 28 39
f 40 43 38
f 41 37 38
f 43 41 38
f 43 42 41
f 40 44 43
f 53 52 43
f 44 53 43
f 71 70 73
f 81 80 76
f 83 82 76
f 84 83 76
f 86 85 76
f 134 131 44
f 133 132 134
f 40 133 134
f 40 134 44
f 317 276 279
f 442 438 436
f 319 446 443
f 467 468 471
f 548 554 555
f 550 562 563
f 550 563 547
f 41 581 37
f 41 580 581
f 581 583 37
f 604 602 603
f 770 769 771
f 770 771 773
f 775 784 783
f 775 785 784
f 787 789 786
f 113 194 111
f 113 117 194
f 1006 1007 1005
f 133 1015 132
f 1 2 8
f 4 2 1
f 9 3 1
f 3 4 1
f 1 5 9
f 7 5 1
f 7 1 6
f 10 6 1
f 8 10 1
f 12 10 8
f 10 12 11
f 11 6 10
f 13 11 12
f 15 12 8
f 13 12 14
f 15 14 12
f 20 16 15
f 15 16 19
f 15 17 14
f 17 15 18
f 15 19 18
f 15 8 20
f 20 21 16
f 2 20 8
f 21 20 2
f 16 21 22
f 2 23 21
f 23 22 21
f 25 23 2
f 24 26 23
f 23 27 24
f 23 25 27
f 23 26 22
f 25 28 27
f 28 29 27
f 30 27 29
f 27 30 24
f 32 30 29
f 31 24 30
f 32 31 30
f 32 33 31
f 29 35 32
f 32 34 33
f 34 32 35
f 34 35 36
f 4 3 39
f 3 38 39
f 4 39 28
f 45 42 43
f 45 49 42
f 45 48 46
f 47 45 46
f 47 49 45
f 48 45 43
f 42 49 47
f 48 50 46
f 48 51 50
f 51 48 52
f 48 43 52
f 51 52 53
f 54 53 44
f 51 53 54
f 55 54 44
f 51 54 56
f 55 56 54
f 58 57 56
f 59 56 57
f 55 58 56
f 59 51 56
f 57 62 59
f 50 59 60
f 51 59 50
f 59 61 60
f 59 62 61
f 62 57 58
f 64 63 62
f 62 63 61
f 62 58 64
f 67 63 64
f 64 65 66
f 58 65 64
f 67 64 66
f 61 63 67
f 66 68 67
f 61 67 69
f 67 68 70
f 69 67 70
f 71 72 70
f 69 70 72
f 68 73 70
f 76 73 74
f 74 73 68
f 76 75 73
f 75 71 73
f 79 77 76
f 75 76 77
f 74 79 76
f 76 81 82
f 76 84 85
f 76 86 87
f 88 89 78
f 90 91 79
f 90 79 74
f 91 93 79
f 77 79 92
f 93 92 79
f 91 94 93
f 92 93 95
f 93 94 95
f 96 97 95
f 96 95 98
f 95 97 92
f 94 98 95
f 96 98 99
f 99 98 94
f 99 100 96
f 99 101 100
f 90 101 99
f 99 91 90
f 94 91 99
f 104 101 90
f 101 104 102
f 101 102 103
f 101 103 100
f 105 102 104
f 105 104 106
f 107 106 104
f 90 107 104
f 107 90 66
f 109 107 66
f 108 107 109
f 108 106 107
f 109 110 108
f 66 110 109
f 111 112 110
f 111 110 113
f 110 112 108
f 114 113 110
f 66 114 110
f 114 66 65
f 114 115 119
f 114 116 115
f 114 118 116
f 120 114 65
f 117 113 114
f 119 117 114
f 114 120 118
f 120 122 121
f 121 118 120
f 120 124 122
f 65 123 120
f 123 124 120
f 125 122 124
f 125 124 123
f 127 125 126
f 126 125 128
f 127 122 125
f 125 123 128
f 126 128 65
f 65 128 123
f 129 127 126
f 127 130 122
f 127 129 131
f 130 127 131
f 129 44 131
f 130 131 134
f 135 134 132
f 135 130 134
f 135 132 136
f 121 135 136
f 135 121 122
f 130 135 122
f 121 136 138
f 132 137 136
f 138 136 137
f 138 139 140
f 141 139 138
f 138 140 118
f 141 138 137
f 118 121 138
f 141 142 145
f 143 142 141
f 137 143 141
f 141 144 139
f 145 144 141
f 146 144 145
f 146 145 147
f 142 147 145
f 149 147 148
f 148 147 142
f 149 146 147
f 150 154 149
f 150 149 152
f 151 149 148
f 153 149 151
f 154 146 149
f 153 152 149
f 154 150 155
f 154 155 157
f 156 154 157
f 146 154 156
f 158 157 155
f 156 157 158
f 160 158 155
f 159 156 158
f 158 161 159
f 160 162 158
f 163 161 158
f 162 163 158
f 163 165 164
f 163 164 161
f 166 165 163
f 166 163 162
f 166 167 169
f 168 167 166
f 168 166 162
f 165 166 170
f 169 170 166
f 170 169 172
f 165 170 171
f 171 170 159
f 170 172 159
f 173 172 181
f 188 172 173
f 172 175 174
f 172 174 184
f 182 175 172
f 176 159 172
f 191 176 172
f 172 193 177
f 177 180 172
f 172 184 178
f 172 178 179
f 172 179 185
f 180 190 172
f 172 186 181
f 187 182 172
f 189 183 172
f 183 193 172
f 172 185 186
f 192 187 172
f 188 189 172
f 190 191 172
f 169 192 172
f 193 183 197
f 193 194 177
f 193 195 194
f 196 195 193
f 193 197 196
f 201 196 197
f 197 198 200
f 197 199 198
f 199 197 183
f 201 197 200
f 202 204 201
f 202 201 200
f 201 204 203
f 201 203 207
f 205 208 201
f 205 201 206
f 207 206 201
f 201 208 196
f 208 209 210
f 208 205 209
f 210 196 208
f 210 111 194
f 111 210 209
f 210 195 196
f 195 210 194
f 112 111 209
f 211 209 205
f 106 112 209
f 106 209 211
f 105 211 212
f 211 105 106
f 211 205 212
f 212 213 105
f 213 212 205
f 105 213 214
f 206 214 213
f 206 213 205
f 102 105 214
f 214 215 102
f 215 214 206
f 215 103 102
f 216 215 206
f 100 103 215
f 215 216 100
f 217 216 218
f 216 217 100
f 219 218 216
f 220 219 216
f 206 220 216
f 221 224 220
f 220 222 221
f 223 222 220
f 224 219 220
f 220 206 223
f 225 96 224
f 225 224 221
f 96 226 224
f 219 224 226
f 96 217 226
f 218 226 217
f 218 219 226
f 96 225 230
f 225 227 233
f 236 227 225
f 228 234 225
f 221 228 225
f 229 232 225
f 238 229 225
f 225 232 230
f 233 231 225
f 225 231 237
f 234 239 225
f 235 236 225
f 239 235 225
f 238 225 237
f 240 239 234
f 241 235 239
f 240 241 239
f 241 243 235
f 241 240 242
f 243 241 242
f 245 244 243
f 243 244 235
f 245 243 242
f 247 246 245
f 244 245 246
f 223 245 242
f 247 245 223
f 246 247 227
f 248 247 223
f 247 248 249
f 247 249 227
f 250 249 248
f 249 250 251
f 252 227 249
f 249 251 252
f 253 252 251
f 254 252 253
f 252 254 227
f 231 233 254
f 254 233 227
f 255 254 253
f 254 255 231
f 253 256 255
f 257 255 256
f 255 257 231
f 237 257 258
f 257 237 231
f 258 257 256
f 258 260 237
f 256 259 258
f 260 258 259
f 237 260 262
f 261 262 260
f 263 261 260
f 260 259 264
f 264 263 260
f 264 265 268
f 265 264 259
f 266 267 264
f 268 266 264
f 264 267 263
f 269 268 270
f 269 271 268
f 271 266 268
f 272 270 268
f 268 265 272
f 272 273 270
f 273 272 274
f 272 265 259
f 259 274 272
f 275 274 259
f 274 275 253
f 253 273 274
f 253 275 256
f 259 256 275
f 253 279 273
f 279 276 273
f 276 277 273
f 277 280 273
f 273 278 270
f 278 273 280
f 280 281 278
f 281 280 282
f 277 283 280
f 283 282 280
f 284 287 283
f 283 277 284
f 283 286 282
f 286 283 285
f 283 287 285
f 288 287 284
f 288 285 287
f 293 289 288
f 288 289 290
f 290 296 288
f 288 296 291
f 270 288 291
f 288 281 292
f 288 292 285
f 297 293 288
f 288 295 294
f 288 294 297
f 284 295 288
f 288 270 281
f 298 299 297
f 297 294 298
f 299 293 297
f 293 299 301
f 300 301 299
f 300 299 302
f 299 298 302
f 302 294 295
f 303 302 295
f 294 302 298
f 302 303 300
f 295 304 303
f 305 303 304
f 303 305 300
f 304 306 305
f 306 307 305
f 300 305 307
f 307 306 310
f 300 307 309
f 307 308 309
f 308 307 310
f 312 310 306
f 310 311 309
f 312 311 310
f 310 309 308
f 306 316 312
f 443 312 315
f 312 443 311
f 312 314 313
f 313 315 312
f 316 314 312
f 306 317 316
f 313 314 316
f 316 318 313
f 318 316 317
f 318 279 253
f 313 318 253
f 279 318 317
f 306 304 317
f 317 284 277
f 284 317 304
f 317 277 276
f 443 315 319
f 253 320 315
f 253 315 313
f 320 319 315
f 320 321 327
f 322 321 320
f 322 320 253
f 323 319 320
f 320 325 323
f 320 324 325
f 326 324 320
f 320 328 326
f 320 327 328
f 329 330 328
f 328 327 329
f 326 328 330
f 329 331 330
f 332 330 331
f 326 330 332
f 332 333 326
f 333 332 334
f 331 334 332
f 335 334 331
f 334 335 338
f 334 338 336
f 334 336 337
f 337 333 334
f 336 338 153
f 338 339 340
f 342 339 338
f 338 340 341
f 152 338 341
f 338 335 342
f 338 152 153
f 331 343 342
f 342 335 331
f 344 342 343
f 342 344 339
f 343 345 344
f 339 344 345
f 345 348 346
f 347 345 346
f 345 347 339
f 343 348 345
f 348 349 346
f 349 348 350
f 348 343 350
f 352 350 351
f 331 351 350
f 352 349 350
f 331 350 343
f 351 346 352
f 349 352 346
f 331 173 351
f 351 353 346
f 173 353 351
f 346 353 354
f 173 354 353
f 181 354 173
f 354 181 355
f 355 346 354
f 355 181 186
f 185 358 355
f 355 186 185
f 347 346 355
f 347 355 356
f 355 357 356
f 355 358 357
f 357 358 179
f 358 185 179
f 359 357 178
f 357 179 178
f 357 359 356
f 359 178 184
f 356 359 184
f 360 356 184
f 360 361 356
f 356 361 347
f 347 361 360
f 174 360 184
f 362 360 174
f 360 362 347
f 340 362 174
f 339 362 340
f 362 339 347
f 341 340 174
f 175 341 174
f 364 341 175
f 341 363 152
f 341 364 363
f 363 364 365
f 175 365 364
f 175 366 365
f 168 365 167
f 363 365 168
f 365 366 167
f 187 367 366
f 366 367 368
f 366 368 167
f 366 182 187
f 175 182 366
f 192 169 368
f 368 367 192
f 169 167 368
f 367 187 192
f 152 363 369
f 369 363 168
f 369 370 155
f 150 369 155
f 370 369 168
f 152 369 150
f 155 370 160
f 168 160 370
f 372 371 337
f 333 337 371
f 337 374 372
f 336 373 337
f 337 373 374
f 372 374 375
f 374 377 375
f 379 376 374
f 376 377 374
f 378 374 373
f 378 379 374
f 14 380 379
f 14 379 378
f 381 379 380
f 379 381 376
f 382 381 380
f 381 382 376
f 383 382 380
f 383 385 382
f 382 384 376
f 386 384 382
f 382 385 386
f 386 388 387
f 386 387 375
f 388 386 390
f 375 384 386
f 385 389 386
f 389 390 386
f 390 394 391
f 390 391 392
f 392 393 390
f 390 393 388
f 390 389 394
f 394 395 397
f 398 395 394
f 394 396 398
f 396 394 400
f 397 391 394
f 394 399 400
f 389 399 394
f 400 401 403
f 401 400 399
f 402 396 400
f 400 404 402
f 403 404 400
f 402 404 405
f 404 403 405
f 403 406 405
f 405 406 409
f 408 405 407
f 407 405 409
f 408 402 405
f 406 415 409
f 410 418 409
f 409 417 410
f 411 412 409
f 411 409 415
f 412 414 409
f 409 414 413
f 417 409 413
f 416 407 409
f 418 416 409
f 416 418 396
f 418 410 396
f 417 413 426
f 417 426 419
f 417 419 420
f 417 420 423
f 417 421 395
f 421 417 424
f 417 398 410
f 395 398 417
f 423 422 417
f 417 422 425
f 417 428 424
f 417 425 427
f 417 427 428
f 428 430 424
f 428 429 430
f 429 428 427
f 430 431 424
f 431 430 432
f 432 430 429
f 433 437 432
f 439 433 432
f 432 438 434
f 432 434 431
f 432 437 435
f 300 432 435
f 432 436 438
f 309 436 432
f 432 429 439
f 309 432 300
f 439 425 422
f 433 439 422
f 429 440 439
f 425 439 440
f 440 429 427
f 440 427 425
f 438 442 441
f 441 434 438
f 443 442 311
f 436 311 442
f 445 444 443
f 442 443 444
f 446 445 443
f 323 445 446
f 323 446 319
f 444 445 447
f 448 447 445
f 449 448 445
f 323 449 445
f 452 449 450
f 451 450 449
f 449 323 451
f 449 452 448
f 450 454 452
f 448 452 453
f 452 454 453
f 454 450 421
f 453 454 421
f 455 453 421
f 447 453 455
f 447 448 453
f 444 455 421
f 447 455 444
f 456 451 323
f 450 451 456
f 456 323 457
f 372 456 457
f 458 421 456
f 450 456 421
f 456 461 458
f 456 372 387
f 456 387 459
f 456 459 460
f 456 460 461
f 391 458 461
f 461 460 462
f 463 391 461
f 462 463 461
f 391 463 462
f 391 462 392
f 462 460 459
f 392 462 459
f 392 459 388
f 459 387 388
f 458 397 421
f 397 458 391
f 457 371 372
f 333 371 457
f 333 457 325
f 325 457 323
f 421 441 444
f 441 442 444
f 421 465 441
f 464 434 441
f 441 465 464
f 421 424 465
f 465 431 464
f 465 424 431
f 434 464 431
f 437 433 469
f 466 435 437
f 469 466 437
f 466 469 467
f 468 467 469
f 423 468 469
f 422 469 433
f 423 469 422
f 468 423 470
f 468 470 471
f 471 470 412
f 471 472 467
f 472 471 473
f 473 471 412
f 473 412 479
f 472 473 474
f 474 473 480
f 478 475 473
f 473 475 480
f 473 477 476
f 476 478 473
f 479 477 473
f 481 480 484
f 480 481 482
f 474 480 482
f 483 484 480
f 483 480 475
f 484 486 485
f 487 484 485
f 484 483 488
f 484 488 486
f 484 487 481
f 488 489 490
f 488 491 489
f 490 486 488
f 491 488 483
f 491 483 492
f 494 491 492
f 491 493 489
f 491 494 493
f 495 493 494
f 494 496 495
f 496 494 492
f 496 492 497
f 498 496 497
f 495 496 498
f 499 498 497
f 500 498 499
f 500 501 498
f 501 495 498
f 493 495 501
f 493 501 503
f 501 502 503
f 501 500 502
f 506 503 504
f 505 504 503
f 489 493 503
f 505 503 502
f 489 503 506
f 504 507 506
f 508 506 507
f 489 506 508
f 508 510 509
f 511 508 509
f 510 508 507
f 508 511 489
f 509 512 511
f 511 490 489
f 517 490 511
f 512 516 511
f 513 511 514
f 511 513 515
f 511 516 514
f 511 515 517
f 518 486 517
f 518 517 515
f 490 517 486
f 485 518 515
f 486 518 485
f 519 520 516
f 516 512 519
f 520 514 516
f 520 519 521
f 520 521 524
f 514 520 522
f 523 522 520
f 520 524 523
f 524 526 523
f 526 524 525
f 525 524 521
f 526 525 527
f 523 526 527
f 528 527 525
f 528 529 527
f 527 529 523
f 530 529 531
f 530 523 529
f 528 531 529
f 533 531 528
f 531 532 530
f 531 533 532
f 534 535 533
f 536 534 533
f 533 535 537
f 536 533 528
f 533 537 532
f 539 538 537
f 538 532 537
f 537 540 539
f 540 537 535
f 540 542 539
f 540 535 541
f 541 542 540
f 542 545 539
f 541 543 542
f 543 544 542
f 544 545 542
f 545 546 539
f 546 545 544
f 546 547 539
f 546 548 547
f 548 546 534
f 544 534 546
f 550 547 548
f 548 552 549
f 553 549 548
f 536 550 548
f 548 551 552
f 558 553 548
f 548 558 554
f 556 555 548
f 559 556 548
f 557 559 548
f 548 534 536
f 548 561 536
f 561 560 548
f 562 550 564
f 564 550 536
f 528 565 564
f 528 564 536
f 562 564 565
f 528 568 565
f 562 565 566
f 566 565 569
f 565 567 569
f 568 567 565
f 571 570 569
f 572 569 570
f 569 567 571
f 566 569 572
f 566 572 573
f 574 573 572
f 570 574 572
f 577 574 570
f 574 575 576
f 578 575 574
f 576 573 574
f 577 578 574
f 578 579 575
f 578 577 580
f 579 578 41
f 578 580 41
f 582 583 581
f 582 581 584
f 581 580 577
f 577 584 581
f 584 586 582
f 571 585 584
f 570 571 584
f 584 577 570
f 585 586 584
f 587 582 586
f 587 586 585
f 582 587 588
f 589 588 587
f 587 568 589
f 568 587 585
f 589 590 591
f 589 528 590
f 591 592 589
f 528 589 568
f 592 593 589
f 589 593 588
f 594 588 593
f 594 593 592
f 595 594 33
f 33 594 596
f 595 588 594
f 594 592 596
f 33 596 591
f 591 596 592
f 34 595 33
f 595 597 588
f 595 34 36
f 597 595 36
f 597 37 583
f 582 597 583
f 597 582 588
f 597 36 37
f 31 33 591
f 31 591 598
f 598 591 590
f 24 31 598
f 598 599 24
f 600 599 598
f 600 598 590
f 22 599 600
f 590 601 600
f 600 601 602
f 22 600 16
f 16 600 602
f 601 603 602
f 16 602 605
f 604 605 602
f 605 604 606
f 607 605 606
f 16 605 19
f 608 19 605
f 607 608 605
f 608 610 18
f 608 18 19
f 611 609 608
f 608 609 610
f 608 607 611
f 607 612 611
f 611 612 613
f 609 611 613
f 614 615 613
f 617 614 613
f 616 613 615
f 613 616 610
f 613 610 609
f 612 617 613
f 618 617 619
f 617 618 620
f 621 619 617
f 620 614 617
f 612 621 617
f 621 607 622
f 619 621 622
f 621 612 607
f 622 623 619
f 606 622 607
f 606 623 622
f 619 623 618
f 606 618 623
f 624 625 620
f 624 620 618
f 614 620 625
f 624 626 625
f 627 625 626
f 628 614 625
f 627 628 625
f 614 628 629
f 628 627 629
f 614 629 615
f 626 629 627
f 615 629 631
f 629 630 631
f 626 630 629
f 634 631 624
f 624 631 630
f 632 615 631
f 631 633 632
f 634 633 631
f 635 634 637
f 634 635 636
f 634 636 638
f 637 634 624
f 634 638 633
f 633 638 639
f 638 636 640
f 638 640 639
f 641 640 636
f 640 641 642
f 639 640 643
f 640 642 644
f 640 644 643
f 644 642 645
f 645 643 644
f 648 645 646
f 642 646 645
f 645 648 647
f 643 645 647
f 649 650 648
f 648 646 649
f 650 651 648
f 648 651 647
f 652 651 650
f 651 652 497
f 651 497 647
f 652 653 497
f 653 652 654
f 650 654 652
f 654 655 653
f 655 654 641
f 654 646 642
f 654 642 641
f 654 650 649
f 654 649 646
f 655 656 653
f 656 655 659
f 657 655 641
f 657 658 655
f 658 659 655
f 659 660 656
f 659 661 660
f 659 658 661
f 661 662 624
f 660 661 624
f 658 662 661
f 662 637 624
f 658 663 662
f 663 637 662
f 663 657 637
f 657 663 658
f 656 660 624
f 637 657 664
f 664 657 641
f 664 635 637
f 635 664 641
f 624 497 656
f 497 653 656
f 497 668 647
f 647 669 643
f 667 665 647
f 647 665 669
f 647 666 667
f 666 647 668
f 639 643 669
f 639 669 665
f 670 668 497
f 668 670 478
f 478 476 668
f 476 666 668
f 497 492 670
f 478 670 492
f 667 666 672
f 672 671 667
f 665 667 671
f 477 672 476
f 666 476 672
f 671 672 477
f 671 479 411
f 477 479 671
f 673 675 671
f 411 673 671
f 671 675 674
f 665 671 674
f 676 674 675
f 415 676 675
f 675 673 415
f 676 383 380
f 380 674 676
f 678 677 676
f 676 677 383
f 678 676 415
f 406 401 678
f 401 679 678
f 679 383 678
f 406 678 415
f 678 383 677
f 383 679 385
f 385 679 401
f 674 380 665
f 415 673 411
f 380 639 665
f 641 636 635
f 17 639 14
f 639 17 633
f 639 380 14
f 616 632 633
f 17 616 633
f 615 632 616
f 624 630 626
f 606 624 618
f 680 686 624
f 624 688 680
f 624 686 681
f 624 681 684
f 624 687 682
f 624 682 683
f 624 683 688
f 624 684 685
f 497 624 685
f 624 606 687
f 689 680 688
f 690 688 683
f 690 689 688
f 691 690 683
f 689 690 691
f 692 691 682
f 691 683 682
f 689 691 693
f 691 692 693
f 694 689 693
f 694 693 695
f 687 693 692
f 695 693 687
f 603 695 606
f 695 603 601
f 590 694 695
f 590 695 601
f 687 696 695
f 695 696 606
f 606 696 687
f 590 697 694
f 680 689 694
f 698 694 697
f 694 698 680
f 698 699 686
f 680 698 686
f 698 519 699
f 698 521 519
f 521 698 697
f 686 699 512
f 512 699 519
f 697 525 521
f 525 697 590
f 692 682 687
f 509 681 686
f 512 509 686
f 510 685 684
f 507 685 510
f 497 685 507
f 684 509 700
f 700 510 684
f 684 681 509
f 510 700 509
f 610 616 17
f 17 18 610
f 604 603 606
f 599 26 24
f 26 599 22
f 525 590 528
f 585 567 568
f 585 571 567
f 575 579 47
f 579 41 42
f 579 42 47
f 703 573 576
f 702 576 701
f 575 701 576
f 702 703 576
f 703 566 573
f 704 703 707
f 704 705 703
f 705 566 703
f 706 703 702
f 706 707 703
f 708 710 707
f 707 711 708
f 707 709 704
f 707 710 709
f 711 707 706
f 711 717 708
f 712 711 706
f 713 711 712
f 713 716 711
f 711 714 717
f 715 714 711
f 711 716 715
f 717 719 718
f 708 717 718
f 714 719 717
f 719 720 718
f 720 719 721
f 719 714 721
f 721 722 723
f 722 721 714
f 721 726 720
f 721 723 724
f 721 724 725
f 725 726 721
f 726 725 727
f 727 720 726
f 539 718 727
f 539 727 729
f 727 718 720
f 725 728 727
f 728 729 727
f 731 730 729
f 539 729 730
f 728 731 729
f 731 732 730
f 731 728 725
f 724 732 731
f 724 731 725
f 732 733 730
f 734 733 732
f 732 724 734
f 539 733 734
f 736 539 734
f 735 734 724
f 734 735 736
f 747 539 736
f 737 743 736
f 737 736 749
f 736 742 738
f 736 738 745
f 736 746 739
f 736 739 741
f 736 741 740
f 736 740 747
f 736 748 742
f 736 743 748
f 736 735 744
f 736 744 749
f 736 745 746
f 750 749 744
f 750 752 749
f 737 749 751
f 752 751 749
f 751 752 722
f 722 752 723
f 752 750 723
f 753 715 751
f 737 751 715
f 751 722 753
f 714 753 722
f 715 753 714
f 744 723 750
f 742 748 754
f 754 748 743
f 742 754 755
f 756 754 743
f 474 755 754
f 474 754 756
f 743 757 756
f 758 756 757
f 474 756 758
f 759 760 758
f 758 757 759
f 758 761 474
f 760 761 758
f 474 761 762
f 760 762 761
f 474 762 764
f 760 763 762
f 762 763 764
f 765 764 763
f 765 766 764
f 767 764 766
f 764 767 768
f 764 768 769
f 764 769 770
f 764 770 474
f 773 772 770
f 474 770 772
f 773 775 774
f 776 773 774
f 775 773 771
f 773 776 772
f 466 778 776
f 776 780 466
f 776 774 780
f 777 772 776
f 776 779 777
f 778 779 776
f 780 774 781
f 780 781 782
f 435 466 780
f 782 435 780
f 435 782 781
f 300 435 781
f 783 781 774
f 781 783 300
f 783 774 775
f 300 783 784
f 784 785 787
f 300 784 786
f 787 786 784
f 289 787 788
f 789 787 289
f 787 785 788
f 790 789 289
f 791 786 789
f 791 789 790
f 790 792 791
f 786 791 792
f 790 793 792
f 301 792 793
f 792 301 300
f 300 786 792
f 793 790 289
f 293 793 289
f 293 301 793
f 788 795 289
f 788 768 794
f 794 795 788
f 768 788 771
f 785 771 788
f 795 797 289
f 794 796 795
f 796 797 795
f 797 798 289
f 796 799 797
f 799 798 797
f 800 798 799
f 799 767 800
f 767 799 796
f 800 765 289
f 800 766 765
f 798 800 289
f 766 800 767
f 796 794 768
f 767 796 768
f 785 775 771
f 777 779 778
f 778 472 777
f 472 778 467
f 466 467 778
f 474 772 777
f 474 777 472
f 769 768 771
f 765 803 801
f 765 801 802
f 765 802 806
f 804 765 763
f 765 805 803
f 765 804 805
f 806 289 765
f 807 806 802
f 808 806 807
f 806 808 289
f 289 808 290
f 809 290 808
f 808 807 809
f 809 813 810
f 811 809 810
f 814 809 807
f 809 811 296
f 809 812 813
f 814 812 809
f 296 290 809
f 814 807 816
f 818 815 814
f 812 814 815
f 816 817 814
f 814 817 818
f 805 818 817
f 815 818 805
f 817 803 805
f 817 816 803
f 807 819 816
f 816 819 803
f 807 820 819
f 819 801 803
f 819 820 801
f 820 807 802
f 820 802 801
f 823 821 815
f 815 821 822
f 812 815 822
f 815 805 823
f 804 823 805
f 804 826 823
f 823 824 821
f 825 824 823
f 826 825 823
f 824 825 826
f 827 826 804
f 827 828 826
f 830 826 828
f 830 829 826
f 829 824 826
f 830 832 831
f 831 829 830
f 832 830 706
f 828 712 830
f 830 712 706
f 831 832 833
f 706 833 832
f 833 835 831
f 834 833 702
f 833 834 835
f 833 706 702
f 837 835 836
f 835 838 836
f 838 835 834
f 837 831 835
f 834 839 838
f 838 839 46
f 836 838 46
f 834 840 839
f 840 841 839
f 839 841 842
f 842 46 839
f 842 841 843
f 843 575 842
f 842 844 46
f 844 842 575
f 575 47 844
f 46 844 47
f 843 841 840
f 702 701 843
f 575 843 701
f 843 840 702
f 702 840 834
f 837 846 831
f 845 69 837
f 837 836 845
f 837 69 848
f 846 837 847
f 837 848 847
f 849 848 72
f 69 72 848
f 849 847 848
f 853 849 72
f 849 852 847
f 850 851 849
f 849 853 850
f 849 851 852
f 75 854 853
f 853 72 75
f 856 853 854
f 853 855 850
f 856 855 853
f 857 856 854
f 855 856 858
f 856 857 858
f 859 861 858
f 858 863 859
f 860 863 858
f 860 858 857
f 858 861 862
f 855 858 862
f 75 863 860
f 75 96 863
f 96 859 863
f 861 864 862
f 865 862 864
f 850 855 862
f 851 850 862
f 862 852 851
f 862 865 852
f 852 865 846
f 864 866 865
f 865 866 867
f 846 865 867
f 868 867 866
f 870 867 868
f 870 869 867
f 867 869 261
f 261 846 867
f 870 873 869
f 872 870 871
f 871 870 96
f 870 868 96
f 870 872 873
f 874 875 873
f 874 873 872
f 869 873 875
f 875 874 876
f 869 875 261
f 875 876 878
f 261 875 877
f 875 878 877
f 878 876 879
f 879 877 878
f 877 879 237
f 879 238 237
f 238 879 880
f 876 880 879
f 238 880 882
f 881 880 876
f 881 882 880
f 229 238 882
f 882 881 229
f 881 883 232
f 232 229 881
f 883 881 874
f 881 876 874
f 883 230 232
f 230 883 885
f 884 883 874
f 884 886 883
f 886 885 883
f 884 887 886
f 886 887 889
f 885 886 888
f 886 889 888
f 889 871 96
f 888 889 96
f 887 871 889
f 890 888 96
f 885 888 890
f 230 890 96
f 885 890 230
f 887 884 871
f 872 871 884
f 884 891 872
f 891 884 874
f 872 891 874
f 237 262 877
f 261 877 262
f 96 868 892
f 893 892 868
f 864 893 868
f 866 864 868
f 861 895 893
f 861 893 864
f 894 892 893
f 894 893 895
f 861 896 895
f 897 894 895
f 895 896 897
f 896 859 897
f 96 897 859
f 96 894 897
f 896 861 859
f 96 892 894
f 75 860 854
f 857 854 860
f 846 847 852
f 846 261 831
f 50 845 836
f 60 845 50
f 845 60 69
f 46 50 836
f 261 263 831
f 831 263 829
f 898 829 263
f 829 898 824
f 822 898 263
f 898 822 824
f 713 712 828
f 828 760 713
f 828 827 760
f 804 899 827
f 760 827 899
f 760 899 763
f 763 899 804
f 822 821 824
f 900 822 263
f 900 901 822
f 822 901 813
f 822 813 812
f 900 903 901
f 813 901 902
f 901 903 902
f 903 900 271
f 902 903 271
f 269 904 902
f 269 902 271
f 810 902 904
f 902 810 813
f 905 904 269
f 904 905 810
f 269 907 905
f 907 906 905
f 810 905 906
f 907 269 270
f 909 907 908
f 908 907 270
f 909 906 907
f 906 909 811
f 910 909 908
f 909 910 811
f 910 908 911
f 911 811 910
f 911 291 811
f 291 911 270
f 911 908 270
f 906 811 810
f 271 900 912
f 266 912 900
f 266 900 263
f 271 912 266
f 811 291 296
f 760 759 713
f 737 713 759
f 759 757 737
f 743 737 757
f 755 482 913
f 913 742 755
f 482 755 474
f 913 915 914
f 742 913 914
f 482 916 913
f 915 913 916
f 485 915 916
f 485 916 487
f 916 482 481
f 481 487 916
f 918 917 915
f 917 914 915
f 915 485 918
f 917 918 513
f 513 918 919
f 485 919 918
f 513 919 515
f 515 919 485
f 917 513 922
f 917 920 914
f 923 920 917
f 921 923 917
f 922 921 917
f 923 924 925
f 924 923 739
f 923 925 920
f 741 923 921
f 923 741 739
f 925 926 920
f 926 925 745
f 924 927 925
f 925 927 745
f 927 746 745
f 927 924 739
f 927 739 746
f 926 738 928
f 928 920 926
f 926 745 738
f 920 928 914
f 742 914 928
f 742 928 738
f 513 929 922
f 929 930 922
f 740 922 930
f 740 921 922
f 929 931 930
f 930 931 932
f 930 747 740
f 930 932 747
f 932 933 539
f 747 932 539
f 933 932 931
f 538 933 929
f 933 538 539
f 931 929 933
f 513 934 929
f 538 929 934
f 934 935 538
f 937 935 934
f 513 936 934
f 937 934 936
f 936 938 937
f 530 937 938
f 937 530 532
f 935 937 532
f 523 530 938
f 523 938 522
f 522 938 939
f 936 939 938
f 939 936 513
f 513 514 939
f 522 939 940
f 514 940 939
f 940 514 522
f 538 935 532
f 921 740 741
f 723 744 735
f 716 713 737
f 715 716 737
f 724 723 735
f 539 730 733
f 539 941 718
f 941 708 718
f 945 941 539
f 941 943 942
f 941 942 944
f 941 945 943
f 944 708 941
f 946 945 539
f 945 946 947
f 947 943 945
f 948 947 946
f 947 948 949
f 943 947 949
f 952 949 948
f 950 949 952
f 951 949 950
f 951 942 949
f 942 943 949
f 952 954 539
f 953 952 539
f 948 954 952
f 952 953 950
f 954 946 539
f 948 946 954
f 956 953 547
f 953 539 547
f 955 950 953
f 953 956 955
f 957 956 547
f 955 956 957
f 958 957 547
f 959 957 958
f 959 955 957
f 960 959 958
f 950 955 959
f 950 959 960
f 961 960 958
f 951 950 960
f 960 961 951
f 962 963 961
f 961 958 962
f 951 961 963
f 709 963 962
f 963 709 951
f 964 705 962
f 705 704 962
f 704 709 962
f 964 962 958
f 964 562 566
f 566 705 964
f 562 964 563
f 547 563 964
f 547 964 958
f 709 710 951
f 710 942 951
f 708 944 710
f 710 944 942
f 534 544 543
f 534 543 535
f 543 541 535
f 507 504 497
f 504 505 497
f 502 499 505
f 505 499 497
f 502 500 499
f 475 492 483
f 475 478 492
f 412 411 479
f 470 966 965
f 470 965 412
f 966 470 423
f 966 968 967
f 966 967 965
f 423 420 966
f 968 966 419
f 966 420 419
f 967 968 426
f 968 419 426
f 413 965 967
f 967 426 413
f 414 412 965
f 965 413 414
f 436 309 311
f 421 397 395
f 969 408 416
f 396 969 416
f 408 407 416
f 408 969 396
f 396 410 398
f 402 408 396
f 406 403 401
f 385 401 399
f 399 389 385
f 388 393 392
f 372 375 387
f 375 376 384
f 378 336 153
f 373 336 378
f 970 378 153
f 378 970 14
f 14 970 13
f 153 13 970
f 377 376 375
f 333 325 324
f 333 324 326
f 331 329 173
f 327 971 329
f 173 329 971
f 972 971 327
f 173 971 972
f 972 975 973
f 972 973 976
f 974 972 321
f 972 974 975
f 972 327 321
f 173 972 976
f 978 976 973
f 978 977 976
f 173 976 977
f 973 979 978
f 980 978 979
f 978 980 977
f 981 982 980
f 981 980 979
f 980 982 977
f 982 983 977
f 982 985 983
f 981 984 982
f 982 984 985
f 173 983 985
f 981 986 985
f 173 985 986
f 984 981 985
f 988 987 986
f 173 986 987
f 986 981 988
f 987 988 200
f 200 988 202
f 988 981 202
f 200 188 987
f 173 987 188
f 173 977 983
f 981 979 202
f 979 973 975
f 202 979 975
f 202 975 989
f 974 989 975
f 989 974 991
f 989 990 204
f 990 989 991
f 204 202 989
f 990 991 992
f 322 991 974
f 992 991 993
f 991 322 993
f 250 992 993
f 251 993 322
f 993 251 250
f 992 250 990
f 250 994 990
f 994 995 990
f 990 995 207
f 990 203 204
f 207 203 990
f 207 995 994
f 997 994 248
f 250 248 994
f 997 996 994
f 994 996 207
f 996 997 206
f 206 997 223
f 248 223 997
f 207 996 206
f 321 322 974
f 253 251 322
f 284 304 295
f 282 292 281
f 282 285 292
f 282 286 285
f 270 278 281
f 263 267 266
f 246 236 244
f 236 246 227
f 244 236 235
f 234 242 240
f 234 228 242
f 222 242 228
f 223 242 222
f 228 221 222
f 96 100 217
f 200 198 188
f 198 199 189
f 183 189 199
f 198 189 188
f 177 194 117
f 999 191 190
f 176 191 998
f 999 998 191
f 1000 999 190
f 999 1000 1001
f 1002 999 1001
f 1002 998 999
f 176 1002 119
f 119 1002 117
f 998 1002 176
f 1002 1001 117
f 177 1001 1000
f 117 1001 177
f 1000 180 177
f 1000 190 180
f 174 1003 184
f 176 1004 159
f 119 1004 176
f 159 1004 119
f 171 164 165
f 164 171 159
f 162 160 168
f 161 164 159
f 159 1005 156
f 1005 159 1006
f 159 119 1006
f 1007 1006 115
f 115 1006 119
f 1007 156 1005
f 156 1007 146
f 1007 115 116
f 1007 116 146
f 13 153 151
f 151 1008 11
f 1010 1008 151
f 11 13 151
f 151 1009 1010
f 151 148 1009
f 1010 1012 7
f 7 1011 1010
f 1010 1011 1008
f 1012 1010 1009
f 5 7 1012
f 1012 9 5
f 1012 1013 9
f 142 1012 148
f 1014 1012 142
f 1012 1009 148
f 1014 1013 1012
f 1013 1014 133
f 1014 1015 133
f 1014 143 1015
f 143 1014 142
f 137 132 1015
f 143 137 1015
f 1013 133 40
f 1013 40 38
f 1013 38 1016
f 1016 9 1013
f 9 1016 3
f 3 1016 38
f 1008 1011 6
f 6 1011 7
f 11 1008 6
f 146 116 144
f 144 140 139
f 116 140 144
f 118 140 116
f 55 129 126
f 129 55 44
f 55 126 58
f 58 126 65
f 106 108 112
f 96 77 97
f 92 97 77
f 96 75 77
f 66 90 74
f 72 71 75
f 66 74 68
f 69 60 61
f 25 4 28
f 4 25 2
