v 0.0078848 -0.0098479 -0.018215
v 0.0015412 -0.0091245 -0.020598
v 0.0015554 -0.011327 -0.019771
v -0.0010959 -0.015652 -0.018181
v -0.0030346 -0.015721 -0.018053
v -0.0011142 -0.012355 -0.019421
v -0.0010597 0.015618 -0.018232
v -9.6173e-05 0.010793 -0.020049
v 0.0013206 0.011746 -0.019637
v 0.0024758 0.010089 -0.020188
v 0.013885 0.00019148 -0.014675
v 0.008925 -0.01521 -0.013459
v 0.0101 -0.015257 -0.011832
v 0.01219 -0.010418 -0.013228
v 0.011992 -0.012469 -0.011634
v 0.012232 -0.0099082 -0.013586
v 0.013395 -0.0082897 -0.013099
v 0.010645 -0.0082707 -0.016629
v 0.0094367 -0.0098236 -0.016987
v 0.011238 -0.0098241 -0.014984
v 0.010466 -0.0077517 -0.017073
v 0.010468 -0.0054258 -0.017945
v 0.011921 -0.0049275 -0.016501
v 0.011737 -0.0020255 -0.017311
v 0.013221 -0.0019488 -0.015439
v 0.01386 -0.0001907 -0.014674
v 0.013867 -7e-05 -0.014632
v 0.012803 0.0030272 -0.015868
v 0.010494 0.0077992 -0.017055
v 0.010274 0.0052085 -0.018195
v 0.010865 0.0070351 -0.017023
v 0.01089 0.0039389 -0.017881
v 0.01095 0.00835 -0.016286
v 0.010537 0.0082254 -0.016795
v 0.012222 0.009958 -0.013609
v 0.013379 0.008345 -0.013071
v 0.011988 0.012525 -0.011631
v 0.011822 0.01099 -0.013274
v 0.0088172 0.015398 -0.013421
v 0.012163 0.010517 -0.013216
v 0.012856 0.010173 -0.012516
v 0.008146 0.010124 -0.017898
v 0.0091551 0.0099333 -0.017192
v 0.0084553 0.0082785 -0.018605
v 0.0098613 0.0098777 -0.016572
v 0.0086826 0.010533 -0.017274
v 0.0069495 0.010033 -0.018723
v 0.0070206 0.010421 -0.018462
v 0.005791 0.012243 -0.018101
v 0.0067338 0.0083617 -0.01959
v 0.0066208 0.0098955 -0.018997
v 0.0042948 0.0083368 -0.020449
v 0.001886 0.0077348 -0.021013
v 0.0029157 0.0099375 -0.020185
v -0.0031037 0.015701 -0.018104
v 0.0041063 0.0081414 -0.020552
v 0.0040347 0.0079237 -0.020633
v 0.00095977 0.0091741 -0.020625
v 0.0041741 0.0074828 -0.020776
v 0.0033282 0.0053815 -0.021378
v 0.0044067 0.0035499 -0.021461
v 0.0075992 -0.0015285 -0.020628
v 0.0062445 0.00024095 -0.021197
v 0.005306 0.001962 -0.021389
v 0.0062505 -0.0001522 -0.021174
v 0.0049256 -0.0025816 -0.021434
v 0.006563 -0.003432 -0.020831
v 0.0055612 -0.0014382 -0.021352
v 0.0043477 -0.0035883 -0.021447
v 0.0032409 -0.0054556 -0.021344
v 0.004393 -0.006193 -0.020986
v 0.0038831 -0.0043829 -0.021424
v 0.0022328 -0.0070909 -0.021107
v 0.0040094 -0.0078306 -0.020651
v 0.0026415 -0.0064319 -0.021217
v 0.0017771 -0.0078168 -0.020957
v 0.0013099 -0.0085536 -0.020778
v 0.000431 -0.0099276 -0.020365
v 0.0042735 -0.0082701 -0.020456
v 0.0025703 -0.0099416 -0.020195
v 0.004458 -0.0098677 -0.019825
v 0.005937 -0.0083228 -0.019941
v 0.0068795 -0.0098698 -0.018812
v 0.0084132 -0.0082519 -0.018628
v 0.0067368 -0.010806 -0.018364
v 0.0072447 -0.012498 -0.017024
v 0.0070208 -0.010319 -0.018495
v 0.0053697 -0.015289 -0.016601
v 0.0037179 -0.015295 -0.01748
v 0.0098798 -0.0081735 -0.017434
v 0.0090618 -0.0099494 -0.017269
v 0.012856 -0.010125 -0.012514
v 0.0053934 -0.005466 -0.020918
v 0.0077309 0.0013365 -0.020548
v 0.0077139 -0.0013085 -0.020527
v 0.0082942 -6.9628e-05 -0.020261
v 0.006179 0.00416 -0.020874
v 0.008226 0.000318 -0.020297
v 0.008282 0.008336 -0.018699
v 0.011852 0.001806 -0.017193
v 0.0087411 0.007948 -0.01856
v 0.012486 3.4618e-05 -0.0165
v 0.010187 -0.0052971 -0.018223
v 0.008592 -0.008099 -0.018557
v 0.0089023 -0.0076112 -0.018528
v -0.024896 -0.0027829 -0.00073759
v -0.025021 -0.0003103 0.00062356
v -0.022364 -0.00012647 0.0081547
v -0.0229 -0.0024753 0.0069377
v -0.022862 0.0082069 0.004232
v -0.022958 0.00822 0.003963
v -0.01917 0.015242 0.0042363
v -0.018852 0.012503 0.0077632
v -0.022958 0.009949 0.0012823
v -0.02289 0.010323 0.000322
v -0.021968 0.010855 -0.004894
v -0.022391 0.0092634 -0.0054756
v -0.019137 0.015585 -0.0068901
v -0.018105 0.015767 -0.0085978
v -0.019142 -0.015565 -0.0068463
v -0.021135 -0.010846 -0.0068118
v -0.020001 -0.010138 0.008156
v -0.02047 -0.010209 0.0072598
v -0.018199 -0.015244 0.005975
v -0.019173 -0.015186 0.0042267
v -0.018841 -0.012468 0.0077591
v -0.020327 -0.010529 0.0071946
v -0.022763 -0.0082743 0.0044047
v -0.02087 -0.0098191 0.0069451
v -0.020733 -0.008293 0.008388
v -0.022598 -0.0098116 0.0031144
v -0.022463 -0.0098211 0.0034191
v -0.022044 -0.01157 0.0016991
v -0.022636 -0.009993 0.0026783
v -0.023047 -0.0099736 0.00017456
v -0.022902 -0.010242 0.0003254
v -0.022726 -0.010606 0.00026773
v -0.02047 -0.015279 -0.00033128
v -0.020475 -0.015326 -0.0022606
v -0.023723 -0.0083052 -0.00019203
v -0.023111 -0.0098448 -8.9901e-05
v -0.022904 -0.0098692 -0.002929
v -0.023454 -0.0082842 -0.0029671
v -0.023118 -0.009847 -0.000683
v -0.021949 -0.010869 -0.0049471
v -0.022425 -0.01002 -0.0044924
v -0.022757 -0.008221 -0.005343
v -0.022541 -0.0099004 -0.0042743
v -0.018114 -0.015712 -0.0085848
v -0.022298 -0.0088635 -0.0059544
v -0.022004 -0.0093993 -0.0061948
v -0.022761 -0.007961 -0.0055384
v -0.023514 -0.0078286 -0.0033229
v -0.02325 -0.0068763 -0.005017
v -0.02419 -0.0059993 -0.0024649
v -0.024201 -0.0042271 -0.0036857
v -0.023962 -0.0049968 -0.0040806
v -0.023659 -0.0058586 -0.0045148
v -0.024393 -0.0035323 -0.0033284
v -0.024946 0.0023479 -0.00047172
v -0.024974 9.5538e-05 -0.0014865
v -0.024897 0.000807 -0.001846
v -0.024619 0.0026151 -0.0028183
v -0.024778 0.003487 -0.001088
v -0.024817 0.0014799 -0.0022124
v -0.024356 0.0037245 -0.003399
v -0.023793 0.0055454 -0.0043302
v -0.023983 0.006249 -0.003106
v -0.024136 0.0045036 -0.0038006
v -0.023154 0.0071512 -0.0051248
v -0.023513 0.0078875 -0.0033159
v -0.02343 0.0064939 -0.0048026
v -0.022819 0.0078835 -0.0054754
v -0.022441 0.0086461 -0.0058312
v -0.02047 0.011956 -0.0072294
v -0.02174 0.0099271 -0.0064043
v -0.022494 0.009987 -0.0043993
v -0.023453 0.008283 -0.003045
v -0.023471 0.0083633 -0.0028402
v -0.023715 0.00835 -0.000709
v -0.023071 0.0099166 -0.0017405
v -0.023082 0.0099483 9.1509e-05
v -0.023591 0.0083034 0.0015347
v -0.020432 0.015337 -0.00034865
v -0.022758 0.010566 0.00030967
v -0.020455 0.015398 -0.0022117
v -0.022638 0.0099947 0.0027427
v -0.022584 0.010221 0.0025512
v -0.022594 0.0098886 0.0030163
v -0.020734 0.008345 0.008389
v -0.019995 0.010203 0.0081528
v -0.020734 0.0099468 0.0070903
v -0.022641 0.0083579 0.0047442
v -0.021523 0.0098863 0.0056469
v -0.020334 0.010532 0.0072218
v -0.020436 0.010328 0.007249
v -0.023089 0.007735 0.0040701
v -0.023855 0.005494 0.003685
v -0.023189 0.0049843 0.0056007
v -0.023839 0.0020808 0.0050865
v -0.022773 0.0018722 0.0072989
v -0.022373 0.00017931 0.0081533
v -0.023128 -0.0075907 0.0041047
v -0.022928 -0.008044 0.00416
v -0.02316 -0.0045759 0.0057917
v -0.024955 -0.00063519 -0.0017665
v -0.023595 -0.008284 0.001385
v -0.023613 -0.0081688 0.0016768
v -0.02401 -0.0050792 0.0034397
v -0.023963 -0.0033393 0.004377
v -0.023476 -0.00019646 0.0060538
v -0.023446 0.00012921 0.006081
v -0.023991 0.00534 0.0033092
v -0.023608 0.0081301 0.0017441
v -0.023879 0.006598 0.002612
v -0.024349 0.0055326 -0.0021876
v -0.025014 0.000318 0.000645
v -0.025011 7.557e-05 0.00073799
v -0.010815 -0.01001 -0.017117
v -0.018923 0.003786 -0.012213
v -0.018119 0.010897 -0.011149
v -0.017375 0.011996 -0.011433
v -0.016059 0.011738 -0.012833
v -0.013242 0.016207 -0.013628
v -0.013876 0.010069 -0.015193
v -0.0096578 0.016274 -0.015822
v -0.0084217 0.013179 -0.017347
v -0.0075371 0.010128 -0.018634
v -0.0073026 0.010478 -0.018636
v -0.007376 0.010315 -0.018643
v -0.010527 0.008462 -0.017666
v -0.0080364 0.010056 -0.018476
v -0.011291 0.01007 -0.016841
v -0.016733 0.010692 -0.012624
v -0.016777 0.010337 -0.012719
v -0.016376 0.008579 -0.01364
v -0.016587 0.010066 -0.012996
v -0.014733 0.016189 -0.012362
v -0.016913 0.0076704 -0.013471
v -0.016833 0.008302 -0.013314
v -0.01724 0.0084755 -0.012902
v -0.019686 0.0084507 -0.010382
v -0.018874 0.0002722 -0.012558
v -0.018859 -0.00019289 -0.012526
v -0.020409 0.00041893 -0.010894
v -0.020487 -0.00012797 -0.010804
v -0.016376 -0.008525 -0.01364
v -0.01811 -0.008514 -0.012015
v -0.016998 -0.0083965 -0.013144
v -0.016782 -0.0079348 -0.013442
v -0.018711 -0.0041734 -0.01237
v -0.016918 -0.0043637 -0.01401
v -0.017131 -0.007187 -0.013338
v -0.017644 -0.01155 -0.011345
v -0.019662 -0.0083957 -0.010356
v -0.016661 -0.010057 -0.012909
v -0.016801 -0.010409 -0.012665
v -0.014742 -0.016148 -0.01235
v -0.016686 -0.010721 -0.012633
v -0.014778 -0.013684 -0.013229
v -0.014014 -0.010003 -0.015091
v -0.016326 -0.0099919 -0.013265
v -0.0072954 -0.010645 -0.018563
v -0.0054563 -0.011027 -0.019088
v -0.009702 -0.016155 -0.015853
v -0.007749 -0.011638 -0.01807
v -0.0060699 -0.012206 -0.018507
v -0.007437 -0.010126 -0.018659
v -0.008357 -0.008525 -0.018684
v -0.007823 -0.009999 -0.018539
v -0.0079182 -0.016139 -0.016648
v -0.0039995 -0.0083997 -0.020236
v -0.007436 -0.006569 -0.019448
v -0.0080217 -0.0079102 -0.018974
v -0.0076388 -0.0083957 -0.019015
v -0.0059732 -0.0084083 -0.01963
v -0.0060535 -0.0038855 -0.020328
v -0.0062168 4.256e-05 -0.020454
v -0.0039934 1.5477e-05 -0.021151
v -0.0051143 0.0021883 -0.020771
v -0.0066298 0.000878 -0.0203
v -0.0077687 0.008388 -0.018977
v -0.008357 0.008578 -0.018684
v -0.0080167 0.0078084 -0.019018
v -0.0084496 0.0044048 -0.019335
v -0.0062377 0.004292 -0.020218
v -0.0039831 0.0084507 -0.020231
v -0.006059 0.0084616 -0.019601
v -0.0055671 0.011305 -0.018971
v -0.0072962 0.010732 -0.018549
v -0.006526 0.013193 -0.01806
v -0.010367 -0.0083463 -0.017764
v -0.0084282 -0.0042994 -0.019364
v -0.01452 -0.0084091 -0.015153
v -0.011701 -0.0084565 -0.017033
v -0.014763 -0.0082615 -0.015026
v -0.014707 0.0083741 -0.015037
v -0.016686 0.0048596 -0.01414
v -0.012104 0.0084884 -0.016771
v -0.014277 0.0084836 -0.015354
v -0.010303 0.0083127 -0.01783
v -0.020429 0.0086647 -0.010974
v -0.018923 0.011038 -0.011738
v -0.017168 0.013486 -0.012315
v -0.015547 0.015389 -0.012418
v -0.019762 0.0086647 -0.01173
v -0.017623 0.007702 -0.014143
v -0.017483 0.007989 -0.014178
v -0.017462 0.0082878 -0.014141
v -0.017587 0.0085875 -0.013929
v -0.017783 0.0086678 -0.013728
v -0.020447 0.0021708 -0.012265
v -0.02124 -2.12e-05 -0.011427
v -0.020364 -0.002234 -0.012313
v -0.01939 -0.0043238 -0.013093
v -0.01756 -0.007753 -0.014155
v -0.017748 -0.0086091 -0.01379
v -0.01743 -0.0082786 -0.01414
v -0.020398 -0.008615 -0.010969
v -0.019086 -0.010751 -0.011669
v -0.017203 -0.013392 -0.012326
v -0.024469 -0.0064408 -0.005045
v -0.025432 -0.0034979 -0.0035139
v -0.025517 -0.003093 -0.003281
v -0.025973 -0.00019515 -0.0016602
v -0.019698 -0.01413 -0.0082991
v -0.025976 0.00015475 -0.0016291
v -0.025717 0.0023177 -0.0028148
v -0.025538 0.002961 -0.003175
v -0.02509 0.004694 -0.004112
v -0.024495 0.0063897 -0.0049851
v -0.023262 0.0091004 -0.0063019
v -0.021871 0.011371 -0.007294
v -0.02009 0.01376 -0.0081968
v 0.0066202 1.7458e-05 -0.022134
v 0.005768 -0.0016207 -0.022352
v 0.0045067 -0.0037576 -0.022486
v 0.0013787 -0.0087903 -0.021766
v -0.001013 -0.012416 -0.020366
v -0.0015758 -0.013256 -0.019911
v -0.0021686 -0.014155 -0.01935
v -0.0068239 -0.013445 -0.018816
v -0.004213 -0.0086158 -0.021176
v -0.0055428 -0.010983 -0.020155
v -0.0076171 -0.015339 -0.017401
v -0.0063751 -0.0086161 -0.020529
v -0.008365 -0.007935 -0.019914
v -0.0080443 -0.0085785 -0.019911
v -0.0083215 -0.0082688 -0.01988
v -0.0082824 -0.0076713 -0.020016
v -0.0066936 -0.0045666 -0.021134
v -0.0044192 -0.00042455 -0.022089
v -0.0042732 0.00012842 -0.022105
v -0.0059877 0.0033005 -0.021466
v -0.00831 0.007807 -0.019973
v -0.007899 0.0086619 -0.019985
v -0.0082074 0.0085055 -0.019905
v -0.0083764 0.0081134 -0.019884
v -0.0054297 0.010837 -0.020258
v -0.011332 -0.0086229 -0.018362
v -0.015182 -0.0085851 -0.015889
v -0.015474 -0.0082783 -0.015762
v -0.019496 -0.00036907 -0.013313
v -0.019574 -0.00011242 -0.013213
v -0.01957 0.00018655 -0.013218
v -0.017686 0.0043351 -0.014733
v -0.015525 0.0082405 -0.015741
v -0.014886 0.0086728 -0.016123
v -0.015235 0.0086 -0.015857
v -0.010903 0.0086383 -0.018581
v -0.010662 0.0083308 -0.018789
v -0.0065891 0.00016799 -0.021381
v -0.0066218 -0.00018516 -0.021401
v -0.0092448 -0.0052295 -0.019998
v -0.010645 -0.0082401 -0.018804
v -0.010859 -0.0085469 -0.01861
v 0.004345 -0.007753 -0.021686
v 0.0050769 -0.0066081 -0.021813
v 0.005613 -0.005744 -0.021854
v 0.0071759 -0.0031255 -0.02174
v 0.0087617 -0.0001927 -0.021156
v 0.0075252 0.0025673 -0.021658
v 0.0045877 0.0073958 -0.021747
v 0.0046248 0.0086524 -0.021371
v 0.0043363 0.0084681 -0.021495
v 0.004241 0.0080964 -0.021626
v 0.0071695 0.0086756 -0.020453
v 0.009105 0.008519 -0.019335
v 0.0088971 0.00865 -0.019428
v 0.011818 0.0036528 -0.018487
v 0.013224 0.00024913 -0.017172
v 0.013245 -0.00014437 -0.017162
v 0.01186 -0.0034817 -0.018432
v 0.010638 -0.0058879 -0.019026
v 0.008764 -0.008615 -0.019512
v 0.0090898 -0.0085041 -0.019334
v 0.00684 -0.008615 -0.020596
v 0.0042386 -0.008038 -0.021628
v 0.0046625 -0.0086136 -0.02139
v -0.02443 -0.0086001 -0.0030716
v -0.024416 -0.0084158 -0.0033855
v -0.024503 -0.008011 -0.0035286
v -0.024719 -0.0074414 -0.0033214
v -0.024703 -0.0086273 -0.00029666
v -0.024532 -0.0084238 0.001898
v -0.024522 -0.0085962 0.0016099
v -0.024902 -0.0032093 0.0048826
v -0.024331 2.7146e-05 0.0065523
v -0.024681 0.0018462 0.0056409
v -0.024885 0.003644 0.004666
v -0.024539 0.008668 0.001468
v -0.024518 0.0085585 0.0018407
v -0.024667 0.0087087 -0.001579
v -0.024549 0.0079252 -0.0035098
v -0.02447 0.008195 -0.003512
v -0.024408 0.0085397 -0.0033408
v -0.02504 0.0066171 -0.0028317
v -0.025633 0.004452 -0.001646
v -0.025239 0.0060267 -0.0025159
v -0.025896 0.0032111 -0.00094143
v -0.026038 0.00010827 0.00081652
v -0.026025 -0.00011753 0.00078258
v -0.007647 0.010997 -0.019449
v -0.007855 0.010426 -0.019537
v -0.0080318 0.010325 -0.019495
v -0.011141 0.010307 -0.018087
v -0.016075 0.010307 -0.014723
v -0.017425 0.010877 -0.013331
v -0.017396 0.010452 -0.013517
v -0.017146 0.010307 -0.013798
v -0.016576 0.012197 -0.013576
v -0.014574 0.014815 -0.013805
v -0.016901 -0.010245 -0.014034
v -0.010967 -0.010252 -0.018143
v -0.0076199 -0.010867 -0.019486
v -0.007746 -0.010485 -0.019548
v -0.007844 -0.010381 -0.019539
v -0.007933 -0.01032 -0.019521
v -0.008171 -0.010253 -0.019444
v -0.008009 -0.010285 -0.0195
v -0.008433 -0.012597 -0.018566
v -0.0093061 -0.014823 -0.017081
v 0.012448 0.011621 -0.013805
v 0.012984 0.010747 -0.013799
v 0.012896 0.010335 -0.014262
v 0.0099795 0.010302 -0.017733
v 0.007089 0.010307 -0.019767
v 0.0054237 0.010307 -0.020512
v 0.0025733 0.010473 -0.021102
v -0.020975 0.013785 -0.0063491
v -0.023165 0.010695 -0.0049456
v -0.023567 0.010297 -0.0042126
v -0.023429 0.01033 -0.004588
v -0.023332 0.01043 -0.004766
v -0.023931 0.010305 -0.0026109
v -0.024028 0.010332 1.4e-05
v -0.024007 0.010367 0.000101
v -0.023973 0.010428 0.000195
v -0.023848 0.010667 0.00037602
v -0.023671 0.011027 0.000365
v -0.02363 0.011114 0.000321
v -0.022954 0.01239 -0.0004673
v -0.021876 0.013923 -0.0014043
v -0.023478 0.010431 0.0029685
v -0.022088 0.013466 0.00093887
v -0.02346 0.010325 0.003191
v -0.021706 0.010307 0.007265
v -0.023302 0.010291 0.0037846
v -0.021242 0.010698 0.0077278
v -0.021083 0.011114 0.007576
v -0.021556 0.010367 0.007483
v -0.019863 0.014269 0.0051594
v -0.020497 0.013052 0.006166
v -0.019485 0.012985 0.0081173
v -0.020876 0.010458 0.0086454
v -0.021585 0.0086805 0.0088744
v -0.023518 0.0086745 0.0050571
v -0.023995 0.0079172 0.0044643
v -0.023725 0.0085565 0.004591
v -0.024099 0.004916 0.0061446
v -0.023729 0.0024382 0.0075018
v -0.023308 -0.00035549 0.0085618
v -0.023224 9.3449e-05 0.0086752
v -0.024015 -0.0041627 0.0065276
v -0.024003 -0.0078328 0.0044731
v -0.023547 -0.008615 0.004934
v -0.023678 -0.0085402 0.0046743
v -0.023867 -0.0082551 0.004451
v -0.020535 -0.011094 0.0085278
v -0.019518 -0.012822 0.0081638
v -0.022704 -0.010253 0.005242
v -0.021706 -0.010253 0.007265
v -0.023483 -0.010272 0.0031255
v -0.023486 -0.010253 -0.004432
v -0.024053 -0.010255 -0.0018148
v -0.023358 -0.010332 -0.0047359
v -0.00013747 -0.014191 -0.019343
v 0.0024072 -0.010622 -0.021048
v 0.0027662 -0.010279 -0.021135
v 0.0055674 -0.010255 -0.020463
v 0.0071 -0.010253 -0.019762
v 0.007231 -0.010277 -0.019679
v 0.0073531 -0.010346 -0.019581
v 0.0073919 -0.010986 -0.019201
v 0.006406 -0.012249 -0.018939
v 0.0056772 -0.013119 -0.018661
v 0.0092829 -0.01085 -0.017923
v 0.0072311 -0.013417 -0.017524
v 0.009847 -0.010271 -0.017803
v 0.009621 -0.010414 -0.017916
v 0.012885 -0.01027 -0.014288
v 0.010181 -0.010238 -0.017541
v 0.012793 -0.011061 -0.013742
v 0.012982 -0.010594 -0.013883
v 0.010083 -0.014218 -0.013689
v 0.011097 -0.013187 -0.013811
v 0.012016 -0.012088 -0.01381
v 0.011264 -0.014239 -0.01201
v 0.012704 -0.012743 -0.012122
v 0.014192 -0.0086715 -0.013632
v 0.013035 -0.0086163 -0.015207
v 0.011465 -0.008615 -0.017119
v 0.011283 -0.007753 -0.017723
v 0.011252 -0.008498 -0.017409
v 0.011373 -0.008598 -0.017229
v 0.012811 -0.0048477 -0.01708
v 0.014685 0.00026314 -0.015256
v 0.012699 0.005093 -0.017098
v 0.011536 0.0073455 -0.01766
v 0.011338 0.0086479 -0.017298
v 0.011162 0.0083083 -0.017622
v 0.011221 0.00794 -0.017729
v 0.013482 0.010948 -0.012897
v 0.014196 0.0086778 -0.013637
v 0.012662 0.012867 -0.012083
v -0.024835 -0.0069909 0.002763
v -0.025501 -0.0051521 -0.0020539
v -0.026004 -0.0019984 -0.00028629
v -0.025669 -0.0044068 0.0010161
v -0.025848 -0.002192 0.001533
v -0.025956 0.0018647 0.0010247
v -0.025413 0.005967 -0.0011022
v -0.025257 0.0064798 0.00098235
v -0.02493 0.0053928 0.0036935
v -0.025581 0.004452 0.00153
v -0.025324 0.001203 0.0041138
v -0.025262 -0.006581 0.000229
v -0.024881 0.006635 0.002804
v 0.01255 -0.005612 -0.017106
v 0.014869 0.008414 -0.012695
v 0.014696 -0.00013607 -0.015218
v 0.015668 0.002859 -0.013501
v 0.013702 0.0028409 -0.016337
v 0.011172 -0.0081531 -0.017691
v 0.014869 -0.00836 -0.012695
v 0.013949 0.0063289 -0.015089
v 0.014291 -0.0056297 -0.014819
v 0.015669 -0.002805 -0.013501
v 0.01381 -0.002805 -0.016184
v 0.019278 2.7e-05 -0.008076
v 0.019254 -0.001268 -0.008061
v 0.013763 0.010692 -0.012755
v 0.018181 0.008604 -0.007385
v 0.017048 0.011619 -0.0066726
v 0.019243 -0.001531 -0.008054
v 0.018979 -0.0046748 -0.0078871
v 0.018042 -0.0090685 -0.0072978
v 0.014344 -0.010517 -0.011958
v 0.019065 0.0041882 -0.0079418
v -0.022127 -0.010982 -0.0071586
v -0.019071 -0.0079658 -0.012696
v -0.022593 -0.0029657 -0.009544
v -0.021113 -0.0048782 -0.011168
v -0.020343 0.011123 -0.0099591
v -0.024776 0.0039687 -0.0053741
v -0.024906 -0.002805 -0.005309
v -0.023186 -0.00836 -0.006823
v -0.022267 0.008414 -0.008476
v -0.023324 0.0057568 -0.0077885
v -0.023679 0.0030385 -0.0078498
v -0.025487 -0.00014452 -0.0041141
v -0.0238 2.6415e-05 -0.0079098
v -0.021916 -0.008272 -0.0090994
v -0.023328 -0.005678 -0.0077892
v -0.024087 -0.002805 -0.007097
v -0.020695 0.0054068 -0.011576
v -0.021445 0.011013 -0.008341
v -0.021931 0.0015175 -0.010573
v -0.02073 -0.010989 -0.0094367
v 0.011492 -0.0011379 -0.01908
v 0.004342 -0.0084273 -0.021494
v 0.0073372 -0.0066944 -0.021004
v 0.009075 -0.006581 -0.020025
v 0.0088668 -0.0043367 -0.020731
v 0.011785 0.0031629 -0.018601
v 0.0094873 0.0079987 -0.019303
v 0.0060039 0.0052095 -0.021898
v 0.0087713 0.0002562 -0.021183
v 0.0090228 0.003599 -0.02078
v 0.0091617 -0.0010753 -0.020926
v 0.006535 -0.0042296 -0.021844
v 0.007962 0.006635 -0.020697
v -0.0091091 0.0050106 -0.020107
v -0.0067097 0.00041478 -0.021355
v -0.01502 -0.004398 -0.016744
v -0.013267 -0.0053258 -0.017803
v -0.010465 -0.00060928 -0.019751
v -0.010098 2.7e-05 -0.019901
v -0.016558 0.00077311 -0.015882
v -0.017343 -0.0049391 -0.014928
v -0.013272 0.006635 -0.0176
v -0.013058 0.0039959 -0.018119
v -0.013907 -0.00049029 -0.01777
v -0.0038034 0.0029444 -0.022129
v -0.0060291 0.0053202 -0.021249
v 0.0030279 -0.0061784 -0.022294
v -0.0022584 0.011002 -0.020875
v 0.004797 2.7e-05 -0.022628
v 0.0063924 0.00057676 -0.022209
v -0.001166 0.008414 -0.021755
v 0.0010843 0.0092976 -0.021666
v -0.0018887 -1.5703e-06 -0.022648
v -0.0019867 -0.0029625 -0.022511
v -0.0030769 -0.011065 -0.020718
v -0.00031248 -0.0082993 -0.021848
v -0.00013378 -0.011103 -0.020988
v 0.0029319 -0.0013206 -0.022881
v 0.0011014 -0.001403 -0.022921
v -0.003029 -0.005612 -0.02199
v -8.5947e-05 -0.0057008 -0.022411
v 0.0019368 0.0027429 -0.022843
v 0.0014684 0.005771 -0.022454
v -0.00109 0.002859 -0.022635
v -0.0020912 0.0067863 -0.022007
v -0.0042218 0.0086686 -0.021153
v 0.0048832 0.0031897 -0.022456
v 0.003439 0.005567 -0.022345
v 0.011167 -0.010973 -0.015932
v 0.012857 -0.010966 -0.013744
v 0.0097344 -0.010327 -0.017873
v 0.0036443 -0.010723 -0.020793
v 0.0074887 -0.01064 -0.019358
v -0.0076688 0.010665 -0.019541
v -0.011054 0.010686 -0.01799
v -0.0076995 0.011128 -0.019407
v -0.016282 0.010795 -0.01439
v -0.013551 0.010309 -0.016602
v -0.014693 0.011819 -0.015292
v -0.024005 -0.010311 0.00014607
v -0.022986 -0.010939 -0.0050883
v -0.023351 -0.010973 -0.00379
v -0.023741 -0.010838 0.00042238
v -0.023758 -0.010896 -0.00089718
v -0.023596 -0.010779 -0.0030808
v 0.011173 0.011105 -0.015871
v 0.0096419 0.010443 -0.017916
v 0.0092055 0.011028 -0.01791
v 0.0021885 0.010989 -0.020941
v 0.0032606 0.011447 -0.020572
v 0.0029207 0.010313 -0.021134
v 0.0072683 0.010342 -0.019653
v 0.0074797 0.010626 -0.019388
v 0.007397 0.011027 -0.019204
v -0.023351 -0.010784 0.002673
v -0.022351 -0.010973 0.00517
v -0.021165 -0.010823 0.0076898
v -0.021491 -0.010356 0.0075624
v -0.024081 0.010292 -0.00054069
v -0.017681 -0.00855 0.015185
v -0.02159 -0.0086223 0.0088786
v -0.016796 -0.011069 0.014625
v -0.022115 -0.002805 0.010264
v -0.022115 0.002859 0.010264
v -0.023907 0.0082669 0.0044565
v -0.023262 0.0063028 0.0071662
v -0.021042 0.008414 0.009892
v -0.018478 0.0047311 0.015687
v -0.021719 0.005666 0.010129
v -0.017413 0.0095583 0.015016
v -0.023906 -0.0054221 0.0062799
v -0.022981 -0.0083595 0.0064312
v -0.021184 -0.0067259 0.010588
v -0.018565 -0.0041328 0.015742
v -0.018778 2.7e-05 0.015876
v -0.018754 0.001321 0.015861
v -0.018743 0.001587 0.015854
v -0.0013605 0.012988 -0.020105
v -0.0089734 0.013877 -0.017837
v -0.016719 -0.011955 -0.013529
v -0.014801 -0.014481 -0.013809
v -0.01325 -0.016212 -0.013577
v -0.017371 -0.010952 -0.01333
v -0.017412 -0.010462 -0.013478
v -0.017441 -0.010678 -0.01337
v -0.017314 -0.010313 -0.013623
v 0.010336 0.014024 -0.013728
v 0.0053806 0.015335 -0.016616
v 0.0080795 0.012479 -0.017759
v 0.003684 0.015374 -0.017451
v 0.0067335 0.011938 -0.019028
v 0.0049722 0.013981 -0.018322
v 0.00041693 0.013453 -0.019861
v -0.020731 -0.012318 0.006675
v -0.020013 -0.013958 0.0053798
v -0.022518 -0.01265 0.0014515
v -0.022581 -0.012936 -0.0008304
v -0.02072 -0.013971 -0.0064174
v -0.022062 -0.012316 -0.005743
v -0.010111 -0.010762 -0.018432
v -0.015871 -0.010973 -0.014643
v -0.01383 -0.010256 -0.016416
v -0.012992 -0.010949 -0.016745
v -0.008089 -0.010973 -0.019266
v -0.010427 -0.010973 -0.018201
v 0.0039693 -0.018622 0.0015586
v -0.0084943 -0.017808 0.0094037
v -0.005491 -0.018353 0.007513
v -0.001228 -0.018773 0.0048298
v -0.0033861 0.018686 0.0061885
v 0.0088795 -0.017832 -0.0015311
v 0.0089907 0.017863 -0.0016017
v 0.005991 0.018406 0.000287
v 0.0017194 0.018827 0.0029753
v -0.0083854 0.017883 0.0093345
v -0.01121 -0.016866 0.011113
v 0.011428 -0.016985 -0.0031358
v 0.013598 -0.015746 -0.0045022
v 0.01603 -0.013241 -0.0060318
v 0.017237 -0.011144 -0.0067911
v -0.010929 0.017037 0.010935
v -0.013096 0.015801 0.012299
v -0.015911 0.012766 0.01407
v -0.014196 -0.014826 0.012992
v -0.013238 -0.015678 0.012384
v 0.015059 -0.014427 -0.0054248
v 0.014655 0.014929 -0.0051672
v 0.013736 0.01573 -0.0045909
v -0.015854 -0.012787 0.014036
v -0.014564 0.01448 0.01322
v 0.015705 0.01376 -0.0058278
v -0.012009 0.018788 0.0026489
v -0.014689 0.018575 -0.00027733
v -0.01415 0.016558 -0.012466
v -0.015111 0.017208 -0.010372
v -0.020177 0.015575 -0.0033281
v -0.018718 0.016792 -0.001976
v -0.019917 0.011705 0.0089791
v -0.012832 0.017357 0.0080438
v -0.0067904 0.019827 -0.0031274
v -0.019197 0.014076 -0.0092269
v -0.018798 0.013203 -0.01062
v -0.016999 0.016392 -0.009257
v -0.016497 0.015662 -0.011069
v -0.012561 0.012561 -0.016454
v -0.01316 0.013858 -0.015496
v -0.011763 0.01555 -0.015309
v -0.010143 0.018204 -0.01286
v -0.009576 0.018856 -0.011489
v -0.009436 0.019361 -0.0093541
v -0.0096262 0.018564 0.0056576
v -0.006612 0.019074 0.003944
v -0.0033799 0.019374 0.0015028
v -0.003652 0.019699 -0.002301
v -0.019001 0.013502 0.0080867
v -0.018203 0.015307 0.0059707
v -0.023341 0.011648 -0.002033
v -0.02255 0.012148 -0.0047048
v -0.021252 0.013521 -0.005998
v -0.017769 0.016735 -0.006974
v -0.018913 0.016066 -0.006173
v -0.020488 0.014947 -0.0048948
v -0.014373 0.017861 0.0042214
v -0.018076 0.017096 -0.00033314
v -0.022324 0.01115 0.005107
v -0.023191 0.011397 0.0023576
v -0.020944 0.01422 0.0027318
v -0.019951 0.015513 0.001158
v -0.02207 0.01352 -0.0030971
v -0.011957 0.019272 -0.007043
v -0.011786 0.017242 -0.013464
v -0.0088447 0.019694 -0.0071525
v -0.0041866 0.019823 -0.0074526
v -0.017214 0.017516 -0.0053258
v -0.018131 0.016691 0.0019177
v -0.016473 0.016506 0.0057992
v -0.015038 0.015807 0.0097175
v -0.016051 0.017552 -0.0080725
v -0.01373 0.015427 -0.013991
v -0.011698 0.019464 -0.0029207
v -0.0092033 0.019394 0.0010065
v -0.015014 0.018602 -0.0023493
v -0.015261 0.018533 -0.0043885
v -0.014002 0.018681 -0.00717
v -0.012693 0.018576 -0.0097825
v -0.0125 0.017953 -0.011642
v 0.0074 0.017568 -0.009486
v 0.0024814 0.015669 -0.017558
v 0.0023301 0.014122 -0.019104
v -0.0047858 0.018064 -0.015019
v -0.0047191 0.018986 -0.012814
v -0.011624 0.014137 -0.016295
v -0.011347 0.016099 -0.015092
v -0.008856 0.018071 -0.013804
v -0.0069911 0.013856 -0.018574
v -0.0094876 0.015494 -0.016571
v -0.007882 0.016201 -0.016676
v -0.0082822 0.016605 -0.016102
v -0.003971 0.012548 -0.019964
v -0.0061266 0.012083 -0.019624
v -0.0021347 0.014118 -0.019429
v 0.0051078 0.01188 -0.019834
v 0.0052508 0.015893 -0.015955
v 0.0081207 0.014075 -0.016097
v 0.0098079 0.011524 -0.017035
v 0.0099107 0.013489 -0.014958
v 0.011446 0.01412 -0.012026
v 0.012498 0.013106 -0.011944
v 0.012449 0.016594 -0.0037799
v 0.0086995 0.017812 -0.0052332
v 0.0046742 0.018877 -0.0032031
v 0.000793 0.019274 -0.000596
v -0.0077749 0.019024 -0.011941
v -0.005428 0.019593 -0.009814
v -0.009947 0.017072 -0.014804
v -0.010349 0.012786 -0.017649
v -0.0023798 0.018277 -0.014626
v -0.0024261 0.017092 -0.016634
v -0.007126 0.01762 -0.015253
v -0.004894 0.016773 -0.016838
v 3.3206e-05 0.01828 -0.01407
v 2.141e-05 0.017194 -0.016198
v 2.1677e-05 0.015672 -0.018113
v -0.0048216 0.015031 -0.01841
v 0.0025295 0.017086 -0.015517
v 0.001759 0.012642 -0.020182
v 0.0043623 0.018175 -0.011389
v 0.0058819 0.017034 -0.013193
v 0.0091453 0.01657 -0.010234
v 0.010101 0.015308 -0.011833
v -0.001169 0.019648 -0.003729
v 0.00092619 0.019499 -0.0061563
v 0.0047849 0.018705 -0.0079008
v 0.002014 0.019022 -0.0099993
v 0.0022853 0.018475 -0.012276
v 0.0036428 0.017516 -0.013977
v -0.00656 0.018571 -0.013594
v -0.0027655 0.019222 -0.011949
v -0.001455 0.019508 -0.0098045
v 0.00014071 0.019003 -0.011694
v -0.0083917 -0.019745 -0.0045797
v -0.013117 -0.018327 0.0035117
v -0.014912 -0.017515 0.004556
v -0.020058 -0.015618 -0.0033741
v -0.021396 -0.014063 -0.0041679
v -0.014633 -0.01801 -0.0088212
v -0.012662 -0.018933 -0.0078145
v -0.01732 -0.013812 -0.011831
v -0.01373 -0.015374 -0.013991
v -0.014939 -0.013415 -0.014337
v -0.014757 -0.011817 -0.015207
v -0.012502 -0.012819 -0.016362
v -0.01931 -0.013092 0.008084
v -0.016519 -0.014271 0.010585
v -0.019889 -0.014832 0.003568
v -0.018959 -0.01406 0.0071074
v -0.015674 -0.015238 0.009943
v -0.013731 -0.016807 0.008527
v -0.012205 -0.017587 0.0076015
v -0.010337 -0.01828 0.006226
v -0.009122 -0.018595 0.00546
v -0.006612 -0.019021 0.003944
v -0.0029577 -0.019205 0.0023892
v -0.0095806 -0.018877 -0.011217
v -0.0083914 -0.019339 -0.0098457
v -0.009263 -0.01892 -0.011216
v -0.01023 -0.018195 -0.012676
v -0.011602 -0.017128 -0.013679
v -0.010322 -0.017326 -0.014231
v -0.011773 -0.018017 -0.011968
v -0.011157 -0.016925 -0.014224
v -0.01215 -0.015828 -0.014757
v -0.012875 -0.014201 -0.015435
v -0.016627 -0.015492 -0.011063
v -0.014093 -0.01655 -0.012447
v -0.020862 -0.012727 -0.0078506
v -0.01944 -0.012495 -0.010228
v -0.019281 -0.01103 -0.011291
v -0.018956 -0.014192 -0.0094091
v -0.017769 -0.016682 -0.006974
v -0.022891 -0.011642 -0.004318
v -0.022645 -0.012623 -0.002853
v -0.023341 -0.011595 -0.002033
v -0.021805 -0.013943 -0.0017663
v -0.019357 -0.016214 -0.00067347
v -0.019294 -0.015782 0.0021252
v -0.021182 -0.014021 0.0023539
v -0.022165 -0.012359 0.003417
v -0.022689 -0.011156 0.00409
v -0.020828 -0.012097 0.0069211
v -0.020928 -0.013438 0.0044582
v -0.003306 -0.019596 -0.00175
v -0.0036965 -0.019788 -0.0058853
v -0.0061 -0.019776 -0.006191
v -0.0088035 -0.019601 -0.0074841
v -0.010461 -0.019234 -0.0088
v -0.01339 -0.018993 -0.0054661
v -0.015311 -0.018224 -0.0064884
v -0.016554 -0.017274 -0.007742
v -0.01383 -0.017566 -0.011034
v -0.016214 -0.016723 -0.009714
v -0.015849 -0.018231 -0.0040787
v -0.017775 -0.017139 -0.0049979
v -0.018913 -0.016012 -0.006173
v -0.019978 -0.015272 -0.005354
v -0.018784 -0.016658 -0.002121
v -0.017663 -0.017352 -0.002921
v -0.021727 -0.013035 -0.0055087
v -0.015316 -0.018122 0.00098409
v -0.017585 -0.016989 0.0015744
v -0.016339 -0.01652 0.005797
v -0.017846 -0.015156 0.00678
v -0.006014 -0.019595 -0.000679
v -0.0091078 -0.019446 0.00016093
v -0.011316 -0.018909 0.002256
v -0.013045 -0.018969 -0.00052096
v -0.015214 -0.018421 -0.0012532
v -0.017336 -0.017462 -0.00077105
v -0.011928 -0.018649 -0.010092
v -0.01108 -0.019402 -0.006511
v -0.011373 -0.019455 -0.0035688
v -0.012994 -0.019134 -0.003474
v -0.014329 -0.018768 -0.002752
v 0.0044189 -0.018736 -0.0076953
v 0.001675 -0.018925 -0.010536
v -0.0082743 -0.016502 -0.016166
v -0.006545 -0.017358 -0.015693
v -0.005357 -0.01689 -0.016552
v 0.0025708 -0.01552 -0.017644
v 0.004234 -0.015876 -0.016445
v 0.014629 -0.012736 -0.0090745
v 0.012586 -0.015238 -0.007843
v 0.008132 -0.017888 -0.005368
v -0.0004432 -0.019516 -0.002826
v -0.01024 -0.012861 -0.017634
v -0.010757 -0.013884 -0.016884
v -0.011623 -0.015686 -0.015244
v -0.012072 -0.014227 -0.015943
v -0.0085058 -0.018826 -0.011989
v -0.0093639 -0.018085 -0.013426
v 0.006927 -0.01828 -0.004639
v 0.00571 -0.018595 -0.003875
v 0.003258 -0.019021 -0.002267
v 0.0099238 -0.017143 -0.0062932
v 0.012498 -0.013052 -0.011944
v 0.011628 -0.014153 -0.011591
v 0.005277 -0.013429 -0.018596
v 0.0052991 -0.011403 -0.019975
v 0.00285 -0.011642 -0.020519
v 0.0011066 -0.012461 -0.020343
v 0.000627 -0.013467 -0.019768
v -0.001759 -0.016682 -0.01705
v 0.000657 -0.015272 -0.018341
v 0.001831 -0.014461 -0.018866
v -0.003971 -0.012495 -0.019964
v -0.004152 -0.016339 -0.017343
v -0.006005 -0.015604 -0.017678
v -0.006333 -0.013812 -0.018745
v 0.0068644 -0.017808 -0.0091443
v 0.0069683 -0.016216 -0.013784
v 6.1257e-05 -0.017131 -0.016205
v 0.0025023 -0.017015 -0.015555
v 0.005385 -0.016312 -0.014989
v 0.011081 -0.011122 -0.015952
v 0.00951 -0.012359 -0.016518
v 0.00859 -0.01348 -0.016261
v 0.0080927 -0.014553 -0.01543
v 0.006516 -0.015459 -0.015499
v 0.0035107 -0.013146 -0.019496
v 0.004184 -0.014386 -0.018217
v -0.0014112 -0.019341 -0.010591
v -0.0035553 -0.019308 -0.01134
v -0.005392 -0.019058 -0.012257
v -0.006567 -0.019234 -0.011251
v -0.005428 -0.019539 -0.009814
v -0.004316 -0.019696 -0.008329
v -0.001784 -0.017976 -0.015035
v 0.000627 -0.017955 -0.014455
v 0.0036646 -0.017413 -0.014069
v 0.005323 -0.017333 -0.012816
v 0.0091918 -0.016455 -0.010357
v 0.011563 -0.016085 -0.0073
v -0.0034958 -0.017498 -0.015976
v -0.009834 -0.015374 -0.016444
v -0.004075 -0.014536 -0.018842
v -0.00032745 -0.019433 -0.0090578
v 0.0017289 -0.019342 -0.0058758
v 0.0035241 -0.018259 -0.011746
v 0.0012051 -0.018552 -0.012559
v -0.0011619 -0.018679 -0.013228
v -0.0035664 -0.018626 -0.013741
v -0.0059418 -0.01837 -0.014115
v -0.007712 -0.017735 -0.014774
f 3 4 6
f 8 7 9
f 13 12 14
f 13 14 15
f 92 16 17
f 16 20 17
f 17 20 18
f 18 20 19
f 22 21 90
f 90 21 18
f 21 22 23
f 25 24 26
f 26 11 27
f 30 29 31
f 30 31 32
f 32 31 28
f 45 33 34
f 45 34 29
f 33 45 35
f 33 35 36
f 36 35 41
f 37 38 839
f 839 38 39
f 41 35 40
f 41 40 37
f 37 40 38
f 42 43 44
f 44 43 29
f 29 43 45
f 42 46 43
f 47 48 42
f 42 48 46
f 48 49 46
f 46 49 697
f 697 49 699
f 51 50 54
f 54 50 52
f 10 54 53
f 55 7 8
f 8 9 10
f 54 52 53
f 53 52 56
f 53 56 57
f 53 58 10
f 10 58 8
f 57 59 53
f 68 65 62
f 62 65 63
f 67 66 62
f 62 66 68
f 66 93 69
f 70 72 71
f 71 72 93
f 93 72 69
f 74 73 75
f 74 75 71
f 71 75 70
f 73 74 76
f 76 74 2
f 78 77 2
f 2 77 76
f 5 6 4
f 78 2 3
f 78 3 6
f 2 74 79
f 2 79 80
f 80 79 81
f 2 80 3
f 82 81 79
f 84 83 82
f 82 83 81
f 86 85 91
f 91 85 1
f 1 85 87
f 86 88 85
f 85 88 89
f 18 19 90
f 19 91 90
f 90 91 1
f 15 14 92
f 92 14 16
f 66 67 93
f 71 93 74
f 94 95 62
f 94 96 95
f 64 61 97
f 64 97 63
f 63 97 94
f 63 94 62
f 94 98 96
f 53 59 60
f 60 59 61
f 61 59 97
f 51 47 50
f 50 47 99
f 99 47 42
f 28 100 32
f 30 101 29
f 29 101 44
f 42 44 99
f 11 26 28
f 28 26 102
f 28 102 100
f 24 102 26
f 24 25 23
f 24 23 22
f 24 22 103
f 90 104 105
f 90 105 22
f 22 105 103
f 87 83 1
f 1 83 84
f 1 84 90
f 90 84 104
f 765 112 113
f 121 120 145
f 125 124 126
f 125 126 127
f 127 126 122
f 127 122 123
f 128 129 130
f 130 129 122
f 122 129 123
f 129 128 132
f 132 128 131
f 135 136 134
f 134 136 137
f 134 137 133
f 133 137 138
f 138 137 139
f 143 142 140
f 140 142 144
f 140 144 141
f 145 146 147
f 146 148 147
f 147 148 142
f 149 120 121
f 150 151 145
f 145 151 121
f 147 152 145
f 145 152 150
f 143 147 142
f 143 153 147
f 147 153 152
f 152 153 154
f 154 153 158
f 156 155 159
f 156 157 155
f 155 157 158
f 155 206 159
f 161 160 162
f 162 160 165
f 164 163 160
f 160 163 165
f 163 216 166
f 167 169 168
f 168 169 216
f 216 169 166
f 171 170 172
f 171 172 168
f 168 172 167
f 170 171 173
f 173 171 117
f 176 174 117
f 117 174 173
f 118 119 175
f 176 117 116
f 176 116 175
f 175 116 118
f 117 177 116
f 117 171 178
f 117 178 177
f 177 178 179
f 177 179 181
f 181 179 180
f 183 182 180
f 180 182 181
f 184 185 188
f 188 185 114
f 114 185 115
f 185 184 186
f 114 187 188
f 110 189 111
f 111 189 187
f 190 191 192
f 190 192 193
f 110 193 189
f 189 193 194
f 194 193 192
f 191 195 196
f 191 196 192
f 195 191 112
f 112 191 113
f 198 197 111
f 111 197 110
f 197 198 199
f 201 200 202
f 203 209 131
f 203 131 204
f 204 131 128
f 209 203 205
f 161 106 107
f 158 153 155
f 161 206 106
f 106 206 155
f 141 135 140
f 140 135 207
f 207 135 134
f 207 134 208
f 208 134 131
f 208 131 209
f 210 209 205
f 210 205 109
f 210 109 211
f 108 202 109
f 109 202 211
f 200 212 202
f 202 212 211
f 200 201 199
f 200 199 198
f 200 198 213
f 187 214 111
f 111 214 198
f 198 214 215
f 198 215 213
f 115 182 114
f 114 182 183
f 114 183 187
f 187 183 214
f 163 164 216
f 168 216 171
f 107 217 161
f 161 217 160
f 107 218 217
f 226 806 227
f 229 288 230
f 230 288 228
f 229 290 289
f 299 225 231
f 231 225 233
f 231 233 232
f 222 223 234
f 222 234 221
f 221 234 235
f 221 235 241
f 237 236 241
f 237 241 235
f 222 238 223
f 223 238 224
f 298 239 236
f 236 239 240
f 240 241 236
f 241 242 221
f 239 298 243
f 239 243 220
f 244 245 243
f 243 245 220
f 244 246 245
f 246 244 251
f 249 247 248
f 249 250 247
f 251 244 252
f 251 252 253
f 253 252 250
f 257 254 255
f 257 255 248
f 248 255 249
f 257 248 256
f 254 259 258
f 257 259 254
f 259 260 258
f 258 260 691
f 295 219 261
f 276 268 269
f 269 268 270
f 267 271 266
f 266 271 265
f 266 263 267
f 267 263 264
f 263 268 264
f 264 268 276
f 264 276 272
f 269 274 275
f 269 275 276
f 277 278 279
f 280 279 278
f 280 278 286
f 286 278 281
f 288 282 283
f 283 282 284
f 286 281 285
f 286 285 284
f 229 289 287
f 229 287 288
f 289 290 291
f 291 290 227
f 291 227 806
f 292 269 219
f 219 269 270
f 269 292 274
f 274 292 293
f 274 293 273
f 273 293 277
f 277 293 278
f 261 294 295
f 219 295 292
f 250 252 247
f 247 252 296
f 256 248 262
f 262 248 247
f 262 247 261
f 261 247 296
f 261 296 294
f 297 236 225
f 225 236 237
f 297 298 236
f 299 300 225
f 225 300 297
f 284 285 283
f 283 285 301
f 228 288 232
f 232 288 283
f 232 283 231
f 231 283 301
f 242 302 221
f 221 302 303
f 221 303 222
f 222 303 304
f 222 304 238
f 304 305 238
f 302 242 306
f 306 242 241
f 306 241 311
f 307 308 239
f 239 308 309
f 239 309 240
f 240 309 310
f 240 310 311
f 240 311 241
f 239 312 307
f 245 312 220
f 220 312 239
f 312 245 313
f 245 246 313
f 313 246 314
f 314 246 315
f 315 246 251
f 253 316 315
f 253 315 251
f 249 317 318
f 249 318 250
f 250 318 316
f 250 316 253
f 317 249 255
f 317 255 319
f 319 255 320
f 320 255 254
f 258 321 254
f 254 321 320
f 570 121 151
f 151 150 570
f 570 150 322
f 322 150 152
f 322 152 154
f 322 154 158
f 322 158 323
f 323 158 157
f 156 323 157
f 156 159 323
f 323 159 324
f 206 325 324
f 206 324 159
f 570 885 121
f 121 885 326
f 121 326 149
f 325 206 161
f 325 161 327
f 327 161 328
f 328 161 162
f 162 165 328
f 328 165 329
f 329 165 163
f 329 163 330
f 163 166 330
f 330 166 169
f 330 169 331
f 331 169 167
f 331 167 172
f 174 176 332
f 172 170 331
f 331 170 332
f 332 170 173
f 332 173 174
f 332 176 333
f 333 176 175
f 333 175 334
f 334 175 119
f 619 63 335
f 335 63 65
f 75 73 616
f 335 65 336
f 65 68 336
f 336 68 66
f 336 66 337
f 66 69 337
f 337 69 72
f 337 72 70
f 337 70 616
f 616 70 75
f 76 338 73
f 73 338 616
f 77 78 338
f 338 76 77
f 338 78 626
f 626 78 339
f 78 6 339
f 339 6 340
f 340 6 341
f 341 6 5
f 272 343 344
f 272 344 264
f 264 344 267
f 267 344 342
f 267 342 271
f 342 345 271
f 343 272 276
f 343 276 346
f 346 276 275
f 347 274 350
f 346 275 348
f 348 275 274
f 348 274 349
f 349 274 347
f 274 273 350
f 350 273 351
f 351 273 277
f 279 352 277
f 277 352 351
f 352 279 353
f 280 354 353
f 280 353 279
f 354 280 286
f 284 355 354
f 284 354 286
f 282 356 357
f 282 357 358
f 282 358 284
f 284 358 355
f 356 282 288
f 356 288 287
f 356 287 635
f 635 287 359
f 359 287 289
f 359 289 809
f 809 289 291
f 291 806 804
f 291 804 809
f 360 295 361
f 362 361 296
f 296 361 294
f 294 361 295
f 362 296 610
f 610 296 252
f 244 363 610
f 244 610 252
f 363 244 364
f 364 244 243
f 364 243 365
f 243 366 365
f 366 243 298
f 297 367 298
f 298 367 366
f 297 300 368
f 368 369 297
f 297 369 367
f 368 300 299
f 368 299 370
f 371 370 301
f 301 370 231
f 231 370 299
f 371 301 603
f 603 301 285
f 281 604 603
f 281 603 285
f 604 281 278
f 604 278 372
f 372 278 373
f 373 278 293
f 293 374 373
f 292 375 293
f 293 375 374
f 292 295 360
f 360 376 292
f 292 376 375
f 377 74 93
f 93 378 377
f 93 601 379
f 93 379 378
f 601 93 380
f 380 93 67
f 95 381 380
f 95 380 62
f 62 380 67
f 381 95 96
f 381 96 598
f 598 96 98
f 598 98 94
f 598 94 382
f 97 597 94
f 94 597 382
f 59 383 597
f 59 597 97
f 52 384 385
f 386 57 385
f 385 57 56
f 385 56 52
f 59 57 386
f 59 386 383
f 384 52 387
f 52 50 387
f 44 101 596
f 596 388 44
f 44 388 389
f 44 389 99
f 99 389 387
f 99 387 50
f 30 390 596
f 30 596 101
f 100 391 390
f 100 390 32
f 32 390 30
f 391 100 102
f 391 102 392
f 102 24 392
f 392 24 393
f 393 24 394
f 394 24 103
f 105 396 394
f 105 394 103
f 84 395 396
f 396 105 104
f 396 104 84
f 395 84 82
f 395 82 397
f 397 82 399
f 398 74 377
f 591 74 398
f 591 79 74
f 591 399 79
f 79 399 82
f 143 400 401
f 143 401 153
f 401 402 153
f 153 402 403
f 400 143 404
f 143 140 404
f 405 406 208
f 208 406 207
f 207 406 404
f 207 404 140
f 407 536 209
f 209 536 208
f 208 536 405
f 211 408 407
f 211 407 210
f 210 407 209
f 212 408 211
f 200 409 408
f 200 408 212
f 409 200 410
f 410 200 544
f 544 200 213
f 214 412 215
f 215 412 544
f 215 544 213
f 183 411 412
f 412 214 183
f 413 411 180
f 180 411 183
f 413 180 179
f 414 415 171
f 171 415 416
f 171 416 178
f 178 416 179
f 179 416 413
f 414 171 216
f 216 417 414
f 418 419 216
f 216 419 417
f 418 216 420
f 420 216 164
f 217 421 160
f 160 421 420
f 160 420 164
f 218 422 421
f 218 421 217
f 422 218 107
f 422 107 538
f 538 107 106
f 106 537 538
f 153 403 155
f 155 403 537
f 155 537 106
f 645 290 423
f 423 290 643
f 643 290 229
f 643 229 230
f 643 230 228
f 643 228 424
f 424 228 425
f 425 228 232
f 425 232 426
f 426 232 233
f 426 233 225
f 426 225 647
f 647 225 427
f 427 225 237
f 429 235 428
f 428 235 234
f 428 234 431
f 429 237 235
f 237 429 430
f 237 430 427
f 431 234 223
f 224 431 223
f 224 432 431
f 433 262 711
f 711 262 261
f 711 261 434
f 219 270 439
f 261 219 434
f 434 219 439
f 263 435 268
f 268 435 436
f 268 436 437
f 268 437 438
f 439 270 268
f 439 268 440
f 440 268 438
f 435 263 266
f 265 441 266
f 266 441 435
f 265 442 441
f 443 38 40
f 443 40 444
f 444 40 35
f 444 35 445
f 45 446 445
f 45 445 35
f 656 43 46
f 43 656 446
f 43 446 45
f 54 660 448
f 54 448 51
f 51 448 447
f 10 449 660
f 10 660 54
f 116 451 450
f 116 450 118
f 452 453 177
f 177 453 454
f 177 454 451
f 177 451 116
f 181 452 177
f 182 668 181
f 181 668 455
f 181 455 452
f 668 182 456
f 456 182 457
f 457 182 458
f 458 182 459
f 459 182 115
f 459 115 185
f 459 185 460
f 460 185 461
f 461 185 462
f 186 463 185
f 185 463 462
f 188 464 775
f 188 775 465
f 188 465 184
f 468 466 189
f 189 466 464
f 189 464 187
f 187 464 188
f 194 467 468
f 194 468 189
f 469 195 470
f 195 469 196
f 196 469 192
f 192 469 471
f 192 471 467
f 192 467 194
f 112 472 473
f 112 473 195
f 195 473 470
f 113 474 765
f 191 475 113
f 113 475 474
f 191 190 476
f 191 476 475
f 476 190 193
f 476 193 477
f 197 478 674
f 197 674 479
f 197 479 110
f 110 479 193
f 193 479 477
f 199 480 197
f 197 480 478
f 201 481 480
f 201 480 199
f 483 202 108
f 483 108 482
f 481 201 483
f 483 201 202
f 482 108 109
f 205 484 109
f 109 484 482
f 203 485 484
f 203 484 205
f 486 487 128
f 128 487 488
f 128 488 204
f 204 488 203
f 203 488 485
f 486 128 670
f 670 128 130
f 670 130 122
f 122 489 670
f 126 490 122
f 122 490 489
f 132 493 129
f 493 491 129
f 129 491 492
f 493 134 664
f 134 493 131
f 131 493 132
f 142 494 495
f 142 495 144
f 144 495 141
f 146 496 148
f 148 496 494
f 148 494 142
f 3 497 4
f 3 498 959
f 3 959 497
f 80 499 498
f 80 498 3
f 499 80 81
f 499 81 500
f 500 81 83
f 500 83 501
f 501 83 502
f 502 83 503
f 503 83 642
f 642 83 87
f 642 87 504
f 504 87 85
f 504 85 505
f 85 89 506
f 85 506 505
f 91 507 508
f 91 508 86
f 86 508 88
f 509 91 512
f 512 91 19
f 509 640 91
f 91 640 510
f 91 510 507
f 20 511 512
f 20 512 19
f 14 513 639
f 14 639 514
f 14 514 16
f 16 514 511
f 16 511 20
f 12 515 516
f 12 516 14
f 14 516 517
f 14 517 513
f 519 518 15
f 15 518 13
f 92 519 15
f 92 17 520
f 92 520 519
f 520 17 521
f 521 17 18
f 521 18 522
f 554 21 523
f 21 554 524
f 21 524 18
f 18 524 525
f 18 525 522
f 23 526 21
f 21 526 523
f 25 551 526
f 25 526 23
f 11 527 551
f 551 25 26
f 551 26 27
f 551 27 11
f 28 528 11
f 11 528 553
f 11 553 527
f 31 529 528
f 31 528 28
f 530 34 33
f 34 530 531
f 34 531 29
f 29 531 532
f 29 532 31
f 31 532 529
f 530 33 534
f 534 33 36
f 534 36 41
f 41 533 534
f 37 535 41
f 41 535 533
f 416 414 417
f 406 405 536
f 406 536 404
f 401 403 402
f 403 401 400
f 400 404 403
f 403 404 537
f 422 540 421
f 421 541 420
f 420 542 418
f 415 414 416
f 413 416 417
f 413 417 419
f 419 542 413
f 542 543 413
f 413 543 411
f 411 543 412
f 407 408 546
f 546 408 409
f 546 409 410
f 539 536 407
f 539 407 540
f 540 407 421
f 421 407 546
f 421 546 541
f 404 547 537
f 537 547 539
f 537 539 538
f 422 538 540
f 540 538 539
f 539 547 536
f 536 547 404
f 420 541 545
f 545 541 546
f 545 546 544
f 544 546 410
f 412 543 548
f 412 548 544
f 544 548 543
f 544 543 545
f 545 543 420
f 420 543 542
f 542 419 418
f 550 556 534
f 533 562 534
f 551 527 552
f 552 527 553
f 526 549 554
f 526 554 523
f 524 554 525
f 525 554 522
f 522 554 521
f 568 520 555
f 568 519 520
f 556 529 530
f 530 534 556
f 532 531 530
f 532 530 529
f 528 529 556
f 528 556 553
f 553 556 552
f 555 520 521
f 555 521 557
f 558 557 559
f 521 554 549
f 521 549 557
f 557 549 526
f 557 526 559
f 559 526 551
f 559 551 558
f 560 561 551
f 551 561 558
f 563 562 564
f 561 565 558
f 558 565 566
f 558 566 557
f 557 566 555
f 555 566 567
f 555 567 568
f 568 567 729
f 560 551 569
f 569 551 552
f 569 552 556
f 569 556 563
f 563 556 550
f 563 550 562
f 562 550 534
f 330 331 575
f 574 303 302
f 328 329 575
f 327 581 325
f 583 570 577
f 577 570 322
f 320 589 319
f 571 317 319
f 318 317 571
f 311 310 309
f 311 309 306
f 578 579 332
f 332 579 575
f 332 575 331
f 329 330 575
f 580 575 579
f 327 328 581
f 581 328 575
f 581 575 582
f 582 575 580
f 584 583 577
f 584 577 322
f 571 316 318
f 571 583 573
f 573 583 584
f 573 584 572
f 572 584 585
f 585 584 322
f 585 322 576
f 576 322 323
f 582 572 585
f 582 585 576
f 582 576 581
f 581 576 323
f 581 323 324
f 581 324 325
f 586 306 309
f 586 309 307
f 307 309 308
f 578 332 587
f 302 306 586
f 586 307 312
f 586 312 588
f 588 312 313
f 571 319 583
f 583 319 589
f 583 589 570
f 587 574 578
f 578 574 302
f 578 302 579
f 579 302 586
f 579 586 580
f 580 586 588
f 580 588 582
f 582 588 572
f 572 588 313
f 572 313 573
f 573 313 314
f 573 314 315
f 573 315 571
f 571 315 316
f 592 397 399
f 397 592 593
f 397 593 395
f 395 593 396
f 590 392 393
f 391 392 590
f 391 590 390
f 390 590 595
f 388 596 389
f 389 596 387
f 385 383 386
f 383 385 384
f 384 387 383
f 383 387 597
f 598 382 599
f 598 599 600
f 598 600 381
f 381 600 380
f 380 600 594
f 380 594 601
f 592 399 379
f 592 379 601
f 398 377 591
f 591 377 378
f 591 378 399
f 399 378 379
f 387 602 597
f 597 602 599
f 597 599 382
f 599 602 596
f 596 602 387
f 396 593 394
f 394 593 594
f 594 593 592
f 594 592 601
f 393 394 594
f 393 594 590
f 590 594 600
f 590 600 595
f 595 600 599
f 595 599 390
f 390 599 596
f 361 362 605
f 360 361 606
f 374 606 607
f 375 376 360
f 604 372 373
f 612 370 371
f 363 364 365
f 365 366 363
f 363 366 609
f 363 609 610
f 367 369 368
f 367 368 611
f 367 611 366
f 366 611 612
f 366 612 609
f 612 613 609
f 609 613 605
f 609 605 610
f 610 605 362
f 360 606 375
f 375 606 374
f 374 607 373
f 373 607 608
f 373 608 604
f 604 608 603
f 608 607 612
f 608 612 603
f 603 612 371
f 611 368 370
f 611 370 612
f 612 607 613
f 613 607 606
f 613 606 605
f 605 606 361
f 348 349 346
f 346 349 343
f 344 343 624
f 335 618 619
f 620 617 621
f 358 357 355
f 355 357 615
f 355 615 354
f 354 615 614
f 354 614 353
f 353 614 622
f 625 338 626
f 625 626 624
f 351 352 623
f 623 352 622
f 622 352 353
f 335 336 618
f 618 336 337
f 618 337 627
f 622 628 623
f 623 629 351
f 351 629 343
f 351 343 349
f 351 349 350
f 350 349 347
f 616 338 630
f 630 338 625
f 630 625 343
f 343 625 624
f 627 337 616
f 627 616 628
f 628 616 630
f 628 630 623
f 623 630 629
f 629 630 343
f 632 631 633
f 632 633 634
f 636 631 637
f 637 631 632
f 637 632 621
f 621 632 634
f 621 634 620
f 620 634 617
f 617 634 635
f 617 635 359
f 356 635 357
f 357 635 615
f 615 635 634
f 615 634 614
f 614 634 633
f 614 633 622
f 622 633 631
f 622 631 628
f 628 631 627
f 627 631 636
f 627 636 618
f 618 636 619
f 638 507 640
f 640 507 510
f 509 512 640
f 640 512 638
f 638 512 511
f 638 511 639
f 639 511 514
f 503 642 500
f 503 500 501
f 503 501 502
f 500 641 499
f 498 499 641
f 957 641 500
f 957 500 642
f 644 643 426
f 426 643 425
f 425 643 424
f 644 645 643
f 643 645 423
f 428 646 429
f 430 429 646
f 430 646 427
f 646 647 427
f 644 426 647
f 646 648 647
f 647 648 644
f 644 825 645
f 494 496 495
f 495 496 654
f 652 649 495
f 653 652 495
f 653 495 654
f 651 654 496
f 651 496 650
f 655 656 657
f 655 446 656
f 655 444 445
f 655 445 446
f 661 447 662
f 662 447 448
f 662 448 811
f 811 448 660
f 663 662 811
f 659 811 660
f 659 660 658
f 658 660 449
f 493 664 665
f 493 665 491
f 491 665 666
f 491 666 492
f 492 666 667
f 459 668 458
f 668 456 457
f 668 457 458
f 454 453 451
f 451 453 452
f 451 452 455
f 460 668 459
f 670 489 671
f 672 482 484
f 483 673 481
f 674 478 480
f 674 480 675
f 675 476 477
f 674 477 479
f 475 476 676
f 747 475 679
f 673 677 678
f 678 677 676
f 676 677 679
f 676 679 475
f 683 483 672
f 672 483 482
f 680 681 682
f 682 669 683
f 485 488 681
f 485 681 680
f 485 680 484
f 484 680 682
f 484 682 672
f 672 682 683
f 477 674 675
f 675 480 481
f 481 673 675
f 675 673 678
f 675 678 676
f 675 676 476
f 488 487 486
f 488 486 681
f 681 486 670
f 681 670 682
f 682 670 669
f 669 670 671
f 683 684 483
f 483 684 685
f 483 685 673
f 673 685 686
f 673 686 677
f 774 775 464
f 471 469 467
f 467 469 774
f 467 774 468
f 468 774 464
f 468 464 466
f 687 55 621
f 621 55 8
f 621 8 58
f 621 58 53
f 621 53 637
f 637 53 60
f 637 60 636
f 636 60 61
f 636 61 64
f 636 64 619
f 619 64 63
f 687 810 55
f 290 645 227
f 227 645 688
f 227 688 226
f 226 688 805
f 259 689 260
f 689 690 260
f 260 690 691
f 689 259 692
f 256 693 257
f 257 693 694
f 257 694 692
f 257 692 259
f 256 695 693
f 695 256 262
f 695 262 433
f 443 696 38
f 38 696 39
f 656 46 657
f 697 698 46
f 46 698 657
f 49 700 701
f 49 701 699
f 48 700 49
f 700 48 663
f 663 48 662
f 662 48 47
f 662 47 661
f 661 47 51
f 661 51 447
f 9 7 702
f 449 10 658
f 658 10 9
f 9 702 658
f 124 865 126
f 126 865 490
f 127 899 703
f 127 703 125
f 125 703 704
f 899 127 666
f 666 127 123
f 666 123 667
f 667 123 129
f 667 129 492
f 664 134 133
f 133 138 705
f 133 705 664
f 137 652 706
f 137 706 139
f 652 136 135
f 652 135 649
f 649 135 141
f 649 141 495
f 136 652 137
f 145 120 707
f 496 146 650
f 650 146 145
f 145 707 708
f 145 708 650
f 839 816 37
f 37 816 535
f 692 694 433
f 709 434 439
f 436 435 437
f 437 435 438
f 438 435 440
f 709 439 435
f 435 439 440
f 695 433 693
f 693 433 694
f 709 711 434
f 710 692 433
f 710 433 711
f 435 713 709
f 709 714 711
f 711 714 712
f 566 565 685
f 685 565 686
f 686 565 561
f 686 561 677
f 685 729 567
f 685 718 715
f 685 567 566
f 684 716 717
f 684 717 685
f 685 717 718
f 561 723 719
f 561 679 677
f 685 715 720
f 560 721 722
f 560 722 561
f 561 722 723
f 561 719 724
f 683 725 684
f 684 725 716
f 720 726 685
f 685 726 727
f 685 728 729
f 569 818 560
f 560 818 721
f 724 730 561
f 561 730 731
f 561 732 679
f 683 733 734
f 683 734 725
f 685 727 735
f 685 735 728
f 569 736 737
f 569 737 818
f 669 671 683
f 683 671 738
f 683 738 733
f 561 731 739
f 561 739 732
f 563 564 569
f 569 564 740
f 569 740 736
f 112 776 472
f 475 747 474
f 731 786 739
f 750 334 119
f 587 332 333
f 587 333 334
f 587 334 574
f 574 334 751
f 753 304 751
f 238 305 753
f 753 305 304
f 428 431 646
f 646 431 648
f 754 644 648
f 754 648 755
f 719 723 762
f 748 724 760
f 760 724 719
f 760 719 761
f 761 719 762
f 739 764 732
f 732 764 747
f 732 747 679
f 474 747 764
f 474 764 765
f 765 785 112
f 774 469 470
f 668 766 455
f 455 766 778
f 455 778 767
f 767 450 451
f 769 118 770
f 770 118 450
f 770 450 771
f 771 450 768
f 787 119 769
f 769 119 118
f 748 730 724
f 764 739 765
f 765 739 786
f 765 786 785
f 776 112 784
f 784 112 785
f 775 774 473
f 775 473 776
f 776 473 472
f 777 776 784
f 777 784 773
f 783 745 746
f 773 746 184
f 773 184 777
f 777 184 465
f 777 465 776
f 776 465 775
f 774 470 473
f 767 451 455
f 460 461 668
f 668 461 462
f 668 462 766
f 766 462 778
f 778 462 463
f 778 463 745
f 745 463 186
f 745 186 746
f 746 186 184
f 757 780 795
f 757 795 794
f 757 794 758
f 758 794 759
f 792 783 746
f 792 746 773
f 224 238 743
f 743 238 753
f 743 753 744
f 744 753 752
f 450 767 768
f 768 767 778
f 768 778 771
f 771 778 745
f 771 745 770
f 770 745 783
f 770 783 769
f 769 783 787
f 780 802 756
f 780 756 788
f 788 756 755
f 750 751 334
f 303 574 304
f 304 574 751
f 751 750 753
f 753 750 119
f 753 119 752
f 752 119 787
f 752 787 744
f 742 741 789
f 789 741 790
f 789 790 749
f 772 741 742
f 791 742 789
f 791 789 792
f 792 789 779
f 792 779 793
f 793 779 794
f 772 748 741
f 741 748 760
f 741 760 790
f 790 760 761
f 790 761 762
f 790 762 749
f 749 762 763
f 794 779 759
f 759 779 781
f 781 779 789
f 781 789 749
f 781 749 782
f 648 431 755
f 755 431 432
f 755 432 788
f 788 432 224
f 788 224 780
f 780 224 743
f 780 743 795
f 795 743 744
f 795 744 794
f 794 744 787
f 794 787 793
f 793 787 783
f 793 783 792
f 791 792 773
f 791 773 742
f 742 773 784
f 742 784 772
f 772 784 785
f 772 785 748
f 748 785 786
f 748 786 730
f 730 786 731
f 836 842 796
f 807 806 226
f 810 687 617
f 810 617 808
f 808 617 809
f 809 617 359
f 621 617 687
f 810 833 55
f 659 658 702
f 811 700 663
f 700 811 701
f 697 812 813
f 697 813 698
f 698 813 814
f 698 814 657
f 444 655 443
f 443 655 815
f 39 696 815
f 815 696 443
f 533 535 562
f 564 562 535
f 564 535 817
f 817 535 816
f 818 819 721
f 819 820 721
f 721 820 722
f 722 820 821
f 722 821 723
f 723 821 762
f 763 782 749
f 782 823 781
f 781 823 822
f 781 822 759
f 801 756 802
f 801 825 754
f 801 754 755
f 801 755 756
f 825 688 645
f 754 825 644
f 802 780 824
f 824 780 757
f 824 757 803
f 803 757 822
f 822 757 758
f 822 758 759
f 55 827 7
f 828 799 829
f 847 830 826
f 826 830 831
f 826 831 827
f 827 831 832
f 827 832 7
f 7 832 702
f 829 833 806
f 829 806 828
f 828 806 807
f 808 809 804
f 808 804 833
f 833 804 806
f 810 808 833
f 55 833 829
f 55 829 827
f 827 829 799
f 827 799 826
f 826 799 800
f 826 800 847
f 697 699 812
f 812 699 797
f 812 797 834
f 699 701 797
f 797 701 798
f 798 835 702
f 837 836 796
f 837 796 838
f 837 838 39
f 39 838 839
f 841 842 843
f 763 840 782
f 782 840 841
f 782 841 848
f 848 841 843
f 844 845 834
f 834 845 812
f 843 842 836
f 843 836 844
f 844 836 845
f 845 836 837
f 845 837 812
f 812 837 39
f 812 39 813
f 813 39 815
f 813 815 814
f 814 815 655
f 814 655 657
f 828 846 799
f 799 846 800
f 847 848 849
f 847 849 830
f 740 564 817
f 740 817 816
f 740 816 736
f 736 816 839
f 736 839 737
f 737 839 838
f 737 838 818
f 818 838 819
f 819 838 796
f 819 796 842
f 819 842 820
f 820 842 841
f 820 841 821
f 821 841 840
f 821 840 762
f 762 840 763
f 688 825 801
f 688 801 805
f 805 801 802
f 805 802 226
f 226 802 824
f 226 824 807
f 807 824 803
f 807 803 828
f 828 803 822
f 828 822 846
f 846 822 800
f 800 822 823
f 800 823 847
f 847 823 782
f 847 782 848
f 849 848 843
f 849 843 844
f 849 844 830
f 830 844 834
f 830 834 831
f 831 834 797
f 831 797 832
f 832 797 798
f 832 798 702
f 702 835 659
f 659 835 798
f 659 798 811
f 811 798 701
f 918 851 852
f 858 691 690
f 689 859 690
f 711 860 710
f 738 862 863
f 125 864 895
f 125 895 124
f 671 489 490
f 738 671 490
f 738 490 862
f 862 490 865
f 738 863 733
f 733 863 866
f 733 866 734
f 734 867 725
f 725 867 868
f 725 868 716
f 716 868 869
f 869 870 716
f 716 870 871
f 716 871 717
f 717 871 872
f 717 872 718
f 874 873 875
f 877 878 879
f 880 877 881
f 711 712 860
f 860 712 861
f 860 861 882
f 882 861 947
f 882 947 881
f 881 947 946
f 882 859 860
f 860 859 689
f 860 689 710
f 710 689 692
f 883 258 884
f 884 258 691
f 885 589 886
f 886 589 887
f 887 589 320
f 885 570 589
f 326 888 149
f 890 650 708
f 891 654 890
f 890 654 651
f 890 651 650
f 892 706 653
f 653 706 652
f 653 654 892
f 892 654 891
f 892 891 706
f 706 891 893
f 893 139 706
f 894 895 138
f 138 895 896
f 138 896 705
f 705 896 897
f 705 897 898
f 705 898 664
f 666 665 899
f 899 900 703
f 703 900 704
f 864 125 900
f 900 125 704
f 901 850 902
f 902 850 903
f 903 850 904
f 904 905 874
f 874 905 928
f 874 928 873
f 873 928 879
f 873 879 876
f 876 879 878
f 908 907 889
f 908 889 149
f 149 889 120
f 909 855 910
f 913 912 914
f 906 911 907
f 907 911 912
f 907 912 889
f 889 912 913
f 889 913 120
f 120 913 914
f 120 914 707
f 910 883 909
f 909 883 884
f 887 320 321
f 887 321 886
f 886 321 857
f 886 857 883
f 883 857 321
f 883 321 258
f 326 885 888
f 888 885 886
f 888 886 883
f 888 883 149
f 149 883 910
f 149 910 908
f 908 910 855
f 908 855 907
f 907 855 856
f 907 856 906
f 138 139 894
f 894 139 853
f 894 853 915
f 915 853 916
f 139 893 853
f 853 893 854
f 919 918 852
f 919 852 920
f 919 920 895
f 895 920 124
f 124 920 921
f 124 921 865
f 923 924 925
f 901 922 850
f 850 922 923
f 850 923 930
f 930 923 925
f 926 927 916
f 916 927 915
f 915 927 894
f 924 851 925
f 925 851 918
f 925 918 926
f 926 918 927
f 927 918 919
f 927 919 894
f 894 919 895
f 895 864 896
f 896 864 900
f 896 900 897
f 897 900 899
f 897 899 898
f 898 899 665
f 898 665 664
f 909 928 855
f 855 928 856
f 856 929 906
f 906 929 930
f 906 930 931
f 906 931 911
f 911 931 932
f 863 862 865
f 863 865 866
f 866 865 921
f 866 921 734
f 734 921 920
f 734 920 867
f 867 920 868
f 868 920 852
f 868 852 851
f 868 851 869
f 869 851 870
f 870 851 924
f 870 924 871
f 871 924 923
f 871 923 872
f 872 923 922
f 872 922 901
f 690 859 882
f 690 882 858
f 858 882 881
f 858 881 691
f 691 881 877
f 691 877 884
f 884 877 879
f 884 879 909
f 909 879 928
f 928 905 856
f 856 905 904
f 856 904 929
f 929 904 850
f 929 850 930
f 931 930 925
f 931 925 932
f 932 925 926
f 932 926 911
f 911 926 916
f 911 916 912
f 912 916 853
f 912 853 914
f 914 853 854
f 914 854 707
f 707 854 917
f 707 917 708
f 708 917 890
f 890 917 854
f 890 854 891
f 891 854 893
f 936 935 937
f 12 976 515
f 727 941 735
f 720 942 953
f 713 435 441
f 713 441 709
f 861 712 714
f 880 881 946
f 948 873 949
f 949 873 876
f 949 876 878
f 948 874 875
f 948 875 873
f 715 718 872
f 942 720 950
f 950 720 951
f 951 720 715
f 951 715 952
f 952 715 943
f 943 715 872
f 943 872 901
f 735 940 728
f 728 940 729
f 729 940 568
f 519 954 518
f 954 955 518
f 518 955 13
f 13 990 12
f 516 973 517
f 638 639 513
f 956 506 89
f 641 957 978
f 641 978 958
f 960 497 959
f 4 497 962
f 962 497 963
f 963 497 960
f 992 5 961
f 961 5 4
f 966 342 967
f 271 345 966
f 966 345 342
f 953 726 720
f 519 568 940
f 519 940 954
f 954 940 955
f 955 940 735
f 955 735 13
f 13 735 941
f 13 941 990
f 976 12 969
f 969 12 990
f 988 971 972
f 974 973 516
f 974 516 975
f 975 516 515
f 975 515 976
f 977 976 969
f 977 969 972
f 972 969 988
f 970 938 971
f 971 938 939
f 971 939 972
f 972 939 88
f 972 88 977
f 977 88 508
f 977 508 976
f 976 508 975
f 975 508 974
f 974 508 507
f 974 507 973
f 973 507 638
f 973 638 513
f 973 513 517
f 978 979 938
f 978 959 958
f 958 959 498
f 958 498 641
f 642 504 505
f 642 505 957
f 957 505 506
f 957 506 978
f 978 506 956
f 978 956 979
f 979 956 89
f 979 89 938
f 938 89 939
f 939 89 88
f 948 983 874
f 874 983 984
f 874 984 904
f 904 984 985
f 904 985 903
f 986 970 987
f 987 970 971
f 987 971 988
f 989 988 969
f 989 969 990
f 991 990 941
f 991 941 727
f 265 271 935
f 935 271 966
f 935 966 937
f 937 966 965
f 960 959 978
f 960 978 963
f 963 978 938
f 963 938 962
f 962 938 4
f 4 938 970
f 4 970 961
f 961 970 992
f 992 970 986
f 714 944 861
f 861 944 945
f 861 945 947
f 947 945 993
f 947 993 946
f 946 993 878
f 946 878 880
f 880 878 877
f 5 994 341
f 341 994 964
f 341 964 340
f 340 964 624
f 340 624 339
f 339 624 626
f 344 624 342
f 342 624 964
f 342 964 967
f 967 964 994
f 967 994 966
f 966 994 5
f 966 5 965
f 965 5 992
f 965 992 937
f 937 992 936
f 943 902 995
f 995 902 980
f 995 980 934
f 934 933 995
f 995 933 996
f 995 996 943
f 968 933 997
f 997 933 934
f 997 934 998
f 998 934 980
f 998 980 999
f 999 980 981
f 999 981 1000
f 1000 981 982
f 1000 982 1001
f 968 953 942
f 968 942 933
f 933 942 950
f 933 950 951
f 933 951 996
f 996 951 952
f 996 952 943
f 943 901 902
f 878 1002 949
f 949 1002 1001
f 949 1001 948
f 948 1001 982
f 948 982 983
f 983 982 981
f 983 981 984
f 984 981 980
f 984 980 985
f 985 980 902
f 985 902 903
f 714 709 944
f 944 709 441
f 944 441 442
f 944 442 945
f 945 442 993
f 993 442 265
f 993 265 878
f 878 265 935
f 878 935 1002
f 1002 935 936
f 1002 936 1001
f 1001 936 992
f 1001 992 1000
f 1000 992 986
f 1000 986 999
f 999 986 987
f 999 987 998
f 998 987 988
f 998 988 997
f 997 988 989
f 997 989 968
f 968 989 990
f 968 990 953
f 953 990 991
f 953 991 726
f 726 991 727
