v -0.030879 -0.014183 0.035444
v -0.028017 -0.014181 0.039031
v -0.038827 -0.007758 0.028247
v -0.035456 -0.014183 0.032504
v -0.045539 0.010145 0.015186
v -0.047685 0.010392 0.0031052
v -0.047382 0.0098074 0.0082338
v -0.048088 0.010131 -0.0027992
v -0.047447 -0.007758 0.007558
v -0.047525 0.0097939 -0.0074799
v -0.045851 0.010145 -0.014514
v -0.035923 0.010463 -0.0034187
v -0.043057 0.010113 -0.021544
v -0.02745 0.010379 -0.023014
v -0.025693 0.012112 -0.014722
v -0.02524 0.017072 -0.014941
v -0.022479 0.012107 -0.01948
v -0.022992 0.011859 -0.019381
v -0.03575 0.011698 -0.032137
v -0.035199 0.011991 -0.032209
v -0.031655 0.01191 -0.035771
v -0.0069333 0.012126 -0.028958
v -0.015069 0.01033 -0.032327
v -0.0031922 0.01039 -0.035715
v -0.022641 0.010407 -0.027716
v -0.022099 0.010209 -0.042856
v -0.032084 0.010153 -0.036154
v -0.028214 0.0098142 -0.039198
v -0.031397 -0.014183 -0.036817
v -0.042747 -0.010787 -0.022233
v -0.045789 -0.007758 -0.014793
v -0.047508 -0.007758 -0.00746
v -0.04577 -0.010683 -0.014852
v -0.045789 -0.014045 -0.014793
v -0.045831 -0.014183 -0.014661
v -0.04577 -0.013983 -0.014852
v -0.044519 -0.014149 -0.014232
v -0.045292 -0.011107 -0.014626
v -0.043495 -0.010877 -0.015488
v -0.040178 -0.010863 -0.018601
v -0.041228 -0.010988 -0.016071
v -0.041341 -0.010182 -0.02002
v -0.032873 -0.010183 -0.033204
v -0.040154 -0.010183 -0.017882
v -0.027479 -0.010183 -0.037834
v -0.021446 -0.010183 -0.041592
v -0.021335 -0.010683 -0.041646
v -0.021446 -0.014106 -0.041592
v -0.021514 -0.014183 -0.041556
v -0.021335 -0.013983 -0.041646
v -0.030325 -0.014183 -0.035674
v -0.022015 -0.014155 -0.04299
v -0.021918 -0.011122 -0.042942
v -0.01524 0.0098118 -0.04587
v -0.012636 0.010155 -0.046238
v -0.0031146 0.010257 -0.046237
v -0.0022 0.011405 -0.0464
v 0.003351 0.0103 -0.04624
v 0.0026998 0.011946 -0.0459
v 0.0029843 0.011567 -0.04626
v 0.0030181 0.011719 -0.03246
v -0.0022871 0.012083 -0.02984
v -0.0028382 0.011372 -0.033169
v -0.0027211 0.011554 -0.03547
v -0.0025778 0.01187 -0.045908
v -0.002702 0.011592 -0.032836
v -0.002731 0.011536 -0.033255
v -0.002759 0.011471 -0.033753
v -0.002746 0.011505 -0.033498
v -0.002739 0.01152 -0.03338
v -0.002735 0.011527 -0.033324
v -0.002733 0.011533 -0.033283
v -0.002734 0.011531 -0.033296
v -0.013104 0.01208 -0.026721
v -0.0073332 0.017072 -0.028585
v -0.014647 0.017283 -0.025468
v 0.00018394 0.017094 -0.029524
v 0.029561 0.017094 -0.00014702
v 0.028622 0.017072 0.0073703
v 0.020958 0.017094 -0.02092
v -0.020589 0.017094 -0.020919
v 0.025608 0.017072 -0.014942
v 0.028622 0.017072 -0.0076643
v 0.021066 0.016962 0.020617
v -0.0075769 0.016956 0.028257
v 0.0077013 0.017072 -0.028585
v 0.014979 0.017072 -0.025571
v 0.01946 0.01206 -0.022916
v 0.013582 0.012123 -0.026715
v 0.021998 0.01113 -0.026334
v 0.022874 0.012114 -0.019504
v 0.026426 0.012129 -0.014106
v 0.028935 0.012123 -0.0074879
v 0.024204 0.011653 -0.019996
v 0.036154 0.010479 -0.031558
v 0.036199 0.010143 -0.032377
v 0.035992 0.011699 -0.032275
v 0.032125 0.011581 -0.03607
v 0.032063 0.011863 -0.035823
v 0.035435 0.012017 -0.032357
v 0.023272 0.010549 -0.027761
v 0.031595 0.010441 -0.036145
v 0.02843 0.0098174 -0.039302
v 0.032192 0.010097 -0.036254
v 0.02233 0.010204 -0.042947
v 0.012391 0.009817 -0.046397
v 0.014935 -0.010837 -0.046083
v 0.014245 -0.014161 -0.044713
v 0.012142 -0.010183 -0.044897
v 0.014273 -0.010512 -0.044627
v 0.015494 -0.010858 -0.043753
v 0.015421 -0.010183 -0.043724
v 0.015689 -0.010183 -0.041594
v 0.015811 -0.010906 -0.041666
v 0.017979 -0.010183 -0.040552
v -0.011774 -0.010183 0.044603
v 0.015656 -0.010351 0.041246
v -0.015275 -0.010183 0.041417
v 0.040569 -0.010183 0.017471
v -0.015052 -0.010183 0.043431
v -0.01402 -0.010527 0.044319
v -0.014555 -0.010885 0.045788
v -0.013877 -0.014157 0.044419
v 0.012688 -0.014182 0.046099
v 0.014244 -0.014159 0.044401
v 0.014212 -0.010425 0.044379
v 0.015527 -0.01087 0.043379
v 0.015395 -0.010184 0.04354
v 0.015961 -0.010987 0.041404
v 0.019948 -0.01087 0.041482
v 0.01864 -0.010863 0.040229
v 0.018464 -0.010183 0.040131
v 0.021814 -0.010183 0.041298
v 0.027848 -0.010183 0.03754
v 0.030691 -0.014183 0.035381
v 0.021814 -0.014106 0.041298
v 0.021883 -0.014183 0.041263
v 0.033241 -0.010183 0.03291
v 0.041626 -0.010181 0.019665
v 0.041827 -0.01416 0.021564
v 0.031767 -0.014183 0.036521
v 0.039702 -0.014181 0.027587
v 0.04078 -0.010184 0.023215
v 0.043042 -0.014103 0.022022
v 0.041994 -0.010807 0.020949
v 0.043079 -0.010809 0.021914
v 0.045661 -0.011107 0.014332
v 0.044745 -0.013983 0.013981
v 0.044785 -0.014106 0.013865
v 0.044745 -0.010683 0.013981
v 0.046166 -0.014132 0.014459
v 0.046138 -0.010978 0.014738
v 0.04784 -0.014179 0.007525
v 0.046122 0.010162 0.014502
v 0.039455 0.01013 0.027845
v 0.036241 0.010125 0.032016
v 0.028583 0.0098143 0.038904
v 0.043359 0.0097909 0.02164
v 0.047829 0.0098204 0.0077246
v 0.048475 0.010174 0.0022762
v 0.047815 -0.007758 -0.007852
v 0.048466 -0.014183 -0.0024078
v 0.046126 -0.010808 -0.014853
v 0.041917 -0.010869 -0.02019
v 0.04056 -0.010861 -0.018576
v 0.033241 -0.010183 -0.033204
v 0.020187 -0.010181 -0.041661
v 0.040506 -0.010183 -0.018398
v 0.040589 -0.010183 -0.017942
v 0.041338 -0.010183 -0.016135
v 0.041601 -0.010183 0.015459
v 0.041627 -0.010384 -0.01555
v 0.043868 -0.01086 0.015185
v 0.04172 -0.010896 0.015457
v 0.044785 -0.010183 0.013865
v 0.046394 -0.010183 0.006941
v 0.043686 -0.010181 0.015064
v 0.044808 -0.014183 0.013791
v 0.046934 -0.010183 -0.000147
v 0.046965 -0.014183 0.0027738
v 0.044913 -0.014183 -0.014132
v 0.045604 -0.010182 -0.011894
v 0.043874 -0.010182 -0.015395
v 0.043947 -0.010879 -0.015422
v 0.044781 -0.01083 -0.014296
v 0.046153 -0.014069 -0.014827
v 0.041877 -0.010985 -0.015863
v 0.040567 -0.010883 0.018325
v 0.018587 -0.01076 -0.040458
v 0.021814 -0.010183 -0.041592
v 0.027848 -0.010183 -0.037834
v 0.020073 -0.010879 -0.041805
v 0.021749 -0.010854 -0.0418
v 0.02227 -0.01092 -0.043007
v 0.021703 -0.013983 -0.041646
v 0.022375 -0.01413 -0.042987
v 0.021703 -0.010683 -0.041646
v 0.021814 -0.014106 -0.041592
v 0.021883 -0.014183 -0.041556
v 0.030691 -0.014183 -0.035676
v 0.028278 -0.01418 -0.03941
v 0.035824 -0.014183 -0.032798
v 0.039195 -0.007758 -0.028541
v 0.043272 0.010143 -0.021815
v 0.039711 0.0097982 -0.02792
v 0.04603 0.010135 -0.015116
v 0.047773 0.0098232 -0.0083216
v 0.035921 0.010385 -0.0034848
v 0.027842 0.010394 -0.023077
v 0.030262 0.011872 -0.0029207
v 0.03295 0.011572 -0.0030447
v 0.044993 0.011592 -0.003033
v 0.044993 0.011903 -0.002722
v 0.047892 0.011936 0.0024153
v 0.032696 0.011677 0.0027087
v 0.048299 0.011291 0.0026207
v 0.047788 0.010373 0.0033548
v 0.028192 0.012138 0.0096253
v 0.035883 0.010395 0.0031843
v 0.037038 0.012017 -0.002297
v 0.02992 0.012052 0.0023663
v 0.029722 0.012364 -0.0026097
v 0.025656 0.017022 0.01459
v 0.02607 0.012109 0.014416
v 0.026141 0.011338 0.021581
v 0.027845 0.010587 0.023008
v 0.027859 0.011709 0.02352
v 0.036212 0.010458 0.031249
v 0.036075 0.01165 0.031796
v 0.035679 0.011967 0.031844
v 0.032156 0.011551 0.035866
v 0.031816 0.010365 0.035984
v 0.022461 0.010202 0.042591
v 0.011914 0.012079 0.027225
v 0.017618 0.012321 0.023768
v 0.015033 0.016985 0.025271
v 0.019536 0.012026 0.022695
v 0.022928 0.012086 0.019105
v 0.019486 0.011827 0.023185
v 0.023323 0.011778 0.026945
v 0.023084 0.010403 0.027443
v 0.0077759 0.017022 0.028284
v 0.0083014 0.012442 0.02834
v 0.0030086 0.012149 0.029414
v 0.00018323 0.016952 0.029293
v -0.0020924 0.012415 0.029407
v -0.0068977 0.012292 0.028613
v -0.0031852 0.010386 0.03541
v -0.0026438 0.011883 0.029865
v -0.012688 0.010167 0.045945
v -0.014429 0.016974 0.025413
v -0.010549 0.012068 0.027553
v -0.022695 0.010407 0.027422
v -0.024908 0.011652 0.029053
v -0.032181 0.011456 0.035645
v -0.029438 0.011592 0.033557
v -0.0353 0.011965 0.031832
v -0.025664 0.011734 0.021705
v -0.01936 0.012557 0.02211
v -0.020588 0.017094 0.020626
v -0.025239 0.017072 0.014647
v -0.028254 0.017072 0.0073713
v -0.026361 0.012085 0.013198
v -0.029384 0.012359 0.0021649
v -0.028623 0.012126 0.0069824
v -0.022971 0.011929 0.019176
v -0.0226 0.012243 0.018871
v -0.027335 0.010407 0.02269
v -0.038848 0.01014 0.028157
v -0.033212 0.010332 0.012326
v -0.03585 0.010425 0.031264
v -0.035768 0.011596 0.031818
v -0.035853 0.010131 0.032059
v -0.031637 0.011914 0.035513
v -0.042587 0.009823 0.02226
v -0.029839 0.011919 0.0025002
v -0.035432 0.010403 0.0031632
v -0.032593 0.011556 -0.0030537
v -0.048031 0.011487 -0.002517
v -0.047516 0.011947 -0.0027142
v -0.048008 0.011446 0.0022776
v -0.047515 0.011864 0.0025957
v -0.032251 0.011546 0.0027706
v -0.047492 0.010458 -0.0033765
v -0.029725 0.011959 -0.0027595
v -0.029336 0.012472 -0.0026379
v -0.029193 0.017094 -0.0001471
v -0.028254 0.017072 -0.0076641
v -0.028179 0.012137 -0.008945
v -0.035274 0.010344 -0.0037899
v -0.01654 0.012032 0.024431
v -0.019176 0.011979 0.022834
v -0.021184 0.011597 0.025284
v -0.028064 0.0098174 0.039007
v -0.031352 0.010428 0.035997
v -0.021933 0.010212 0.04264
v -0.015237 0.0098135 0.045576
v -0.014283 -0.014192 0.04594
v 0.0033682 0.010296 0.045942
v 0.0025799 0.011461 0.046105
v -0.0030247 0.010324 0.045954
v -0.0023809 0.011909 0.04562
v 0.0029172 0.011916 0.045569
v 0.002764 0.011961 0.029836
v 0.0035035 0.01131 0.031523
v 0.0035147 0.010393 0.035593
v 0.0030897 0.011555 0.035084
v 0.0031818 0.011414 0.032888
v 0.003128 0.011471 0.033459
v 0.0031 0.011536 0.032962
v 0.003114 0.011505 0.033204
v 0.00307 0.011592 0.032543
v 0.003107 0.01152 0.033086
v -0.0026571 0.011591 0.045878
v 0.014989 0.010089 0.045738
v 0.014911 -0.010847 0.045772
v 0.022269 -0.010907 0.042734
v 0.022327 -0.014133 0.042727
v 0.021703 -0.013983 0.041352
v 0.021703 -0.010683 0.041352
v 0.021713 -0.010835 0.041551
v 0.0201 -0.010183 0.041499
v 0.014808 -0.014108 0.045809
v -0.021912 -0.010858 0.042733
v -0.021956 -0.014115 0.042716
v -0.020288 -0.01086 0.041948
v -0.021638 -0.010384 0.041815
v -0.021615 -0.01415 0.04176
v -0.030992 -0.010183 0.035276
v -0.032873 -0.010183 0.03291
v -0.018161 -0.010183 0.040046
v -0.017996 -0.010957 0.040207
v -0.02009 -0.010345 0.04183
v -0.015412 -0.010856 0.041339
v -0.015158 -0.010899 0.043521
v -0.041233 -0.010183 -0.015753
v -0.041134 -0.010183 0.015552
v -0.040191 -0.010917 0.018198
v -0.04008 -0.010183 0.018277
v -0.04026 -0.010182 0.023632
v -0.042736 -0.010793 0.021945
v -0.042676 -0.014103 0.022023
v -0.041387 -0.014143 0.021501
v -0.041357 -0.010829 0.021381
v -0.045671 -0.011012 0.01447
v -0.041488 -0.01072 0.020009
v -0.04358 -0.010879 0.015128
v -0.044376 -0.010683 0.013981
v -0.044376 -0.013983 0.013981
v -0.044417 -0.014106 0.013865
v -0.045798 -0.014103 0.014484
v -0.048097 -0.014183 0.0021184
v -0.04444 -0.014183 0.013791
v -0.046597 -0.014183 0.0027643
v -0.046025 -0.010183 0.006941
v -0.044417 -0.010183 0.013865
v -0.046566 -0.010183 -0.000147
v -0.043506 -0.010182 0.015101
v -0.041615 -0.010183 0.015245
v -0.041341 -0.010825 0.015367
v -0.041296 -0.010362 -0.015514
v -0.045227 -0.010182 -0.011941
v -0.047508 -0.014183 -0.00746
v -0.044088 -0.010265 -0.014871
v -0.015118 0.01033 0.032009
v 0.032134 0.011945 0.035371
v 0.027925 0.010353 0.022485
v 0.048063 0.0119 -0.0026763
v 0.048063 0.010429 -0.0033553
v 0.041659 -0.014263 -0.022173
v 0.040911 -0.010183 -0.023298
v 0.041698 -0.010181 -0.020148
v 0.041724 -0.010829 -0.021677
v 0.042782 -0.014061 -0.022163
v 0.043087 -0.010887 -0.022224
v -0.013841 -0.010402 -0.044678
v -0.015262 -0.010183 -0.041671
v -0.014882 -0.010183 -0.043973
v -0.015107 -0.010882 -0.043841
v -0.014555 -0.010885 -0.046083
v -0.020151 -0.010838 -0.041906
v -0.019729 -0.010183 -0.041793
v -0.018472 -0.010326 -0.040423
v -0.018087 -0.010931 -0.040581
v -0.015383 -0.0109 -0.041669
v -0.014268 -0.014193 -0.046257
v -0.013877 -0.014155 -0.044695
v 0.015519 0.010149 -0.045858
v 0.0028967 0.012256 -0.029677
v 0.0034972 0.010402 -0.035728
v 0.0028984 0.011912 -0.030209
v 0.0073576 0.012466 -0.028843
v 0.022778 0.01035 -0.02791
v 0.027854 0.011715 -0.023815
v -0.019024 0.012093 -0.022919
v -0.041459 -0.014159 -0.021857
v -0.039342 -0.014181 -0.027869
v -0.042674 -0.014103 -0.022315
v -0.040424 -0.010183 -0.023496
v -0.041485 -0.010857 -0.020077
v -0.04144 -0.010775 -0.021623
v -0.039345 0.0098223 -0.027875
v -0.035755 0.010528 -0.031542
v -0.035937 0.010076 -0.03214
v -0.032177 0.011447 -0.035939
v -0.023498 0.011731 -0.02783
v -0.019027 0.01185 -0.023489
v -0.031245 0.010448 -0.03616
v -0.016502 -0.019683 -0.023295
v -0.016108 -0.014296 -0.02246
v -0.016427 -0.014165 -0.023204
v -0.018761 -0.014188 -0.020498
v -0.020348 -0.014015 -0.019203
v -0.021388 -0.014396 -0.017449
v -0.021903 -0.021428 -0.016921
v -0.02165 -0.022572 -0.015713
v -0.016269 -0.022531 -0.020437
v -0.014919 -0.022099 -0.020569
v -0.017076 -0.020937 -0.021538
v -0.015135 -0.020684 -0.020657
v -0.015948 -0.020683 -0.022064
v -0.016678 -0.02316 -0.023285
v -0.014284 -0.023673 -0.021551
v -0.02221 -0.023572 -0.017282
v -0.022719 -0.022435 -0.018331
v -0.025194 -0.022469 -0.01903
v -0.026588 -0.022605 -0.017364
v -0.030597 -0.023179 -0.0073658
v -0.030732 -0.022683 -0.0073061
v -0.024947 -0.022545 0.0092821
v -0.021784 -0.02249 0.011234
v -0.020216 -0.022389 0.011832
v 0.008413 -0.022683 -0.02148
v -0.018862 -0.022683 0.013341
v 0.0093824 -0.022291 -0.021878
v -0.0076832 -0.022617 -0.022134
v -0.008323 -0.022051 -0.02236
v -0.010016 -0.020683 -0.021918
v -0.0077867 -0.019833 -0.023379
v -0.010199 -0.019833 -0.02184
v -0.007775 -0.022072 -0.023685
v -0.0078545 -0.022424 -0.024494
v -0.0081605 -0.021909 -0.025877
v 0.00017782 -0.022565 -0.02638
v 0.008015 -0.022391 -0.023499
v 0.0086778 -0.021328 -0.026025
v 0.0088707 -0.019835 -0.026116
v 0.0037486 -0.021397 -0.027352
v -0.0019971 -0.021509 -0.027474
v -0.0024392 -0.014351 -0.027651
v -0.00084007 -0.014175 -0.028141
v -0.0090037 -0.014349 -0.026246
v -0.012255 -0.019827 -0.02455
v -0.013496 -0.020683 -0.024012
v -0.013601 -0.01427 -0.024129
v -0.01283 -0.012688 -0.028301
v -0.019598 -0.014183 -0.038024
v -0.017343 -0.014183 -0.038434
v -0.014302 -0.019682 -0.024818
v -0.014094 -0.014175 -0.024734
v -0.017685 -0.016331 -0.02312
v -0.011316 -0.016302 -0.026894
v -0.014285 -0.022371 -0.025181
v -0.0045354 -0.01587 -0.029032
v -0.0013324 -0.02233 -0.029059
v -0.0083666 -0.022342 -0.027812
v 0.0055885 -0.023078 -0.028361
v 0.012422 -0.022777 -0.026239
v 0.010291 -0.0163 -0.027454
v 0.0033431 -0.015787 -0.029856
v 0.0030946 -0.016301 -0.029118
v 0.0036171 -0.015525 -0.046239
v -0.014754 -0.015507 -0.042704
v -0.015304 -0.015671 -0.045528
v -0.012088 -0.015565 -0.046282
v -0.015068 -0.015303 -0.045952
v -0.014546 -0.011052 -0.046098
v -0.014519 -0.014183 -0.046093
v -0.014921 -0.012487 -0.042067
v -0.015734 -0.015222 -0.045456
v -0.016962 -0.012478 -0.040066
v -0.015768 -0.015582 -0.040535
v -0.017807 -0.015508 -0.040054
v -0.019347 -0.014968 -0.04089
v -0.019928 -0.015634 -0.040465
v -0.019199 -0.012483 -0.040865
v -0.020791 -0.012496 -0.043386
v -0.02043 -0.015074 -0.043005
v -0.015734 -0.012453 -0.045658
v -0.021862 -0.011038 -0.043068
v -0.021912 -0.014183 -0.04304
v -0.021385 -0.012683 -0.041702
v -0.021377 -0.014183 -0.041587
v -0.032148 -0.014185 -0.036168
v -0.03062 -0.014183 -0.035182
v -0.030542 -0.012683 -0.035116
v -0.029189 -0.014183 -0.033839
v -0.029281 -0.012683 -0.033886
v -0.020491 -0.013433 -0.039609
v -0.019614 -0.01102 -0.03804
v -0.026665 -0.014183 -0.031065
v -0.030706 -0.011261 -0.035238
v -0.026636 -0.011213 -0.030926
v -0.02717 -0.012684 -0.029758
v -0.033906 -0.011183 -0.030206
v -0.031225 -0.011243 -0.027373
v -0.030796 -0.011183 -0.035158
v -0.034926 -0.011333 -0.031015
v -0.034785 -0.012683 -0.030873
v -0.034827 -0.011183 -0.031127
v -0.033555 -0.012683 -0.029612
v -0.033508 -0.014183 -0.02952
v -0.039239 -0.013883 -0.020851
v -0.042769 -0.011003 -0.022176
v -0.043111 -0.012476 -0.021124
v -0.04576 -0.01103 -0.014901
v -0.045273 -0.012486 -0.015909
v -0.042452 -0.014974 -0.015142
v -0.041604 -0.012489 -0.015331
v -0.040141 -0.015549 -0.016148
v -0.039903 -0.01248 -0.016814
v -0.039856 -0.015436 -0.018894
v -0.042674 -0.014946 -0.020746
v -0.031826 -0.0156 -0.036189
v -0.040104 -0.01563 -0.020207
v -0.015042 -0.015744 -0.025847
v -0.022853 -0.015749 -0.019079
v -0.022733 -0.016274 -0.018534
v -0.025439 -0.015891 -0.019394
v -0.026283 -0.022618 -0.018257
v -0.022618 -0.014258 -0.017234
v -0.026094 -0.014267 -0.018689
v -0.028361 -0.014334 -0.013324
v -0.030569 -0.015683 -0.007923
v -0.028289 -0.012683 -0.013294
v -0.029266 -0.012683 -0.010993
v -0.030832 -0.014301 -0.0075024
v -0.030723 -0.015683 -0.007002
v -0.030422 -0.014278 -0.001397
v -0.030384 -0.012764 -0.0013979
v -0.030208 -0.012811 0.0011027
v -0.039579 -0.014183 0.0012083
v -0.029719 -0.014217 0.01076
v -0.040677 -0.014183 0.0027733
v -0.039531 -0.014183 -0.0014871
v -0.040087 -0.012683 -0.0017461
v -0.040503 -0.011231 -0.0029669
v -0.043547 -0.011183 0.002703
v -0.040084 -0.012684 0.0014547
v -0.040939 -0.011333 0.0028365
v -0.040447 -0.011198 0.0024026
v -0.046269 -0.012683 0.002853
v -0.046469 -0.011333 0.002853
v -0.046447 -0.014183 -0.0031657
v -0.046479 -0.011183 0.002703
v -0.046479 -0.011183 -0.002997
v -0.046269 -0.012683 -0.003147
v -0.046472 -0.011229 -0.0030923
v -0.040629 -0.014183 -0.0030478
v -0.044508 -0.012683 -0.0031692
v -0.044265 -0.014183 -0.003147
v -0.042455 -0.013883 -0.013466
v -0.044452 -0.012683 -0.014278
v -0.044194 -0.014183 -0.014199
v -0.04582 -0.014176 -0.014859
v -0.045548 -0.015358 -0.015432
v -0.044592 -0.015097 -0.015846
v -0.044945 -0.01556 -0.015402
v -0.042529 -0.015636 -0.01443
v -0.045713 -0.015321 0.014776
v -0.04584 -0.01417 0.014525
v -0.045336 -0.012478 0.015571
v -0.045827 -0.010993 0.014693
v -0.044452 -0.012683 0.013986
v -0.044365 -0.014183 0.013909
v -0.046337 -0.014183 0.0028475
v -0.044508 -0.012683 0.0028752
v -0.042455 -0.013883 0.013172
v -0.044265 -0.014183 0.002853
v -0.041103 -0.014183 0.012676
v -0.040448 -0.014183 0.012895
v -0.040473 -0.011064 0.012653
v -0.040083 -0.012683 0.013447
v -0.039081 -0.012683 0.016117
v -0.037901 -0.012683 0.018714
v -0.037943 -0.012683 0.018623
v -0.037939 -0.014183 0.017208
v -0.037653 -0.011059 0.019583
v -0.042743 -0.011019 0.021886
v -0.042751 -0.014169 0.021986
v -0.043118 -0.012474 0.020898
v -0.042312 -0.012483 0.014938
v -0.044724 -0.014909 0.015621
v -0.042425 -0.014967 0.014851
v -0.040253 -0.012483 0.015869
v -0.029988 -0.015827 0.011001
v -0.029589 -0.016168 0.010386
v -0.025901 -0.013693 0.010302
v -0.029575 -0.02235 0.009917
v -0.029411 -0.023127 0.0099399
v -0.028879 -0.023652 0.0093011
v -0.026121 -0.023561 0.01034
v -0.03018 -0.023586 -0.0072991
v -0.02563 -0.023566 -0.017965
v 0.01942 -0.023642 -0.020316
v 0.026324 -0.023578 -0.0097118
v 0.01852 -0.022352 -0.022517
v 0.016855 -0.016293 -0.024025
v 0.023417 -0.022358 -0.017364
v 0.02722 -0.022429 -0.010606
v 0.027807 -0.022395 -0.0098587
v 0.028003 -0.015806 -0.010191
v 0.027195 -0.016332 -0.010737
v 0.026874 -0.015694 -0.014199
v 0.02989 -0.02231 -0.0094547
v 0.030287 -0.021401 -0.0085873
v 0.030403 -0.015977 -0.0085068
v 0.029874 -0.016212 -0.0095899
v 0.03069 -0.015726 -0.010006
v 0.047789 -0.015683 0.003574
v 0.04049 -0.015637 -0.020254
v 0.016977 -0.015744 -0.02489
v 0.022254 -0.016273 -0.019167
v 0.025958 -0.016064 -0.013751
v 0.040018 -0.015556 -0.017443
v 0.040446 -0.012483 -0.01911
v 0.040919 -0.014968 -0.019672
v 0.04062 -0.012483 -0.016166
v 0.043485 -0.012477 -0.021203
v 0.04268 -0.012483 -0.015232
v 0.041722 -0.015518 -0.015076
v 0.042794 -0.014966 -0.015145
v 0.045791 -0.015555 -0.015488
v 0.045027 -0.014825 -0.015913
v 0.045728 -0.015111 -0.015573
v 0.046208 -0.01417 -0.014818
v 0.046195 -0.010993 -0.014986
v 0.040841 -0.011064 -0.012948
v 0.040416 -0.012683 -0.013835
v 0.040452 -0.012683 -0.013741
v 0.039449 -0.012683 -0.016411
v 0.03827 -0.012683 -0.019008
v 0.038311 -0.013433 -0.018916
v 0.038311 -0.012683 -0.018916
v 0.039478 -0.012683 -0.014795
v 0.038328 -0.012683 -0.017575
v 0.038309 -0.014183 -0.017503
v 0.038005 -0.014183 -0.019812
v 0.031172 -0.014183 -0.026995
v 0.039758 -0.014183 -0.020928
v 0.041739 -0.012683 -0.021716
v 0.039862 -0.012683 -0.020936
v 0.033736 -0.013433 -0.029456
v 0.035153 -0.012683 -0.030873
v 0.035219 -0.014183 -0.030951
v 0.035295 -0.011333 -0.031015
v 0.034401 -0.011234 -0.030196
v 0.03015 -0.011183 -0.034143
v 0.035195 -0.011183 -0.031127
v 0.031165 -0.011183 -0.035158
v 0.03091 -0.012683 -0.035116
v 0.031052 -0.011333 -0.035257
v 0.029649 -0.012683 -0.033886
v 0.029557 -0.014183 -0.033839
v 0.020859 -0.013433 -0.039609
v 0.019966 -0.014183 -0.038024
v 0.027319 -0.014183 -0.029177
v 0.02721 -0.011219 -0.030485
v 0.027529 -0.012683 -0.029755
v 0.026993 -0.014183 -0.031058
v 0.021228 -0.012686 -0.022959
v 0.015647 -0.014278 -0.023093
v 0.019254 -0.014001 -0.020692
v 0.022741 -0.012781 -0.020862
v 0.020681 -0.014111 -0.019225
v 0.02199 -0.0144 -0.017047
v 0.02227 -0.021279 -0.016442
v 0.017803 -0.021283 -0.021245
v 0.019491 -0.014356 -0.019847
v 0.011768 -0.014195 -0.025456
v 0.0099531 -0.013882 -0.026434
v 0.013125 -0.012758 -0.027978
v 0.017937 -0.012684 -0.038553
v 0.010895 -0.012687 -0.029271
v 0.014867 -0.014183 -0.039625
v 0.011973 -0.013671 -0.025691
v 0.0033442 -0.014339 -0.027631
v 0.0098734 -0.014189 -0.026368
v -0.0011499 -0.0133 -0.028663
v -0.0012236 -0.014183 -0.040056
v 0.0012265 -0.014026 -0.028142
v 0.001434 -0.012691 -0.031138
v 0.001539 -0.014183 -0.039859
v 0.001786 -0.012684 -0.040365
v 0.0030118 -0.011226 -0.040835
v -0.0014119 -0.012684 -0.040377
v -0.0026995 -0.014183 -0.040924
v -0.0026092 -0.011228 -0.040768
v -0.0028411 -0.011408 -0.044777
v 0.0032342 -0.011584 -0.044755
v 0.003184 -0.013183 -0.042697
v 0.0030659 -0.014183 -0.04093
v 0.013455 -0.012683 -0.042642
v 0.014238 -0.012683 -0.044541
v 0.013446 -0.014183 -0.04263
v 0.013042 -0.011026 -0.040899
v 0.014932 -0.011034 -0.046092
v 0.016098 -0.012471 -0.045656
v 0.014813 -0.014176 -0.046195
v 0.015937 -0.015296 -0.045719
v 0.014225 -0.014183 -0.044572
v 0.003184 -0.014183 -0.044763
v -0.002816 -0.014183 -0.04473
v -0.013856 -0.014183 -0.044542
v -0.01388 -0.012683 -0.044571
v -0.013081 -0.012683 -0.042629
v -0.013078 -0.014183 -0.042643
v -0.012612 -0.014183 -0.040916
v -0.012662 -0.011012 -0.040915
v -0.014494 -0.014183 -0.039616
v -0.01757 -0.012684 -0.038553
v -0.014418 -0.012684 -0.03986
v -0.010521 -0.012691 -0.029257
v -0.0095704 -0.014055 -0.026404
v -0.011519 -0.01395 -0.025624
v -0.002816 -0.013183 -0.042697
v 0.013639 -0.015571 -0.046254
v 0.006287 -0.015683 -0.045897
v 0.015928 -0.015631 -0.045344
v 0.015126 -0.015496 -0.042775
v 0.015236 -0.012484 -0.041724
v 0.019797 -0.015028 -0.040956
v 0.01846 -0.012487 -0.040098
v 0.020785 -0.014858 -0.043039
v 0.022054 -0.01527 -0.043181
v 0.021578 -0.01565 -0.04309
v 0.022446 -0.014176 -0.043194
v 0.027767 -0.015423 -0.039777
v 0.020662 -0.015635 -0.041029
v 0.042968 -0.01568 -0.02203
v 0.034667 -0.015578 -0.033896
v 0.0353 -0.014184 -0.033412
v 0.043118 -0.014166 -0.022261
v 0.043315 -0.015351 -0.021392
v 0.042883 -0.01556 -0.021271
v 0.04287 -0.015016 -0.020631
v 0.045707 -0.012478 -0.015851
v 0.043111 -0.011019 -0.022179
v 0.040493 -0.015481 -0.026668
v 0.041624 -0.014183 -0.021708
v 0.018322 -0.015496 -0.040038
v 0.015789 -0.015597 -0.04079
v 0.031019 -0.014183 -0.035252
v 0.021628 -0.014183 -0.041464
v 0.021754 -0.012683 -0.041702
v 0.022267 -0.010989 -0.043047
v 0.021164 -0.012486 -0.043422
v 0.019892 -0.011033 -0.038047
v 0.017712 -0.014183 -0.038434
v 0.014805 -0.012684 -0.039837
v 0.012977 -0.014183 -0.040919
v 0.021512 -0.01512 -0.043263
v 0.012393 -0.019834 -0.024633
v 0.010717 -0.019834 -0.021955
v 0.011989 -0.021722 -0.023958
v 0.011258 -0.022485 -0.022256
v 0.012443 -0.022572 -0.023346
v 0.01293 -0.021431 -0.024354
v 0.021004 -0.022553 -0.01662
v 0.025906 -0.021394 -0.0098279
v 0.025676 -0.022544 -0.0078923
v 0.026702 -0.02143 -0.0087092
v 0.02647 -0.014166 -0.0098358
v 0.026056 -0.014445 -0.0095972
v 0.02725 -0.01427 -0.008813
v 0.030367 -0.014268 -0.0087609
v 0.030355 -0.014322 -0.0013973
v 0.030337 -0.01281 -0.0013972
v 0.0399 -0.014183 0.0011935
v 0.030366 -0.012868 0.001103
v 0.030365 -0.0143 0.001103
v 0.026818 -0.014315 0.0081303
v 0.029295 -0.012688 0.010558
v 0.039349 -0.014183 0.014529
v 0.025477 -0.014201 0.011407
v 0.022765 -0.021896 0.015203
v 0.018364 -0.021327 0.020398
v 0.022195 -0.014503 0.016564
v 0.013103 -0.021385 0.024036
v 0.012428 -0.019836 0.024277
v 0.019238 -0.014177 0.020533
v 0.019453 -0.014262 0.019902
v 0.020838 -0.013671 0.018919
v 0.020856 -0.014194 0.018901
v 0.029416 -0.014183 0.027103
v 0.031174 -0.014183 0.026703
v 0.02979 -0.012684 0.027194
v 0.027537 -0.012683 0.029463
v 0.027443 -0.014183 0.029101
v 0.017501 -0.014183 0.037925
v 0.027011 -0.014183 0.030807
v 0.020964 -0.014183 0.039427
v 0.021754 -0.012683 0.041408
v 0.020972 -0.012683 0.039531
v 0.030896 -0.012075 0.034997
v 0.029493 -0.013433 0.033405
v 0.031023 -0.014183 0.034961
v 0.032521 -0.014185 0.035871
v 0.022292 -0.01418 0.042761
v 0.021628 -0.014183 0.04117
v 0.021751 -0.015323 0.042995
v 0.016098 -0.012479 0.045296
v 0.021196 -0.012479 0.043147
v 0.019806 -0.015214 0.04058
v 0.01888 -0.012483 0.040023
v 0.017655 -0.015511 0.039664
v 0.015381 -0.015562 0.041137
v 0.016145 -0.012484 0.040354
v 0.015206 -0.015252 0.042393
v 0.01527 -0.012483 0.042353
v 0.01495 -0.011019 0.045792
v 0.022268 -0.010984 0.042728
v 0.012983 -0.011034 0.040644
v 0.01345 -0.012683 0.042336
v 0.012979 -0.014183 0.040624
v 0.014864 -0.014183 0.039321
v 0.014788 -0.012684 0.039564
v 0.0030674 -0.014183 0.040629
v 0.0029827 -0.011221 0.04048
v 0.0015916 -0.014183 0.039762
v 0.013447 -0.014183 0.042349
v 0.0031391 -0.011228 0.044507
v 0.003184 -0.014183 0.044453
v 0.003184 -0.012683 0.044403
v 0.014248 -0.012683 0.044277
v 0.002473 -0.015308 0.04607
v 0.016059 -0.015251 0.045357
v 0.014886 -0.014183 0.045798
v 0.015808 -0.015631 0.045006
v 0.015536 -0.015673 0.045268
v 0.0070503 -0.015616 0.045853
v -0.0082533 -0.015668 0.035532
v -0.0087772 -0.014662 0.03465
v -0.009646 -0.014659 0.032678
v -0.0098682 -0.014203 0.033882
v -0.012943 -0.014466 0.03937
v -0.013775 -0.014337 0.039931
v -0.018242 -0.010978 0.038369
v -0.012626 -0.014143 0.040926
v -0.013077 -0.014183 0.042336
v -0.013086 -0.012683 0.042349
v -0.002816 -0.014183 0.042403
v -0.012619 -0.011024 0.040743
v -0.014555 -0.011032 0.045801
v -0.014519 -0.014183 0.0458
v -0.013857 -0.014183 0.044278
v -0.01387 -0.012683 0.044247
v -0.002816 -0.014183 0.044453
v -0.0024859 -0.015547 0.045922
v -0.0070635 -0.015371 0.046053
v -0.013087 -0.0155 0.046016
v -0.01271 -0.015634 0.045852
v -0.015631 -0.015244 0.045398
v -0.015414 -0.015683 0.045034
v -0.015202 -0.015577 0.040895
v -0.010753 -0.015674 0.034283
v -0.040118 -0.015636 0.019956
v -0.030186 -0.014185 0.037495
v -0.037269 -0.014183 0.030273
v -0.041256 -0.014183 0.021415
v -0.034829 -0.014183 0.030631
v -0.034973 -0.011906 0.030586
v -0.039494 -0.012683 0.020642
v -0.041371 -0.012683 0.021423
v -0.03939 -0.014183 0.020634
v -0.030775 -0.014183 0.026682
v -0.033367 -0.013433 0.029162
v -0.034827 -0.011183 0.030834
v -0.030774 -0.011194 0.034884
v -0.030701 -0.014264 0.035078
v -0.030518 -0.014657 0.034995
v -0.024981 -0.01466 0.03926
v -0.01834 -0.014683 0.038328
v -0.022574 -0.014683 0.026709
v -0.021088 -0.011042 0.040891
v -0.021867 -0.011003 0.042788
v -0.02143 -0.014666 0.04117
v -0.021506 -0.014271 0.041447
v -0.021912 -0.014183 0.042746
v -0.021208 -0.015171 0.043035
v -0.030276 -0.015602 0.037249
v -0.021893 -0.015503 0.042752
v -0.021108 -0.015632 0.042692
v -0.020378 -0.014858 0.0427
v -0.020753 -0.012489 0.043194
v -0.021144 -0.01512 0.042969
v -0.021307 -0.012417 0.042998
v -0.018393 -0.012487 0.039836
v -0.01987 -0.015611 0.040183
v -0.019382 -0.01502 0.040617
v -0.017215 -0.015513 0.039692
v -0.014867 -0.012484 0.041432
v -0.014789 -0.015511 0.04244
v -0.015727 -0.01246 0.04533
v -0.0093334 -0.014259 0.032876
v -0.0099508 -0.015679 0.0321
v -0.0011706 -0.014183 0.039566
v -0.0084298 -0.014137 0.032816
v -0.0064912 -0.014334 0.026672
v -0.0009563 -0.014174 0.027918
v 0.001434 -0.01269 0.03085
v -0.0010848 -0.013418 0.028139
v 0.0017799 -0.012684 0.040083
v -0.0014165 -0.012684 0.04007
v -0.0026438 -0.011226 0.040541
v -0.0026978 -0.014183 0.040636
v -0.002816 -0.012683 0.042403
v -0.0028662 -0.011584 0.044467
v -0.0081887 -0.014183 0.034417
v -0.0079789 -0.014704 0.033319
v -0.0071538 -0.015638 0.032552
v -0.00068616 -0.015857 0.029149
v -0.002333 -0.022441 0.028631
v 0.00512 -0.022441 0.028316
v 0.012178 -0.02313 0.025881
v 0.0066793 -0.015845 0.028419
v 0.0019988 -0.023574 0.027756
v 0.023542 -0.022974 0.016569
v 0.019078 -0.02365 0.020058
v 0.018561 -0.022441 0.022142
v 0.025245 -0.015856 0.015052
v 0.027333 -0.023477 0.0081658
v 0.027958 -0.022467 0.008976
v 0.029532 -0.022381 0.0087579
v 0.030649 -0.015749 0.0088564
v 0.030301 -0.022471 0.0072464
v 0.026218 -0.022407 0.0071463
v 0.030376 -0.015984 0.0077214
v 0.030361 -0.014281 0.0079408
v 0.031252 -0.015686 0.0079465
v 0.020582 -0.015719 0.021467
v 0.040215 -0.015457 0.018594
v 0.018098 -0.016088 0.022861
v 0.013181 -0.015928 0.026105
v 0.022705 -0.016289 0.018325
v 0.028874 -0.016366 0.0088832
v 0.027948 -0.015826 0.0095552
v 0.029879 -0.016358 0.008713
v 0.01986 -0.015679 0.039378
v 0.040514 -0.015627 0.019934
v 0.043235 -0.015597 0.021326
v 0.043137 -0.011003 0.021883
v 0.041624 -0.014183 0.021415
v 0.043232 -0.014172 0.022123
v 0.035197 -0.014183 0.030631
v 0.035342 -0.012277 0.030581
v 0.033923 -0.012683 0.029318
v 0.041739 -0.012683 0.021423
v 0.033877 -0.014183 0.029226
v 0.035195 -0.011183 0.030834
v 0.026963 -0.011211 0.03062
v 0.031033 -0.011227 0.026645
v 0.031165 -0.011183 0.034864
v 0.039607 -0.013883 0.020557
v 0.046118 -0.011013 0.014633
v 0.043464 -0.012466 0.021049
v 0.045712 -0.012472 0.015444
v 0.039949 -0.012479 0.017179
v 0.044887 -0.015038 0.015528
v 0.045314 -0.01556 0.015108
v 0.045658 -0.015692 0.014625
v 0.047888 -0.015571 0.0073653
v 0.0486 -0.014182 0.00082258
v 0.046811 -0.014183 0.0028725
v 0.04844 -0.015539 -0.00061843
v 0.047487 -0.015603 -0.0092421
v 0.044733 -0.014183 -0.014202
v 0.046739 -0.014183 -0.0031387
v 0.046751 -0.012075 -0.0032805
v 0.046772 -0.012277 0.0029852
v 0.046847 -0.011183 0.002703
v 0.046844 -0.011235 -0.0030954
v 0.044622 -0.011783 0.002943
v 0.040997 -0.014183 0.0027538
v 0.044778 -0.014183 0.0029075
v 0.042941 -0.012683 0.013209
v 0.042708 -0.014183 0.013137
v 0.040966 -0.011029 0.012655
v 0.04482 -0.012683 0.013986
v 0.044562 -0.014183 0.013906
v 0.046189 -0.014176 0.014566
v 0.045825 -0.015358 0.015266
v 0.040926 -0.014183 0.012655
v 0.0399 -0.012684 0.014455
v 0.038589 -0.012684 0.017583
v 0.038129 -0.014183 0.017041
v 0.038102 -0.014183 0.01937
v 0.038084 -0.011033 0.019643
v 0.028337 -0.012691 0.012868
v 0.025703 -0.013671 0.011635
v 0.040456 -0.012683 0.0014518
v 0.041045 -0.014183 -0.0030673
v 0.039947 -0.014183 -0.0015014
v 0.040451 -0.012684 -0.0017472
v 0.040846 -0.011201 -0.0028772
v 0.040919 -0.011212 0.0026533
v 0.044633 -0.014183 -0.003147
v 0.044876 -0.012683 -0.0031691
v 0.042824 -0.013883 -0.013466
v 0.04482 -0.012683 -0.014278
v 0.040817 -0.014183 -0.012989
v 0.042426 -0.015455 0.014743
v 0.040507 -0.015556 0.015854
v 0.042423 -0.012486 0.014903
v 0.041221 -0.012483 0.019475
v 0.043361 -0.015149 0.021133
v 0.042777 -0.014967 0.020307
v 0.038406 -0.015497 0.029365
v 0.032756 -0.015627 0.035302
v 0.028134 -0.015553 0.039198
v 0.021975 -0.015692 0.042486
v 0.020852 -0.015245 0.042677
v 0.021309 -0.01556 0.042551
v 0.0267 -0.021453 0.0079484
v 0.02418 -0.022683 0.008482
v 0.025619 -0.022682 0.0065313
v 0.018463 -0.022611 0.018589
v 0.012545 -0.022631 0.02272
v 0.010982 -0.019834 0.021925
v 0.011879 -0.022213 0.02322
v 0.0088922 -0.019833 0.025807
v 0.0085443 -0.021398 0.025833
v 0.0084675 -0.019833 0.022292
v 0.0088427 -0.022212 0.021921
v 0.0098727 -0.022613 0.021081
v 0.010959 -0.022083 0.02181
v 0.007829 -0.022683 0.021731
v 0.0079358 -0.022518 0.022517
v -0.015505 -0.02261 0.020806
v -0.0041246 -0.021835 0.02683
v -0.021214 -0.02214 0.015151
v -0.02179 -0.021226 0.016332
v -0.024149 -0.019847 0.012486
v -0.019729 -0.019833 0.01329
v -0.020543 -0.02261 0.015798
v -0.019724 -0.022255 0.01287
v -0.02108 -0.019833 0.011483
v -0.023796 -0.021735 0.012273
v -0.02343 -0.022527 0.011473
v -0.025742 -0.021419 0.010214
v -0.025601 -0.01426 0.01056
v -0.022888 -0.014364 0.015117
v -0.025281 -0.014045 0.011521
v -0.018557 -0.014404 0.020146
v -0.018515 -0.016514 0.02022
v -0.014674 -0.017903 0.023049
v -0.016649 -0.021332 0.021542
v -0.014056 -0.015516 0.024326
v -0.0066011 -0.016616 0.026648
v -0.010557 -0.021897 0.024956
v -0.0075999 -0.014772 0.028534
v -0.01939 -0.014945 0.021298
v -0.018912 -0.014183 0.020335
v -0.018959 -0.013332 0.020842
v -0.020347 -0.01404 0.018914
v -0.022624 -0.012687 0.020893
v -0.023497 -0.014448 0.025379
v -0.022588 -0.014183 0.026702
v -0.02696 -0.014183 0.028937
v -0.027184 -0.012684 0.029402
v -0.026609 -0.011239 0.030685
v -0.030413 -0.011198 0.026711
v -0.030922 -0.011233 0.026838
v -0.028891 -0.014183 0.027012
v -0.029422 -0.012684 0.027194
v -0.026614 -0.014183 0.030811
v 0.0024389 -0.021281 0.027251
v 0.00014039 -0.022619 0.026036
v -0.001376 -0.014284 0.02749
v 0.0031242 -0.014244 0.027402
v 0.0012242 -0.013976 0.027862
v 0.0074386 -0.014363 0.026536
v 0.013681 -0.014366 0.023961
v 0.011953 -0.014169 0.025323
v 0.012179 -0.013418 0.025499
v 0.010891 -0.01269 0.028968
v 0.017941 -0.012684 0.038261
v 0.019942 -0.014183 0.037715
v 0.019969 -0.011038 0.037737
v 0.0099402 -0.014059 0.026111
v 0.0078527 -0.022584 0.024966
v 0.0081756 -0.022204 0.023843
v -0.022035 -0.019834 0.015694
v -0.027944 -0.012697 0.012858
v -0.028772 -0.012714 0.010483
v -0.039045 -0.012683 0.014538
v -0.029873 -0.014183 0.01095
v -0.038703 -0.014183 0.014487
v -0.039942 -0.014183 0.013779
v -0.040048 -0.012683 0.013541
v -0.037959 -0.012683 0.01728
v -0.03762 -0.014183 0.019478
v -0.029969 -0.014183 0.010957
v -0.029738 -0.014321 0.0090702
v -0.029511 -0.014386 0.010633
v -0.030449 -0.014222 0.001103
v -0.030206 -0.014403 0.001103
v -0.020166 -0.022055 0.014299
v 0.029949 -0.023435 -0.0083254
v 0.030312 -0.022587 -0.0073733
v 0.029573 -0.023617 0.0073812
v 0.030174 -0.023011 0.0078608
v -0.012088 -0.023548 0.025023
v -0.020336 -0.023598 0.01835
v -0.021786 -0.022441 0.018609
v -0.016251 -0.022441 0.02361
v -0.020733 -0.016287 0.020125
v -0.014924 -0.015886 0.024944
v -0.0096183 -0.022442 0.027026
v -0.0080462 -0.015899 0.027957
v -0.0098225 -0.014703 0.033523
v -0.022242 -0.015744 0.019441
v -0.028953 -0.016306 0.011353
v -0.029185 -0.021773 0.011203
v -0.028885 -0.023009 0.010844
v -0.02651 -0.022449 0.011501
v -0.0266 -0.016307 0.011654
v -0.026789 -0.015777 0.012026
v -0.040551 -0.014967 0.019379
v -0.042861 -0.01557 0.021474
v -0.042589 -0.015068 0.020408
v -0.042514 -0.01556 0.020978
v -0.04007 -0.012483 0.018809
v -0.039694 -0.015558 0.017749
v -0.040236 -0.015508 0.015794
v -0.037759 -0.015568 0.029663
v 0.013349 -0.015428 0.046039
v 0.014224 -0.014183 0.044248
v 0.003184 -0.013433 0.042403
v 0.019433 -0.013327 0.020952
v 0.022986 -0.01269 0.020888
v 0.026439 -0.014056 0.0096113
v 0.025646 -0.01416 -0.01186
v 0.025798 -0.013614 -0.012044
v 0.026669 -0.013465 -0.0097934
v 0.028356 -0.012686 -0.013169
v 0.024635 -0.014371 -0.013025
v 0.0081438 -0.019832 -0.023211
v 0.029418 -0.014183 -0.027398
v 0.029789 -0.012684 -0.027488
v 0.030957 -0.011225 -0.026918
v 0.027149 -0.011239 -0.031178
v 0.037999 -0.011069 -0.019861
v 0.039413 -0.014183 -0.014832
v -0.0041626 -0.023597 -0.027631
v -0.013399 -0.023693 -0.023883
v -0.013387 -0.020683 -0.02237
v -0.011968 -0.020683 -0.024503
v -0.0085066 -0.019866 -0.026236
v -0.042491 -0.015626 0.014163
v -0.04533 -0.015653 0.015077
v -0.04536 -0.015111 0.01528
v -0.048231 -0.014182 -0.0011181
v -0.047677 -0.015457 0.0063307
v -0.047957 -0.015609 -0.0018709
v -0.047164 -0.015565 -0.0091974
v -0.045324 -0.015691 -0.01491
v -0.026262 -0.015914 -0.01844
v -0.040559 -0.011023 -0.01301
v -0.029344 -0.014253 -0.011024
v -0.040585 -0.014183 -0.012942
v -0.039347 -0.014183 -0.01477
v -0.039477 -0.012684 -0.014816
v -0.037716 -0.011033 -0.019937
v -0.037734 -0.014183 -0.019668
v -0.030774 -0.014183 -0.026975
v -0.02889 -0.014183 -0.027305
v -0.029421 -0.012684 -0.027488
v -0.026835 -0.014183 -0.028997
v -0.01888 -0.013379 -0.020984
v -0.022624 -0.012687 -0.021187
v -0.030373 -0.011217 -0.027026
v -0.037786 -0.014183 -0.017383
v -0.038224 -0.012684 -0.017806
v -0.020941 -0.01556 -0.042845
v -0.021381 -0.015648 -0.043053
v -0.021676 -0.015416 -0.043178
v -0.02578 -0.015464 -0.040807
v -0.036091 -0.015504 -0.031861
v -0.042865 -0.014172 -0.022416
v -0.039729 -0.015573 -0.027194
v -0.042895 -0.015539 -0.021594
v -0.034921 -0.014183 -0.030982
v -0.041371 -0.012683 -0.021716
v -0.041133 -0.014183 -0.02159
v -0.040197 -0.012484 -0.019151
v 0.0080858 -0.022512 -0.025173
v -0.061315 -0.011684 -0.026502
v -0.062269 -0.014775 -0.025533
v -0.061571 -0.020024 -0.021487
v -0.062316 -0.025362 -0.015759
v -0.062316 0.013436 -0.025584
v -0.062316 0.028274 -0.0032784
v -0.062316 -0.029261 -0.0052408
v -0.062316 -0.023532 0.018177
v -0.062316 -0.028107 0.0096805
v -0.06216 -0.029744 0.0020268
v -0.061589 -0.028314 0.0087846
v -0.061527 -0.029498 -0.0025149
v -0.061588 -0.028125 -0.0092742
v -0.061588 -0.024767 -0.016071
v -0.061589 -0.025108 0.015643
v -0.061589 -0.020233 0.021439
v -0.061589 -0.014018 0.025776
v -0.062271 0.0017502 0.029212
v -0.062316 -0.013139 0.026581
v -0.062316 0.027019 0.0094275
v -0.062233 0.022792 0.017338
v -0.061588 0.018384 0.021865
v -0.061494 0.026484 0.01016
v -0.061649 0.028392 -0.00032567
v -0.062316 0.025526 -0.012473
v -0.062316 0.020151 -0.020331
v -0.061613 0.023598 -0.015724
v -0.061625 0.01973 -0.020451
v -0.061681 0.014041 -0.024976
v -0.061589 0.0080362 -0.027571
v -0.062129 0.0020144 -0.028903
v -0.06167 -0.0021141 -0.028911
v -0.062144 -0.0079025 -0.028162
v -0.061588 0.026744 -0.0092696
v -0.061538 0.010126 0.02703
v -0.062316 0.014284 0.025073
v -0.061485 -0.005568 0.028617
v -0.062759 0.024182 0.007793
v -0.069494 0.023351 0.0061201
v -0.069571 0.024858 0.0048713
v -0.069433 0.014429 -0.019509
v -0.06952 -0.024279 0.0076008
v -0.069324 0.021429 -0.011245
v -0.069465 -0.016522 -0.01892
v -0.069465 -0.020327 0.015034
v -0.069468 0.00986 0.022354
v -0.069503 0.0071279 -0.023363
v -0.069509 -0.015776 0.019626
v -0.06952 -0.0090843 -0.023265
v -0.069488 -0.024106 -0.0077708
v -0.069479 -0.025406 0.0003068
v -0.069551 -0.024902 0.0097235
v -0.062778 -0.024345 0.010953
v -0.062657 -0.02163 0.015441
v -0.069538 -0.020535 0.016898
v -0.069577 -0.015934 0.021073
v -0.069571 -0.011706 0.023574
v -0.069503 -0.0085126 0.023468
v -0.069533 -0.0067368 0.025334
v -0.069521 0.0010176 0.02479
v -0.069554 -0.00028822 0.026074
v -0.062668 0.0051652 0.025426
v -0.062758 0.0032887 0.024403
v -0.062753 -0.0021286 0.024649
v -0.062853 -0.0017103 0.021133
v -0.062638 -0.0077241 0.01989
v -0.062606 0.0024641 -0.020793
v -0.062776 -0.021302 0.0045474
v -0.062829 0.011987 0.016926
v -0.062808 0.018874 -0.0077939
v -0.062847 -0.0030469 -0.020939
v -0.062776 -0.013554 0.016773
v -0.062829 -0.019305 -0.0098395
v -0.062872 -0.015182 -0.015211
v -0.062851 -0.017759 0.012641
v -0.062845 -0.021851 -0.0012627
v -0.062856 0.0077726 -0.019391
v -0.062829 0.0056097 0.020187
v -0.06282 0.0096338 0.022453
v -0.062761 0.014432 0.019651
v -0.062865 0.016236 0.012561
v -0.062712 0.019044 0.014905
v -0.062755 0.023351 0.0061201
v -0.069433 0.020082 0.015798
v -0.062656 0.021094 0.014267
v -0.062648 0.0155 0.020449
v -0.062733 0.010656 0.023441
v -0.069498 0.0055953 0.025276
v -0.069488 0.014398 0.019598
v -0.069585 0.011228 0.023181
v -0.06952 0.018883 0.015135
v -0.069579 0.022905 0.010937
v -0.069588 0.016763 0.019274
v -0.062664 0.02533 0.001064
v -0.069568 0.025271 -1.9699e-06
v -0.069468 0.023775 -0.0030681
v -0.06953 0.024788 -0.0052033
v -0.062663 0.024572 -0.0060056
v -0.062758 0.023732 -0.0035394
v -0.06282 0.020374 -0.00064703
v -0.062729 0.021708 -0.010257
v -0.062756 0.018831 -0.015025
v -0.062752 0.020543 -0.015074
v -0.069579 0.020179 -0.015479
v -0.069616 0.018776 -0.015359
v -0.069554 0.023292 -0.0098994
v -0.062647 0.0226 -0.011433
v -0.069489 0.016504 -0.019424
v -0.069558 0.01195 -0.022691
v -0.062653 0.0066686 -0.024844
v -0.062664 1.1831e-05 -0.025985
v -0.069505 -0.0020839 -0.025927
v -0.06958 -0.0069668 -0.025147
v -0.062683 -0.0076894 -0.025007
v -0.062616 -0.0057761 -0.024166
v -0.062936 -0.0028191 -0.024637
v -0.062829 -0.01024 -0.018769
v -0.062734 -0.013158 -0.021289
v -0.062833 -0.016767 -0.020417
v -0.069575 -0.016121 -0.02085
v -0.069545 -0.020425 -0.014801
v -0.069578 -0.02047 -0.0168
v -0.069369 -0.022978 -0.013399
v -0.062657 -0.021083 -0.016127
v -0.062616 -0.020193 -0.015167
v -0.062936 -0.018909 -0.0168
v -0.062714 -0.023932 -0.0082074
v -0.062704 -0.025351 -0.0084338
v -0.06956 -0.026752 0.00060481
v -0.069562 -0.025424 -0.0080725
v -0.062655 -0.026331 0.0044941
v -0.062638 -0.026594 -0.0015497
v -0.062799 -0.025026 0.0040883
v -0.062753 -0.025335 -0.0017309
v -0.062732 -0.022614 0.011457
v -0.062784 -0.018896 0.016744
v -0.062698 -0.017864 0.019605
v -0.062761 -0.014322 0.020577
v -0.062625 -0.015137 0.021595
v -0.06274 -0.0085126 0.023468
v -0.062749 -0.010023 0.024369
v -0.062656 -0.0029881 0.025969
v -0.069501 -0.01188 -0.023409
v -0.062651 -0.013096 -0.022768
v -0.069486 -0.0017844 -0.024683
v -0.069571 0.0045359 -0.025448
v -0.062749 0.013506 -0.020217
v -0.062715 0.01165 -0.022864
v -0.062651 0.016141 -0.019712
v -0.062723 0.004567 -0.024172
v -0.062838 0.014991 -0.014033
v -0.062829 0.019361 0.0065542
f 1 2 4
f 12 14 11
f 11 14 13
f 21 20 395
f 395 20 17
f 26 24 55
f 23 26 25
f 24 26 23
f 25 26 408
f 31 33 34
f 34 33 36
f 33 37 36
f 37 35 36
f 37 33 38
f 37 38 364
f 40 41 39
f 40 39 38
f 43 42 399
f 383 42 43
f 383 44 42
f 383 45 382
f 383 43 45
f 382 45 46
f 52 48 49
f 52 50 48
f 51 52 49
f 52 51 29
f 56 58 386
f 56 386 55
f 58 56 57
f 58 57 60
f 57 65 60
f 60 65 59
f 65 391 59
f 55 24 56
f 62 391 65
f 75 76 77
f 83 76 78
f 78 76 79
f 84 76 236
f 236 76 242
f 251 76 260
f 85 76 251
f 262 76 287
f 287 76 288
f 86 76 87
f 87 76 80
f 260 76 261
f 288 76 16
f 79 76 223
f 242 76 245
f 16 76 81
f 80 76 82
f 82 76 83
f 223 76 84
f 245 76 85
f 77 76 86
f 261 76 262
f 88 100 99
f 88 91 100
f 105 393 102
f 386 106 709
f 108 107 110
f 107 111 110
f 112 109 110
f 113 109 112
f 116 113 115
f 116 115 119
f 126 123 116
f 116 117 126
f 116 132 117
f 118 116 120
f 116 119 132
f 118 113 116
f 120 116 121
f 122 335 121
f 123 122 121
f 122 123 298
f 125 124 298
f 125 298 123
f 125 123 126
f 127 316 126
f 316 125 126
f 126 117 128
f 129 130 127
f 129 131 130
f 322 134 133
f 132 134 322
f 132 138 134
f 138 139 143
f 132 139 138
f 141 135 140
f 141 140 142
f 142 140 144
f 140 146 144
f 146 140 145
f 145 147 146
f 188 173 147
f 188 147 145
f 148 152 147
f 151 148 149
f 148 147 150
f 152 148 151
f 184 375 163
f 187 375 184
f 187 164 375
f 164 187 165
f 372 166 371
f 372 167 166
f 168 167 372
f 168 115 189
f 169 115 168
f 168 189 167
f 170 115 169
f 119 115 170
f 171 170 172
f 119 170 171
f 171 172 177
f 177 176 175
f 177 179 176
f 180 153 151
f 180 151 178
f 153 180 162
f 162 180 181
f 162 181 186
f 186 185 163
f 184 163 185
f 185 186 181
f 182 172 183
f 179 172 182
f 177 172 179
f 151 149 178
f 173 188 174
f 191 167 190
f 192 194 193
f 194 195 193
f 193 195 197
f 195 196 198
f 195 194 196
f 198 196 199
f 196 200 199
f 201 200 196
f 202 200 201
f 209 208 204
f 204 208 206
f 206 208 369
f 221 220 210
f 214 368 221
f 217 367 154
f 367 217 219
f 221 368 220
f 155 367 228
f 366 230 237
f 233 306 315
f 241 233 232
f 237 230 238
f 306 233 241
f 248 296 250
f 257 274 266
f 266 274 292
f 271 6 5
f 271 270 6
f 271 5 269
f 270 271 268
f 6 270 277
f 276 285 280
f 276 280 282
f 12 11 284
f 298 301 250
f 124 301 298
f 299 301 124
f 315 306 299
f 302 300 303
f 301 300 314
f 302 314 300
f 301 299 300
f 249 303 304
f 302 303 249
f 299 124 315
f 318 135 141
f 318 136 137
f 135 318 137
f 318 319 136
f 318 320 319
f 318 321 320
f 127 130 317
f 127 317 316
f 321 318 317
f 317 130 321
f 125 316 323
f 124 125 323
f 324 325 327
f 326 324 327
f 326 122 324
f 327 331 333
f 329 331 327
f 330 331 329
f 332 122 326
f 332 335 122
f 335 332 334
f 109 331 336
f 109 118 331
f 336 331 337
f 337 331 330
f 337 330 339
f 339 330 340
f 1 4 343
f 343 4 342
f 341 343 342
f 343 341 344
f 341 346 344
f 345 346 341
f 339 340 346
f 338 345 347
f 338 346 345
f 345 349 348
f 349 351 350
f 349 345 351
f 352 353 351
f 352 354 353
f 355 358 356
f 357 359 355
f 355 359 358
f 336 359 361
f 336 337 359
f 361 359 357
f 338 347 360
f 361 357 362
f 109 336 44
f 37 363 35
f 363 37 352
f 352 37 354
f 361 362 364
f 350 351 353
f 325 1 328
f 325 2 1
f 327 325 328
f 296 253 295
f 296 365 253
f 365 296 248
f 248 250 301
f 154 367 155
f 209 204 95
f 370 202 374
f 200 202 370
f 373 374 375
f 375 164 373
f 194 114 111
f 114 194 192
f 194 111 107
f 114 192 189
f 166 167 191
f 132 119 139
f 113 118 109
f 376 108 109
f 109 377 376
f 109 383 377
f 109 44 383
f 376 377 378
f 380 387 376
f 379 380 376
f 379 384 380
f 380 381 53
f 380 384 381
f 50 53 47
f 385 384 379
f 387 380 386
f 387 108 376
f 386 108 387
f 108 386 709
f 107 108 709
f 386 58 106
f 388 106 58
f 390 388 58
f 105 390 393
f 390 105 388
f 29 51 396
f 29 396 397
f 397 396 398
f 40 38 400
f 400 38 30
f 400 30 401
f 30 396 401
f 396 30 398
f 53 50 52
f 13 14 403
f 410 421 409
f 420 421 419
f 529 425 426
f 429 416 427
f 431 416 429
f 431 429 430
f 432 433 431
f 431 433 416
f 436 433 445
f 434 433 432
f 434 766 433
f 416 433 436
f 436 444 442
f 436 1197 444
f 725 460 455
f 458 460 725
f 458 725 456
f 501 460 458
f 501 458 457
f 458 456 721
f 454 455 460
f 752 622 470
f 752 470 464
f 752 464 482
f 482 464 483
f 752 482 472
f 472 482 475
f 475 482 473
f 475 473 474
f 489 478 476
f 489 473 479
f 480 473 489
f 487 484 488
f 487 486 484
f 487 479 486
f 486 479 481
f 1187 491 490
f 492 490 491
f 492 491 493
f 494 493 491
f 494 495 493
f 498 492 496
f 492 498 499
f 500 499 457
f 500 492 499
f 490 492 500
f 501 457 497
f 498 501 497
f 498 502 501
f 501 502 503
f 503 506 1182
f 506 502 505
f 506 503 502
f 505 502 507
f 502 496 495
f 509 508 1193
f 508 509 506
f 506 505 508
f 508 505 510
f 505 507 510
f 506 509 511
f 506 511 1176
f 1176 511 512
f 513 1176 512
f 511 1194 513
f 1194 1174 513
f 1194 514 1174
f 514 1169 1174
f 515 1190 1192
f 1190 515 514
f 1191 525 1192
f 524 525 1191
f 485 525 524
f 485 526 525
f 522 526 529
f 525 526 522
f 529 526 527
f 529 528 425
f 415 1168 530
f 413 532 531
f 533 1168 532
f 534 533 1170
f 533 534 1168
f 1170 533 535
f 1170 535 536
f 534 1170 537
f 539 538 537
f 540 539 545
f 537 545 539
f 540 545 546
f 549 540 546
f 540 549 541
f 542 541 549
f 1106 541 542
f 544 543 542
f 542 543 1106
f 537 559 545
f 558 551 547
f 558 548 551
f 548 550 551
f 550 577 544
f 550 552 577
f 553 552 550
f 550 548 553
f 552 553 576
f 553 548 555
f 558 557 554
f 548 558 556
f 560 547 559
f 560 558 547
f 560 559 561
f 557 558 560
f 563 560 562
f 560 563 557
f 563 516 565
f 516 563 562
f 563 565 564
f 565 517 566
f 516 517 565
f 569 1166 1167
f 569 538 1160
f 569 1165 1166
f 569 1160 1165
f 1165 1160 1161
f 571 572 573
f 571 574 575
f 573 574 571
f 576 571 575
f 574 577 552
f 577 574 578
f 580 544 578
f 578 582 580
f 574 582 578
f 574 573 582
f 582 573 588
f 585 583 584
f 585 588 1102
f 1102 1074 587
f 1074 1102 876
f 588 573 589
f 591 590 589
f 593 594 572
f 591 572 592
f 572 594 592
f 1133 592 595
f 1134 538 596
f 1135 538 1134
f 1050 597 598
f 598 597 1105
f 597 1050 599
f 605 602 423
f 423 602 424
f 605 1114 602
f 424 602 601
f 424 601 604
f 604 601 603
f 605 423 1155
f 1114 605 606
f 614 619 612
f 775 617 776
f 772 617 775
f 617 772 616
f 620 619 625
f 625 619 621
f 621 619 614
f 621 614 622
f 629 630 626
f 629 626 627
f 626 630 628
f 629 747 630
f 747 632 630
f 634 632 747
f 636 747 637
f 1153 637 748
f 638 637 1153
f 776 1011 1154
f 638 640 1011
f 642 640 641
f 645 644 646
f 639 644 645
f 649 647 648
f 648 652 650
f 649 648 650
f 1153 652 648
f 1153 651 652
f 652 651 654
f 652 654 653
f 656 654 655
f 654 657 653
f 654 656 657
f 653 657 1151
f 657 656 659
f 658 1151 657
f 658 657 659
f 658 659 660
f 662 658 660
f 661 662 753
f 662 661 663
f 670 663 664
f 662 663 670
f 666 670 664
f 666 664 665
f 665 758 666
f 759 670 666
f 680 670 759
f 667 670 680
f 671 1150 669
f 667 671 669
f 673 671 667
f 667 672 673
f 674 675 1149
f 674 1149 1150
f 1150 671 674
f 760 682 683
f 682 760 684
f 682 759 683
f 682 680 759
f 685 684 760
f 685 688 684
f 684 688 681
f 451 689 690
f 694 689 692
f 692 693 694
f 689 694 696
f 698 726 697
f 698 699 726
f 699 698 700
f 700 698 695
f 700 695 701
f 701 704 700
f 704 701 703
f 701 695 702
f 703 701 705
f 702 705 701
f 702 761 705
f 758 707 706
f 707 704 703
f 707 703 706
f 707 758 756
f 709 708 710
f 709 712 711
f 712 709 386
f 709 472 386
f 709 727 472
f 700 711 712
f 712 386 713
f 713 386 714
f 386 472 475
f 714 386 478
f 715 713 714
f 715 477 716
f 478 477 715
f 478 715 714
f 715 716 726
f 726 716 717
f 716 718 717
f 716 719 718
f 718 697 717
f 477 500 719
f 718 722 720
f 719 722 718
f 723 720 722
f 456 722 721
f 723 722 456
f 724 697 720
f 690 724 451
f 697 724 690
f 723 724 720
f 720 697 718
f 721 457 458
f 721 500 457
f 716 477 719
f 717 697 726
f 715 699 713
f 715 726 699
f 752 472 728
f 752 728 727
f 752 727 730
f 730 727 729
f 708 730 729
f 708 731 730
f 708 733 731
f 708 757 733
f 734 732 757
f 739 622 751
f 621 739 740
f 621 622 739
f 740 739 736
f 740 736 741
f 629 627 746
f 629 743 748
f 651 748 743
f 651 743 750
f 742 655 750
f 742 750 743
f 748 651 1153
f 737 753 742
f 742 753 655
f 751 622 752
f 753 737 754
f 755 663 661
f 663 755 665
f 755 756 665
f 756 755 737
f 737 755 754
f 665 756 758
f 757 756 737
f 757 737 735
f 666 683 759
f 758 683 666
f 760 761 685
f 760 706 761
f 704 709 711
f 707 709 704
f 700 704 711
f 706 703 761
f 761 703 705
f 702 688 761
f 761 688 685
f 688 702 693
f 690 689 696
f 692 691 693
f 688 693 691
f 763 447 764
f 763 764 765
f 766 769 767
f 766 771 769
f 776 773 775
f 1003 776 777
f 1002 776 1003
f 1011 776 1002
f 777 778 1003
f 1003 778 1004
f 778 1001 1004
f 780 779 1001
f 1001 778 780
f 780 781 779
f 1142 939 782
f 784 939 1142
f 784 1142 783
f 794 1141 795
f 795 796 785
f 795 785 794
f 795 1141 797
f 801 800 1088
f 801 791 800
f 791 801 799
f 1089 804 1088
f 1088 804 802
f 801 1088 802
f 1089 803 804
f 804 803 805
f 804 805 806
f 801 802 806
f 808 807 809
f 803 822 809
f 803 809 810
f 809 807 810
f 811 809 813
f 813 814 1022
f 812 819 820
f 837 819 812
f 822 1089 821
f 821 1089 823
f 824 823 825
f 827 825 823
f 825 827 826
f 1090 828 826
f 1086 826 827
f 1086 1090 826
f 826 828 825
f 828 1090 830
f 825 828 831
f 829 1139 828
f 832 834 829
f 834 832 833
f 834 824 1139
f 829 834 1139
f 824 834 835
f 835 834 833
f 835 833 1138
f 833 124 1138
f 124 836 1137
f 1138 124 838
f 812 838 837
f 841 817 840
f 926 841 859
f 841 816 817
f 926 816 841
f 926 859 842
f 926 842 922
f 851 852 850
f 852 849 850
f 849 851 850
f 853 851 849
f 848 854 853
f 854 848 886
f 855 904 863
f 854 855 857
f 298 856 855
f 857 855 856
f 858 298 124
f 298 860 124
f 298 858 856
f 298 861 860
f 124 860 836
f 865 862 903
f 865 859 862
f 866 859 865
f 866 901 891
f 867 1118 866
f 867 866 1136
f 866 865 901
f 1136 866 891
f 869 870 590
f 869 871 870
f 873 874 872
f 874 589 590
f 874 590 870
f 589 874 588
f 588 874 873
f 1102 873 875
f 588 873 1102
f 876 875 877
f 876 1102 875
f 877 872 876
f 873 872 877
f 879 1073 878
f 1073 872 878
f 880 1071 879
f 880 869 868
f 880 871 869
f 881 884 1076
f 881 1076 880
f 1076 884 1068
f 883 884 882
f 882 884 881
f 844 884 883
f 886 848 885
f 883 885 848
f 885 883 887
f 883 882 887
f 880 868 888
f 888 868 889
f 886 888 889
f 897 886 889
f 897 889 890
f 895 900 898
f 894 900 895
f 904 902 903
f 904 895 898
f 904 898 902
f 891 901 899
f 891 899 893
f 885 888 886
f 884 844 1061
f 908 916 907
f 908 907 910
f 908 910 1079
f 908 1079 909
f 912 910 907
f 912 907 914
f 914 911 912
f 911 914 913
f 919 852 916
f 917 916 852
f 917 915 916
f 851 917 852
f 857 917 851
f 917 857 918
f 918 915 917
f 918 829 915
f 918 856 858
f 918 857 856
f 919 916 908
f 1114 929 927
f 1114 927 1113
f 927 929 925
f 1024 938 936
f 782 938 1024
f 938 782 939
f 617 940 938
f 777 617 938
f 617 777 776
f 619 940 617
f 777 938 781
f 777 781 778
f 781 938 939
f 620 940 619
f 620 935 940
f 620 931 935
f 931 620 941
f 941 620 972
f 1013 941 972
f 941 1013 942
f 944 816 926
f 935 931 947
f 941 816 944
f 941 949 816
f 941 950 949
f 941 942 950
f 1019 950 1018
f 1018 950 951
f 949 950 1019
f 966 954 1016
f 954 958 953
f 952 958 954
f 954 966 952
f 954 955 808
f 955 954 953
f 808 955 807
f 962 956 957
f 958 957 956
f 796 957 959
f 962 957 796
f 962 960 956
f 962 961 960
f 806 805 961
f 806 961 801
f 960 961 963
f 961 805 963
f 964 796 959
f 957 958 964
f 958 998 964
f 958 952 998
f 952 988 998
f 965 988 952
f 967 966 1014
f 1014 966 968
f 1012 972 971
f 973 974 991
f 620 976 975
f 620 631 976
f 620 625 631
f 976 631 633
f 978 636 977
f 636 978 973
f 973 978 974
f 981 983 980
f 982 1006 981
f 983 981 1006
f 984 983 1006
f 983 984 985
f 984 993 985
f 985 993 987
f 993 986 987
f 988 986 993
f 988 989 986
f 989 991 990
f 965 989 988
f 989 965 991
f 986 989 980
f 991 967 992
f 965 967 991
f 991 974 990
f 939 993 984
f 994 988 993
f 784 783 994
f 783 995 994
f 995 997 998
f 785 997 996
f 785 796 997
f 997 796 964
f 999 785 996
f 999 996 995
f 785 999 1000
f 995 783 999
f 993 939 784
f 939 984 779
f 982 1002 1005
f 982 1008 1002
f 979 1008 982
f 1002 1008 1007
f 1010 1008 979
f 1008 1010 1009
f 1010 637 638
f 637 1010 636
f 636 1010 977
f 1010 638 1009
f 1009 638 1011
f 1011 1002 1009
f 1009 1002 1007
f 1005 1006 982
f 986 980 983
f 1013 972 1012
f 968 966 1015
f 949 1020 1021
f 949 1019 1020
f 1031 790 1029
f 1031 1029 1033
f 1027 1035 1028
f 1025 1035 1027
f 1025 1037 1035
f 766 434 1037
f 1037 434 1091
f 1026 1037 1025
f 766 1037 1026
f 1091 434 1078
f 1078 434 1039
f 1043 1044 1047
f 1043 1093 1044
f 909 1059 1061
f 1062 1055 1054
f 1066 1065 1074
f 1064 1067 1062
f 884 1062 1067
f 1076 1068 1067
f 1076 1067 1069
f 1072 879 1071
f 879 1072 1073
f 876 872 1073
f 1067 1070 1069
f 1064 1075 1070
f 1067 1064 1070
f 1066 1074 1075
f 1075 1064 1066
f 884 1061 1062
f 830 1080 1081
f 800 1084 1085
f 800 791 1084
f 1086 1087 1085
f 800 1085 1087
f 1087 1086 827
f 1087 1089 1088
f 830 1090 1080
f 1053 1074 1065
f 587 1074 1053
f 587 1053 1094
f 1096 1101 1095
f 1095 1101 1094
f 1096 1097 1098
f 1096 1095 1097
f 1098 581 1099
f 1097 581 1098
f 1100 586 1096
f 582 583 1099
f 1096 586 1101
f 1103 581 1097
f 1097 1095 543
f 597 1107 1105
f 1107 538 539
f 1107 597 538
f 1107 540 541
f 1107 539 540
f 1107 541 1106
f 543 1095 1105
f 580 1103 543
f 1103 580 581
f 587 1094 1101
f 598 1105 1095
f 431 430 1049
f 1039 434 1045
f 766 1026 771
f 771 936 1110
f 771 1026 936
f 1111 606 1109
f 932 606 1111
f 929 606 932
f 906 1120 921
f 921 1120 922
f 906 1118 1120
f 866 1118 906
f 867 596 1122
f 1134 596 867
f 1122 596 1128
f 867 1122 1118
f 591 1129 1131
f 591 1133 1129
f 867 1136 1130
f 1114 606 929
f 922 842 921
f 830 911 913
f 1081 911 830
f 880 1076 1071
f 842 859 866
f 903 862 864
f 858 124 833
f 854 857 853
f 853 857 851
f 852 919 849
f 849 919 845
f 844 883 847
f 844 847 846
f 838 821 835
f 838 835 1138
f 835 821 823
f 835 823 824
f 1139 824 831
f 824 825 831
f 832 829 918
f 831 828 1139
f 813 809 822
f 813 820 818
f 813 812 820
f 813 818 815
f 822 803 1089
f 1140 799 798
f 1140 791 799
f 798 1141 1140
f 1141 794 793
f 1141 798 797
f 939 779 781
f 778 781 780
f 1145 773 1154
f 776 1154 773
f 1146 1143 1144
f 647 1146 646
f 647 1143 1146
f 645 646 1146
f 645 1146 1145
f 1145 1154 645
f 764 447 1148
f 445 1148 447
f 445 447 446
f 1143 1149 675
f 1143 649 1149
f 649 1143 647
f 658 668 1151
f 668 658 1152
f 658 662 1152
f 662 670 1152
f 667 680 672
f 653 1151 649
f 649 650 653
f 605 1155 467
f 1155 423 1156
f 1157 1158 454
f 1157 438 1158
f 420 438 1157
f 1159 453 440
f 1159 440 439
f 420 1157 421
f 454 463 1156
f 430 429 599
f 596 538 597
f 1160 538 1135
f 591 592 1133
f 580 543 544
f 544 577 579
f 578 544 579
f 571 576 1163
f 1163 576 554
f 1163 554 565
f 565 554 564
f 569 1168 534
f 520 1168 569
f 569 534 538
f 522 1168 520
f 522 529 1168
f 516 562 1169
f 1169 562 1171
f 559 1171 562
f 537 1171 559
f 1170 1171 537
f 1171 1170 1172
f 1170 1173 1172
f 1173 1171 1172
f 1173 1169 1171
f 1174 1184 1175
f 1176 532 1177
f 1176 1175 532
f 1177 532 413
f 413 1181 1177
f 1177 1181 1178
f 1180 412 1179
f 411 1179 412
f 1180 1179 504
f 460 501 1179
f 460 1179 411
f 1178 1180 504
f 1180 1178 1181
f 1175 1176 513
f 532 1175 1183
f 1184 533 1183
f 533 1184 535
f 1184 1173 535
f 532 1183 533
f 535 1173 536
f 1170 536 1173
f 559 562 561
f 548 556 555
f 1168 531 532
f 531 1168 415
f 485 464 526
f 483 464 485
f 485 524 1186
f 1190 1193 494
f 1194 511 509
f 1193 1190 1195
f 1190 1194 1195
f 1196 517 515
f 519 1196 521
f 517 1196 519
f 517 518 567
f 516 1169 514
f 514 1194 1190
f 494 1193 495
f 496 502 498
f 490 500 477
f 497 457 499
f 479 487 489
f 454 459 463
f 436 445 1197
f 437 438 418
f 418 438 420
f 416 436 417
f 409 421 422
f 1199 1203 1202
f 1201 1203 1199
f 1205 1203 1201
f 1201 1206 1205
f 1204 1207 1201
f 1201 1207 1206
f 1210 1198 1209
f 1209 1198 1208
f 1200 1198 1211
f 1211 1198 1210
f 1213 1198 1214
f 1214 1198 1234
f 1217 1216 1215
f 1203 1205 1216
f 1219 1198 1220
f 1220 1198 1221
f 1222 1223 1202
f 1202 1203 1222
f 1224 1198 1225
f 1225 1198 1226
f 1226 1198 1227
f 1230 1202 1228
f 1227 1198 1229
f 1230 1199 1202
f 1231 1198 1224
f 1221 1198 1231
f 1203 1216 1217
f 1232 1198 1219
f 1234 1198 1232
f 1233 1217 1215
f 1233 1218 1217
f 1212 1198 1213
f 1208 1198 1212
f 1236 1240 1288
f 1241 1240 1246
f 1248 1240 1247
f 1257 1240 1255
f 1342 1240 1244
f 1239 1240 1248
f 1244 1240 1238
f 1242 1240 1239
f 1243 1240 1257
f 1288 1240 1286
f 1246 1240 1342
f 1286 1240 1243
f 1247 1240 1318
f 1293 1240 1236
f 1245 1240 1242
f 1318 1240 1241
f 1255 1240 1245
f 1247 1326 1248
f 1248 1326 1239
f 1239 1326 1249
f 1255 1253 1254
f 1245 1253 1255
f 1245 1252 1253
f 1242 1252 1245
f 1242 1249 1252
f 1239 1249 1242
f 1255 1256 1257
f 1255 1254 1256
f 1257 1256 1258
f 1276 1259 1260
f 1275 1260 1262
f 1262 1260 1261
f 1264 1263 1268
f 1297 1263 1267
f 1265 1263 1272
f 1266 1263 1278
f 1267 1263 1348
f 1268 1263 1314
f 1262 1263 1275
f 1270 1263 1273
f 1278 1263 1349
f 1314 1263 1271
f 1348 1263 1274
f 1271 1263 1270
f 1272 1263 1269
f 1273 1263 1265
f 1275 1263 1266
f 1274 1263 1264
f 1349 1263 1297
f 1266 1276 1275
f 1266 1277 1276
f 1279 1283 1277
f 1278 1279 1277
f 1282 1279 1280
f 1277 1283 1276
f 1276 1283 1259
f 1287 1243 1257
f 1287 1286 1243
f 1290 1286 1287
f 1289 1288 1290
f 1289 1236 1288
f 1290 1288 1286
f 1287 1257 1258
f 1236 1292 1293
f 1236 1237 1292
f 1293 1292 1294
f 1267 1296 1297
f 1267 1298 1296
f 1304 1298 1299
f 1304 1299 1346
f 1302 1303 1301
f 1240 1303 1302
f 1240 1294 1303
f 1293 1294 1240
f 1302 1301 1238
f 1238 1301 1306
f 1312 1308 1347
f 1314 1313 1268
f 1314 1315 1313
f 1315 1321 1341
f 1322 1321 1315
f 1271 1323 1314
f 1270 1323 1271
f 1270 1324 1323
f 1322 1325 1321
f 1327 1247 1318
f 1247 1327 1326
f 1329 1331 1330
f 1273 1330 1331
f 1329 1324 1331
f 1325 1324 1329
f 1273 1331 1270
f 1270 1331 1324
f 1265 1330 1273
f 1272 1332 1265
f 1265 1332 1330
f 1332 1272 1333
f 1336 1333 1335
f 1336 1337 1339
f 1261 1259 1339
f 1260 1259 1261
f 1339 1337 1261
f 1337 1262 1261
f 1335 1263 1337
f 1337 1263 1262
f 1335 1269 1263
f 1333 1269 1335
f 1333 1272 1269
f 1336 1335 1337
f 1251 1333 1336
f 1251 1332 1333
f 1328 1332 1251
f 1329 1330 1328
f 1328 1330 1332
f 1327 1318 1319
f 1325 1322 1324
f 1317 1318 1241
f 1319 1318 1317
f 1317 1241 1246
f 1317 1246 1310
f 1315 1311 1312
f 1312 1311 1308
f 1315 1341 1311
f 1310 1246 1342
f 1310 1342 1343
f 1244 1343 1342
f 1244 1306 1343
f 1314 1323 1315
f 1313 1274 1268
f 1347 1274 1313
f 1344 1274 1347
f 1344 1348 1274
f 1299 1348 1344
f 1346 1344 1307
f 1307 1344 1347
f 1307 1347 1308
f 1346 1299 1344
f 1298 1348 1299
f 1298 1267 1348
f 1238 1306 1244
f 1295 1298 1304
f 1295 1296 1298
f 1297 1280 1349
f 1297 1296 1280
f 1282 1280 1291
f 1349 1279 1278
f 1349 1280 1279
f 1291 1280 1296
f 1291 1296 1295
f 1279 1282 1283
f 1278 1277 1266
f 1275 1276 1260
f 1236 1289 1237
f 3 4 273
f 294 273 4
f 294 4 2
f 275 3 269
f 3 273 269
f 5 341 275
f 275 341 3
f 7 5 6
f 6 8 7
f 8 9 7
f 8 6 279
f 284 10 8
f 11 10 284
f 14 15 18
f 16 17 15
f 19 18 17
f 17 20 19
f 406 21 395
f 407 23 25
f 74 23 407
f 23 74 24
f 24 74 22
f 54 26 55
f 26 28 408
f 28 29 27
f 27 29 397
f 27 397 402
f 402 397 30
f 402 30 13
f 13 31 11
f 13 30 31
f 33 31 30
f 34 32 31
f 11 31 32
f 36 35 34
f 32 34 35
f 38 39 364
f 44 40 42
f 46 47 382
f 45 48 46
f 47 46 48
f 45 49 48
f 47 48 50
f 53 52 29
f 53 54 380
f 54 55 386
f 26 54 53
f 61 60 59
f 59 391 61
f 391 62 389
f 24 22 62
f 24 63 64
f 65 24 64
f 56 24 65
f 65 64 62
f 64 66 62
f 66 63 62
f 62 63 24
f 63 66 67
f 66 68 67
f 64 68 66
f 68 64 63
f 63 69 68
f 67 68 69
f 67 69 70
f 63 70 69
f 67 70 71
f 70 63 71
f 67 71 72
f 72 71 73
f 71 63 73
f 73 63 72
f 72 63 67
f 57 56 65
f 74 75 22
f 75 74 76
f 62 75 77
f 75 62 22
f 88 87 80
f 87 89 86
f 87 88 89
f 88 90 393
f 91 82 92
f 93 209 92
f 92 209 94
f 394 209 95
f 95 96 97
f 100 97 99
f 96 104 97
f 97 104 98
f 97 98 99
f 104 102 98
f 394 100 91
f 394 95 97
f 97 100 394
f 94 394 91
f 99 98 101
f 90 101 393
f 393 101 102
f 103 105 102
f 103 102 104
f 104 96 103
f 388 194 107
f 388 105 194
f 107 106 388
f 107 709 106
f 109 108 110
f 112 110 111
f 111 113 112
f 114 113 111
f 114 189 113
f 113 189 115
f 116 123 121
f 128 117 127
f 117 129 127
f 129 117 131
f 130 131 322
f 131 132 322
f 137 134 135
f 135 134 138
f 134 136 133
f 134 137 136
f 140 138 143
f 135 138 140
f 143 145 140
f 146 147 152
f 150 149 148
f 152 153 154
f 153 152 151
f 154 153 159
f 159 153 162
f 156 142 155
f 155 142 146
f 156 232 157
f 232 156 231
f 155 228 156
f 146 158 155
f 155 158 154
f 154 158 146
f 159 162 160
f 160 162 161
f 160 161 207
f 207 161 163
f 186 161 162
f 163 161 186
f 372 165 168
f 168 165 169
f 165 172 169
f 169 172 170
f 171 174 119
f 177 174 171
f 174 177 173
f 177 150 173
f 175 150 177
f 147 173 150
f 178 176 180
f 176 178 149
f 176 149 175
f 180 176 179
f 180 182 181
f 182 185 181
f 185 182 183
f 184 183 172
f 185 183 184
f 187 184 172
f 180 179 182
f 150 175 149
f 174 188 119
f 119 188 139
f 145 139 188
f 145 143 139
f 187 172 165
f 192 167 189
f 198 197 195
f 199 191 198
f 198 191 190
f 190 197 198
f 191 199 200
f 191 200 166
f 203 202 96
f 103 202 201
f 103 96 202
f 204 203 205
f 203 96 205
f 206 375 204
f 204 375 203
f 207 206 369
f 93 208 209
f 208 93 210
f 222 210 93
f 213 210 220
f 213 211 210
f 212 211 213
f 211 212 208
f 369 208 212
f 213 368 212
f 217 160 216
f 154 159 217
f 217 159 160
f 224 219 218
f 218 219 221
f 221 219 215
f 219 217 216
f 219 216 215
f 221 215 214
f 213 220 368
f 222 221 210
f 79 221 78
f 78 221 222
f 222 83 78
f 83 222 93
f 83 92 82
f 92 83 93
f 79 218 221
f 79 223 218
f 218 223 224
f 223 84 238
f 223 238 224
f 367 224 238
f 226 367 225
f 238 225 367
f 227 225 238
f 227 238 230
f 367 226 228
f 228 226 229
f 156 228 229
f 366 237 240
f 240 231 366
f 241 232 231
f 233 157 232
f 234 306 241
f 234 241 239
f 234 239 235
f 236 234 235
f 84 236 235
f 237 238 235
f 239 241 240
f 240 237 239
f 241 231 240
f 237 235 239
f 84 235 238
f 236 242 243
f 236 243 234
f 243 244 234
f 242 244 243
f 242 245 244
f 245 85 246
f 244 245 246
f 247 249 246
f 302 249 248
f 314 302 248
f 252 248 249
f 249 247 252
f 246 85 247
f 85 252 247
f 85 251 252
f 252 251 291
f 253 291 292
f 293 254 253
f 254 256 253
f 295 253 256
f 273 295 272
f 272 295 255
f 255 295 274
f 274 295 256
f 256 254 274
f 274 254 292
f 257 266 258
f 254 293 292
f 292 259 266
f 266 259 267
f 260 267 259
f 261 267 260
f 267 261 263
f 262 263 261
f 263 262 265
f 262 264 265
f 276 265 264
f 270 263 265
f 268 263 270
f 263 268 266
f 263 266 267
f 257 272 274
f 272 255 274
f 271 273 272
f 271 269 273
f 5 275 269
f 258 268 272
f 258 272 257
f 271 272 268
f 270 265 277
f 277 265 276
f 285 278 280
f 284 8 279
f 279 282 280
f 282 279 281
f 279 6 281
f 281 6 282
f 6 277 283
f 282 283 276
f 283 282 6
f 278 284 280
f 279 280 284
f 284 278 12
f 264 285 276
f 285 286 289
f 285 264 286
f 288 286 287
f 286 288 289
f 16 289 288
f 289 16 15
f 264 287 286
f 264 262 287
f 15 290 289
f 290 12 278
f 285 290 278
f 289 290 285
f 12 15 14
f 290 15 12
f 277 276 283
f 268 258 266
f 259 251 260
f 251 259 291
f 292 291 259
f 292 293 253
f 295 273 294
f 294 296 295
f 297 298 250
f 303 299 306
f 303 300 299
f 306 234 305
f 305 234 244
f 305 304 306
f 307 303 306
f 306 308 307
f 309 307 308
f 307 309 312
f 312 309 310
f 310 309 311
f 308 311 309
f 307 312 304
f 308 312 310
f 312 308 304
f 310 311 313
f 308 313 311
f 310 313 308
f 308 306 304
f 303 307 304
f 305 244 304
f 304 246 249
f 244 246 304
f 248 301 314
f 317 315 316
f 124 316 315
f 233 315 317
f 317 318 141
f 233 317 141
f 320 136 319
f 320 133 136
f 322 320 321
f 133 320 322
f 322 321 130
f 124 323 316
f 233 141 157
f 294 324 296
f 297 296 324
f 294 2 324
f 2 325 324
f 324 122 297
f 122 298 297
f 327 333 326
f 1 327 328
f 327 1 329
f 329 1 330
f 331 332 333
f 326 333 332
f 334 332 331
f 118 334 331
f 334 118 335
f 335 118 120
f 335 120 121
f 339 360 337
f 338 360 339
f 1 340 330
f 343 340 1
f 3 342 4
f 3 341 342
f 339 346 338
f 340 344 346
f 347 345 348
f 350 348 349
f 345 9 351
f 8 352 9
f 351 9 352
f 355 353 354
f 350 355 356
f 353 355 350
f 354 357 355
f 360 359 337
f 359 360 358
f 347 358 360
f 348 356 358
f 348 358 347
f 361 40 44
f 336 361 44
f 41 40 361
f 41 361 39
f 354 362 357
f 37 362 354
f 32 35 363
f 32 363 352
f 364 362 37
f 364 39 361
f 356 348 350
f 5 345 341
f 9 345 5
f 10 32 352
f 10 352 8
f 11 32 10
f 344 340 343
f 296 297 250
f 365 291 253
f 365 252 291
f 248 252 365
f 157 141 156
f 366 231 230
f 230 231 229
f 229 227 230
f 231 156 229
f 229 226 227
f 225 227 226
f 219 224 367
f 215 216 214
f 214 216 368
f 160 369 216
f 216 369 368
f 212 368 369
f 369 160 207
f 211 208 210
f 204 205 95
f 95 205 96
f 206 163 375
f 207 163 206
f 203 374 202
f 370 166 200
f 370 371 166
f 373 370 374
f 373 371 370
f 371 373 372
f 372 373 164
f 203 375 374
f 201 196 194
f 103 201 194
f 197 167 193
f 197 190 167
f 193 167 192
f 372 164 165
f 156 141 142
f 152 154 146
f 142 144 146
f 131 117 132
f 128 127 126
f 379 378 377
f 379 377 385
f 376 378 379
f 53 381 47
f 382 47 381
f 382 381 383
f 381 384 383
f 384 385 383
f 383 385 377
f 54 386 380
f 103 194 105
f 390 61 391
f 60 390 58
f 61 390 60
f 389 392 391
f 389 86 392
f 392 89 391
f 390 89 393
f 89 390 391
f 393 89 88
f 86 89 392
f 86 389 77
f 77 389 62
f 101 90 99
f 101 98 102
f 209 394 94
f 92 94 91
f 82 91 80
f 88 80 91
f 99 90 88
f 17 16 81
f 17 81 395
f 76 395 81
f 74 407 395
f 395 76 74
f 53 29 28
f 26 53 28
f 399 401 396
f 401 399 42
f 401 42 400
f 40 400 42
f 30 38 33
f 397 398 30
f 51 43 396
f 396 43 399
f 49 45 51
f 51 45 43
f 403 402 13
f 402 403 404
f 27 404 19
f 404 403 19
f 18 19 403
f 403 14 18
f 19 20 21
f 19 21 405
f 27 19 405
f 408 27 405
f 408 405 21
f 407 25 406
f 406 395 407
f 25 408 406
f 21 406 408
f 404 27 402
f 408 28 27
f 18 15 17
f 7 9 5
f 410 411 412
f 1180 413 412
f 413 414 412
f 414 415 419
f 414 419 412
f 412 419 410
f 416 419 415
f 416 417 419
f 417 418 419
f 420 419 418
f 423 422 421
f 424 422 423
f 425 422 424
f 604 426 425
f 424 604 425
f 530 529 426
f 416 530 427
f 530 428 427
f 427 428 429
f 433 435 445
f 766 435 433
f 418 436 437
f 417 436 418
f 440 438 437
f 437 439 440
f 439 437 441
f 444 443 442
f 435 1148 445
f 446 1197 445
f 447 448 446
f 447 687 448
f 447 680 687
f 687 449 448
f 444 448 449
f 449 450 1159
f 449 687 450
f 450 451 452
f 1159 450 452
f 452 453 1159
f 453 454 1158
f 453 452 454
f 454 452 455
f 452 725 455
f 460 459 454
f 460 409 459
f 409 461 459
f 422 461 409
f 461 422 425
f 461 425 528
f 526 462 461
f 462 466 463
f 462 463 459
f 462 459 461
f 464 466 462
f 464 465 466
f 1155 466 465
f 1155 465 467
f 471 467 465
f 469 468 467
f 469 467 471
f 622 608 469
f 470 469 471
f 470 471 464
f 480 474 473
f 476 475 474
f 489 477 478
f 489 476 480
f 480 476 474
f 479 473 482
f 482 481 479
f 481 482 483
f 481 483 484
f 484 483 485
f 487 488 1187
f 488 1186 1187
f 487 490 489
f 1187 490 487
f 1188 491 1187
f 491 1188 494
f 494 1188 524
f 492 493 495
f 492 495 496
f 498 497 499
f 501 503 504
f 508 502 495
f 502 508 507
f 508 495 1193
f 507 508 510
f 512 511 513
f 515 516 514
f 516 515 517
f 518 519 520
f 521 520 519
f 521 522 520
f 522 521 1196
f 522 523 525
f 515 1192 523
f 527 461 528
f 528 529 527
f 527 526 461
f 529 530 1168
f 415 530 416
f 415 414 531
f 414 413 531
f 546 545 559
f 546 559 547
f 546 547 549
f 549 547 551
f 551 544 549
f 544 551 550
f 553 554 576
f 553 558 554
f 556 553 555
f 558 553 556
f 562 560 561
f 567 568 566
f 569 567 518
f 567 569 568
f 1167 568 569
f 1164 1161 570
f 572 571 570
f 575 574 576
f 576 574 552
f 577 578 579
f 588 583 582
f 588 585 584
f 583 588 584
f 585 1102 586
f 591 589 573
f 591 573 572
f 594 593 1160
f 594 595 592
f 1135 595 594
f 1124 1123 597
f 599 1124 597
f 1124 599 600
f 600 599 429
f 603 601 600
f 428 603 600
f 604 530 426
f 530 603 428
f 604 603 530
f 605 468 607
f 608 607 468
f 623 607 608
f 607 623 609
f 624 609 623
f 609 624 610
f 609 610 606
f 611 606 610
f 612 611 613
f 613 611 610
f 610 624 613
f 618 612 619
f 611 612 618
f 611 618 615
f 617 615 618
f 616 615 617
f 619 617 618
f 614 623 622
f 622 623 608
f 624 623 614
f 612 624 614
f 627 625 621
f 626 625 627
f 632 628 630
f 631 628 632
f 631 632 633
f 633 632 634
f 635 634 747
f 635 747 633
f 629 748 637
f 629 637 747
f 639 1011 640
f 640 1153 641
f 1153 640 638
f 1153 642 641
f 1153 643 642
f 642 643 644
f 643 646 644
f 647 646 643
f 647 643 648
f 643 1153 648
f 650 652 653
f 651 655 654
f 656 660 659
f 656 662 660
f 662 656 655
f 662 655 753
f 664 663 665
f 1152 670 668
f 669 668 670
f 667 669 670
f 674 673 675
f 676 1143 675
f 677 1147 676
f 1147 677 770
f 677 676 678
f 678 676 679
f 676 675 679
f 672 763 678
f 763 672 447
f 682 681 686
f 686 680 682
f 680 681 688
f 686 681 680
f 447 672 680
f 688 687 680
f 687 688 691
f 451 687 691
f 691 689 451
f 689 691 692
f 694 693 702
f 702 695 694
f 698 694 695
f 694 698 696
f 698 697 696
f 696 697 690
f 708 707 756
f 708 709 707
f 729 727 710
f 699 712 713
f 699 700 712
f 722 719 500
f 722 500 721
f 725 723 456
f 725 724 723
f 725 452 724
f 452 451 724
f 476 386 475
f 476 478 386
f 727 728 472
f 752 733 751
f 733 752 731
f 733 732 751
f 732 733 757
f 762 734 757
f 738 736 735
f 741 736 738
f 739 732 736
f 734 736 732
f 742 749 741
f 743 749 742
f 629 744 743
f 746 744 629
f 740 744 745
f 746 745 744
f 746 621 745
f 740 745 621
f 621 746 627
f 651 750 655
f 749 743 740
f 743 744 740
f 749 740 741
f 738 737 742
f 738 742 741
f 732 739 751
f 730 731 752
f 755 753 754
f 753 755 661
f 762 757 735
f 708 756 757
f 683 758 760
f 760 758 706
f 735 737 738
f 735 736 762
f 734 762 736
f 708 729 710
f 727 709 710
f 451 450 687
f 681 682 684
f 678 763 768
f 768 763 765
f 766 764 435
f 1148 435 764
f 767 678 768
f 678 767 769
f 765 767 768
f 767 765 766
f 765 764 766
f 678 769 677
f 770 677 769
f 770 769 771
f 771 772 770
f 774 772 775
f 774 775 773
f 788 794 785
f 786 788 1024
f 1024 788 785
f 787 788 786
f 788 787 792
f 789 792 787
f 790 792 789
f 792 790 1083
f 1083 791 792
f 1140 793 792
f 801 798 799
f 801 961 798
f 802 804 806
f 803 807 805
f 809 1020 808
f 1020 809 811
f 807 803 810
f 1022 811 813
f 815 814 813
f 815 816 814
f 818 816 815
f 818 817 816
f 818 819 817
f 819 818 820
f 813 821 812
f 813 822 821
f 832 918 833
f 1137 838 124
f 838 1137 837
f 812 821 838
f 840 837 1137
f 843 845 919
f 845 844 846
f 848 847 883
f 847 848 853
f 846 847 849
f 845 846 849
f 904 854 886
f 904 855 854
f 861 855 863
f 298 855 861
f 859 836 860
f 860 862 859
f 860 861 862
f 864 861 863
f 1136 868 869
f 891 868 1136
f 590 1136 869
f 1136 590 1130
f 874 870 871
f 874 871 872
f 875 873 877
f 879 872 880
f 872 879 878
f 880 872 871
f 887 888 885
f 882 888 887
f 882 880 888
f 882 881 880
f 892 889 868
f 890 889 892
f 890 892 893
f 894 890 893
f 897 894 895
f 896 894 897
f 894 896 890
f 896 897 890
f 895 886 897
f 904 886 895
f 898 900 901
f 902 901 865
f 903 902 865
f 863 904 903
f 863 903 864
f 898 901 902
f 901 900 899
f 899 900 893
f 891 893 892
f 894 893 900
f 892 868 891
f 905 1061 844
f 905 909 1061
f 905 908 909
f 920 908 905
f 921 920 905
f 921 905 906
f 912 1081 910
f 1081 912 911
f 914 907 916
f 914 829 913
f 829 914 915
f 829 828 913
f 913 828 830
f 916 915 914
f 920 919 908
f 921 843 920
f 843 919 920
f 842 843 921
f 924 922 923
f 922 924 926
f 925 926 924
f 927 925 924
f 929 928 930
f 929 930 925
f 928 932 933
f 931 928 933
f 931 933 947
f 933 948 946
f 933 934 948
f 935 948 938
f 948 1112 938
f 938 1112 936
f 948 934 1112
f 1024 936 937
f 938 940 935
f 944 943 941
f 941 943 945
f 926 925 944
f 930 945 943
f 928 945 930
f 928 931 945
f 941 945 931
f 948 947 946
f 948 935 947
f 933 946 947
f 930 944 925
f 944 930 943
f 950 1017 951
f 1016 954 951
f 951 954 1018
f 808 1018 954
f 956 807 955
f 955 958 956
f 962 796 797
f 797 796 795
f 798 961 797
f 797 961 962
f 963 956 960
f 805 956 963
f 959 957 964
f 966 965 952
f 965 966 967
f 969 967 1014
f 969 970 992
f 971 970 969
f 972 973 991
f 973 972 975
f 973 975 976
f 973 976 636
f 633 636 976
f 979 980 978
f 978 980 974
f 980 979 982
f 980 982 981
f 986 985 987
f 989 974 980
f 974 989 990
f 972 992 971
f 969 992 967
f 991 992 972
f 995 988 994
f 784 994 993
f 997 995 996
f 998 997 964
f 1142 999 783
f 1142 1000 999
f 995 998 988
f 1001 984 1006
f 1001 1005 1004
f 1005 1001 1006
f 1003 1004 1002
f 1005 1002 1004
f 1008 1009 1007
f 978 1010 979
f 977 1010 978
f 1001 779 984
f 985 986 983
f 972 620 975
f 969 1012 971
f 968 1013 1014
f 1012 1014 1013
f 1014 1012 969
f 968 942 1013
f 942 968 1015
f 942 1015 1017
f 966 1017 1015
f 1017 966 1016
f 1017 1016 951
f 942 1017 950
f 971 992 970
f 953 958 955
f 956 805 807
f 808 1019 1018
f 808 1020 1019
f 811 1021 1020
f 814 949 1021
f 1021 1023 814
f 1022 814 1023
f 816 949 814
f 1022 1021 811
f 1021 1022 1023
f 1025 937 1026
f 1025 786 937
f 937 786 1024
f 1027 786 1025
f 1030 1028 1036
f 1036 1029 790
f 1036 790 1030
f 790 789 1030
f 1033 1036 1034
f 1029 1036 1033
f 1038 1092 1034
f 1035 1038 1034
f 1035 1036 1028
f 1035 1034 1036
f 1037 1038 1035
f 1091 1038 1037
f 1039 1060 1078
f 1078 1060 1040
f 1060 1039 1057
f 1045 1057 1039
f 1042 1057 1045
f 1041 1042 1045
f 1042 1041 1093
f 1108 1093 1041
f 1093 1108 1044
f 1046 1108 1045
f 1041 1045 1108
f 1044 1108 1046
f 432 1044 1046
f 1043 431 1048
f 431 1043 1047
f 1049 430 1048
f 1048 430 1050
f 1048 1050 1043
f 1050 1051 1043
f 1052 1043 1051
f 1052 1053 1065
f 1065 1054 1052
f 1042 1054 1055
f 1042 1055 1057
f 1057 1055 1056
f 1057 1056 1060
f 1058 1059 1056
f 1060 1056 1059
f 1061 1059 1058
f 1058 1062 1061
f 1058 1055 1062
f 1056 1055 1058
f 1065 1064 1063
f 1064 1065 1066
f 1070 1071 1076
f 1072 876 1073
f 876 1072 1075
f 1075 1074 876
f 1069 1070 1076
f 1070 1072 1071
f 1075 1072 1070
f 1068 884 1067
f 1062 1054 1063
f 1063 1064 1062
f 1054 1065 1063
f 1079 1059 909
f 1059 1040 1060
f 1079 1040 1059
f 1079 1077 1040
f 1091 1077 1032
f 1077 1091 1078
f 1077 1078 1040
f 1082 1031 1077
f 1077 1031 1032
f 1077 1079 1082
f 1079 910 1081
f 1079 1081 1080
f 1082 1090 1084
f 1082 1084 1083
f 1085 1090 1086
f 800 1087 1088
f 827 1089 1087
f 827 823 1089
f 1090 1085 1084
f 1083 1084 791
f 1083 1031 1082
f 1082 1080 1090
f 1080 1082 1079
f 1031 1083 790
f 1092 1091 1032
f 1092 1038 1091
f 1092 1031 1033
f 1092 1033 1034
f 1092 1032 1031
f 1042 1052 1054
f 1093 1052 1042
f 1043 1052 1093
f 1053 1051 598
f 1052 1051 1053
f 1051 1050 598
f 1053 598 1094
f 598 1095 1094
f 1099 1096 1098
f 1096 1099 1100
f 1100 1099 583
f 587 1101 1102
f 1102 1101 586
f 581 582 1099
f 1097 543 1103
f 1106 543 1104
f 1104 543 1105
f 1107 1106 1104
f 1104 1105 1107
f 1048 431 1049
f 431 1047 432
f 432 1047 1044
f 434 1046 1045
f 432 1046 434
f 1030 789 1028
f 789 787 1028
f 786 1027 787
f 1028 787 1027
f 1112 1109 1110
f 611 615 1109
f 615 1110 1109
f 615 616 1110
f 771 1110 616
f 771 616 772
f 611 1109 606
f 933 932 1111
f 1111 1112 934
f 933 1111 934
f 1026 937 936
f 1112 1110 936
f 1111 1109 1112
f 1142 782 785
f 1024 785 782
f 928 929 932
f 927 923 1113
f 1113 923 1119
f 1113 1119 1116
f 1113 1116 1114
f 1115 602 1114
f 1114 1116 1115
f 1115 1126 602
f 1128 1115 1117
f 1115 1128 1126
f 1116 1117 1115
f 1117 1116 1118
f 1119 1118 1116
f 1118 1119 1120
f 923 1120 1119
f 1120 923 922
f 906 1121 866
f 906 905 1121
f 845 1121 905
f 844 845 905
f 1122 1117 1118
f 1128 596 1123
f 602 1125 601
f 1126 1125 602
f 1126 1124 1125
f 1126 1127 1124
f 1124 1127 1123
f 1123 1127 1128
f 1122 1128 1117
f 1126 1128 1127
f 600 601 1125
f 1125 1124 600
f 597 1123 596
f 1131 867 1132
f 1130 1132 867
f 867 1131 1129
f 591 1130 590
f 1131 1130 591
f 1131 1132 1130
f 1133 1134 1129
f 1134 595 1135
f 1134 1133 595
f 1129 1134 867
f 927 924 923
f 843 866 1121
f 845 843 1121
f 866 843 842
f 862 861 864
f 859 841 836
f 836 841 1137
f 841 840 1137
f 833 918 858
f 847 853 849
f 817 819 840
f 839 840 819
f 839 819 837
f 839 837 840
f 793 1140 1141
f 792 791 1140
f 788 792 794
f 793 794 792
f 1142 785 1000
f 1144 1145 1146
f 1144 1143 1145
f 1147 774 1143
f 1147 1143 676
f 1143 774 773
f 770 774 1147
f 1145 1143 773
f 772 774 770
f 678 679 672
f 679 673 672
f 679 675 673
f 649 1150 1149
f 649 1151 1150
f 1150 1151 669
f 669 1151 668
f 673 674 671
f 645 1154 1011
f 645 1011 639
f 747 636 633
f 634 635 633
f 628 631 625
f 625 626 628
f 613 624 612
f 609 606 605
f 605 607 609
f 608 468 469
f 468 605 467
f 423 1157 1156
f 1156 1157 454
f 438 440 1158
f 453 1158 440
f 443 449 1159
f 1159 439 441
f 1159 441 442
f 443 1159 442
f 423 421 1157
f 466 1156 463
f 1155 1156 466
f 600 429 428
f 430 599 1050
f 1135 594 1160
f 1160 593 1161
f 593 1162 1161
f 570 1161 1162
f 1162 572 570
f 1162 593 572
f 582 581 580
f 570 571 1164
f 1163 1164 571
f 1163 1165 1164
f 1163 1166 1165
f 1166 1163 565
f 565 566 1166
f 566 1167 1166
f 1167 566 568
f 1165 1161 1164
f 554 563 564
f 563 554 557
f 518 520 569
f 567 566 517
f 1169 1173 1184
f 1169 1184 1174
f 1177 1178 1176
f 501 504 1179
f 460 411 409
f 413 1180 1181
f 1182 1176 1178
f 1176 1182 506
f 504 1182 1178
f 1182 504 503
f 1174 1175 513
f 1175 1184 1183
f 542 549 544
f 537 538 534
f 464 462 526
f 1186 1185 485
f 488 485 1185
f 485 488 484
f 488 1185 1186
f 1187 1186 1188
f 494 1189 1191
f 494 1191 1190
f 1192 1190 1191
f 1193 1194 509
f 1194 1193 1195
f 1189 494 524
f 1189 524 1191
f 1186 524 1188
f 523 1192 525
f 523 1196 515
f 522 1196 523
f 519 518 517
f 489 490 477
f 481 484 486
f 622 469 470
f 471 465 464
f 449 443 444
f 448 1197 446
f 1197 448 444
f 442 441 436
f 436 441 437
f 410 419 421
f 410 409 411
f 1198 1200 1199
f 1200 1201 1199
f 1208 1207 1209
f 1207 1204 1209
f 1209 1204 1210
f 1210 1204 1201
f 1210 1201 1211
f 1211 1201 1200
f 1208 1206 1207
f 1212 1206 1208
f 1212 1205 1206
f 1213 1205 1212
f 1214 1216 1213
f 1213 1216 1205
f 1234 1216 1214
f 1217 1218 1220
f 1218 1219 1220
f 1217 1220 1221
f 1217 1221 1203
f 1203 1221 1231
f 1203 1231 1222
f 1222 1224 1223
f 1223 1224 1225
f 1223 1225 1202
f 1202 1225 1226
f 1202 1226 1227
f 1202 1227 1228
f 1228 1229 1230
f 1229 1228 1227
f 1230 1229 1198
f 1198 1199 1230
f 1222 1231 1224
f 1219 1233 1232
f 1232 1233 1215
f 1232 1215 1234
f 1234 1215 1216
f 1233 1219 1218
f 1235 1237 1289
f 1249 1250 1252
f 1252 1250 1251
f 1334 1252 1251
f 1252 1334 1253
f 1253 1334 1336
f 1336 1254 1253
f 1338 1254 1336
f 1259 1258 1339
f 1281 1282 1289
f 1281 1283 1282
f 1287 1283 1290
f 1287 1284 1283
f 1284 1259 1283
f 1287 1259 1284
f 1259 1287 1285
f 1259 1285 1258
f 1281 1289 1290
f 1285 1287 1258
f 1290 1283 1281
f 1289 1282 1235
f 1235 1282 1291
f 1291 1237 1235
f 1291 1292 1237
f 1300 1304 1346
f 1302 1238 1240
f 1304 1301 1303
f 1304 1303 1295
f 1301 1304 1300
f 1295 1303 1294
f 1305 1306 1301
f 1307 1343 1306
f 1307 1306 1345
f 1308 1343 1307
f 1308 1309 1343
f 1311 1309 1308
f 1311 1310 1309
f 1347 1313 1312
f 1317 1341 1316
f 1320 1321 1325
f 1319 1321 1320
f 1316 1341 1321
f 1319 1316 1321
f 1317 1316 1319
f 1323 1322 1315
f 1322 1323 1324
f 1320 1325 1327
f 1320 1327 1319
f 1325 1326 1327
f 1329 1326 1325
f 1328 1249 1326
f 1328 1326 1329
f 1338 1336 1339
f 1339 1256 1338
f 1339 1258 1256
f 1338 1256 1254
f 1334 1251 1336
f 1250 1328 1251
f 1250 1249 1328
f 1340 1317 1310
f 1340 1311 1341
f 1310 1311 1340
f 1315 1312 1313
f 1340 1341 1317
f 1343 1309 1310
f 1274 1264 1268
f 1345 1346 1307
f 1305 1346 1306
f 1306 1346 1345
f 1305 1300 1346
f 1301 1300 1305
f 1295 1294 1291
f 1291 1294 1292
