v 0.04823 -0.05662 -0.00047804
v 0.042711 -0.056466 -0.00045825
v 0.037178 -0.056445 -0.00042936
v 0.037133 -0.048629 -0.00052697
v 0.037043 -0.048807 -0.00067182
v 0.036452 -0.048655 -0.0062036
v 0.033713 -0.056554 -0.014742
v 0.032392 -0.056738 -0.01772
v 0.044136 -0.056766 -0.019102
v 0.030358 -0.05663 -0.020573
v 0.025181 -0.056261 -0.026433
v 0.027151 -0.056592 -0.024548
v 0.026967 -0.056762 -0.025102
v 0.038367 -0.056726 -0.028766
v 0.038617 -0.056295 -0.028621
v 0.041098 -0.053927 -0.024991
v 0.040813 -0.052549 -0.025464
v 0.041323 -0.050922 -0.024654
v 0.043714 -0.048707 -0.020322
v 0.035027 -0.048539 -0.012267
v 0.032966 -0.048838 -0.016146
v 0.025035 -0.048798 -0.026585
v 0.016688 -0.056508 -0.032338
v 0.013992 -0.048618 -0.033536
v 0.0090565 -0.048775 -0.035148
v 0.0021179 -0.048975 -0.036133
v 0.00759 -0.056601 -0.035452
v -0.0025488 -0.049059 -0.03607
v -0.009622 -0.049092 -0.03482
v -0.011773 -0.056578 -0.034209
v -0.014119 -0.048637 -0.03332
v -0.0079934 -0.056544 -0.035252
v -0.0061316 -0.056795 -0.036141
v -0.015828 -0.056795 -0.044345
v -0.031391 -0.056755 -0.0188
v -0.022871 -0.056795 -0.028636
v -0.017441 -0.056676 -0.03176
v -0.011843 -0.056795 -0.034631
v -0.00022204 -0.056764 -0.036441
v -0.012789 -0.056684 -0.045746
v 0.0049799 -0.056795 -0.036375
v -0.029915 -0.0566 -0.0206
v -0.032484 -0.056585 -0.016239
v -0.033955 -0.056579 -0.013041
v -0.035386 -0.056581 -0.008672
v -0.036628 -0.056551 -0.00051128
v -0.036738 -0.052645 -0.000443
v -0.036959 -0.048846 -0.00039093
v -0.036524 -0.04968 -0.00066328
v -0.036641 -0.048711 -0.00051081
v -0.036172 -0.048584 -0.005413
v -0.035424 -0.048859 -0.0084324
v -0.032534 -0.048495 -0.017262
v -0.033477 -0.048725 -0.014177
v -0.031641 -0.048687 -0.017812
v -0.028652 -0.048735 -0.022239
v -0.028451 -0.056048 -0.022391
v -0.02404 -0.056563 -0.027088
v -0.026218 -0.056736 -0.025246
v -0.01944 -0.056572 -0.030498
v -0.018205 -0.048839 -0.031212
v -0.017526 -0.048553 -0.031855
v -0.0084787 -0.048583 -0.035301
v -0.015828 -0.048495 -0.044345
v -0.024357 -0.048561 -0.027026
v -0.023111 -0.048773 -0.027867
v -0.02838 -0.048529 -0.02295
v -0.030492 -0.048578 -0.036476
v -0.032527 -0.056743 -0.034622
v -0.036495 -0.056456 -0.030683
v -0.03471 -0.048583 -0.032529
v -0.040347 -0.052198 -0.025446
v -0.037952 -0.048691 -0.028809
v -0.041316 -0.048604 -0.023781
v -0.04282 -0.04855 -0.020852
v -0.041336 -0.050453 -0.023833
v -0.040768 -0.051147 -0.024746
v -0.040394 -0.053257 -0.025394
v -0.040763 -0.054159 -0.024801
v -0.041272 -0.054814 -0.023966
v -0.040255 -0.056588 -0.025617
v -0.035705 -0.056743 -0.031296
v -0.028863 -0.056567 -0.037872
v -0.023272 -0.056679 -0.041441
v -0.02217 -0.048719 -0.042116
v -0.026929 -0.048601 -0.039144
v -0.020948 -0.048551 -0.042526
v -0.015385 -0.048634 -0.044973
v -0.0083683 -0.048646 -0.046818
v -0.012531 -0.048995 -0.045909
v -0.0091555 -0.056613 -0.046641
v -0.017986 -0.056687 -0.043986
v -0.0046651 -0.056701 -0.047307
v 0.0018451 -0.056754 -0.047454
v 0.0012745 -0.056465 -0.047631
v 0.0083841 -0.056534 -0.046962
v 0.014275 -0.056645 -0.045481
v 0.01163 -0.056804 -0.046018
v 0.017231 -0.048745 -0.044526
v 0.024281 -0.048511 -0.027791
v 0.019463 -0.048548 -0.043516
v 0.020861 -0.048729 -0.029903
v 0.019122 -0.048495 -0.0315
v 0.016823 -0.04871 -0.032254
v 0.010589 -0.048526 -0.034988
v 0.0047316 -0.048585 -0.036062
v -0.0019276 -0.048579 -0.036305
v 0.034632 -0.04866 -0.033154
v 0.028587 -0.048616 -0.02296
v 0.03161 -0.048594 -0.018729
v 0.03677 -0.048505 -0.030759
v 0.040638 -0.048753 -0.025743
v 0.03774 -0.048722 -0.029686
v 0.035679 -0.056711 -0.031961
v 0.03207 -0.05654 -0.035632
v 0.030962 -0.049012 -0.036611
v 0.027281 -0.056607 -0.039292
v 0.028059 -0.056762 -0.03855
v 0.023867 -0.056638 -0.041375
v 0.025186 -0.048692 -0.040662
v 0.02869 -0.048579 -0.038216
v 0.018797 -0.056624 -0.043893
v 0.021159 -0.056732 -0.029917
v 0.02179 -0.05657 -0.029209
v 0.012906 -0.05673 -0.034185
v 0.01113 -0.056574 -0.03454
v 0.0037987 -0.056389 -0.035987
v 0.0020644 -0.056655 -0.036269
v -0.0026758 -0.056597 -0.03612
v -0.0045502 -0.048499 -0.047287
v -0.00074653 -0.048757 -0.047626
v 0.0055277 -0.048545 -0.047215
v 0.011027 -0.048706 -0.046386
v -0.034771 -0.056782 -0.011758
v -0.042801 -0.056796 -0.020493
v -0.044947 -0.05663 -0.016142
v -0.046107 -0.056558 -0.01278
v -0.045875 -0.054324 -0.013546
v -0.045556 -0.054592 -0.01441
v -0.043296 -0.055576 -0.020124
v -0.041926 -0.055259 -0.022621
v -0.041539 -0.054843 -0.0073788
v -0.043263 -0.055391 -0.007379
v -0.045151 -0.054804 -0.015059
v -0.045496 -0.0544 -0.0073757
v -0.04466 -0.054045 -0.007379
v -0.044626 -0.054011 -0.002179
v -0.045171 -0.052238 -0.002179
v -0.04512 -0.052048 -0.007379
v -0.045869 -0.051812 -0.0073829
v -0.044128 -0.049962 -0.0073789
v -0.046096 -0.052785 -0.01168
v -0.046304 -0.053233 -0.01196
v -0.045875 -0.053805 -0.012643
v -0.04638 -0.052578 -0.011701
v -0.035125 -0.048541 -0.010413
v -0.047883 -0.048513 -0.00077375
v -0.047444 -0.048673 -0.0064795
v -0.047342 -0.056535 -0.0073535
v -0.03618 -0.056714 -0.0053307
v -0.047307 -0.05676 -0.0063467
v -0.042236 -0.056729 -0.000629
v -0.04758 -0.05648 -0.00041187
v -0.043549 -0.048995 -0.000379
v -0.039609 -0.056545 -0.000446
v -0.036869 -0.056764 -0.00069517
v -0.047819 -0.056713 -0.00064922
v -0.036901 -0.056305 -0.00038156
v -0.047756 -0.048598 -0.00060258
v -0.042236 -0.048654 -0.0005375
v -0.036888 -0.048508 -0.00084271
v -0.047956 -0.048898 -0.0006235
v -0.047947 -0.056411 -0.00060465
v -0.047647 -0.048837 -0.00040943
v -0.046502 -0.048589 -0.01104
v -0.044711 -0.049956 -0.016905
v -0.045743 -0.050822 -0.013942
v -0.045025 -0.05038 -0.01513
v -0.043264 -0.049797 -0.019464
v -0.044798 -0.050247 -0.015958
v -0.043905 -0.049851 -0.018477
v -0.044649 -0.050089 -0.016804
v -0.043769 -0.049687 -0.019172
v -0.042062 -0.049977 -0.022517
v -0.043014 -0.049741 -0.020664
v -0.041141 -0.050775 -0.0073787
v -0.041863 -0.051248 -0.007379
v -0.041363 -0.052645 -0.007379
v -0.041897 -0.051282 -0.002179
v -0.041355 -0.053055 -0.002179
v -0.04275 -0.054555 -0.002179
v -0.043774 -0.050735 -0.002179
v -0.043762 -0.050781 -0.007379
v -0.042259 -0.054382 -0.007379
v -0.040516 -0.052645 -0.007379
v -0.040747 -0.054123 -0.024739
v -0.04226 -0.055403 -0.022195
v -0.041459 -0.056374 -0.023741
v -0.043162 -0.056582 -0.020431
v -0.046021 -0.051811 -0.012219
v -0.045852 -0.051501 -0.012326
v -0.046241 -0.051834 -0.012176
v -0.045072 -0.048785 -0.015996
v -0.044329 -0.055365 -0.017705
v -0.043318 -0.0555 -0.019543
v 0.034901 -0.048729 -0.011828
v 0.04715 -0.048537 -0.0097598
v 0.047084 -0.048749 -0.010981
v 0.045437 -0.048561 -0.015913
v 0.044464 -0.04982 -0.018532
v 0.04282 -0.049832 -0.022033
v 0.043752 -0.049796 -0.019469
v 0.04515 -0.050199 -0.016193
v 0.044554 -0.049926 -0.017813
v 0.041251 -0.051425 -0.0075048
v 0.042395 -0.050218 -0.0075533
v 0.045691 -0.050542 -0.014955
v 0.045367 -0.050049 -0.016436
v 0.04498 -0.050103 -0.016674
v 0.04504 -0.050059 -0.016999
v 0.04674 -0.052142 -0.011936
v 0.046381 -0.051007 -0.013448
v 0.04682 -0.052846 -0.011727
v 0.045686 -0.054768 -0.015048
v 0.045447 -0.054764 -0.0074114
v 0.046419 -0.053627 -0.012414
v 0.043658 -0.055403 -0.007448
v 0.044246 -0.055486 -0.018839
v 0.045321 -0.055083 -0.0163
v 0.046146 -0.054519 -0.014127
v 0.046593 -0.053885 -0.012688
v 0.046166 -0.056644 -0.013963
v 0.047596 -0.056563 -0.0086169
v 0.048024 -0.056794 -0.00088026
v 0.048443 -0.056592 -0.0011039
v 0.048453 -0.049166 -0.00069045
v 0.048158 -0.048662 -0.0045797
v 0.048128 -0.048526 -0.00072476
v 0.048352 -0.048688 -0.00057774
v 0.043367 -0.048608 -0.00058325
v 0.037366 -0.048831 -0.00040015
v 0.048207 -0.048818 -0.00040996
v 0.048416 -0.056442 -0.00063309
v 0.037163 -0.056703 -0.0006121
v 0.036961 -0.056025 -0.00087781
v 0.035896 -0.056402 -0.0084812
v 0.035206 -0.05673 -0.011403
v 0.03647 -0.056723 -0.0066189
v 0.047671 -0.056782 -0.0063793
v 0.043946 -0.056564 -0.019781
v 0.045312 -0.055221 -0.016529
v 0.045105 -0.055964 -0.017296
v 0.043942 -0.055616 -0.019844
v 0.042515 -0.055272 -0.022521
v 0.041523 -0.054662 -0.024334
v 0.041558 -0.056424 -0.024332
v 0.041329 -0.053989 -0.0074157
v 0.042216 -0.054919 -0.007425
v 0.04436 -0.055294 -0.0073778
v 0.046416 -0.053341 -0.0074166
v 0.046261 -0.051627 -0.0074115
v 0.045425 -0.050521 -0.0073999
v 0.046264 -0.051308 -0.01312
v 0.046504 -0.052123 -0.011833
v 0.046572 -0.052961 -0.011708
v 0.043783 -0.049891 -0.007424
v 0.041021 -0.052816 -0.007393
v 0.041753 -0.050808 -0.0073933
v 0.017537 -0.011581 0.047056
v -0.0010431 -0.011104 0.04941
v -0.013088 -0.011186 0.047258
v -0.024501 -0.011403 0.04215
v -0.040903 -0.010603 0.025416
v 0.012891 8.3859e-05 0.034174
v -0.040778 -0.001333 0.012181
v 0.012801 0.0021728 0.031338
v -0.0070241 0.0024438 0.033086
v -0.013017 0.0025237 0.031763
v -0.044883 -0.0051003 0.0087038
v 0.023076 -0.0092122 0.044148
v 0.01771 -0.018238 0.047582
v 0.0080378 -0.011465 0.049183
v -0.0073248 -0.018199 0.050006
v -0.019292 -0.010878 0.044751
v -0.030263 -0.011243 0.038029
v -0.034446 -0.018369 0.036779
v -0.044721 -0.0090147 0.016664
v -0.047486 -0.014134 0.012249
v -0.039581 0.0024567 0.0030167
v -0.0064524 0.00596 0.032598
v -0.020906 0.0058153 0.027829
v -0.037089 0.0025666 0.010214
v -0.038214 0.0050661 0.0062741
v 0.016774 -0.0081326 0.046002
v 0.0088196 -0.0080634 0.047733
v 0.00068884 -0.007914 0.048099
v -0.0095808 -0.0078089 0.046758
v -0.021226 -0.0077397 0.042374
v -0.031016 -0.0076661 0.035472
v -0.03796 -0.0075887 0.027509
v -0.042203 -0.0075625 0.020567
v 0.01671 -0.0053397 0.043652
v 0.0086378 -0.0052687 0.045491
v 0.00040267 -0.0051447 0.045833
v -0.0075099 -0.0050213 0.044852
v -0.017158 -0.0049439 0.041945
v -0.025812 -0.0049806 0.037153
v -0.033163 -0.0048992 0.030644
v -0.039007 -0.0040336 0.021696
v -0.042829 -0.0046667 0.01506
v 0.0086775 -0.0031246 0.042352
v 0.00037708 -0.0029715 0.042819
v -0.012037 -0.0025836 0.040593
v -0.0227 -0.002706 0.036095
v -0.028369 -0.0023407 0.031456
v -0.033968 -0.002494 0.025937
v -0.01465 0.00075055 0.033553
v -0.020318 0.00094481 0.030949
v -0.033867 0.0025179 0.015784
v 0.0061838 0.00029913 0.035566
v -0.0035634 0.0004835 0.035967
v -0.025068 0.0025227 0.025504
v -0.030006 0.0022161 0.02112
v 0.0061761 0.0022381 0.033046
v -1.1391e-05 0.0023408 0.033537
v -0.019354 0.0026408 0.029298
v -0.0363 -0.010891 0.031889
v 0.021995 -0.0051619 0.041206
v 0.017276 -0.0032098 0.040121
v -0.043215 -0.0024744 0.0070782
v 0.018762 0.0024072 0.028456
v -0.030738 0.0029953 0.019697
v -0.048379 -0.018832 0.011572
v -0.046356 -0.0087994 0.010562
v -0.043508 -0.0018747 0.0022048
v -0.047934 -0.015913 0.0086171
v -0.047337 -0.010536 -0.0017903
v -0.040224 0.0027026 2.6124e-05
v 0.0011465 -0.018483 0.050603
v -0.044252 -0.01826 0.024038
v -0.028021 -0.018412 0.041929
v 0.023649 -0.015716 0.044876
v 0.0097011 -0.018261 0.049748
v -0.014795 -0.018501 0.048286
v -0.021905 -0.01826 0.04542
v -0.039645 -0.018357 0.031092
v -0.047455 -0.018229 0.016826
v 0.019111 0.011279 0.011149
v -0.029006 0.0092018 0.0098323
v -0.022957 0.010659 0.013323
v -0.01622 0.011713 0.015756
v -0.0094241 0.012154 0.017596
v 0.0051071 0.012247 0.017773
v 0.012204 0.011294 0.018363
v 0.024637 0.0095283 0.0094112
v -0.03647 0.0046998 0.0034064
v -0.034796 0.0047113 0.0081821
v -0.030809 0.0048495 0.01503
v -0.011593 0.005803 0.028812
v -0.003744 0.005821 0.030193
v 0.0021138 0.0057863 0.030278
v 0.00821 0.005723 0.029338
v 0.016147 0.0054401 0.02641
v 0.014729 0.012054 0.012672
v 0.026145 0.0091926 0.0065873
v -0.036727 0.0054913 0.0014842
v 0.028273 0.007129 0.0088424
v -0.036165 0.0020166 0.005845
v -0.032935 0.0051927 0.011584
v -0.0304 0.0017747 0.016562
v -0.026853 0.0052765 0.019658
v -0.018809 0.0055929 0.026029
v 0.011601 0.0052438 0.028579
v 0.019423 0.005244 0.024307
v 0.022985 0.0044497 0.021204
v 0.025385 0.0046337 0.017917
v 0.029278 0.0046998 0.0098971
v -0.028997 0.0082197 0.013023
v -0.034054 0.006691 0.0071211
v -0.024148 0.009076 0.017165
v -0.017656 0.009867 0.021051
v -0.010459 0.010292 0.023385
v -0.002947 0.01043 0.024446
v 0.0063426 0.010271 0.024135
v 0.014516 0.0097031 0.022044
v 0.019225 0.0095474 0.018694
v 0.023924 0.0082622 0.015629
v -0.029495 0.0063438 0.015668
v -0.023306 0.0071096 0.021667
v -0.01857 0.007447 0.024726
v -0.011258 0.007741 0.027465
v -0.003538 0.007843 0.028709
v 0.004342 0.007768 0.028551
v 0.01059 0.0075906 0.027351
v 0.018009 0.0071546 0.024044
v 0.023991 0.0064511 0.018703
v -0.03425 0.0071715 0.0051128
v -0.001927 0.012379 0.018068
v -0.022303 0.005472 0.023773
v -0.016774 0.00146 0.028087
v -0.0054118 0.001222 0.031133
v 0.0015079 0.0011542 0.031346
v 0.012004 0.003392 0.028724
v 0.027531 0.0050185 0.013994
v -0.006546 0.014051 -0.0061989
v -0.01749 0.013364 -0.0074119
v -0.031201 0.010777 -0.0057185
v -0.039585 0.0060725 -0.017351
v 0.012582 0.013229 0.0053486
v 0.005909 0.013487 0.009154
v -0.0051309 0.01368 0.0096983
v -0.023149 0.011861 0.006309
v -0.029854 0.010241 0.003429
v -0.035564 0.007789 -0.000886
v -0.039187 0.0035742 -0.008205
v -0.0023467 0.013292 -0.017235
v -0.016329 0.012966 -0.017342
v -0.025676 0.011908 -0.017344
v -0.032188 0.01055 -0.017344
v -0.036962 0.0086881 -0.017352
v 0.013554 0.013098 -0.0067168
v 0.021549 0.011721 0.0017329
v -0.040262 0.0044406 -0.017352
v -0.039877 0.0037305 -0.013042
v -0.024295 0.012377 -0.0028598
v 0.0053633 0.013961 0.00040535
v -0.0060411 0.014096 0.0027812
v -0.016263 0.01324 0.0055706
v -0.037204 0.0080642 -0.010291
v -0.039079 0.0057266 -0.010324
v -0.038845 0.0044127 -0.0063819
v 0.0076364 0.01325 -0.012856
v 0.0034556 0.013298 -0.015484
v -0.037578 0.0033487 -0.00022652
v 0.004036 0.015053 0.016694
v 0.019094 0.013725 0.012373
v -0.017265 0.013696 0.017872
v -0.0011908 0.013922 0.022125
v -0.0094108 0.013804 0.021291
v 0.0089127 0.013575 0.021557
v 0.024375 0.011365 0.014522
v -0.037111 0.0072308 0.0066152
v -0.034623 0.0062882 0.013177
v -0.029135 0.0071682 0.019966
v 0.02698 0.0046626 0.020114
v 0.026633 0.006801 0.019404
v 0.029142 0.006234 0.015572
v -0.026417 0.0055627 0.023798
v -0.015213 0.0060136 0.030501
v 0.0015201 0.0062341 0.03282
v 0.0096095 0.0059632 0.031728
v 0.027434 0.0089551 0.01535
v 0.016588 0.0058415 0.029031
v 0.020323 0.005679 0.026734
v 0.024105 0.0051557 0.023523
v -0.038637 0.0067212 0.0025576
v 0.026256 0.012079 0.0067154
v -0.030653 0.011098 0.010563
v -0.006978 0.015085 0.016637
v 0.029535 0.0090498 0.010178
v 0.028997 0.0021566 0.017066
v 0.018868 0.0018061 0.028742
v 0.031129 0.00527 0.011852
v 0.017996 0.012664 0.018635
v -0.034054 0.0085304 0.011177
v -0.028349 0.010032 0.016983
v -0.021589 0.011091 0.022005
v -0.014681 0.011644 0.025082
v -0.0043836 0.011953 0.027258
v 0.0063129 0.011798 0.026872
v 0.014441 0.011307 0.024853
v 0.021626 0.010408 0.021009
v -0.022556 0.0079299 0.025535
v -0.015368 0.0083388 0.029088
v -0.0069228 0.0084553 0.031191
v 0.0018175 0.0085002 0.031536
v 0.010441 0.0083012 0.030195
v 0.018577 0.0078609 0.026799
v 0.023636 0.007284 0.022815
v 0.01216 0.01457 0.015219
v -0.034655 0.0093568 0.0076635
v -0.023877 0.012677 0.01508
v 0.02471 0.001998 0.023268
v -0.0044998 0.016423 -0.0084049
v -0.010658 0.016477 -0.0019102
v -0.018258 0.015866 -0.0029365
v -0.025676 0.01472 -0.0046978
v -0.032805 0.012953 -0.0072729
v 0.016985 0.015325 -0.0030916
v 0.021866 0.014199 0.0020733
v 0.010989 0.015754 0.0079383
v -0.0055907 0.016235 0.0092796
v -0.01728 0.015395 0.00748
v -0.024659 0.014178 0.005603
v -0.031606 0.012372 0.002714
v -0.038171 0.0097569 -0.0045737
v -0.040458 0.0075851 -0.0071841
v 0.0096606 0.015759 -0.010852
v -0.023853 0.014748 -0.017341
v -0.03316 0.012844 -0.01735
v -0.039354 0.0099669 -0.01735
v -0.041492 0.0077019 -0.017354
v 0.0018337 0.016657 -0.00024311
v 0.0044118 0.015758 -0.015096
v -0.039712 0.0052437 0.0008593
v -0.042739 0.0045197 -0.017354
v -0.042258 0.0044569 -0.012539
v -0.041205 0.0045574 -0.005645
v -0.013351 0.015635 -0.017342
v -0.0021608 0.015802 -0.017189
v -0.043744 -0.0037227 -0.013405
v -0.047086 -0.011171 -0.011358
v -0.048313 -0.017374 -0.012393
v -0.042228 0.00045 -0.006347
v -0.041328 0.0024986 -0.0055784
v -0.048311 -0.016888 -0.00061448
v -0.041461 0.00064736 0.0014021
v -0.045182 -0.0043301 0.0012322
v -0.042826 -0.000981 -0.017354
v -0.043252 -0.0051703 -0.017352
v -0.047113 -0.016205 -0.017388
v -0.047585 -0.019149 -0.016808
v -0.042783 -0.00075724 -0.011492
v -0.044403 -0.016648 -0.01736
v -0.040842 -0.0060815 -0.017354
v -0.040333 -0.001144 -0.017353
v -0.044903 -0.019069 -0.016849
v -0.048327 -0.021708 -0.013834
v -0.045562 -0.021138 -0.014856
v 0.027172 -0.000325 0.015315
v 0.023965 0.000327 0.020612
v 0.019296 0.001741 0.025061
v 0.028453 -0.004355 0.016451
v 0.023176 -0.003048 0.027798
v 0.020328 -0.000237 0.025647
v 0.030751 -0.007502 0.018033
v 0.022089 -0.0055727 0.036755
v 0.035915 -0.012251 0.021211
v 0.025209 -0.007595 0.037671
v 0.027172 -0.010908 0.038864
v 0.028208 -0.015466 0.039214
v 0.04192 -0.017416 0.023298
v 0.038376 -0.017457 0.029482
v 0.03746 -0.014987 0.029158
v 0.033411 -0.014827 0.03442
v 0.029414 -0.001525 0.01004
v 0.017628 0.00098705 0.026627
v 0.030304 -0.005978 0.010981
v 0.018171 -0.001031 0.028394
v 0.021642 -0.0081546 0.040888
v 0.033182 -0.010263 0.014021
v 0.02236 -0.011685 0.042387
v 0.04054 -0.015785 0.02181
v 0.033301 -0.018924 0.035151
v 0.030009 -0.021807 0.037979
v 0.042066 -0.019055 0.024164
v 0.025861 -0.003264 0.022031
v 0.030348 -0.0076714 0.025562
v 0.026131 -0.0053 0.030081
v 0.028965 -0.007782 0.032126
v 0.034733 -0.011646 0.027894
v 0.031505 -0.01086 0.033683
v 0.019516 -0.0035286 0.032973
v 0.02744 -0.00020435 0.020749
v 0.021221 -0.0026843 0.036927
v 0.025309 -0.002056 0.030652
v 0.021131 0.00035775 0.029204
v 0.031076 -0.0045123 0.019556
v 0.024592 -0.004425 0.038331
v 0.027191 -0.007676 0.040368
v 0.028711 -0.011912 0.041358
v 0.039386 -0.017535 0.03224
v 0.03879 -0.014635 0.031883
v 0.043839 -0.016692 0.025253
v 0.033653 -0.0070801 0.014522
v 0.042528 -0.014492 0.023905
v 0.028264 -0.002689 0.024818
v 0.028429 -0.00442 0.03283
v 0.032989 -0.0069085 0.02857
v 0.032854 -0.0081726 0.033704
v 0.033273 -0.010985 0.036398
v 0.031392 -0.0019135 0.012135
v 0.035047 -0.016565 0.036829
v 0.029125 -0.01705 0.041673
v 0.039542 -0.021808 0.028018
v 0.02324 -0.021807 0.042372
v 0.017406 -0.018901 0.045028
v 0.014429 -0.021808 0.046109
v 0.0098144 -0.018868 0.047194
v 0.0020097 -0.018838 0.048098
v -0.005827 -0.01882 0.047723
v -0.01659 -0.021808 0.045126
v -0.025336 -0.021808 0.040718
v -0.031636 -0.021808 0.035996
v -0.034289 -0.018515 0.033434
v -0.039215 -0.01852 0.027456
v -0.043158 -0.018507 0.020676
v -0.045786 -0.021807 0.014187
v -0.045915 -0.021806 -0.012251
v 0.040982 -0.021138 0.025901
v 0.036236 -0.021808 0.032167
v 0.0027529 -0.021808 0.048138
v -0.0069811 -0.021808 0.047567
v -0.02142 -0.01861 0.042917
v -0.037102 -0.021808 0.030296
v -0.041569 -0.021808 0.023772
v -0.045751 -0.018743 0.013873
v -0.045876 -0.018728 0.0031774
v 0.021108 -0.021808 0.046212
v 0.00014069 -0.021808 0.050727
v -0.023387 -0.021807 0.044711
v -0.030374 -0.021807 0.040241
v -0.036225 -0.021808 0.035055
v -0.04145 -0.021808 0.028659
v -0.045458 -0.021808 0.021712
v -0.048371 -0.021808 0.013848
v 0.041339 -0.02183 0.029918
v 0.043928 -0.018966 0.026065
v 0.042749 -0.021138 0.027769
v -0.013152 -0.021808 0.048911
v 0.034585 -0.021808 0.03738
v 0.028243 -0.021808 0.042305
v 0.012202 -0.021808 0.049277
v -0.040208 -0.000828 -0.010006
v -0.039577 0.001592 -0.009971
v -0.042057 -0.005241 -0.00998
v -0.04398 -0.009698 -0.00995
v -0.045391 -0.014345 -0.009903
v -0.038149 0.0014261 -0.00071884
v -0.045355 -0.013798 -0.0012697
v -0.039893 -0.000805 -0.002512
v -0.043206 -0.0060557 0.00064191
v -0.044391 -0.0091737 0.00075716
v -0.04177 -0.0037979 0.0024145
v -0.014553 -0.018428 0.04575
v -0.02843 -0.018471 0.038576
v 0.015611 -0.011477 0.044942
v -0.044337 -0.011167 0.011249
v 0.014457 -0.007821 0.043225
v -0.042782 -0.006922 0.010044
v 0.010527 -0.0051311 0.040481
v -0.040884 -0.00394 0.00882
v 0.010344 -0.0030231 0.03588
v 0.010186 -0.00086461 0.031896
v -0.037193 0.00038496 0.0061045
v 0.012358 0.000901 0.029308
v 0.0069972 0.0010459 0.030711
v -0.011132 0.001299 0.030087
v -0.021901 0.0015651 0.025148
v -0.026441 0.001669 0.021124
v -0.033902 0.0011699 0.011649
v 0.0081001 -0.011383 0.046515
v 0.00044203 -0.011328 0.046871
v -0.0071881 -0.011284 0.04601
v -0.015014 -0.010943 0.043652
v -0.021563 -0.011062 0.040682
v -0.02812 -0.010867 0.036129
v -0.033524 -0.010785 0.030884
v -0.038067 -0.010719 0.024931
v -0.041666 -0.010674 0.018369
v 0.007087 -0.007717 0.044567
v -0.000349 -0.007609 0.044708
v -0.007671 -0.007515 0.043701
v -0.014726 -0.007435 0.041602
v -0.021359 -0.007361 0.038441
v -0.027381 -0.007271 0.034218
v -0.032542 -0.007142 0.029067
v -0.036885 -0.007033 0.023283
v -0.040346 -0.006951 0.016944
v -0.0039579 -0.004976 0.041139
v -0.013705 -0.0047502 0.038505
v -0.020173 -0.004605 0.035628
v -0.025939 -0.004458 0.031699
v -0.03088 -0.004287 0.026817
v -0.03508 -0.004137 0.021336
v -0.038464 -0.004014 0.015338
v -0.003059 -0.0028475 0.036984
v -0.0022512 -0.00051104 0.032966
v -0.011445 -0.000317 0.031459
v -0.017384 -0.00032549 0.029466
v -0.022626 -0.00012401 0.026311
v -0.027211 7.3935e-05 0.0221
v -0.031273 0.00021883 0.017297
v -0.047678 -0.048955 0.0016376
v -0.047682 -0.056458 0.0016552
v -0.042236 -0.056637 0.0017795
v -0.036777 -0.056748 0.0019332
v -0.03595 -0.056762 0.0086124
v -0.036107 -0.056617 0.0067094
v -0.036547 -0.056442 0.0019113
v -0.035509 -0.056425 0.0093408
v -0.035564 -0.048885 0.0090759
v -0.046819 -0.056754 0.010307
v -0.033753 -0.056766 0.015779
v -0.033641 -0.056572 0.015058
v -0.032679 -0.048813 0.017059
v -0.033502 -0.049108 0.015214
v -0.030843 -0.048741 0.020331
v -0.027689 -0.048851 0.024636
v -0.028272 -0.048563 0.024211
v -0.023536 -0.048618 0.028786
v -0.022302 -0.056588 0.029759
v -0.025513 -0.052642 0.026768
v -0.017861 -0.056507 0.032682
v -0.013916 -0.052642 0.034473
v -0.017109 -0.048832 0.033054
v -0.01982 -0.048753 0.031491
v 0.00014 -0.048496 0.048371
v -0.020672 -0.048511 0.031299
v -0.021467 -0.048578 0.043611
v -0.021106 -0.056639 0.043848
v -0.015574 -0.056605 0.046186
v -0.017836 -0.048721 0.045329
v -0.0090905 -0.048514 0.047866
v -0.016397 -0.056751 0.045684
v -0.0038799 -0.056796 0.048273
v -0.010466 -0.056698 0.047576
v -0.0052889 -0.056586 0.04852
v 0.00028598 -0.056471 0.048874
v 0.0031333 -0.048596 0.048694
v 0.00836 -0.056541 0.048176
v 0.0032694 -0.056718 0.04865
v 0.030427 -0.056796 0.022527
v 0.017307 -0.056676 0.033293
v -0.010781 -0.056796 0.036237
v 0.0062084 -0.056754 0.037205
v -0.00070852 -0.056795 0.038089
v 0.010739 -0.05678 0.047379
v 0.013124 -0.056716 0.035269
v 0.03298 -0.056765 0.017993
v 0.035154 -0.056756 0.012925
v 0.034217 -0.056625 0.014928
v 0.035761 -0.056576 0.010245
v 0.033045 -0.055945 0.017226
v 0.03013 -0.048681 0.022105
v 0.033052 -0.049282 0.017225
v 0.028394 -0.048885 0.024291
v 0.030071 -0.056582 0.022185
v 0.031772 -0.05666 0.019793
v 0.028077 -0.056589 0.024733
v 0.022552 -0.056734 0.030225
v 0.025937 -0.056766 0.027351
v 0.024019 -0.056108 0.028676
v 0.017391 -0.056012 0.033171
v 0.02174 -0.056615 0.030549
v 0.011706 -0.048706 0.03564
v 0.017559 -0.048829 0.03311
v 0.023716 -0.049251 0.028938
v 0.026505 -0.048576 0.026666
v 0.016496 -0.04854 0.045945
v 0.023275 -0.048577 0.02952
v 0.0066046 -0.048496 0.037383
v 0.013235 -0.048496 0.03557
v -0.010039 -0.048543 0.036195
v 0.031474 -0.048496 0.020928
v 0.013152 -0.048511 0.046776
v 0.006516 -0.048601 0.048404
v 0.019399 -0.056398 0.04493
v 0.022252 -0.048714 0.043535
v 0.027812 -0.048705 0.040211
v 0.03078 -0.048599 0.037831
v 0.034183 -0.048501 0.034518
v 0.035049 -0.056559 0.034029
v 0.029176 -0.056762 0.038979
v 0.037486 -0.05677 0.030948
v 0.038809 -0.056642 0.029495
v 0.04086 -0.052204 0.02664
v 0.034242 -0.048727 0.034821
v 0.037504 -0.048638 0.031194
v 0.040131 -0.048822 0.027778
v 0.044707 -0.04864 0.019139
v 0.046241 -0.048552 0.014754
v 0.043718 -0.049541 0.021611
v 0.042524 -0.05 0.023654
v 0.043762 -0.049798 0.020706
v 0.04245 -0.05526 0.023761
v 0.04166 -0.054654 0.025234
v 0.041381 -0.054364 0.02581
v 0.041641 -0.054678 0.025376
v 0.041217 -0.054088 0.026044
v 0.040972 -0.053542 0.026425
v 0.040825 -0.052678 0.026686
v 0.041148 -0.051297 0.026159
v 0.041564 -0.050636 0.025524
v 0.042585 -0.049917 0.023736
v 0.041757 -0.05051 0.025066
v 0.040952 -0.05355 0.02651
v 0.041262 -0.056624 0.025936
v 0.043746 -0.056766 0.021112
v 0.045788 -0.056481 0.016631
v 0.045695 -0.054954 0.016727
v 0.046263 -0.054411 0.015045
v 0.046432 -0.054133 0.014442
v 0.046984 -0.056485 0.012491
v 0.046884 -0.052898 0.012921
v 0.04782 -0.056576 0.0085349
v 0.048443 -0.048969 0.0019667
v 0.048451 -0.056458 0.0019853
v 0.048142 -0.056374 0.0016418
v 0.048138 -0.056578 0.0017138
v 0.047963 -0.056546 0.0016881
v 0.045337 -0.056729 0.001871
v 0.042711 -0.056729 0.001871
v 0.041398 -0.056637 0.0017795
v 0.037035 -0.056364 0.0018682
v 0.037006 -0.052646 0.0018948
v 0.037029 -0.048864 0.0018691
v 0.037309 -0.048537 0.0019268
v 0.041398 -0.048996 0.001621
v 0.042711 -0.048654 0.0017795
v 0.036933 -0.048528 0.0059494
v 0.036695 -0.048778 0.0058307
v 0.046807 -0.052195 0.013098
v 0.046299 -0.053831 0.01399
v 0.043737 -0.055391 0.008621
v 0.042014 -0.054843 0.0086208
v 0.045125 -0.055125 0.01752
v 0.044515 -0.055467 0.019684
v 0.045098 -0.055367 0.01836
v 0.045671 -0.054784 0.016317
v 0.046357 -0.053912 0.0142
v 0.046763 -0.052734 0.013007
v 0.044032 -0.05561 0.020878
v 0.042885 -0.055466 0.023159
v 0.043172 -0.05661 0.022601
v 0.042126 -0.055077 0.02454
v 0.043726 -0.05551 0.020983
v 0.040978 -0.051907 0.0086208
v 0.042365 -0.050268 0.008621
v 0.045149 -0.050201 0.017441
v 0.046462 -0.051789 0.013481
v 0.044328 -0.049888 0.0086207
v 0.045677 -0.050518 0.016302
v 0.045971 -0.0544 0.0086198
v 0.046344 -0.051812 0.0086258
v 0.046565 -0.052462 0.012908
v 0.046572 -0.053156 0.013205
v 0.046473 -0.051529 0.013903
v 0.046561 -0.051287 0.014089
v 0.044678 -0.049056 0.019581
v 0.045055 -0.050007 0.018371
v 0.044575 -0.049814 0.01953
v 0.044604 -0.049941 0.019032
v 0.044837 -0.050034 0.018332
v 0.043815 -0.049732 0.021191
v 0.045825 -0.050425 0.016381
v 0.047225 -0.048704 0.011459
v 0.04806 -0.048569 0.0063417
v 0.048348 -0.048554 0.0021915
v 0.048213 -0.048559 0.0019637
v 0.048269 -0.048787 0.0017032
v 0.04798 -0.048603 0.0017856
v 0.035498 -0.048673 0.011365
v 0.035865 -0.04938 0.009671
v 0.034073 -0.048653 0.015299
v 0.032439 -0.048662 0.018569
v 0.034961 -0.048496 0.014489
v 0.037258 -0.048832 0.0016607
v 0.037279 -0.056445 0.0016487
v 0.041398 -0.056796 0.002121
v 0.03717 -0.056684 0.0018484
v 0.036467 -0.05669 0.0073257
v 0.048145 -0.056776 0.0020735
v 0.047235 -0.05678 0.010659
v 0.042311 -0.04858 0.024025
v 0.030739 -0.056497 0.037987
v 0.021355 -0.05674 0.04377
v 0.014948 -0.056758 0.046491
v 0.01213 -0.048734 0.047371
v -0.0014606 -0.048666 0.048797
v -0.0069869 -0.048703 0.048292
v -0.011866 -0.048651 0.047296
v 0.012908 -0.056639 0.047085
v 0.02573 -0.056584 0.041569
v 0.021085 -0.04851 0.043774
v 0.018167 -0.048542 0.0331
v 0.0082227 -0.048705 0.036541
v 0.0049199 -0.048686 0.037149
v 0.0017038 -0.048713 0.037401
v -0.0022115 -0.048523 0.037722
v -0.0023731 -0.048698 0.037367
v -0.0062383 -0.048699 0.036847
v -0.011096 -0.048728 0.035671
v -0.016335 -0.048581 0.033636
v -0.010379 -0.056596 0.03588
v -0.016938 -0.056761 0.033481
v -0.013407 -0.056617 0.034844
v -0.0063954 -0.056602 0.036836
v -0.003215 -0.05659 0.037271
v -0.00011542 -0.056598 0.037437
v 0.0038794 -0.056555 0.037268
v 0.0098114 -0.056586 0.036187
v 0.014086 -0.056525 0.034721
v -0.024271 -0.056765 0.041914
v -0.025586 -0.04867 0.041322
v -0.028384 -0.048587 0.039359
v -0.029135 -0.056632 0.038818
v -0.033179 -0.056776 0.035198
v -0.025521 -0.056566 0.041385
v -0.022628 -0.056786 0.030055
v -0.032137 -0.056462 0.036398
v -0.034955 -0.048714 0.033616
v -0.031565 -0.048563 0.036745
v -0.038281 -0.048835 0.029648
v -0.037011 -0.056521 0.031332
v -0.040047 -0.056773 0.026647
v -0.040557 -0.053718 0.026333
v -0.040859 -0.054313 0.025801
v -0.040405 -0.053242 0.026617
v -0.040347 -0.052639 0.026687
v -0.04048 -0.05175 0.026486
v -0.040923 -0.050885 0.025785
v -0.040451 -0.048688 0.026484
v -0.032154 -0.048513 0.018793
v -0.039198 -0.048542 0.028234
v -0.034082 -0.048515 0.014827
v -0.044168 -0.04856 0.019166
v -0.0425 -0.04972 0.023018
v -0.042636 -0.048716 0.022685
v -0.042202 -0.049913 0.023409
v -0.040757 -0.051176 0.025965
v -0.043771 -0.049843 0.019833
v -0.043352 -0.049803 0.020535
v -0.044675 -0.050199 0.017436
v -0.044079 -0.049926 0.019056
v -0.043844 -0.049829 0.019905
v -0.043468 -0.049632 0.021098
v -0.044939 -0.050098 0.017534
v -0.04495 -0.050169 0.01744
v -0.045703 -0.051015 0.01492
v -0.044983 -0.050366 0.016261
v -0.04611 -0.052585 0.012931
v -0.045688 -0.053884 0.008671
v -0.046011 -0.052749 0.00867
v -0.044339 -0.055179 0.0087027
v -0.04315 -0.05538 0.0086874
v -0.041324 -0.054518 0.0086284
v -0.045677 -0.051374 0.0086541
v -0.043261 -0.049884 0.0086637
v -0.045014 -0.054697 0.008617
v -0.044869 -0.05045 0.0086581
v -0.040877 -0.051324 0.0086467
v -0.040747 -0.053804 0.0087569
v -0.040524 -0.052483 0.008673
v -0.04169 -0.050382 0.008717
v -0.041962 -0.055107 0.00882
v -0.043282 -0.055497 0.020689
v -0.043734 -0.055749 0.020552
v -0.044115 -0.056754 0.019179
v -0.044116 -0.05554 0.019632
v -0.044174 -0.05541 0.019274
v -0.04535 -0.054825 0.016334
v -0.046053 -0.053978 0.014145
v -0.045617 -0.056572 0.015587
v -0.047 -0.056552 0.010361
v -0.046628 -0.048744 0.012114
v -0.046349 -0.053253 0.013143
v -0.046399 -0.052689 0.012911
v -0.046277 -0.052138 0.013179
v -0.046084 -0.053486 0.013513
v -0.045168 -0.054794 0.016353
v -0.046085 -0.053102 0.013072
v -0.045159 -0.054951 0.016847
v -0.044426 -0.055221 0.01813
v -0.043769 -0.055452 0.019921
v -0.044553 -0.055312 0.018457
v -0.045723 -0.051329 0.013844
v -0.045984 -0.051299 0.014269
v -0.04601 -0.051134 0.01436
v -0.045591 -0.050685 0.015632
v -0.045382 -0.050447 0.016288
v -0.045446 -0.048738 0.016038
v -0.047218 -0.048579 0.0090931
v -0.047706 -0.048531 0.0020164
v -0.047972 -0.048743 0.0022995
v -0.047925 -0.048833 0.0018126
v -0.047589 -0.048658 0.001729
v -0.041579 -0.048871 0.0016545
v -0.036982 -0.056296 0.001621
v -0.036643 -0.056499 0.0017472
v -0.036548 -0.049058 0.0018669
v -0.03662 -0.048796 0.0017657
v -0.03679 -0.048926 0.0016558
v -0.037011 -0.048539 0.0018478
v -0.03673 -0.048595 0.0023269
v -0.034774 -0.04867 0.012235
v -0.035634 -0.048496 0.010702
v -0.03654 -0.048513 0.0058825
v -0.04797 -0.056461 0.001912
v -0.047533 -0.056753 0.0050422
v -0.047733 -0.056735 0.0019656
v -0.047547 -0.056795 0.0021226
v -0.048069 -0.056372 0.0027298
v -0.047997 -0.04909 0.0021929
v -0.043055 -0.055673 0.021969
v -0.042031 -0.055293 0.023774
v -0.04079 -0.05438 0.026037
v -0.039982 -0.056543 0.027261
v -0.026761 -0.05666 0.02573
v -0.030446 -0.05631 0.020971
v -0.029847 -0.05669 0.021997
v -0.042902 -0.056536 0.022267
v -0.044647 -0.050172 0.017644
v -0.044448 -0.050075 0.018074
v -0.044188 -0.049965 0.018812
v -0.041582 -0.050232 0.02467
f 2 242 3
f 3 242 241
f 8 14 9
f 34 39 33
f 34 36 59
f 34 59 35
f 34 37 36
f 34 69 84
f 34 35 69
f 34 84 92
f 34 38 37
f 34 33 38
f 34 41 39
f 34 125 41
f 125 34 98
f 98 34 93
f 93 34 40
f 63 64 31
f 31 64 62
f 62 64 65
f 67 64 53
f 53 64 68
f 53 68 156
f 156 68 71
f 68 64 86
f 156 71 74
f 69 134 82
f 132 100 101
f 132 103 100
f 101 100 121
f 132 24 103
f 132 105 24
f 64 105 132
f 105 64 106
f 106 64 107
f 107 64 63
f 111 109 110
f 118 98 119
f 123 98 118
f 123 118 114
f 123 114 13
f 125 98 123
f 111 110 209
f 209 110 20
f 111 100 109
f 121 100 111
f 64 132 130
f 98 93 94
f 86 64 87
f 69 35 134
f 82 134 135
f 145 146 143
f 145 149 146
f 150 149 145
f 151 149 150
f 156 175 157
f 156 157 51
f 161 162 167
f 161 160 162
f 168 174 163
f 174 168 164
f 164 168 48
f 162 160 166
f 51 157 171
f 161 134 160
f 156 75 175
f 187 186 195
f 187 195 188
f 189 190 192
f 147 190 191
f 192 190 148
f 148 190 147
f 149 151 193
f 151 187 193
f 186 187 151
f 194 142 143
f 188 142 194
f 143 146 194
f 188 195 142
f 135 134 161
f 156 74 75
f 65 64 67
f 207 20 6
f 207 240 237
f 207 6 240
f 248 249 244
f 244 249 234
f 240 6 4
f 237 240 238
f 247 9 248
f 248 9 249
f 260 259 262
f 268 259 267
f 266 259 268
f 267 259 257
f 225 259 260
f 262 259 266
f 8 9 247
f 209 20 207
f 10 14 8
f 13 14 10
f 13 114 14
f 242 2 1
f 513 616 516
f 513 528 616
f 599 608 598
f 432 498 421
f 422 489 490
f 422 490 457
f 365 457 367
f 367 460 463
f 377 582 546
f 548 582 575
f 551 575 576
f 553 576 574
f 621 555 601
f 609 586 622
f 609 588 586
f 599 616 528
f 520 525 524
f 519 526 525
f 506 423 526
f 423 502 408
f 408 502 501
f 420 501 500
f 420 500 419
f 419 499 418
f 417 499 509
f 418 499 417
f 419 500 499
f 408 501 420
f 502 423 506
f 506 526 519
f 519 525 520
f 520 524 521
f 598 616 599
f 598 615 616
f 606 615 598
f 606 614 615
f 605 614 606
f 605 613 614
f 594 613 605
f 594 612 613
f 593 612 594
f 593 611 612
f 592 611 593
f 592 620 611
f 620 592 603
f 620 603 610
f 610 603 602
f 610 602 623
f 623 602 588
f 623 588 609
f 622 586 555
f 622 555 621
f 621 601 617
f 617 601 585
f 551 576 553
f 548 575 551
f 546 582 548
f 377 463 582
f 367 463 377
f 367 457 460
f 422 457 365
f 421 489 422
f 421 498 489
f 417 509 416
f 416 509 510
f 688 949 693
f 694 949 688
f 714 709 710
f 708 709 714
f 896 709 701
f 710 709 896
f 900 716 715
f 715 716 717
f 716 728 722
f 716 868 728
f 868 723 764
f 868 742 723
f 868 764 867
f 868 741 742
f 868 729 724
f 868 724 741
f 725 868 716
f 868 726 729
f 868 727 726
f 868 725 727
f 764 723 730
f 764 730 731
f 876 750 751
f 751 750 749
f 752 750 753
f 753 750 876
f 762 750 875
f 755 750 762
f 754 750 880
f 749 750 755
f 750 708 756
f 750 754 708
f 880 750 752
f 756 708 720
f 764 731 765
f 857 865 772
f 765 731 789
f 809 799 859
f 809 859 858
f 811 849 808
f 811 848 849
f 857 772 848
f 815 834 816
f 816 834 828
f 828 834 829
f 829 834 832
f 832 834 835
f 799 809 851
f 755 762 857
f 857 848 811
f 789 731 864
f 864 731 862
f 864 860 863
f 864 862 860
f 860 862 861
f 857 762 865
f 708 714 870
f 762 875 761
f 708 754 884
f 708 884 709
f 725 716 886
f 886 716 900
f 900 715 894
f 894 715 711
f 900 894 898
f 900 898 999
f 903 701 700
f 903 700 915
f 915 700 914
f 915 914 917
f 917 914 916
f 938 940 941
f 934 940 938
f 939 940 942
f 944 940 937
f 941 940 939
f 942 940 944
f 973 988 984
f 973 984 974
f 978 685 684
f 685 978 979
f 979 978 983
f 917 916 987
f 917 987 973
f 973 987 988
f 992 693 990
f 694 898 906
f 1001 898 694
f 694 906 949
f 999 898 1001
f 896 701 903
f 688 693 687
f 687 693 992
f 4 3 241
f 206 246 6
f 206 7 246
f 8 7 10
f 21 10 7
f 110 10 21
f 12 10 11
f 109 11 10
f 22 11 109
f 12 11 13
f 14 113 15
f 18 15 113
f 15 18 17
f 15 255 14
f 15 16 255
f 15 17 16
f 206 20 21
f 102 11 22
f 124 102 104
f 102 124 11
f 124 104 23
f 24 23 104
f 23 24 126
f 126 24 25
f 126 25 27
f 127 25 26
f 27 25 127
f 127 28 129
f 28 127 26
f 129 29 32
f 29 129 28
f 32 29 30
f 31 37 30
f 31 30 29
f 32 33 129
f 129 33 39
f 92 40 34
f 43 35 42
f 52 45 54
f 54 45 44
f 47 168 46
f 49 50 47
f 47 48 168
f 47 46 49
f 47 50 48
f 49 51 50
f 52 51 49
f 54 53 156
f 156 52 54
f 56 43 57
f 55 43 56
f 42 57 43
f 42 59 57
f 58 57 59
f 59 36 58
f 37 38 30
f 30 38 33
f 58 36 60
f 60 36 37
f 60 66 58
f 37 31 60
f 66 60 61
f 60 31 61
f 31 29 63
f 66 62 65
f 65 56 66
f 56 58 66
f 66 61 62
f 56 67 53
f 56 53 55
f 68 83 69
f 82 70 69
f 71 69 70
f 71 70 73
f 73 70 78
f 78 70 81
f 73 78 72
f 184 74 76
f 74 77 76
f 74 72 77
f 73 72 74
f 78 81 79
f 79 198 80
f 81 82 135
f 82 81 70
f 83 84 69
f 87 85 86
f 84 85 92
f 92 85 88
f 88 64 130
f 89 88 130
f 89 90 88
f 40 89 91
f 92 90 40
f 91 93 40
f 94 93 95
f 94 95 96
f 96 98 94
f 98 97 122
f 99 122 97
f 102 100 103
f 102 103 104
f 104 103 24
f 25 24 105
f 107 26 106
f 107 29 28
f 63 29 107
f 26 107 28
f 106 26 25
f 25 105 106
f 22 100 102
f 111 112 113
f 18 112 211
f 211 112 19
f 112 111 19
f 18 113 112
f 114 108 113
f 114 113 14
f 115 108 114
f 115 116 108
f 118 117 115
f 117 118 119
f 119 120 117
f 121 117 120
f 120 101 121
f 122 101 120
f 122 120 119
f 101 122 99
f 122 119 98
f 108 116 121
f 111 108 121
f 117 121 116
f 124 123 13
f 13 11 124
f 27 125 126
f 127 128 27
f 128 39 41
f 129 39 128
f 128 127 129
f 128 41 27
f 27 41 125
f 125 23 126
f 23 125 123
f 123 124 23
f 114 118 115
f 117 116 115
f 108 111 113
f 19 111 209
f 21 20 110
f 109 100 22
f 130 131 89
f 93 89 131
f 91 89 93
f 131 95 93
f 132 131 130
f 95 132 96
f 95 131 132
f 133 96 132
f 133 132 101
f 101 99 133
f 96 133 97
f 98 96 97
f 99 97 133
f 40 90 89
f 90 92 88
f 87 64 88
f 87 88 85
f 83 68 86
f 83 86 84
f 84 86 85
f 136 199 135
f 136 161 137
f 136 135 161
f 137 153 138
f 141 140 205
f 142 141 205
f 196 141 142
f 142 205 143
f 205 204 143
f 143 204 144
f 204 139 144
f 154 145 144
f 143 144 145
f 147 146 148
f 148 146 149
f 145 152 150
f 201 151 150
f 201 150 152
f 155 154 153
f 138 154 139
f 139 154 144
f 153 154 138
f 155 152 154
f 155 159 175
f 158 157 175
f 158 159 172
f 161 159 137
f 167 163 173
f 165 168 163
f 162 166 165
f 163 162 165
f 167 162 163
f 46 166 160
f 166 46 165
f 165 46 168
f 169 164 170
f 170 164 48
f 50 171 170
f 50 170 48
f 170 157 169
f 170 171 157
f 157 158 172
f 157 172 169
f 172 173 163
f 167 173 161
f 161 173 159
f 172 159 173
f 172 163 174
f 169 174 164
f 169 172 174
f 50 51 171
f 52 156 51
f 45 160 134
f 175 159 158
f 175 75 203
f 75 183 203
f 203 183 176
f 180 179 178
f 179 180 181
f 182 181 180
f 176 182 177
f 177 182 180
f 176 183 182
f 183 181 182
f 75 185 183
f 184 179 185
f 183 179 181
f 185 179 183
f 186 184 77
f 186 179 184
f 190 187 188
f 189 187 190
f 193 192 149
f 149 192 148
f 187 192 193
f 151 179 186
f 151 178 179
f 146 191 194
f 146 147 191
f 194 190 188
f 194 191 190
f 187 189 192
f 195 196 142
f 77 72 195
f 195 186 77
f 72 196 195
f 78 196 72
f 196 78 79
f 80 196 79
f 80 141 196
f 197 141 80
f 199 140 198
f 199 198 81
f 81 135 199
f 198 140 197
f 198 197 80
f 140 141 197
f 77 184 76
f 75 184 185
f 201 178 151
f 177 201 200
f 202 200 155
f 177 175 203
f 202 175 177
f 155 175 202
f 177 200 202
f 155 200 152
f 200 201 152
f 180 201 177
f 180 178 201
f 177 203 176
f 159 153 137
f 159 155 153
f 145 154 152
f 204 205 140
f 140 136 204
f 140 199 136
f 136 139 204
f 137 139 136
f 137 138 139
f 134 35 43
f 45 134 44
f 44 134 43
f 79 81 198
f 74 184 75
f 73 74 71
f 68 69 71
f 55 53 54
f 56 65 67
f 31 62 61
f 58 56 57
f 42 35 59
f 54 43 55
f 45 52 49
f 45 49 46
f 160 45 46
f 54 44 43
f 30 33 32
f 6 20 206
f 207 208 209
f 208 218 209
f 218 19 209
f 211 210 212
f 214 212 210
f 266 211 212
f 212 213 266
f 213 212 214
f 216 215 211
f 216 211 266
f 18 211 215
f 17 18 215
f 17 215 267
f 215 216 268
f 268 216 266
f 266 217 262
f 266 213 217
f 213 220 217
f 218 217 220
f 220 210 218
f 220 214 210
f 219 214 220
f 213 214 219
f 220 213 219
f 208 222 218
f 222 217 218
f 208 221 222
f 221 263 222
f 208 223 221
f 231 226 223
f 231 224 226
f 224 225 260
f 224 260 226
f 224 259 225
f 259 224 227
f 229 227 224
f 229 228 227
f 227 228 254
f 231 230 224
f 231 233 232
f 231 232 230
f 233 249 232
f 2 244 234
f 2 234 1
f 235 234 249
f 233 236 235
f 233 237 236
f 233 208 237
f 238 242 239
f 242 238 240
f 5 4 6
f 240 4 241
f 240 241 242
f 237 238 239
f 236 239 242
f 237 239 236
f 242 1 236
f 236 1 243
f 243 1 235
f 243 235 236
f 207 237 208
f 249 233 235
f 235 1 234
f 244 245 248
f 246 248 245
f 6 246 245
f 247 248 246
f 232 249 9
f 9 250 232
f 250 252 232
f 253 252 250
f 229 230 252
f 252 251 229
f 252 253 251
f 251 228 229
f 255 16 254
f 14 256 9
f 9 256 250
f 250 256 253
f 253 256 254
f 14 255 256
f 256 255 254
f 254 16 257
f 267 16 17
f 267 257 16
f 258 254 257
f 227 254 258
f 259 227 258
f 261 264 260
f 262 263 261
f 261 263 264
f 262 217 263
f 263 221 264
f 223 265 264
f 223 226 265
f 226 260 265
f 260 264 265
f 223 264 221
f 260 262 261
f 259 258 257
f 267 215 268
f 253 254 228
f 253 228 251
f 230 232 252
f 7 8 247
f 246 7 247
f 4 5 245
f 6 245 5
f 4 245 3
f 3 245 244
f 2 3 244
f 233 223 208
f 223 233 231
f 230 229 224
f 263 217 222
f 211 19 210
f 210 19 218
f 12 13 10
f 10 110 109
f 7 206 21
f 281 623 609
f 294 303 295
f 311 274 320
f 274 276 324
f 455 454 462
f 451 276 453
f 469 474 475
f 469 475 476
f 470 476 477
f 471 477 478
f 478 455 479
f 483 445 455
f 461 446 445
f 472 446 452
f 441 452 460
f 463 452 447
f 463 447 461
f 568 575 582
f 579 577 566
f 578 566 565
f 570 280 571
f 583 581 571
f 573 580 581
f 572 617 618
f 583 621 617
f 584 622 621
f 342 609 622
f 342 622 584
f 584 621 583
f 583 617 572
f 619 618 617
f 572 618 574
f 576 579 580
f 573 583 572
f 574 576 573
f 574 573 572
f 576 580 573
f 573 581 583
f 583 571 584
f 581 580 570
f 581 570 571
f 328 280 570
f 280 294 269
f 280 302 294
f 328 302 280
f 302 328 329
f 329 328 565
f 328 570 569
f 580 569 570
f 569 565 328
f 580 578 569
f 579 578 580
f 578 565 569
f 564 483 567
f 565 566 567
f 566 564 567
f 579 566 578
f 577 564 566
f 576 568 579
f 576 575 568
f 568 577 579
f 568 564 577
f 568 582 564
f 564 461 483
f 564 582 461
f 461 445 483
f 461 582 463
f 460 452 463
f 490 436 457
f 480 464 436
f 464 480 440
f 435 440 480
f 459 492 437
f 482 467 437
f 326 291 448
f 332 448 444
f 465 443 466
f 292 443 293
f 517 515 514
f 518 514 523
f 511 520 521
f 347 616 615
f 340 615 614
f 346 614 613
f 286 613 612
f 285 341 272
f 313 321 317
f 321 277 278
f 325 324 450
f 517 289 338
f 336 347 288
f 307 314 315
f 315 322 323
f 310 309 275
f 340 273 287
f 299 308 300
f 327 299 300
f 327 300 273
f 273 300 301
f 273 301 287
f 300 309 301
f 300 308 309
f 301 310 287
f 301 309 310
f 309 319 275
f 318 326 322
f 309 323 319
f 315 318 322
f 316 323 309
f 316 315 323
f 316 309 308
f 314 318 315
f 308 315 316
f 307 315 308
f 299 307 308
f 285 299 327
f 285 327 286
f 286 327 346
f 327 273 346
f 340 346 273
f 347 340 287
f 287 288 347
f 516 336 337
f 288 334 336
f 336 334 337
f 288 287 334
f 287 310 334
f 279 275 330
f 310 275 279
f 334 310 279
f 337 334 518
f 518 334 279
f 335 279 330
f 289 335 330
f 330 275 289
f 289 517 335
f 289 292 293
f 292 289 275
f 275 319 292
f 323 332 319
f 332 322 448
f 323 322 332
f 322 326 448
f 278 277 449
f 290 277 325
f 321 325 277
f 318 278 326
f 297 304 305
f 271 297 284
f 271 345 344
f 345 284 272
f 341 612 611
f 345 611 620
f 283 620 610
f 283 270 271
f 343 610 623
f 610 343 339
f 339 282 270
f 270 283 339
f 610 339 283
f 344 620 283
f 345 620 344
f 611 345 341
f 344 283 271
f 345 271 284
f 270 297 271
f 270 296 297
f 296 304 297
f 296 303 304
f 312 305 304
f 303 312 304
f 317 278 318
f 321 278 317
f 312 321 313
f 314 317 318
f 305 312 313
f 313 317 314
f 313 306 305
f 297 305 306
f 297 306 298
f 284 297 298
f 306 313 314
f 306 314 307
f 298 306 307
f 298 307 299
f 284 298 272
f 285 298 299
f 272 298 285
f 341 285 286
f 272 341 345
f 612 341 286
f 346 613 286
f 340 614 346
f 347 615 340
f 333 616 347
f 333 347 336
f 336 516 333
f 616 333 516
f 513 522 528
f 337 513 516
f 513 521 522
f 337 512 513
f 512 521 513
f 511 521 512
f 518 512 337
f 511 519 520
f 523 506 519
f 497 501 502
f 496 488 501
f 489 498 503
f 484 510 509
f 510 503 504
f 498 504 503
f 503 510 484
f 503 484 485
f 485 484 509
f 485 509 486
f 486 509 499
f 494 487 495
f 481 465 458
f 481 442 465
f 442 496 456
f 456 496 497
f 496 442 481
f 458 495 481
f 481 495 496
f 482 494 458
f 458 494 495
f 494 486 487
f 486 499 487
f 495 488 496
f 495 487 488
f 487 499 488
f 488 499 500
f 488 500 501
f 496 501 497
f 502 507 497
f 507 502 506
f 506 523 507
f 523 519 511
f 518 523 512
f 523 511 512
f 518 279 335
f 335 517 518
f 507 523 514
f 517 514 518
f 507 514 515
f 507 515 508
f 508 456 497
f 508 497 507
f 456 508 505
f 505 508 515
f 338 515 517
f 515 338 505
f 338 442 456
f 505 338 456
f 289 293 338
f 338 293 442
f 442 293 465
f 465 293 443
f 319 443 292
f 458 465 466
f 458 466 482
f 319 444 443
f 466 443 444
f 444 319 332
f 473 448 291
f 444 448 473
f 467 473 468
f 437 468 439
f 437 467 468
f 467 444 473
f 466 444 467
f 482 466 467
f 437 493 482
f 482 493 494
f 493 486 494
f 493 485 486
f 459 437 439
f 437 492 493
f 492 485 493
f 492 503 485
f 480 491 435
f 492 435 491
f 491 503 492
f 459 439 438
f 435 492 459
f 459 438 435
f 435 438 440
f 436 491 480
f 491 489 503
f 491 436 490
f 490 489 491
f 460 457 441
f 436 441 457
f 441 436 464
f 441 472 452
f 464 472 441
f 452 446 447
f 461 447 446
f 479 455 445
f 479 445 446
f 472 479 446
f 472 478 479
f 471 478 472
f 464 471 472
f 440 471 464
f 470 477 471
f 440 470 471
f 438 470 440
f 469 476 470
f 438 469 470
f 439 469 438
f 439 468 469
f 468 474 469
f 473 291 474
f 468 473 474
f 474 291 449
f 449 291 326
f 278 449 326
f 474 449 475
f 290 449 277
f 475 449 290
f 325 450 290
f 475 290 450
f 475 450 476
f 451 450 324
f 476 450 451
f 476 451 477
f 453 276 331
f 477 451 453
f 477 453 478
f 478 453 454
f 478 454 455
f 567 483 462
f 483 455 462
f 454 453 331
f 454 331 462
f 331 276 462
f 451 324 276
f 462 276 567
f 567 276 274
f 567 274 565
f 320 324 325
f 320 325 321
f 274 324 320
f 565 274 329
f 312 320 321
f 274 311 329
f 302 329 311
f 320 312 311
f 303 311 312
f 302 311 303
f 294 302 303
f 295 303 296
f 270 295 296
f 282 295 270
f 282 294 295
f 269 294 282
f 343 269 282
f 282 339 343
f 623 281 343
f 281 269 343
f 609 342 281
f 571 342 584
f 571 280 342
f 342 269 281
f 269 342 280
f 368 629 434
f 625 629 631
f 424 624 526
f 624 632 626
f 669 660 638
f 668 659 660
f 667 658 659
f 666 657 658
f 665 656 657
f 664 655 656
f 663 654 655
f 662 653 654
f 661 652 653
f 639 637 652
f 637 550 552
f 560 540 539
f 552 540 541
f 588 589 587
f 602 590 589
f 602 591 590
f 603 635 591
f 593 636 604
f 594 595 636
f 605 596 595
f 606 597 596
f 598 607 597
f 598 608 607
f 525 627 628
f 525 628 524
f 524 628 599
f 524 599 527
f 527 599 529
f 598 597 606
f 606 596 605
f 605 595 594
f 594 636 593
f 593 604 592
f 592 604 635
f 656 604 636
f 635 604 656
f 635 603 592
f 635 654 591
f 591 602 603
f 653 591 654
f 591 653 590
f 602 589 588
f 652 590 653
f 590 652 589
f 637 589 652
f 589 637 587
f 587 586 588
f 554 601 555
f 543 545 544
f 561 545 562
f 558 561 562
f 553 542 543
f 543 556 585
f 585 556 600
f 556 543 542
f 553 538 551
f 557 536 558
f 534 558 559
f 563 559 537
f 643 537 641
f 677 641 670
f 679 671 680
f 676 640 642
f 642 634 645
f 356 379 357
f 379 349 378
f 378 349 350
f 380 350 351
f 381 351 352
f 383 352 398
f 384 398 353
f 384 353 354
f 385 354 386
f 387 386 355
f 355 365 367
f 348 422 355
f 410 364 353
f 411 353 398
f 411 398 352
f 411 352 351
f 428 350 412
f 412 350 349
f 413 397 414
f 414 397 366
f 420 429 408
f 406 428 425
f 405 427 428
f 426 427 405
f 432 421 426
f 416 405 417
f 417 405 406
f 417 406 418
f 433 405 416
f 432 426 433
f 433 426 405
f 405 428 406
f 406 425 418
f 418 425 407
f 418 407 419
f 429 419 407
f 419 429 420
f 423 430 431
f 408 430 423
f 429 430 408
f 430 366 431
f 429 366 430
f 429 414 366
f 407 414 429
f 407 413 414
f 425 413 407
f 413 349 397
f 412 349 413
f 425 412 413
f 428 412 425
f 428 351 350
f 411 351 428
f 427 411 428
f 410 353 411
f 409 364 410
f 426 410 411
f 426 411 427
f 426 409 410
f 421 409 426
f 422 409 421
f 364 409 348
f 348 409 422
f 355 422 365
f 546 530 377
f 376 530 531
f 532 531 535
f 403 547 646
f 362 394 373
f 375 395 396
f 395 386 396
f 375 396 376
f 394 385 395
f 374 395 375
f 363 395 374
f 363 394 395
f 373 394 363
f 362 393 394
f 361 392 393
f 360 391 392
f 372 390 391
f 399 389 390
f 371 388 389
f 371 370 358
f 370 371 650
f 649 372 400
f 648 359 401
f 361 402 401
f 402 644 678
f 402 678 401
f 359 648 400
f 372 649 399
f 358 370 369
f 369 388 358
f 358 388 371
f 399 649 650
f 399 650 371
f 371 389 399
f 359 400 372
f 399 390 372
f 372 391 359
f 390 382 391
f 360 361 401
f 359 360 401
f 359 391 360
f 391 382 392
f 392 361 360
f 361 393 362
f 362 647 361
f 361 647 402
f 647 644 402
f 644 549 563
f 646 644 647
f 549 644 646
f 646 647 403
f 373 403 362
f 362 403 647
f 549 646 547
f 547 403 373
f 547 373 363
f 547 535 549
f 535 547 532
f 363 532 547
f 532 363 374
f 375 532 374
f 375 531 532
f 376 531 375
f 530 376 404
f 546 533 530
f 548 533 546
f 377 530 404
f 376 396 404
f 396 387 404
f 367 377 404
f 404 387 367
f 355 367 387
f 396 386 387
f 386 348 355
f 386 364 348
f 395 385 386
f 354 364 386
f 354 353 364
f 394 384 385
f 384 354 385
f 393 384 394
f 393 383 384
f 392 383 393
f 392 382 383
f 383 398 384
f 382 352 383
f 390 381 382
f 389 381 390
f 381 352 382
f 388 380 389
f 389 380 381
f 380 351 381
f 388 378 380
f 378 350 380
f 379 397 349
f 397 356 366
f 356 397 379
f 369 379 378
f 369 378 388
f 357 379 369
f 357 368 356
f 370 651 369
f 369 651 357
f 651 676 642
f 651 642 645
f 370 683 651
f 650 683 370
f 683 675 676
f 683 676 651
f 650 682 683
f 649 682 650
f 682 674 675
f 682 675 683
f 649 681 682
f 400 681 649
f 681 673 674
f 681 674 682
f 400 680 681
f 648 680 400
f 680 672 673
f 680 673 681
f 648 679 680
f 401 678 679
f 401 679 648
f 671 672 680
f 679 677 671
f 678 677 679
f 677 670 671
f 678 643 677
f 644 643 678
f 643 641 677
f 644 563 643
f 643 563 537
f 534 559 563
f 534 563 549
f 534 549 535
f 557 558 534
f 535 557 534
f 531 557 535
f 530 533 557
f 530 557 531
f 533 536 557
f 551 536 533
f 551 533 548
f 536 538 558
f 551 538 536
f 558 538 561
f 553 543 544
f 561 544 545
f 538 553 544
f 538 544 561
f 543 585 601
f 601 554 543
f 545 543 554
f 541 555 586
f 587 552 586
f 552 541 586
f 554 541 545
f 541 554 555
f 562 545 541
f 637 552 587
f 562 541 540
f 560 562 540
f 558 562 560
f 559 560 537
f 559 558 560
f 537 560 539
f 539 550 537
f 540 552 539
f 539 552 550
f 641 537 639
f 639 537 550
f 639 550 637
f 641 661 670
f 641 639 661
f 639 652 661
f 670 661 662
f 661 653 662
f 670 662 663
f 662 654 663
f 655 635 656
f 654 635 655
f 670 663 664
f 670 664 671
f 663 655 664
f 671 664 665
f 671 665 672
f 664 656 665
f 657 636 595
f 656 636 657
f 672 665 666
f 672 666 673
f 665 657 666
f 658 595 596
f 657 595 658
f 673 666 667
f 673 667 674
f 666 658 667
f 659 596 597
f 658 596 659
f 674 667 668
f 674 668 675
f 667 659 668
f 659 597 660
f 676 669 640
f 675 668 669
f 675 669 676
f 668 660 669
f 669 638 640
f 597 607 638
f 660 597 638
f 608 638 607
f 638 608 630
f 599 628 630
f 599 630 608
f 627 630 628
f 638 633 640
f 638 630 633
f 627 633 630
f 640 632 642
f 642 632 634
f 640 633 632
f 626 632 633
f 626 633 627
f 525 626 627
f 526 624 626
f 526 626 525
f 424 526 423
f 423 431 415
f 423 415 424
f 431 434 415
f 629 415 434
f 415 629 625
f 624 424 625
f 625 424 415
f 625 631 624
f 631 634 632
f 624 631 632
f 645 634 629
f 631 629 634
f 368 357 651
f 629 368 645
f 651 645 368
f 356 368 434
f 366 356 434
f 434 431 366
f 504 416 510
f 504 433 416
f 433 504 432
f 432 504 498
f 574 542 553
f 542 574 618
f 618 600 556
f 600 619 585
f 585 619 617
f 599 528 529
f 529 528 522
f 521 527 522
f 527 521 524
f 529 522 527
f 619 600 618
f 542 618 556
f 686 687 992
f 689 688 687
f 687 690 689
f 691 689 690
f 692 691 690
f 691 688 689
f 692 695 691
f 697 695 692
f 692 986 697
f 695 697 696
f 700 699 698
f 699 700 701
f 707 702 701
f 702 703 701
f 706 705 704
f 702 706 704
f 702 707 706
f 701 709 707
f 895 710 896
f 710 711 713
f 713 711 712
f 710 713 872
f 872 714 710
f 717 872 712
f 712 715 717
f 718 717 716
f 722 719 718
f 718 716 722
f 719 720 870
f 722 720 719
f 721 757 720
f 721 720 722
f 728 873 721
f 721 722 728
f 739 730 723
f 732 731 730
f 732 734 733
f 736 733 734
f 736 734 735
f 856 736 735
f 743 737 740
f 737 743 748
f 738 737 735
f 740 737 738
f 735 734 738
f 738 734 739
f 741 743 740
f 740 742 741
f 741 745 743
f 745 744 743
f 746 744 892
f 744 746 747
f 892 877 746
f 748 744 747
f 744 748 743
f 749 737 748
f 737 749 735
f 757 756 720
f 869 756 757
f 750 756 869
f 758 759 750
f 761 768 762
f 764 763 866
f 763 764 765
f 763 765 766
f 769 763 766
f 769 766 782
f 769 767 770
f 769 782 767
f 768 763 769
f 762 768 769
f 769 770 865
f 771 772 865
f 771 773 840
f 845 774 775
f 829 775 774
f 829 774 783
f 776 780 777
f 826 776 777
f 778 766 788
f 778 788 779
f 781 780 782
f 782 783 767
f 770 784 865
f 785 865 784
f 865 785 773
f 785 774 773
f 785 786 774
f 783 774 786
f 784 783 786
f 784 786 785
f 773 774 845
f 770 783 784
f 770 767 783
f 787 781 782
f 787 780 781
f 780 766 778
f 787 766 780
f 782 766 787
f 779 780 778
f 788 765 789
f 766 765 788
f 788 789 825
f 790 792 791
f 793 792 790
f 794 795 790
f 796 795 794
f 813 796 847
f 796 813 795
f 848 796 798
f 848 798 849
f 849 798 797
f 798 863 800
f 800 799 798
f 802 803 801
f 801 800 802
f 801 799 800
f 801 803 804
f 804 799 801
f 804 859 799
f 804 861 859
f 862 806 805
f 854 862 733
f 862 854 806
f 806 854 807
f 812 808 807
f 858 807 808
f 810 809 858
f 851 809 810
f 808 810 858
f 810 808 849
f 812 853 811
f 853 857 811
f 839 847 772
f 813 847 839
f 813 831 822
f 815 817 820
f 814 834 820
f 815 820 834
f 780 776 816
f 816 827 815
f 816 776 827
f 827 817 815
f 817 827 818
f 819 791 818
f 819 790 791
f 792 820 791
f 820 817 791
f 820 792 793
f 821 820 793
f 793 837 821
f 795 837 793
f 795 822 837
f 822 795 813
f 793 790 795
f 837 814 821
f 791 817 818
f 818 790 819
f 818 823 790
f 824 776 826
f 825 824 788
f 788 826 779
f 788 824 826
f 826 777 779
f 824 825 823
f 823 827 824
f 824 827 776
f 789 790 823
f 789 823 825
f 827 823 818
f 828 780 816
f 828 783 782
f 782 780 828
f 828 829 783
f 830 775 832
f 830 832 833
f 832 775 829
f 830 833 841
f 831 833 832
f 831 836 822
f 834 836 835
f 834 837 836
f 822 836 837
f 834 814 837
f 831 835 836
f 831 832 835
f 813 839 838
f 813 838 831
f 833 838 839
f 839 846 833
f 846 841 833
f 846 772 840
f 771 840 772
f 846 840 841
f 775 843 845
f 843 830 844
f 843 775 830
f 841 843 844
f 842 843 841
f 844 830 841
f 842 845 843
f 840 842 841
f 842 773 845
f 842 840 773
f 839 772 846
f 831 838 833
f 821 814 820
f 847 848 772
f 810 849 852
f 810 852 851
f 852 849 850
f 851 852 850
f 798 851 797
f 799 851 798
f 851 849 797
f 849 851 850
f 853 812 854
f 854 855 853
f 855 854 736
f 855 736 856
f 856 755 857
f 735 755 856
f 856 857 855
f 855 857 853
f 854 812 807
f 811 808 812
f 858 806 807
f 858 859 806
f 861 805 859
f 806 859 805
f 854 733 736
f 732 733 731
f 864 794 790
f 796 794 864
f 802 860 803
f 802 863 860
f 804 860 861
f 803 860 804
f 805 861 862
f 863 802 800
f 863 798 864
f 864 798 796
f 733 862 731
f 789 864 790
f 847 796 848
f 777 780 779
f 865 773 771
f 769 865 762
f 874 867 764
f 874 758 867
f 867 758 868
f 868 869 873
f 873 869 721
f 757 721 869
f 720 708 870
f 719 870 718
f 718 870 871
f 714 871 870
f 871 714 872
f 872 718 871
f 718 872 717
f 868 873 728
f 869 758 750
f 869 868 758
f 874 759 758
f 759 874 760
f 866 874 764
f 768 866 763
f 866 768 761
f 866 761 760
f 866 760 874
f 760 761 875
f 760 875 759
f 750 759 875
f 751 748 876
f 751 749 748
f 876 748 747
f 746 753 876
f 746 876 747
f 877 752 746
f 878 752 877
f 881 880 879
f 881 890 889
f 879 890 881
f 889 882 881
f 885 882 888
f 888 882 889
f 882 885 883
f 885 705 883
f 705 884 883
f 883 884 754
f 707 884 706
f 707 709 884
f 754 882 883
f 882 880 881
f 882 754 880
f 705 706 884
f 885 725 887
f 887 725 886
f 887 886 704
f 705 885 887
f 704 705 887
f 704 886 900
f 890 727 889
f 891 727 890
f 891 877 892
f 892 726 891
f 892 729 726
f 729 892 893
f 892 744 893
f 724 729 893
f 893 744 724
f 726 727 891
f 890 879 891
f 877 891 878
f 891 879 878
f 889 727 888
f 888 725 885
f 888 727 725
f 879 752 878
f 879 880 752
f 746 752 753
f 735 749 755
f 744 745 724
f 741 724 745
f 738 723 740
f 740 723 742
f 739 723 738
f 732 730 739
f 732 739 734
f 711 715 712
f 894 711 899
f 711 895 899
f 901 896 903
f 897 896 901
f 894 897 898
f 898 901 905
f 901 902 905
f 902 903 915
f 915 904 902
f 905 902 904
f 905 998 906
f 905 997 998
f 905 909 997
f 997 907 908
f 908 907 910
f 997 909 907
f 910 907 909
f 905 910 909
f 905 911 910
f 911 921 910
f 911 913 912
f 913 904 915
f 915 917 919
f 917 927 919
f 918 919 927
f 1006 919 918
f 1006 913 919
f 945 921 920
f 945 920 923
f 922 923 926
f 925 923 922
f 924 923 925
f 927 926 923
f 927 917 928
f 928 926 927
f 939 931 941
f 931 939 923
f 923 924 931
f 1003 931 924
f 931 930 967
f 967 941 931
f 941 967 938
f 938 967 932
f 938 932 934
f 932 933 934
f 961 935 940
f 935 961 936
f 910 942 944
f 944 943 908
f 944 908 910
f 942 921 945
f 910 921 942
f 945 923 939
f 942 945 939
f 937 946 943
f 936 996 946
f 946 908 943
f 946 996 908
f 940 935 936
f 940 936 937
f 936 946 937
f 937 943 944
f 936 947 996
f 950 996 947
f 947 965 950
f 949 995 948
f 949 948 950
f 966 950 951
f 950 965 951
f 954 963 952
f 953 954 952
f 693 954 955
f 955 958 956
f 958 955 957
f 957 955 954
f 956 958 959
f 959 930 968
f 958 932 959
f 962 932 960
f 958 960 932
f 958 957 960
f 960 957 953
f 961 953 952
f 953 961 960
f 961 933 960
f 960 933 962
f 962 933 932
f 952 963 961
f 963 964 961
f 964 947 936
f 964 936 961
f 947 964 965
f 966 965 964
f 966 964 963
f 951 965 966
f 932 967 959
f 967 930 959
f 969 968 930
f 930 970 969
f 956 969 970
f 956 970 971
f 956 971 972
f 928 917 972
f 929 972 971
f 928 972 929
f 972 917 973
f 974 975 973
f 976 975 974
f 976 684 685
f 976 977 684
f 974 977 976
f 977 974 984
f 978 684 977
f 686 979 980
f 686 685 979
f 983 980 979
f 981 690 980
f 981 980 983
f 980 690 687
f 985 692 981
f 692 690 981
f 983 982 981
f 982 983 984
f 978 984 983
f 977 984 978
f 982 984 985
f 985 984 988
f 986 696 697
f 696 986 916
f 916 914 698
f 696 916 698
f 986 987 916
f 986 988 987
f 692 985 988
f 692 988 986
f 985 981 982
f 686 980 687
f 989 976 685
f 993 991 990
f 989 991 993
f 989 685 991
f 686 992 991
f 686 991 685
f 990 991 992
f 693 955 990
f 990 955 993
f 955 973 993
f 993 994 989
f 993 973 994
f 955 956 973
f 975 994 973
f 975 976 994
f 989 994 976
f 973 956 972
f 968 969 959
f 956 959 969
f 957 954 953
f 949 950 954
f 1002 995 949
f 995 996 950
f 948 995 950
f 998 997 1002
f 906 998 1002
f 906 898 905
f 703 702 999
f 702 900 999
f 999 1000 703
f 1001 1000 999
f 696 1000 695
f 698 1000 696
f 694 1000 1001
f 1000 694 695
f 1000 698 699
f 699 703 1000
f 1002 949 906
f 996 1002 997
f 997 908 996
f 1002 996 995
f 949 954 693
f 954 966 963
f 950 966 954
f 934 933 940
f 961 940 933
f 930 931 1003
f 970 930 1003
f 970 1003 971
f 924 1004 1003
f 1003 1004 1005
f 1004 925 1005
f 924 925 1004
f 929 1003 1005
f 1005 925 922
f 1005 922 926
f 929 1005 926
f 971 1003 929
f 928 929 926
f 1006 918 920
f 920 918 927
f 920 927 923
f 920 921 1006
f 1006 921 912
f 912 913 1006
f 915 919 913
f 698 914 700
f 911 904 913
f 912 921 911
f 911 905 904
f 901 903 902
f 897 901 898
f 894 899 897
f 899 896 897
f 896 899 895
f 711 710 895
f 704 900 702
f 713 712 872
f 701 703 699
f 695 694 688
f 688 691 695
