v -0.00011697 0.04839 -0.041188
v -0.001013 0.045396 -0.041054
v 0.001487 0.045396 -0.041054
v 0.0016434 0.046733 -0.041043
v -0.014916 0.048454 -0.038418
v -0.01907 0.0468 -0.036376
v -0.017158 0.045901 -0.037367
v -0.014218 0.045396 -0.038943
v -0.027435 0.048395 -0.030794
v -0.030344 0.046887 -0.027708
v -0.030073 0.045435 -0.028018
v -0.027577 0.046872 -0.030503
v -0.037639 0.048486 -0.017398
v -0.04052 0.048396 -0.008171
v -0.041435 0.048396 -0.000737
v -0.040358 0.04838 0.010494
v -0.039035 0.046552 0.014716
v -0.036966 0.046761 0.019523
v -0.034746 0.0484 0.023629
v -0.028056 0.046562 0.031273
v -0.030064 0.045472 0.029262
v -0.030845 0.046863 0.028465
v -0.026749 0.048396 0.032404
v -0.020627 0.048396 0.03672
v 0.011435 0.047052 -0.039475
v -0.0017501 0.046805 -0.041055
v -0.028372 0.045566 -0.029711
v -0.039183 0.04739 -0.013122
v -0.041439 0.045421 -0.0005703
v -0.037771 0.046201 0.019013
v -0.011841 0.046836 -0.039411
v -0.020379 0.045446 0.043545
v -0.033826 0.046874 -0.031346
v -0.037849 0.045483 0.017889
v -0.0022799 0.046859 -0.042853
v 0.0094902 0.048356 -0.040151
v 0.011779 0.047146 -0.03872
v 0.012469 0.048376 -0.04012
v -0.040009 0.045256 0.019318
v -0.042474 0.045266 -0.014549
v -0.040545 0.045262 -0.01516
v -0.017135 0.04526 -0.039391
v -0.015178 0.045276 -0.04074
v -0.019192 0.045328 -0.04023
v -0.012743 0.045565 -0.041432
v -0.018889 0.045819 -0.037336
v -0.01688 0.048162 -0.039305
v -0.018761 0.047788 -0.039708
v -0.042469 0.048243 -0.014314
v -0.014606 0.043749 -0.045319
v -0.014949 0.045048 -0.045204
v 0.0074339 0.048396 -0.045408
v -0.040387 0.043846 0.013715
v -0.040758 0.043753 0.01348
v -0.037906 0.043796 0.02053
v -0.019793 0.043747 0.038973
v -0.012621 0.043817 -0.040204
v 0.014436 0.046456 -0.038156
v 0.014873 0.045468 -0.038566
v 0.013277 0.045407 -0.039941
v 0.014763 0.045396 -0.037719
v 0.012717 0.046269 -0.041863
v 0.012662 0.046411 -0.041575
v 0.012834 0.046362 -0.041023
v 0.013099 0.045423 -0.040867
v 0.012564 0.045401 -0.042232
v 0.012618 0.046474 -0.041468
v 0.012633 0.046467 -0.041458
v 0.012643 0.046462 -0.04145
v 0.012681 0.046439 -0.041419
v -0.030055 0.045473 -0.031873
v 0.0021039 0.046902 -0.043886
v 0.002087 0.046896 -0.043891
v 0.0129 0.046877 -0.039834
v -0.02178 0.043824 -0.042308
v -0.01967 0.043782 -0.037498
v -0.018506 0.0439 -0.037583
v 0.013135 0.043787 -0.040237
v -0.021762 0.043768 0.043594
v -0.019335 0.043893 0.038576
v -0.037789 0.043881 0.01983
v -0.04569 0.043776 0.015422
v -0.045694 0.043807 -0.014167
v -0.040607 0.043785 -0.012278
v -0.038355 0.043783 -0.017803
v -0.040895 0.043885 -0.020657
v -0.042748 0.043841 -0.021439
v -0.042713 0.043783 0.022628
v 0.0019576 0.048396 -0.045932
v 0.0073864 0.046862 -0.045387
v 0.0078437 0.046954 -0.047076
v 0.0079195 0.048287 -0.047005
v 0.0018593 0.046888 -0.047922
v -0.021207 0.046896 0.041938
v -0.021418 0.045396 0.042312
v -0.030114 0.046896 0.036022
v -0.035606 0.045396 0.030516
v -0.041365 0.046896 0.022401
v -0.04108 0.045396 0.022065
v -0.044157 0.045396 0.014675
v -0.044188 0.046896 0.014662
v -0.044158 0.046896 -0.013419
v -0.044183 0.045396 -0.01339
v -0.013779 0.046896 -0.044197
v -0.013816 0.045396 -0.043757
v -0.006873 0.045396 -0.045383
v 0.0016951 0.045394 -0.045951
v 0.0019322 0.046873 -0.045938
v 0.007675 0.045396 -0.045331
v 0.014289 0.045396 -0.043757
v 0.014289 0.046896 -0.043757
v 0.0065648 0.047852 -0.0455
v 0.001487 0.045396 -0.043911
v 0.001511 0.045396 -0.043911
v -0.033538 0.045398 -0.031413
v -0.021368 0.045396 -0.040974
v -0.021207 0.046896 -0.040696
v -0.03124 0.047075 -0.026729
v -0.034849 0.047379 -0.030088
v -0.034797 0.046972 -0.030299
v -0.038468 0.047133 -0.025781
v -0.041101 0.047223 -0.020944
v -0.042406 0.047473 -0.019825
v -0.042799 0.045457 -0.020098
v -0.042924 0.047956 -0.020882
v -0.04285 0.048293 -0.020664
v -0.040512 0.048207 -0.019416
v -0.040211 0.045248 -0.018265
v -0.039637 0.048134 -0.016804
v -0.04042 0.048257 -0.015096
v -0.044724 0.04803 -0.015234
v -0.045337 0.047907 -0.015114
v -0.045191 0.048367 -0.014814
v -0.045063 0.047978 0.016537
v -0.045381 0.045072 0.01626
v -0.045221 0.048355 0.016153
v -0.042217 0.04825 0.015514
v -0.039677 0.048222 0.018653
v -0.040111 0.048242 0.016713
v -0.040573 0.048014 0.020391
v -0.042667 0.047928 0.02133
v -0.042915 0.047962 0.022237
v -0.042684 0.048365 0.022196
v -0.04234 0.045384 0.020972
v 0.015983 0.047686 -0.044238
v 0.015464 0.04836 -0.044789
v 0.015139 0.045048 -0.04527
v 0.016021 0.045512 -0.044373
v -0.015068 0.048292 -0.044945
v -0.015504 0.047624 -0.044378
v -0.014179 0.048313 -0.042062
v -0.014881 0.048111 -0.040847
v -0.019933 0.048337 -0.039758
v -0.020244 0.047472 -0.042065
v -0.020962 0.048324 -0.042321
v -0.020621 0.045311 -0.042595
v -0.021125 0.047887 0.043802
v -0.021389 0.045065 0.043782
v -0.020367 0.047925 0.043385
v -0.021371 0.048307 0.043599
v -0.019363 0.047928 0.041292
v -0.04324 0.045196 -0.019916
v -0.045024 0.045196 -0.015658
v -0.045406 0.04506 -0.014974
v -0.043116 0.045046 -0.020559
v -0.045024 0.045196 0.0169
v -0.042977 0.045275 0.021616
v -0.043116 0.045046 0.021801
v -0.04324 0.045196 0.021157
v -0.044955 0.045295 0.016637
v -0.039748 0.045499 -0.016809
v -0.014895 0.04539 -0.042063
v -0.045824 0.046899 -0.013995
v -0.045879 0.048247 -0.013043
v -0.045893 0.048282 0.014206
v 0.015629 0.04801 -0.045082
v -0.021434 0.048109 -0.042477
v -0.028329 0.048297 -0.038219
v -0.03388 0.048182 -0.033454
v -0.039119 0.048308 -0.027257
v -0.035694 0.048281 0.032831
v -0.040388 0.048071 0.02663
v -0.027918 0.048284 0.039781
v -0.033021 0.046897 -0.034499
v -0.042826 0.046782 -0.021639
v -0.042809 0.046886 0.022881
v -0.033033 0.046897 0.035731
v -0.021921 0.046885 0.043588
v 0.014947 0.046894 -0.045357
v 0.0017718 0.048228 -0.047727
v -0.0095933 0.048315 -0.046565
v -0.014527 0.046904 -0.045354
v -0.021932 0.046925 -0.042296
v -0.038937 0.045396 0.021633
v -0.032977 0.045402 0.030494
v -0.030013 0.045407 0.03344
v -0.038833 0.045425 0.015303
v -0.042424 0.045562 0.0026804
v -0.041452 0.045544 0.0017653
v -0.042276 0.04547 -0.0010678
v -0.040484 0.045468 0.013534
v -0.042339 0.045402 0.012722
v -0.03957 0.047392 -0.014114
v -0.038125 0.047396 -0.017609
v -0.021527 0.045405 -0.038389
v -0.011977 0.045544 -0.042392
v -0.020021 0.045506 -0.03788
v -0.039772 0.046311 -0.012821
v -0.019698 0.04608 0.038561
v 0.0028183 0.047857 -0.045858
v 0.0073838 0.045768 -0.043371
v 0.0068808 0.046846 -0.042318
v -0.015586 0.045316 -0.044581
v -0.044968 0.04532 -0.015364
v -0.042318 0.045334 0.015752
v -0.040238 0.045284 0.016727
v -0.020431 0.045209 0.044015
v 0.012748 0.048396 -0.038423
v 0.0063489 0.046931 -0.040667
v -0.013866 0.046601 -0.038672
v -0.012787 0.045706 -0.03989
v -0.011665 0.046756 -0.041548
v -0.0010609 0.045731 -0.043379
v -0.00199 0.045622 -0.043958
v -0.02924 0.046713 -0.031934
v -0.02141 0.04648 -0.037994
v -0.020858 0.046647 -0.03785
v -0.039406 0.046731 -0.012398
v -0.040297 0.045866 -0.012335
v -0.041438 0.046806 -0.01107
v -0.041733 0.04557 -0.012234
v -0.042371 0.045697 -0.011302
v -0.041551 0.046776 -0.0016604
v -0.042047 0.046325 -0.0017132
v -0.041464 0.046787 0.0029649
v -0.041868 0.046599 0.012457
v -0.040216 0.046193 0.013408
v -0.039797 0.046893 0.012644
v -0.031842 0.04561 0.030878
v -0.032552 0.046734 0.029952
v -0.037632 0.045804 0.020296
v -0.038439 0.046515 0.021834
v -0.037506 0.046854 0.021706
v -0.017996 0.04543 0.038947
v -0.017717 0.046561 0.038251
v -0.01899 0.046433 0.038169
v -0.019455 0.046851 0.03737
v -0.020341 0.04545 0.039601
v -0.021024 0.04677 0.038834
v -0.021405 0.045481 0.039652
v -0.029289 0.046495 0.033598
v -0.028673 0.046856 0.033179
v -0.029613 0.046299 0.032663
v 0.0015533 0.046616 -0.043899
v 0.001788 0.046816 -0.043632
v 0.013918 0.046869 -0.038029
v 0.012689 0.046885 -0.040845
v 0.012108 0.046888 -0.041411
v 0.013976 0.046876 -0.039153
v 0.017425 0.048139 -0.039295
v 0.017465 0.045258 -0.039452
v 0.015781 0.048124 -0.040319
v 0.020012 0.043815 -0.037348
v 0.015065 0.043773 -0.045322
v 0.015242 0.04768 -0.041987
v 0.014559 0.048322 -0.042329
v 0.016407 0.048359 -0.038875
v -0.02006 0.048399 0.040351
v -0.016987 0.048224 0.040499
v 0.016497 0.045183 -0.044758
v 0.020966 0.045308 -0.042533
v -0.018391 0.045272 0.040805
v -0.012267 0.048396 0.040396
v -0.017056 0.045396 0.03856
v 0.016 0.045249 -0.040291
v 0.015384 0.045276 -0.041745
v 0.038094 0.045796 -0.018872
v 0.037974 0.046839 -0.020648
v 0.037199 0.046657 -0.017112
v 0.013033 0.046058 0.041116
v 0.019665 0.045334 0.041449
v -0.014896 0.045287 0.043034
v -0.016012 0.045201 0.045869
v -0.013544 0.046854 0.040379
v 0.030254 0.046632 0.028547
v 0.034295 0.046876 0.032592
v 0.038467 0.045398 -0.017063
v 0.032483 0.046443 -0.029202
v 0.031107 0.046896 -0.02636
v 0.0027544 0.046859 0.044096
v 0.001958 0.046415 0.041584
v 0.013833 0.046657 0.039297
v 0.014604 0.045394 0.04053
v -0.008618 0.048396 0.040653
v -0.010386 0.048367 0.042118
v -0.010768 0.046896 0.040837
v -0.010141 0.047156 0.040862
v -0.009605 0.046896 0.040422
v 0.041191 0.045251 -0.018826
v 0.040332 0.045378 -0.017652
v 0.040805 0.045261 0.016695
v 0.04252 0.045274 0.015717
v 0.015678 0.045232 0.041963
v 0.017614 0.045259 0.040634
v 0.013039 0.045412 0.041586
v 0.040427 0.046044 0.014071
v 0.042988 0.048215 0.015558
v 0.016039 0.045237 0.046066
v -0.0070867 0.048396 0.046667
v 0.041433 0.043888 0.021948
v 0.040709 0.043871 -0.012705
v 0.038238 0.043794 -0.019131
v 0.013142 0.04378 0.041654
v -0.014363 0.045396 0.039676
v -0.014133 0.045511 0.040319
v -0.012796 0.04537 0.041167
v -0.012289 0.046392 0.042661
v -0.012703 0.045442 0.042288
v -0.01209 0.045401 0.043474
v -0.011762 0.046649 0.042903
v 0.027982 0.046421 0.030806
v 0.030051 0.046453 0.032879
v 0.027218 0.046896 0.031491
v 0.030391 0.045407 0.032593
v -0.0016299 0.046902 0.045128
v -0.001613 0.046896 0.045133
v -0.013618 0.046882 0.039946
v -0.012322 0.046892 0.041199
v -0.0062582 0.04692 0.042784
v 0.042191 0.046701 0.012261
v 0.041796 0.046835 0.0032004
v 0.03912 0.047163 0.013623
v 0.041767 0.046836 -0.010871
v 0.041188 0.046695 -0.001379
v 0.027779 0.046695 -0.02975
v 0.002987 0.046896 0.041528
v 0.0222 0.043758 0.043609
v 0.020168 0.043858 0.038719
v 0.013574 0.043964 0.041053
v 0.015036 0.043796 0.046548
v -0.012653 0.043807 0.041476
v -0.014653 0.043751 0.046518
v -0.014446 0.044956 0.046652
v 0.022243 0.043784 -0.042321
v 0.043187 0.043783 -0.021386
v 0.041322 0.043781 -0.012265
v 0.046164 0.043774 -0.01418
v 0.040957 0.043863 0.013586
v 0.04159 0.043763 0.013567
v 0.046165 0.043774 0.01542
v 0.038834 0.043774 0.019044
v 0.043222 0.043842 0.022682
v -0.0014849 0.048396 0.047174
v -0.0069666 0.046876 0.046633
v -0.0073688 0.046954 0.048318
v -0.0013868 0.046888 0.049166
v 0.02168 0.046896 -0.040696
v 0.021891 0.045396 -0.04107
v 0.03059 0.046896 -0.034778
v 0.03608 0.045396 -0.029274
v 0.041839 0.046896 -0.021159
v 0.041554 0.045396 -0.020822
v 0.044631 0.045396 -0.013433
v 0.044662 0.046896 -0.01342
v 0.044614 0.046646 0.014669
v 0.044787 0.045396 0.012828
v 0.014252 0.046896 0.045439
v 0.014289 0.045396 0.044999
v 0.007346 0.045396 0.046625
v -0.0012212 0.045394 0.047193
v -0.0014596 0.046873 0.047179
v -0.007202 0.045396 0.046573
v -0.013816 0.045396 0.044999
v -0.013816 0.046896 0.044999
v -0.001013 0.045396 0.045154
v -0.001037 0.045396 0.045153
v -0.00106 0.046549 0.045125
v 0.034012 0.045398 0.032655
v 0.021841 0.045396 0.042216
v 0.02168 0.046896 0.041938
v 0.035317 0.047386 0.031345
v 0.03545 0.046993 0.031552
v 0.038822 0.04737 0.027062
v 0.041522 0.04726 0.022155
v 0.041942 0.046951 0.022274
v 0.043253 0.047682 0.021377
v 0.043273 0.045457 0.021341
v 0.043368 0.048032 0.022219
v 0.043462 0.048292 0.022125
v 0.040966 0.048253 0.020624
v 0.040689 0.045248 0.019513
v 0.040044 0.048238 0.01817
v 0.041195 0.048269 0.016116
v 0.045677 0.047992 0.016526
v 0.04558 0.048356 0.016226
v 0.045795 0.047992 -0.015169
v 0.045577 0.048392 -0.014767
v 0.045203 0.047962 -0.015242
v 0.042767 0.048143 -0.014362
v 0.040804 0.048334 -0.019711
v 0.041186 0.048198 -0.014873
v 0.041894 0.048391 -0.013866
v 0.040327 0.048318 -0.01594
v 0.040146 0.048234 -0.017417
v 0.040994 0.047685 -0.01891
v 0.043244 0.047881 -0.020151
v 0.043376 0.048002 -0.02099
v -0.014767 0.047679 0.043234
v -0.015245 0.048191 0.045705
v -0.015538 0.047686 0.045723
v 0.015139 0.045046 0.046512
v 0.015439 0.048244 0.046338
v 0.015848 0.04816 0.045747
v 0.018336 0.048226 0.040539
v 0.015086 0.048085 0.043287
v 0.015337 0.045402 0.04314
v 0.02042 0.048396 0.04055
v 0.019878 0.047947 0.041374
v 0.016303 0.048211 0.040996
v 0.020885 0.047826 0.0435
v 0.021406 0.045191 0.043851
v 0.021786 0.047972 -0.042557
v 0.021823 0.045071 -0.042501
v 0.020825 0.047718 -0.042208
v 0.021519 0.048327 -0.042302
v 0.020505 0.048351 -0.039826
v 0.043715 0.045196 0.021159
v 0.045498 0.045196 0.016901
v 0.04588 0.045061 0.016216
v 0.04359 0.045046 0.021801
v 0.043469 0.0453 -0.020252
v 0.019705 0.047717 -0.040014
v 0.04022 0.045501 0.018054
v 0.046182 0.046896 0.015324
v 0.04618 0.048345 0.014252
v 0.04638 0.048208 0.013979
v 0.046237 0.048329 0.0051985
v 0.046383 0.04816 0.0031005
v 0.046224 0.048332 -0.012907
v 0.046112 0.048362 -0.0031936
v 0.046383 0.046962 -0.013929
v 0.04642 0.048146 -0.004719
v 0.04648 0.046895 0.013205
v -0.014888 0.048291 0.046313
v -0.0074219 0.048195 0.048358
v 0.021803 0.048277 0.043695
v 0.033694 0.048314 0.0353
v 0.038613 0.048311 0.029764
v 0.027406 0.048212 0.040499
v 0.042986 0.048401 -0.021099
v 0.039793 0.048182 -0.026986
v 0.033861 0.048309 -0.033956
v 0.027459 0.048287 -0.039156
v 0.033508 0.046897 0.035731
v 0.043236 0.046891 0.022961
v 0.043283 0.046886 -0.02164
v 0.033512 0.046897 -0.034484
v 0.022394 0.046885 -0.042346
v -0.014473 0.046894 0.046599
v -0.0013139 0.048355 0.048683
v 0.0071097 0.048237 0.048433
v 0.014951 0.04689 0.046641
v 0.022386 0.046881 0.043544
v 0.030241 0.045873 -0.027318
v 0.039247 0.045405 -0.021142
v 0.039045 0.045409 -0.01987
v 0.033356 0.045438 -0.029289
v 0.030486 0.045407 -0.032197
v 0.038098 0.045396 -0.015061
v 0.039682 0.045397 -0.013912
v 0.041217 0.045396 0.001871
v 0.042813 0.045402 0.012722
v 0.042056 0.045395 -0.012267
v 0.042726 0.045401 -0.0010194
v 0.038716 0.047396 0.019111
v 0.03119 0.047179 0.027507
v 0.030098 0.045396 0.028715
v 0.021877 0.045481 0.039653
v 0.01592 0.045396 0.038482
v 0.018317 0.045388 0.039011
v 0.018095 0.046796 0.037526
v -0.001013 0.045396 0.041602
v 0.013227 0.045598 0.042735
v 0.0015225 0.045406 0.044552
v 0.040817 0.045395 -0.012382
v 0.019244 0.043772 0.038728
v 0.019885 0.045903 0.03845
v 0.040104 0.047382 0.01481
v 0.019863 0.045951 -0.03718
v -0.006622 0.046394 0.044267
v -0.0061062 0.047851 0.046738
v -0.0023163 0.047847 0.047104
v -0.015555 0.045482 0.045594
v 0.020864 0.045306 0.043679
v 0.015978 0.045586 0.045549
v 0.045445 0.04532 0.016606
v 0.040711 0.045283 -0.015488
v 0.042804 0.045281 -0.014534
v 0.045505 0.045285 -0.015415
v 0.014268 0.046554 0.040029
v 0.012395 0.046759 0.040826
v 0.01214 0.046755 0.042791
v 0.012451 0.045544 0.043634
v 0.0018208 0.046287 0.044433
v 0.0024648 0.045622 0.0452
v 0.03011 0.045405 0.033834
v 0.02957 0.046706 0.033478
v 0.021651 0.046764 0.038815
v 0.020831 0.045449 0.039604
v 0.02035 0.046681 0.038065
v 0.018248 0.046526 0.038454
v 0.039765 0.046789 0.013839
v 0.041219 0.045629 0.013485
v 0.042178 0.046475 0.012956
v 0.042879 0.045597 0.0027152
v 0.042027 0.046529 0.0023749
v 0.042397 0.045405 0.0019403
v 0.041172 0.046658 0.0028587
v 0.041214 0.045771 -0.0007295
v 0.041977 0.046458 -0.0010084
v 0.042381 0.04655 -0.0017191
v 0.042863 0.045644 -0.011308
v 0.042262 0.04625 -0.011865
v 0.040759 0.046486 -0.012007
v 0.039808 0.046493 -0.013388
v 0.038913 0.046658 -0.012976
v 0.032219 0.045403 -0.029535
v 0.032868 0.046819 -0.028379
v 0.038852 0.04648 -0.021026
v 0.038827 0.046416 -0.020206
v 0.037917 0.046606 -0.017256
v 0.018186 0.046612 -0.037077
v 0.018095 0.046796 -0.036284
v 0.018263 0.045392 -0.037766
v 0.017076 0.045396 -0.036761
v 0.020929 0.046834 -0.036891
v 0.020858 0.045577 -0.038388
v 0.021844 0.04658 -0.03787
v 0.02188 0.045401 -0.038354
v 0.02951 0.046725 -0.032134
v 0.030182 0.046273 -0.031556
v 0.028258 0.045771 -0.029309
v -0.001253 0.046658 0.041593
v -0.0012564 0.046795 0.042021
v -0.001314 0.046816 0.044874
v -0.012392 0.046869 0.041168
v -0.0078576 0.046889 0.04352
v -0.012196 0.046895 0.042098
v -0.012921 0.046323 0.040795
v -0.014738 0.048212 0.04214
v 0.019439 0.045347 -0.039888
v 0.010172 0.048396 0.040217
v 0.034636 0.048396 0.017925
v 0.027078 0.048396 -0.02756
v -0.015846 0.045264 0.041151
v -0.044435 0.035196 0.014152
v -0.04388 0.035201 0.015302
v -0.042997 0.035197 0.015912
v -0.041328 0.035196 0.016062
v -0.043356 0.043598 0.015926
v -0.041224 0.043607 0.016203
v -0.044513 0.035196 -0.011337
v -0.017946 0.035196 0.040941
v -0.042266 0.035196 -0.01473
v -0.044432 0.046894 -0.012923
v 0.040642 0.035196 0.018416
v -0.041142 0.035196 -0.015022
v -0.040086 0.035196 0.018682
v 0.041711 0.035196 0.016089
v -0.01573 0.035196 0.041714
v -0.044039 0.035196 -0.013984
v -0.044287 0.043536 -0.013517
v -0.043386 0.04358 -0.014619
v -0.041323 0.043519 -0.014852
v -0.040873 0.035197 -0.015433
v -0.039005 0.041696 -0.019874
v -0.041152 0.041696 -0.019967
v -0.039987 0.041696 -0.017791
v -0.041934 0.041696 -0.020177
v -0.040807 0.046896 -0.022962
v -0.04263 0.046823 -0.021524
v -0.041676 0.046821 -0.021151
v -0.041729 0.043597 -0.021088
v -0.041808 0.04354 -0.019652
v -0.045702 0.043597 -0.014121
v -0.044279 0.046854 -0.013441
v -0.044422 0.046895 0.014268
v -0.045816 0.046888 0.01525
v -0.044284 0.046854 0.014684
v -0.045693 0.043598 0.015376
v -0.044314 0.043546 0.014779
v -0.041313 0.043521 0.020329
v -0.041462 0.043396 0.021074
v -0.041502 0.035196 0.020569
v -0.040157 0.035196 0.019195
v -0.03497 0.035196 0.0316
v -0.027677 0.035198 0.038105
v -0.018558 0.035196 0.041128
v -0.01805 0.043559 0.040943
v -0.021413 0.046862 0.042191
v -0.021932 0.046816 0.043479
v -0.027502 0.046894 0.040135
v -0.014336 0.043786 0.046352
v -0.014469 0.043396 0.046576
v -0.014429 0.046805 0.046599
v -0.014409 0.046758 0.046594
v -0.014409 0.041046 0.046594
v -0.007076 0.041046 0.048314
v -0.0026981 0.035196 0.048909
v -0.021848 0.043507 0.04353
v -0.020668 0.020871 0.044034
v -0.01441 0.021196 0.046594
v -0.0071118 0.021042 0.048269
v 0.0029426 0.020875 0.048818
v 0.015566 0.020799 0.04627
v 0.022212 0.021196 0.043576
v 0.028631 0.021044 0.039588
v 0.034751 0.020818 0.034216
v 0.039171 0.021196 0.02912
v 0.04549 0.020696 0.015859
v 0.0077514 0.020726 -0.046862
v 0.04305 0.020973 0.02279
v 0.046193 0.046821 0.015245
v 0.046193 0.046821 -0.014003
v 0.044803 0.046873 -0.01344
v 0.04617 0.043598 -0.014123
v 0.04476 0.043583 -0.013499
v 0.044987 0.035196 -0.011337
v 0.044178 0.035197 -0.014494
v 0.043888 0.043576 -0.014648
v 0.041806 0.043555 -0.014872
v 0.04308 0.046868 -0.021579
v 0.043113 0.043573 -0.021472
v 0.041976 0.043517 -0.020661
v 0.040984 0.043625 -0.018271
v 0.041504 0.035196 -0.018885
v 0.040556 0.043557 -0.017746
v 0.044987 0.035196 0.012579
v 0.04063 0.035196 -0.017953
v 0.01842 0.035196 -0.039699
v -0.015751 0.035196 -0.040532
v 0.016202 0.035196 -0.040472
v 0.018735 0.043422 -0.039654
v 0.030797 0.035196 -0.034986
v 0.0279 0.041046 -0.037066
v 0.020756 0.035196 -0.041126
v 0.019125 0.035196 -0.039994
v 0.021433 0.043516 -0.041114
v 0.021756 0.043396 -0.040878
v 0.021756 0.046696 -0.040878
v 0.022405 0.046816 -0.042237
v 0.021867 0.046819 -0.040824
v 0.021935 0.046896 -0.040788
v 0.021867 0.041007 -0.040824
v 0.031737 0.046896 -0.034048
v 0.02811 0.046889 -0.038753
v 0.041806 0.046862 -0.021029
v 0.037924 0.041046 -0.027042
v 0.041109 0.035196 -0.022216
v 0.041893 0.035196 -0.020362
v 0.036984 0.046896 -0.030873
v 0.033725 0.021061 -0.034164
v 0.039348 0.021196 -0.027699
v 0.022096 0.020599 -0.04224
v 0.02324 0.021113 -0.041876
v 0.014663 0.021097 -0.045435
v 0.0076726 0.021096 -0.047047
v 0.007551 0.041046 -0.047071
v 0.014884 0.041046 -0.045352
v 0.014942 0.043396 -0.045333
v 0.014884 0.046757 -0.045352
v 0.014902 0.046804 -0.045355
v 0.007325 0.046896 -0.045589
v 0.014365 0.046696 -0.043939
v 0.007551 0.046896 -0.047071
v 0.013744 0.047203 -0.044268
v 0.014248 0.041007 -0.04398
v 0.0029585 0.035196 -0.046164
v 0.015843 0.035196 -0.040796
v -0.015241 0.035196 -0.040984
v -0.018189 0.043567 -0.039724
v -0.019879 0.043575 -0.041115
v -0.021287 0.043536 -0.040912
v -0.021323 0.046809 -0.040863
v -0.02246 0.035195 -0.040334
v -0.028442 0.046894 -0.036407
v -0.034518 0.046896 -0.030646
v -0.033881 0.046896 -0.033497
v -0.022097 0.046893 -0.042352
v -0.03356 0.035196 -0.031617
v -0.034518 0.041696 -0.030646
v -0.034533 0.046896 -0.030649
v -0.034533 0.041046 -0.030649
v -0.033896 0.041696 -0.030281
v -0.033919 0.035196 -0.030468
v -0.03372 0.041696 -0.031186
v -0.032579 0.041696 -0.028861
v -0.032972 0.035196 -0.028579
v -0.033207 0.035196 -0.028562
v -0.033424 0.035196 -0.028656
v -0.032999 0.037519 -0.028638
v -0.032549 0.035196 -0.028948
v -0.03277 0.036059 -0.028702
v -0.032339 0.035196 -0.029219
v -0.018796 0.035196 -0.04015
v -0.018459 0.035196 -0.039832
v -0.019938 0.035197 -0.041102
v -0.018014 0.035196 -0.039701
v -0.017558 0.035196 -0.039784
v -0.03275 0.035551 -0.028723
v -0.03275 0.035196 -0.028723
v -0.03277 0.035196 -0.028702
v -0.039032 0.035196 -0.019688
v -0.039086 0.035196 -0.019451
v -0.039096 0.035196 -0.019923
v -0.039221 0.03804 -0.020056
v -0.039493 0.035196 -0.020177
v -0.039262 0.035196 -0.0201
v -0.038809 0.035196 -0.025985
v -0.033541 0.035196 -0.028764
v -0.035554 0.035196 -0.030221
v -0.041737 0.035196 -0.020872
v -0.03881 0.041046 -0.025986
v -0.035555 0.041046 -0.030222
v -0.035555 0.041799 -0.030222
v -0.035556 0.042005 -0.030222
v -0.035554 0.042382 -0.030219
v -0.035556 0.04301 -0.030222
v -0.035556 0.043605 -0.030222
v -0.035556 0.043696 -0.030223
v -0.035554 0.041548 -0.030221
v -0.035556 0.043194 -0.030222
v -0.035556 0.043376 -0.030222
v -0.035556 0.043925 -0.030223
v -0.035556 0.046896 -0.030229
v -0.035554 0.042897 -0.030219
v -0.038859 0.046894 -0.027674
v -0.033851 0.021179 -0.033563
v -0.028104 0.040925 -0.038416
v -0.018384 0.021156 -0.044064
v -0.028903 0.021216 -0.037954
v -0.0145 0.043519 -0.045319
v -0.0097694 0.020695 -0.046275
v -0.027759 0.020804 0.039838
v 0.00087421 0.021105 -0.047632
v -0.0067074 0.021188 -0.047152
v -0.007467 0.041046 -0.04701
v -0.014393 0.046816 -0.045362
v -0.02185 0.043609 -0.04226
v -0.015028 0.043548 -0.04308
v -0.013911 0.043537 -0.043966
v -0.014416 0.035196 -0.043679
v -0.012363 0.035195 -0.044551
v -0.013852 0.046809 -0.043958
v -0.0051643 0.046893 -0.04594
v -0.0020952 0.046896 -0.047629
v -0.015243 0.043563 -0.04091
v -0.045513 0.020696 0.000621
v -0.033602 0.021041 0.034961
v -0.038541 0.021196 0.029332
v -0.041506 0.020791 0.02447
v -0.045016 0.020696 0.015859
v -0.045513 0.020696 0.012828
v -0.045513 0.020696 0.006724
v -0.045882 0.021161 0.014562
v -0.046013 0.021196 -0.0024305
v -0.045766 0.021201 -0.01389
v -0.045355 0.020693 -0.013386
v -0.045513 0.020696 -0.011585
v -0.042957 0.021209 -0.020978
v -0.042645 0.04357 -0.021476
v -0.038975 0.021191 -0.027565
v -0.03501 0.020692 -0.031753
v -0.038542 0.046896 0.029331
v -0.042606 0.046868 0.022821
v -0.041173 0.046896 0.022319
v -0.041262 0.046696 0.02214
v -0.041208 0.046819 0.022251
v -0.041262 0.043396 0.02214
v -0.03745 0.041046 0.028284
v -0.041208 0.041007 0.022251
v -0.034906 0.046896 0.031636
v -0.033599 0.046896 0.035018
v -0.021067 0.043416 0.042266
v -0.019905 0.035196 0.042428
v -0.019386 0.043566 0.042091
v -0.042571 0.043833 0.022733
v -0.035424 0.043971 -0.030373
v -0.035554 0.044153 -0.03022
v -0.035551 0.044016 -0.030217
v -0.035551 0.043833 -0.030217
v -0.035551 0.043696 -0.030217
v -0.035551 0.043467 -0.030217
v -0.035551 0.043285 -0.030217
v -0.035551 0.043102 -0.030217
v -0.035424 0.041777 -0.030373
v -0.035012 0.041046 -0.030621
v -0.035551 0.041868 -0.030217
v -0.035555 0.042188 -0.030221
v -0.035551 0.042096 -0.030217
v -0.035552 0.041023 -0.030218
v -0.035553 0.041228 -0.030219
v -0.035553 0.041366 -0.030219
v -0.035553 0.038259 -0.03022
v -0.035348 0.035196 -0.030459
v -0.040843 0.035196 -0.019936
v -0.03353 0.041696 -0.028733
v 0.015475 0.035196 -0.043107
v 0.015596 0.04358 -0.043028
v 0.014365 0.043396 -0.043939
v 0.014716 0.04382 -0.044856
v 0.022325 0.043496 -0.042312
v 0.015733 0.043567 -0.040954
v 0.018929 0.043661 -0.040082
v 0.038978 0.020679 -0.027579
v 0.043278 0.021185 -0.021239
v 0.045847 0.020733 -0.014662
v 0.046487 0.021196 -0.011585
v 0.045987 0.020696 -0.005482
v 0.045987 0.020696 0.000621
v 0.046342 0.02114 0.014719
v 0.041191 0.035196 -0.015404
v 0.044895 0.046894 0.014207
v 0.044585 0.035196 0.015139
v 0.043455 0.035196 0.015928
v 0.04386 0.043569 0.015884
v 0.044761 0.043536 0.014759
v 0.046158 0.043558 0.015355
v 0.044753 0.046854 0.014683
v 0.043119 0.043619 0.022706
v 0.041931 0.043556 0.020711
v 0.04054 0.043543 0.019065
v 0.041975 0.035196 0.020921
v 0.04069 0.035196 0.019317
v 0.018488 0.035196 0.040943
v 0.040559 0.035196 0.018872
v 0.022935 0.035195 0.041576
v 0.018932 0.035196 0.041074
v 0.0205 0.035196 0.042424
v 0.021761 0.043536 0.042154
v 0.021797 0.046809 0.042105
v 0.029773 0.046893 0.03704
v 0.033183 0.046896 0.035971
v 0.029691 0.035315 0.038747
v 0.03937 0.046892 0.028875
v 0.041754 0.046896 0.022361
v 0.043115 0.046801 0.022763
v 0.041752 0.043525 0.02214
v 0.036082 0.035196 0.030861
v 0.022217 0.035203 0.043545
v 0.015261 0.035196 0.046472
v 0.0069489 0.035288 0.048348
v 0.0024978 0.046896 0.048903
v 0.014867 0.046816 0.046604
v 0.014365 0.046696 0.045181
v 0.014581 0.04355 0.045226
v 0.013881 0.047056 0.045477
v 0.014365 0.043396 0.045181
v 0.014248 0.041007 0.045222
v 0.014948 0.035196 0.044857
v 0.0029576 0.035196 0.047406
v 0.015714 0.035196 0.042227
v -0.01537 0.035196 0.042038
v -0.015013 0.035196 0.04432
v 0.016225 0.035196 0.041775
v 0.018032 0.035196 0.041026
v 0.018677 0.043563 0.040961
v 0.020392 0.043553 0.042327
v 0.022308 0.043628 0.043452
v 0.022406 0.046816 0.043481
v 0.01497 0.043505 0.046595
v 0.015569 0.043583 0.044077
v 0.015723 0.043565 0.04215
v -0.012131 0.035195 0.045842
v -0.015071 0.043562 0.044331
v -0.0051643 0.046894 0.047182
v -0.013891 0.043396 0.045181
v -0.013813 0.046813 0.045212
v -0.007076 0.046896 0.048314
v 0.007325 0.046896 0.046831
v -0.015268 0.043581 0.042197
v 0.04173 0.043568 0.016157
v -0.040083 0.04355 0.019085
v -0.040148 0.043625 -0.017832
v -0.028016 0.0087048 -0.19614
v -0.027756 0.000196 -0.19701
v -0.028053 0.00019593 -0.19601
v -0.027682 -0.0054391 -0.19726
v 0.0029658 -0.0043029 -0.17925
v -0.028972 -0.0067433 -0.1925
v -0.028653 -0.0096751 -0.19258
v -0.029326 -0.011317 -0.18122
v -0.031461 -0.0081107 -0.17391
v -0.025484 -0.013504 -0.17624
v -0.022863 -0.014306 -0.1917
v -0.018375 -0.015103 -0.18081
v -0.027037 -0.011921 -0.19332
v -0.022461 -0.011657 -0.20584
v -0.023672 -0.0094066 -0.2065
v -0.023665 -0.0073026 -0.20738
v -0.02694 -0.0072257 -0.19962
v 0.0029691 -0.0057415 -0.17973
v -0.027399 -0.0065326 -0.1982
v 0.003444 -0.0071725 -0.1819
v 0.00082319 -0.0090371 -0.17078
v 0.0029846 0.00019328 -0.17807
v -0.012145 0.000196 -0.18798
v 0.003107 0.000196 -0.17917
v 0.0029229 0.0072507 -0.17805
v 0.0027957 0.0092932 -0.17871
v 0.00030449 -0.00034515 -0.15947
v 0.00029179 0.005387 -0.15808
v -7.7618e-05 0.014122 -0.17085
v -0.0012429 0.0096627 -0.15439
v -0.00026509 0.0079057 -0.1541
v 0.00043862 0.0117 -0.16777
v 0.0002767 0.0050586 -0.14394
v 0.00025837 0.0035481 -0.14869
v -0.00409 -0.0097948 -0.14953
v -0.0016862 -0.0081125 -0.14934
v -0.0066405 -0.010502 -0.14797
v -0.017236 -0.011404 -0.14886
v -0.012039 -0.011217 -0.14715
v -0.0047272 -0.0099022 -0.11134
v -0.0010978 -0.0076635 -0.13388
v 0.0014159 -0.0077795 -0.10747
v 0.0025937 -0.0055842 -0.11342
v -0.00111 0.0077404 -0.14425
v -0.0048537 0.010405 -0.14505
v -0.010138 0.011621 -0.14466
v -0.01214 0.013158 -0.15355
v -0.0047202 0.011833 -0.15326
v -0.024207 0.011812 -0.14827
v -0.01742 0.012064 -0.14574
v -0.030955 0.01062 -0.11361
v -0.0032661 0.010322 -0.12596
v 0.0049052 0.0049323 -0.10489
v 0.0041904 0.00974 -0.081671
v 0.00045774 0.010713 -0.068409
v -0.0097717 0.011497 -0.093035
v -0.029378 0.010522 -0.086316
v -0.018513 0.011156 -0.066467
v -0.0057866 0.011747 -0.059055
v -0.0030601 0.011347 -0.061669
v -0.005886 0.011117 -0.067668
v -0.0076626 0.011168 -0.067664
v -0.003495 0.010996 -0.067668
v -0.004292 0.011043 -0.067668
v -0.005089 0.011082 -0.067668
v 0.0047548 0.011213 -0.058927
v -0.0012911 0.013729 -0.052266
v -0.0065729 0.018275 -0.047306
v 0.00020355 0.017041 -0.04828
v -1.2306e-05 0.02019 -0.047596
v 0.0074684 0.020278 -0.047097
v 0.001945 0.020697 0.048539
v -0.0071964 0.020194 -0.047142
v -0.042036 0.020696 -0.021835
v -0.044259 0.014681 0.00023657
v -0.041379 0.0087284 -0.01268
v -0.039332 0.0085095 0.00071911
v -0.038261 0.0043828 -0.0014488
v -0.036378 0.0050877 0.0063826
v -0.03678 -0.0038994 0.0040456
v -0.033558 0.002712 0.012115
v -0.034302 -0.004112 0.010598
v -0.029469 0.0030343 0.018116
v -0.033853 0.0071873 0.013635
v -0.030052 0.0073276 0.019127
v -0.023674 -0.0027283 0.024158
v -0.02014 -0.0044397 0.026486
v -0.013546 -0.0044355 0.029493
v -0.018452 0.0027307 0.027562
v -0.011838 0.0030789 0.030168
v -0.024563 0.0053515 0.023657
v -0.01692 0.0064304 0.029302
v -0.01721 0.0093288 0.031378
v -0.020536 0.011996 0.0333
v -0.021695 0.016431 0.04105
v -0.024562 0.018578 0.041873
v -0.029698 0.018742 0.038382
v -0.035616 0.019914 0.033178
v -0.03883 0.020698 0.028421
v -0.029792 0.020546 0.038247
v -0.023205 0.02038 0.042781
v -0.010904 0.020471 0.047578
v -0.017954 0.020126 0.04543
v -0.016117 0.018701 0.045903
v -0.0059953 0.018941 0.048466
v 0.0032744 0.018779 0.048749
v 0.0032176 0.020165 0.048993
v 0.045987 0.020696 0.012828
v 0.046361 0.018707 0.003162
v 0.046487 0.020196 -0.00243
v 0.046313 0.018681 0.014454
v 0.04651 0.020053 0.014391
v 0.044001 0.020699 0.02036
v 0.040727 0.018379 0.026461
v 0.044169 0.019075 0.02062
v 0.039402 0.01638 0.023902
v 0.043819 0.016572 0.0146
v 0.037633 0.013279 0.012712
v 0.032355 0.01045 0.014485
v 0.034199 0.010374 0.0077866
v 0.03046 0.0063689 0.010386
v 0.034134 0.0088482 -0.0021249
v 0.031769 0.00667 -0.017305
v 0.034352 0.010335 -0.016246
v 0.029286 0.0073623 -0.028234
v 0.029645 0.010175 -0.029862
v 0.023099 0.0078918 -0.042696
v 0.024136 0.011579 -0.040076
v 0.015768 0.0099988 -0.053224
v 0.019663 0.010335 -0.047317
v 0.010616 0.012949 -0.052059
v 0.013794 0.013598 -0.04946
v 0.0080059 0.015357 -0.049
v 0.008213 0.012017 -0.055082
v 0.0073982 0.0101 -0.062146
v 0.0037916 0.010332 -0.065054
v 0.01018 0.008324 -0.067718
v 0.012909 0.0062368 -0.068137
v 0.0097395 0.0055759 -0.082359
v 0.0085262 0.0076695 -0.080069
v 0.011619 -0.0038948 -0.076836
v 0.014 -0.006068 -0.062688
v 0.0033787 -0.0099904 -0.06366
v -0.029983 -0.0095929 -0.040164
v -0.035869 -0.0086242 -0.017351
v -0.0393 -0.0062679 -0.018084
v -0.040448 0.0034246 -0.015503
v -0.040343 -0.0028744 -0.015158
v -0.039791 -0.0040542 -0.010127
v -0.037649 -0.0036401 0.00072217
v -0.034857 -0.0062151 0.0056803
v -0.034909 -0.0086329 -0.0039626
v -0.037936 -0.0059399 -0.004444
v -0.03128 -0.01036 -0.0069702
v -0.024547 -0.011668 -0.013481
v -0.013922 -0.013281 -0.0025888
v -0.023998 -0.011918 -0.0018009
v -0.026369 -0.010104 0.0097037
v -0.017994 -0.012188 0.0085973
v -0.0035314 -0.013468 -0.0055774
v -0.004141 -0.013413 0.0078552
v 0.0076989 -0.01305 -0.0072519
v 0.0028384 -0.011293 -0.033264
v -0.011703 -0.011243 -0.037425
v 0.01173 -0.0096207 -0.043697
v 0.011666 -0.0080617 -0.059892
v 0.020807 -0.010461 -0.01658
v 0.028008 -0.0065623 -0.023445
v 0.019762 -0.011616 -0.0055827
v 0.025834 -0.0097838 -0.0014227
v 0.0302 -0.007001 -0.0056672
v 0.031775 -0.004837 -0.0062266
v 0.030269 -0.0043591 -0.020546
v 0.024728 -0.0089129 -0.020282
v 0.026327 -0.0048042 -0.032235
v 0.028947 -0.0035012 -0.026229
v 0.031273 0.0030853 -0.014518
v 0.031741 -0.0038187 -0.010005
v 0.032007 0.0044218 -0.0075756
v 0.031762 0.0049019 0.00077771
v 0.022854 -0.0032387 -0.042437
v 0.028885 0.0032145 -0.026873
v 0.017182 0.0055302 -0.057453
v 0.014546 0.0040841 -0.066401
v 0.010308 0.004006 -0.082101
v 0.013596 0.0087134 -0.059179
v 0.01715 -0.0039927 -0.057224
v 0.030163 0.0030684 0.0077361
v 0.027201 0.0032835 0.015771
v 0.022989 0.0028453 0.021915
v 0.028363 -0.0040202 0.013013
v 0.026883 0.0073264 0.018846
v 0.022579 0.006517 0.023847
v 0.017721 0.0029614 0.026575
v 0.018156 0.0074752 0.02804
v 0.0092354 0.0072191 0.031838
v 0.011151 0.0029822 0.029729
v -0.00035168 0.011016 0.036043
v 0.013299 0.010874 0.033707
v 0.022059 0.012448 0.031751
v 0.012265 0.013097 0.037455
v 0.016352 0.016643 0.043585
v 0.0043981 0.015568 0.04372
v 0.0031359 0.017324 0.043344
v 0.0041484 0.017364 0.046981
v -0.0027466 0.017294 0.043423
v -0.0034067 0.014217 0.040985
v -0.0018591 0.014872 0.042075
v -0.0034255 0.016144 0.044465
v -0.00073833 0.017366 0.041896
v 0.0009692 0.014594 0.041552
v 0.0037378 0.015748 0.043612
v -0.006796 0.009618 0.034265
v -0.0029666 0.0065312 0.032606
v -0.0049315 -0.004347 0.031326
v -0.0034056 0.0032771 0.031641
v 0.0044839 0.0029333 0.03127
v 0.0042792 -0.0027425 0.031417
v 0.0027844 -0.0052226 0.030985
v -0.0071172 -0.0097861 0.025086
v 0.00031444 -0.0072909 0.029732
v -0.015115 -0.0068474 0.027485
v -0.023123 -0.0065304 0.022725
v -0.020478 -0.0090805 0.020617
v -0.014385 -0.011267 0.017675
v -0.030495 -0.0065734 0.014284
v -0.028842 -0.0041729 0.018814
v -0.030079 -0.0083762 0.0098987
v 0.0078012 -0.013087 0.0075803
v 0.0013859 -0.011988 0.018285
v 0.015945 -0.012008 0.0074319
v 0.019251 -0.010465 0.013102
v 0.025021 -0.0088407 0.0093474
v 0.019046 -0.0086293 0.020782
v 0.018413 -0.0065317 0.024461
v 0.024337 -0.0057939 0.018874
v 0.024284 -0.0039769 0.020263
v 0.018238 -0.0040972 0.026231
v 0.011035 -0.0069902 0.027944
v 0.0066716 -0.009669 0.024843
v 0.011304 -0.0046468 0.029482
v 0.026863 -0.0069589 0.011984
v 0.030389 -0.0045159 0.0063446
v 0.031392 -0.004423 0.00096468
v 0.01315 -0.011357 0.015652
v 0.029191 -0.0069307 0.0035711
v -0.01209 0.01273 0.03707
v -0.01133 0.017717 0.04647
v 0.0011918 0.017204 0.041819
v -0.0037624 0.017385 0.047067
v 0.010891 0.018738 0.04761
v 0.013959 0.020518 0.046829
v 0.016809 0.019017 0.04592
v 0.022958 0.020435 0.043233
v 0.022014 0.018636 0.043555
v 0.024926 0.010689 0.026265
v 0.030313 0.01249 0.024378
v 0.031308 0.016687 0.034839
v 0.02815 0.018779 0.039886
v 0.032014 0.020142 0.037203
v 0.041832 0.020248 0.025366
v 0.037826 0.018991 0.030856
v 0.032949 0.018678 0.035985
v 0.034228 0.020698 0.034439
v -0.040536 0.007416 -0.028831
v -0.038898 0.014839 -0.028873
v -0.039309 0.0091952 -0.037586
v -0.038951 0.020196 -0.027513
v -0.036098 0.013644 -0.037782
v -0.028286 0.016797 -0.040303
v -0.034676 0.012112 -0.045201
v -0.021306 0.012928 -0.052429
v -0.028507 0.013984 -0.045973
v -0.012705 0.016467 -0.04722
v -0.017556 0.014604 -0.048834
v -0.015135 0.018349 -0.045282
v -0.024519 0.020678 -0.040525
v -0.018112 0.020174 -0.044101
v -0.023439 0.017521 -0.042168
v -0.028839 0.018433 -0.038122
v -0.035033 0.018822 -0.032526
v -0.031965 0.020202 -0.035478
v -0.042939 0.020141 -0.021079
v -0.041298 0.0111 -0.021558
v -0.043987 0.013659 -0.013488
v -0.045917 0.020009 -0.013659
v -0.04609 0.019951 -0.0017606
v -0.023257 0.01113 -0.061462
v -0.02755 0.010317 -0.066459
v -0.032803 0.0091157 -0.066294
v -0.036461 0.0073138 -0.066361
v -0.03378 0.010511 -0.055054
v -0.038422 0.007107 -0.054802
v -0.038623 0.0038539 -0.065403
v -0.03837 -0.0043741 -0.065614
v -0.039734 -0.0032898 -0.043114
v -0.040726 -0.0033266 -0.022238
v -0.039684 0.0048838 -0.045593
v -0.040417 -0.0044439 -0.022529
v -0.035061 -0.008066 -0.043448
v -0.028494 -0.0098246 -0.06968
v -0.03758 -0.0060034 -0.061228
v -0.034405 -0.008028 -0.078959
v -0.0099982 -0.010748 -0.082519
v -0.021316 -0.010537 -0.079837
v -0.035647 -0.0056325 -0.11391
v -0.035469 0.0078492 -0.10736
v -0.023621 0.011781 -0.11515
v -0.031104 0.0097559 -0.14682
v -0.034866 0.0029758 -0.13742
v -0.033962 0.0049406 -0.1497
v -0.033566 0.0079553 -0.13694
v -0.028783 0.010839 -0.15091
v -0.03035 0.01099 -0.15846
v -0.022864 0.013548 -0.15801
v -0.014807 0.017839 -0.1735
v -0.021811 0.017148 -0.17452
v -0.026619 0.015431 -0.17268
v -0.032161 0.0089497 -0.15612
v -0.031373 -0.0058179 -0.17779
v -0.032837 0.0045637 -0.16319
v -0.032866 0.005243 -0.16286
v -0.032792 0.0073077 -0.16064
v -0.032846 0.005287 -0.16308
v -0.032856 0.005265 -0.16297
v -0.03282 0.005348 -0.16337
v -0.031418 0.008501 -0.17732
v -0.032853 0.00527 -0.163
v -0.032852 0.005273 -0.16301
v -0.032853 0.005271 -0.163
v -0.032853 0.00527 -0.163
v -0.032852 0.005272 -0.16301
v -0.027687 -0.010258 -0.14869
v -0.032305 -0.0077633 -0.15062
v -0.03372 -0.0077444 -0.11694
v -0.033475 -0.0055777 -0.15132
v -0.028446 -0.0099578 -0.10906
v -0.034756 -0.0027833 -0.13957
v -0.022363 -0.011165 -0.14946
v -0.0093831 -0.015137 -0.17626
v -0.0044195 -0.014549 -0.17545
v -0.0013254 -0.014082 -0.17956
v -1.3936e-05 -0.014332 -0.19103
v 0.0053645 -0.015579 -0.21209
v -0.009916 -0.015376 -0.20408
v -0.011696 -0.014122 -0.21522
v -0.017564 -0.011033 -0.2147
v -0.01371 -0.0093588 -0.22009
v -0.018689 -0.0073079 -0.21525
v -0.01247 -0.0073045 -0.22163
v -0.010719 -0.011187 -0.22162
v -0.0070548 -0.0073146 -0.22552
v -0.00053971 -0.0073037 -0.22736
v -0.001611 -0.009684 -0.2268
v 0.0036667 -0.012863 -0.22469
v 0.011277 -0.0072919 -0.22285
v 0.0047574 -0.0075556 -0.22682
v 0.009681 -0.010121 -0.22338
v 0.0086821 -0.013382 -0.22112
v 0.013214 -0.010814 -0.21805
v 0.0102 -0.014131 -0.21251
v 0.013953 -0.010589 -0.20984
v 0.012495 -0.011555 -0.20722
v 0.0080482 -0.014276 -0.20641
v 1.4536e-05 -0.015148 -0.22051
v 0.002549 -0.015726 -0.21738
v -0.0032936 -0.014982 -0.22031
v -0.0078883 -0.013265 -0.22143
v -0.0037518 -0.012245 -0.22469
v -0.0025015 -0.016041 -0.21545
v 0.0055995 -0.015407 -0.21716
v 0.0085169 -0.0092197 -0.19636
v 0.014705 -0.0073832 -0.2077
v 0.0072097 -0.0073057 -0.19312
v 0.0045895 -0.0091136 -0.1863
v 0.0033888 -0.011991 -0.18752
v -0.00056025 -0.011608 -0.16999
v 0.00015079 -0.0064345 -0.15843
v 0.00018062 -0.0048797 -0.14507
v 0.015441 -0.007386 -0.21297
v -0.029236 0.010211 -0.19111
v -0.025858 0.014867 -0.19782
v -0.02875 0.014718 -0.1863
v -0.028092 0.012751 -0.19491
v -0.027148 0.0112 -0.19917
v -0.02768 0.010196 -0.19731
v -0.021904 0.012585 -0.20993
v 0.0090383 0.011289 -0.1969
v 0.0043336 0.014368 -0.189
v 0.0057585 0.011502 -0.18931
v 0.0033387 0.011238 -0.18182
v -0.019446 0.011265 -0.21428
v 0.00057075 0.016959 -0.18771
v -0.0036809 0.016782 -0.17137
v -0.0076891 0.017959 -0.17352
v -0.020212 0.018381 -0.18555
v -0.012603 0.018715 -0.18222
v -0.024716 0.017441 -0.18627
v -0.030918 0.011323 -0.17915
v -0.010551 0.018841 -0.20615
v -0.017666 0.017381 -0.20651
v -0.00082872 0.018137 -0.1948
v 0.0073077 0.01725 -0.20269
v 0.012458 0.015432 -0.20799
v 0.013271 0.011295 -0.20494
v 0.014437 0.013438 -0.21089
v 0.012623 0.01516 -0.21784
v 0.0044987 0.018974 -0.21676
v 0.0091444 0.015803 -0.22222
v 0.0043057 0.015565 -0.22528
v -0.0026752 0.015358 -0.22537
v 0.0013269 0.011267 -0.22747
v 0.011413 0.011249 -0.22266
v 0.015079 0.011253 -0.2144
v -0.012353 0.011263 -0.22169
v -0.0074107 0.011248 -0.22528
v -0.013799 0.012845 -0.21996
v -0.0083074 0.016277 -0.22159
v -0.010526 0.014765 -0.2216
v -0.0053384 0.017634 -0.22114
v -0.00093214 0.018472 -0.22057
v -0.0028047 0.019036 -0.21764
v -0.0056419 0.019239 -0.21401
v -0.009413 0.017666 -0.21807
v -0.0042225 0.019109 -0.21652
v -0.005763 0.018196 -0.21238
v -0.0058232 0.019343 -0.21164
v -0.0046193 0.019425 -0.20864
v -0.0043099 0.018194 -0.20813
v -0.0021604 0.019388 -0.2068
v 0.0018952 0.018203 -0.2064
v 0.00024505 0.019312 -0.2063
v 0.0051529 0.018196 -0.20885
v 0.0044274 0.018957 -0.2079
v 0.002146 0.019166 -0.20663
v -0.0040268 0.018188 -0.21689
v 0.00015772 0.019014 -0.21849
v 0.0019455 0.018189 -0.21833
v 0.0023946 0.019012 -0.21809
v 0.0057669 0.018822 -0.21485
v 0.0095772 0.01774 -0.21304
v 0.0063241 0.018776 -0.21249
v 0.0062092 0.018244 -0.21229
v 0.0059918 0.018797 -0.2104
v -0.018665 0.014822 -0.21274
v -0.034285 0.0090565 -0.097236
v -0.037708 0.004049 -0.083939
v -0.037076 0.0061165 -0.081704
v -0.034595 0.0084489 -0.077702
v -0.038248 0.0051282 -0.065981
v -0.037007 -0.005368 -0.088369
v -0.038488 -0.0029665 -0.068313
v -0.035902 0.0055552 -0.11981
v -0.037299 -0.0028201 -0.093335
v -0.0039425 -0.01068 -0.060865
v 0.004585 -0.0040089 -0.10616
v 0.0021057 0.0051486 -0.12327
v 0.0033975 0.0074365 -0.10725
v 0.0017322 -0.0025782 -0.12746
v -0.020948 -0.010808 -0.039628
v 0.011384 0.017852 -0.046662
v 0.014983 0.020096 -0.045315
v 0.024015 0.019285 -0.041406
v 0.023622 0.017373 -0.041508
v 0.024993 0.015306 -0.039591
v 0.035374 0.018016 -0.031872
v 0.028112 0.013303 -0.034597
v 0.03331 0.01325 -0.026446
v 0.04034 0.018036 -0.025439
v 0.044373 0.017979 -0.017533
v 0.042514 0.020052 -0.022866
v 0.045477 0.020587 -0.016027
v 0.046479 0.019573 -0.013574
v 0.038465 0.013372 -0.00084036
v 0.044486 0.016907 -0.010121
v 0.046069 0.018328 -0.01214
v 0.037346 0.013 -0.014478
v 0.02867 0.020679 -0.038017
v 0.036806 0.020138 -0.031102
v 0.031427 0.018667 -0.036122
v 0.028877 0.02007 -0.03834
v 0.019667 0.014641 -0.044701
v 0.015188 0.01678 -0.046113
v -0.044259 0.018551 0.01901
v -0.040851 0.017596 0.024961
v -0.035418 0.014214 0.02685
v -0.036466 0.017392 0.030889
v -0.027402 0.0099335 0.025428
v -0.030619 0.015861 0.03451
v -0.035123 0.010941 0.019497
v -0.039365 0.011029 0.012652
v -0.042925 0.013809 0.012024
v -0.03796 0.0085674 0.0073458
v -0.045434 0.017296 0.013725
v -0.041706 0.015026 0.019274
v -0.045971 0.020301 0.01465
v -0.041794 0.020157 0.024599
f 25 258 219
f 335 540 536
f 110 65 264
f 358 357 458
f 344 358 458
f 344 537 358
f 344 263 537
f 264 189 110
f 189 111 110
f 65 78 264
f 264 263 344
f 264 78 263
f 533 335 536
f 533 536 532
f 25 37 259
f 25 259 74
f 258 212 219
f 25 74 258
f 82 54 100
f 100 101 588
f 82 100 588
f 54 201 100
f 99 194 88
f 88 186 99
f 186 98 99
f 194 55 88
f 18 243 22
f 243 240 22
f 54 82 55
f 82 88 55
f 6 227 12
f 116 76 75
f 75 193 116
f 193 117 116
f 116 207 76
f 227 225 12
f 50 75 76
f 76 57 50
f 50 105 192
f 57 45 105
f 105 104 192
f 50 57 105
f 26 222 31
f 26 35 222
f 459 343 444
f 157 158 188
f 159 161 32
f 550 269 273
f 409 550 295
f 353 295 294
f 414 552 553
f 440 392 553
f 403 440 554
f 404 403 554
f 426 400 554
f 452 450 400
f 431 407 456
f 423 344 458
f 189 147 176
f 38 36 89
f 1 151 89
f 150 172 213
f 125 87 185
f 164 132 173
f 5 9 153
f 9 178 153
f 178 155 153
f 9 180 178
f 9 13 180
f 128 41 40
f 162 214 163
f 162 40 214
f 162 128 40
f 13 127 180
f 127 126 180
f 49 131 40
f 13 14 130
f 14 49 130
f 174 133 49
f 14 175 49
f 14 15 175
f 588 175 134
f 16 139 137
f 134 137 170
f 216 39 169
f 170 216 169
f 170 215 216
f 19 140 138
f 19 143 140
f 19 181 143
f 186 88 167
f 167 142 186
f 140 141 144
f 166 170 169
f 137 215 170
f 19 138 139
f 16 19 139
f 588 134 135
f 16 137 175
f 137 136 175
f 15 16 175
f 175 174 49
f 588 173 175
f 173 174 175
f 132 174 173
f 213 43 42
f 42 156 213
f 5 152 151
f 151 149 191
f 1 5 151
f 151 191 89
f 191 190 89
f 36 1 89
f 89 52 38
f 267 218 38
f 267 554 218
f 424 432 271
f 432 551 271
f 265 145 148
f 271 276 270
f 271 261 275
f 271 275 276
f 554 267 426
f 266 267 38
f 52 92 38
f 92 266 38
f 92 146 266
f 189 264 147
f 422 423 458
f 456 345 431
f 402 439 440
f 437 435 393
f 411 340 462
f 413 415 495
f 415 416 495
f 420 494 281
f 418 420 281
f 303 304 308
f 304 494 308
f 337 421 463
f 388 352 455
f 429 394 434
f 391 301 302
f 427 496 428
f 427 302 496
f 427 391 302
f 307 394 302
f 435 307 393
f 435 395 307
f 443 436 438
f 443 438 442
f 441 443 442
f 398 399 499
f 499 498 431
f 498 497 431
f 497 299 431
f 405 406 299
f 399 498 499
f 402 397 439
f 441 396 499
f 426 452 400
f 426 453 452
f 426 425 453
f 400 404 554
f 403 402 440
f 440 553 554
f 440 437 392
f 437 393 392
f 392 390 553
f 390 448 447
f 390 389 448
f 390 417 553
f 390 447 417
f 447 446 417
f 417 414 553
f 414 419 552
f 419 415 552
f 415 412 552
f 412 460 353
f 412 461 460
f 412 353 552
f 353 294 552
f 353 309 295
f 309 444 295
f 309 445 444
f 444 409 295
f 550 273 295
f 24 273 268
f 273 269 268
f 268 160 183
f 19 23 181
f 23 268 183
f 23 24 268
f 23 183 181
f 158 79 188
f 408 410 493
f 217 282 283
f 217 555 282
f 555 217 272
f 87 83 85
f 233 228 230
f 173 103 83
f 173 102 103
f 103 84 83
f 185 87 86
f 86 204 122
f 86 85 204
f 121 184 185
f 33 193 184
f 33 117 193
f 120 118 10
f 120 10 33
f 121 120 184
f 120 33 184
f 185 86 122
f 83 84 85
f 91 92 90
f 93 108 190
f 79 342 341
f 249 247 252
f 247 20 252
f 296 327 284
f 329 298 297
f 329 544 543
f 377 375 482
f 482 544 377
f 329 543 298
f 373 318 343
f 343 459 373
f 459 374 373
f 318 341 343
f 548 547 329
f 297 296 329
f 296 548 329
f 296 328 548
f 296 284 328
f 341 56 79
f 95 94 188
f 79 95 188
f 79 248 95
f 79 56 248
f 113 3 4
f 4 254 113
f 103 102 101
f 103 101 100
f 102 173 588
f 588 101 102
f 187 188 96
f 186 187 98
f 187 96 98
f 188 94 96
f 109 211 66
f 110 66 65
f 110 109 66
f 111 189 90
f 189 91 90
f 93 192 104
f 93 104 108
f 196 20 21
f 196 195 97
f 95 248 250
f 250 196 95
f 196 97 95
f 195 194 97
f 194 99 97
f 196 239 195
f 196 21 239
f 197 201 241
f 241 34 197
f 100 201 202
f 198 103 100
f 200 232 103
f 232 231 103
f 198 200 103
f 198 199 200
f 199 29 200
f 100 202 198
f 121 122 204
f 204 203 28
f 204 118 121
f 118 119 121
f 11 27 71
f 116 115 71
f 205 207 116
f 116 71 205
f 115 11 71
f 8 46 7
f 113 114 106
f 106 206 224
f 105 45 206
f 106 105 206
f 113 106 224
f 224 223 113
f 223 2 3
f 223 3 113
f 114 107 106
f 109 90 211
f 72 107 114
f 72 108 107
f 60 59 534
f 61 535 534
f 59 61 534
f 316 315 244
f 315 314 244
f 314 274 244
f 347 346 363
f 363 364 441
f 347 363 441
f 346 473 363
f 289 279 278
f 362 466 345
f 345 456 362
f 456 361 362
f 466 312 345
f 278 528 289
f 333 526 334
f 334 521 333
f 346 347 312
f 347 345 312
f 501 292 336
f 486 340 337
f 368 367 462
f 340 368 462
f 340 305 368
f 340 313 305
f 379 509 338
f 481 510 323
f 508 507 323
f 510 508 323
f 463 380 379
f 337 463 379
f 379 338 337
f 337 338 486
f 486 313 340
f 336 502 501
f 336 290 502
f 378 285 477
f 518 512 330
f 352 350 351
f 365 513 349
f 434 365 350
f 365 349 350
f 385 352 310
f 310 475 384
f 310 351 475
f 382 454 455
f 286 463 454
f 286 380 463
f 382 285 286
f 382 476 285
f 382 286 454
f 385 382 455
f 385 310 384
f 385 455 352
f 350 349 351
f 518 332 512
f 518 330 331
f 355 309 354
f 355 445 309
f 356 371 460
f 366 365 364
f 366 364 363
f 365 443 441
f 441 364 365
f 365 434 443
f 457 458 359
f 456 457 361
f 457 359 361
f 458 357 359
f 372 490 319
f 373 319 318
f 373 372 319
f 374 459 354
f 459 355 354
f 356 462 367
f 356 367 371
f 468 542 464
f 468 467 360
f 358 537 539
f 539 468 358
f 468 360 358
f 465 466 362
f 465 362 360
f 467 465 360
f 468 527 467
f 468 464 527
f 470 485 277
f 277 287 470
f 287 469 470
f 366 363 474
f 474 517 515
f 474 471 517
f 474 519 471
f 474 515 366
f 515 472 366
f 472 513 366
f 513 365 366
f 363 522 474
f 363 473 522
f 476 381 383
f 476 383 475
f 383 384 475
f 332 476 475
f 475 488 332
f 477 321 324
f 379 378 506
f 478 509 379
f 379 506 478
f 378 324 506
f 378 477 324
f 480 479 293
f 375 376 369
f 369 503 505
f 368 483 503
f 368 305 483
f 369 368 503
f 375 369 505
f 505 484 375
f 484 291 482
f 484 482 375
f 376 370 369
f 372 354 490
f 354 491 490
f 325 370 376
f 325 371 370
f 556 557 558
f 556 558 559
f 562 556 559
f 562 568 563
f 562 563 570
f 567 564 562
f 556 562 565
f 562 559 568
f 562 570 566
f 562 566 569
f 567 562 569
f 564 571 562
f 576 577 578
f 577 579 578
f 583 582 581
f 771 583 581
f 584 583 771
f 584 771 585
f 884 584 585
f 884 585 573
f 585 173 586
f 565 586 173
f 587 565 173
f 587 173 588
f 588 589 587
f 589 588 590
f 590 591 589
f 560 591 590
f 560 590 883
f 590 787 592
f 590 592 883
f 561 560 883
f 595 594 596
f 568 595 563
f 595 596 598
f 595 598 563
f 596 597 598
f 786 603 875
f 786 875 599
f 786 784 610
f 610 784 600
f 600 601 610
f 603 604 605
f 606 605 604
f 607 606 604
f 1362 620 618
f 621 1362 618
f 620 622 618
f 621 618 615
f 618 617 615
f 441 624 625
f 626 627 625
f 625 624 626
f 630 626 635
f 635 631 630
f 630 627 626
f 633 632 657
f 657 634 633
f 626 633 634
f 626 634 635
f 638 822 640
f 822 639 640
f 640 642 641
f 638 640 641
f 639 647 640
f 644 646 647
f 648 649 650
f 812 648 650
f 650 651 812
f 650 652 651
f 652 653 651
f 656 653 655
f 656 651 653
f 661 656 655
f 661 655 657
f 636 660 659
f 639 636 659
f 639 659 644
f 632 661 657
f 621 664 1362
f 621 666 664
f 669 671 670
f 671 672 670
f 673 672 675
f 673 676 672
f 672 676 674
f 679 808 680
f 808 678 680
f 678 753 680
f 679 680 641
f 687 686 688
f 686 689 688
f 696 691 694
f 694 697 696
f 694 807 697
f 705 704 702
f 705 707 685
f 706 705 702
f 705 685 704
f 708 706 702
f 708 702 575
f 709 708 567
f 708 575 567
f 641 709 567
f 685 690 704
f 696 697 704
f 711 712 713
f 712 698 713
f 698 715 713
f 711 713 714
f 700 717 718
f 699 700 718
f 699 718 715
f 722 806 717
f 719 722 717
f 721 719 717
f 700 720 717
f 720 721 717
f 580 735 737
f 737 581 580
f 735 688 737
f 744 1161 743
f 743 621 615
f 615 744 743
f 743 745 621
f 750 742 749
f 757 750 749
f 757 749 682
f 742 751 754
f 754 748 742
f 750 751 742
f 756 754 755
f 756 748 754
f 756 755 673
f 675 756 673
f 753 752 680
f 684 683 749
f 749 683 682
f 744 761 758
f 744 758 958
f 615 614 744
f 614 611 744
f 744 958 1161
f 744 759 761
f 762 763 764
f 762 764 758
f 761 762 758
f 764 765 766
f 764 763 765
f 173 766 765
f 173 767 766
f 758 764 766
f 766 767 768
f 766 768 769
f 769 758 766
f 758 769 958
f 769 768 958
f 958 773 1161
f 173 765 588
f 775 774 782
f 775 776 778
f 782 776 775
f 775 778 777
f 774 783 782
f 783 600 782
f 783 602 600
f 602 601 600
f 597 785 598
f 777 779 787
f 787 775 777
f 749 689 684
f 790 789 734
f 791 790 734
f 791 734 730
f 792 791 730
f 792 730 729
f 793 792 729
f 793 729 733
f 794 793 733
f 794 733 732
f 795 794 732
f 795 732 728
f 736 795 728
f 720 695 805
f 720 805 721
f 801 802 724
f 798 800 726
f 798 726 725
f 800 799 726
f 798 725 731
f 735 692 688
f 581 582 580
f 698 699 715
f 702 711 714
f 702 714 575
f 692 687 688
f 686 684 689
f 682 681 757
f 672 810 811
f 811 670 672
f 814 811 809
f 814 648 811
f 648 812 811
f 672 674 810
f 809 813 814
f 642 679 641
f 819 817 818
f 815 817 819
f 1362 815 819
f 1362 819 620
f 820 819 818
f 819 820 620
f 992 820 821
f 820 992 620
f 820 818 821
f 443 821 818
f 443 818 441
f 639 644 647
f 638 641 567
f 638 628 822
f 628 629 822
f 569 824 638
f 628 638 823
f 569 638 567
f 569 825 824
f 828 827 826
f 829 827 828
f 828 623 829
f 823 829 443
f 625 823 443
f 829 623 443
f 830 828 826
f 830 826 882
f 882 831 830
f 831 848 830
f 849 833 834
f 838 849 834
f 835 834 836
f 835 838 834
f 838 837 849
f 838 839 837
f 842 841 843
f 841 870 843
f 843 845 842
f 845 846 842
f 845 847 846
f 848 846 847
f 847 830 848
f 855 854 871
f 871 856 855
f 856 858 855
f 855 857 854
f 861 860 862
f 863 864 862
f 864 861 862
f 863 862 865
f 865 866 566
f 866 835 566
f 869 840 868
f 841 840 869
f 869 870 841
f 872 871 869
f 873 872 869
f 873 869 868
f 872 856 871
f 868 867 873
f 570 865 566
f 570 863 865
f 864 874 861
f 605 878 877
f 605 877 603
f 876 878 605
f 876 605 879
f 879 853 876
f 853 880 876
f 853 857 880
f 853 854 857
f 875 881 599
f 882 832 831
f 835 836 566
f 625 628 823
f 625 443 441
f 614 613 611
f 786 610 603
f 586 572 585
f 585 572 573
f 573 574 884
f 587 556 565
f 889 888 886
f 906 908 907
f 889 907 908
f 743 1161 769
f 743 769 956
f 621 743 956
f 958 768 769
f 769 763 956
f 1161 773 769
f 773 958 769
f 769 1170 1171
f 763 983 984
f 984 985 986
f 984 986 956
f 763 984 956
f 1136 992 621
f 1136 1138 1148
f 1136 1148 992
f 956 1136 621
f 1148 997 992
f 992 996 994
f 993 994 996
f 1089 1134 1094
f 1088 1089 1094
f 1090 1094 1134
f 1195 1222 1194
f 1205 1195 1206
f 1205 1206 1209
f 1210 1208 1206
f 1210 1211 1205
f 1208 1210 1205
f 1222 1337 1194
f 1233 900 901
f 1233 901 1258
f 1234 1233 1258
f 1236 1234 1258
f 1264 1237 1236
f 1257 1264 1236
f 1236 1258 1257
f 1264 1240 1237
f 1240 1241 1237
f 901 904 1258
f 1276 1289 1272
f 1272 1275 1276
f 1298 1276 1297
f 1298 1289 1276
f 1297 1276 1296
f 1300 1276 1299
f 1296 1276 1300
f 1313 1315 1317
f 1317 1320 1313
f 1320 1317 1324
f 1320 1324 1322
f 1317 1327 1324
f 1313 1320 1310
f 1338 1178 1331
f 1178 1338 1336
f 1337 1338 1331
f 1337 1222 1338
f 1181 1149 1182
f 1180 1181 1182
f 1180 1182 1178
f 1178 1336 1180
f 994 1357 817
f 994 993 1357
f 994 817 819
f 819 992 994
f 992 819 621
f 819 817 1356
f 819 1356 1362
f 819 1362 621
f 1356 815 1362
f 1362 664 621
f 758 1171 1380
f 763 758 1380
f 763 1380 983
f 758 769 1171
f 887 885 909
f 906 887 909
f 887 906 907
f 887 907 886
f 889 886 907
f 219 1 36
f 4 2 26
f 4 3 2
f 26 5 1
f 7 5 220
f 220 8 7
f 7 6 5
f 6 12 9
f 12 11 10
f 12 27 11
f 118 13 9
f 14 13 28
f 15 14 233
f 19 16 17
f 17 34 18
f 17 197 34
f 19 18 22
f 247 24 23
f 20 247 23
f 22 21 20
f 20 23 22
f 23 19 22
f 18 19 17
f 238 17 16
f 16 235 238
f 15 199 235
f 235 16 15
f 15 29 199
f 233 29 15
f 228 14 28
f 228 233 14
f 204 28 13
f 118 204 13
f 9 10 118
f 10 9 12
f 6 9 5
f 5 31 220
f 26 31 5
f 26 1 4
f 1 219 4
f 219 36 25
f 65 66 62
f 64 63 70
f 64 70 67
f 70 69 67
f 69 68 67
f 67 258 64
f 258 257 64
f 61 59 58
f 259 59 60
f 541 335 542
f 542 468 541
f 541 540 335
f 538 536 540
f 541 468 540
f 468 538 540
f 468 539 538
f 538 539 537
f 263 489 537
f 538 537 536
f 536 537 489
f 532 535 533
f 532 534 535
f 489 532 536
f 263 534 489
f 532 489 534
f 60 263 78
f 60 534 263
f 259 58 59
f 58 256 61
f 256 58 259
f 259 37 256
f 74 259 60
f 60 257 74
f 65 60 78
f 257 60 65
f 64 257 65
f 62 63 64
f 64 65 62
f 62 66 211
f 69 70 63
f 63 68 69
f 63 67 68
f 63 258 67
f 62 258 63
f 211 258 62
f 211 212 258
f 257 258 74
f 81 53 54
f 235 199 198
f 236 235 198
f 202 236 198
f 202 201 236
f 236 201 237
f 236 237 238
f 236 238 235
f 17 238 237
f 17 201 197
f 17 237 201
f 53 241 201
f 239 21 22
f 22 240 239
f 242 194 195
f 241 194 242
f 55 194 241
f 240 195 239
f 195 240 242
f 240 243 242
f 243 241 242
f 243 18 241
f 30 18 34
f 30 34 241
f 53 81 241
f 201 54 53
f 81 54 55
f 81 55 241
f 18 30 241
f 207 46 76
f 207 205 226
f 205 71 225
f 27 12 225
f 225 71 27
f 225 227 226
f 225 226 205
f 207 226 227
f 6 46 207
f 227 6 207
f 6 7 46
f 46 77 76
f 57 76 77
f 57 221 45
f 221 57 77
f 46 8 77
f 77 8 221
f 220 221 8
f 31 221 220
f 223 26 2
f 223 35 26
f 223 224 35
f 206 35 224
f 206 222 35
f 45 221 222
f 31 222 221
f 222 206 45
f 342 79 158
f 157 32 158
f 32 157 159
f 272 32 161
f 272 161 269
f 458 457 453
f 270 264 344
f 264 270 147
f 93 190 191
f 191 192 93
f 213 51 150
f 51 192 150
f 192 149 150
f 191 149 192
f 51 50 192
f 75 50 51
f 83 87 164
f 155 178 177
f 178 180 179
f 40 41 49
f 41 130 49
f 128 162 124
f 124 125 123
f 128 124 123
f 123 125 126
f 127 123 126
f 13 129 127
f 128 123 127
f 127 171 128
f 127 129 171
f 128 171 41
f 41 171 129
f 129 130 41
f 13 130 129
f 164 214 132
f 214 131 132
f 214 40 131
f 132 131 133
f 131 49 133
f 144 169 39
f 137 216 215
f 216 137 139
f 139 138 216
f 138 39 216
f 138 140 39
f 140 144 39
f 141 140 143
f 181 187 186
f 186 182 181
f 143 181 182
f 88 168 167
f 135 88 82
f 170 135 134
f 135 168 88
f 142 182 186
f 143 182 142
f 142 141 143
f 167 144 141
f 141 142 167
f 167 169 144
f 136 137 134
f 82 588 135
f 136 134 175
f 174 132 133
f 164 173 83
f 87 165 164
f 125 124 87
f 185 180 125
f 125 180 126
f 180 185 184
f 184 179 180
f 184 178 179
f 178 184 193
f 193 177 178
f 193 75 156
f 156 177 193
f 177 154 155
f 154 177 156
f 44 156 42
f 43 213 172
f 172 150 152
f 152 43 172
f 43 152 47
f 47 42 43
f 48 154 44
f 48 44 42
f 156 44 154
f 154 153 155
f 48 153 154
f 5 153 47
f 47 153 48
f 42 47 48
f 5 47 152
f 150 151 152
f 151 150 149
f 551 432 260
f 426 432 425
f 432 424 425
f 422 425 424
f 422 271 423
f 271 422 424
f 551 261 271
f 262 266 265
f 265 148 276
f 148 270 276
f 265 276 275
f 275 260 262
f 262 265 275
f 146 265 266
f 176 145 146
f 146 145 265
f 148 145 176
f 261 551 260
f 275 261 260
f 432 267 260
f 432 426 267
f 260 267 262
f 267 266 262
f 176 92 189
f 92 91 189
f 146 92 176
f 147 148 176
f 423 270 344
f 425 422 453
f 458 453 422
f 457 452 453
f 450 452 451
f 451 452 457
f 451 457 456
f 499 345 347
f 429 496 394
f 420 446 421
f 419 414 304
f 414 281 304
f 414 418 281
f 419 303 416
f 412 411 462
f 308 337 340
f 337 308 421
f 411 412 308
f 411 308 340
f 461 462 356
f 461 356 460
f 462 461 412
f 415 419 416
f 419 304 303
f 281 494 304
f 495 412 413
f 495 308 412
f 416 303 308
f 416 308 495
f 420 421 494
f 446 463 421
f 448 455 454
f 454 447 448
f 454 449 447
f 449 454 463
f 446 449 463
f 446 447 449
f 350 352 429
f 435 394 395
f 436 394 435
f 434 436 443
f 434 394 436
f 429 434 350
f 352 430 429
f 386 387 352
f 391 427 387
f 391 387 386
f 386 352 388
f 455 389 388
f 455 448 389
f 386 388 389
f 390 386 389
f 391 386 390
f 390 433 391
f 390 392 433
f 391 433 301
f 301 433 392
f 392 393 301
f 393 302 301
f 302 393 307
f 496 302 394
f 395 394 307
f 440 438 437
f 435 437 436
f 437 438 436
f 440 442 438
f 439 441 442
f 439 442 440
f 402 401 399
f 300 299 497
f 403 404 497
f 404 405 300
f 405 299 300
f 406 405 400
f 404 400 405
f 498 399 401
f 401 497 498
f 497 401 403
f 404 300 497
f 431 299 406
f 396 398 499
f 397 398 396
f 398 397 399
f 397 402 399
f 396 441 439
f 397 396 439
f 347 441 499
f 499 431 345
f 407 431 406
f 450 407 406
f 406 400 450
f 407 451 456
f 450 451 407
f 402 403 401
f 417 420 418
f 417 446 420
f 414 417 418
f 415 413 412
f 445 355 459
f 268 269 161
f 157 160 159
f 161 159 268
f 159 160 268
f 181 183 187
f 188 187 183
f 188 183 160
f 188 160 157
f 342 158 343
f 444 445 459
f 444 343 410
f 410 409 444
f 410 343 493
f 493 283 282
f 550 408 555
f 408 282 555
f 408 493 282
f 550 409 408
f 409 410 408
f 555 269 550
f 269 555 272
f 217 32 272
f 10 11 33
f 33 11 115
f 25 36 38
f 38 37 25
f 218 37 38
f 228 28 208
f 28 203 208
f 204 85 203
f 29 233 200
f 234 200 233
f 234 233 232
f 234 232 200
f 232 233 230
f 230 231 232
f 230 229 231
f 84 103 231
f 84 231 229
f 119 118 120
f 119 120 121
f 185 122 121
f 87 85 86
f 85 208 203
f 85 84 208
f 208 230 228
f 230 208 229
f 84 229 208
f 75 51 156
f 51 213 156
f 90 92 52
f 109 111 90
f 109 110 111
f 52 89 112
f 89 210 112
f 89 108 210
f 104 106 107
f 104 105 106
f 108 104 107
f 89 190 108
f 112 90 52
f 80 244 209
f 274 245 244
f 244 245 246
f 246 245 247
f 247 249 246
f 253 252 20
f 20 196 253
f 196 251 253
f 253 251 252
f 249 252 251
f 250 251 196
f 251 250 249
f 249 250 248
f 249 248 209
f 249 209 246
f 246 209 244
f 316 244 80
f 546 548 328
f 544 482 543
f 545 325 326
f 544 325 545
f 545 326 377
f 544 545 377
f 318 319 317
f 320 548 317
f 343 341 342
f 549 546 284
f 546 549 548
f 316 548 549
f 318 316 341
f 548 316 318
f 548 318 317
f 320 319 490
f 317 319 320
f 320 490 547
f 547 490 329
f 320 547 548
f 546 328 284
f 284 327 314
f 315 284 314
f 284 315 549
f 315 316 549
f 316 80 341
f 80 56 341
f 248 56 80
f 80 209 248
f 255 73 254
f 254 4 255
f 255 72 73
f 4 72 255
f 96 94 95
f 95 97 96
f 97 98 96
f 97 99 98
f 113 254 73
f 72 114 73
f 114 113 73
f 115 116 33
f 116 117 33
f 163 164 165
f 163 214 164
f 165 162 163
f 165 124 162
f 165 87 124
f 135 170 166
f 135 166 168
f 166 169 168
f 169 167 168
f 210 4 219
f 211 90 212
f 90 112 212
f 108 72 210
f 72 4 210
f 219 112 210
f 212 112 219
f 270 423 271
f 270 148 147
f 158 32 217
f 158 283 343
f 283 493 343
f 158 217 283
f 473 524 523
f 525 485 470
f 470 469 526
f 525 470 526
f 279 469 287
f 531 279 287
f 277 531 287
f 466 277 312
f 466 530 277
f 466 465 529
f 529 467 528
f 467 527 288
f 288 527 464
f 464 528 288
f 464 289 528
f 288 528 467
f 467 529 465
f 466 529 530
f 530 529 278
f 529 528 278
f 278 277 530
f 531 277 278
f 531 278 279
f 311 312 277
f 311 277 485
f 524 485 525
f 474 521 520
f 334 519 520
f 519 474 520
f 520 521 334
f 524 526 333
f 524 525 526
f 521 522 333
f 522 521 474
f 522 473 523
f 524 333 523
f 333 522 523
f 485 346 311
f 311 346 312
f 524 473 485
f 346 485 473
f 484 505 504
f 500 293 292
f 293 479 292
f 500 280 293
f 339 480 293
f 487 486 338
f 481 479 480
f 511 481 480
f 511 480 487
f 506 324 322
f 322 324 321
f 321 507 322
f 321 323 507
f 507 506 322
f 506 507 478
f 507 508 478
f 509 478 508
f 510 509 508
f 480 486 487
f 510 481 511
f 487 510 511
f 487 509 510
f 509 487 338
f 313 486 339
f 313 339 305
f 339 486 480
f 339 293 305
f 280 305 293
f 500 501 280
f 500 292 501
f 291 484 504
f 504 290 291
f 290 336 291
f 504 505 290
f 503 290 505
f 503 502 290
f 483 280 502
f 501 502 280
f 502 503 483
f 280 483 305
f 285 378 286
f 297 298 295
f 296 297 295
f 295 273 296
f 298 294 295
f 351 306 488
f 475 351 488
f 348 349 513
f 476 382 381
f 381 382 383
f 382 385 383
f 385 384 383
f 352 351 310
f 351 349 348
f 351 348 306
f 488 306 512
f 332 488 512
f 517 471 518
f 518 516 517
f 517 516 515
f 331 515 516
f 518 331 516
f 330 515 331
f 515 330 472
f 514 472 330
f 513 472 514
f 512 514 330
f 514 512 513
f 306 513 512
f 348 513 306
f 308 494 421
f 372 374 354
f 372 373 374
f 309 353 491
f 353 492 491
f 353 371 492
f 367 369 370
f 367 368 369
f 371 367 370
f 353 460 371
f 491 354 309
f 359 357 358
f 358 360 359
f 360 361 359
f 360 362 361
f 375 377 326
f 325 376 326
f 376 375 326
f 378 379 286
f 379 380 286
f 428 429 430
f 428 496 429
f 430 427 428
f 430 387 427
f 430 352 387
f 329 490 491
f 329 491 544
f 371 325 492
f 325 544 492
f 491 492 544
f 556 587 557
f 560 558 557
f 560 561 558
f 562 571 565
f 565 571 572
f 571 573 572
f 564 574 573
f 578 574 575
f 576 578 575
f 574 567 575
f 716 576 575
f 583 584 579
f 579 580 583
f 580 582 583
f 572 586 565
f 591 560 557
f 591 557 587
f 587 589 591
f 594 592 593
f 883 594 595
f 883 595 568
f 599 563 598
f 602 610 601
f 604 603 610
f 604 610 607
f 612 607 610
f 608 607 612
f 606 607 608
f 609 608 612
f 611 610 744
f 612 611 613
f 852 614 615
f 616 615 617
f 619 618 622
f 622 620 821
f 992 821 620
f 622 821 828
f 821 443 828
f 623 828 443
f 441 626 624
f 628 625 627
f 627 629 628
f 635 634 636
f 660 636 634
f 636 637 635
f 637 639 822
f 643 642 640
f 643 640 647
f 654 644 645
f 654 646 644
f 646 654 648
f 646 814 647
f 648 814 646
f 652 650 649
f 653 652 645
f 652 654 645
f 654 652 649
f 645 655 653
f 657 655 658
f 644 659 658
f 644 658 655
f 658 659 657
f 659 660 634
f 634 657 659
f 644 655 645
f 633 661 632
f 663 662 661
f 665 662 1362
f 665 1362 664
f 665 664 666
f 668 669 667
f 669 666 667
f 670 812 669
f 669 812 666
f 671 669 668
f 668 672 671
f 668 675 672
f 673 678 676
f 676 678 677
f 678 808 677
f 813 808 679
f 757 641 680
f 757 681 709
f 707 681 682
f 707 682 683
f 683 684 685
f 685 707 683
f 690 685 686
f 686 685 684
f 686 687 696
f 690 686 696
f 687 691 696
f 691 692 693
f 691 687 692
f 693 694 691
f 695 694 693
f 695 807 694
f 701 699 698
f 701 700 699
f 704 697 701
f 710 702 704
f 703 710 704
f 681 705 706
f 681 707 705
f 681 706 708
f 681 708 709
f 709 641 757
f 696 704 690
f 703 704 701
f 698 703 701
f 698 712 703
f 710 703 712
f 710 711 702
f 712 711 710
f 716 714 713
f 716 713 715
f 716 806 577
f 716 717 806
f 718 717 716
f 716 715 718
f 722 719 723
f 579 722 723
f 723 580 579
f 735 580 723
f 724 723 719
f 723 724 802
f 723 802 803
f 723 803 731
f 723 725 726
f 723 799 727
f 723 736 728
f 723 728 732
f 723 732 733
f 723 733 729
f 723 729 730
f 723 730 734
f 723 734 789
f 723 789 735
f 723 731 725
f 723 726 799
f 723 727 736
f 737 771 581
f 737 688 738
f 739 738 688
f 739 689 749
f 739 688 689
f 740 739 749
f 739 740 741
f 738 739 741
f 741 740 1161
f 740 743 1161
f 746 745 743
f 747 756 746
f 756 745 746
f 748 756 747
f 742 748 747
f 747 746 742
f 740 749 742
f 751 750 753
f 750 752 753
f 754 753 755
f 753 754 751
f 673 755 678
f 680 752 750
f 757 680 750
f 753 678 755
f 668 756 675
f 756 668 745
f 668 667 745
f 740 746 743
f 746 740 742
f 760 761 759
f 762 765 763
f 761 765 762
f 958 767 770
f 958 768 767
f 770 767 771
f 770 771 737
f 772 770 737
f 772 737 738
f 770 772 958
f 772 773 958
f 772 738 773
f 738 741 773
f 741 1161 773
f 771 767 585
f 585 767 173
f 588 765 590
f 787 590 765
f 787 765 761
f 760 787 761
f 760 774 787
f 787 774 775
f 779 777 778
f 779 778 781
f 780 781 778
f 778 776 780
f 780 596 781
f 776 782 780
f 782 596 780
f 782 600 597
f 782 597 596
f 759 783 774
f 744 602 783
f 759 744 783
f 600 784 597
f 784 785 597
f 598 785 786
f 785 784 786
f 781 593 779
f 781 594 593
f 596 594 781
f 592 787 593
f 787 779 593
f 760 759 774
f 621 745 667
f 666 621 667
f 789 788 735
f 789 790 788
f 788 790 791
f 788 791 792
f 788 792 793
f 788 793 794
f 788 794 795
f 788 795 736
f 736 727 796
f 736 796 788
f 788 796 797
f 796 727 799
f 796 731 803
f 796 798 731
f 796 799 800
f 796 800 798
f 797 796 804
f 802 801 796
f 796 801 804
f 803 802 796
f 719 804 801
f 719 801 724
f 719 721 804
f 804 721 805
f 805 695 797
f 695 693 797
f 797 804 805
f 735 797 693
f 735 788 797
f 692 735 693
f 579 577 722
f 806 722 577
f 701 720 700
f 720 807 695
f 720 701 807
f 701 697 807
f 577 576 716
f 575 714 716
f 642 813 679
f 813 809 808
f 811 810 809
f 808 809 810
f 812 670 811
f 810 674 676
f 677 808 810
f 810 676 677
f 814 813 643
f 643 813 642
f 814 643 647
f 812 656 665
f 812 665 666
f 661 662 656
f 662 665 656
f 662 663 815
f 662 815 1362
f 663 816 815
f 816 817 815
f 817 441 818
f 626 817 816
f 441 817 626
f 633 626 816
f 633 816 661
f 663 661 816
f 656 812 651
f 649 648 654
f 637 636 639
f 631 822 629
f 631 629 630
f 635 637 631
f 822 631 637
f 638 824 823
f 826 824 825
f 827 829 823
f 832 833 831
f 832 834 833
f 832 836 834
f 867 838 835
f 837 839 868
f 837 868 840
f 840 841 837
f 842 837 841
f 849 837 842
f 844 843 870
f 848 831 833
f 848 833 849
f 842 846 849
f 846 848 849
f 845 830 847
f 830 622 828
f 830 845 622
f 619 622 845
f 619 845 843
f 618 843 844
f 619 843 618
f 617 618 844
f 617 844 850
f 850 871 851
f 616 617 850
f 616 850 851
f 851 871 852
f 615 616 851
f 852 853 609
f 854 853 852
f 871 854 852
f 614 852 609
f 857 855 858
f 858 856 859
f 859 857 858
f 859 856 860
f 859 860 861
f 859 861 857
f 873 865 862
f 873 867 866
f 866 865 873
f 867 835 866
f 844 870 869
f 850 869 871
f 869 850 844
f 862 860 872
f 873 862 872
f 872 860 856
f 867 839 838
f 839 867 868
f 881 864 863
f 874 864 875
f 874 875 877
f 603 877 875
f 877 878 874
f 876 874 878
f 876 880 861
f 880 857 861
f 608 879 605
f 608 853 879
f 608 605 606
f 881 875 864
f 570 881 863
f 599 881 570
f 874 876 861
f 853 608 609
f 615 851 852
f 836 832 566
f 882 569 832
f 882 825 569
f 825 882 826
f 569 566 832
f 823 824 827
f 824 826 827
f 627 630 629
f 613 614 609
f 610 602 744
f 598 786 599
f 599 570 563
f 883 568 561
f 594 883 592
f 584 884 579
f 884 578 579
f 578 884 574
f 574 564 567
f 571 564 573
f 568 559 561
f 559 558 561
f 887 886 888
f 887 888 890
f 891 1204 890
f 1204 891 893
f 892 893 891
f 892 1218 893
f 894 1218 892
f 896 894 895
f 895 894 892
f 1229 896 895
f 895 892 897
f 897 892 891
f 898 897 891
f 895 897 898
f 898 891 899
f 1230 895 898
f 901 899 891
f 901 900 899
f 891 890 901
f 890 903 901
f 888 903 890
f 902 888 889
f 902 903 888
f 903 902 904
f 904 902 905
f 889 906 905
f 902 889 905
f 889 908 906
f 909 910 916
f 909 912 911
f 916 912 909
f 1278 914 913
f 916 913 914
f 1278 932 914
f 914 915 916
f 915 912 916
f 918 912 915
f 1263 925 920
f 919 920 925
f 925 921 919
f 921 924 923
f 925 926 924
f 927 926 925
f 928 1341 917
f 914 928 917
f 914 929 928
f 914 932 929
f 934 930 931
f 929 931 930
f 929 932 931
f 933 934 931
f 933 1192 934
f 1197 935 933
f 935 1192 933
f 1342 1023 937
f 941 942 1192
f 941 1173 942
f 943 942 1172
f 942 946 940
f 946 942 944
f 945 946 944
f 946 945 940
f 945 947 940
f 945 948 947
f 949 945 944
f 945 949 948
f 948 949 944
f 947 948 944
f 939 947 944
f 944 943 950
f 943 951 950
f 952 953 1158
f 1158 953 951
f 952 954 953
f 954 955 953
f 621 955 954
f 743 621 957
f 769 768 1170
f 960 959 1169
f 1169 959 1171
f 961 959 960
f 960 962 961
f 1031 962 960
f 962 963 1377
f 961 962 1377
f 962 964 963
f 1034 964 962
f 964 965 963
f 964 966 965
f 965 966 1111
f 1111 967 965
f 965 968 963
f 1377 963 968
f 967 969 968
f 968 965 967
f 969 967 975
f 970 975 967
f 1111 970 967
f 970 973 975
f 970 971 973
f 973 971 972
f 974 973 972
f 973 976 975
f 1372 975 976
f 1372 976 977
f 1372 977 978
f 979 978 1131
f 981 979 980
f 984 981 980
f 982 981 984
f 1381 982 983
f 987 986 985
f 987 985 980
f 987 980 988
f 987 988 986
f 986 988 989
f 988 1132 989
f 991 986 989
f 991 989 990
f 991 990 1135
f 1135 1136 991
f 991 1136 956
f 996 995 993
f 996 999 995
f 999 996 1145
f 1145 996 997
f 999 1145 998
f 999 998 995
f 998 1000 1001
f 995 998 1001
f 1001 1000 1002
f 1000 1141 1002
f 1003 1002 1141
f 1002 1003 1004
f 1004 1003 1005
f 1006 1004 1005
f 1008 1358 1006
f 1007 1008 1006
f 1008 1361 1358
f 1009 1008 1007
f 1009 1010 1008
f 1010 1352 1008
f 1011 1010 1009
f 1012 1351 1010
f 1010 1351 1352
f 1011 1012 1010
f 1011 1014 1012
f 1016 1366 1014
f 1013 1016 1014
f 1014 1366 1012
f 1013 1015 1016
f 1013 1018 1015
f 1017 1016 1015
f 1018 1017 1015
f 951 1018 950
f 1019 950 1018
f 1070 1018 1013
f 1070 1019 1018
f 950 1019 1020
f 950 1020 944
f 1020 1021 938
f 1020 1019 1021
f 1024 1021 1022
f 1021 1024 938
f 1021 1019 1070
f 1024 1022 1023
f 1069 937 1023
f 1342 1024 1023
f 1069 1340 937
f 1340 1069 1025
f 1340 1025 1026
f 1339 1048 1188
f 1344 1039 1028
f 1030 1033 1183
f 1033 962 1031
f 1031 1032 1033
f 1033 1034 962
f 1034 1033 1037
f 1035 1037 1036
f 1035 964 1037
f 964 1034 1037
f 1030 1037 1033
f 1036 1037 1030
f 1029 1036 1030
f 1038 1036 1029
f 1039 1038 1028
f 1028 1038 1029
f 1048 1040 1039
f 1040 1041 1039
f 1041 1042 1038
f 1038 1042 1036
f 1041 1043 1042
f 1043 1109 1042
f 1040 1043 1041
f 1040 1045 1043
f 1044 1045 1040
f 1046 1045 1044
f 1044 1040 1048
f 1047 1046 1044
f 1339 1027 1047
f 1339 1047 1048
f 1344 1048 1039
f 1047 1044 1048
f 1050 1051 1049
f 1050 1058 1051
f 1026 1052 1050
f 1052 1058 1050
f 1051 1053 1049
f 1049 1053 1046
f 1053 1113 1046
f 1054 1115 1053
f 1053 1115 1113
f 1130 1117 1054
f 1054 1055 1130
f 1128 1130 1055
f 1055 1056 1128
f 1062 1056 1057
f 1057 1056 1052
f 1052 1055 1058
f 1056 1055 1052
f 1055 1054 1058
f 1058 1054 1051
f 1054 1053 1051
f 1059 1057 1052
f 1065 1060 1059
f 1062 1057 1061
f 1064 1128 1063
f 1063 1006 1064
f 1062 1061 1063
f 1061 1007 1063
f 1007 1061 1066
f 1066 1061 1057
f 1060 1065 1066
f 1065 1067 1066
f 1067 1011 1009
f 1066 1067 1009
f 1067 1014 1011
f 1071 1025 1068
f 1069 1068 1025
f 1023 1022 1069
f 1068 1022 1067
f 1022 1068 1069
f 1070 1067 1022
f 1022 1021 1070
f 1067 1070 1013
f 1050 1049 1027
f 1025 1071 1026
f 1071 1067 1065
f 1065 1059 1071
f 1071 1059 1052
f 1071 1052 1026
f 1068 1067 1071
f 1067 1013 1014
f 1066 1057 1060
f 1066 1009 1007
f 1063 1007 1006
f 1005 1064 1006
f 1005 1072 1064
f 1128 1064 1072
f 1005 1073 1072
f 1075 1072 1073
f 1074 1075 1073
f 1121 1075 1074
f 1074 1073 1076
f 1074 1076 1077
f 1078 1074 1077
f 1078 1077 1079
f 1078 1079 1080
f 1081 1078 1080
f 1080 1101 1081
f 1098 1101 1080
f 1082 1098 1080
f 1085 1080 1083
f 1082 1080 1085
f 1083 1080 1079
f 1085 1083 1084
f 1084 1083 1079
f 1086 1087 1085
f 1087 1095 1085
f 1086 1089 1087
f 1088 1096 1089
f 1134 1089 990
f 1093 1134 1091
f 1091 1092 1093
f 1134 1093 1090
f 1093 1092 1090
f 1094 1090 1092
f 1133 1094 1095
f 1094 1092 1095
f 1133 1095 1096
f 1096 1088 1133
f 1095 1087 1096
f 1095 1092 1091
f 1091 1082 1095
f 1082 1131 1097
f 1131 1082 1091
f 1098 1082 1097
f 977 1098 1097
f 977 1097 1131
f 977 976 1098
f 974 1098 976
f 974 1100 1098
f 1099 1101 1100
f 1098 1100 1101
f 1099 1102 1101
f 1102 1081 1101
f 1105 1125 1103
f 1102 1103 1125
f 1104 1124 1105
f 1105 1103 1099
f 1104 1105 1106
f 1106 1105 1099
f 1102 1099 1103
f 974 972 1099
f 1099 972 1106
f 972 971 1106
f 1108 1104 1106
f 1108 1106 1107
f 1107 1106 971
f 1109 1104 1108
f 1042 1109 1108
f 1112 1042 1110
f 1042 1108 1110
f 1110 1107 1111
f 1108 1107 1110
f 1110 1111 966
f 1035 966 964
f 1035 1110 966
f 1035 1112 1110
f 1107 971 1111
f 970 1111 971
f 1036 1112 1035
f 1112 1036 1042
f 1109 1114 1104
f 1109 1043 1045
f 1114 1109 1045
f 1114 1045 1113
f 1129 1114 1113
f 1129 1113 1115
f 1129 1116 1118
f 1116 1117 1118
f 1118 1120 1119
f 1119 1120 1121
f 1119 1121 1122
f 1122 1121 1074
f 1122 1074 1078
f 1123 1122 1125
f 1123 1119 1122
f 1118 1119 1123
f 1129 1118 1124
f 1124 1118 1123
f 1114 1129 1124
f 1105 1123 1125
f 1124 1123 1105
f 1102 1125 1081
f 1081 1125 1122
f 1122 1078 1081
f 1120 1075 1121
f 1118 1126 1120
f 1126 1075 1120
f 1126 1127 1075
f 1127 1128 1072
f 1075 1127 1072
f 1063 1128 1056
f 1130 1127 1126
f 1128 1127 1130
f 1117 1130 1126
f 1117 1116 1054
f 1116 1115 1054
f 1116 1129 1115
f 1117 1126 1118
f 1046 1113 1045
f 1114 1124 1104
f 974 1099 1100
f 1131 978 977
f 979 1131 1132
f 988 979 1132
f 1132 1131 1091
f 1132 1091 1134
f 1132 1134 989
f 1085 1095 1082
f 1088 1094 1133
f 989 1134 990
f 1135 990 1089
f 1137 1136 1135
f 1137 1138 1136
f 1137 1135 1139
f 1139 1135 1086
f 1086 1085 1084
f 1140 1141 1084
f 1141 1140 1076
f 1140 1077 1076
f 1084 1079 1140
f 1140 1079 1077
f 1141 1076 1003
f 1003 1076 1005
f 1142 1141 1000
f 1147 1143 1142
f 1144 1143 1147
f 1146 1145 1144
f 1144 1145 1148
f 1145 997 1148
f 1145 1146 998
f 998 1142 1000
f 998 1147 1142
f 998 1146 1147
f 1144 1147 1146
f 1144 1148 1138
f 1138 1139 1143
f 1144 1138 1143
f 1143 1139 1142
f 1142 1086 1084
f 1139 1086 1142
f 1142 1084 1141
f 1138 1137 1139
f 1135 1089 1086
f 1087 1089 1096
f 1073 1005 1076
f 1062 1063 1056
f 1060 1057 1059
f 1049 1046 1047
f 1027 1049 1047
f 1039 1041 1038
f 1031 1149 1032
f 1032 1149 1181
f 1149 1031 1168
f 1182 1149 1151
f 1149 1168 1150
f 1151 1149 1150
f 1151 1150 1153
f 1152 1165 1150
f 1153 1150 1165
f 1165 1164 1153
f 1164 1154 1153
f 1155 1153 1154
f 1153 1155 1151
f 1182 1151 1177
f 1177 1151 1155
f 1156 1172 1176
f 1176 1157 1156
f 1159 951 1156
f 943 1156 951
f 1158 951 1159
f 1160 952 1158
f 1161 743 1162
f 1161 1162 1164
f 1163 1164 1162
f 1164 1166 1161
f 1164 1165 1166
f 1152 1166 1165
f 773 1166 1152
f 773 1161 1166
f 958 773 1152
f 958 1152 1167
f 1167 1170 958
f 1170 1167 1168
f 1170 1168 1169
f 1171 1170 1169
f 960 1169 1168
f 1167 1150 1168
f 1167 1152 1150
f 1164 1163 1154
f 1154 1163 1159
f 1154 1159 1157
f 1159 1156 1157
f 1163 1158 1159
f 1160 1158 1163
f 1155 1154 1157
f 1162 1160 1163
f 743 957 1162
f 1160 1162 957
f 952 1160 957
f 1176 1172 1174
f 1174 1172 1173
f 1174 1175 1176
f 1155 1176 1177
f 1176 1155 1157
f 1175 1177 1176
f 1177 1175 1334
f 1334 1178 1177
f 1179 1180 1336
f 1183 1033 1181
f 1181 1033 1032
f 1184 1029 1030
f 1028 1029 1184
f 1185 1028 1184
f 1184 1030 1186
f 1186 1179 1335
f 1193 1330 935
f 1194 1337 1196
f 1194 1196 1195
f 1195 1196 1203
f 1203 1196 1193
f 1193 935 1197
f 1198 1193 1197
f 1203 1193 1198
f 1197 933 1199
f 933 931 1199
f 1200 1199 931
f 1200 931 1279
f 1201 1199 1200
f 1202 1197 1201
f 1197 1199 1201
f 1203 1198 1202
f 1211 1204 1205
f 1195 1205 1204
f 1206 1195 1207
f 1210 1206 1207
f 1208 1209 1206
f 1207 1211 1210
f 1211 1207 1283
f 1205 1209 1213
f 1208 1213 1209
f 1214 1213 1209
f 1215 1214 1209
f 1212 1215 1209
f 1213 1212 1209
f 1213 1215 1212
f 1213 1214 1215
f 1213 1215 1212
f 1208 1205 1213
f 1214 1216 1213
f 1283 1207 1203
f 1207 1195 1203
f 1217 1219 1218
f 1218 1219 1220
f 1222 1220 1190
f 1219 1190 1220
f 1217 1221 1219
f 1223 1221 1217
f 923 1188 922
f 922 1188 1223
f 1188 1189 1223
f 1223 1189 1221
f 1224 923 922
f 1223 1217 894
f 894 1217 1218
f 896 1223 894
f 922 1223 896
f 1224 922 896
f 1225 921 1224
f 1226 921 1225
f 1227 1225 1224
f 1226 1225 1227
f 1224 896 1229
f 1228 1224 1229
f 1227 1224 1228
f 1229 895 1230
f 1230 1231 1235
f 1235 1231 1232
f 1232 1231 1233
f 1233 1231 899
f 898 899 1231
f 1233 899 900
f 1234 1236 1235
f 1237 1239 1238
f 1237 1241 1239
f 1236 1237 1238
f 1240 1242 1241
f 1241 1242 1239
f 1242 1243 1239
f 1242 1244 1243
f 1240 1244 1242
f 1240 1264 1244
f 1244 1264 1245
f 1244 1245 1243
f 1264 1246 1245
f 1257 1246 1264
f 1246 1257 1247
f 1246 1247 1245
f 1247 1227 1248
f 1248 1227 1228
f 1245 1248 1228
f 1248 1245 1247
f 1245 1228 1255
f 1255 1228 1250
f 1250 1251 1249
f 1251 1252 1253
f 1252 1235 1253
f 1252 1230 1235
f 1254 1230 1252
f 1251 1254 1252
f 1254 1229 1230
f 1228 1229 1254
f 1228 1254 1250
f 1250 1254 1251
f 1234 1232 1233
f 1235 1232 1234
f 1236 1253 1235
f 1249 1251 1253
f 1236 1238 1253
f 1238 1239 1253
f 1253 1239 1249
f 1239 1255 1249
f 1239 1243 1255
f 1243 1245 1255
f 1255 1250 1249
f 1257 1256 1247
f 1257 1258 1256
f 1258 1259 1256
f 1259 1258 904
f 1259 905 1260
f 904 905 1259
f 1256 1259 1260
f 1256 1260 1247
f 1247 1260 1227
f 1260 1226 1227
f 905 1261 1260
f 1260 1261 1226
f 1261 919 1226
f 1226 919 921
f 921 923 1224
f 1262 1263 920
f 918 1263 1262
f 911 918 1262
f 918 911 912
f 905 911 1262
f 905 1262 920
f 905 920 1261
f 1261 920 919
f 1230 898 1231
f 1218 1220 893
f 1220 1222 1204
f 1204 893 1220
f 1211 1265 1204
f 1268 1267 1266
f 1269 1270 1268
f 1268 1270 1265
f 910 885 1270
f 910 909 885
f 1269 1275 1270
f 1276 1275 1269
f 1269 1268 1271
f 1276 1269 1271
f 1271 1266 1329
f 1271 1268 1266
f 1273 1272 1289
f 1273 1274 1272
f 1273 1275 1274
f 1275 1272 1274
f 916 910 1275
f 1273 913 1275
f 1278 913 1273
f 1277 1278 1273
f 1279 1278 1277
f 1281 1200 1279
f 1282 1202 1201
f 1282 1201 1280
f 1280 1201 1200
f 1280 1200 1281
f 1283 1203 1267
f 1267 1203 1202
f 1267 1202 1282
f 1265 1211 1283
f 1265 1283 1268
f 1268 1283 1267
f 1266 1282 1285
f 1266 1267 1282
f 1285 1282 1280
f 1285 1280 1284
f 1284 1281 1314
f 1314 1281 1286
f 1281 1279 1286
f 1286 1279 1277
f 1280 1281 1284
f 1286 1277 1287
f 1287 1277 1273
f 1288 1328 1287
f 1328 1318 1287
f 1318 1286 1287
f 1288 1287 1273
f 1289 1288 1273
f 1289 1298 1290
f 1289 1290 1288
f 1291 1325 1290
f 1325 1288 1290
f 1291 1290 1298
f 1293 1292 1291
f 1292 1325 1291
f 1294 1292 1293
f 1295 1305 1294
f 1294 1305 1292
f 1296 1295 1294
f 1295 1296 1300
f 1297 1296 1294
f 1297 1294 1293
f 1297 1293 1291
f 1298 1297 1291
f 1303 1300 1299
f 1299 1276 1301
f 1300 1303 1295
f 1295 1303 1302
f 1322 1292 1323
f 1305 1306 1321
f 1308 1307 1309
f 1308 1309 1305
f 1310 1320 1307
f 1311 1307 1284
f 1284 1312 1311
f 1308 1284 1307
f 1308 1285 1284
f 1313 1310 1311
f 1311 1312 1313
f 1314 1315 1313
f 1316 1314 1286
f 1314 1316 1315
f 1318 1319 1286
f 1327 1317 1328
f 1317 1318 1328
f 1317 1315 1318
f 1318 1315 1319
f 1315 1316 1319
f 1320 1322 1321
f 1321 1306 1320
f 1306 1309 1320
f 1320 1309 1307
f 1323 1321 1322
f 1322 1324 1292
f 1324 1325 1292
f 1326 1328 1325
f 1288 1325 1328
f 1328 1326 1327
f 1324 1326 1325
f 1324 1327 1326
f 1323 1292 1305
f 1323 1305 1321
f 1319 1316 1286
f 1312 1314 1313
f 1307 1311 1310
f 1312 1284 1314
f 1329 1285 1308
f 1303 1329 1308
f 1301 1329 1303
f 1301 1271 1329
f 1271 1301 1276
f 1304 1308 1305
f 1303 1308 1304
f 1303 1304 1302
f 1305 1309 1306
f 1305 1295 1304
f 1302 1304 1295
f 1299 1301 1303
f 1329 1266 1285
f 913 916 1275
f 1275 910 1270
f 1265 1270 885
f 890 1265 887
f 885 887 1265
f 1204 1265 890
f 1195 1204 1222
f 1198 1197 1202
f 1279 931 1278
f 1337 1191 1196
f 1196 1191 1193
f 1191 1330 1193
f 941 935 1330
f 1337 1332 1191
f 1332 1330 1191
f 1331 1332 1337
f 1332 1333 1330
f 1178 1334 1331
f 1334 1332 1331
f 1335 1336 1338
f 1187 1186 1335
f 1187 1335 1190
f 1221 1187 1219
f 1221 1185 1187
f 1219 1187 1190
f 1338 1190 1335
f 1190 1338 1222
f 1334 1175 1332
f 1174 1333 1175
f 1333 1332 1175
f 1174 1173 1333
f 1333 1173 941
f 1330 1333 941
f 935 941 1192
f 1189 1185 1221
f 924 1188 923
f 926 1027 924
f 924 1027 1339
f 924 1339 1188
f 926 1050 1027
f 927 1050 926
f 1340 1026 927
f 927 1026 1050
f 937 1340 1341
f 928 1342 1341
f 936 1342 928
f 1340 1343 1341
f 917 1341 1343
f 1342 937 1341
f 1343 1340 927
f 1336 1335 1179
f 1187 1184 1186
f 1185 1184 1187
f 1189 1344 1185
f 1185 1344 1028
f 1048 1344 1189
f 1179 1183 1180
f 1183 1181 1180
f 1186 1030 1179
f 1030 1183 1179
f 1178 1182 1177
f 1172 942 1173
f 1156 943 1172
f 1031 960 1168
f 1188 1048 1189
f 1024 1342 938
f 1020 938 939
f 947 939 940
f 944 1020 939
f 1017 1018 951
f 1016 1017 1367
f 1345 1367 1017
f 955 1345 953
f 953 1345 1017
f 1346 955 621
f 621 664 1346
f 1347 1346 664
f 1348 1347 1365
f 1365 1364 1348
f 1349 1348 1364
f 1366 1348 1349
f 1366 1349 1012
f 1351 1364 1350
f 1349 1364 1351
f 1351 1350 1352
f 1350 1353 1352
f 1355 1354 1353
f 1355 1357 1354
f 1356 1357 1355
f 1356 817 1357
f 1360 1357 993
f 993 1001 1359
f 993 995 1001
f 1359 1001 1358
f 1358 1001 1002
f 1361 1359 1358
f 1354 1360 1359
f 1354 1357 1360
f 1361 1354 1359
f 1352 1353 1361
f 1353 1354 1361
f 993 1359 1360
f 1358 1002 1004
f 1362 815 1363
f 1362 1363 1365
f 1365 1363 1364
f 1363 1350 1364
f 815 1355 1363
f 1363 1355 1353
f 815 1356 1355
f 1363 1353 1350
f 664 1362 1365
f 664 1365 1347
f 1012 1349 1351
f 1367 1348 1366
f 1016 1367 1366
f 1346 1367 1345
f 1347 1367 1346
f 1367 1347 1348
f 955 1346 1345
f 1008 1352 1361
f 1006 1358 1004
f 997 996 992
f 986 991 956
f 980 979 988
f 985 984 980
f 982 984 983
f 1381 1368 1369
f 1369 1370 1371
f 1371 1370 1373
f 1374 1372 1370
f 1370 1372 1373
f 1372 978 1373
f 1373 978 979
f 1371 1373 981
f 981 1373 979
f 982 1371 981
f 982 1369 1371
f 1372 1374 969
f 968 969 1374
f 1374 1375 968
f 1377 968 1375
f 1376 1377 1375
f 961 1377 1376
f 959 961 1376
f 1171 959 1378
f 959 1376 1378
f 1378 1380 1171
f 1378 1376 1379
f 1379 1375 1374
f 1376 1375 1379
f 1369 1379 1370
f 1379 1374 1370
f 1368 1379 1369
f 1378 1379 1368
f 1380 1378 1368
f 1381 1380 1368
f 1381 983 1380
f 969 975 1372
f 982 1381 1369
f 973 974 976
f 1170 768 958
f 621 954 957
f 954 952 957
f 953 1017 951
f 944 942 943
f 1192 942 940
f 936 938 1342
f 939 938 936
f 930 939 936
f 940 939 930
f 930 936 929
f 929 936 928
f 934 1192 940
f 934 940 930
f 931 932 1278
f 918 917 1343
f 1343 1263 918
f 1343 927 1263
f 1263 927 925
f 925 924 921
f 917 918 914
f 918 915 914
f 906 909 911
f 905 906 911
f 904 901 903
f 609 612 613
f 611 612 610
